<?xml version="1.0" encoding="utf-8"?>
<!-- Generator: Adobe Illustrator 27.4.0, SVG Export Plug-In . SVG Version: 6.00 Build 0)  -->
<svg version="1.1" id="BYD_color_00000090275140343269111300000003892696370629640623_"
	 xmlns="http://www.w3.org/2000/svg" xmlns:xlink="http://www.w3.org/1999/xlink" x="0px" y="0px" viewBox="0 0 841.9 510.2"
	 style="enable-background:new 0 0 841.9 510.2;" xml:space="preserve">
<style type="text/css">
	.st0{fill:#E50012;}
	.st1{fill-rule:evenodd;clip-rule:evenodd;fill:#E50012;}
</style>
<g id="BYD_color" transform="matrix(0.5352173,0,0,0.5352173,5,4.9999983)">
	<path id="Layer" class="st0" d="M1327.2,362.2c27.9,27.9,43.5,65.7,43.5,105.1s-15.6,77.2-43.5,105c-27.8,27.9-65.6,43.5-105,43.5
		h-108.8v-71h110c21.3,1.2,42.2-6.4,57.8-21.1c15.5-14.7,24.3-35.2,24.3-56.5c0-21.4-8.8-41.8-24.3-56.5
		c-15.6-14.7-36.5-22.4-57.8-21.2h-123.5v226.3h-70.3V318.7h192.6C1261.6,318.7,1299.4,334.4,1327.2,362.2z"/>
	<path id="path156" class="st0" d="M666.5,318.7v99.5c0,2.7,0.5,5.3,1.5,7.8s2.5,4.7,4.3,6.6c1.9,1.9,4.2,3.4,6.6,4.5
		c2.5,1,5.1,1.5,7.8,1.5h51.8v64.1H674c-10.3,0-20.4-2-29.9-5.9c-9.4-3.9-18-9.6-25.3-16.8c-7.2-7.2-13-15.8-16.9-25.3
		c-3.9-9.4-6-19.6-6-29.8V318.7H666.5z"/>
	<path id="path158" class="st0" d="M979.5,318.7v106.2c0,10.2-2,20.3-5.9,29.8c-3.9,9.4-9.7,18-16.9,25.2s-15.8,13-25.2,16.9
		s-19.6,5.9-29.8,5.9H823v113.1h-70.3V438.6h136c2.7,0,5.4-0.5,7.9-1.5c2.4-1,4.7-2.6,6.6-4.5c1.9-1.9,3.4-4.1,4.4-6.6
		c1.1-2.5,1.6-5.1,1.6-7.8v-99.5H979.5z"/>
	<path id="path160" class="st1" d="M553.3,410.2c0,5.1-0.4,10.2-1.3,15.2c-0.8,5-2,9.9-3.7,14.7c-1.7,4.9-3.7,9.5-6.1,14
		c-2.5,4.5-5.3,8.7-8.4,12.7c10.6,13.6,17.2,29.8,19,46.9c1.8,17.2-1.2,34.4-8.8,49.9c-7.5,15.5-19.2,28.5-33.8,37.7
		c-14.5,9.1-31.4,14-48.6,14.1H296.4v-70.3l162.1-0.8c6.4,0,12.5-2.5,17-7c4.5-4.5,7-10.7,7-17c0-6.4-2.5-12.5-7-17.1
		c-4.5-4.5-10.6-7-17-7.7H282.2v120.3h-70.5V318.7h249.9c12.1,0,24.1,2.4,35.3,7c11.2,4.6,21.3,11.3,29.9,19.9
		c8.6,8.5,15.4,18.7,20,29.9c4.6,11.1,7,23.1,7,35.2 M458.5,437.9c6.4,0,12.5-2.5,17-7s7-10.7,7-17.1c0-6.3-2.5-12.5-7-17
		s-10.6-7-17-7.8H282.2v49.2H457L458.5,437.9z"/>
	<path id="path162" class="st1" d="M777.1,934.4C346.6,934.4-1.4,725.6-1.4,467.3S346.6,0.2,777.1,0.2
		c430.6,0,778.6,208.8,778.6,467.1S1207.7,934.4,777.1,934.4z M1506.3,467.9c0-218.7-325.9-395.5-729.2-395.5
		C373.9,72.4,48,249.2,48,467.9s325.9,395.5,729.1,395.5C1180.4,863.4,1506.3,686.6,1506.3,467.9z"/>
</g>
</svg>
