<?xml version="1.0" encoding="utf-8"?>
<!-- Generator: Adobe Illustrator 26.0.2, SVG Export Plug-In . SVG Version: 6.00 Build 0)  -->
<svg version="1.1" id="Слой_1" xmlns="http://www.w3.org/2000/svg" xmlns:xlink="http://www.w3.org/1999/xlink" x="0px" y="0px"
	 viewBox="0 0 300 200" style="enable-background:new 0 0 300 200;" xml:space="preserve">
<style type="text/css">
	.st0{fill:#010101;}
	.st1{fill:#808285;}
	.st2{fill-rule:evenodd;clip-rule:evenodd;fill:#808285;}
	.st3{fill-rule:evenodd;clip-rule:evenodd;fill:url(#SVGID_1_);}
	.st4{fill-rule:evenodd;clip-rule:evenodd;fill:url(#SVGID_00000093175904524229922560000017762459010850597290_);}
	.st5{fill-rule:evenodd;clip-rule:evenodd;fill:url(#SVGID_00000047045860803022214620000018124422082964606092_);}
	.st6{fill-rule:evenodd;clip-rule:evenodd;fill:url(#SVGID_00000091008563782744845730000018159195517089869473_);}
	.st7{fill-rule:evenodd;clip-rule:evenodd;fill:url(#SVGID_00000110450033691576629470000005028541414991899295_);}
	.st8{fill-rule:evenodd;clip-rule:evenodd;fill:url(#SVGID_00000147198180555117632910000009776926411495277953_);}
	.st9{fill:url(#SVGID_00000166641222346126003560000000934390389745739937_);}
	.st10{fill:url(#SVGID_00000085952420115910125480000009410282036495930796_);}
	.st11{fill:url(#SVGID_00000158743607407198575730000004592864426105285006_);}
	.st12{fill:url(#SVGID_00000004534941861812658000000005609816256708723100_);}
	.st13{fill:url(#SVGID_00000157282648872712422820000001131044414385014179_);}
	.st14{fill:url(#SVGID_00000109742006685866409290000005090551270721446286_);}
	.st15{fill:url(#SVGID_00000136412884041188160030000014412430840508290488_);}
	.st16{fill:url(#SVGID_00000038412527944179620310000016823217327700381628_);}
	.st17{fill:url(#SVGID_00000032634916065655705200000009803955142261020037_);}
	.st18{fill:url(#SVGID_00000171686978114765553250000005696041976783278775_);}
	.st19{fill:url(#SVGID_00000181793288220871257800000018164102587844280494_);}
</style>
<path class="st0" d="M19.6,58.1v1.1c0,1.8-0.8,2.7-2.7,2.7H2.6V50.1h14c1.8,0,2.7,0.8,2.7,2.7v0.9c0,1.2-0.4,1.9-1.2,2.2
	C19.1,56.1,19.6,56.8,19.6,58.1z M6.6,52.8v2h8.1c0.6,0,0.7-0.2,0.7-0.7v-0.5c0-0.6-0.2-0.7-0.7-0.7L6.6,52.8z M15.7,57.7
	c0-0.6-0.2-0.7-0.7-0.7H6.6v2.2H15c0.6,0,0.7-0.2,0.7-0.7L15.7,57.7z"/>
<path class="st0" d="M26,61.9c-2.3,0-3.4-1.1-3.4-3.4v-5c0-2.4,1.1-3.4,3.4-3.4h10.9c2.3,0,3.4,1.1,3.4,3.4v5c0,2.4-1.1,3.4-3.4,3.4
	L26,61.9z M35.3,58.8c0.8,0,1.1-0.3,1.1-1.1v-3.5c0-0.8-0.3-1.1-1.1-1.1h-7.7c-0.8,0-1.1,0.3-1.1,1.1v3.5c0,0.8,0.3,1.1,1.1,1.1
	H35.3z"/>
<path class="st0" d="M60.9,61.9h-4.8l-3.2-3.8h-5.4v3.8h-3.9V50.1h13.8c2.2,0,3.1,0.9,3.1,3.1v1.6c0,2.2-0.9,3.1-3,3.1L60.9,61.9z
	 M47.4,52.8v2.7h8.1c0.7,0,0.9-0.2,0.9-0.9v-0.9c0-0.7-0.2-0.9-0.9-0.9L47.4,52.8z"/>
<path class="st0" d="M77.2,50.1H81v11.8h-3.2l-10.5-7.7v7.7h-3.8V50.1h3.4l10.4,7.6V50.1z"/>
<path class="st0" d="M106.5,53.1H95v2h10.8v2.7H95V62h-3.9V50.1h15.4L106.5,53.1z"/>
<path class="st0" d="M112.5,61.9c-2.3,0-3.4-1.1-3.4-3.4v-5c0-2.4,1.1-3.4,3.4-3.4h10.9c2.3,0,3.4,1.1,3.4,3.4v5
	c0,2.4-1.1,3.4-3.4,3.4L112.5,61.9z M121.8,58.8c0.8,0,1.1-0.3,1.1-1.1v-3.5c0-0.8-0.3-1.1-1.1-1.1h-7.7c-0.8,0-1.1,0.3-1.1,1.1v3.5
	c0,0.8,0.3,1.1,1.1,1.1H121.8z"/>
<path class="st0" d="M147.3,61.9h-4.8l-3.2-3.8h-5.4v3.8h-3.9V50.1h13.8c2.2,0,3.1,0.9,3.1,3.1v1.6c0,2.2-0.9,3.1-3,3.1L147.3,61.9z
	 M133.9,52.8v2.7h8.1c0.7,0,0.9-0.2,0.9-0.9v-0.9c0-0.7-0.2-0.9-0.9-0.9L133.9,52.8z"/>
<path class="st0" d="M172.9,50.1h3.3v11.8h-3.8v-7l-4.9,5.1h-2.1l-4.9-5.1v7h-3.8V50.1h3.5l6.4,6.6L172.9,50.1z"/>
<path class="st0" d="M182.9,61.9c-2.3,0-3.4-1.1-3.4-3.4v-5c0-2.4,1.1-3.4,3.4-3.4h10.9c2.3,0,3.4,1.1,3.4,3.4v5
	c0,2.4-1.1,3.4-3.4,3.4L182.9,61.9z M192.1,58.8c0.8,0,1.1-0.3,1.1-1.1v-3.5c0-0.8-0.3-1.1-1.1-1.1h-7.7c-0.8,0-1.1,0.3-1.1,1.1v3.5
	c0,0.8,0.3,1.1,1.1,1.1H192.1z"/>
<path class="st0" d="M217.7,61.9h-4.8l-3.3-3.8h-5.4v3.8h-3.9V50.1h13.8c2.2,0,3.1,0.9,3.1,3.1v1.6c0,2.2-0.9,3.1-3,3.1L217.7,61.9z
	 M204.2,52.8v2.7h8.1c0.7,0,0.9-0.2,0.9-0.9v-0.9c0-0.7-0.2-0.9-0.9-0.9L204.2,52.8z"/>
<path class="st0" d="M224.2,59H236v2.9h-15.7V50.1h15.6V53h-11.6v1.7h11v2.4h-11V59z"/>
<path class="st1" d="M19.6,58.1v1.1c0,1.8-0.8,2.7-2.7,2.7H2.6V50.1h14c1.8,0,2.7,0.8,2.7,2.7v0.9c0,1.2-0.4,1.9-1.2,2.2
	C19.1,56.1,19.6,56.8,19.6,58.1z M6.6,52.8v2h8.1c0.6,0,0.7-0.2,0.7-0.7v-0.5c0-0.6-0.2-0.7-0.7-0.7L6.6,52.8z M15.7,57.7
	c0-0.6-0.2-0.7-0.7-0.7H6.6v2.2H15c0.6,0,0.7-0.2,0.7-0.7L15.7,57.7z"/>
<path class="st1" d="M26,61.9c-2.3,0-3.4-1.1-3.4-3.4v-5c0-2.4,1.1-3.4,3.4-3.4h10.9c2.3,0,3.4,1.1,3.4,3.4v5c0,2.4-1.1,3.4-3.4,3.4
	L26,61.9z M35.3,58.8c0.8,0,1.1-0.3,1.1-1.1v-3.5c0-0.8-0.3-1.1-1.1-1.1h-7.7c-0.8,0-1.1,0.3-1.1,1.1v3.5c0,0.8,0.3,1.1,1.1,1.1
	H35.3z"/>
<path class="st1" d="M60.9,61.9h-4.8l-3.2-3.8h-5.4v3.8h-3.9V50.1h13.8c2.2,0,3.1,0.9,3.1,3.1v1.6c0,2.2-0.9,3.1-3,3.1L60.9,61.9z
	 M47.4,52.8v2.7h8.1c0.7,0,0.9-0.2,0.9-0.9v-0.9c0-0.7-0.2-0.9-0.9-0.9L47.4,52.8z"/>
<path class="st1" d="M77.2,50.1H81v11.8h-3.2l-10.5-7.7v7.7h-3.8V50.1h3.4l10.4,7.6V50.1z"/>
<path class="st1" d="M106.5,53.1H95v2h10.8v2.7H95V62h-3.9V50.1h15.4L106.5,53.1z"/>
<path class="st1" d="M112.5,61.9c-2.3,0-3.4-1.1-3.4-3.4v-5c0-2.4,1.1-3.4,3.4-3.4h10.9c2.3,0,3.4,1.1,3.4,3.4v5
	c0,2.4-1.1,3.4-3.4,3.4L112.5,61.9z M121.8,58.8c0.8,0,1.1-0.3,1.1-1.1v-3.5c0-0.8-0.3-1.1-1.1-1.1h-7.7c-0.8,0-1.1,0.3-1.1,1.1v3.5
	c0,0.8,0.3,1.1,1.1,1.1H121.8z"/>
<path class="st1" d="M147.3,61.9h-4.8l-3.2-3.8h-5.4v3.8h-3.9V50.1h13.8c2.2,0,3.1,0.9,3.1,3.1v1.6c0,2.2-0.9,3.1-3,3.1L147.3,61.9z
	 M133.9,52.8v2.7h8.1c0.7,0,0.9-0.2,0.9-0.9v-0.9c0-0.7-0.2-0.9-0.9-0.9L133.9,52.8z"/>
<path class="st1" d="M172.9,50.1h3.3v11.8h-3.8v-7l-4.9,5.1h-2.1l-4.9-5.1v7h-3.8V50.1h3.5l6.4,6.6L172.9,50.1z"/>
<path class="st1" d="M182.9,61.9c-2.3,0-3.4-1.1-3.4-3.4v-5c0-2.4,1.1-3.4,3.4-3.4h10.9c2.3,0,3.4,1.1,3.4,3.4v5
	c0,2.4-1.1,3.4-3.4,3.4L182.9,61.9z M192.1,58.8c0.8,0,1.1-0.3,1.1-1.1v-3.5c0-0.8-0.3-1.1-1.1-1.1h-7.7c-0.8,0-1.1,0.3-1.1,1.1v3.5
	c0,0.8,0.3,1.1,1.1,1.1H192.1z"/>
<path class="st1" d="M217.7,61.9h-4.8l-3.3-3.8h-5.4v3.8h-3.9V50.1h13.8c2.2,0,3.1,0.9,3.1,3.1v1.6c0,2.2-0.9,3.1-3,3.1L217.7,61.9z
	 M204.2,52.8v2.7h8.1c0.7,0,0.9-0.2,0.9-0.9v-0.9c0-0.7-0.2-0.9-0.9-0.9L204.2,52.8z"/>
<path class="st1" d="M224.2,59H236v2.9h-15.7V50.1h15.6V53h-11.6v1.7h11v2.4h-11V59z"/>
<polygon class="st2" points="72.5,1.4 113.9,33.4 103.4,33.4 62,1.4 "/>
<polygon class="st2" points="103.4,1.4 62,33.4 72.5,33.4 113.9,1.4 "/>
<path class="st2" d="M13.4,7H50V1.1H8.9c-3.9,0-7,3.1-7,7c0,0,0,0,0,0v18.7c0,3.9,3.1,7,7,7l0,0H50v-5.9H13.4
	c-1.9,0-3.5-1.6-3.5-3.5v-4.2h37.2v-5.9H9.9v-3.7C9.9,8.6,11.4,7,13.4,7C13.4,7,13.4,7,13.4,7z"/>
<path class="st2" d="M137.4,7H174V1.1h-41.1c-3.9,0-7,3.1-7,7c0,0,0,0,0,0v18.7c0,3.9,3.1,7,7,7H174v-5.9h-36.7
	c-1.9,0-3.5-1.6-3.5-3.5v-4.2h37.2v-6h-37.2v-3.7C133.9,8.6,135.5,7,137.4,7z"/>
<path class="st2" d="M199.4,7.1h36.6V1.1h-41.2c-3.9,0-7,3.1-7,7v18.8c0,3.9,3.1,7,7,7h41.2v-6h-36.6c-1.9,0-3.5-1.6-3.5-3.5v-4.2
	h37.2v-5.9h-37.2v-3.7C195.9,8.6,197.5,7.1,199.4,7.1C199.4,7.1,199.4,7.1,199.4,7.1z"/>
<path class="st2" d="M290.2,24.5c0,1.9-1.6,3.5-3.5,3.5h-28.9V7h28.9c1.9,0,3.5,1.6,3.5,3.5V24.5z M291.2,1h-41.5v33h41.5
	c3.9,0,7-3.1,7-7V8C298.3,4.2,295.1,1,291.2,1z"/>
<linearGradient id="SVGID_1_" gradientUnits="userSpaceOnUse" x1="87.5831" y1="197.7667" x2="87.5831" y2="165.7345" gradientTransform="matrix(1 0 0 -1 0 199.1198)">
	<stop  offset="0" style="stop-color:#E2B69E"/>
	<stop  offset="1" style="stop-color:#C28A6D"/>
</linearGradient>
<polygon class="st3" points="72.1,1.4 113.5,33.4 103,33.4 61.7,1.4 "/>
<linearGradient id="SVGID_00000076593365394463658160000001732860878361218966_" gradientUnits="userSpaceOnUse" x1="87.5831" y1="197.7667" x2="87.5831" y2="165.7345" gradientTransform="matrix(1 0 0 -1 0 199.1198)">
	<stop  offset="0" style="stop-color:#E2B69E"/>
	<stop  offset="1" style="stop-color:#C28A6D"/>
</linearGradient>
<polygon style="fill-rule:evenodd;clip-rule:evenodd;fill:url(#SVGID_00000076593365394463658160000001732860878361218966_);" points="
	103,1.4 61.7,33.4 72.1,33.4 113.5,1.4 "/>
<linearGradient id="SVGID_00000130620610252240668080000016029077041591295365_" gradientUnits="userSpaceOnUse" x1="25.5651" y1="198.0692" x2="25.5651" y2="165.3755" gradientTransform="matrix(1 0 0 -1 0 199.1198)">
	<stop  offset="0" style="stop-color:#E2B69E"/>
	<stop  offset="1" style="stop-color:#C28A6D"/>
</linearGradient>
<path style="fill-rule:evenodd;clip-rule:evenodd;fill:url(#SVGID_00000130620610252240668080000016029077041591295365_);" d="M13,7
	h36.6V1.1H8.5c-3.9,0-7,3.1-7,7c0,0,0,0,0,0v18.7c0,3.9,3.1,7,7,7l0,0h41.2v-5.9H13c-1.9,0-3.5-1.6-3.5-3.5v-4.2h37.2v-5.9H9.5v-3.7
	C9.5,8.6,11.1,7,13,7C13,7,13,7,13,7z"/>
<linearGradient id="SVGID_00000032611324753047242630000016619812315329614779_" gradientUnits="userSpaceOnUse" x1="149.6011" y1="198.0385" x2="149.6011" y2="165.3448" gradientTransform="matrix(1 0 0 -1 0 199.1198)">
	<stop  offset="0" style="stop-color:#E2B69E"/>
	<stop  offset="1" style="stop-color:#C28A6D"/>
</linearGradient>
<path style="fill-rule:evenodd;clip-rule:evenodd;fill:url(#SVGID_00000032611324753047242630000016619812315329614779_);" d="
	M137,7h36.6V1.1h-41.2c-3.9,0-7,3.1-7,7c0,0,0,0,0,0v18.7c0,3.9,3.1,7,7,7h41.2v-5.9H137c-1.9,0-3.5-1.6-3.5-3.5v-4.2h37.2v-6h-37.2
	v-3.7C133.5,8.6,135.1,7,137,7C137,7,137,7,137,7z"/>
<linearGradient id="SVGID_00000006680199772235985630000017550852604935307677_" gradientUnits="userSpaceOnUse" x1="211.6192" y1="198.0128" x2="211.6192" y2="165.2986" gradientTransform="matrix(1 0 0 -1 0 199.1198)">
	<stop  offset="0" style="stop-color:#E2B69E"/>
	<stop  offset="1" style="stop-color:#C28A6D"/>
</linearGradient>
<path style="fill-rule:evenodd;clip-rule:evenodd;fill:url(#SVGID_00000006680199772235985630000017550852604935307677_);" d="
	M199,7.1h36.6V1.1h-41.2c-3.9,0-7,3.1-7,7v18.8c0,3.9,3.1,7,7,7h41.2v-6H199c-1.9,0-3.5-1.6-3.5-3.5v-4.2h37.2v-5.9h-37.2v-3.7
	C195.5,8.6,197.1,7.1,199,7.1C199,7.1,199,7.1,199,7.1z"/>
<linearGradient id="SVGID_00000103267160670473546580000010568791950319363219_" gradientUnits="userSpaceOnUse" x1="273.6321" y1="198.1154" x2="273.6321" y2="165.155" gradientTransform="matrix(1 0 0 -1 0 199.1198)">
	<stop  offset="0" style="stop-color:#E2B69E"/>
	<stop  offset="1" style="stop-color:#C28A6D"/>
</linearGradient>
<path style="fill-rule:evenodd;clip-rule:evenodd;fill:url(#SVGID_00000103267160670473546580000010568791950319363219_);" d="
	M289.8,24.5c0,1.9-1.6,3.5-3.5,3.5h-28.9V7h28.9c1.9,0,3.5,1.6,3.5,3.5L289.8,24.5z M290.9,1h-41.5v33h41.5c3.9,0,7-3.1,7-7V8
	C297.9,4.2,294.7,1,290.9,1L290.9,1z"/>
<path class="st0" d="M19.2,58.1v1.1c0,1.8-0.8,2.7-2.7,2.7H2.2V50.1h14c1.8,0,2.7,0.8,2.7,2.7v0.9c0,1.2-0.4,1.9-1.2,2.2
	C18.7,56.1,19.2,56.8,19.2,58.1z M6.1,52.8v2h8.1c0.6,0,0.7-0.2,0.7-0.7v-0.5c0-0.6-0.2-0.7-0.7-0.7L6.1,52.8z M15.3,57.7
	c0-0.6-0.2-0.7-0.7-0.7H6.1v2.2h8.4c0.6,0,0.7-0.2,0.7-0.7L15.3,57.7z"/>
<path class="st0" d="M25.6,61.9c-2.3,0-3.4-1.1-3.4-3.4v-5c0-2.4,1.1-3.4,3.4-3.4h10.9c2.3,0,3.4,1.1,3.4,3.4v5
	c0,2.3-1.1,3.4-3.4,3.4L25.6,61.9z M34.9,58.8c0.8,0,1.1-0.3,1.1-1.1v-3.5c0-0.8-0.3-1.1-1.1-1.1h-7.7c-0.8,0-1.1,0.3-1.1,1.1v3.5
	c0,0.8,0.3,1.1,1.1,1.1H34.9z"/>
<path class="st0" d="M60.5,61.9h-4.8l-3.3-3.8H47v3.8h-3.9V50.1h13.8c2.2,0,3.1,0.9,3.1,3.1v1.6c0,2.2-0.9,3.1-3,3.1L60.5,61.9z
	 M47,52.8v2.7h8.1c0.7,0,0.9-0.2,0.9-0.9v-0.9c0-0.7-0.2-0.9-0.9-0.9H47z"/>
<path class="st0" d="M76.8,50.1h3.8v11.8h-3.2l-10.5-7.7v7.7h-3.8V50.1h3.4l10.4,7.5V50.1z"/>
<path class="st0" d="M106.1,53.1H94.6v2h10.8v2.7H94.6v4.1h-3.9V50.1h15.4V53.1z"/>
<path class="st0" d="M112.1,61.9c-2.3,0-3.4-1.1-3.4-3.4v-5c0-2.4,1.1-3.4,3.4-3.4H123c2.3,0,3.4,1.1,3.4,3.4v5
	c0,2.3-1.1,3.4-3.4,3.4L112.1,61.9z M121.4,58.8c0.8,0,1.1-0.3,1.1-1.1v-3.5c0-0.8-0.3-1.1-1.1-1.1h-7.7c-0.8,0-1.1,0.3-1.1,1.1v3.5
	c0,0.8,0.3,1.1,1.1,1.1H121.4z"/>
<path class="st0" d="M146.9,61.9h-4.8l-3.2-3.8h-5.4v3.8h-3.9V50.1h13.8c2.2,0,3.1,0.9,3.1,3.1v1.6c0,2.2-0.9,3.1-3,3.1L146.9,61.9z
	 M133.5,52.8v2.7h8.1c0.7,0,0.9-0.2,0.9-0.9v-0.9c0-0.7-0.2-0.9-0.9-0.9H133.5z"/>
<path class="st0" d="M172.5,50.1h3.3v11.8h-3.8v-7l-4.9,5.1H165l-4.9-5.1v7h-3.8V50.1h3.5l6.4,6.6L172.5,50.1z"/>
<path class="st0" d="M182.5,61.9c-2.3,0-3.4-1.1-3.4-3.4v-5c0-2.4,1.1-3.4,3.4-3.4h10.9c2.3,0,3.4,1.1,3.4,3.4v5
	c0,2.3-1.1,3.4-3.4,3.4L182.5,61.9z M191.8,58.8c0.8,0,1.1-0.3,1.1-1.1v-3.5c0-0.8-0.3-1.1-1.1-1.1h-7.7c-0.8,0-1.1,0.3-1.1,1.1v3.5
	c0,0.8,0.3,1.1,1.1,1.1H191.8z"/>
<path class="st0" d="M217.3,61.9h-4.8l-3.3-3.8h-5.4v3.8h-3.9V50.1h13.8c2.2,0,3.1,0.9,3.1,3.1v1.6c0,2.2-0.9,3.1-3,3.1L217.3,61.9z
	 M203.9,52.8v2.7h8.1c0.7,0,0.9-0.2,0.9-0.9v-0.9c0-0.7-0.2-0.9-0.9-0.9H203.9z"/>
<path class="st0" d="M223.9,59h11.8v2.9h-15.7V50.1h15.6v2.9h-11.6v1.7h10.9v2.4h-10.9V59z"/>
<linearGradient id="SVGID_00000160890310369342939810000003374085973071764633_" gradientUnits="userSpaceOnUse" x1="10.6875" y1="149.0518" x2="10.6875" y2="137.2051" gradientTransform="matrix(1 0 0 -1 0 199.1198)">
	<stop  offset="0" style="stop-color:#E2B69E"/>
	<stop  offset="1" style="stop-color:#C28A6D"/>
</linearGradient>
<path style="fill:url(#SVGID_00000160890310369342939810000003374085973071764633_);" d="M19.2,58.1v1.1c0,1.8-0.8,2.7-2.7,2.7H2.2
	V50.1h14c1.8,0,2.7,0.8,2.7,2.7v0.9c0,1.2-0.4,1.9-1.2,2.2C18.7,56.1,19.2,56.8,19.2,58.1z M6.1,52.8v2h8.1c0.6,0,0.7-0.2,0.7-0.7
	v-0.5c0-0.6-0.2-0.7-0.7-0.7L6.1,52.8z M15.3,57.7c0-0.6-0.2-0.7-0.7-0.7H6.1v2.2h8.4c0.6,0,0.7-0.2,0.7-0.7L15.3,57.7z"/>
<linearGradient id="SVGID_00000129912434236454165670000009357907321154925224_" gradientUnits="userSpaceOnUse" x1="31.0397" y1="149.0518" x2="31.0397" y2="137.2051" gradientTransform="matrix(1 0 0 -1 0 199.1198)">
	<stop  offset="0" style="stop-color:#E2B69E"/>
	<stop  offset="1" style="stop-color:#C28A6D"/>
</linearGradient>
<path style="fill:url(#SVGID_00000129912434236454165670000009357907321154925224_);" d="M25.6,61.9c-2.3,0-3.4-1.1-3.4-3.4v-5
	c0-2.4,1.1-3.4,3.4-3.4h10.9c2.3,0,3.4,1.1,3.4,3.4v5c0,2.3-1.1,3.4-3.4,3.4L25.6,61.9z M34.9,58.8c0.8,0,1.1-0.3,1.1-1.1v-3.5
	c0-0.8-0.3-1.1-1.1-1.1h-7.7c-0.8,0-1.1,0.3-1.1,1.1v3.5c0,0.8,0.3,1.1,1.1,1.1H34.9z"/>
<linearGradient id="SVGID_00000173128008916595803600000017476348184631403957_" gradientUnits="userSpaceOnUse" x1="51.7559" y1="149.0518" x2="51.7559" y2="137.2051" gradientTransform="matrix(1 0 0 -1 0 199.1198)">
	<stop  offset="0" style="stop-color:#E2B69E"/>
	<stop  offset="1" style="stop-color:#C28A6D"/>
</linearGradient>
<path style="fill:url(#SVGID_00000173128008916595803600000017476348184631403957_);" d="M60.5,61.9h-4.8l-3.3-3.8H47v3.8h-3.9V50.1
	h13.8c2.2,0,3.1,0.9,3.1,3.1v1.6c0,2.2-0.9,3.1-3,3.1L60.5,61.9z M47,52.8v2.7h8.1c0.7,0,0.9-0.2,0.9-0.9v-0.9
	c0-0.7-0.2-0.9-0.9-0.9H47z"/>
<linearGradient id="SVGID_00000013890931092012456140000002465635935226862481_" gradientUnits="userSpaceOnUse" x1="71.8337" y1="149.0518" x2="71.8337" y2="137.2051" gradientTransform="matrix(1 0 0 -1 0 199.1198)">
	<stop  offset="0" style="stop-color:#E2B69E"/>
	<stop  offset="1" style="stop-color:#C28A6D"/>
</linearGradient>
<path style="fill:url(#SVGID_00000013890931092012456140000002465635935226862481_);" d="M76.8,50.1h3.8v11.8h-3.2l-10.5-7.7v7.7
	h-3.8V50.1h3.4l10.4,7.5V50.1z"/>
<linearGradient id="SVGID_00000018953940724367958940000010658437766237397928_" gradientUnits="userSpaceOnUse" x1="98.4015" y1="149.0518" x2="98.4015" y2="137.2051" gradientTransform="matrix(1 0 0 -1 0 199.1198)">
	<stop  offset="0" style="stop-color:#E2B69E"/>
	<stop  offset="1" style="stop-color:#C28A6D"/>
</linearGradient>
<path style="fill:url(#SVGID_00000018953940724367958940000010658437766237397928_);" d="M106.1,53.1H94.6v2h10.8v2.7H94.6v4.1h-3.9
	V50.1h15.4V53.1z"/>
<linearGradient id="SVGID_00000034798895189996363100000011185144572885191079_" gradientUnits="userSpaceOnUse" x1="117.5203" y1="149.0518" x2="117.5203" y2="137.2051" gradientTransform="matrix(1 0 0 -1 0 199.1198)">
	<stop  offset="0" style="stop-color:#E2B69E"/>
	<stop  offset="1" style="stop-color:#C28A6D"/>
</linearGradient>
<path style="fill:url(#SVGID_00000034798895189996363100000011185144572885191079_);" d="M112.1,61.9c-2.3,0-3.4-1.1-3.4-3.4v-5
	c0-2.4,1.1-3.4,3.4-3.4H123c2.3,0,3.4,1.1,3.4,3.4v5c0,2.3-1.1,3.4-3.4,3.4L112.1,61.9z M121.4,58.8c0.8,0,1.1-0.3,1.1-1.1v-3.5
	c0-0.8-0.3-1.1-1.1-1.1h-7.7c-0.8,0-1.1,0.3-1.1,1.1v3.5c0,0.8,0.3,1.1,1.1,1.1H121.4z"/>
<linearGradient id="SVGID_00000013192302237503146200000018187118286221849770_" gradientUnits="userSpaceOnUse" x1="138.2212" y1="149.0518" x2="138.2212" y2="137.2051" gradientTransform="matrix(1 0 0 -1 0 199.1198)">
	<stop  offset="0" style="stop-color:#E2B69E"/>
	<stop  offset="1" style="stop-color:#C28A6D"/>
</linearGradient>
<path style="fill:url(#SVGID_00000013192302237503146200000018187118286221849770_);" d="M146.9,61.9h-4.8l-3.2-3.8h-5.4v3.8h-3.9
	V50.1h13.8c2.2,0,3.1,0.9,3.1,3.1v1.6c0,2.2-0.9,3.1-3,3.1L146.9,61.9z M133.5,52.8v2.7h8.1c0.7,0,0.9-0.2,0.9-0.9v-0.9
	c0-0.7-0.2-0.9-0.9-0.9H133.5z"/>
<linearGradient id="SVGID_00000004542731520082013860000002623093930924327564_" gradientUnits="userSpaceOnUse" x1="166.0993" y1="149.0518" x2="166.0993" y2="137.2051" gradientTransform="matrix(1 0 0 -1 0 199.1198)">
	<stop  offset="0" style="stop-color:#E2B69E"/>
	<stop  offset="1" style="stop-color:#C28A6D"/>
</linearGradient>
<path style="fill:url(#SVGID_00000004542731520082013860000002623093930924327564_);" d="M172.5,50.1h3.3v11.8h-3.8v-7l-4.9,5.1H165
	l-4.9-5.1v7h-3.8V50.1h3.5l6.4,6.6L172.5,50.1z"/>
<linearGradient id="SVGID_00000023268146894069158430000018375758741360390840_" gradientUnits="userSpaceOnUse" x1="187.9387" y1="149.0518" x2="187.9387" y2="137.2051" gradientTransform="matrix(1 0 0 -1 0 199.1198)">
	<stop  offset="0" style="stop-color:#E2B69E"/>
	<stop  offset="1" style="stop-color:#C28A6D"/>
</linearGradient>
<path style="fill:url(#SVGID_00000023268146894069158430000018375758741360390840_);" d="M182.5,61.9c-2.3,0-3.4-1.1-3.4-3.4v-5
	c0-2.4,1.1-3.4,3.4-3.4h10.9c2.3,0,3.4,1.1,3.4,3.4v5c0,2.3-1.1,3.4-3.4,3.4L182.5,61.9z M191.8,58.8c0.8,0,1.1-0.3,1.1-1.1v-3.5
	c0-0.8-0.3-1.1-1.1-1.1h-7.7c-0.8,0-1.1,0.3-1.1,1.1v3.5c0,0.8,0.3,1.1,1.1,1.1H191.8z"/>
<linearGradient id="SVGID_00000044141800268051882640000003574984921130859659_" gradientUnits="userSpaceOnUse" x1="208.6242" y1="149.0518" x2="208.6242" y2="137.2051" gradientTransform="matrix(1 0 0 -1 0 199.1198)">
	<stop  offset="0" style="stop-color:#E2B69E"/>
	<stop  offset="1" style="stop-color:#C28A6D"/>
</linearGradient>
<path style="fill:url(#SVGID_00000044141800268051882640000003574984921130859659_);" d="M217.3,61.9h-4.8l-3.3-3.8h-5.4v3.8h-3.9
	V50.1h13.8c2.2,0,3.1,0.9,3.1,3.1v1.6c0,2.2-0.9,3.1-3,3.1L217.3,61.9z M203.9,52.8v2.7h8.1c0.7,0,0.9-0.2,0.9-0.9v-0.9
	c0-0.7-0.2-0.9-0.9-0.9H203.9z"/>
<linearGradient id="SVGID_00000161625928179001406720000008061145812330599832_" gradientUnits="userSpaceOnUse" x1="227.807" y1="149.0518" x2="227.807" y2="137.2051" gradientTransform="matrix(1 0 0 -1 0 199.1198)">
	<stop  offset="0" style="stop-color:#E2B69E"/>
	<stop  offset="1" style="stop-color:#C28A6D"/>
</linearGradient>
<path style="fill:url(#SVGID_00000161625928179001406720000008061145812330599832_);" d="M223.9,59h11.8v2.9h-15.7V50.1h15.6v2.9
	h-11.6v1.7h10.9v2.4h-10.9V59z"/>
</svg>
