<svg id="Layer" xmlns="http://www.w3.org/2000/svg" xmlns:xlink="http://www.w3.org/1999/xlink" viewBox="0 0 166.17 34.27"><defs><style>.cls-1,.cls-2,.cls-3,.cls-4,.cls-5{fill-rule:evenodd;}.cls-1{fill:url(#linear-gradient);}.cls-2{fill:url(#linear-gradient-3);}.cls-3{fill:url(#linear-gradient-4);}.cls-4{fill:url(#linear-gradient-5);}.cls-5{fill:url(#linear-gradient-6);}.cls-6{fill:url(#linear-gradient-7);}.cls-7{fill:url(#linear-gradient-8);}.cls-8{fill:url(#linear-gradient-9);}.cls-9{fill:url(#linear-gradient-10);}.cls-10{fill:url(#linear-gradient-11);}.cls-11{fill:url(#linear-gradient-12);}.cls-12{fill:url(#linear-gradient-13);}.cls-13{fill:url(#linear-gradient-14);}.cls-14{fill:url(#linear-gradient-15);}.cls-15{fill:url(#linear-gradient-16);}.cls-16{fill:url(#linear-gradient-17);}</style><linearGradient id="linear-gradient" x1="48.54" y1="29.84" x2="48.54" y2="12.1" gradientTransform="matrix(1, 0, 0, -1, 0, 30.37)" gradientUnits="userSpaceOnUse"><stop offset="0" stop-color="#e2b69e"/><stop offset="1" stop-color="#c28a6d"/></linearGradient><linearGradient id="linear-gradient-3" x1="14.2" y1="30" x2="14.2" y2="11.9" xlink:href="#linear-gradient"/><linearGradient id="linear-gradient-4" x1="82.88" y1="29.99" x2="82.88" y2="11.88" xlink:href="#linear-gradient"/><linearGradient id="linear-gradient-5" x1="117.22" y1="29.97" x2="117.22" y2="11.86" xlink:href="#linear-gradient"/><linearGradient id="linear-gradient-6" x1="151.55" y1="30.03" x2="151.55" y2="11.78" xlink:href="#linear-gradient"/><linearGradient id="linear-gradient-7" x1="5.96" y1="2.86" x2="5.96" y2="-3.7" xlink:href="#linear-gradient"/><linearGradient id="linear-gradient-8" x1="17.23" y1="2.86" x2="17.23" y2="-3.7" xlink:href="#linear-gradient"/><linearGradient id="linear-gradient-9" x1="28.7" y1="2.86" x2="28.7" y2="-3.7" xlink:href="#linear-gradient"/><linearGradient id="linear-gradient-10" x1="39.82" y1="2.86" x2="39.82" y2="-3.7" xlink:href="#linear-gradient"/><linearGradient id="linear-gradient-11" x1="54.53" y1="2.86" x2="54.53" y2="-3.7" xlink:href="#linear-gradient"/><linearGradient id="linear-gradient-12" x1="65.11" y1="2.86" x2="65.11" y2="-3.7" xlink:href="#linear-gradient"/><linearGradient id="linear-gradient-13" x1="76.58" y1="2.86" x2="76.58" y2="-3.7" xlink:href="#linear-gradient"/><linearGradient id="linear-gradient-14" x1="92.01" y1="2.86" x2="92.01" y2="-3.7" xlink:href="#linear-gradient"/><linearGradient id="linear-gradient-15" x1="104.1" y1="2.86" x2="104.1" y2="-3.7" xlink:href="#linear-gradient"/><linearGradient id="linear-gradient-16" x1="115.56" y1="2.86" x2="115.56" y2="-3.7" xlink:href="#linear-gradient"/><linearGradient id="linear-gradient-17" x1="126.18" y1="2.86" x2="126.18" y2="-3.7" xlink:href="#linear-gradient"/></defs><polygon class="cls-1" points="39.99 0.54 62.89 18.27 57.09 18.27 34.19 0.54 39.99 0.54"/><polygon class="cls-1" points="57.09 0.54 34.19 18.27 39.99 18.27 62.89 0.54 57.09 0.54"/><path class="cls-2" d="M7.24,3.66H27.53V.37H4.74A3.86,3.86,0,0,0,.88,4.23h0V14.61a3.86,3.86,0,0,0,3.86,3.86H27.53V15.18H7.24a1.93,1.93,0,0,1-1.93-1.93V10.93H25.89V7.63H5.31v-2A1.92,1.92,0,0,1,7.23,3.66Z"/><path class="cls-3" d="M75.91,3.68H96.2V.39H73.42a3.86,3.86,0,0,0-3.87,3.86h0V14.62a3.87,3.87,0,0,0,3.87,3.87H96.2v-3.3H75.91A1.93,1.93,0,0,1,74,13.26V11H94.57V7.65H74v-2a1.92,1.92,0,0,1,1.93-1.93Z"/><path class="cls-4" d="M110.25,3.69h20.29V.4H107.76a3.86,3.86,0,0,0-3.87,3.86V14.65a3.86,3.86,0,0,0,3.87,3.86h22.78V15.22H110.25a1.93,1.93,0,0,1-1.93-1.94V11h20.59V7.67H108.32v-2a1.93,1.93,0,0,1,1.93-1.93Z"/><path class="cls-5" d="M160.52,13.32a2,2,0,0,1-2,1.95h-16V3.66h16a2,2,0,0,1,2,2Zm.57-13h-23V18.59h23A3.9,3.9,0,0,0,165,14.7V4.24a3.91,3.91,0,0,0-3.9-3.9Z"/><path class="cls-6" d="M10.68,32v.62A1.29,1.29,0,0,1,9.2,34.07H1.25V27.51H9A1.29,1.29,0,0,1,10.49,29v.48c0,.64-.21,1.06-.64,1.22C10.4,30.83,10.68,31.25,10.68,32ZM3.42,29V30.1H7.91c.31,0,.41-.1.41-.41v-.26c0-.31-.1-.41-.41-.41ZM8.5,31.74c0-.3-.1-.41-.41-.41H3.42v1.23H8.09c.31,0,.42-.1.42-.41Z"/><path class="cls-7" d="M14.23,34.07a1.65,1.65,0,0,1-1.9-1.89V29.41a1.65,1.65,0,0,1,1.9-1.89h6a1.65,1.65,0,0,1,1.89,1.89v2.78a1.65,1.65,0,0,1-1.89,1.89Zm5.13-1.71c.44,0,.6-.14.6-.6V29.83c0-.44-.16-.6-.6-.6H15.1c-.45,0-.6.16-.6.6v1.93c0,.46.15.6.6.6Z"/><path class="cls-8" d="M33.52,34.07H30.86L29.05,32h-3v2.11H23.89V27.52h7.64c1.2,0,1.7.5,1.7,1.7v.89c0,1.2-.49,1.7-1.68,1.7ZM26.06,29v1.52h4.48c.38,0,.51-.12.51-.51V29.5c0-.38-.13-.5-.51-.5Z"/><path class="cls-9" d="M42.57,27.51h2.1v6.56H42.89l-5.83-4.26v4.26H35V27.51h1.87l5.74,4.18Z"/><path class="cls-10" d="M58.79,29.19H52.43v1.1h6v1.52h-6v2.26H50.27V27.51h8.52Z"/><path class="cls-11" d="M62.1,34.07a1.65,1.65,0,0,1-1.89-1.89V29.41a1.65,1.65,0,0,1,1.89-1.89h6A1.65,1.65,0,0,1,70,29.41v2.78a1.65,1.65,0,0,1-1.9,1.89Zm5.14-1.71c.44,0,.6-.14.6-.6V29.83c0-.44-.16-.6-.6-.6H63c-.45,0-.6.16-.6.6v1.93c0,.46.15.6.6.6Z"/><path class="cls-12" d="M81.38,34.07H78.73L76.93,32h-3v2.11H71.77V27.52H79.4c1.2,0,1.7.5,1.7,1.7v.89c0,1.2-.5,1.7-1.69,1.7ZM73.94,29v1.52h4.48c.39,0,.51-.12.51-.51V29.5c0-.38-.12-.5-.51-.5Z"/><path class="cls-13" d="M95.58,27.51h1.85v6.56h-2.1V30.22L92.6,33.06H91.42l-2.73-2.84v3.85H86.6V27.51h1.93l3.52,3.65Z"/><path class="cls-14" d="M101.1,34.07a1.65,1.65,0,0,1-1.9-1.89V29.41a1.65,1.65,0,0,1,1.9-1.89h6a1.65,1.65,0,0,1,1.9,1.89v2.78a1.65,1.65,0,0,1-1.9,1.89Zm5.13-1.71c.44,0,.6-.14.6-.6V29.83c0-.44-.16-.6-.6-.6H102c-.45,0-.6.16-.6.6v1.93c0,.46.15.6.6.6Z"/><path class="cls-15" d="M120.36,34.07h-2.65l-1.8-2.1h-3v2.11h-2.17V27.52h7.63c1.2,0,1.7.5,1.7,1.7v.89c0,1.2-.49,1.7-1.68,1.7ZM112.92,29v1.52h4.48c.39,0,.51-.12.51-.51V29.5c0-.38-.12-.5-.51-.5Z"/><path class="cls-16" d="M124,32.47h6.53v1.6h-8.7V27.51h8.62V29.1H124v.95h6.06V31.4H124Z"/></svg>