<svg id="图层_1" data-name="图层 1" xmlns="http://www.w3.org/2000/svg" viewBox="0 0 138.56 26.07"><path d="M89.15,0H71.8a1.43,1.43,0,0,0-1.43,1.43v10a1.43,1.43,0,0,0,1.43,1.43H89.15a1.43,1.43,0,0,0,1.43-1.43v-10A1.43,1.43,0,0,0,89.15,0M74.22,10.17V2.71a.05.05,0,0,1,.06-.06h12.4a.06.06,0,0,1,.06.06v7.46a.07.07,0,0,1-.06.07H74.28s-.06,0-.06-.07"/><path d="M20.49,0H16.91a.13.13,0,0,0-.13.13v10a.07.07,0,0,1-.06.07H4.91a.07.07,0,0,1-.06-.07V8a.12.12,0,0,0-.13-.12H1.13A.12.12,0,0,0,1,8v3.41a1.43,1.43,0,0,0,1.44,1.43H19.19a1.43,1.43,0,0,0,1.43-1.43V.13A.13.13,0,0,0,20.49,0"/><path d="M66.82,0H47.11A.13.13,0,0,0,47,.13V2.52a.13.13,0,0,0,.13.13H55a.06.06,0,0,1,.06.06v10a.13.13,0,0,0,.13.13h3.58a.13.13,0,0,0,.14-.13v-10A.05.05,0,0,1,59,2.65h7.87A.13.13,0,0,0,67,2.52V.13A.13.13,0,0,0,66.82,0"/><path d="M113.4,0h-3.58a.13.13,0,0,0-.13.13v10a.07.07,0,0,1-.06.07H97.92a.07.07,0,0,1-.07-.07V.13A.13.13,0,0,0,97.72,0H94.14A.13.13,0,0,0,94,.13V11.45a1.43,1.43,0,0,0,1.43,1.43H112.1a1.44,1.44,0,0,0,1.44-1.43V.13A.13.13,0,0,0,113.4,0"/><path d="M136.93,12.65l-7.32-5h5.7a1.43,1.43,0,0,0,1.43-1.43V1.43A1.43,1.43,0,0,0,135.31,0H117.09a.13.13,0,0,0-.13.13V12.75a.13.13,0,0,0,.13.13h3.59a.13.13,0,0,0,.13-.13V5.46l10.75,7.37a.37.37,0,0,0,.18.05h5.11a.13.13,0,0,0,.08-.23m-16.06-10h12s.07,0,.07.06V4.92a.07.07,0,0,1-.07.07h-12s-.06,0-.06-.07V2.71a.05.05,0,0,1,.06-.06"/><path d="M43.43,2.65a.13.13,0,0,0,.13-.13V.13A.13.13,0,0,0,43.43,0H25.48a1.43,1.43,0,0,0-1.43,1.43v10a1.43,1.43,0,0,0,1.43,1.43h18a.13.13,0,0,0,.13-.13V10.37a.13.13,0,0,0-.13-.13H28a.07.07,0,0,1-.07-.07V7.83A.07.07,0,0,1,28,7.76H42.43a.13.13,0,0,0,.14-.13V5.25a.13.13,0,0,0-.14-.13H28a.07.07,0,0,1-.07-.07V2.71s0-.06.07-.06Z"/><path d="M21.82,18.69a2.45,2.45,0,0,1,1,.2,2.63,2.63,0,0,1,.79.54,2.41,2.41,0,0,1,.54.79,2.93,2.93,0,0,1,.23,1c0,.15,0,.33,0,.55V23c0,.22,0,.39,0,.54a2.81,2.81,0,0,1-.23,1,2.52,2.52,0,0,1-.54.79,2.44,2.44,0,0,1-.79.53,2.29,2.29,0,0,1-1,.2h-4.6c-.06,0-.08,0-.08-.09V18.79c0-.06,0-.1.08-.1Zm-.15,6.1a.81.81,0,0,0,.44-.12,1,1,0,0,0,.33-.29,1.59,1.59,0,0,0,.21-.41,1.89,1.89,0,0,0,.09-.45c0-.14,0-.31,0-.51V21.75c0-.2,0-.38,0-.52a1.93,1.93,0,0,0-.08-.46,1.44,1.44,0,0,0-.21-.41,1.32,1.32,0,0,0-.33-.29.84.84,0,0,0-.45-.12H18.75v4.84Z"/><path d="M29.82,20.8c.07,0,.1,0,.1.09v1c0,.06,0,.09-.1.09h-2.1a2.3,2.3,0,0,0-.51,0,.84.84,0,0,0-.3.15.43.43,0,0,0-.14.23,1.46,1.46,0,0,0,0,.31V26a.08.08,0,0,1-.09.09H25.39c-.07,0-.1,0-.1-.09V22.53a1.54,1.54,0,0,1,.57-1.3,2.87,2.87,0,0,1,1.76-.43Z"/><path d="M32.18,18.69a.08.08,0,0,1,.09.09V20a.08.08,0,0,1-.09.09H30.93c-.07,0-.1,0-.1-.09v-1.2c0-.06,0-.09.1-.09Zm0,2.11c.06,0,.09,0,.09.08V26a.08.08,0,0,1-.09.09H30.93c-.07,0-.1,0-.1-.09V20.88c0-.06,0-.08.1-.08Z"/><path d="M39.56,20.76c.11,0,.14,0,.09.14l-.9,2-.33.77-.31.68c-.09.2-.16.38-.22.52l-.11.25a2.46,2.46,0,0,1-.32.52.91.91,0,0,1-.41.29,1,1,0,0,1-.29.07l-.35,0-.34,0A1.07,1.07,0,0,1,35.8,26a1.22,1.22,0,0,1-.42-.29,2.46,2.46,0,0,1-.32-.52L35,24.9l-.23-.52-.3-.68-.33-.77-.9-2c0-.09,0-.14.1-.14h1.16a.3.3,0,0,1,.29.19l1.57,3.57a.09.09,0,0,0,.06.06h.05s0,0,0,0a.13.13,0,0,0,.07-.06L38.1,21a.32.32,0,0,1,.3-.19Z"/><path d="M44.87,20.8a1.79,1.79,0,0,1,.73.14,1.94,1.94,0,0,1,.58.4,2.13,2.13,0,0,1,.38.59,1.8,1.8,0,0,1,.14.68v.9a.53.53,0,0,1-.16.36.57.57,0,0,1-.41.17H42v.2a.8.8,0,0,0,.16.46.52.52,0,0,0,.43.21h3.69c.07,0,.1,0,.1.08v1c0,.06,0,.09-.1.09H42.44a1.51,1.51,0,0,1-.73-.17,1.74,1.74,0,0,1-.56-.44,2,2,0,0,1-.38-.61,2.17,2.17,0,0,1-.17-.7c0-.1,0-.21,0-.33s0-.25,0-.38,0-.24,0-.36,0-.24,0-.34a1.93,1.93,0,0,1,.16-.7,2,2,0,0,1,.38-.62,1.75,1.75,0,0,1,.57-.44,1.63,1.63,0,0,1,.73-.16Zm.22,2.1a.21.21,0,0,0,.12,0,.21.21,0,0,0,0-.13v-.18a.5.5,0,0,0-.57-.6H42.63a.55.55,0,0,0-.43.18.61.61,0,0,0-.16.42v.36Z"/><path d="M60.08,18.69a.1.1,0,0,1,.09.06.09.09,0,0,1,0,.09l-4,4.36V26a.08.08,0,0,1-.09.09H54.65c-.07,0-.1,0-.1-.09V23.17l-4-4.33a.08.08,0,0,1,0-.09.09.09,0,0,1,.08-.06h1.6a.44.44,0,0,1,.35.15l2.54,2.77a.34.34,0,0,0,.46,0l2.54-2.77a.42.42,0,0,1,.34-.15Z"/><path d="M63.48,20.74l1,0a3.52,3.52,0,0,1,.91.16,1.56,1.56,0,0,1,1,1h0a2.84,2.84,0,0,1,.2.72,7.27,7.27,0,0,1,0,.82,6.91,6.91,0,0,1,0,.8,2.91,2.91,0,0,1-.2.73h0a1.62,1.62,0,0,1-.38.59,1.88,1.88,0,0,1-.65.39,4.05,4.05,0,0,1-.88.14c-.35,0-.7,0-1.07,0s-.72,0-1.07,0a4.16,4.16,0,0,1-.88-.14,1.66,1.66,0,0,1-1-1,3.17,3.17,0,0,1-.19-.72,7,7,0,0,1,0-.81,7.26,7.26,0,0,1,0-.83,3.08,3.08,0,0,1,.19-.71,1.69,1.69,0,0,1,.39-.59,1.6,1.6,0,0,1,.65-.38,4.43,4.43,0,0,1,.91-.15C62.79,20.75,63.13,20.74,63.48,20.74Zm0,4.22h.7a2,2,0,0,0,.55-.09.52.52,0,0,0,.29-.2,1.05,1.05,0,0,0,.15-.3,2.63,2.63,0,0,0,.07-.42c0-.16,0-.32,0-.51s0-.36,0-.52a2.45,2.45,0,0,0-.07-.42,1.35,1.35,0,0,0-.15-.32.51.51,0,0,0-.29-.19,3.72,3.72,0,0,0-.57-.08H62.78a2.07,2.07,0,0,0-.55.08.51.51,0,0,0-.29.19,1.07,1.07,0,0,0-.16.32,3.11,3.11,0,0,0-.07.44c0,.15,0,.32,0,.5s0,.33,0,.49a3.11,3.11,0,0,0,.07.44.86.86,0,0,0,.16.3.61.61,0,0,0,.29.2,1.89,1.89,0,0,0,.54.09Z"/><path d="M73.35,20.8c.07,0,.1,0,.1.09v2.48a7.62,7.62,0,0,1,0,.85,3.13,3.13,0,0,1-.17.73,1.6,1.6,0,0,1-.39.59,1.54,1.54,0,0,1-.65.38,4.85,4.85,0,0,1-.74.15c-.24,0-.55,0-.91,0s-.67,0-.92,0a4.5,4.5,0,0,1-.73-.15,1.65,1.65,0,0,1-.65-.38,1.79,1.79,0,0,1-.39-.59,2.87,2.87,0,0,1-.19-.74,5.73,5.73,0,0,1-.06-.84V20.89c0-.06,0-.09.1-.09H69c.06,0,.1,0,.1.09v2.48a4.1,4.1,0,0,0,0,.5,2.11,2.11,0,0,0,.07.46.72.72,0,0,0,.16.3.65.65,0,0,0,.28.2,1.8,1.8,0,0,0,.41.11l.55,0,.54,0a1.67,1.67,0,0,0,.41-.11.63.63,0,0,0,.29-.2,1.05,1.05,0,0,0,.15-.3,2.6,2.6,0,0,0,.06-.44c0-.17,0-.34,0-.52V20.89a.08.08,0,0,1,.09-.09Z"/><path d="M78.89,20.8c.07,0,.1,0,.1.09v1c0,.06,0,.09-.1.09h-2.1a2.3,2.3,0,0,0-.51,0,.84.84,0,0,0-.3.15.43.43,0,0,0-.14.23,1,1,0,0,0,0,.31V26a.08.08,0,0,1-.09.09H74.46c-.07,0-.1,0-.1-.09V22.53a1.56,1.56,0,0,1,.56-1.3,2.91,2.91,0,0,1,1.76-.43Z"/><path d="M95.55,20.8c.07,0,.1,0,.1.09v2.48a7.62,7.62,0,0,1-.05.85,3.13,3.13,0,0,1-.17.73,1.6,1.6,0,0,1-.39.59,1.54,1.54,0,0,1-.65.38,4.85,4.85,0,0,1-.74.15c-.24,0-.55,0-.91,0s-.68,0-.92,0a4.29,4.29,0,0,1-.73-.15,1.76,1.76,0,0,1-.66-.38A2.16,2.16,0,0,1,90,25a2.86,2.86,0,0,1-.18-.74,5.73,5.73,0,0,1-.06-.84V20.89c0-.06,0-.09.1-.09h1.25a.08.08,0,0,1,.09.09v2.48c0,.17,0,.34,0,.5a2.92,2.92,0,0,0,.08.46.72.72,0,0,0,.16.3.65.65,0,0,0,.28.2,1.8,1.8,0,0,0,.41.11l.55,0,.54,0a1.67,1.67,0,0,0,.41-.11.63.63,0,0,0,.29-.2.83.83,0,0,0,.14-.3,1.84,1.84,0,0,0,.07-.44c0-.17,0-.34,0-.52V20.89a.08.08,0,0,1,.09-.09Z"/><path d="M98.91,19.41c.07,0,.1,0,.1.09v1.3h2.35c.07,0,.1,0,.1.09v1c0,.06,0,.09-.1.09H99v2.27a.84.84,0,0,0,.15.47.5.5,0,0,0,.43.23h1.64a.08.08,0,0,1,.09.09v1a.08.08,0,0,1-.09.09H99.41a1.81,1.81,0,0,1-.74-.15,1.85,1.85,0,0,1-.58-.41,1.62,1.62,0,0,1-.38-.58,1.65,1.65,0,0,1-.14-.7V21.94h-.92a.08.08,0,0,1-.09-.09v-1a.08.08,0,0,1,.09-.09h.92V19.5a.08.08,0,0,1,.09-.09Z"/><path d="M108.12,20.8c.06,0,.1,0,.1.09v2.48a7.62,7.62,0,0,1,0,.85A2.69,2.69,0,0,1,108,25a1.58,1.58,0,0,1-.38.59,1.51,1.51,0,0,1-.66.38,4.73,4.73,0,0,1-.73.15c-.25,0-.55,0-.92,0s-.67,0-.92,0a4.73,4.73,0,0,1-.73-.15,1.61,1.61,0,0,1-1-1,3.34,3.34,0,0,1-.19-.74,7.58,7.58,0,0,1,0-.84V20.89c0-.06,0-.09.1-.09h1.25a.08.08,0,0,1,.09.09v2.48c0,.17,0,.34,0,.5a2.92,2.92,0,0,0,.08.46.71.71,0,0,0,.15.3.69.69,0,0,0,.29.2,1.67,1.67,0,0,0,.41.11l.54,0,.55,0a1.8,1.8,0,0,0,.41-.11.55.55,0,0,0,.28-.2.71.71,0,0,0,.15-.3,1.84,1.84,0,0,0,.07-.44c0-.17,0-.34,0-.52V20.89a.08.08,0,0,1,.09-.09Z"/><path d="M113.66,20.8a.08.08,0,0,1,.09.09v1a.08.08,0,0,1-.09.09h-2.1a2.3,2.3,0,0,0-.51,0,.84.84,0,0,0-.3.15.51.51,0,0,0-.15.23,1.48,1.48,0,0,0,0,.31V26c0,.06,0,.09-.1.09h-1.25a.08.08,0,0,1-.09-.09V22.53a1.56,1.56,0,0,1,.56-1.3,2.89,2.89,0,0,1,1.76-.43Z"/><path d="M119,20.8a1.76,1.76,0,0,1,.73.14,1.82,1.82,0,0,1,.58.4,1.93,1.93,0,0,1,.38.59,1.63,1.63,0,0,1,.14.68v.9a.53.53,0,0,1-.16.36.54.54,0,0,1-.4.17h-4.09v.2a.79.79,0,0,0,.15.46.52.52,0,0,0,.44.21h3.69c.06,0,.09,0,.09.08v1a.08.08,0,0,1-.09.09h-3.88a1.48,1.48,0,0,1-.73-.17,1.78,1.78,0,0,1-.57-.44,2,2,0,0,1-.38-.61,1.93,1.93,0,0,1-.16-.7,3.25,3.25,0,0,1,0-.33v-.74c0-.12,0-.24,0-.34a1.73,1.73,0,0,1,.15-.7,2,2,0,0,1,.38-.62,1.69,1.69,0,0,1,.58-.44,1.6,1.6,0,0,1,.73-.16Zm.23,2.1a.16.16,0,0,0,.11,0,.17.17,0,0,0,0-.13v-.18a.49.49,0,0,0-.56-.6h-2.06a.56.56,0,0,0-.44.18.6.6,0,0,0-.15.42v.36Z"/><rect x="1" y="22.94" width="12.68" height="0.45"/><path d="M88.8,18.69H83.13v7.26c0,.07,0,.11.09.11h1.44c.06,0,.09,0,.09-.11V23H88.6c.09,0,.13,0,.13-.09V21.83c0-.06,0-.09-.13-.09H84.72V20H88.8a.08.08,0,0,0,.09-.09V18.79C88.89,18.73,88.86,18.69,88.8,18.69Z"/><rect x="124.23" y="22.94" width="12.68" height="0.45"/></svg>