<svg xmlns="http://www.w3.org/2000/svg" viewBox="0 0 841.9 295">
    <path d="M439.9 126.35H379a8.92 8.92 0 0 0-8.9 8.9v29.1a8.92 8.92 0 0 0 8.9 8.9h60.92a8.92 8.92 0 0 0 8.9-8.9v-29.1a8.92 8.92 0 0 0-8.92-8.9Z" style="fill:none"/>
    <path d="M200.27.54a.62.62 0 0 0-.45.21l-69 77.3a31.73 31.73 0 0 0-8 20.1l-4.2 149a.63.63 0 0 0 1.2.3l8.6-15a14.79 14.79 0 0 0 1.9-5.7l12.3-90.8a63 63 0 0 1 16.9-35.1l28.3-29.6a47.35 47.35 0 0 0 13.1-32.7V1.15a.63.63 0 0 0-.65-.61ZM829 109.25h-16.48a.86.86 0 0 0-.8.8v30.4a.9.9 0 0 1-.9.9H736a.9.9 0 0 1-.9-.9v-30.4a.86.86 0 0 0-.8-.8h-16.5a.86.86 0 0 0-.8.8v79.7a.86.86 0 0 0 .8.8h16.5a.86.86 0 0 0 .8-.8v-30.4a.9.9 0 0 1 .9-.9h74.8a.9.9 0 0 1 .9.9v30.4a.86.86 0 0 0 .8.8H829a.86.86 0 0 0 .8-.8v-79.7a.86.86 0 0 0-.8-.8ZM589.8 109.25h-18.28a11.11 11.11 0 0 0-7.7 3.1l-30.5 30a.91.91 0 0 1-1.2 0l-30.4-30a11.11 11.11 0 0 0-7.7-3.1h-18.4a.35.35 0 0 0-.2.6l47.4 47.7a3.12 3.12 0 0 1 .9 2.2v30a.86.86 0 0 0 .8.8H541a.86.86 0 0 0 .8-.8v-30a3.12 3.12 0 0 1 .9-2.2l47.4-47.7c.2-.2 0-.6-.3-.6ZM637 109.05a1.31 1.31 0 0 0-1.83-.27 1.72 1.72 0 0 0-.27.27l-58.7 81c-.1.2 0 .5.2.5h17.7a6.3 6.3 0 0 0 5.2-2.7l36-50a.84.84 0 0 1 1.16-.24.91.91 0 0 1 .24.24l36 50a6.31 6.31 0 0 0 5.2 2.7h17.6a.29.29 0 0 0 .31-.25.27.27 0 0 0-.11-.25ZM465.72 128.85a19.57 19.57 0 0 0-19.44-19.7h-73.56a19.57 19.57 0 0 0-19.5 19.64v42.06a19.63 19.63 0 0 0 19.5 19.7h73.5a19.57 19.57 0 0 0 19.5-19.64v-42.06Zm-25.8 44.4H379a8.92 8.92 0 0 1-8.9-8.9v-29.1a8.92 8.92 0 0 1 8.9-8.9h60.9a8.92 8.92 0 0 1 8.9 8.9v29.1a8.92 8.92 0 0 1-8.88 8.9ZM343.3 109.15h-17.58a6.31 6.31 0 0 0-5.2 2.7L285 161.05a.84.84 0 0 1-1.16.24.91.91 0 0 1-.24-.24l-35.4-49.2a6.31 6.31 0 0 0-5.2-2.7h-17.6a.29.29 0 0 0-.31.25.27.27 0 0 0 .11.25L283.4 190a1.31 1.31 0 0 0 1.83.27 1.72 1.72 0 0 0 .27-.27l58.2-80.3c0-.25-.1-.55-.4-.55ZM71 78.05 2 .75a.65.65 0 0 0-.41-.19.63.63 0 0 0-.67.59v37.4A47.33 47.33 0 0 0 14 71.25l28.32 29.65a63 63 0 0 1 16.9 35.1l12.28 90.75a14.79 14.79 0 0 0 1.9 5.7l8.6 15a.63.63 0 0 0 1.2-.3l-4.2-149a31.73 31.73 0 0 0-8-20.1ZM109.82 84.65l-8.1-7a1.22 1.22 0 0 0-1.6 0l-8.1 7a6.42 6.42 0 0 0-2.2 4.9l5.4 189.8a4.13 4.13 0 0 0 .4 1.5l4.7 8.1a.66.66 0 0 0 .9.2.64.64 0 0 0 .2-.2l4.7-8.1a2.81 2.81 0 0 0 .4-1.5l5.4-189.7a6.12 6.12 0 0 0-2.1-5Z"/>
</svg>
