<svg id="FIAT" xmlns="http://www.w3.org/2000/svg" viewBox="0 0 555.61 420.7"><path d="M145.6,0H206V420.7H145.6ZM404.32,0V50.76h46.79V420.7h58.47V50.76h46V0ZM0,420.7H58.47V229.84h49.81V179.77H58.47v-129h65V0H0Zm412.07-27.56q0,13.83,0,27.56h-54.7q-.08-23.88-.11-48c0-16.05-.12-32.13-.29-48.15-.35-32-1.08-63.89-2.75-94.73H289.91V420.7H237.39V0h123.4a315.11,315.11,0,0,1,19,45,440.93,440.93,0,0,1,13.19,48.7c3.59,16.75,6.44,34,8.73,51.59s4,35.54,5.38,53.67,2.3,36.57,3,55,1.14,37.14,1.43,55.7.44,37.32.52,55.76Q412.06,379.31,412.07,393.14ZM350.51,179.77c-4.7-48.1-12.76-92.62-26.72-129H289.91v129Z"/></svg>