<svg id="Layer_1" data-name="Layer 1" xmlns="http://www.w3.org/2000/svg" viewBox="0 0 585.7 174.35"><path d="M136,71.57c-.36,12.83-6.3,25.86-15.29,37.7a81.35,81.35,0,0,1-9.32,10.39,3.41,3.41,0,0,0-1.28,3.59,96.37,96.37,0,0,1,1.46,23.92,39.89,39.89,0,0,1-4.42,16.5C103.38,171,96.55,174,88.49,172.44c-9-1.76-16.07-6.89-22.82-12.65a98,98,0,0,1-10.3-10.28,5.73,5.73,0,0,0-5.11-2c-14.43.51-27.95-2.07-38.62-12.85C3.31,126.24.34,115.83,1.1,104.29,1.85,93.13,5.8,83,11.89,73.65a4.65,4.65,0,0,0,.65-4.18C9.22,58,6.8,46.45,6.6,34.5c-.11-6.81.23-13.6,2.6-20.12C13.47,2.64,23.05-1.66,34.59,3,44.82,7,53,13.92,60.4,21.79c.88.94,1.73,1.91,2.58,2.87,2.09,2.37,3.78,5.91,6.38,6.79s6.06-1,9.18-1.53c10.63-1.7,21.09-1.36,31.35,2.34,7.17,2.59,13.34,6.54,18,12.54C133.51,52,136.08,60.2,136,71.57ZM95.06,89.68c-.12-.41-.22-.9-.4-1.36A224,224,0,0,0,71,42.67c-1.1-1.63-2.23-1.61-3.76-1.11A95,95,0,0,0,34.64,60.2c-1.44,1.23-1.56,2.33-1,4.08,6,17.58,14.79,33.75,24.58,49.44.69,1.12,1.62,2.07,3.12.73a9.1,9.1,0,0,1,2.39-1.14A97.75,97.75,0,0,0,93.25,92.66C94.06,91.85,95.15,91.14,95.06,89.68Zm4.31-4.16c5.18-7,9.15-13.94,10.41-22,1.37-8.82-.72-16.41-8.93-21.19-7.6-4.42-15.89-4.46-24.27-3-2.59.46-.82,2-.32,2.71q5.63,8.11,10.42,16.73A233.66,233.66,0,0,1,99.37,85.52ZM26.9,30.9a93.3,93.3,0,0,0,2.78,19.73c.39,1.68.82,1.93,2.23.79A101.93,101.93,0,0,1,62.13,34.19c1.42-.51,1.58-1,.59-2.27-5-6.08-10.45-11.59-17.28-15.61a17.62,17.62,0,0,0-7.18-2.63c-2.9-.28-5.51.13-7.51,2.76C27.42,20.83,27.08,25.88,26.9,30.9ZM16.61,83.29c-4.1,8.49-6.93,17.1-1.88,26,4,7.11,10.93,9.46,19.35,10.41A282.48,282.48,0,0,1,16.61,83.29Zm66,56.27c4.66,2.41,8.78,5.73,14,2.93,5.91-3.2,5.81-9.16,6.48-15.32-3.69,2.43-6.81,4.63-10.06,6.6S86.37,137.48,82.61,139.56Z"/><path d="M431.14,109c-8.54,0-17.07.07-25.6,0-2.27,0-2.6.62-2.16,2.7,1.64,7.75,8.51,12.55,17.35,12.06,6.2-.35,11.42-2.39,14.61-8.07.65-1.16,1.6-1,2.55-1,6.15,0,12.3.07,18.45,0,2.17,0,2.3.55,1.43,2.32-3.14,6.42-7.61,11.67-14,14.81-15.32,7.46-31,7.66-46.45.69-12.89-5.83-18.46-17.42-17.12-33.15,1-12.15,9.75-22.61,22.13-26.28a60.34,60.34,0,0,1,32.59-.71c15.22,3.89,24.06,14.87,24.68,30.5.24,6.18.24,6.18-5.8,6.18ZM420.2,96.08v0c3.57,0,7.14,0,10.7,0,1.92,0,4.85,1,5.52-.47.89-1.91-.8-4.28-2.12-6.15a11,11,0,0,0-3.24-3,20.57,20.57,0,0,0-14.3-2.6c-5.7.88-10.27,3.46-12.38,9.26-.78,2.12-.64,3.22,2.15,3.09C411.08,95.93,415.64,96.08,420.2,96.08Z"/><path d="M175.44,114.5c3,0,6,0,8.93,0,.94,0,1.75,0,2,1.15,1,4.23,4.26,6,8.14,6.82a43.9,43.9,0,0,0,17.43.19c.38-.08.75-.24,1.13-.36,3.71-1.16,5.87-3.11,5.57-5.3-.51-3.71-3.72-3.85-6.36-4.14-7.18-.8-14.39-1.33-21.6-1.89-5.78-.46-11.41-1.34-16.34-4.71a17.67,17.67,0,0,1,.13-29.53c6.05-4,13-5.3,20-5.88,9.84-.81,19.64-.62,29.08,2.71,6.49,2.29,11.92,5.86,13.88,13a14.43,14.43,0,0,1,.36,1.44c.34,2.15.37,3.63-2.78,3.41-5.14-.34-10.32-.1-15.48-.08-1,0-1.86.1-2.34-1.17-1.41-3.71-4.46-5.35-8.15-6.11a33.1,33.1,0,0,0-16.1.36c-2.15.62-4.52,1.53-4.59,4.36s2.45,3.64,4.58,4.26c7.11,2.07,14.51,1.83,21.8,2.43a54.2,54.2,0,0,1,12.29,1.93c7.16,2.3,12.13,6.72,13,14.55s-1.77,14.43-8.5,19c-5.67,3.82-12.18,5.2-18.82,5.78-11.51,1-23,1-34-3.24-7.28-2.79-12.31-7.76-14-15.64-.47-2.2-.51-3.79,2.67-3.4A65,65,0,0,0,175.44,114.5Z"/><path d="M282.54,137.18c-8.1,0-16-1.11-23.41-4.58-13.06-6.14-18.84-16.69-18.21-30.8.59-13.3,7.45-22.65,19.76-27.35,15.09-5.77,30.55-5.78,45.49.5,12.84,5.4,19.21,16.68,18.49,30.61s-8.49,23.95-22,28.61A59.85,59.85,0,0,1,282.54,137.18Zm19.7-33.41c0-10.82-7.95-18.31-19.4-18.28s-19.49,7.38-19.59,18.17c-.11,11,7.82,18.56,19.44,18.57S302.25,114.72,302.24,103.77Z"/><path d="M519.81,114.5c1.59,0,3.18,0,4.77,0,3.17,0,6.4-.9,7.78,3.83.88,3,4.65,3.79,7.69,4.34a44.23,44.23,0,0,0,15.69.13,11.42,11.42,0,0,0,6.35-3,3.46,3.46,0,0,0-1-5.86,16.5,16.5,0,0,0-5.47-1.28c-9.53-1.18-19.23-.9-28.64-3-11.93-2.62-18.4-12.94-15.09-23.63,1.87-6.07,6.25-10,12-11.9a68.39,68.39,0,0,1,45.74,0c6.87,2.41,11.9,7,12.91,14.83.22,1.76-.1,2.44-2.08,2.39-5.45-.14-10.91-.06-16.37,0-1.13,0-1.88-.08-2.4-1.45-1.12-3-3.53-4.66-6.57-5.49a33,33,0,0,0-16.72-.24,12.21,12.21,0,0,0-2.23.76c-1.77.84-3.44,1.94-3.31,4.13.13,2,1.77,3,3.51,3.62,4.42,1.62,9.08,1.84,13.72,2.21,6.32.49,12.7.44,18.92,1.83,9.1,2,14.54,7.21,15.51,14.63,1.28,9.8-3,17.41-12,21.6A45.71,45.71,0,0,1,557,136.76c-10.82.94-21.6.85-32-2.65-8.47-2.84-14.34-8.17-15.88-17.42-.27-1.63-.1-2.32,1.79-2.23C513.86,114.6,516.84,114.5,519.81,114.5Z"/><path d="M355.87,93.1c0-13.06,0-26.12,0-39.17,0-1.83.31-2.57,2.37-2.51,5.35.16,10.71.11,16.06,0,1.67,0,2.42.19,2.41,2.19q-.1,39.62,0,79.23c0,2-.69,2.27-2.4,2.24-5.35-.09-10.71-.13-16.06,0-2.06,0-2.39-.7-2.38-2.56C355.91,119.41,355.87,106.25,355.87,93.1Z"/><path d="M348.8,93.23c0,13.07,0,26.13,0,39.2,0,2-.38,2.76-2.56,2.69-5.26-.16-10.52-.11-15.78,0-1.68,0-2.45-.24-2.44-2.22q.09-39.63,0-79.27c0-1.67.43-2.21,2.14-2.18,5.46.11,10.92.13,16.37,0,1.9-.05,2.27.54,2.26,2.32C348.77,66.91,348.8,80.07,348.8,93.23Z"/><path d="M485,80.36c3.81-3.62,7.26-6.66,11.68-8.38A26.77,26.77,0,0,1,509,70.67c1.16.1,1.75.47,1.73,1.8q-.11,6.68,0,13.36c0,1.33-.34,1.59-1.7,1.47a31.53,31.53,0,0,0-10.65.6c-7.92,2-13.05,8.65-13.24,17.56s-.15,18-.05,27c0,2.08-.55,2.69-2.63,2.64-5.26-.15-10.52-.14-15.78,0-2,0-2.44-.6-2.43-2.52q.11-28.65,0-57.31c0-1.79.24-2.61,2.35-2.54,5.35.16,10.71.15,16.07,0,2,0,2.58.6,2.39,2.49C484.91,76.7,485,78.19,485,80.36Z"/></svg>