<svg id="Changan_Logo" data-name="Changan Logo" xmlns="http://www.w3.org/2000/svg" viewBox="0 0 273.5 238.74"><defs><style>.cls-1{fill:#2d4b89;}</style></defs><path id="path14" class="cls-1" d="M137.22.6C24.76.6-4.79,41.54,2.42,122c7.22,80.6,36.5,115.55,134.8,115.55s127.61-35,134.83-115.55C279.23,41.56,249.7.6,137.22.6M247.51,37.82c16.12,17.75,22,44.33,18.49,83.62-3.72,41.69-13.38,67.6-31.3,84-19.3,17.7-50.27,25.94-97.48,25.94s-78.16-8.24-97.45-25.94c-17.93-16.43-27.59-42.34-31.31-84-3.52-39.31,2.37-65.9,18.47-83.65C46,16.87,80.85,6.69,137.22,6.69s91.27,10.18,110.29,31.13"/><path id="path16" class="cls-1" d="M248.07,120.71c-3.25,35.87-11.39,58-26.42,71.74C206.88,206,183.44,213,148.54,214.22a1.07,1.07,0,0,1-1-1.57l44.78-82.25a65.64,65.64,0,0,0,8-31.53V32.67a1.08,1.08,0,0,1,1.42-1c13.51,4.3,23.84,10.41,31.11,18.35,13.38,14.63,18.2,37.1,15.18,70.72m-221.67,0c-3-33.62,1.79-56.09,15.2-70.72Q52.49,38.08,72.7,31.64a1.07,1.07,0,0,1,1.4,1v66.2a66,66,0,0,0,8,31.53l44.78,82.22a1.09,1.09,0,0,1-1,1.6C91,213,67.61,206,52.81,192.45c-15-13.73-23.17-35.87-26.41-71.74M188.25,29.42c-19.72,49.25-41.51,95.06-48.62,109.79a2.67,2.67,0,0,1-4.8,0c-7.11-14.73-28.9-60.54-48.62-109.79A1.09,1.09,0,0,1,87,28c14-2.82,30.75-4.27,50.25-4.27S173.4,25.13,187.48,28a1.08,1.08,0,0,1,.77,1.47m-51-16.6c-101,0-128.18,36.37-121.64,108.86,6.49,72.3,33,103.6,121.64,103.6S252.36,194,258.87,121.68c6.52-72.49-20.61-108.86-121.64-108.86"/></svg>