<?xml version="1.0" encoding="utf-8"?>
<!-- Generator: Adobe Illustrator 26.0.2, SVG Export Plug-In . SVG Version: 6.00 Build 0)  -->
<svg version="1.1" id="Layer_1" xmlns="http://www.w3.org/2000/svg" xmlns:xlink="http://www.w3.org/1999/xlink" x="0px" y="0px"
	 viewBox="0 0 2443 1308" style="enable-background:new 0 0 2443 1308;" xml:space="preserve">
<style type="text/css">
	.st0{fill-rule:evenodd;clip-rule:evenodd;}
</style>
<path class="st0" d="M2254,629h-739.7L1261.7,6.6l-46.5,116.3L1013.4,629H221.9L6.4,1131.6l1208.9,166.3l35.3,4.9l1182.3-171.1
	L2254,629z M1247,1158.2l-31.8-1.1L76.6,1117l182-417h750.6l206.1-526.7l46.5-118.1l251.8,644.7h699.6l141.1,417.1L1247,1158.2
	L1247,1158.2z"/>
<path class="st0" d="M2272.2,949.3l-73.7-33.9l40.5-55.5l-37-130.3h-587.5l59.7,126.1h331.1l-45.4,59.7l56.9,52.7h-454.1
	l-301.1-849.8l-46.5,120.9L965.2,893.8H852.7l-32.8-164.2H619l-96,134.1l-74.4-134.1h-174l-157.9,361.5h168.3l73.7-122.9l55.5,122.9
	h212.4l66.7-130.6l66.7,130.6h316.5l63.2-78.2l75.4,48.6l46.4,29.7l110.7-78.2l60.4,78.2h887.9L2272.2,949.3z M1261.7,923.1
	l-46.5-32.5l-49.6-34.9l49.6-117.4l46.5-109.3l93.3,226.7L1261.7,923.1L1261.7,923.1z"/>
</svg>
