<?xml version="1.0" encoding="UTF-8"?><svg id="a" xmlns="http://www.w3.org/2000/svg" viewBox="0 0 3882.61 1579.4"><defs><style>.b{stroke-width:0px;}</style></defs><path class="b" d="M1837.06,51.7c-220.5,7.3-416.1,32.4-589,75.5-145.3,36.3-263.6,83.7-343,137.6-66.8,45.3-104.5,91.9-115.6,142.9-2.7,12.1-2.7,41.2,0,52.5,5.9,25.4,15.4,45.3,33,69,3.3,4.4,6.5,8.5,7,9.1.6.6,3.6,3.9,6.6,7.3,25.6,28.9,67.7,60.1,120.3,89.1,16.6,9.2,71,35,73.7,35,.6,0,.8.5.4,1.2-.4.6-.3.8.3.5.5-.3,9.3,2.8,19.4,6.9,27.5,11.2,69.3,26,101.4,35.9,6.6,2.1,12.4,4,13,4.3.5.3,1.6.7,2.5.8,2.7.3,20.5,5.6,21.6,6.5.6.5,1.3.6,1.6.4.3-.3,1.8,0,3.4.6,1.6.7,3.6,1.3,4.4,1.4,3.3.4,18.6,4.8,19.6,5.6.6.5,1.3.7,1.6.4.4-.4,17.7,3.8,20.8,5.2.8.3,1.8.6,2.1.5.4-.1,2.2.3,4,.9,1.9.6,4.5,1.2,5.9,1.5,5.9,1.2,23.6,5.5,25,6,.8.4,2.6.8,4,1s10.4,2.1,20,4.3c21,4.8,77.3,16.1,80,16.1,1.1,0,2,.3,2,.7,0,.5,1.2.8,2.8.9,1.5,0,17.8,2.6,36.2,5.7,80.3,13.5,158.3,23,257,31.2,10.2.8,23,1.7,28.5,2,5.5.2,12.5.8,15.5,1.1,3,.4,5.9.7,6.3.6s12.6.4,27,1.2c32.8,1.9,44,2.4,74.7,3.1,13.5.3,27.2.8,30.5,1.1,7,.7,141.5.6,162-.1,7.7-.3,22.6-.7,33-1,18.8-.6,34.5-1.2,54-2.2,5.5-.2,14.1-.6,19-.9,5-.2,11.7-.6,15-.9,16.3-1.4,52.8-3.6,53.2-3.1.3.2,1.5.1,2.7-.4,1.2-.4,7.5-1.1,14-1.4s12.1-.8,12.5-1c.4-.3,4.9-.7,10.1-1s13.3-1,18-1.6c4.7-.5,9.4-.9,10.5-.9s3.8-.2,6-.5c2.2-.4,14.6-1.8,27.5-3.2,80.8-8.7,150.9-19.2,224.5-33.6,14.3-2.8,26.9-5.2,28-5.3s2.7-.5,3.5-.8c1.6-.6,11.4-2.6,15.2-3.1,1.3-.2,3-.6,3.8-1,.8-.3,2.9-.8,4.5-1,1.7-.2,3.7-.6,4.5-1,.8-.3,2.9-.8,4.5-1,1.7-.2,3.9-.7,4.9-1.2,1.1-.4,3.5-.8,5.3-.8,1.8-.1,3.3-.5,3.3-1,0-.4.6-.6,1.4-.3.7.3,1.7.2,2.2-.3.8-.7,14.9-4.2,18.4-4.5.9,0,2-.4,2.5-.7,1-.6,6.5-1.9,9.5-2.3.8-.1,2.2-.5,3-.8s7.8-2.2,15.5-4.2c141.3-36.4,261.4-87,337-142,48.9-35.6,81.6-73.8,95.6-111.8,1.7-4.5,4.2-12.9,5.7-18.7,2.4-9.4,2.6-12.4,2.7-29,0-20.7-1.2-28.1-7.2-45.4-18.6-53.5-71.3-105.1-154.6-151.7-142.7-79.7-371.5-140.3-637.2-168.8-68.6-7.4-134.7-12.2-223-16.2-29.7-1.3-202.1-2-235.5-.9ZM1898.56,111.2c-4.4,1.2-11.1,3.5-15,4.9-3.8,1.5-9,3.4-11.5,4.3-13.1,4.5-50.2,24.8-79.5,43.6-22.5,14.5-21.2,13.5-112,79.1-43.4,31.3-86.9,62.7-96.5,69.6-9.6,7-85.7,61.9-169,122s-154.6,111.4-158.4,113.8c-14.8,9.6-36.9,18.3-56.6,22.3-12.6,2.6-36.6,3.5-49.7,2-21.7-2.5-38.7-8.1-66.8-21.9-68.5-33.6-112-69.4-131.2-107.7-14.1-28-14-57.2.2-85.5,9.5-18.8,28.4-40.6,50.5-58,15.9-12.6,56.9-38.8,59.6-38,.4.1,1-.3,1.3-.9,1.9-3,52.6-25.9,83.5-37.8,14-5.4,61.8-21.9,63.6-22,.3-.1,5.7-1.7,12-3.6,26.6-8.3,86.9-24.2,87.8-23.2.3.3,1,.1,1.6-.4.9-.8,9.8-3,14.6-3.6.8-.1,2.2-.5,3-.8,2.3-.9,28.1-6.4,33.5-7.2,1.1-.1,2.7-.5,3.5-.8,2.8-1.1,27.3-5.7,27.8-5.2.3.2,1.2,0,2.1-.4,1.4-.8,54.2-10.4,63.1-11.5,1.9-.3,7.8-1.1,13-2,5.2-.8,11.1-1.8,13-2,1.9-.3,12.7-1.8,24-3.5,17.3-2.5,76.3-9.8,81-10,.8,0,11.9-1.2,24.5-2.6,12.7-1.4,26.4-2.7,30.5-3s14.6-1.2,23.3-2,19.9-1.7,25-2,18.4-1.2,29.7-2c11.3-.9,22.1-1.5,24-1.5s7.6-.2,12.5-.5c48.9-2.8,86.5-4.1,122-4.2h24l-8,2.2ZM2049.56,110c8.8.3,21.9.8,29,1.1,7.2.3,15.3.6,18,.7,2.8,0,12,.5,20.5,1,8.5.4,20.5,1.1,26.5,1.4,6.1.4,19.6,1.3,30,2.1,10.5.7,22.6,1.6,27,1.9,12.4.8,62.6,5.4,76,7,12.6,1.5,17,1.9,27.3,2.9,21.7,2,92,11.8,127.7,17.7,32.7,5.4,85.3,15.3,88.5,16.6.8.3,1.8.6,2.1.5.4-.1,21.2,4.5,33.4,7.3,1.1.3,3.4.7,5,1.1,8.1,1.6,43.4,10.4,46,11.4,1.7.7,4.1,1.3,5.5,1.5,4.1.6,18.4,4.7,19.6,5.6.6.5,1.3.6,1.6.4.3-.3,1.8,0,3.4.6,1.6.7,3.2,1.2,3.6,1.1s2,.3,3.5.9,3.6,1.2,4.6,1.4c6.5,1.4,40.8,12.4,42.5,13.8.6.5,1.2.7,1.2.4,0-.5,18,5.2,22,7,.8.3,1.7.7,2,.8,2.4.6,8.9,3,10.5,3.8,1.1.6,2.7,1.2,3.6,1.4,3,.5,45.7,18.1,46.9,19.3.3.3,1.2.6,2,.8,1.9.4,41.8,20.2,48.5,24,13.6,7.9,35.1,21.5,36.5,23.1.3.4,2.5,1.9,4.9,3.5,21.3,13.8,47.4,41.6,59.9,63.7,4.9,8.7,10.1,25.6,11.1,35.9,3,32.1-9.5,60.7-39.8,91.1-23.7,23.7-52.5,43.3-95.1,64.8-42.3,21.4-64.5,27.2-98.5,25.8-33.9-1.4-63.6-12-93-33-7.1-5.1-120.1-86.7-251-181.2-130.9-94.6-246.8-177.8-257.5-185-35.9-24.1-76.3-46.9-95.5-54.1-3.8-1.4-9.5-3.5-12.5-4.6s-9.1-3.1-13.5-4.3l-8-2.4,29,.3c16,.2,36.2.6,45,.9ZM1954.66,198.2c18.8,3,42.9,13.4,64.6,27.8,12.9,8.5,84.7,65,93.9,73.9.8.7,2.7,2.4,4.4,3.7,1.6,1.2,5.2,4.2,8,6.6,2.7,2.3,11.3,9.6,19,16.1,14.5,12.2,49.3,42.5,57.4,49.9,2.5,2.4,8.5,7.7,13.4,12,4.8,4.2,8.7,8.1,8.7,8.5s.9,1.1,1.9,1.6c1.8.8,13.3,11.3,32,29.1,4.2,4,9.5,8.9,11.8,10.9s4,4.1,3.7,4.6-.1.7.5.6c1.3-.4,28.1,25.3,68.1,65.2,36.1,36.1,35.3,35.2,46.5,50.2,9,11.9,16.3,24.9,20.2,36,3.6,10.4,4.3,25.9,1.4,34.1-5.3,15.1-20.1,26.6-43.6,34-12.5,3.9-20.7,5.3-53,9.1-123.4,14.5-234.7,20.7-372.5,20.7-97,0-166.9-2.5-253.5-9.2-62.6-4.8-140.2-13.1-158.5-17.1-28.6-6.1-47.9-17.9-55.4-33.7-2.9-6.2-3.1-7.3-3.1-18.1,0-13.5,1.7-19.6,9.8-35.2,9.8-19.1,20.8-32.1,58.6-69.8,66-65.8,122.7-118.3,190.6-176.5,40.3-34.5,94.1-78.4,119.9-97.9,30.3-22.8,66.4-38.1,90.6-38.5,3-.1,9.6.6,14.6,1.4Z"/><path class="b" d="M222.56,1101.8c-90.8,4.6-168.8,67.1-194,155.4-5.8,20.3-7,29.9-7,57.5,0,22.7.3,26.8,2.4,37.5,1.3,6.6,2.4,12.7,2.6,13.5.1.8.5,2.2.8,3s1.9,5.9,3.7,11.3c11.9,37.1,35.5,72.6,65,97.5,8.1,6.8,26.8,19.5,36.3,24.6,13.2,7,36.1,16.5,44.2,18.2,1.1.2,4.7,1,8,1.9,21.4,5.2,4.2,4.9,250.1,5.2l227,.3,25.5-42.2c14-23.2,25.5-42.5,25.7-43,.2-.4-108-.9-240.5-1l-240.8-.3-10.1-2.7c-52.9-14.1-89.7-55.9-96.5-109.5-1.4-11.2-.7-28.4,1.6-39.2,10.5-50.1,46.9-87,98.2-99.8,6.3-1.6,23.7-1.8,221.8-2.3l215-.5,25.6-42.5c14.1-23.4,25.5-42.8,25.3-43.1-.4-.8-474.6-.6-489.9.2Z"/><path class="b" d="M807.56,1101.5c-.3.3-.5,96.3-.5,213.4v212.8h104v-170h485v170h103v-426.7l-51.2.1-51.3.1-.3,85.2-.2,85.3h-485l-.2-85.3-.3-85.2-51.2-.1c-28.2,0-51.5.1-51.8.4Z"/><path class="b" d="M1713.06,1101.8c-54.8,3.7-101.2,42.7-114.9,96.6-4.3,16.7-4.4,20.2-4.5,178l-.1,151.3h321l321-.1,25-41.6c13.8-22.8,25.1-42.2,25.3-42.9.3-1.2-44.6-1.4-293.7-1.4h-294.1v-84h434.5l25.7-42.8,25.8-42.7-243.1-.3-243-.2.3-26.8.3-26.8,3.2-6.4c4.1-8.3,12-16.2,20.3-20.3l6.5-3.2,253.2-.3,253.2-.2,25.5-42.5c14.1-23.4,25.6-42.9,25.6-43.4,0-.9-559.1-.9-573,0Z"/><path class="b" d="M2381.56,1101.7c-.2.4,5.8,11,13.3,23.6,7.6,12.6,19.2,31.8,25.7,42.6l11.9,19.8h260.2c175.2,0,260.5.3,260.9,1,.4.6,1.1.8,1.6.4,1.9-1.2,14,5.8,19.4,11.1,5.4,5.4,11.1,15.6,10.1,18.1-.3.8-.1,1.4.3,1.4,1.5,0,2.2,11.2,1.1,16.9-3.2,16.5-15.2,29.3-31.5,33.6-5.3,1.3-38,1.5-289.7,1.5h-283.8v256h103v-170h378.5l9.9,16.9c5.4,9.4,9.7,17.3,9.6,17.7s.3,1,.8,1.3,10.9,17.9,23.2,39.1c12.2,21.2,24.7,42.8,27.7,48,3.1,5.2,8,13.8,11.1,19,3,5.2,7.9,13.7,10.9,18.7l5.4,9.3h56c30.8,0,55.8-.3,55.6-.8-10.3-18-97.5-168.4-98.5-169.9-1.2-1.9-1.2-2.3-.1-2.7,11-3.3,18.6-5.5,19.3-5.5.5.1,1.2-.3,1.5-.8.3-.4,3.3-2.1,6.6-3.7,24.4-11.6,47.7-35.4,59.4-60.9,16.5-35.6,16-76.6-1.4-111-8.1-15.9-18.1-28.9-30.4-39.4-14.2-12.1-26.6-19.2-43.4-24.8-22.2-7.4,4.6-6.8-316-7-158.3-.1-288,.1-288.2.5Z"/><path class="b" d="M3079.16,1102.1c0,.6,6.2,5.7,13.7,11.3,21.9,16.4,42.5,32.3,43.1,33.1.4.4,3.5,2.9,7.1,5.5s8.1,5.9,10,7.4,13.2,10.2,25,19.2c11.8,9.1,21.7,16.8,22,17.1.3.4,1,.9,1.6,1.1.7.2,2.9,1.9,5,3.6,2.2,1.8,6.4,5.2,9.5,7.5,10,7.6,36.1,27.5,49.4,37.8,28.8,22.2,31.9,24.6,34.4,26.5,4.2,3.1,45.5,34.8,46.6,35.7,1.7,1.4,36.1,27.7,57.8,44.1l6.7,5.1v170.6h117v-169.9l35.8-27.5c19.6-15.1,94.4-72.5,166.2-127.5,71.8-55.1,130.6-100.5,130.8-101,.1-.4-32.5-.7-72.5-.7l-72.8.1-49.5,38.1c-134.7,103.6-192.6,147.7-193.5,147.7-.6,0-55.5-41.8-122-92.9l-121-92.9-75.2-.1c-53.9-.1-75.3.2-75.2,1Z"/></svg>