<?xml version="1.0" encoding="UTF-8"?>
<svg width="30" height="27" viewBox="0 0 30 27" version="1.1" xmlns="http://www.w3.org/2000/svg" xmlns:xlink="http://www.w3.org/1999/xlink">
    <g id="Car-used" stroke="none" stroke-width="1" fill="none" fill-rule="evenodd">
        <g id="good-car-diagnostic" fill="#263238" fill-rule="nonzero">
            <path d="M1.75,25.5 L0.25,25.5 C0.112,25.5 0,25.724 0,26 C0,26.276 0.112,26.5 0.25,26.5 L1.75,26.5 C1.888,26.5 2,26.276 2,26 C2,25.724 1.888,25.5 1.75,25.5 Z" id="Path"></path>
            <path d="M29.7627119,25.5 L2.23728814,25.5 C2.10630508,25.5 2,25.724 2,26 C2,26.276 2.10630508,26.5 2.23728814,26.5 L29.7627119,26.5 C29.8936949,26.5 30,26.276 30,26 C30,25.724 29.8936949,25.5 29.7627119,25.5 Z" id="Path"></path>
            <g id="Group" transform="translate(0.000000, 11.500000)">
                <path d="M29.1403125,9.18264286 L29.0292188,9.12785714 L28.7395313,7.761 C28.5215625,6.73167857 27.7045313,5.94982143 26.6582813,5.76921429 L22.8932813,5.12107143 L17.491875,0.799035714 C17.034375,0.433178571 16.4592188,0.232142857 15.871875,0.232142857 L6.41484375,0.232142857 C5.5884375,0.232142857 4.8065625,0.628642857 4.32328125,1.29257143 L2.22375,4.17857143 L0.82828125,4.17857143 C0.57140625,4.17857143 0.34265625,4.31089286 0.21609375,4.53189286 C0.08953125,4.75335714 0.0928125,5.01521429 0.225,5.23342857 L1.171875,6.79667857 L1.171875,9.07678571 C0.90421875,9.13017857 0.6628125,9.27364286 0.4875,9.48860714 C0.26203125,9.76485714 0.17578125,10.1223571 0.25125,10.4696429 L0.70875,12.5849286 C0.73171875,12.69125 0.826875,12.7678571 0.9375,12.7678571 L2.34375,12.7678571 C2.473125,12.7678571 2.578125,12.6638571 2.578125,12.5357143 C2.578125,12.4075714 2.473125,12.3035714 2.34375,12.3035714 L1.126875,12.3035714 L0.70875,10.3716786 C0.66328125,10.1622857 0.71578125,9.94639286 0.85171875,9.78017857 C0.98765625,9.61396429 1.19015625,9.51785714 1.40625,9.51785714 C1.535625,9.51785714 1.640625,9.41385714 1.640625,9.28571429 L1.640625,6.73214286 C1.640625,6.68989286 1.629375,6.64857143 1.60734375,6.61282143 L0.6271875,4.99478571 C0.56390625,4.88985714 0.60421875,4.79653571 0.624375,4.76125 C0.64453125,4.7255 0.70453125,4.64285714 0.82828125,4.64285714 L2.34375,4.64285714 C2.41921875,4.64285714 2.49,4.60710714 2.5340625,4.54628571 L4.7034375,1.56417857 C5.0990625,1.02096429 5.7384375,0.696428571 6.41484375,0.696428571 L15.8709375,0.696428571 C16.3514063,0.696428571 16.8220313,0.86125 17.1960938,1.16071429 L22.6453125,5.52035714 C22.67625,5.54496429 22.71375,5.56167857 22.7526563,5.56864286 L26.5771875,6.22746429 C27.4335938,6.37510714 28.1025,7.01442857 28.280625,7.85664286 L28.59375,9.33353571 C28.6082813,9.40317857 28.6546875,9.46214286 28.7189063,9.49371429 L28.9317188,9.59864286 C29.2439063,9.75232143 29.3957813,10.1149286 29.285625,10.44225 L28.659375,12.3035714 L27.421875,12.3035714 C27.2925,12.3035714 27.1875,12.4075714 27.1875,12.5357143 C27.1875,12.6638571 27.2925,12.7678571 27.421875,12.7678571 L28.828125,12.7678571 C28.9289063,12.7678571 29.0184375,12.7037857 29.0507813,12.6090714 L29.7304688,10.5889643 C29.91375,10.0434286 29.6601563,9.43892857 29.1403125,9.18264286 Z" id="Path"></path>
            </g>
            <path d="M19.7804878,23.5 L11.2195122,23.5 C11.0983415,23.5 11,23.724 11,24 C11,24.276 11.0983415,24.5 11.2195122,24.5 L19.7804878,24.5 C19.9016585,24.5 20,24.276 20,24 C20,23.724 19.9016585,23.5 19.7804878,23.5 Z" id="Path"></path>
            <g id="Group" transform="translate(21.000000, 18.500000)">
                <path d="M3,0.233333333 C1.34614286,0.233333333 0,1.69866667 0,3.5 C0,5.30133333 1.34614286,6.76666667 3,6.76666667 C4.65385714,6.76666667 6,5.30133333 6,3.5 C6,1.69866667 4.65385714,0.233333333 3,0.233333333 Z M3,6.3 C1.58185714,6.3 0.428571429,5.0442 0.428571429,3.5 C0.428571429,1.9558 1.58185714,0.7 3,0.7 C4.41814286,0.7 5.57142857,1.9558 5.57142857,3.5 C5.57142857,5.0442 4.41814286,6.3 3,6.3 Z" id="Shape"></path>
            </g>
            <path d="M23,20.5 C21.897,20.5 21,21.397 21,22.5 C21,23.603 21.897,24.5 23,24.5 C24.103,24.5 25,23.603 25,22.5 C25,21.397 24.103,20.5 23,20.5 Z M23,24 C22.173,24 21.5,23.327 21.5,22.5 C21.5,21.673 22.173,21 23,21 C23.827,21 24.5,21.673 24.5,22.5 C24.5,23.327 23.827,24 23,24 Z" id="Shape"></path>
            <g id="Group" transform="translate(3.000000, 18.500000)">
                <path d="M3.5,0.233333333 C1.69866667,0.233333333 0.233333333,1.69866667 0.233333333,3.5 C0.233333333,5.30133333 1.69866667,6.76666667 3.5,6.76666667 C5.30133333,6.76666667 6.76666667,5.30133333 6.76666667,3.5 C6.76666667,1.69866667 5.30133333,0.233333333 3.5,0.233333333 Z M3.5,6.3 C1.9558,6.3 0.7,5.0442 0.7,3.5 C0.7,1.9558 1.9558,0.7 3.5,0.7 C5.0442,0.7 6.3,1.9558 6.3,3.5 C6.3,5.0442 5.0442,6.3 3.5,6.3 Z" id="Shape"></path>
            </g>
            <path d="M7,20.5 C5.897,20.5 5,21.397 5,22.5 C5,23.603 5.897,24.5 7,24.5 C8.103,24.5 9,23.603 9,22.5 C9,21.397 8.103,20.5 7,20.5 Z M7,24 C6.173,24 5.5,23.327 5.5,22.5 C5.5,21.673 6.173,21 7,21 C7.827,21 8.5,21.673 8.5,22.5 C8.5,23.327 7.827,24 7,24 Z" id="Shape"></path>
            <g id="Group" transform="translate(7.000000, 12.500000)">
                <path d="M16.5125135,3.60488889 L11.962027,0.0493333333 C11.9211351,0.0173333333 11.8701351,0 11.8177568,0 L2.17416216,0 C1.60259459,0 1.08386486,0.347555556 0.883540541,0.865333333 L0.883540541,0.865333333 L0.366648649,2.19866667 C0.208135135,2.608 0.266945946,3.06711111 0.524243243,3.42666667 C0.782,3.78533333 1.20562162,4 1.65727027,4 L16.3682432,4 C16.4656486,4 16.552027,3.94044444 16.5851081,3.852 C16.6172703,3.76311111 16.5883243,3.664 16.5125135,3.60488889 Z M1.65727027,3.55555556 C1.35127027,3.55555556 1.07605405,3.416 0.901918919,3.17288889 C0.727783784,2.92977778 0.689189189,2.63155556 0.796702703,2.35466667 L1.31359459,1.02133333 L1.31359459,1.02133333 C1.44775676,0.676 1.79327027,0.444444444 2.17416216,0.444444444 L11.7364324,0.444444444 L15.7181081,3.55555556 L1.65727027,3.55555556 Z" id="Shape"></path>
            </g>
            <path d="M22.5,17.5 C22.224,17.5 22,17.6134177 22,17.7531646 L22,19.2468354 C22,19.3865823 22.224,19.5 22.5,19.5 C22.776,19.5 23,19.3865823 23,19.2468354 L23,17.7531646 C23,17.6134177 22.776,17.5 22.5,17.5 Z" id="Path"></path>
            <path d="M13.5,16.5 C13.224,16.5 13,16.60752 13,16.74 L13,22.26 C13,22.39248 13.224,22.5 13.5,22.5 C13.776,22.5 14,22.39248 14,22.26 L14,16.74 C14,16.60752 13.776,16.5 13.5,16.5 Z" id="Path"></path>
            <path d="M13.5,12.5 C13.224,12.5 13,12.5995556 13,12.7222222 L13,16.2777778 C13,16.4004444 13.224,16.5 13.5,16.5 C13.776,16.5 14,16.4004444 14,16.2777778 L14,12.7222222 C14,12.5995556 13.776,12.5 13.5,12.5 Z" id="Path"></path>
            <path d="M4.4,16.5 L3.6,16.5 C3.2692,16.5 3,16.7692 3,17.1 L3,17.9 C3,18.2308 3.2692,18.5 3.6,18.5 L4.4,18.5 C4.7308,18.5 5,18.2308 5,17.9 L5,17.1 C5,16.7692 4.7308,16.5 4.4,16.5 Z M4.6,17.9 C4.6,18.0104 4.5104,18.1 4.4,18.1 L3.6,18.1 C3.4896,18.1 3.4,18.0104 3.4,17.9 L3.4,17.1 C3.4,16.9896 3.4896,16.9 3.6,16.9 L4.4,16.9 C4.5104,16.9 4.6,16.9896 4.6,17.1 L4.6,17.9 Z" id="Shape"></path>
            <g id="Group" transform="translate(26.000000, 17.500000)">
                <path d="M2.6555,0.858 C2.625,0.714 2.58,0.567 2.517,0.408 C2.479,0.313 2.387,0.2505 2.2845,0.2505 L1.1675,0.2505 C0.906,0.2505 0.6675,0.3835 0.53,0.606 C0.3925,0.8285 0.3795,1.1015 0.497,1.336 L1.135,2.6125 C1.1775,2.697 1.264,2.7505 1.3585,2.7505 L2.745,2.7505 C2.82,2.7505 2.8915,2.7165 2.939,2.658 C2.987,2.5995 3.0055,2.523 2.99,2.4495 L2.6555,0.858 Z M1.512,2.25 L0.943,1.112 C0.887,0.999 0.9325,0.904 0.954,0.8685 C0.9755,0.833 1.041,0.75 1.1665,0.75 L2.1085,0.75 C2.1325,0.823 2.1515,0.8925 2.1655,0.9605 L2.436,2.25 L1.512,2.25 Z" id="Shape"></path>
            </g>
            <path d="M28.9236259,10.5763824 C28.8217938,10.4745392 28.6562514,10.4745392 28.5544193,10.5763824 L23.0763741,16.0539791 C22.974542,16.1558223 22.974542,16.3213827 23.0763741,16.4232259 C23.1275512,16.4744086 23.1943949,16.5 23.2612385,16.5 C23.3280822,16.5 23.3949258,16.4744086 23.446103,16.4237482 L28.9236259,10.9456292 C29.025458,10.8432638 29.025458,10.6782256 28.9236259,10.5763824 Z" id="Path"></path>
            <g id="Group" transform="translate(17.000000, 0.500000)">
                <path d="M10.176,0.225 L1.40676923,0.225 C0.643384615,0.225 0.0221538462,0.8307 0.0221538462,1.575 L0.0221538462,7.425 C0.0221538462,8.1693 0.643384615,8.775 1.40676923,8.775 L10.176,8.775 C10.9393846,8.775 11.5606154,8.1693 11.5606154,7.425 L11.5606154,1.575 C11.5606154,0.8307 10.9393846,0.225 10.176,0.225 Z M11.0990769,7.425 C11.0990769,7.92135 10.6850769,8.325 10.176,8.325 L1.40676923,8.325 C0.897692308,8.325 0.483692308,7.92135 0.483692308,7.425 L0.483692308,1.575 C0.483692308,1.07865 0.897692308,0.675 1.40676923,0.675 L10.176,0.675 C10.6850769,0.675 11.0990769,1.07865 11.0990769,1.575 L11.0990769,7.425 Z" id="Shape"></path>
            </g>
            <path d="M11.775,5.86026882 L10.13385,5.86026882 L9.06195,2.65937275 C9.02955,2.56144492 8.94045,2.50336027 8.84505,2.5 C8.74785,2.50240019 8.66325,2.57104568 8.6349,2.66993359 L7.24665,7.53704296 L6.13425,4.57088567 C6.1032,4.48831907 6.03165,4.43071446 5.9484,4.42111369 C5.8638,4.41103288 5.78415,4.45231619 5.7378,4.52672214 L4.90485,5.86026882 L3.225,5.86026882 C3.1008,5.86026882 3,5.96779742 3,6.10028802 C3,6.23277862 3.1008,6.34030722 3.225,6.34030722 L5.025,6.34030722 C5.10015,6.34030722 5.17035,6.30046404 5.2122,6.23325866 L5.87505,5.17285383 L7.0662,8.34926794 C7.1004,8.44047524 7.18365,8.5 7.275,8.5 C7.27815,8.5 7.2813,8.5 7.28445,8.5 C7.37985,8.49567965 7.4622,8.4275142 7.4901,8.33006641 L8.8671,3.50424034 L9.76305,6.18045444 C9.795,6.27646212 9.88005,6.34030722 9.975,6.34030722 L11.775,6.34030722 C11.8992,6.34030722 12,6.23277862 12,6.10028802 C12,5.96779742 11.89965,5.86026882 11.775,5.86026882 Z" id="Path"></path>
            <g id="Group" transform="translate(19.000000, 1.500000)">
                <path d="M6.65746667,0.525 C6.29393333,0.135 5.70126667,0.1355 5.33773333,0.525 L2.69826667,3.3535 L1.708,2.2925 C1.3552,1.9145 0.741066667,1.9145 0.388266667,2.2925 C0.211866667,2.4815 0.1148,2.7325 0.1148,2.9995 C0.1148,3.267 0.211866667,3.518 0.388266667,3.7065 L2.0384,5.4745 C2.2148,5.6635 2.44906667,5.7675 2.69826667,5.7675 C2.94746667,5.7675 3.18173333,5.6635 3.35813333,5.4745 L6.65746667,1.939 C6.83386667,1.7505 6.93093333,1.499 6.93093333,1.232 C6.93093333,0.965 6.83386667,0.714 6.65746667,0.525 Z M6.32753333,1.5855 L3.0282,5.121 C2.85133333,5.31 2.5452,5.31 2.36833333,5.121 L0.7182,3.353 C0.630466667,3.2585 0.581466667,3.133 0.581466667,2.9995 C0.581466667,2.866 0.63,2.7405 0.7182,2.646 C0.808733333,2.549 0.9282,2.5 1.04766667,2.5 C1.16713333,2.5 1.2866,2.549 1.3776,2.646 L2.53306667,3.8835 C2.62406667,3.981 2.772,3.981 2.863,3.8835 L5.66766667,0.878 C5.85013333,0.683 6.14506667,0.683 6.32753333,0.878 C6.41526667,0.9725 6.46426667,1.098 6.46426667,1.2315 C6.46426667,1.365 6.41526667,1.491 6.32753333,1.5855 Z" id="Shape"></path>
            </g>
        </g>
    </g>
</svg>