<?xml version="1.0" encoding="UTF-8"?>
<svg width="34" height="32" viewBox="0 0 34 32" version="1.1" xmlns="http://www.w3.org/2000/svg" xmlns:xlink="http://www.w3.org/1999/xlink">
    <g id="car-lifter" stroke="none" stroke-width="1" fill="none" fill-rule="evenodd">
        <g fill-rule="nonzero">
            <path d="M2.4,18.936 C1.95893333,18.936 1.6,18.5770667 1.6,18.136 L1.6,17.0693333 C1.6,16.856 1.68266667,16.6549333 1.83413333,16.5034667 C1.98506667,16.3525333 2.18613333,16.2693333 2.4,16.2693333 L31.7333333,16.2634667 C32.1744,16.2634667 32.5333333,16.6224 32.5333333,17.0634667 L32.5333333,18.1301333 C32.5333333,18.3434667 32.4506667,18.5445333 32.2992,18.696 C32.1482667,18.8469333 31.9472,18.9301333 31.7333333,18.9301333 L26.4,18.9312 C26.2528,18.9312 26.1333333,18.8117333 26.1333333,18.6645333 C26.1333333,18.5173333 26.2528,18.3978667 26.4,18.3978667 L31.7333333,18.3968 C31.8042667,18.3968 31.8714667,18.3690667 31.9221333,18.3189333 C31.9722667,18.2688 32,18.2016 32,18.1306667 L32,17.064 C32,16.9173333 31.88,16.7973333 31.7333333,16.7973333 L2.4,16.8032 C2.32906667,16.8032 2.26186667,16.8309333 2.2112,16.8810667 C2.16106667,16.9312 2.13333333,16.9984 2.13333333,17.0693333 L2.13333333,18.136 C2.13333333,18.2826667 2.25333333,18.4026667 2.4,18.4026667 L7.73333333,18.4016 C7.88053333,18.4016 8,18.5210667 8,18.6682667 C8,18.8154667 7.88053333,18.9349333 7.73333333,18.9349333 L2.4,18.936 Z" id="Path" fill="#263238"></path>
            <g id="Group">
                <path d="M31.2496,14.4 L32.8496,14.4 L33.6229333,12.0794667 C33.7909333,11.5749333 33.5621333,11.024 33.0858667,10.7872 L32.8437333,10.6666667 L32.488,8.9696 C32.264,7.9008 31.4106667,7.0768 30.3349333,6.89013333 L25.9834667,6.13333333 L19.7829333,1.12533333 C19.3088,0.7424 18.7173333,0.533333333 18.1077333,0.533333333 L7.3488,0.533333333 C6.49173333,0.533333333 5.6864,0.9456 5.18506667,1.64106667 L2.7168,5.06666667 L0.992,5.06666667 C0.5776,5.06666667 0.3216,5.51893333 0.534933333,5.87413333 L1.65013333,7.73333333 L1.65013333,10.6666667 L1.65013333,10.6666667 C0.963733333,10.6666667 0.452266667,11.2992 0.596266667,11.9706667 L1.1168,14.4 L2.7168,14.4" id="Path"></path>
                <path d="M32.8496,14.6666667 L31.2496,14.6666667 C31.1024,14.6666667 30.9829333,14.5472 30.9829333,14.4 C30.9829333,14.2528 31.1024,14.1333333 31.2496,14.1333333 L32.6576,14.1333333 L33.3701333,11.9952 C33.4954667,11.6192 33.3221333,11.2026667 32.9674667,11.0261333 L32.7253333,10.9056 C32.6522667,10.8693333 32.6,10.8016 32.5829333,10.7216 L32.2272,9.02453333 C32.024,8.05706667 31.2634667,7.32266667 30.2890667,7.15306667 L25.9376,6.39626667 C25.8928,6.38826667 25.8506667,6.3696 25.8154667,6.3408 L19.6154667,1.33333333 C19.1898667,0.989333333 18.6538667,0.8 18.1072,0.8 L7.3488,0.8 C6.5792,0.8 5.8512,1.1728 5.4016,1.7968 L2.93333333,5.2224 C2.88266667,5.29226667 2.80213333,5.33333333 2.7168,5.33333333 L0.992,5.33333333 C0.851733333,5.33333333 0.782933333,5.42773333 0.76,5.46826667 C0.737066667,5.50933333 0.6912,5.61653333 0.7632,5.73706667 L1.8784,7.59573333 C1.90346667,7.63733333 1.91626667,7.6848 1.91626667,7.7328 L1.91626667,10.6666667 C1.91626667,10.8138667 1.7968,10.9333333 1.6496,10.9333333 C1.4032,10.9333333 1.17333333,11.0432 1.01866667,11.2346667 C0.864,11.4261333 0.8048,11.6741333 0.856533333,11.9141333 L1.33226667,14.1333333 L2.7168,14.1333333 C2.864,14.1333333 2.98346667,14.2528 2.98346667,14.4 C2.98346667,14.5472 2.864,14.6666667 2.7168,14.6666667 L1.1168,14.6666667 C0.990933333,14.6666667 0.882666667,14.5786667 0.856,14.456 L0.335466667,12.0261333 C0.2496,11.6272 0.347733333,11.2165333 0.604266667,10.8992 C0.803733333,10.6522667 1.07893333,10.4874667 1.38346667,10.4261333 L1.38346667,7.80693333 L0.306133333,6.0112 C0.155733333,5.76053333 0.152,5.4592 0.296,5.20533333 C0.439466667,4.952 0.699733333,4.8 0.992,4.8 L2.58026667,4.8 L4.96906667,1.4848 C5.51893333,0.722133333 6.40853333,0.266666667 7.3488,0.266666667 L18.1077333,0.266666667 C18.776,0.266666667 19.4304,0.498133333 19.9509333,0.917866667 L26.0976,5.88266667 L30.3808,6.6272 C31.5712,6.83466667 32.5013333,7.73226667 32.7493333,8.9152 L33.0789333,10.4853333 L33.2053333,10.5482667 C33.7968,10.8426667 34.0853333,11.5370667 33.8762667,12.1637333 L33.1029333,14.4842667 C33.0666667,14.5930667 32.9648,14.6666667 32.8496,14.6666667 Z" id="Path" fill="#263238"></path>
            </g>
            <path d="M22.1829333,14.6666667 L11.7829333,14.6666667 C11.6357333,14.6666667 11.5162667,14.5472 11.5162667,14.4 C11.5162667,14.2528 11.6357333,14.1333333 11.7829333,14.1333333 L22.1829333,14.1333333 C22.3301333,14.1333333 22.4496,14.2528 22.4496,14.4 C22.4496,14.5472 22.3306667,14.6666667 22.1829333,14.6666667 Z" id="Path" fill="#263238"></path>
            <g id="Group" transform="translate(22.933333, 9.066667)">
                <circle id="Oval" cx="3.78293333" cy="4" r="3.46666667"></circle>
                <path d="M3.78293333,7.73333333 C1.72426667,7.73333333 0.0496,6.05866667 0.0496,4 C0.0496,1.94133333 1.72426667,0.266666667 3.78293333,0.266666667 C5.8416,0.266666667 7.51626667,1.94133333 7.51626667,4 C7.51626667,6.05866667 5.8416,7.73333333 3.78293333,7.73333333 Z M3.78293333,0.8 C2.01813333,0.8 0.582933333,2.2352 0.582933333,4 C0.582933333,5.7648 2.01813333,7.2 3.78293333,7.2 C5.54773333,7.2 6.98293333,5.7648 6.98293333,4 C6.98293333,2.2352 5.54773333,0.8 3.78293333,0.8 Z" id="Shape" fill="#263238"></path>
            </g>
            <path d="M26.7162667,15.2 C25.5397333,15.2 24.5829333,14.2432 24.5829333,13.0666667 C24.5829333,11.8901333 25.5397333,10.9333333 26.7162667,10.9333333 C27.8928,10.9333333 28.8496,11.8901333 28.8496,13.0666667 C28.8496,14.2432 27.8928,15.2 26.7162667,15.2 Z M26.7162667,11.4666667 C25.8341333,11.4666667 25.1162667,12.1845333 25.1162667,13.0666667 C25.1162667,13.9488 25.8341333,14.6666667 26.7162667,14.6666667 C27.5984,14.6666667 28.3162667,13.9488 28.3162667,13.0666667 C28.3162667,12.1845333 27.5989333,11.4666667 26.7162667,11.4666667 Z" id="Shape" fill="#263238"></path>
            <g id="Group" transform="translate(3.200000, 9.066667)">
                <circle id="Oval" cx="4.05013333" cy="4" r="3.46666667"></circle>
                <path d="M4.05013333,7.73333333 C1.99146667,7.73333333 0.3168,6.05866667 0.3168,4 C0.3168,1.94133333 1.99146667,0.266666667 4.05013333,0.266666667 C6.1088,0.266666667 7.78346667,1.94133333 7.78346667,4 C7.78346667,6.05866667 6.1088,7.73333333 4.05013333,7.73333333 Z M4.05013333,0.8 C2.28533333,0.8 0.850133333,2.2352 0.850133333,4 C0.850133333,5.7648 2.28533333,7.2 4.05013333,7.2 C5.81493333,7.2 7.25013333,5.7648 7.25013333,4 C7.25013333,2.2352 5.8144,0.8 4.05013333,0.8 Z" id="Shape" fill="#263238"></path>
            </g>
            <path d="M7.25013333,15.2 C6.0736,15.2 5.1168,14.2432 5.1168,13.0666667 C5.1168,11.8901333 6.0736,10.9333333 7.25013333,10.9333333 C8.42666667,10.9333333 9.38346667,11.8901333 9.38346667,13.0666667 C9.38346667,14.2432 8.42613333,15.2 7.25013333,15.2 Z M7.25013333,11.4666667 C6.368,11.4666667 5.65013333,12.1845333 5.65013333,13.0666667 C5.65013333,13.9488 6.368,14.6666667 7.25013333,14.6666667 C8.13226667,14.6666667 8.85013333,13.9488 8.85013333,13.0666667 C8.85013333,12.1845333 8.13226667,11.4666667 7.25013333,11.4666667 Z" id="Shape" fill="#263238"></path>
            <g id="Group" transform="translate(6.933333, 1.600000)">
                <path d="M1.32533333,1.13173333 L0.725333333,2.73173333 C0.3984,3.6032 1.04266667,4.53333333 1.97386667,4.53333333 L19.0501333,4.53333333 L13.7674667,0.266666667 L2.57386667,0.266666667 C2.01813333,0.266666667 1.52053333,0.6112 1.32533333,1.13173333 Z" id="Path"></path>
                <path d="M19.0501333,4.8 L1.97386667,4.8 C1.4496,4.8 0.957866667,4.5424 0.658666667,4.11146667 C0.36,3.68 0.291733333,3.1296 0.475733333,2.63786667 L1.07573333,1.03786667 L1.07573333,1.03786667 C1.30826667,0.417066667 1.9104,0 2.57386667,0 L13.7674667,0 C13.8282667,0 13.8874667,0.0208 13.9349333,0.0592 L19.2176,4.32586667 C19.3056,4.3968 19.3392,4.51573333 19.3013333,4.6224 C19.264,4.72853333 19.1632,4.8 19.0501333,4.8 Z M2.57386667,0.533333333 C2.13173333,0.533333333 1.73013333,0.8112 1.57493333,1.22506667 L1.57493333,1.22506667 L0.974933333,2.82506667 C0.850133333,3.15733333 0.894933333,3.5152 1.09706667,3.80693333 C1.2992,4.0992 1.61866667,4.26666667 1.97386667,4.26666667 L18.2954667,4.26666667 L13.6730667,0.533333333 L2.57386667,0.533333333 Z" id="Shape" fill="#263238"></path>
            </g>
            <path d="M25.4501333,9.04 C25.3029333,9.04 25.1834667,8.92053333 25.1834667,8.77333333 L25.1834667,7.2 C25.1834667,7.0528 25.3029333,6.93333333 25.4501333,6.93333333 C25.5973333,6.93333333 25.7168,7.0528 25.7168,7.2 L25.7168,8.77333333 C25.7168,8.92053333 25.5973333,9.04 25.4501333,9.04 Z" id="Path" fill="#263238"></path>
            <path d="M14.7162667,13.6 C14.5690667,13.6 14.4496,13.4805333 14.4496,13.3333333 L14.4496,7.2 C14.4496,7.0528 14.5690667,6.93333333 14.7162667,6.93333333 C14.8634667,6.93333333 14.9829333,7.0528 14.9829333,7.2 L14.9829333,13.3333333 C14.9829333,13.4805333 14.864,13.6 14.7162667,13.6 Z" id="Path" fill="#263238"></path>
            <path d="M14.7162667,6.4 C14.5690667,6.4 14.4496,6.28053333 14.4496,6.13333333 L14.4496,1.86666667 C14.4496,1.71946667 14.5690667,1.6 14.7162667,1.6 C14.8634667,1.6 14.9829333,1.71946667 14.9829333,1.86666667 L14.9829333,6.13333333 C14.9829333,6.28053333 14.864,6.4 14.7162667,6.4 Z" id="Path" fill="#263238"></path>
            <path d="M4.91626667,8.8 L3.8496,8.8 C3.40853333,8.8 3.0496,8.44106667 3.0496,8 L3.0496,6.93333333 C3.0496,6.49226667 3.40853333,6.13333333 3.8496,6.13333333 L4.91626667,6.13333333 C5.35733333,6.13333333 5.71626667,6.49226667 5.71626667,6.93333333 L5.71626667,8 C5.71626667,8.44106667 5.35733333,8.8 4.91626667,8.8 Z M3.85013333,6.66666667 C3.70293333,6.66666667 3.58346667,6.78613333 3.58346667,6.93333333 L3.58346667,8 C3.58346667,8.1472 3.70293333,8.26666667 3.85013333,8.26666667 L4.9168,8.26666667 C5.064,8.26666667 5.18346667,8.1472 5.18346667,8 L5.18346667,6.93333333 C5.18346667,6.78613333 5.064,6.66666667 4.9168,6.66666667 L3.85013333,6.66666667 Z" id="Shape" fill="#263238"></path>
            <g id="Group" transform="translate(29.866667, 8.000000)">
                <path d="M2.97706667,2.66666667 L2.62133333,0.9696 C2.58933333,0.818133333 2.5424,0.6736 2.4864,0.533333333 L1.29493333,0.533333333 C0.898666667,0.533333333 0.640533333,0.9504 0.818133333,1.30506667 L1.49866667,2.66666667 L2.97706667,2.66666667 L2.97706667,2.66666667 Z" id="Path"></path>
                <path d="M2.9776,2.93333333 L1.49866667,2.93333333 C1.39786667,2.93333333 1.3056,2.87626667 1.26026667,2.78613333 L0.579733333,1.42453333 C0.454933333,1.17493333 0.468266667,0.883733333 0.6144,0.6464 C0.761066667,0.409066667 1.01546667,0.2672 1.29493333,0.2672 L2.4864,0.2672 C2.59573333,0.2672 2.69386667,0.333866667 2.73386667,0.4352 C2.8016,0.604266667 2.85013333,0.7616 2.88213333,0.915733333 L3.23786667,2.6128 C3.2544,2.6912 3.23466667,2.77333333 3.184,2.8352 C3.13333333,2.89706667 3.0576,2.93333333 2.9776,2.93333333 Z M1.66346667,2.4 L2.64906667,2.4 L2.36053333,1.02453333 C2.34506667,0.952 2.32533333,0.877866667 2.29973333,0.8 L1.29493333,0.8 C1.16053333,0.8 1.09173333,0.888533333 1.06826667,0.9264 C1.0448,0.964266667 0.996266667,1.0656 1.05653333,1.1856 L1.66346667,2.4 Z" id="Shape" fill="#263238"></path>
            </g>
            <g id="Group" transform="translate(12.266667, 18.133333)">
                <path d="M9.06666667,0.567751111 L0.533333333,0.570026667" id="Path" fill="#FFD740"></path>
                <path d="M0.533333333,0.853902222 C0.386133333,0.853902222 0.266666667,0.726471111 0.266666667,0.569457778 C0.266666667,0.412444444 0.386133333,0.285013333 0.533333333,0.285013333 L9.06666667,0.283306667 C9.21386667,0.283306667 9.33333333,0.410737778 9.33333333,0.567751111 C9.33333333,0.724764444 9.21386667,0.852195556 9.06666667,0.852195556 L0.533333333,0.853902222 Z" id="Path" fill="#263238"></path>
            </g>
            <path d="M33.8666667,31.7333333 L2.93333333,31.7333333 C2.78613333,31.7333333 2.66666667,31.6138667 2.66666667,31.4666667 C2.66666667,31.3194667 2.78613333,31.2 2.93333333,31.2 L33.8666667,31.2 C34.0138667,31.2 34.1333333,31.3194667 34.1333333,31.4666667 C34.1333333,31.6138667 34.0138667,31.7333333 33.8666667,31.7333333 Z" id="Path" fill="#263238"></path>
            <path d="M1.86666667,31.7333333 L0.266666667,31.7333333 C0.119466667,31.7333333 0,31.6138667 0,31.4666667 C0,31.3194667 0.119466667,31.2 0.266666667,31.2 L1.86666667,31.2 C2.01386667,31.2 2.13333333,31.3194667 2.13333333,31.4666667 C2.13333333,31.6138667 2.01386667,31.7333333 1.86666667,31.7333333 Z" id="Path" fill="#263238"></path>
            <g id="Group" transform="translate(8.533333, 16.000000)">
                <path d="M14.6666667,15.4666667 L16.8,15.4666667 L16.8,13.472 C16.8,13.0378667 16.5888,12.6314667 16.2341333,12.3813333 L2.62666667,2.80586667 C2.4848,2.70613333 2.4,2.54346667 2.4,2.3696 L2.4,0.533333333 L0.266666667,0.533333333 L0.266666667,3.06133333 C0.266666667,3.49546667 0.477866667,3.90186667 0.832533333,4.152 L14.44,13.7274667 C14.5818667,13.8272 14.6666667,13.9898667 14.6666667,14.1637333 L14.6666667,15.4666667 Z" id="Path"></path>
                <path d="M16.8,15.7333333 L14.6666667,15.7333333 C14.5194667,15.7333333 14.4,15.6138667 14.4,15.4666667 L14.4,14.1637333 C14.4,14.0768 14.3573333,13.9957333 14.2869333,13.9456 L0.678933333,4.3696 C0.253866667,4.07093333 0,3.58186667 0,3.06133333 L0,0.533333333 C0,0.386133333 0.119466667,0.266666667 0.266666667,0.266666667 L2.4,0.266666667 C2.5472,0.266666667 2.66666667,0.386133333 2.66666667,0.533333333 L2.66666667,2.3696 C2.66666667,2.45653333 2.70933333,2.5376 2.77973333,2.58773333 L16.3872,12.1637333 C16.8128,12.4624 17.0666667,12.9514667 17.0666667,13.472 L17.0666667,15.4666667 C17.0666667,15.6138667 16.9472,15.7333333 16.8,15.7333333 Z M14.9333333,15.2 L16.5333333,15.2 L16.5333333,13.472 C16.5333333,13.1253333 16.3642667,12.7989333 16.0805333,12.6 L2.47306667,3.02346667 C2.26026667,2.87413333 2.13333333,2.62933333 2.13333333,2.3696 L2.13333333,0.8 L0.533333333,0.8 L0.533333333,3.06133333 C0.533333333,3.408 0.7024,3.7344 0.986133333,3.93333333 L14.5941333,13.5093333 C14.8064,13.6592 14.9333333,13.904 14.9333333,14.1637333 L14.9333333,15.2 Z" id="Shape" fill="#263238"></path>
            </g>
            <g id="Group" transform="translate(8.533333, 16.000000)">
                <g transform="translate(0.000000, 8.533333)" id="Path">
                    <path d="M5.75306667,0.3856 L0.832533333,3.848 C0.477866667,4.0976 0.266666667,4.50453333 0.266666667,4.93813333 L0.266666667,6.93333333 L2.4,6.93333333 L2.4,5.6304 C2.4,5.45706667 2.48426667,5.2944 2.62613333,5.19413333 L7.6064,1.6896"></path>
                    <path d="M2.4,7.2 L0.266666667,7.2 C0.119466667,7.2 0,7.08053333 0,6.93333333 L0,4.93866667 C0,4.41866667 0.253866667,3.92906667 0.679466667,3.62986667 L5.6,0.167466667 C5.72106667,0.0821333333 5.88693333,0.111466667 5.9712,0.232 C6.056,0.352533333 6.0272,0.518933333 5.90666667,0.6032 L0.986133333,4.0656 C0.7024,4.2656 0.533333333,4.59146667 0.533333333,4.93866667 L0.533333333,6.66666667 L2.13333333,6.66666667 L2.13333333,5.6304 C2.13333333,5.37066667 2.26026667,5.12586667 2.47253333,4.976 L7.4528,1.47146667 C7.57386667,1.38613333 7.73973333,1.41546667 7.824,1.536 C7.9088,1.65653333 7.88,1.82293333 7.75946667,1.9072 L2.7792,5.41173333 C2.70933333,5.4624 2.66666667,5.544 2.66666667,5.6304 L2.66666667,6.93333333 C2.66666667,7.08053333 2.5472,7.2 2.4,7.2 Z" fill="#263238"></path>
                </g>
                <g transform="translate(9.066667, 0.000000)" id="Path">
                    <path d="M2.24693333,7.6144 L7.16746667,4.152 C7.52213333,3.9024 7.73333333,3.49546667 7.73333333,3.06133333 L7.73333333,0.533333333 L5.6,0.533333333 L5.6,2.3696 C5.6,2.54293333 5.51573333,2.70613333 5.37386667,2.80586667 L0.3936,6.3104"></path>
                    <path d="M2.24693333,7.88106667 C2.1632,7.88106667 2.08053333,7.8416 2.0288,7.768 C1.944,7.64746667 1.9728,7.48106667 2.09333333,7.3968 L7.01386667,3.9344 C7.2976,3.7344 7.46666667,3.408 7.46666667,3.06133333 L7.46666667,0.8 L5.86666667,0.8 L5.86666667,2.3696 C5.86666667,2.62933333 5.73973333,2.87413333 5.52746667,3.024 L0.5472,6.52853333 C0.426133333,6.61386667 0.260266667,6.58453333 0.176,6.464 C0.0912,6.34346667 0.12,6.17706667 0.240533333,6.0928 L5.2208,2.58826667 C5.29066667,2.5376 5.33333333,2.456 5.33333333,2.3696 L5.33333333,0.533333333 C5.33333333,0.386133333 5.4528,0.266666667 5.6,0.266666667 L7.73333333,0.266666667 C7.88053333,0.266666667 8,0.386133333 8,0.533333333 L8,3.06133333 C8,3.58133333 7.74613333,4.0704 7.32106667,4.37013333 L2.4,7.83253333 C2.3536,7.8656 2.29973333,7.88106667 2.24693333,7.88106667 Z" fill="#263238"></path>
                </g>
            </g>
            <path d="M5.06666667,29.0666667 C4.91946667,29.0666667 4.8,28.9472 4.8,28.8 L4.8,28.2752 C4.8,28.128 4.91946667,28.0085333 5.06666667,28.0085333 C5.21386667,28.0085333 5.33333333,28.128 5.33333333,28.2752 L5.33333333,28.8 C5.33333333,28.9472 5.21386667,29.0666667 5.06666667,29.0666667 Z" id="Path" fill="#263238"></path>
            <path d="M5.06666667,27.4917333 C4.91946667,27.4917333 4.8,27.3722667 4.8,27.2250667 L4.8,22.9584 C4.8,22.8112 4.91946667,22.6917333 5.06666667,22.6917333 C5.21386667,22.6917333 5.33333333,22.8112 5.33333333,22.9584 L5.33333333,27.2250667 C5.33333333,27.3722667 5.21386667,27.4917333 5.06666667,27.4917333 Z" id="Path" fill="#263238"></path>
            <path d="M3.46666667,26.4250667 C3.31946667,26.4250667 3.2,26.3056 3.2,26.1584 L3.2,21.8917333 C3.2,21.7445333 3.31946667,21.6250667 3.46666667,21.6250667 C3.61386667,21.6250667 3.73333333,21.7445333 3.73333333,21.8917333 L3.73333333,26.1584 C3.73333333,26.3056 3.61386667,26.4250667 3.46666667,26.4250667 Z" id="Path" fill="#263238"></path>
            <path d="M6.66666667,26.4250667 C6.51946667,26.4250667 6.4,26.3056 6.4,26.1584 L6.4,21.8917333 C6.4,21.7445333 6.51946667,21.6250667 6.66666667,21.6250667 C6.81386667,21.6250667 6.93333333,21.7445333 6.93333333,21.8917333 L6.93333333,26.1584 C6.93333333,26.3056 6.81386667,26.4250667 6.66666667,26.4250667 Z" id="Path" fill="#263238"></path>
            <path d="M29.0666667,29.0666667 C28.9194667,29.0666667 28.8,28.9472 28.8,28.8 L28.8,28.2752 C28.8,28.128 28.9194667,28.0085333 29.0666667,28.0085333 C29.2138667,28.0085333 29.3333333,28.128 29.3333333,28.2752 L29.3333333,28.8 C29.3333333,28.9472 29.2138667,29.0666667 29.0666667,29.0666667 Z" id="Path" fill="#263238"></path>
            <path d="M29.0666667,27.4917333 C28.9194667,27.4917333 28.8,27.3722667 28.8,27.2250667 L28.8,22.9584 C28.8,22.8112 28.9194667,22.6917333 29.0666667,22.6917333 C29.2138667,22.6917333 29.3333333,22.8112 29.3333333,22.9584 L29.3333333,27.2250667 C29.3333333,27.3722667 29.2138667,27.4917333 29.0666667,27.4917333 Z" id="Path" fill="#263238"></path>
            <path d="M27.4666667,26.4250667 C27.3194667,26.4250667 27.2,26.3056 27.2,26.1584 L27.2,21.8917333 C27.2,21.7445333 27.3194667,21.6250667 27.4666667,21.6250667 C27.6138667,21.6250667 27.7333333,21.7445333 27.7333333,21.8917333 L27.7333333,26.1584 C27.7333333,26.3056 27.6138667,26.4250667 27.4666667,26.4250667 Z" id="Path" fill="#263238"></path>
            <path d="M30.6666667,26.4250667 C30.5194667,26.4250667 30.4,26.3056 30.4,26.1584 L30.4,21.8917333 C30.4,21.7445333 30.5194667,21.6250667 30.6666667,21.6250667 C30.8138667,21.6250667 30.9333333,21.7445333 30.9333333,21.8917333 L30.9333333,26.1584 C30.9333333,26.3056 30.8138667,26.4250667 30.6666667,26.4250667 Z" id="Path" fill="#263238"></path>
        </g>
    </g>
</svg>