<?xml version="1.0" encoding="UTF-8"?>
<svg width="36" height="28" viewBox="0 0 36 28" version="1.1" xmlns="http://www.w3.org/2000/svg" xmlns:xlink="http://www.w3.org/1999/xlink">
    <g id="car" stroke="none" stroke-width="1" fill="none" fill-rule="evenodd">
        <g fill-rule="nonzero">
            <path d="M1.75,28 L0.25,28 C0.112,28 0,27.776 0,27.5 C0,27.224 0.112,27 0.25,27 L1.75,27 C1.888,27 2,27.224 2,27.5 C2,27.776 1.888,28 1.75,28 Z" id="Path" fill="#263238"></path>
            <path d="M35.7118644,28 L2.28813559,28 C2.12908475,28 2,27.776 2,27.5 C2,27.224 2.12908475,27 2.28813559,27 L35.7118644,27 C35.8709153,27 36,27.224 36,27.5 C36,27.776 35.8709153,28 35.7118644,28 Z" id="Path" fill="#263238"></path>
            <path d="M14.5,7 L13.5,7 C13.224,7 13,6.776 13,6.5 C13,6.224 13.224,6 13.5,6 L14.5,6 C14.776,6 15,6.224 15,6.5 C15,6.776 14.777,7 14.5,7 Z" id="Path" fill="#263238"></path>
            <path d="M22.7307692,7 L16.2692308,7 C16.1206154,7 16,6.776 16,6.5 C16,6.224 16.1206154,6 16.2692308,6 L22.7307692,6 C22.8793846,6 23,6.224 23,6.5 C23,6.776 22.8799231,7 22.7307692,7 Z" id="Path" fill="#263238"></path>
            <path d="M24.7307692,6 L18.2692308,6 C18.1206154,6 18,5.776 18,5.5 C18,5.224 18.1206154,5 18.2692308,5 L24.7307692,5 C24.8793846,5 25,5.224 25,5.5 C25,5.776 24.8799231,6 24.7307692,6 Z" id="Path" fill="#263238"></path>
            <g id="Group" transform="translate(0.000000, 10.000000)" fill="#263238">
                <path d="M34.59375,15.8571429 L32.90625,15.8571429 C32.751,15.8571429 32.625,15.7291429 32.625,15.5714286 C32.625,15.4137143 32.751,15.2857143 32.90625,15.2857143 L34.39125,15.2857143 L35.14275,12.9948571 C35.274375,12.592 35.092125,12.1451429 34.7180625,11.9565714 L34.462125,11.8274286 C34.3850625,11.7885714 34.3299375,11.716 34.3119375,11.6302857 L33.93675,9.812 C33.7224375,8.77542857 32.9203125,7.98857143 31.8931875,7.80685714 L27.30375,6.996 C27.2565,6.98742857 27.2120625,6.96742857 27.1749375,6.93657143 L20.635875,1.57085714 C20.187,1.20228571 19.6216875,0.999428571 19.045125,0.999428571 L7.6978125,0.999428571 C6.8866875,0.999428571 6.118875,1.39885714 5.644125,2.06742857 L3.040875,5.73771429 C2.988,5.81314286 2.9030625,5.85714286 2.8125,5.85714286 L0.9939375,5.85714286 C0.846,5.85714286 0.7734375,5.95885714 0.7486875,6.00228571 C0.7245,6.04571429 0.676125,6.16114286 0.7520625,6.28971429 L1.92825,8.28114286 C1.95525,8.32571429 1.96875,8.37657143 1.96875,8.42857143 L1.96875,11.5714286 C1.96875,11.7291429 1.84275,11.8571429 1.6875,11.8571429 C1.4281875,11.8571429 1.1851875,11.9748571 1.0220625,12.18 C0.8589375,12.3851429 0.7965,12.6502857 0.8505,12.908 L1.35225,15.2857143 L2.8125,15.2857143 C2.96775,15.2857143 3.09375,15.4137143 3.09375,15.5714286 C3.09375,15.7291429 2.96775,15.8571429 2.8125,15.8571429 L1.125,15.8571429 C0.99225,15.8571429 0.8780625,15.7628571 0.8499375,15.6314286 L0.3009375,13.028 C0.2109375,12.6005714 0.313875,12.1605714 0.5844375,11.8205714 C0.7948125,11.556 1.0850625,11.3794286 1.4056875,11.3137143 L1.4056875,8.50742857 L0.2694375,6.58342857 C0.1108125,6.31485714 0.106875,5.99257143 0.25875,5.72 C0.410625,5.44742857 0.685125,5.28514286 0.993375,5.28514286 L2.6685,5.28514286 L5.1879375,1.73314286 C5.767875,0.916 6.7066875,0.428 7.6978125,0.428 L19.045125,0.428 C19.7499375,0.428 20.440125,0.676 20.989125,1.12571429 L27.471375,6.44514286 L31.989375,7.24285714 C33.244875,7.46514286 34.2253125,8.42685714 34.486875,9.69428571 L34.8345,11.3765714 L34.968375,11.444 C35.5921875,11.7588571 35.8965,12.5034286 35.6765625,13.1748571 L34.860375,15.6611429 C34.822125,15.7782857 34.7146875,15.8571429 34.59375,15.8571429 Z" id="Path"></path>
            </g>
            <path d="M23.7317073,26 L13.2682927,26 C13.1201951,26 13,25.776 13,25.5 C13,25.224 13.1201951,25 13.2682927,25 L23.7317073,25 C23.8798049,25 24,25.224 24,25.5 C24,25.776 23.8798049,26 23.7317073,26 Z" id="Path" fill="#263238"></path>
            <g id="Group" transform="translate(24.000000, 19.000000)" fill="#263238">
                <path d="M4,8.85 C1.79428571,8.85 0,6.966 0,4.65 C0,2.334 1.79428571,0.45 4,0.45 C6.20571429,0.45 8,2.334 8,4.65 C8,6.966 6.20571429,8.85 4,8.85 Z M4,1.05 C2.10914286,1.05 0.571428571,2.6646 0.571428571,4.65 C0.571428571,6.6354 2.10914286,8.25 4,8.25 C5.89085714,8.25 7.42857143,6.6354 7.42857143,4.65 C7.42857143,2.6646 5.89085714,1.05 4,1.05 Z" id="Shape"></path>
            </g>
            <path d="M28.5,26 C27.12125,26 26,24.87875 26,23.5 C26,22.12125 27.12125,21 28.5,21 C29.87875,21 31,22.12125 31,23.5 C31,24.87875 29.87875,26 28.5,26 Z M28.5,21.625 C27.46625,21.625 26.625,22.46625 26.625,23.5 C26.625,24.53375 27.46625,25.375 28.5,25.375 C29.53375,25.375 30.375,24.53375 30.375,23.5 C30.375,22.46625 29.53375,21.625 28.5,21.625 Z" id="Shape" fill="#263238"></path>
            <g id="Group" transform="translate(3.000000, 19.000000)" fill="#263238">
                <path d="M4.5,8.85 C2.184,8.85 0.3,6.966 0.3,4.65 C0.3,2.334 2.184,0.45 4.5,0.45 C6.816,0.45 8.7,2.334 8.7,4.65 C8.7,6.966 6.816,8.85 4.5,8.85 Z M4.5,1.05 C2.5146,1.05 0.9,2.6646 0.9,4.65 C0.9,6.6354 2.5146,8.25 4.5,8.25 C6.4854,8.25 8.1,6.6354 8.1,4.65 C8.1,2.6646 6.4854,1.05 4.5,1.05 Z" id="Shape"></path>
            </g>
            <path d="M7.5,26 C6.12125,26 5,24.87875 5,23.5 C5,22.12125 6.12125,21 7.5,21 C8.87875,21 10,22.12125 10,23.5 C10,24.87875 8.87875,26 7.5,26 Z M7.5,21.625 C6.46625,21.625 5.625,22.46625 5.625,23.5 C5.625,24.53375 6.46625,25.375 7.5,25.375 C8.53375,25.375 9.375,24.53375 9.375,23.5 C9.375,22.46625 8.53375,21.625 7.5,21.625 Z" id="Shape" fill="#263238"></path>
            <g id="Group" transform="translate(8.000000, 12.000000)" fill="#263238">
                <path d="M19.2567568,4.625 L1.94972973,4.625 C1.41837838,4.625 0.92,4.3835 0.616756757,3.9795 C0.314054054,3.575 0.244864865,3.059 0.431351351,2.598 L1.03945946,1.098 L1.03945946,1.098 C1.27567568,0.5155 1.88540541,0.1245 2.55783784,0.1245 L13.9027027,0.1245 C13.9643243,0.1245 14.0243243,0.144 14.0724324,0.18 L19.4264865,4.18 C19.5156757,4.2465 19.5497297,4.358 19.5113514,4.458 C19.4735135,4.558 19.3713514,4.625 19.2567568,4.625 Z M2.55783784,0.625 C2.10972973,0.625 1.7027027,0.8855 1.54540541,1.2735 L1.54540541,1.2735 L0.937297297,2.7735 C0.810810811,3.085 0.856216216,3.4205 1.06108108,3.694 C1.26594595,3.9675 1.58972973,4.1245 1.94972973,4.1245 L18.4918919,4.1245 L13.807027,0.6245 L2.55783784,0.6245 L2.55783784,0.625 Z" id="Shape"></path>
            </g>
            <path d="M27.5,19 C27.224,19 27,18.8865823 27,18.7468354 L27,17.2531646 C27,17.1134177 27.224,17 27.5,17 C27.776,17 28,17.1134177 28,17.2531646 L28,18.7468354 C28,18.8865823 27.776,19 27.5,19 Z" id="Path" fill="#263238"></path>
            <path d="M15.5,24 C15.224,24 15,23.87456 15,23.72 L15,17.28 C15,17.12544 15.224,17 15.5,17 C15.776,17 16,17.12544 16,17.28 L16,23.72 C16,23.87456 15.776,24 15.5,24 Z" id="Path" fill="#263238"></path>
            <path d="M15.5,17 C15.224,17 15,16.8755556 15,16.7222222 L15,12.2777778 C15,12.1244444 15.224,12 15.5,12 C15.776,12 16,12.1244444 16,12.2777778 L16,16.7222222 C16,16.8755556 15.776,17 15.5,17 Z" id="Path" fill="#263238"></path>
            <path d="M5.4,19 L4.6,19 C4.2692,19 4,18.7308 4,18.4 L4,17.6 C4,17.2692 4.2692,17 4.6,17 L5.4,17 C5.7308,17 6,17.2692 6,17.6 L6,18.4 C6,18.7308 5.7308,19 5.4,19 Z M4.6,17.4 C4.4896,17.4 4.4,17.4896 4.4,17.6 L4.4,18.4 C4.4,18.5104 4.4896,18.6 4.6,18.6 L5.4,18.6 C5.5104,18.6 5.6,18.5104 5.6,18.4 L5.6,17.6 C5.6,17.4896 5.5104,17.4 5.4,17.4 L4.6,17.4 Z" id="Shape" fill="#263238"></path>
            <g id="Group" transform="translate(31.000000, 19.000000)" fill="#263238">
                <path d="M2.7445,2.875 L1.3585,2.875 C1.264,2.875 1.1775,2.8215 1.135,2.737 L0.497,1.4605 C0.38,1.2265 0.3925,0.9535 0.5295,0.731 C0.667,0.5085 0.9055,0.3755 1.1675,0.3755 L2.2845,0.3755 C2.387,0.3755 2.479,0.438 2.517,0.533 C2.58,0.692 2.6255,0.8395 2.6555,0.983 L2.989,2.574 C3.0045,2.6475 2.986,2.7245 2.9385,2.7825 C2.891,2.841 2.8195,2.875 2.7445,2.875 Z M1.5125,2.375 L2.4365,2.375 L2.166,1.0855 C2.1515,1.0175 2.133,0.948 2.109,0.875 L1.167,0.875 C1.041,0.875 0.9765,0.958 0.9545,0.9935 C0.9325,1.029 0.887,1.124 0.9435,1.2365 L1.5125,2.375 Z" id="Shape"></path>
            </g>
            <path d="M3.75,1.66666667 C3.75,0.746111111 4.53341667,0 5.5,0 C6.46658333,0 7.25,0.746111111 7.25,1.66666667 C8.21658333,1.66666667 9,2.41277778 9,3.33333333 C9,4.25388889 8.21658333,5 7.25,5 L3.75,5 C2.78341667,5 2,4.25388889 2,3.33333333 C2,2.41277778 2.78341667,1.66666667 3.75,1.66666667 Z" id="Path" fill="#000000"></path>
            <path d="M30.25,9 C30.25,8.4475 30.809375,8 31.5,8 C32.190625,8 32.75,8.4475 32.75,9 C33.440625,9 34,9.4475 34,10 C34,10.5525 33.440625,11 32.75,11 L30.25,11 C29.559375,11 29,10.5525 29,10 C29,9.4475 29.559375,9 30.25,9 Z" id="Path" fill="#000000"></path>
        </g>
    </g>
</svg>