<?xml version="1.0" encoding="UTF-8"?>
<svg width="30" height="27" viewBox="0 0 30 27" version="1.1" xmlns="http://www.w3.org/2000/svg" xmlns:xlink="http://www.w3.org/1999/xlink">
    <g id="Eko" stroke="none" stroke-width="1" fill="none" fill-rule="evenodd">
        <g id="desktop-messaging" fill-rule="nonzero">
            <path d="M12,24 C11.8664516,24 11.7580645,23.9004444 11.7580645,23.7777778 L11.7580645,22.2222222 C11.7580645,22.0995556 11.8664516,22 12,22 C12.1335484,22 12.2419355,22.0995556 12.2419355,22.2222222 L12.2419355,23.7777778 C12.2419355,23.9004444 12.1335484,24 12,24 Z" id="Path" fill="#263238"></path>
            <path d="M18,24 C17.8664516,24 17.7580645,23.9004444 17.7580645,23.7777778 L17.7580645,22.2222222 C17.7580645,22.0995556 17.8664516,22 18,22 C18.1335484,22 18.2419355,22.0995556 18.2419355,22.2222222 L18.2419355,23.7777778 C18.2419355,23.9004444 18.1335484,24 18,24 Z" id="Path" fill="#263238"></path>
            <path d="M20.2826087,26 L10.7173913,26 C10.3218696,26 10,25.7308 10,25.4 L10,24.6 C10,24.2692 10.3218696,24 10.7173913,24 L20.2826087,24 C20.6781304,24 21,24.2692 21,24.6 L21,25.4 C21,25.7308 20.6781304,26 20.2826087,26 Z M10.7173913,24.4 C10.5858696,24.4 10.4782609,24.4896 10.4782609,24.6 L10.4782609,25.4 C10.4782609,25.5104 10.5858696,25.6 10.7173913,25.6 L20.2826087,25.6 C20.4141304,25.6 20.5217391,25.5104 20.5217391,25.4 L20.5217391,24.6 C20.5217391,24.4896 20.4141304,24.4 20.2826087,24.4 L10.7173913,24.4 Z" id="Shape" fill="#263238"></path>
            <path d="M28.5245902,21 L1.47540984,21 C0.661967213,21 0,20.3426512 0,19.5348837 L0,1.46511628 C0,0.657348837 0.661967213,0 1.47540984,0 L28.5245902,0 C29.3380328,0 30,0.657348837 30,1.46511628 L30,19.5348837 C30,20.3426512 29.3380328,21 28.5245902,21 Z M1.47540984,0.488372093 C0.93295082,0.488372093 0.491803279,0.92644186 0.491803279,1.46511628 L0.491803279,19.5348837 C0.491803279,20.0735581 0.93295082,20.5116279 1.47540984,20.5116279 L28.5245902,20.5116279 C29.0670492,20.5116279 29.5081967,20.0735581 29.5081967,19.5348837 L29.5081967,1.46511628 C29.5081967,0.92644186 29.0670492,0.488372093 28.5245902,0.488372093 L1.47540984,0.488372093 Z" id="Shape" fill="#263238"></path>
            <path d="M26.7647059,24.2410714 L23.2352941,24.2410714 C23.1054118,24.2410714 23,24.1330714 23,24 C23,23.8669286 23.1054118,23.7589286 23.2352941,23.7589286 L26.7647059,23.7589286 C26.8945882,23.7589286 27,23.8669286 27,24 C27,24.1330714 26.8945882,24.2410714 26.7647059,24.2410714 Z" id="Path" fill="#263238"></path>
            <path d="M28.75,24.2410714 L28.25,24.2410714 C28.112,24.2410714 28,24.1330714 28,24 C28,23.8669286 28.112,23.7589286 28.25,23.7589286 L28.75,23.7589286 C28.888,23.7589286 29,23.8669286 29,24 C29,24.1330714 28.888,24.2410714 28.75,24.2410714 Z" id="Path" fill="#263238"></path>
            <path d="M6.76470588,24.2410714 L3.23529412,24.2410714 C3.10541176,24.2410714 3,24.1330714 3,24 C3,23.8669286 3.10541176,23.7589286 3.23529412,23.7589286 L6.76470588,23.7589286 C6.89458824,23.7589286 7,23.8669286 7,24 C7,24.1330714 6.89458824,24.2410714 6.76470588,24.2410714 Z" id="Path" fill="#263238"></path>
            <path d="M1.75,24.2410714 L1.25,24.2410714 C1.112,24.2410714 1,24.1330714 1,24 C1,23.8669286 1.112,23.7589286 1.25,23.7589286 L1.75,23.7589286 C1.888,23.7589286 2,23.8669286 2,24 C2,24.1330714 1.888,24.2410714 1.75,24.2410714 Z" id="Path" fill="#263238"></path>
            <path d="M28.2636364,19 L2.73636364,19 C2.33038182,19 2,18.673697 2,18.2727273 L2,3.72727273 C2,3.32630303 2.33038182,3 2.73636364,3 L28.2636364,3 C28.6696182,3 29,3.32630303 29,3.72727273 L29,18.2727273 C29,18.673697 28.6696182,19 28.2636364,19 Z M2.73636364,3.48484848 C2.60136364,3.48484848 2.49090909,3.59345455 2.49090909,3.72727273 L2.49090909,18.2727273 C2.49090909,18.4065455 2.60136364,18.5151515 2.73636364,18.5151515 L28.2636364,18.5151515 C28.3986364,18.5151515 28.5090909,18.4065455 28.5090909,18.2727273 L28.5090909,3.72727273 C28.5090909,3.59345455 28.3986364,3.48484848 28.2636364,3.48484848 L2.73636364,3.48484848 Z" id="Shape" fill="#263238"></path>
            <g id="Group" transform="translate(9.000000, 5.000000)">
                <path d="M11.2505,0.625 L1.7505,0.625 C1.06,0.625 0.5005,1.1845 0.5005,1.875 L0.5005,8.125 C0.5005,8.8155 1.06,9.375 1.7505,9.375 L3.2505,9.375 L3.2505,11.0965 C3.2505,11.5135 3.7315,11.7475 4.0595,11.4895 L6.7505,9.375 L11.2505,9.375 C11.941,9.375 12.5005,8.8155 12.5005,8.125 L12.5005,1.875 C12.5005,1.1845 11.9405,0.625 11.2505,0.625 Z" id="Path"></path>
                <path d="M3.752,11.847 C3.64,11.847 3.528,11.822 3.423,11.7705 C3.1625,11.644 3.0005,11.3855 3.0005,11.096 L3.0005,9.625 L1.7505,9.625 C0.9235,9.625 0.2505,8.952 0.2505,8.125 L0.2505,1.875 C0.2505,1.048 0.9235,0.375 1.7505,0.375 L11.2505,0.375 C12.0775,0.375 12.7505,1.048 12.7505,1.875 L12.7505,8.125 C12.7505,8.952 12.0775,9.625 11.2505,9.625 L6.837,9.625 L4.2135,11.686 C4.078,11.7925 3.916,11.847 3.752,11.847 Z M1.7505,0.875 C1.199,0.875 0.7505,1.3235 0.7505,1.875 L0.7505,8.125 C0.7505,8.6765 1.199,9.125 1.7505,9.125 L3.2505,9.125 C3.3885,9.125 3.5005,9.237 3.5005,9.375 L3.5005,11.096 C3.5005,11.194 3.553,11.278 3.641,11.321 C3.7315,11.3645 3.828,11.353 3.9045,11.293 L6.596,9.1785 C6.64,9.144 6.694,9.125 6.7505,9.125 L11.2505,9.125 C11.802,9.125 12.2505,8.6765 12.2505,8.125 L12.2505,1.875 C12.2505,1.3235 11.802,0.875 11.2505,0.875 L1.7505,0.875 L1.7505,0.875 Z" id="Shape" fill="#263238"></path>
            </g>
            <path d="M12,11 C11.4485,11 11,10.5515 11,10 C11,9.4485 11.4485,9 12,9 C12.5515,9 13,9.4485 13,10 C13,10.5515 12.5515,11 12,11 Z M12,9.5 C11.724,9.5 11.5,9.7245 11.5,10 C11.5,10.2755 11.724,10.5 12,10.5 C12.276,10.5 12.5,10.2755 12.5,10 C12.5,9.7245 12.276,9.5 12,9.5 Z" id="Shape" fill="#263238"></path>
            <path d="M15,11 C14.4485,11 14,10.5515 14,10 C14,9.4485 14.4485,9 15,9 C15.5515,9 16,9.4485 16,10 C16,10.5515 15.5515,11 15,11 Z M15,9.5 C14.724,9.5 14.5,9.7245 14.5,10 C14.5,10.2755 14.724,10.5 15,10.5 C15.276,10.5 15.5,10.2755 15.5,10 C15.5,9.7245 15.276,9.5 15,9.5 Z" id="Shape" fill="#263238"></path>
            <path d="M18,11 C17.4485,11 17,10.5515 17,10 C17,9.4485 17.4485,9 18,9 C18.5515,9 19,9.4485 19,10 C19,10.5515 18.5515,11 18,11 Z M18,9.5 C17.724,9.5 17.5,9.7245 17.5,10 C17.5,10.2755 17.724,10.5 18,10.5 C18.276,10.5 18.5,10.2755 18.5,10 C18.5,9.7245 18.276,9.5 18,9.5 Z" id="Shape" fill="#263238"></path>
            <path d="M26.75,7 C26.612,7 26.5,6.888 26.5,6.75 L26.5,4.75 C26.5,4.612 26.3875,4.5 26.25,4.5 L24.25,4.5 C24.112,4.5 24,4.388 24,4.25 C24,4.112 24.112,4 24.25,4 L26.25,4 C26.6635,4 27,4.3365 27,4.75 L27,6.75 C27,6.888 26.888,7 26.75,7 Z" id="Path" fill="#263238"></path>
        </g>
    </g>
</svg>