<?xml version="1.0" encoding="UTF-8"?>
<svg width="29" height="26" viewBox="0 0 29 26" version="1.1" xmlns="http://www.w3.org/2000/svg" xmlns:xlink="http://www.w3.org/1999/xlink">
    <g id="Indicators" stroke="none" stroke-width="1" fill="none" fill-rule="evenodd">
        <g id="headlight-indicator" fill="#263238" fill-rule="nonzero">
            <path d="M23.2929078,25 C23.2179609,25 23.143014,24.9712989 23.0856327,24.9144824 C22.9714558,24.8002636 22.9714558,24.6145849 23.0856327,24.5003661 L23.4995974,24.0856641 C23.6137743,23.9714453 23.7993851,23.9714453 23.9141476,24.0856641 C24.0289101,24.1998829 24.0283245,24.3855616 23.9141476,24.4997803 L23.5001829,24.9144824 C23.4428017,24.9712989 23.3678547,25 23.2929078,25 Z" id="Path"></path>
            <path d="M15,26 C7.83184906,26 2,20.1681509 2,13 C2,5.83184906 7.83184906,0 15,0 C22.1681509,0 28,5.83184906 28,13 C28,20.1681509 22.1681509,26 15,26 Z M15,0.490566038 C8.10215094,0.490566038 2.49056604,6.10215094 2.49056604,13 C2.49056604,19.8978491 8.10215094,25.509434 15,25.509434 C21.8978491,25.509434 27.509434,19.8978491 27.509434,13 C27.509434,6.10215094 21.8978491,0.490566038 15,0.490566038 Z M15,24.0377358 C8.91354717,24.0377358 3.96226415,19.0859623 3.96226415,13 C3.96226415,6.91403774 8.91354717,1.96226415 15,1.96226415 C21.0864528,1.96226415 26.0377358,6.91403774 26.0377358,13 C26.0377358,19.0859623 21.0864528,24.0377358 15,24.0377358 Z M15,2.45283019 C9.18433962,2.45283019 4.45283019,7.18433962 4.45283019,13 C4.45283019,18.8156604 9.18433962,23.5471698 15,23.5471698 C20.8156604,23.5471698 25.5471698,18.8156604 25.5471698,13 C25.5471698,7.18433962 20.8156604,2.45283019 15,2.45283019 Z" id="Shape"></path>
            <path d="M3.79563015,24 C3.74323287,24 3.69083559,23.9774325 3.65071893,23.932758 C-1.21690631,18.4557602 -1.21690631,9.54435495 3.65071893,4.06735713 C3.73054291,3.97754762 3.86030804,3.97754762 3.94013202,4.06735713 C4.01995599,4.15716663 4.01995599,4.30316463 3.94013202,4.39297413 C-0.767845264,9.69035296 -0.767845264,18.3097622 3.94013202,23.607141 C4.01995599,23.6969505 4.01995599,23.8429485 3.94013202,23.932758 C3.90001535,23.9774325 3.84802743,24 3.79563015,24 Z" id="Path"></path>
            <path d="M5.29290781,2 C5.21796089,2 5.14301396,1.97129887 5.08563272,1.91448235 C4.97145576,1.80026358 4.97145576,1.61458486 5.08563272,1.50036609 L5.49959738,1.08566408 C5.61377434,0.971445307 5.79938509,0.971445307 5.91414757,1.08566408 C6.02891005,1.19988285 6.02832453,1.38556158 5.91414757,1.49978035 L5.50018291,1.91448235 C5.44338719,1.97129887 5.36785474,2 5.29290781,2 Z" id="Path"></path>
            <path d="M25.2047792,24 C25.1523819,24 25.0999846,23.9774325 25.059868,23.932758 C24.980044,23.8429485 24.980044,23.6969505 25.059868,23.607141 C29.7678453,18.3097622 29.7678453,9.69035296 25.059868,4.39297413 C24.980044,4.30316463 24.980044,4.15716663 25.059868,4.06735713 C25.139692,3.97754762 25.2694571,3.97754762 25.3492811,4.06735713 C30.2169063,9.54435495 30.2169063,18.4557602 25.3492811,23.932758 C25.3095738,23.9774325 25.2571765,24 25.2047792,24 Z" id="Path"></path>
            <g id="Group" transform="translate(14.000000, 8.000000)">
                <path d="M2.39583333,9.46502058 C2.14475,9.46502058 1.8816875,9.45271605 1.61479167,9.42763374 C1.27075,9.39545267 0.969833333,9.18154321 0.8294375,8.86967078 C0.287020833,7.66477366 0,6.2341358 0,4.73251029 C0,3.23088477 0.287020833,1.80024691 0.8294375,0.595349794 C0.969354167,0.283477366 1.27027083,0.0700411523 1.61479167,0.0373868313 C1.8816875,0.0123045267 2.14475,0 2.39583333,0 C5.69202083,0 8.625,2.64641975 8.625,4.73251029 C8.625,6.81860082 5.69202083,9.46502058 2.39583333,9.46502058 Z M2.39583333,0.473251029 C2.15960417,0.473251029 1.911875,0.485082305 1.65935417,0.508744856 C1.4878125,0.52436214 1.33735417,0.631316872 1.26739583,0.787489712 C0.7518125,1.9327572 0.479166667,3.29666667 0.479166667,4.73251029 C0.479166667,6.16835391 0.7518125,7.53226337 1.26739583,8.67753086 C1.33735417,8.8337037 1.4878125,8.94065844 1.65935417,8.95627572 C1.911875,8.97993827 2.15960417,8.99176955 2.39583333,8.99176955 C5.43854167,8.99176955 8.14583333,6.60989712 8.14583333,4.73251029 C8.14583333,2.85512346 5.43854167,0.473251029 2.39583333,0.473251029 Z M2.39583333,8.04526749 C2.32875,8.04526749 2.26070833,8.04432099 2.1921875,8.04195473 C2.09491667,8.03816872 2.01010417,7.97759259 1.97608333,7.8876749 C1.62389583,6.95253086 1.4375,5.86168724 1.4375,4.73251029 C1.4375,3.60333333 1.62389583,2.51248971 1.97608333,1.57734568 C2.01010417,1.48742798 2.09539583,1.42685185 2.1921875,1.42306584 C2.26070833,1.42069959 2.32875,1.41975309 2.39583333,1.41975309 C5.1160625,1.41975309 7.1875,3.62746914 7.1875,4.73251029 C7.1875,5.83755144 5.1160625,8.04526749 2.39583333,8.04526749 Z M2.3704375,7.57201646 C2.3790625,7.57201646 2.3876875,7.57201646 2.39583333,7.57201646 C4.96704167,7.57201646 6.70833333,5.44049383 6.70833333,4.73251029 C6.70833333,4.02452675 4.96704167,1.89300412 2.39583333,1.89300412 C2.38720833,1.89300412 2.37858333,1.89300412 2.3704375,1.89300412 C2.07335417,2.74201646 1.91666667,3.71975309 1.91666667,4.73251029 C1.91666667,5.74526749 2.07335417,6.72300412 2.3704375,7.57201646 Z" id="Shape"></path>
            </g>
            <g id="Group2" transform="translate(8.000000, 8.000000)">
                <path d="M4.9691358,2.02314815 L0.99382716,2.02314815 C0.445731481,2.02314815 0,1.64109259 0,1.1712963 C0,0.7015 0.445731481,0.319444444 0.99382716,0.319444444 L4.9691358,0.319444444 C5.51723148,0.319444444 5.96296296,0.7015 5.96296296,1.1712963 C5.96296296,1.64109259 5.51723148,2.02314815 4.9691358,2.02314815 Z M0.99382716,0.74537037 C0.720027778,0.74537037 0.49691358,0.936185185 0.49691358,1.1712963 C0.49691358,1.40640741 0.720027778,1.59722222 0.99382716,1.59722222 L4.9691358,1.59722222 C5.24293519,1.59722222 5.46604938,1.40640741 5.46604938,1.1712963 C5.46604938,0.936185185 5.24293519,0.74537037 4.9691358,0.74537037 L0.99382716,0.74537037 Z" id="Shape"></path>
            </g>
            <g id="Group3" transform="translate(8.000000, 10.000000)">
                <path d="M4.9691358,1.81018519 L0.99382716,1.81018519 C0.445731481,1.81018519 0,1.42812963 0,0.958333333 C0,0.488537037 0.445731481,0.106481481 0.99382716,0.106481481 L4.9691358,0.106481481 C5.51723148,0.106481481 5.96296296,0.488537037 5.96296296,0.958333333 C5.96296296,1.42812963 5.51723148,1.81018519 4.9691358,1.81018519 Z M0.99382716,0.532407407 C0.720027778,0.532407407 0.49691358,0.723222222 0.49691358,0.958333333 C0.49691358,1.19344444 0.720027778,1.38425926 0.99382716,1.38425926 L4.9691358,1.38425926 C5.24293519,1.38425926 5.46604938,1.19344444 5.46604938,0.958333333 C5.46604938,0.723222222 5.24293519,0.532407407 4.9691358,0.532407407 L0.99382716,0.532407407 Z" id="Shape"></path>
            </g>
            <g id="Group4" transform="translate(8.000000, 14.000000)">
                <path d="M4.9691358,2.02314815 L0.99382716,2.02314815 C0.445731481,2.02314815 0,1.64109259 0,1.1712963 C0,0.7015 0.445731481,0.319444444 0.99382716,0.319444444 L4.9691358,0.319444444 C5.51723148,0.319444444 5.96296296,0.7015 5.96296296,1.1712963 C5.96296296,1.64109259 5.51723148,2.02314815 4.9691358,2.02314815 Z M0.99382716,0.74537037 C0.720027778,0.74537037 0.49691358,0.936185185 0.49691358,1.1712963 C0.49691358,1.40640741 0.720027778,1.59722222 0.99382716,1.59722222 L4.9691358,1.59722222 C5.24293519,1.59722222 5.46604938,1.40640741 5.46604938,1.1712963 C5.46604938,0.936185185 5.24293519,0.74537037 4.9691358,0.74537037 L0.99382716,0.74537037 Z" id="Shape"></path>
            </g>
            <g id="Group5" transform="translate(8.000000, 16.000000)">
                <path d="M4.9691358,1.81018519 L0.99382716,1.81018519 C0.445731481,1.81018519 0,1.42812963 0,0.958333333 C0,0.488537037 0.445731481,0.106481481 0.99382716,0.106481481 L4.9691358,0.106481481 C5.51723148,0.106481481 5.96296296,0.488537037 5.96296296,0.958333333 C5.96296296,1.42812963 5.51723148,1.81018519 4.9691358,1.81018519 Z M0.99382716,0.532407407 C0.720027778,0.532407407 0.49691358,0.723222222 0.49691358,0.958333333 C0.49691358,1.19344444 0.720027778,1.38425926 0.99382716,1.38425926 L4.9691358,1.38425926 C5.24293519,1.38425926 5.46604938,1.19344444 5.46604938,0.958333333 C5.46604938,0.723222222 5.24293519,0.532407407 4.9691358,0.532407407 L0.99382716,0.532407407 Z" id="Shape"></path>
            </g>
        </g>
    </g>
</svg>