<?xml version="1.0" encoding="UTF-8"?>
<svg height="80" viewBox="0 0 999 333" version="1.1" xmlns="http://www.w3.org/2000/svg" xmlns:xlink="http://www.w3.org/1999/xlink">
    <g id="Logo-/-blue-/-horizontal" stroke="none" stroke-width="1" fill="none" fill-rule="evenodd">
        <g id="logo-atlant" transform="translate(23.000000, 50.000000)" fill-rule="nonzero">
            <g id="Logo" transform="translate(517.000000, 0.000000)">
                <path d="M134.218664,55.1152074 C131.209277,55.59447 123.745997,59.0691244 122.181115,67.8156682 C128.079514,59.9078341 129.162893,59.5483871 132.292656,58.1105991 C141.320817,53.6774194 157.210381,62.4239631 164.794036,62.3041475 C164.914412,61.9447005 165.034787,61.8248848 165.034787,61.4654378 C154.200994,59.1889401 146.496963,53.1981567 134.218664,55.1152074 Z M133.977913,60.5069124 C128.079514,62.5437788 122.301491,69.0138249 125.79238,74.764977 C129.52402,80.875576 138.431806,77.4009217 141.681944,74.0460829 C145.052457,70.6912442 146.617338,63.0230415 156.728879,65.2995392 C157.451132,64.8202765 158.414136,66.1382488 158.775262,64.8202765 C152.997239,60.3870968 142.283821,58.9493088 133.977913,60.5069124 Z M221.852015,63.1428571 C220.648261,60.8663594 219.32413,58.5898618 218,56.3133641 C216.67587,54.2764977 215.351739,52.2396313 213.907234,50.202765 C192.600773,19.8894009 157.330756,0 117.486472,0 C52.7244616,0 0,52.4792627 0,116.940092 C0,181.400922 52.7244616,233.880184 117.486472,233.880184 C157.330756,233.880184 192.600773,213.990783 213.907234,183.677419 C215.351739,181.640553 216.67587,179.603687 218,177.56682 C219.32413,175.410138 220.648261,173.133641 221.852015,170.737327 C230.278299,154.562212 235.093319,136.35023 235.093319,116.940092 C235.093319,97.5299539 230.278299,79.3179724 221.852015,63.1428571 Z M117.486472,116.341014 L117.486472,116.341014 L117.486472,95.6129032 C118.088349,95.3732719 120.616234,101.24424 120.73661,102.082949 C123.866372,118.737327 121.458863,122.930876 117.486472,123.050691 L117.486472,116.341014 L117.486472,116.341014 Z M114.838211,219.023041 C59.4654887,217.585253 15.1670668,172.294931 15.1670668,116.940092 C15.0469354,60.8663594 59.4654887,17.2534562 114.958586,14.9769585 L114.958586,21.5668203 C114.958586,21.5668203 83.0590834,21.9262673 58.2617338,42.8940092 C57.5394809,43.9723502 58.2617338,44.5714286 59.8266151,43.7327189 C61.5118719,42.8940092 83.1794589,28.2764977 104.606295,32.9493088 C110.625069,36.1843318 114.958586,45.5299539 114.958586,50.3225806 L114.958586,59.9078341 C107.495306,50.921659 89.5593595,44.2119816 78.3644395,46.4884793 C75.1143015,47.2073733 76.6791828,48.5253456 77.2810602,48.764977 C86.7907234,48.6451613 113.27333,58.4700461 114.958586,72.2488479 L114.958586,133.59447 C122.421866,133.953917 125.310878,131.797235 126.875759,130.239631 C129.403644,127.843318 132.051905,121.852535 131.209277,116.221198 L128.440641,117.179724 L128.320265,117.179724 C127.236886,125.806452 124.709001,128.682028 117.486472,130.83871 L117.486472,127.24424 C122.542242,126.764977 124.829376,122.331797 124.347874,112.746544 C123.866372,103.520737 121.218112,96.2119816 117.366096,88.5437788 L117.366096,81.4746544 C121.097736,88.7834101 124.347874,102.921659 126.875759,105.317972 C128.801767,104.599078 123.986748,92.0184332 122.301491,87.2258065 C124.107123,85.0691244 127.357261,92.1382488 129.283269,95.8525346 C132.774158,104.479263 141.320817,133.474654 127.477637,138.02765 C114.958586,141.262673 105.569299,139.824885 101.837659,134.313364 C95.9392601,124.608295 108.097184,112.626728 104.245168,107.953917 L100.99503,78 C98.5875207,57.0322581 69.4566538,49.843318 57.9006074,63.2626728 C55.9745997,66.2580645 58.6228603,65.2995392 60.0673661,64.1013825 C69.3362783,58.1105991 89.8001104,56.9124424 95.5781336,74.40553 C96.9022639,77.8801843 96.7818885,85.1889401 92.8094975,75.7235023 C85.707344,64.7004608 75.3550525,59.6682028 63.0767532,68.4147465 C61.03037,69.7327189 53.4467145,76.3225806 50.9188294,72.7281106 C46.344561,66.8571429 56.6968526,58.5898618 56.3357261,54.9953917 L54.7708448,55.9539171 C47.4279404,62.0645161 42.4925456,76.921659 47.1871894,88.5437788 C47.9094423,91.5391705 51.2799558,94.2949309 44.7796797,95.7327189 C30.9364992,100.764977 28.7697405,114.543779 28.7697405,120.175115 C28.7697405,142.580645 47.7890668,168.221198 71.9845389,156.119816 C77.0403092,153.004608 79.6885699,149.410138 81.4942021,147.133641 L80.1700718,146.0553 C42.4925456,185.235023 18.7785754,108.792627 50.1965765,104 C53.807841,108.193548 59.1043622,113.225806 64.6416345,114.543779 C75.5958034,117.059908 85.8277195,112.506912 97.5041414,96.0921659 C99.3097736,94.2949309 99.7912755,95.9723502 99.4301491,96.9308756 C98.2263943,103.16129 91.4853672,111.907834 90.2816124,114.423963 C89.5593595,115.861751 90.1612369,117.658986 92.2076201,115.981567 C94.8558807,112.387097 95.5781336,109.990783 97.8652678,109.511521 L92.689122,120.534562 C90.7631143,123.529954 89.198233,125.207373 94.2540033,124.608295 C99.0690226,124.608295 96.9022639,127.004608 97.6245168,130.599078 C102.07841,137.069124 91.4853672,141.861751 90.5223633,132.635945 C90.5223633,129.400922 93.2909994,127.124424 91.3649917,126.525346 C89.438984,127.124424 86.9110988,131.797235 86.7907234,137.069124 L81.975704,144.258065 L83.0590834,145.456221 L88.4759801,137.907834 C90.8834898,143.299539 99.7912755,140.304147 100.272777,140.184332 C102.198785,140.304147 103.282165,140.78341 104.365544,142.101382 C104.485919,144.138249 105.689674,144.737327 106.171176,147.373272 C109.060188,150.368664 104.967421,151.56682 102.439536,152.525346 C92.5687465,156.239631 91.9668691,162.110599 87.9944782,166.903226 C85.3462176,170.138249 84.2628382,169.059908 81.8553285,171.456221 C80.0496963,174.571429 84.2628382,175.889401 85.1054666,177.447005 C86.3092214,179.843318 88.7167311,183.198157 92.2076201,184.635945 C94.4947543,185.354839 95.8188846,185.953917 92.3279956,187.870968 C89.8001104,189.548387 88.7167311,193.861751 88.7167311,195.299539 C88.7167311,199.013825 89.5593595,203.806452 94.3743788,206.921659 C91.4853672,206.202765 89.679735,205.603687 86.9110988,204.40553 C89.438984,201.290323 87.1518498,200.331797 86.6703479,199.493088 C85.5869685,199.732719 85.466593,203.806452 80.2904473,202.009217 C81.975704,199.013825 92.5687465,186.912442 87.3926008,185.115207 C83.1794589,192.064516 81.6145776,200.092166 72.5864163,198.534562 C76.5588073,195.539171 82.6979569,192.304147 85.5869685,183.078341 L84.1424627,182.599078 C80.6515737,189.668203 73.6697957,198.175115 65.3638874,194.101382 C68.9751518,192.423963 71.3826615,190.866359 73.3086692,189.308756 C74.993926,187.870968 82.9387079,181.16129 80.0496963,179.723502 C75.3550525,184.396313 65.0027609,195.299539 58.7432358,188.949309 C62.3545003,187.990783 66.2065157,186.43318 69.2159028,184.516129 C72.1049144,182.599078 76.1976808,178.645161 78.484815,177.327189 L77.5218112,175.410138 C75.234677,175.889401 64.7620099,184.396313 62.4748758,184.875576 C59.2247377,185.714286 56.5764771,187.990783 51.8818332,182.958525 C57.7802319,182.359447 63.3175041,180.682028 65.9657648,179.004608 C68.1325235,177.686636 75.8365544,173.97235 76.7995583,173.852535 L75.7161789,171.935484 C70.2992822,173.732719 65.9657648,180.082949 54.1689674,180.082949 C53.326339,180.082949 48.7520707,179.843318 44.9000552,175.290323 L45.0204307,175.050691 C52.2429597,176.129032 58.1413584,176.009217 65.1231364,173.97235 C68.4936499,172.774194 71.6234125,170.737327 74.993926,169.778802 L73.9105467,167.262673 C67.5306461,170.018433 62.8360022,173.013825 55.0115958,173.013825 C46.2241855,173.013825 44.7796797,174.331797 39.4831585,167.382488 C40.4461623,166.304147 46.9464384,169.419355 51.2799558,169.419355 C60.9099945,169.419355 65.3638874,169.179724 73.4290447,165.465438 L72.4660409,163.548387 C69.6974047,164.746544 63.3175041,166.663594 57.5394809,166.78341 C44.2981778,166.903226 34.1866372,161.032258 33.4643843,155.520737 C37.1960243,158.635945 42.853672,162.589862 49.2335726,163.18894 C54.1689674,163.668203 67.4102706,163.18894 72.1049144,161.391705 L71.262286,159.59447 C68.7344009,160.552995 58.1413584,161.511521 55.0115958,161.511521 C48.2705687,161.511521 40.8072888,156.718894 38.8812811,155.281106 C25.5196024,144.617512 21.667587,112.506912 29.2512424,102.202765 C30.8161237,97.0506912 40.3257869,89.1428571 40.2054114,87.5852535 C38.6405301,72.3686636 37.7979017,66.9769585 49.4743236,50.921659 C39.4831585,57.0322581 32.140254,70.5714286 36.7145224,83.5115207 C38.7609056,89.2626728 30.0938708,94.2949309 27.5659856,98.3686636 C16.2506902,116.940092 21.426836,136.709677 29.3716179,155.400922 C57.1783545,214.230415 114.717835,212.43318 114.717835,212.43318 L114.838211,219.023041 Z M117.486472,32.3502304 L117.486472,29.3548387 C120.856985,29.7142857 123.625621,30.5529954 126.755384,31.2718894 C130.366648,27.6774194 119.051353,27.5576037 117.486472,26.4792627 L117.486472,24.3225806 C125.551629,23.9631336 133.616786,25.1612903 141.441193,27.3179724 L141.200442,28.0368664 C134.57979,28.516129 128.561016,32.9493088 123.38487,38.3410138 C122.903368,38.8202765 122.301491,40.6175115 120.495859,40.6175115 C118.690226,40.4976959 117.967973,39.8986175 117.366096,38.3410138 L117.366096,34.5069124 C119.171728,34.5069124 122.662617,36.7834101 123.023744,34.1474654 C120.495859,32.8294931 119.65323,33.4285714 117.486472,32.3502304 Z M200.545555,83.7511521 C201.388183,83.9907834 203.916068,84.8294931 204.999448,85.7880184 C205.240199,86.0276498 205.360574,86.1474654 205.48095,86.3870968 L206.203203,88.7834101 C205.601325,88.5437788 204.999448,88.1843318 204.39757,87.9447005 C202.953065,87.1059908 201.869685,86.6267281 200.906681,88.5437788 C202.110436,89.0230415 203.07344,89.5023041 203.916068,89.8617512 C205.601325,90.8202765 206.443954,91.7788018 207.166207,92.3778802 C207.286582,93.0967742 207.888459,94.1751152 208.008835,95.2534562 C206.323578,95.2534562 204.638321,93.6958525 203.07344,93.3364055 C202.471563,93.2165899 201.990061,93.2165899 201.508559,93.4562212 L201.508559,93.5760369 L201.388183,94.5345622 C201.74931,94.6543779 202.230812,94.8940092 202.712314,95.1336406 C204.638321,96.2119816 207.406957,98.2488479 208.610712,100.046083 C209.092214,100.764977 209.332965,101.364055 209.092214,101.963134 C208.851463,101.963134 208.610712,101.963134 208.369961,101.843318 C206.323578,101.364055 204.036444,98.7281106 202.591938,99.8064516 C202.591938,101.004608 203.193816,101.603687 203.554942,101.963134 C204.999448,103.520737 206.684705,104 208.008835,104.718894 C209.453341,105.557604 210.416345,106.516129 210.175594,109.511521 C209.092214,109.271889 208.369961,109.032258 207.647708,108.672811 C206.564329,108.193548 205.48095,107.714286 203.07344,106.75576 C201.027057,107.834101 204.517946,109.990783 206.082827,110.35023 C206.564329,110.470046 207.045831,110.709677 207.527333,110.949309 C208.971839,111.668203 210.416345,112.866359 210.416345,113.705069 L210.53672,117.059908 C209.573716,116.700461 208.369961,116.101382 207.286582,115.502304 C205.360574,114.543779 203.434567,113.705069 201.628934,114.903226 C201.628934,117.299539 204.758697,117.299539 207.286582,118.617512 C209.092214,119.576037 210.657096,121.253456 210.175594,125.087558 C209.21259,125.207373 208.369961,124.967742 207.647708,124.608295 C205.842076,123.64977 204.39757,121.97235 202.712314,121.97235 L202.110436,124.248848 C204.036444,125.327189 205.962452,127.24424 208.008835,128.682028 C208.610712,129.041475 209.092214,129.400922 209.694092,129.640553 L209.092214,133.115207 C208.971839,133.115207 208.731088,132.995392 208.610712,132.995392 C206.684705,132.276498 203.434567,129.16129 202.230812,129.16129 C201.869685,129.520737 201.628934,129.880184 201.508559,130.239631 C201.267808,130.83871 201.267808,131.317972 201.74931,131.917051 C201.74931,131.917051 201.74931,132.036866 201.869685,132.036866 C201.869685,132.156682 206.203203,135.511521 208.610712,136.589862 C207.768084,142.221198 205.240199,141.023041 203.07344,139.345622 C200.906681,137.788018 198.980674,135.870968 198.980674,139.105991 C200.184428,140.543779 202.230812,141.741935 203.916068,143.179724 C204.758697,143.898618 205.48095,144.617512 206.082827,145.576037 C205.721701,146.654378 205.48095,147.373272 205.119823,148.211982 C204.999448,148.571429 204.758697,149.050691 204.638321,149.410138 C202.110436,147.253456 199.462176,145.096774 196.93429,143.179724 C189.109884,137.18894 181.044727,132.396313 171.414688,128.322581 C172.979569,122.81106 190.674765,132.875576 190.674765,133.953917 C191.156267,132.875576 191.758145,132.75576 191.998896,131.917051 C190.193263,130.599078 180.202098,124.129032 177.433462,123.769585 C177.313087,123.410138 179.479845,121.373272 179.720596,120.774194 C180.442849,120.654378 185.859746,122.691244 186.581999,123.050691 C188.869133,120.294931 183.331861,120.0553 181.76698,117.898618 C182.609608,117.059908 182.850359,116.101382 183.331861,114.78341 C184.655991,115.262673 186.341248,117.299539 187.545003,116.460829 C188.14688,115.741935 188.14688,115.262673 187.906129,114.543779 C183.452236,111.668203 184.174489,113.585253 185.257869,108.313364 C191.276643,108.912442 189.109884,107.115207 185.980121,105.437788 L186.581999,101.843318 C187.906129,102.322581 190.434014,102.801843 189.711761,100.40553 C188.748758,99.9262673 188.387631,100.165899 187.063501,99.0875576 C187.545003,98.0092166 187.665378,97.0506912 187.785754,95.4930876 C188.748758,95.1336406 189.350635,95.3732719 190.193263,95.0138249 C190.434014,93.3364055 188.989509,93.3364055 188.026505,92.4976959 C188.267256,91.4193548 188.14688,90.5806452 188.14688,89.3824885 L190.434014,89.7419355 C190.915516,89.7419355 191.517394,87.8248848 190.674765,87.5852535 C189.23026,87.1059908 186.461623,85.7880184 185.49862,84.2304147 C194.165654,85.4285714 195.128658,81.3548387 199.462176,78.718894 C199.582551,78.5990783 199.943678,78.5990783 200.425179,78.718894 C201.267808,78.8387097 202.351187,79.1981567 202.953065,79.6774194 L204.156819,82.3133641 C202.953065,82.6728111 201.027057,81.4746544 200.184428,81.59447 C199.702927,83.3917051 200.545555,83.3917051 200.545555,83.7511521 Z M139.996687,186.313364 C140.959691,185.115207 141.681944,184.036866 142.283821,182.718894 C148.663722,188.470046 150.348978,197.456221 150.348978,203.926267 C148.663722,204.285714 146.858089,205.124424 145.052457,205.603687 C146.617338,198.175115 143.969078,192.304147 139.996687,186.313364 Z M117.486472,188.709677 C128.19989,189.18894 135.181668,191.345622 135.422419,197.576037 C135.66317,204.285714 127.477637,206.921659 117.486472,207.281106 L117.486472,204.884793 C105.930425,204.525346 100.633904,202.847926 100.633904,197.456221 C100.633904,191.585253 107.374931,190.866359 117.486472,191.225806 L117.486472,188.709677 Z M136.746549,130.119816 C143.969078,124.608295 150.589729,136.230415 143.006074,141.62212 C136.024296,147.97235 128.19989,147.97235 119.292104,147.97235 C119.051353,157.198157 134.459415,166.423963 142.765323,163.788018 C156.006626,162.589862 164.071784,146.294931 173.22032,152.046083 C176.350083,153.963134 174.905577,156.479263 177.192711,158.75576 C178.998343,158.635945 178.998343,157.557604 179.35947,156.239631 C173.461071,152.40553 182.489232,145.21659 169.609056,144.138249 C164.192159,143.658986 162.145776,134.912442 149.385975,138.267281 C155.284373,130 169.970182,130.83871 175.266703,134.313364 C189.23026,143.539171 179.840972,169.179724 176.229707,166.423963 C175.868581,149.889401 145.172833,171.096774 140.117062,169.419355 C128.801767,168.101382 122.301491,159.235023 117.606847,158.396313 L115.199337,158.396313 L115.199337,164.387097 C109.180563,163.907834 112.069575,162.230415 105.569299,162.230415 C98.9486472,162.230415 99.1893981,164.626728 93.170624,167.382488 C97.5041414,158.396313 98.7078962,156 104.485919,155.400922 C106.532303,155.400922 117.245721,158.635945 117.727223,155.640553 L117.727223,142.580645 C126.996135,143.059908 130.005522,140.423963 134.57979,135.990783 C135.542794,137.428571 139.515185,140.304147 141.080066,138.147465 C139.63556,135.990783 133.857537,137.668203 136.746549,130.119816 Z M175.507454,81.59447 L179.600221,82.4331797 C181.044727,87.7050691 182.248482,99.5668203 169.007178,105.317972 C158.654887,109.870968 147.941469,102.801843 143.3672,95.4930876 L147.580342,94.1751152 C149.987852,98.7281106 159.497515,105.198157 167.562673,101.364055 C176.350083,97.2903226 176.109332,89.3824885 175.507454,81.59447 Z M166.238542,82.9124424 C168.044174,81.8341014 169.247929,81.7142857 171.053562,81.8341014 C174.664826,92.8571429 170.331309,97.2903226 166.358918,98.9677419 C159.979017,101.483871 154.321369,97.6497696 150.950856,92.9769585 C151.91386,92.2580645 154.200994,90.1013825 155.284373,89.9815668 C156.608504,94.7741935 160.460519,95.8525346 164.192159,94.6543779 C168.405301,93.2165899 170.451684,87.5852535 166.238542,82.9124424 Z M148.784097,91.4193548 C142.163446,94.2949309 136.9873,92.0184332 133.25566,89.9815668 C149.145224,87.8248848 148.663722,82.6728111 158.654887,75.9631336 C162.266151,74.5253456 170.090558,76.0829493 172.498067,78.8387097 C153.839867,80.6359447 159.497515,86.7465438 148.784097,91.4193548 Z M161.303147,109.511521 C174.664826,110.110599 180.924351,103.16129 184.535616,91.0599078 L185.017118,91.0599078 C184.776367,100.046083 178.998343,110.35023 166.358918,111.548387 C144.811706,113.705069 129.644395,90.9400922 129.644395,90.9400922 L129.885146,90.2211982 C142.283821,100.764977 148.904473,108.912442 161.303147,109.511521 Z M152.756488,113.465438 C162.747653,117.179724 177.794589,110.35023 183.813363,103.400922 C179.961347,110.589862 170.331309,117.059908 158.173385,116.820276 C153.719492,116.820276 141.681944,112.746544 133.616786,102.202765 C134.218664,102.082949 148.543346,113.585253 152.756488,113.465438 Z M159.37714,149.64977 C156.006626,150.488479 149.747101,146.175115 148.784097,143.299539 C149.987852,142.940092 150.83048,142.940092 152.515737,143.658986 C155.525124,145.096774 153.23799,146.654378 159.37714,149.64977 Z M154.441745,140.304147 C160.099393,140.78341 158.173385,142.940092 163.831033,145.576037 C160.942021,145.815668 154.682496,143.778802 154.441745,140.304147 Z M130.246273,150.368664 C131.811154,150.368664 134.218664,150.608295 135.181668,151.806452 C136.746549,153.723502 138.431806,156.718894 145.77471,159.834101 C138.913308,160.43318 129.162893,152.764977 130.246273,150.368664 Z M136.746549,160.672811 C137.228051,161.032258 126.755384,158.276498 122.421866,151.087558 C123.745997,151.207373 125.912755,150.967742 127.357261,152.285714 C128.922142,153.723502 129.403644,155.640553 136.746549,160.672811 Z M135.90392,148.571429 C137.107675,148.571429 140.478189,148.571429 141.320817,149.64977 C142.404197,151.087558 146.015461,154.921659 150.950856,156.479263 C147.09884,158.036866 137.228051,151.207373 135.90392,148.571429 Z M142.524572,145.815668 C144.089453,145.695853 145.413584,145.21659 146.978465,146.175115 C148.302595,147.013825 147.09884,148.691244 155.163998,153.603687 C152.034235,154.082949 143.246825,149.050691 142.524572,145.815668 Z M138.792932,118.018433 C139.876311,118.018433 148.663722,125.087558 157.812258,125.447005 C165.034787,125.806452 173.701822,124.129032 176.831585,119.815668 L177.072336,119.815668 C174.785202,125.087558 164.312535,128.202765 157.330756,127.963134 C153.839867,127.723502 142.404197,123.64977 138.792932,118.018433 Z M158.534511,122.211982 C151.311982,121.612903 142.283821,117.658986 137.589177,110.709677 L137.709553,110.709677 C145.172833,116.700461 152.515737,119.695853 159.37714,119.695853 C167.923799,119.695853 172.136941,117.179724 181.285478,111.907834 C177.192711,117.778802 166.960795,121.612903 158.534511,122.211982 Z M159.979017,165.9447 C162.747653,163.548387 163.951408,163.428571 166.84042,163.548387 C169.007178,170.497696 166.599669,178.40553 162.627278,179.723502 C164.43291,170.857143 160.70127,170.018433 159.979017,165.9447 Z M153.839867,177.806452 C151.91386,175.050691 151.432358,173.612903 148.904473,170.976959 C151.071231,170.617512 152.997239,169.778802 155.043622,169.419355 C155.765875,171.096774 156.006626,174.571429 153.839867,177.806452 Z M123.866372,167.981567 C122.542242,176.368664 119.171728,168.221198 119.65323,165.705069 C120.977361,166.663594 122.421866,167.142857 123.866372,167.981567 Z M95.3373827,175.290323 C97.1430149,170.617512 102.559912,169.778802 117.245721,173.97235 C123.264495,174.331797 133.857537,171.456221 138.913308,176.129032 C140.71894,177.806452 139.154059,181.041475 137.107675,185.714286 L107.736057,185.714286 C99.911651,185.59447 91.8464936,182.479263 95.3373827,175.290323 Z M141.681944,198.175115 C142.885699,202.368664 142.765323,204.165899 142.404197,206.442396 C135.90392,208 129.644395,209.078341 122.782993,209.437788 C134.098288,207.281106 138.792932,205.843318 141.681944,198.175115 Z M145.77471,181.880184 L152.034235,182.83871 C155.043622,186.313364 156.728879,189.548387 158.29376,200.451613 C156.728879,201.410138 155.163998,201.889401 153.478741,202.488479 C153.358366,195.658986 150.589729,187.990783 145.77471,181.880184 Z M156.488128,183.198157 C156.247377,182.599078 159.738266,182.83871 162.145776,182.239631 C164.312535,186.792627 165.997791,189.788018 165.877416,195.898618 C164.312535,196.976959 162.988404,197.935484 161.062396,198.774194 C160.942021,189.788018 159.016013,188.470046 156.488128,183.198157 Z M164.673661,181.281106 C166.358918,180.921659 167.201546,180.562212 168.525676,179.483871 C170.210933,182.359447 172.136941,188.230415 172.016565,192.423963 C170.812811,192.78341 169.48868,194.460829 168.284925,195.059908 C168.284925,191.225806 167.201546,186.073733 164.673661,181.281106 Z M170.812811,178.046083 C171.414688,177.686636 173.942573,175.290323 174.062949,175.290323 C177.192711,179.004608 177.553838,182.119816 178.396466,186.912442 C178.155715,187.870968 175.507454,189.428571 174.785202,189.788018 C174.664826,185.354839 174.062949,182.599078 170.812811,178.046083 Z M176.350083,172.414747 C177.192711,171.456221 178.155715,170.976959 178.998343,169.179724 C182.368857,173.253456 183.692987,176.368664 184.655991,181.281106 C183.452236,182.718894 182.368857,183.797235 181.044727,184.875576 C180.322474,178.764977 179.600221,176.608295 176.350083,172.414747 Z M181.044727,167.262673 C182.248482,166.064516 182.609608,165.585253 183.211485,164.02765 C186.581999,166.903226 188.869133,170.018433 190.313639,173.97235 L187.183876,177.447005 C186.943125,177.56682 184.294865,170.37788 181.044727,167.262673 Z M184.776367,161.631336 C185.618995,159.953917 185.618995,159.115207 185.980121,156.83871 C191.156267,160.073733 194.28603,165.585253 195.489785,167.861751 C194.887907,168.940092 193.924903,170.018433 192.480398,171.695853 C189.832137,166.543779 188.628382,165.225806 184.776367,161.631336 Z M186.581999,152.884793 L186.581999,148.81106 C190.193263,149.64977 196.93429,156.119816 199.702927,160.43318 C198.739923,162.35023 198.01767,163.788018 197.054666,165.345622 L196.813915,165.225806 C194.887907,161.152074 190.795141,155.640553 186.581999,152.884793 Z M185.378244,144.138249 C185.378244,142.221198 184.41524,139.585253 183.813363,137.907834 C188.508007,138.866359 193.924903,144.258065 198.138045,147.97235 C198.499172,148.331797 198.860298,148.571429 199.221425,148.930876 L199.221425,149.290323 C204.277195,153.843318 202.953065,154.562212 201.147432,157.677419 C201.027057,157.797235 200.906681,158.036866 200.906681,158.156682 C198.860298,153.603687 189.23026,146.414747 185.378244,144.138249 Z M188.026505,81.7142857 C185.257869,81.4746544 183.452236,80.6359447 181.526229,79.078341 C181.526229,78.718894 181.526229,78.4792627 181.646604,78.2396313 C187.545003,78.359447 195.249034,74.764977 196.93429,68.7741935 C197.897294,69.7327189 198.860298,71.7695853 199.823302,73.6866359 C197.656543,78.9585253 194.045279,81.7142857 188.026505,81.7142857 Z M180.803976,75.7235023 C178.637217,75.483871 172.136941,74.2857143 171.775814,71.5299539 C175.507454,66.7373272 186.82275,71.4101382 189.47101,57.8709677 C191.276643,60.3870968 194.28603,64.5806452 195.489785,66.1382488 C192.239647,73.5668203 184.535616,75.7235023 180.803976,75.7235023 Z M168.525676,69.4930876 C156.127002,70.3317972 153.839867,79.1981567 142.404197,85.6682028 C132.653782,89.2626728 119.051353,85.6682028 117.727223,74.5253456 C115.319713,54.516129 135.783545,49.0046083 151.071231,53.6774194 C164.673661,58.3502304 172.377692,60.2672811 186.100497,57.0322581 C181.76698,69.3732719 172.136941,68.0552995 168.525676,69.4930876 Z M178.155715,54.7557604 C176.831585,53.1981567 180.803976,50.562212 181.76698,49.9631336 L185.618995,53.437788 C185.137493,55.1152074 179.600221,54.7557604 178.155715,54.7557604 Z M174.785202,54.2764977 L173.701822,54.6359447 C171.294313,53.5576037 174.424075,46.2488479 175.748205,44.6912442 L179.118719,47.3271889 C180.803976,48.6451613 176.95196,51.281106 174.785202,54.2764977 Z M171.414688,50.4423963 C171.414688,51.1612903 170.331309,50.921659 169.007178,49.7235023 C167.321922,45.8894009 168.646052,43.4930876 170.933186,41.3364055 L173.822198,43.2534562 C171.655439,45.8894009 171.053562,47.3271889 171.414688,50.4423963 Z M167.321922,43.1336406 C167.321922,46.2488479 165.997791,44.5714286 165.395914,44.3317972 C164.312535,42.8940092 163.590282,40.2580645 165.877416,37.7419355 C167.321922,38.5806452 168.044174,39.0599078 169.127554,40.1382488 C167.803424,40.7373272 167.081171,41.8156682 167.321922,43.1336406 Z M166.238542,52.5990783 C142.404197,45.4101382 137.107675,46.2488479 121.338487,55.59447 C125.070127,50.921659 135.90392,45.5299539 139.63556,44.6912442 C149.145224,42.2949309 154.802871,42.2949309 163.590282,48.1658986 C165.636665,50.202765 166.238542,51.640553 166.238542,52.5990783 Z M158.654887,40.1382488 C147.700718,39.6589862 143.728327,39.8986175 138.431806,41.5760369 C133.737162,43.0138249 126.996135,44.4516129 119.893981,53.797235 L119.65323,53.797235 C117.366096,56.0737327 117.245721,53.6774194 118.3291,51.5207373 C123.023744,36.6635945 139.755936,25.640553 155.404749,32.2304147 C158.654887,34.0276498 163.229155,37.7419355 158.654887,40.1382488 Z M65.6046383,105.437788 C72.7067918,108.912442 76.7995583,107.235023 81.7349531,105.557604 C83.0590834,104.479263 84.7443401,104.239631 85.5869685,104.239631 C87.6333517,106.516129 76.5588073,110.589862 72.3456654,109.751152 C61.5118719,108.912442 52.2429597,99.9262673 54.6504694,90.5806452 C56.4561016,88.1843318 60.0673661,98.7281106 65.9657648,100.165899 C75.9569299,104.479263 85.948095,95.7327189 87.8741027,92.1382488 C89.198233,89.6221198 91.9668691,89.1428571 93.2909994,90.4608295 C92.0872446,97.1705069 85.3462176,100.884793 82.3368305,102.801843 C76.3180563,106.276498 69.5770293,105.917051 66.0861403,103.880184 C64.7620099,103.640553 64.1601325,104.599078 65.6046383,105.437788 Z M73.1882938,77.1612903 C88.7167311,77.5207373 91.7261182,96.6912442 72.3456654,97.4101382 C66.0861403,96.5714286 64.039757,93.2165899 63.5582551,89.7419355 C64.1601325,86.1474654 65.6046383,85.9078341 68.1325235,85.6682028 C63.0767532,95.0138249 83.2998343,97.4101382 81.6145776,85.5483871 C82.216455,85.3087558 82.0960795,84.9493088 82.216455,84.4700461 C82.216455,84.4700461 81.6145776,84.1105991 81.2534511,83.8709677 C75.9569299,80.0368664 72.4660409,80.9953917 65.3638874,82.6728111 C65.0027609,83.2718894 59.4654887,84.7096774 58.2617338,84.9493088 L58.2617338,84.8294931 C53.4467145,84.1105991 51.7614578,81.3548387 50.5577029,77.4009217 C60.3081171,82.0737327 64.521259,70.2119816 72.9475428,68.7741935 C83.9017118,66.7373272 88.7167311,75.9631336 91.6057427,83.9907834 C91.9668691,87.7050691 89.5593595,87.1059908 88.5963556,84.3502304 C86.5499724,76.0829493 82.0960795,73.2073733 73.1882938,74.0460829 L73.1882938,77.1612903 Z M115.078962,208.479263 C103.643291,208.718894 91.9668691,205.004608 91.7261182,197.576037 C92.4483711,189.548387 101.717283,187.152074 115.078962,187.391705 L115.078962,189.548387 C107.254555,189.548387 96.5411375,189.788018 96.3003865,197.21659 C96.0596356,205.603687 108.819437,206.082949 115.078962,206.082949 L115.078962,208.479263 Z M218,163.428571 C216.796245,165.9447 215.59249,168.460829 214.147985,170.857143 C212.823854,173.133641 211.499724,175.290323 210.055218,177.447005 C190.193263,207.400922 156.127002,227.170507 117.486472,227.170507 L117.486472,222.497696 L117.486472,222.497696 L117.486472,219.023041 C154.923247,219.023041 187.785754,198.894009 205.721701,168.940092 C207.166207,166.543779 208.490337,164.02765 209.814467,161.511521 C211.258973,158.635945 212.462728,155.640553 213.666483,152.645161 C217.879625,141.502304 220.166759,129.400922 220.166759,116.820276 C220.166759,104.239631 217.879625,92.1382488 213.666483,80.9953917 C212.462728,78 211.258973,75.0046083 209.814467,72.1290323 C208.610712,69.6129032 207.166207,67.0967742 205.721701,64.7004608 C187.785754,34.7465438 154.923247,14.6175115 117.486472,14.6175115 L117.486472,11.3824885 L117.486472,11.3824885 L117.486472,6.58986175 C156.127002,6.58986175 190.193263,26.4792627 210.055218,56.3133641 C211.499724,58.4700461 212.823854,60.6267281 214.147985,62.9032258 C215.472115,65.2995392 216.796245,67.8156682 218,70.3317972 C224.620652,84.4700461 228.352292,100.285714 228.352292,116.820276 C228.352292,133.59447 224.620652,149.290323 218,163.428571 Z M318.513528,0.119815668 C279.150745,0.119815668 244.362231,19.5299539 223.05577,49.124424 C235.815572,68.6543779 243.278851,92.0184332 243.278851,117.059908 C243.278851,142.101382 235.815572,165.465438 223.05577,184.995392 C244.362231,214.589862 279.271121,234 318.513528,234 C383.275538,234 436,181.520737 436,117.059908 C436,52.5990783 383.275538,0.119815668 318.513528,0.119815668 Z M68.8547764,44.6912442 C80.8923247,41.8156682 85.3462176,37.3824885 102.921038,44.8110599 C104.004417,45.4101382 105.328548,46.3686636 105.087797,44.0921659 C102.680287,37.1428571 100.152402,36.3041475 100.152402,36.1843318 C87.9944782,34.1474654 79.2070679,37.5023041 68.9751518,43.1336406 C68.252899,43.2534562 67.2898951,44.4516129 68.8547764,44.6912442 Z M106.050801,197.576037 C106.171176,202.009217 110.143567,202.967742 117.606847,203.327189 L117.606847,201.410138 C121.940364,201.529954 125.431253,200.571429 125.431253,197.695853 C125.431253,195.299539 122.301491,193.861751 117.606847,194.101382 L117.606847,192.543779 C109.902816,192.543779 105.930425,194.580645 106.050801,197.576037 Z M115.078962,199.97235 C112.430701,200.211982 109.421314,199.852535 109.421314,197.576037 C109.421314,195.179724 112.791828,194.940092 115.078962,195.179724 L115.078962,199.97235 Z" id="Shape" fill="#FFFFFF"></path>
                <polygon id="Path" fill="#0061ED" points="291.36296 77.8005115 320.352683 151.596832 349.342406 77.8005115 364.431319 77.8005115 364.431319 168.346655 352.787905 168.346655 352.787905 133.147752 353.857198 95.157212 324.748665 168.468031 315.83789 168.468031 286.848167 95.399963 288.03627 133.269128 288.03627 168.468031 276.392857 168.468031 276.392857 77.8005115"></polygon>
            </g>
            <path d="M60.3725921,145.172368 L21.3870518,145.172368 L12.5878077,169 L0,169 L35.4414002,78 L46.196032,78 L81.7596439,169 L69.1718363,169 L60.3725921,145.172368 Z M23.5578635,135.909091 L54.0445104,135.909091 L38.7423324,93.1666667 L23.5578635,135.909091 Z M145.504451,87.8184211 L116.752357,87.8184211 L116.752357,169 L104.968712,169 L104.968712,87.8184211 L76.2166172,87.8184211 L76.2166172,78 L145.504451,78 C145.504451,78 145.504451,87.8184211 145.504451,87.8184211 Z M172.891933,159.181579 L216.178042,159.181579 L216.178042,169 L160.747774,169 L160.747774,78 L172.891933,78 L172.891933,159.181579 L172.891933,159.181579 Z M282.09366,145.172368 L243.10812,145.172368 L234.308876,169 L221.721068,169 L257.162468,78 L267.9171,78 L303.480712,169 L290.892905,169 L282.09366,145.172368 Z M246.664688,135.909091 L277.151335,135.909091 L261.849157,93.1666667 L246.664688,135.909091 Z M383.854599,169 L371.892085,169 L326.52928,98.8342105 L326.52928,169 L314.566766,169 L314.566766,78 L326.52928,78 L372.010525,148.525 L372.010525,78 L383.854599,78 L383.854599,169 L383.854599,169 Z M467,87.8184211 L438.247906,87.8184211 L438.247906,169 L426.46426,169 L426.46426,87.8184211 L397.712166,87.8184211 L397.712166,78 L467,78 L467,87.8184211 Z" id="Shape" fill="#FFFFFF"></path>
        </g>
    </g>
</svg>