<?xml version="1.0" encoding="utf-8"?>
<!-- Generator: Adobe Illustrator 21.1.0, SVG Export Plug-In . SVG Version: 6.00 Build 0)  -->
<svg version="1.1" id="Layer_1" xmlns="http://www.w3.org/2000/svg" xmlns:xlink="http://www.w3.org/1999/xlink" x="0px" y="0px"
	 viewBox="0 0 228.9 56.2" style="enable-background:new 0 0 228.9 56.2;" xml:space="preserve">
<style type="text/css">
	.st0{fill:#0061ED;}
	.st1{fill:#FFFFFF;}
</style>
<g id="Logo-_x2F_-blue-_x2F_-horizontal">
	<g id="logo-atlant" transform="translate(23.000000, 50.000000)">
		<g id="Logo" transform="translate(517.000000, 0.000000)">
			<path id="Shape" class="st0" d="M-383.6-36.8c-0.7,0.1-2.5,0.9-2.9,3.1c1.4-1.9,1.7-2,2.4-2.3c2.2-1.1,6,1,7.8,1
				c0-0.1,0.1-0.1,0.1-0.2C-378.8-35.8-380.6-37.2-383.6-36.8z M-383.6-35.5c-1.4,0.5-2.8,2-2,3.4c0.9,1.5,3,0.6,3.8-0.2
				c0.8-0.8,1.2-2.6,3.6-2.1c0.2-0.1,0.4,0.2,0.5-0.1C-379-35.5-381.6-35.8-383.6-35.5z M-362.5-34.8c-0.3-0.5-0.6-1.1-0.9-1.6
				c-0.3-0.5-0.6-1-1-1.5C-369.5-45.2-378-50-387.6-50c-15.6,0-28.2,12.6-28.2,28.1s12.7,28.1,28.2,28.1c9.6,0,18-4.8,23.2-12.1
				c0.3-0.5,0.7-1,1-1.5c0.3-0.5,0.6-1.1,0.9-1.6c2-3.9,3.2-8.3,3.2-12.9S-360.5-30.9-362.5-34.8z M-387.6-22.1L-387.6-22.1v-5
				c0.1-0.1,0.8,1.4,0.8,1.6c0.8,4,0.2,5-0.8,5V-22.1L-387.6-22.1z M-388.2,2.6c-13.3-0.3-23.9-11.2-23.9-24.5
				c0-13.5,10.6-23.9,24-24.5v1.6c0,0-7.7,0.1-13.6,5.1c-0.2,0.3,0,0.4,0.4,0.2c0.4-0.2,5.6-3.7,10.8-2.6c1.4,0.8,2.5,3,2.5,4.2v2.3
				c-1.8-2.2-6.1-3.8-8.8-3.2c-0.8,0.2-0.4,0.5-0.3,0.5c2.3,0,8.6,2.3,9.1,5.6v14.7c1.8,0.1,2.5-0.4,2.9-0.8c0.6-0.6,1.2-2,1-3.4
				l-0.7,0.2h0c-0.3,2.1-0.9,2.8-2.6,3.3v-0.9c1.2-0.1,1.8-1.2,1.6-3.5c-0.1-2.2-0.8-4-1.7-5.8v-1.7c0.9,1.8,1.7,5.2,2.3,5.7
				c0.5-0.2-0.7-3.2-1.1-4.3c0.4-0.5,1.2,1.2,1.7,2.1c0.8,2.1,2.9,9-0.4,10.1c-3,0.8-5.3,0.4-6.2-0.9c-1.4-2.3,1.5-5.2,0.6-6.3
				l-0.8-7.2c-0.6-5-7.6-6.8-10.4-3.5c-0.5,0.7,0.2,0.5,0.5,0.2c2.2-1.4,7.1-1.7,8.5,2.5c0.3,0.8,0.3,2.6-0.7,0.3
				c-1.7-2.6-4.2-3.9-7.1-1.8c-0.5,0.3-2.3,1.9-2.9,1c-1.1-1.4,1.4-3.4,1.3-4.3l-0.4,0.2c-1.8,1.5-2.9,5-1.8,7.8
				c0.2,0.7,1,1.4-0.6,1.7c-3.3,1.2-3.8,4.5-3.8,5.9c0,5.4,4.6,11.5,10.4,8.6c1.2-0.7,1.9-1.6,2.3-2.2l-0.3-0.3
				c-9.1,9.4-14.7-9-7.2-10.1c0.9,1,2.1,2.2,3.5,2.5c2.6,0.6,5.1-0.5,7.9-4.4c0.4-0.4,0.5,0,0.5,0.2c-0.3,1.5-1.9,3.6-2.2,4.2
				c-0.2,0.3,0,0.8,0.5,0.4c0.6-0.9,0.8-1.4,1.4-1.6l-1.2,2.6c-0.5,0.7-0.8,1.1,0.4,1c1.2,0,0.6,0.6,0.8,1.4
				c1.1,1.6-1.5,2.7-1.7,0.5c0-0.8,0.7-1.3,0.2-1.5c-0.5,0.1-1.1,1.3-1.1,2.5l-1.2,1.7l0.3,0.3l1.3-1.8c0.6,1.3,2.7,0.6,2.8,0.5
				c0.5,0,0.7,0.1,1,0.5c0,0.5,0.3,0.6,0.4,1.3c0.7,0.7-0.3,1-0.9,1.2c-2.4,0.9-2.5,2.3-3.5,3.5c-0.6,0.8-0.9,0.5-1.5,1.1
				c-0.4,0.7,0.6,1.1,0.8,1.4c0.3,0.6,0.9,1.4,1.7,1.7c0.5,0.2,0.9,0.3,0,0.8c-0.6,0.4-0.9,1.4-0.9,1.8c0,0.9,0.2,2,1.4,2.8
				c-0.7-0.2-1.1-0.3-1.8-0.6c0.6-0.7,0.1-1-0.1-1.2c-0.3,0.1-0.3,1-1.5,0.6c0.4-0.7,2.9-3.6,1.7-4.1c-1,1.7-1.4,3.6-3.6,3.2
				c1-0.7,2.4-1.5,3.1-3.7l-0.3-0.1c-0.8,1.7-2.5,3.7-4.5,2.8c0.9-0.4,1.4-0.8,1.9-1.2c0.4-0.3,2.3-2,1.6-2.3
				c-1.1,1.1-3.6,3.7-5.1,2.2c0.9-0.2,1.8-0.6,2.5-1.1c0.7-0.5,1.7-1.4,2.2-1.7l-0.2-0.5c-0.5,0.1-3.1,2.2-3.6,2.3
				c-0.8,0.2-1.4,0.7-2.5-0.5c1.4-0.1,2.7-0.5,3.4-0.9c0.5-0.3,2.4-1.2,2.6-1.2l-0.3-0.5c-1.3,0.4-2.3,2-5.2,2
				c-0.2,0-1.3-0.1-2.2-1.2l0-0.1c1.7,0.3,3.2,0.2,4.8-0.3c0.8-0.3,1.6-0.8,2.4-1l-0.3-0.6c-1.5,0.7-2.7,1.4-4.5,1.4
				c-2.1,0-2.5,0.3-3.7-1.4c0.2-0.3,1.8,0.5,2.8,0.5c2.3,0,3.4-0.1,5.3-0.9l-0.2-0.5c-0.7,0.3-2.2,0.7-3.6,0.8
				c-3.2,0-5.6-1.4-5.8-2.7c0.9,0.7,2.3,1.7,3.8,1.8c1.2,0.1,4.4,0,5.5-0.4l-0.2-0.4c-0.6,0.2-3.2,0.5-3.9,0.5
				c-1.6,0-3.4-1.2-3.9-1.5c-3.2-2.6-4.1-10.3-2.3-12.8c0.4-1.2,2.7-3.1,2.6-3.5c-0.4-3.7-0.6-5,2.2-8.8c-2.4,1.5-4.2,4.7-3.1,7.8
				c0.5,1.4-1.6,2.6-2.2,3.6c-2.7,4.5-1.5,9.2,0.4,13.7C-402.1,1.5-388.2,1-388.2,1L-388.2,2.6z M-387.6-42.2v-0.7
				c0.8,0.1,1.5,0.3,2.2,0.5c0.9-0.9-1.9-0.9-2.2-1.2v-0.5c1.9-0.1,3.9,0.2,5.8,0.7l-0.1,0.2c-1.6,0.1-3,1.2-4.3,2.5
				c-0.1,0.1-0.3,0.5-0.7,0.5c-0.4,0-0.6-0.2-0.8-0.5v-0.9c0.4,0,1.3,0.5,1.4-0.1C-386.8-42.1-387.1-42-387.6-42.2z M-367.6-29.9
				c0.2,0.1,0.8,0.3,1.1,0.5c0.1,0.1,0.1,0.1,0.1,0.1l0.2,0.6c-0.1-0.1-0.3-0.1-0.4-0.2c-0.3-0.2-0.6-0.3-0.8,0.1
				c0.3,0.1,0.5,0.2,0.7,0.3c0.4,0.2,0.6,0.5,0.8,0.6c0,0.2,0.2,0.4,0.2,0.7c-0.4,0-0.8-0.4-1.2-0.5c-0.1,0-0.3,0-0.4,0v0l0,0.2
				c0.1,0,0.2,0.1,0.3,0.1c0.5,0.3,1.1,0.7,1.4,1.2c0.1,0.2,0.2,0.3,0.1,0.5c-0.1,0-0.1,0-0.2,0c-0.5-0.1-1-0.7-1.4-0.5
				c0,0.3,0.1,0.4,0.2,0.5c0.3,0.4,0.8,0.5,1.1,0.7c0.3,0.2,0.6,0.4,0.5,1.2c-0.3-0.1-0.4-0.1-0.6-0.2c-0.3-0.1-0.5-0.2-1.1-0.5
				c-0.5,0.3,0.3,0.8,0.7,0.9c0.1,0,0.2,0.1,0.3,0.1c0.3,0.2,0.7,0.5,0.7,0.7l0,0.8c-0.2-0.1-0.5-0.2-0.8-0.4
				c-0.5-0.2-0.9-0.4-1.4-0.1c0,0.6,0.8,0.6,1.4,0.9c0.4,0.2,0.8,0.6,0.7,1.6c-0.2,0-0.4,0-0.6-0.1c-0.4-0.2-0.8-0.6-1.2-0.6
				l-0.1,0.5c0.5,0.3,0.9,0.7,1.4,1.1c0.1,0.1,0.3,0.2,0.4,0.2l-0.1,0.8c0,0-0.1,0-0.1,0c-0.5-0.2-1.2-0.9-1.5-0.9
				c-0.1,0.1-0.1,0.2-0.2,0.3c-0.1,0.1-0.1,0.3,0.1,0.4c0,0,0,0,0,0c0,0,1,0.8,1.6,1.1c-0.2,1.4-0.8,1.1-1.3,0.7
				c-0.5-0.4-1-0.8-1-0.1c0.3,0.3,0.8,0.6,1.2,1c0.2,0.2,0.4,0.3,0.5,0.6c-0.1,0.3-0.1,0.4-0.2,0.6c0,0.1-0.1,0.2-0.1,0.3
				c-0.6-0.5-1.2-1-1.9-1.5c-1.9-1.4-3.8-2.6-6.1-3.6c0.4-1.3,4.6,1.1,4.6,1.4c0.1-0.3,0.3-0.3,0.3-0.5c-0.4-0.3-2.8-1.9-3.5-2
				c0-0.1,0.5-0.6,0.5-0.7c0.2,0,1.5,0.5,1.6,0.5c0.5-0.7-0.8-0.7-1.2-1.2c0.2-0.2,0.3-0.4,0.4-0.7c0.3,0.1,0.7,0.6,1,0.4
				c0.1-0.2,0.1-0.3,0.1-0.5c-1.1-0.7-0.9-0.2-0.6-1.5c1.4,0.1,0.9-0.3,0.2-0.7l0.1-0.9c0.3,0.1,0.9,0.2,0.8-0.3
				c-0.2-0.1-0.3-0.1-0.6-0.3c0.1-0.3,0.1-0.5,0.2-0.9c0.2-0.1,0.4,0,0.6-0.1c0.1-0.4-0.3-0.4-0.5-0.6c0.1-0.3,0-0.5,0-0.7l0.5,0.1
				c0.1,0,0.3-0.5,0.1-0.5c-0.3-0.1-1-0.4-1.2-0.8c2.1,0.3,2.3-0.7,3.4-1.3c0,0,0.1,0,0.2,0c0.2,0,0.5,0.1,0.6,0.2l0.3,0.6
				c-0.3,0.1-0.8-0.2-1-0.2C-367.8-30-367.6-30-367.6-29.9z M-382.2-5.2c0.2-0.3,0.4-0.5,0.5-0.9c1.5,1.4,1.9,3.5,1.9,5.1
				c-0.4,0.1-0.8,0.3-1.3,0.4C-380.6-2.4-381.2-3.8-382.2-5.2z M-387.6-4.7c2.6,0.1,4.3,0.6,4.3,2.1c0.1,1.6-1.9,2.2-4.3,2.3v-0.6
				c-2.8-0.1-4-0.5-4-1.8c0-1.4,1.6-1.6,4-1.5V-4.7z M-382.9-18.7c1.7-1.3,3.3,1.5,1.5,2.8c-1.7,1.5-3.6,1.5-5.7,1.5
				c-0.1,2.2,3.6,4.4,5.6,3.8c3.2-0.3,5.1-4.2,7.3-2.8c0.8,0.5,0.4,1.1,1,1.6c0.4,0,0.4-0.3,0.5-0.6c-1.4-0.9,0.8-2.6-2.3-2.9
				c-1.3-0.1-1.8-2.2-4.9-1.4c1.4-2,4.9-1.8,6.2-0.9c3.4,2.2,1.1,8.4,0.2,7.7c-0.1-4-7.5,1.1-8.7,0.7c-2.7-0.3-4.3-2.4-5.4-2.6h-0.6
				v1.4c-1.4-0.1-0.8-0.5-2.3-0.5c-1.6,0-1.5,0.6-3,1.2c1-2.2,1.3-2.7,2.7-2.9c0.5,0,3.1,0.8,3.2,0.1v-3.1c2.2,0.1,2.9-0.5,4-1.6
				c0.2,0.3,1.2,1,1.6,0.5C-382.2-17.3-383.6-16.9-382.9-18.7z M-373.6-30.4l1,0.2c0.3,1.3,0.6,4.1-2.5,5.5
				c-2.5,1.1-5.1-0.6-6.2-2.4l1-0.3c0.6,1.1,2.9,2.6,4.8,1.7C-373.4-26.6-373.5-28.5-373.6-30.4z M-375.9-30.1
				c0.4-0.3,0.7-0.3,1.2-0.3c0.9,2.6-0.2,3.7-1.1,4.1c-1.5,0.6-2.9-0.3-3.7-1.4c0.2-0.2,0.8-0.7,1-0.7c0.3,1.2,1.2,1.4,2.1,1.1
				C-375.3-27.6-374.8-29-375.9-30.1z M-380.1-28c-1.6,0.7-2.8,0.1-3.7-0.3c3.8-0.5,3.7-1.8,6.1-3.4c0.9-0.3,2.7,0,3.3,0.7
				C-378.8-30.6-377.5-29.2-380.1-28z M-377-23.7c3.2,0.1,4.7-1.5,5.6-4.4h0.1c-0.1,2.2-1.4,4.6-4.5,4.9c-5.2,0.5-8.8-5-8.8-5
				l0.1-0.2C-381.6-25.8-380-23.8-377-23.7z M-379.1-22.7c2.4,0.9,6-0.7,7.5-2.4c-0.9,1.7-3.2,3.3-6.2,3.2c-1.1,0-4-1-5.9-3.5
				C-383.6-25.5-380.1-22.7-379.1-22.7z M-377.5-14c-0.8,0.2-2.3-0.8-2.5-1.5c0.3-0.1,0.5-0.1,0.9,0.1
				C-378.4-15.1-379-14.8-377.5-14z M-378.7-16.3c1.4,0.1,0.9,0.6,2.3,1.3C-377.1-15-378.6-15.5-378.7-16.3z M-384.5-13.9
				c0.4,0,1,0.1,1.2,0.3c0.4,0.5,0.8,1.2,2.5,1.9C-382.4-11.5-384.8-13.3-384.5-13.9z M-382.9-11.4c0.1,0.1-2.4-0.6-3.4-2.3
				c0.3,0,0.8,0,1.2,0.3C-384.8-13.1-384.7-12.6-382.9-11.4z M-383.1-14.3c0.3,0,1.1,0,1.3,0.3c0.3,0.3,1.1,1.3,2.3,1.6
				C-380.5-12-382.8-13.7-383.1-14.3z M-381.6-15c0.4,0,0.7-0.1,1.1,0.1c0.3,0.2,0,0.6,2,1.8C-379.3-13-381.4-14.2-381.6-15z
				 M-382.5-21.6c0.3,0,2.4,1.7,4.6,1.8c1.7,0.1,3.8-0.3,4.6-1.4h0.1c-0.5,1.3-3.1,2-4.7,2C-378.8-19.3-381.6-20.3-382.5-21.6z
				 M-377.7-20.6c-1.7-0.1-3.9-1.1-5-2.8h0c1.8,1.4,3.6,2.2,5.2,2.2c2.1,0,3.1-0.6,5.3-1.9C-373.2-21.7-375.7-20.8-377.7-20.6z
				 M-377.4-10.1c0.7-0.6,1-0.6,1.6-0.6c0.5,1.7-0.1,3.6-1,3.9C-376.3-9-377.2-9.2-377.4-10.1z M-378.8-7.3c-0.5-0.7-0.6-1-1.2-1.6
				c0.5-0.1,1-0.3,1.5-0.4C-378.4-8.9-378.3-8.1-378.8-7.3z M-386-9.6c-0.3,2-1.1,0.1-1-0.5C-386.7-10-386.4-9.8-386-9.6z
				 M-392.9-7.9c0.4-1.1,1.7-1.3,5.3-0.3c1.4,0.1,4-0.6,5.2,0.5c0.4,0.4,0.1,1.2-0.4,2.3h-7.1C-391.8-5.4-393.7-6.2-392.9-7.9z
				 M-381.8-2.4c0.3,1,0.3,1.4,0.2,2c-1.6,0.4-3.1,0.6-4.7,0.7C-383.6-0.2-382.5-0.5-381.8-2.4z M-380.8-6.3l1.5,0.2
				c0.7,0.8,1.1,1.6,1.5,4.2c-0.4,0.2-0.8,0.3-1.2,0.5C-379-3-379.6-4.8-380.8-6.3z M-378.2-6c-0.1-0.1,0.8-0.1,1.4-0.2
				c0.5,1.1,0.9,1.8,0.9,3.3c-0.4,0.3-0.7,0.5-1.2,0.7C-377.1-4.4-377.6-4.7-378.2-6z M-376.2-6.4c0.4-0.1,0.6-0.2,0.9-0.4
				c0.4,0.7,0.9,2.1,0.8,3.1c-0.3,0.1-0.6,0.5-0.9,0.6C-375.4-4.1-375.6-5.3-376.2-6.4z M-374.8-7.2c0.1-0.1,0.8-0.7,0.8-0.7
				c0.8,0.9,0.8,1.6,1,2.8c-0.1,0.2-0.7,0.6-0.9,0.7C-373.8-5.5-374-6.1-374.8-7.2z M-373.4-8.6c0.2-0.2,0.4-0.3,0.6-0.8
				c0.8,1,1.1,1.7,1.4,2.9c-0.3,0.3-0.5,0.6-0.9,0.9C-372.5-7.1-372.6-7.6-373.4-8.6z M-372.3-9.8c0.3-0.3,0.4-0.4,0.5-0.8
				c0.8,0.7,1.4,1.4,1.7,2.4l-0.8,0.8C-370.9-7.3-371.5-9.1-372.3-9.8z M-371.4-11.2c0.2-0.4,0.2-0.6,0.3-1.2c1.2,0.8,2,2.1,2.3,2.6
				c-0.1,0.3-0.4,0.5-0.7,0.9C-370.2-10-370.5-10.3-371.4-11.2z M-371-13.3v-1c0.9,0.2,2.5,1.8,3.2,2.8c-0.2,0.5-0.4,0.8-0.6,1.2
				l-0.1,0C-369-11.3-370-12.6-371-13.3z M-371.3-15.4c0-0.5-0.2-1.1-0.4-1.5c1.1,0.2,2.4,1.5,3.4,2.4c0.1,0.1,0.2,0.1,0.3,0.2v0.1
				c1.2,1.1,0.9,1.3,0.5,2c0,0-0.1,0.1-0.1,0.1C-368-13.1-370.3-14.8-371.3-15.4z M-370.6-30.4c-0.7-0.1-1.1-0.3-1.6-0.6
				c0-0.1,0-0.1,0-0.2c1.4,0,3.3-0.8,3.7-2.3c0.2,0.2,0.5,0.7,0.7,1.2C-368.3-31-369.2-30.4-370.6-30.4z M-372.4-31.8
				c-0.5-0.1-2.1-0.3-2.2-1c0.9-1.2,3.6,0,4.3-3.3c0.4,0.6,1.2,1.6,1.4,2C-369.6-32.3-371.5-31.8-372.4-31.8z M-375.3-33.3
				c-3,0.2-3.5,2.3-6.3,3.9c-2.3,0.9-5.6,0-5.9-2.7c-0.6-4.8,4.3-6.1,8-5c3.3,1.1,5.1,1.6,8.4,0.8
				C-372.1-33.3-374.4-33.7-375.3-33.3z M-373-36.8c-0.3-0.4,0.6-1,0.9-1.2l0.9,0.8C-371.3-36.8-372.6-36.8-373-36.8z M-373.8-37
				l-0.3,0.1c-0.6-0.3,0.2-2,0.5-2.4l0.8,0.6C-372.4-38.3-373.3-37.7-373.8-37z M-374.6-37.9c0,0.2-0.3,0.1-0.6-0.2
				c-0.4-0.9-0.1-1.5,0.5-2l0.7,0.5C-374.6-39-374.7-38.6-374.6-37.9z M-375.6-39.6c0,0.7-0.3,0.3-0.5,0.3c-0.3-0.3-0.4-1,0.1-1.6
				c0.3,0.2,0.5,0.3,0.8,0.6C-375.5-40.2-375.7-40-375.6-39.6z M-375.9-37.4c-5.7-1.7-7-1.5-10.8,0.7c0.9-1.1,3.5-2.4,4.4-2.6
				c2.3-0.6,3.6-0.6,5.8,0.8C-376-37.9-375.9-37.6-375.9-37.4z M-377.7-40.4c-2.6-0.1-3.6-0.1-4.9,0.3c-1.1,0.3-2.7,0.7-4.5,2.9
				h-0.1c-0.5,0.5-0.6,0-0.3-0.5c1.1-3.6,5.1-6.2,8.9-4.6C-377.7-41.8-376.6-40.9-377.7-40.4z M-400-24.7c1.7,0.8,2.7,0.4,3.9,0
				c0.3-0.3,0.7-0.3,0.9-0.3c0.5,0.5-2.2,1.5-3.2,1.3c-2.6-0.2-4.8-2.4-4.3-4.6c0.4-0.6,1.3,2,2.7,2.3c2.4,1,4.8-1.1,5.3-1.9
				c0.3-0.6,1-0.7,1.3-0.4c-0.3,1.6-1.9,2.5-2.6,3c-1.4,0.8-3.1,0.7-3.9,0.3C-400.2-25.1-400.4-24.9-400-24.7z M-398.2-31.5
				c3.7,0.1,4.5,4.7-0.2,4.9c-1.5-0.2-2-1-2.1-1.8c0.1-0.9,0.5-0.9,1.1-1c-1.2,2.2,3.6,2.8,3.2,0c0.1-0.1,0.1-0.1,0.1-0.3
				c0,0-0.1-0.1-0.2-0.1c-1.3-0.9-2.1-0.7-3.8-0.3c-0.1,0.1-1.4,0.5-1.7,0.5v0c-1.2-0.2-1.6-0.8-1.9-1.8c2.3,1.1,3.4-1.7,5.4-2.1
				c2.6-0.5,3.8,1.7,4.5,3.7c0.1,0.9-0.5,0.7-0.7,0.1c-0.5-2-1.6-2.7-3.7-2.5V-31.5z M-388.1,0.1c-2.7,0.1-5.6-0.8-5.6-2.6
				c0.2-1.9,2.4-2.5,5.6-2.4v0.5c-1.9,0-4.5,0.1-4.5,1.8c-0.1,2,3,2.1,4.5,2.1V0.1z M-363.4-10.7c-0.3,0.6-0.6,1.2-0.9,1.8
				c-0.3,0.5-0.6,1.1-1,1.6c-4.8,7.2-13,11.9-22.2,11.9V3.5l0,0V2.6c9,0,16.9-4.8,21.2-12c0.3-0.6,0.7-1.2,1-1.8
				c0.3-0.7,0.6-1.4,0.9-2.1c1-2.7,1.6-5.6,1.6-8.6s-0.5-5.9-1.6-8.6c-0.3-0.7-0.6-1.4-0.9-2.1c-0.3-0.6-0.6-1.2-1-1.8
				c-4.3-7.2-12.2-12-21.2-12v-0.8l0,0v-1.2c9.3,0,17.5,4.8,22.2,11.9c0.3,0.5,0.7,1,1,1.6c0.3,0.6,0.6,1.2,0.9,1.8
				c1.6,3.4,2.5,7.2,2.5,11.2C-360.9-17.9-361.8-14.1-363.4-10.7z M-339.3-50c-9.5,0-17.8,4.7-22.9,11.8c3.1,4.7,4.9,10.3,4.9,16.3
				s-1.8,11.6-4.9,16.3c5.1,7.1,13.5,11.8,22.9,11.8c15.6,0,28.2-12.6,28.2-28.1S-323.7-50-339.3-50z M-399.3-39.3
				c2.9-0.7,4-1.8,8.2,0c0.3,0.1,0.6,0.4,0.5-0.2c-0.6-1.7-1.2-1.9-1.2-1.9c-2.9-0.5-5,0.3-7.5,1.7
				C-399.4-39.6-399.6-39.3-399.3-39.3z M-390.3-2.5c0,1.1,1,1.3,2.8,1.4v-0.5c1,0,1.9-0.2,1.9-0.9c0-0.6-0.8-0.9-1.9-0.9v-0.4
				C-389.4-3.7-390.3-3.3-390.3-2.5z M-388.1-2c-0.6,0.1-1.4,0-1.4-0.6c0-0.6,0.8-0.6,1.4-0.6V-2z"/>
			<polygon id="Path" class="st1" points="-345.8,-31.3 -338.8,-13.6 -331.9,-31.3 -328.2,-31.3 -328.2,-9.6 -331,-9.6 -331,-18 
				-330.8,-27.1 -337.8,-9.5 -339.9,-9.5 -346.9,-27.1 -346.6,-18 -346.6,-9.5 -349.4,-9.5 -349.4,-31.3 			"/>
		</g>
		<path id="Shape_1_" class="st0" d="M-8.5-15.1h-9.4L-20-9.4h-3l8.5-21.9h2.6l8.5,21.9h-3L-8.5-15.1z M-17.3-17.3h7.3l-3.7-10.3
			L-17.3-17.3z M12-28.9H5v19.5H2.2v-19.5h-6.9v-2.4H12V-28.9z M18.5-11.8h10.4v2.4H15.6v-21.9h2.9V-11.8L18.5-11.8z M44.8-15.1
			h-9.4l-2.1,5.7h-3l8.5-21.9h2.6l8.5,21.9h-3L44.8-15.1z M36.3-17.3h7.3l-3.7-10.3L36.3-17.3z M69.2-9.4h-2.9L55.4-26.3v16.9h-2.9
			v-21.9h2.9l10.9,16.9v-16.9h2.8V-9.4L69.2-9.4z M89.2-28.9h-6.9v19.5h-2.8v-19.5h-6.9v-2.4h16.6V-28.9z"/>
	</g>
</g>
</svg>
