<?xml version="1.0" encoding="utf-8"?>
<!-- Generator: Adobe Illustrator 26.0.2, SVG Export Plug-In . SVG Version: 6.00 Build 0)  -->
<svg version="1.1" id="Layer_2" xmlns="http://www.w3.org/2000/svg" xmlns:xlink="http://www.w3.org/1999/xlink" x="0px" y="0px"
	 viewBox="0 0 228.9 56.2" style="enable-background:new 0 0 228.9 56.2;" xml:space="preserve">
<style type="text/css">
	.st0{fill-rule:evenodd;clip-rule:evenodd;fill:#002F62;}
	.st1{fill:#00B5F0;}
</style>
<g>
	<path class="st0" d="M101.9,19.2l-1.5-3.6c-0.1-0.3,0.1-0.6,0.4-0.6h21.7c0.4,0,0.6,0.3,0.4,0.6l-1.5,3.6c-0.1,0.3-0.5,0.6-0.9,0.6
		h-5.9h0l0,0c-0.3,0-0.6,0.2-0.6,0.6v0l0,0v14.2c0,0.3-0.3,0.6-0.6,0.6h-3.6c-0.3,0-0.6-0.3-0.6-0.6V20.3l0,0v0
		c0-0.3-0.2-0.6-0.6-0.6l0,0h0h-5.9C102.5,19.8,102.1,19.5,101.9,19.2L101.9,19.2z"/>
	<path class="st0" d="M80.7,35l-4.1,0c-0.3,0-0.5-0.3-0.3-0.6c3.3-6.4,6.5-12.5,9.8-18.9c0.2-0.3,0.5-0.4,0.7-0.4h2.8h2.8
		c0.3,0,0.6,0.1,0.7,0.4c3.3,6.4,6.5,12.5,9.8,18.9c0.2,0.3,0,0.6-0.3,0.6l-4.1,0c-0.3,0-0.7-0.2-0.9-0.5c-0.5-1-1-2-1.5-3l0,0l0,0
		l0,0c-0.2-0.4-0.6-0.6-1-0.6l0,0h-5.6h-5.6l0,0c-0.4,0-0.8,0.2-1,0.6l0,0l0,0l0,0c-0.5,1-1,2-1.5,3C81.5,34.8,81.1,35,80.7,35
		L80.7,35z M89.6,19.8c-0.2,0-0.4,0.1-0.5,0.3l0,0c-1.1,2-2.1,4.1-3.2,6.1l0,0c0,0,0,0.1,0,0.2c0,0.2,0.2,0.4,0.4,0.4l0,0h0h3.5h3.5
		h0l0,0c0.2,0,0.4-0.2,0.4-0.4c0-0.1,0-0.1,0-0.2l0,0c-1.1-2-2.1-4.1-3.2-6.1l0,0c-0.1-0.2-0.3-0.3-0.5-0.3H89.6L89.6,19.8z"/>
	<path class="st0" d="M153.6,35l-4.1,0c-0.3,0-0.5-0.3-0.3-0.6c3.3-6.4,6.5-12.5,9.8-18.9c0.2-0.3,0.5-0.4,0.7-0.4h2.8h2.8
		c0.3,0,0.6,0.1,0.7,0.4c3.3,6.4,6.5,12.5,9.8,18.9c0.2,0.3,0,0.6-0.3,0.6l-4.1,0c-0.3,0-0.7-0.2-0.9-0.5c-0.5-1-1-2-1.5-3l0,0l0,0
		l0,0c-0.2-0.4-0.6-0.6-1-0.6l0,0h-5.6H157l0,0c-0.4,0-0.8,0.2-1,0.6l0,0l0,0l0,0c-0.5,1-1,2-1.5,3C154.3,34.8,153.9,35,153.6,35
		L153.6,35z M162.4,19.8c-0.2,0-0.4,0.1-0.5,0.3l0,0c-1.1,2-2.1,4.1-3.2,6.1l0,0c0,0,0,0.1,0,0.2c0,0.2,0.2,0.4,0.4,0.4l0,0h0h3.5
		h3.5h0l0,0c0.2,0,0.4-0.2,0.4-0.4c0-0.1,0-0.1,0-0.2l0,0c-1.1-2-2.1-4.1-3.2-6.1l0,0c-0.1-0.2-0.3-0.3-0.5-0.3H162.4L162.4,19.8z"
		/>
	<path class="st0" d="M124.2,35l-4.1,0c-0.3,0-0.5-0.3-0.3-0.6c3.3-6.4,6.5-12.5,9.8-18.9c0.2-0.3,0.5-0.4,0.7-0.4h2.8h2.8
		c0.3,0,0.6,0.1,0.7,0.4c3.3,6.4,6.5,12.5,9.8,18.9c0.2,0.3,0,0.6-0.3,0.6l-4.1,0c-0.3,0-0.7-0.2-0.9-0.5L134,20.1l0,0
		c-0.1-0.2-0.3-0.3-0.5-0.3h-0.4c-0.2,0-0.4,0.1-0.5,0.3l0,0l-7.5,14.4C125,34.8,124.6,35,124.2,35L124.2,35z"/>
	<path class="st0" d="M207.1,19.2l-1.5-3.6c-0.1-0.3,0.1-0.6,0.4-0.6h21.7c0.4,0,0.6,0.3,0.4,0.6l-1.5,3.6c-0.1,0.3-0.5,0.6-0.9,0.6
		h-5.9h0l0,0c-0.3,0-0.6,0.2-0.6,0.6v0l0,0v14.2c0,0.3-0.3,0.6-0.6,0.6H215c-0.3,0-0.6-0.3-0.6-0.6V20.3l0,0v0
		c0-0.3-0.2-0.6-0.6-0.6l0,0h0H208C207.6,19.8,207.2,19.5,207.1,19.2L207.1,19.2z"/>
	<path class="st0" d="M180.1,25.1v-9.4c0-0.3,0.3-0.6,0.6-0.6h3.6c0.3,0,0.6,0.3,0.6,0.6l0,6.5l0,0v0c0,0.3,0.2,0.6,0.6,0.6h10.9
		c0.3,0,0.6-0.2,0.6-0.6v0l0,0l0-6.5c0-0.3,0.3-0.6,0.6-0.6h3.6c0.3,0,0.6,0.3,0.6,0.6v9.4v9.4c0,0.3-0.3,0.6-0.6,0.6h-3.6
		c-0.3,0-0.6-0.3-0.6-0.6l0-6.5l0,0v0c0-0.3-0.3-0.6-0.6-0.6h-10.9c-0.3,0-0.6,0.2-0.6,0.6v0l0,0l0,6.5c0,0.3-0.3,0.6-0.6,0.6h-3.6
		c-0.3,0-0.6-0.3-0.6-0.6V25.1L180.1,25.1z"/>
	<path class="st1" d="M106.6,50.2h1.7l0.7-1.7h3.2l0.7,1.7h1.7l-3.2-7.6h-1.5L106.6,50.2L106.6,50.2z M109.6,47.1l1-2.4l1,2.4H109.6
		L109.6,47.1z"/>
	<path class="st1" d="M122.2,50.2h3.6c1.7,0,2.8-0.7,2.8-2.1c0-1-0.5-1.5-1.4-1.9c0.5-0.3,1-0.8,1-1.6c0-0.5-0.2-1-0.5-1.3
		c-0.4-0.4-1.1-0.7-2-0.7h-3.5V50.2L122.2,50.2z M123.8,45.7v-1.6h1.6c0.7,0,1.1,0.3,1.1,0.8c0,0.6-0.5,0.8-1.2,0.8H123.8
		L123.8,45.7z M123.8,48.8v-1.7h1.9c0.8,0,1.2,0.3,1.2,0.8c0,0.6-0.4,0.8-1.2,0.8H123.8L123.8,48.8z"/>
	<polygon class="st1" points="138.2,50.2 139.8,50.2 139.8,44.2 142.1,44.2 142.1,42.7 135.9,42.7 135.9,44.2 138.2,44.2 
		138.2,50.2 	"/>
	<path class="st1" d="M153.5,50.3c2.3,0,4-1.8,4-3.9c0-2.2-1.7-3.9-4-3.9c-2.3,0-4,1.8-4,3.9C149.5,48.6,151.2,50.3,153.5,50.3
		L153.5,50.3z M153.5,48.8c-1.3,0-2.3-1.1-2.3-2.4c0-1.3,0.9-2.4,2.3-2.4c1.3,0,2.3,1.1,2.3,2.4C155.8,47.8,154.9,48.8,153.5,48.8
		L153.5,48.8z"/>
	<polygon class="st1" points="180.2,50.2 181.9,50.2 181.9,42.7 180.2,42.7 180.2,50.2 	"/>
	<polygon class="st1" points="190.2,50.2 191.8,50.2 191.8,45.3 193.9,48.5 194,48.5 196.1,45.3 196.1,50.2 197.7,50.2 197.7,42.7 
		196,42.7 194,45.9 192,42.7 190.2,42.7 190.2,50.2 	"/>
	<path class="st1" d="M167.9,42.6h1.5l2.4,6.1h1v3.1h-1.5l-0.1-1.6h-2.5H166l-0.1,1.6h-1.5v-3.1h1L167.9,42.6L167.9,42.6z M170,48.7
		l-1.4-3.8l-1.4,3.8H170L170,48.7z"/>
	<path class="st1" d="M53.3,21.4l7.2,12.5c0,0,0.1,0.1,0.1,0.1l7.2,12.4c0.7,1.2,0.3,2.7-0.9,3.4c-0.4,0.2-0.8,0.3-1.2,0.3v0h-29
		c-1.4,0-2.5-1.1-2.5-2.5c0-0.5,0.2-1,0.5-1.5l7.1-12.4l0,0L49,21.4c0.7-1.2,2.2-1.6,3.4-0.9C52.8,20.7,53.1,21,53.3,21.4L53.3,21.4
		z"/>
	<path class="st0" d="M22.4,46.5c-1.3,2.2-3.7,3.7-6.4,3.7h0h0H2.9v0c-0.4,0-0.9-0.1-1.3-0.3c-1.2-0.7-1.6-2.2-0.9-3.4l22-38.1
		c1.3-2.2,3.7-3.7,6.4-3.7h13.2v0c0.4,0,0.9,0.1,1.3,0.3c1.2,0.7,1.6,2.2,0.9,3.4L22.4,46.5L22.4,46.5z"/>
</g>
</svg>
