<?xml version="1.0" encoding="utf-8"?>
<!-- Generator: Adobe Illustrator 26.0.2, SVG Export Plug-In . SVG Version: 6.00 Build 0)  -->
<svg version="1.1" id="Layer_2" xmlns="http://www.w3.org/2000/svg" xmlns:xlink="http://www.w3.org/1999/xlink" x="0px" y="0px"
	 viewBox="0 0 229 56.2" style="enable-background:new 0 0 229 56.2;" xml:space="preserve">
<style type="text/css">
	.st0{fill:#FFFFFF;}
</style>
<g id="Logo_4_">
	<g id="SYMBOL">
		<path id="M_1_" class="st0" d="M202.4,2.1c-9.7,0-18.1,5.2-22.7,13c2.4,3.9,3.7,8.5,3.7,13.4c0,4.9-1.4,9.5-3.8,13.4
			c4.6,7.8,13.1,13,22.7,13c14.6,0,26.4-11.8,26.4-26.4S217,2.1,202.4,2.1z M213.3,36.9h-2.8V24l-7.2,12.7h-1.4l-7.2-12.6v12.9h-2.8
			V20.1h3.3l7.5,12.9l7.5-12.9h3.2V36.9z"/>
		<g>
			<path class="st0" d="M175.1,21.7c-0.9,3.2-2.6,5-6,4.8c-3.2-0.1-4.9-2.3-8.2-5l-0.1,0.2c0,0,4,6,9.5,5.4c3.3-0.3,4.8-3,4.9-5.4
				H175.1z"/>
			<path class="st0" d="M173.2,29.2L173.2,29.2c-0.9,1.1-3.1,1.6-5,1.5c-2.4-0.1-4.7-1.9-5-1.9c1,1.5,3.9,2.5,4.8,2.6
				C169.9,31.4,172.6,30.6,173.2,29.2z"/>
			<path class="st0" d="M170.7,24.4c-2.1,1-4.6-0.7-5.2-1.9l-1.1,0.3c1.2,1.9,4,3.8,6.7,2.6c3.4-1.5,3.1-4.6,2.7-6l-1.1-0.2
				C172.9,21.3,173,23.4,170.7,24.4z"/>
			<path class="st0" d="M168.4,17.8c-2.6,1.8-2.5,3.1-6.6,3.7c1,0.5,2.3,1.1,4,0.4c2.8-1.2,1.3-2.8,6.1-3.3
				C171.4,17.8,169.3,17.4,168.4,17.8z"/>
			<path class="st0" d="M166.9,27.6c-1.1,0-4.8-2.9-5-2.9c2.1,2.7,5.2,3.8,6.4,3.8c3.1,0.1,5.7-1.6,6.7-3.5
				C173.4,26.8,169.5,28.6,166.9,27.6z"/>
			<path class="st0" d="M174.3,27.1c-2.4,1.4-3.5,2.1-5.7,2c-1.8,0-3.7-0.8-5.6-2.4l0,0c1.2,1.8,3.6,2.9,5.5,3
				C170.6,29.7,173.2,28.7,174.3,27.1z"/>
			<path class="st0" d="M170.4,19.6c1.1,1.2,0.6,2.7-0.5,3.1c-1,0.3-2,0-2.3-1.2c-0.3,0-0.9,0.6-1.1,0.8c0.9,1.2,2.3,2.2,4,1.6
				c1-0.4,2.2-1.6,1.2-4.5C171.2,19.3,170.8,19.4,170.4,19.6z"/>
			<path class="st0" d="M166.5,12c-4-1.2-9.3,0.2-8.7,5.5c0.3,2.9,3.9,3.9,6.4,2.9c3-1.7,3.5-4,6.8-4.2c1-0.4,3.4,0,4.6-3.3
				C172,13.7,170,13.2,166.5,12z M164,17.3c-0.8,1-3.2,1.8-4.1,0.2c-0.9-1.5,0.6-3.2,2.1-3.7c2-0.6,4.9,0,6.4,1.1
				C168.4,15.2,166.3,14.4,164,17.3z M170,14.2c-2,0-6.1-2.3-8.4-1.1c-0.8,0.4-1.1,0.5-2.6,2.5c0.4-2.3,2.3-3.2,3.1-3.3
				c3.2-0.5,5.2,1.1,8,1.6C170.1,14.1,170,14.1,170,14.2z"/>
			<path class="st0" d="M167.2,44.4c0.5-0.9,0.5-1.8,0.3-2.2c-0.5,0.1-1,0.3-1.6,0.4C166.6,43.3,166.7,43.7,167.2,44.4z"/>
			<path class="st0" d="M163.5,9.6c-1,0.2-3.8,1.6-4.8,2.8c4.1-2.4,5.5-2.7,11.7-0.8c0-0.2-0.3-0.6-0.9-1.1
				C167.4,8.8,165.9,9,163.5,9.6z"/>
			<path class="st0" d="M157.7,43.4c-3.8-1.1-5.2-0.8-5.7,0.4c-0.9,1.9,1.2,2.7,3.2,2.7l7.6,0c0.5-1.2,0.9-2.1,0.5-2.5
				C162,42.7,159.2,43.5,157.7,43.4z M157.1,43.7c0.7-0.1,0.7,0.1,0.7,0.8l-0.7-0.1V43.7z M160.7,44.2c0.1-0.3,0.3,0.1,0.5,0.1
				c0.1,0-0.1,0.1,0,0.2c-0.1,0.1-0.2,0-0.4,0C160.6,44.6,160.7,44.4,160.7,44.2z M160.6,45.4c-0.4,0.5-2.7,0.8-3.5,0.5v-0.9
				c1.1,0.2,1.6,0.5,3.4,0.1C160.8,45,160.7,45.2,160.6,45.4z M159.7,44c0.1,0,0.3,0.1,0.4,0c0,0.2,0.1,0.3,0,0.5
				c-0.3,0-0.3,0-0.5,0C159.6,44.3,159.6,44.2,159.7,44z M158.4,43.9l0.6,0c0,0.2,0,0.3,0,0.5c-0.1,0.1-0.3,0.1-0.6,0.1L158.4,43.9z
				"/>
			<path class="st0" d="M166.4,38.9c-1.3-0.4-2.2-1.4-2.5-1.8c-0.2-0.3-1.1-0.3-1.4-0.3C162.9,37.5,165.4,39.2,166.4,38.9z"/>
			<path class="st0" d="M159.4,41.8c-0.4-0.2-0.7-0.3-1.1-0.6C158.2,41.9,159,44,159.4,41.8z"/>
			<path class="st0" d="M170.5,40.7c-0.7,0-1.1,0-1.8,0.6c0.2,1.1,1.2,1.3,0.7,3.6C170.5,44.6,171.1,42.5,170.5,40.7z"/>
			<path class="st0" d="M172.9,41.4c1,0.7,3.4-6-0.2-8.4c-1.4-0.9-5.2-1.1-6.7,1c3.3-0.9,3.8,1.4,5.3,1.5c3.4,0.3,1,2.2,2.6,3.2
				c-0.1,0.3-0.1,0.6-0.6,0.7c-0.6-0.6-0.2-1.3-1-1.8c-2.4-1.5-4.5,2.8-7.9,3.1c-2.2,0.7-6.2-1.7-6.1-4.1c2.3,0,4.4,0,6.2-1.6
				c2-1.4,0.2-4.4-1.6-3c-0.7,2,0.8,1.5,1.1,2.1c-0.4,0.6-1.4-0.2-1.7-0.6c-1.2,1.2-2,1.8-4.4,1.7v3.4c-0.1,0.8-2.9-0.1-3.4-0.1
				c-1.5,0.1-1.8,0.8-2.9,3.1c1.6-0.7,1.5-1.3,3.2-1.3c1.7,0,0.9,0.4,2.5,0.6v-1.6h0.6c1.2,0.2,2.9,2.5,5.9,2.9
				C164.9,42.6,172.8,37.1,172.9,41.4z"/>
			<path class="st0" d="M160.3,37.7c-0.4-0.4-0.9-0.3-1.3-0.3c1.1,1.9,3.9,2.6,3.7,2.5C160.8,38.6,160.7,38.1,160.3,37.7z"/>
			<path class="st0" d="M165.1,39.7c-1.9-0.8-2.4-1.6-2.8-2.1c-0.2-0.3-0.9-0.4-1.3-0.4C160.7,37.9,163.3,39.9,165.1,39.7z"/>
			<path class="st0" d="M166.8,35.5c-0.4-0.2-0.6-0.2-1-0.1c0.2,0.7,1.9,1.9,2.8,1.6C167,36.3,167.6,35.9,166.8,35.5z"/>
			<path class="st0" d="M169.8,36c-1.5-0.7-1-1.3-2.4-1.4C167.4,35.5,169,36.1,169.8,36z"/>
			<path class="st0" d="M165.4,36.1c-0.4-0.3-0.8-0.1-1.2-0.1c0.2,0.8,2.5,2.2,3.3,2.1C165.4,36.8,165.7,36.4,165.4,36.1z"/>
			<path class="st0" d="M162.4,49.6c-0.1-1.6-1.9-2.2-4.7-2.3l0,0.7c-2.6-0.1-4.4,0.1-4.4,1.6c0,1.4,1.4,1.8,4.4,1.9l0,0.6
				C160.3,52,162.4,51.3,162.4,49.6z M157.7,50.6v0.5c-1.9-0.1-2.9-0.3-3-1.5c0-0.8,1-1.3,3-1.3v0.4c1.2-0.1,2,0.3,2,0.9
				C159.8,50.4,158.8,50.6,157.7,50.6z"/>
			<path class="st0" d="M155.6,49.6c0,0.6,0.8,0.7,1.5,0.6V49C156.5,48.9,155.6,48.9,155.6,49.6z"/>
			<path class="st0" d="M144.3,25.1c0.9,0.5,2.7,0.6,4.2-0.3c0.8-0.5,2.5-1.5,2.9-3.2c-0.4-0.3-1.1-0.2-1.4,0.5
				c-0.5,1-3.1,3.2-5.7,2.1c-1.5-0.4-2.5-3.1-2.9-2.5c-0.6,2.5,1.8,4.8,4.6,5c1.1,0.2,4-0.8,3.4-1.4c-0.2,0-0.6,0.1-1,0.3
				c-1.3,0.4-2.4,0.9-4.2,0C143.8,25.3,144,25,144.3,25.1z"/>
			<path class="st0" d="M158.6,24.6c0-0.2-0.7-1.8-0.8-1.7v7.2C158.7,30.1,159.4,29,158.6,24.6z"/>
			<path class="st0" d="M150.2,20c0.2,0.7,0.9,0.9,0.8-0.1c-0.7-2.1-2-4.5-4.8-4c-2.2,0.4-3.3,3.5-5.8,2.3c0.3,1,0.7,1.9,1.9,2
				c0,0,0.1,0,0.1,0c0.3-0.1,4.4-1.9,6-0.3c0.1,0.1,0.4,0.3,0.4,0.3c0,0.1-0.1,0.1-0.3,0.1c0.4,3.1-4.8,2.5-3.5,0
				c-0.7,0.1-1,0.2-1.2,1.1c-0.1,0.9,0.6,1.9,2.3,2c5.1,0.2,4.2-5.2,0.2-5.3l0-0.8C148.5,17.1,149.6,17.8,150.2,20z"/>
			<path class="st0" d="M157.7,2.2c-14.5,0-26.4,11.8-26.4,26.4s11.8,26.4,26.4,26.4c14.5,0,26.4-11.8,26.4-26.4
				S172.2,2.2,157.7,2.2z M181.8,27.4c-0.2-0.2-0.6-0.5-1-0.6c-0.4-0.1-1.3-0.7-0.8-1c0.9,0.4,1.1,0.5,1.7,0.7
				C181.7,26.8,181.8,27.1,181.8,27.4z M181.6,25.6c-0.3-0.4-1-0.4-1.5-0.9c-0.1-0.1-0.3-0.3-0.3-0.6c0.4-0.3,1,0.5,1.6,0.5
				C181.5,24.9,181.6,25.2,181.6,25.6z M181.4,24c-0.5-0.6-1.5-1.2-1.8-1.3l0-0.2l0,0c0.5-0.2,1,0.3,1.5,0.5
				C181.2,23.2,181.3,23.6,181.4,24z M180.9,22c-0.3-0.2-0.6-0.6-1.5-0.9c0.3-0.6,0.6-0.3,1.2,0C180.7,21.4,180.8,21.7,180.9,22z
				 M180.4,20.3c-0.3-0.2-0.9-0.4-1-0.4c0-0.1-0.2-0.1-0.2-0.6c0.2,0,0.6,0.2,0.9,0.2C180.1,19.7,180.3,20,180.4,20.3z M135.7,38.4
				c-1.4-3.1-2.1-6.4-2.1-9.9c0-1.4,0.1-2.7,0.3-4c0.1-0.3,0.3-0.6,0.5-0.8c0.6-1.1,2.9-2.4,2.4-3.9c-0.3-0.9-0.4-1.7-0.3-2.6
				c0.5-1,1.1-1.9,1.8-2.8c-1,2.1-0.8,3.7-0.5,6.5c0,0.4-2.2,2.6-2.8,3.8c-1.5,3-1,11.1,2.5,13.9c0.5,0.4,2.4,1.6,4.2,1.6
				c0.8,0,3.6-0.2,4.2-0.5l0.2,0.5c-1.2,0.5-4.7,0.6-5.9,0.5c-1.7-0.2-3.1-1.2-4.1-2C135.8,38.5,135.8,38.4,135.7,38.4z M137.5,41.7
				c-0.5-0.7-0.9-1.5-1.3-2.3c0-0.1,0,0,0,0s0,0,0.1,0.1c0.8,1.2,3.1,2.2,5.9,2.1c1.5-0.1,3.2-0.6,3.9-0.9l0.3,0.5
				c-2.1,1-3.2,1-5.8,1C139.5,42.2,137.9,41.5,137.5,41.7z M139,43.7c-0.4-0.6-0.9-1.1-1.3-1.7c1.2,1.5,1.6,1.2,3.8,1.2
				c2,0,3.2-0.8,4.9-1.5l0.3,0.7c-0.9,0.2-1.7,0.8-2.6,1.1C142.4,43.9,140.9,44,139,43.7z M140.7,45.5c-0.4-0.4-0.7-0.7-1-1.1
				c0.8,0.5,1.5,0.6,1.7,0.6c3.1,0,4.2-1.7,5.6-2.1l0.3,0.5c-0.2,0-2.3,1-2.8,1.3c-0.7,0.4-2,0.8-3.5,1
				C140.8,45.7,140.7,45.6,140.7,45.5z M141.6,46.4c0.7,0.3,1.2,0,1.9-0.2c0.6-0.1,3.3-2.4,3.9-2.5l0.2,0.5
				c-0.6,0.3-1.7,1.4-2.4,1.9c-0.7,0.5-1.7,0.9-2.6,1.1C142.3,47,142,46.7,141.6,46.4z M143.2,47.7c1.6,0.5,3.8-1.8,4.8-2.8
				c0.7,0.4-1.3,2.1-1.8,2.5c-0.5,0.4-1.1,0.8-1.9,1.2C144,48.3,143.6,48,143.2,47.7z M144.8,48.9c1.9,0.4,3.5-1.6,4.3-3.2l0.4,0.1
				c-0.7,2.3-2.2,3.2-3.2,3.9C145.8,49.4,145.3,49.2,144.8,48.9z M146.6,49.9c2,0.1,2.4-1.9,3.4-3.6c1.3,0.4-1.2,3.4-1.8,4.3
				C147.6,50.4,147.1,50.1,146.6,49.9z M149.9,51.3c-0.4-0.1-0.8-0.3-1.2-0.5c0.8,0.1,0.9-0.7,1.1-0.8
				C149.9,50.3,150.4,50.5,149.9,51.3z M179.9,38c0,0-0.1-0.1-0.1-0.1c0,0-0.6-0.7-0.8-1c-1-1-2.7-2.6-4-2.9
				c0.2,0.5,0.4,1.1,0.4,1.6c1,0.6,3.4,2.4,4,3.6c-0.1,0.2-0.2,0.4-0.3,0.6c-0.7-1.1-2.4-2.7-3.4-3v1.1c1.1,0.7,2.1,2.1,2.6,3.2
				c-0.1,0.2-0.3,0.4-0.4,0.6c-0.3-0.7-1.1-2-2.4-2.7c-0.1,0.6-0.1,0.8-0.3,1.2c1,0.9,1.3,1.3,2,2.6c-0.2,0.2-0.3,0.4-0.5,0.7
				c-0.4-1-1-1.8-1.8-2.6c-0.2,0.4-0.3,0.5-0.6,0.8c0.8,0.8,1.5,2.7,1.6,2.7l0,0c-0.2,0.3-0.5,0.5-0.7,0.8c-0.2-1.2-0.6-2-1.4-3
				c-0.2,0.5-0.5,0.6-0.7,0.9c0.8,1,1,1.6,1.2,3.1c-0.2,0.2-0.4,0.4-0.6,0.6c-0.2-1.2-0.3-1.9-1.1-2.9c0,0-0.7,0.6-0.9,0.7
				c0.8,1.1,1,1.8,1,3c-0.2,0.2-0.5,0.4-0.7,0.6c0-1.1-0.5-2.4-0.9-3.1c-0.3,0.3-0.6,0.4-1,0.5c0.6,1.2,0.9,2.4,0.9,3.3
				c-0.2,0.1-0.4,0.3-0.6,0.4c0-1.6-0.4-2.3-1-3.5c-0.6,0.2-1.5,0.1-1.5,0.3c0.6,1.4,1.1,1.7,1.2,4c-0.3,0.1-0.5,0.3-0.8,0.4
				c-0.4-2.7-0.9-3.5-1.6-4.4l-1.6-0.3c1.2,1.5,1.9,3.5,2,5.3c-0.3,0.1-0.5,0.2-0.8,0.3c0-1.7-0.5-3.9-2.1-5.4
				c-0.2,0.4-0.3,0.6-0.6,1c1,1.5,1.7,3,1.4,4.9c-0.2,0.1-0.5,0.1-0.7,0.2c0.1-0.5,0.1-1-0.2-2c-0.7,1.7-1.7,2.3-3.9,2.7
				c-0.8,0.1-1.6,0.1-2.4,0.1c-0.2,0-0.4,0-0.6,0v-0.8c-1.6,0-4.9-0.1-4.9-2.3c0.1-1.9,2.9-2,4.9-2v-0.6c-3.5-0.1-5.9,0.6-6.1,2.7
				c0.1,1.4,1.7,2.4,3.8,2.8c-1.1-0.1-2.2-0.3-3.3-0.6c-1-0.8-1.2-1.9-1.2-2.8c0-0.4,0.3-1.5,0.9-1.9c0.9-0.5,0.5-0.7,0-0.9
				c-0.9-0.4-1.5-1.2-1.9-1.9c-0.2-0.4-1.3-0.8-0.8-1.6c0.6-0.6,0.9-0.4,1.6-1.2c1-1.2,1.2-2.8,3.8-3.8c0.6-0.2,1.4-0.4,1-1.3
				c-0.3-0.7-0.5-0.9-0.5-1.4c-0.3-0.4-0.6-0.5-1.1-0.5c-0.1,0-2.4,0.8-3.1-0.6l-1.4,2l-0.3-0.3l1.3-1.9c0-1.4,0.7-2.6,1.2-2.8
				c0.5,0.1-0.2,0.7-0.2,1.6c0.2,2.4,3,1.1,1.8-0.5c-0.2-1,0.4-1.6-0.9-1.6c-1.3,0.2-0.9-0.3-0.4-1.1l1.4-2.9
				c-0.6,0.1-0.8,0.7-1.5,1.7c-0.5,0.4-0.7,0-0.5-0.4c0.3-0.6,2.1-2.9,2.4-4.6c0.1-0.2,0-0.7-0.5-0.2c-3,4.3-5.7,5.5-8.5,4.8
				c-1.5-0.3-2.8-1.6-3.8-2.7c-8.2,1.2-2,21.2,7.8,11l0.4,0.3c-0.4,0.6-1.1,1.5-2.5,2.4c-6.3,3.2-11.2-3.5-11.2-9.4
				c0-1.5,0.6-5.1,4.2-6.4c1.7-0.4,0.8-1.1,0.6-1.9c-1.2-3.1,0.1-6.9,2-8.5l0.4-0.2c0.1,1-2.6,3.1-1.4,4.6c0.7,0.9,2.6-0.8,3.2-1.1
				c3.2-2.3,5.9-0.9,7.7,1.9c1,2.4,1.1,0.6,0.7-0.4c-1.5-4.6-6.8-4.3-9.2-2.7c-0.4,0.3-1.1,0.6-0.6-0.2c3-3.5,10.6-1.6,11.2,3.9
				l0.9,7.8c1,1.2-2.2,4.4-0.6,6.9c1,1.4,3.4,1.8,6.7,1c3.6-1.2,1.4-8.8,0.5-11c-0.5-1-1.3-2.8-1.8-2.3c0.4,1.2,1.7,4.5,1.2,4.7
				c-0.6-0.7-1.5-4.3-2.5-6.2V21c1,2,1.7,3.9,1.8,6.3c0.1,2.5-0.5,3.7-1.8,3.8v0.9c1.9-0.6,2.5-1.3,2.8-3.6h0l0.7-0.3
				c0.2,1.5-0.5,3-1.1,3.7c-0.4,0.4-1.2,1-3.1,0.9l0-16c-0.4-3.6-7.3-6.2-9.8-6.1c-0.2-0.1-0.6-0.4,0.3-0.6c2.9-0.6,7.6,1.2,9.5,3.5
				v-2.5c0-1.3-1.1-3.7-2.7-4.5c-3.8-0.8-7.6,0.7-9.8,1.8c3.9-2.5,8.4-3.9,13.1-3.9c0,0,0,0,0,0v0.5c0.4,0.3,3.4,0.3,2.4,1.2
				c-0.8-0.2-1.6-0.4-2.4-0.5v0.8c0.5,0.3,0.8,0.1,1.5,0.5c-0.1,0.7-1,0.1-1.5,0.1v1c0.1,0.4,0.3,0.6,0.8,0.6c0.5,0,0.6-0.5,0.7-0.6
				c1.3-1.4,2.9-2.6,4.6-2.7l0-0.1c0.8,0.2,1.5,0.4,2.3,0.7c-3.6-0.6-7.2,2-8.3,5.5c-0.3,0.6-0.2,1.2,0.3,0.6c0,0,2.5-2.4,4.9-3.2
				c1.4-0.5,2.4-0.5,5.3-0.4c0.8-0.4,0.5-1.1-0.1-1.6c0.6,0.3,1.3,0.7,1.9,1c-0.5,0.6-0.3,1.3,0,1.6c0.2,0.1,0.5,0.5,0.5-0.3
				c0-0.3,0.1-0.6,0.4-0.8c0.2,0.1,0.3,0.2,0.5,0.3c-0.6,0.6-0.9,1.2-0.4,2.1c0.3,0.3,0.6,0.4,0.6,0.2c-0.1-0.8,0.1-1.2,0.6-1.8
				c0.2,0.1,0.3,0.3,0.5,0.4c-0.4,0.6-1.1,2.5-0.5,2.5c0.1,0,0.2,0,0.3-0.1c0.6-0.4,1.2-1.1,1.2-1.5c0.2,0.1,0.3,0.3,0.5,0.4
				c-0.3,0.2-1.2,0.8-0.8,1.2c0.3,0,1.4,0.1,1.8-0.2c0.4,0.4,0.7,0.8,1.1,1.2c-0.8,3.3-3.6,2.1-4.6,3.4c0.1,0.7,1.8,1,2.3,1.1
				c0.9,0,2.9-0.6,3.8-2.3c0.1,0.2,0.3,0.4,0.4,0.7c-0.5,1.5-2.4,2.4-3.9,2.3c0,0.1,0,0.1,0,0.2c0.5,0.4,1,0.6,1.7,0.7
				c1.5,0,2.4-0.7,3-1.9c0.2,0.4,0.4,0.8,0.6,1.3c-0.3-0.1-0.6-0.2-0.7-0.1c-1.1,0.7-1.4,1.8-3.6,1.5c0.3,0.4,1,0.8,1.3,0.9
				c0.2,0.1,0.1,0.6-0.1,0.6l-0.6-0.1c0,0.3,0,0.5,0,0.8c0.3,0.2,0.6,0.2,0.6,0.7c-0.2,0.1-0.4,0-0.6,0.1c0,0.4-0.1,0.6-0.2,0.9
				c0.3,0.3,0.4,0.2,0.7,0.3c0.2,0.6-0.5,0.5-0.8,0.4l-0.2,0.9c0.8,0.4,1.4,0.9-0.2,0.7c-0.3,1.4-0.5,0.9,0.7,1.6
				c0.1,0.2,0.1,0.3-0.1,0.5c-0.3,0.2-0.7-0.3-1.1-0.4c-0.1,0.4-0.2,0.6-0.4,0.8c0.4,0.6,1.8,0.6,1.3,1.4c-0.2-0.1-1.6-0.6-1.8-0.6
				c-0.1,0.2-0.6,0.7-0.6,0.8c0.7,0.1,3.3,1.8,3.8,2.1c-0.1,0.2-0.2,0.2-0.3,0.5c0-0.3-4.6-2.9-5-1.5c3.3,1.4,5.9,3.1,8.5,5.4
				C180.2,37.3,180,37.6,179.9,38z M144.9,9.4c0-0.1,0.1-0.2,0.2-0.2c0.6-0.4,1.3-0.7,1.9-0.9c1.9-0.8,3.8-1.3,6.2-0.9
				c0,0,0.1,0,0.2,0.1c0,0,0.1,0,0.1,0.1c0,0,0.1,0.1,0.1,0.1c0.1,0.1,0.3,0.3,0.4,0.6c0.2,0.3,0.3,0.7,0.5,1.2c0,0.2,0,0.3,0,0.3
				c0,0,0,0-0.1,0c0,0,0,0-0.1,0c0,0-0.1,0-0.1,0c-0.1,0-0.2-0.1-0.2-0.1c0,0,0,0,0,0c0,0,0,0,0,0c-1.1-0.4-1.9-0.7-2.7-0.9
				c-0.1,0-0.2,0-0.3-0.1c-0.2,0-0.4-0.1-0.6-0.1c-1.9-0.2-3.1,0.5-5.2,1c-0.1,0-0.2,0-0.2-0.1C144.8,9.5,144.8,9.4,144.9,9.4z
				 M180.6,35.9c-0.5-0.6-1.3-1-1.8-1.6c0-1.4,1.4,0.9,2.1,0.3C180.9,35.1,180.8,35.5,180.6,35.9z M181.3,33.6
				c-0.6-0.3-1.6-1.1-1.6-1.1c-0.2-0.3-0.2-0.4,0.1-0.7c0.3,0,1.1,0.8,1.6,1C181.4,33,181.3,33.3,181.3,33.6z M181.6,31.8
				c-0.6-0.3-1.2-1-1.8-1.3l0.2-0.6c0.6,0,1.1,0.8,1.8,0.8C181.7,31.1,181.6,31.4,181.6,31.8z M179.7,28c0.7-0.5,1.4,0.2,2.1,0.5
				c0,0.4,0,0.8,0,1.1C181.3,28.6,179.7,28.9,179.7,28z"/>
		</g>
	</g>
	<g id="ATLANT_3_">
		<path class="st0" d="M0,36.8L8.6,20H12l8.6,16.8h-2.9l-2-3.8H4.9l-2,3.8H0z M14.9,31.2l-4.6-8.7l-4.5,8.7H14.9z"/>
		<path class="st0" d="M20.6,20h18.1v2.2h-7.6v14.7h-2.9V22.1h-7.6V20z"/>
		<path class="st0" d="M40.9,37.1l-0.3-2c0.5-0.1,0.9-0.3,1.4-0.6c0.4-0.3,0.9-0.7,1.3-1.3c0.4-0.6,0.8-1.3,1-2.3
			c0.3-1,0.4-2.1,0.4-3.4V20h14.9v16.8h-2.8V22h-9.4v5.7c0,1.7-0.2,3.1-0.6,4.3c-0.4,1.2-0.9,2.2-1.6,2.8c-0.7,0.7-1.4,1.2-2.1,1.5
			C42.6,36.8,41.8,37,40.9,37.1z"/>
		<path class="st0" d="M63.5,36.8L72.1,20h3.3l8.6,16.8h-2.9l-2-3.8H68.4l-2,3.8H63.5z M78.4,31.2l-4.6-8.7l-4.5,8.7H78.4z"/>
		<path class="st0" d="M90.7,20v7.4H103V20h2.8v16.8H103v-7.3H90.7v7.3h-2.8V20H90.7z"/>
		<path class="st0" d="M109.6,20h18.1v2.2h-7.6v14.7h-2.9V22.1h-7.6V20z"/>
	</g>
</g>
</svg>
