<?xml version="1.0" encoding="utf-8"?>
<!-- Generator: Adobe Illustrator 21.1.0, SVG Export Plug-In . SVG Version: 6.00 Build 0)  -->
<svg version="1.1" id="Layer_1" xmlns="http://www.w3.org/2000/svg" xmlns:xlink="http://www.w3.org/1999/xlink" x="0px" y="0px"
	 viewBox="0 0 229 56.2" style="enable-background:new 0 0 229 56.2;" xml:space="preserve">
<style type="text/css">
	.st0{fill:#FFFFFF;}
	.st1{fill:#0061ED;}
</style>
<g id="Logo-_x2F_-blue-_x2F_-horizontal">
	<g id="logo-atlant" transform="translate(23.000000, 50.000000)">
		<g id="Logo" transform="translate(517.000000, 0.000000)">
			<path id="Shape" class="st0" d="M-383.5-36.6c-0.7,0.1-2.5,0.9-2.9,3.1c1.4-1.9,1.7-2,2.4-2.3c2.2-1.1,6,1,7.8,1
				c0-0.1,0.1-0.1,0.1-0.2C-378.7-35.7-380.6-37.1-383.5-36.6z M-383.6-35.3c-1.4,0.5-2.8,2-2,3.4c0.9,1.5,3,0.6,3.8-0.2
				c0.8-0.8,1.2-2.6,3.6-2.1c0.2-0.1,0.4,0.2,0.5-0.1C-379-35.4-381.6-35.7-383.6-35.3z M-362.5-34.7c-0.3-0.5-0.6-1.1-0.9-1.6
				c-0.3-0.5-0.6-1-1-1.5c-5.1-7.3-13.6-12.1-23.2-12.1c-15.6,0-28.2,12.6-28.2,28.1s12.7,28.1,28.2,28.1c9.6,0,18-4.8,23.2-12.1
				c0.3-0.5,0.7-1,1-1.5c0.3-0.5,0.6-1.1,0.9-1.6c2-3.9,3.2-8.3,3.2-12.9S-360.5-30.8-362.5-34.7z M-387.6-21.9L-387.6-21.9v-5
				c0.1-0.1,0.8,1.4,0.8,1.6c0.8,4,0.2,5-0.8,5V-21.9L-387.6-21.9z M-388.2,2.7c-13.3-0.3-23.9-11.2-23.9-24.5
				c0-13.5,10.6-23.9,24-24.5v1.6c0,0-7.7,0.1-13.6,5.1c-0.2,0.3,0,0.4,0.4,0.2c0.4-0.2,5.6-3.7,10.8-2.6c1.4,0.8,2.5,3,2.5,4.2v2.3
				c-1.8-2.2-6.1-3.8-8.8-3.2c-0.8,0.2-0.4,0.5-0.3,0.5c2.3,0,8.6,2.3,9.1,5.6v14.7c1.8,0.1,2.5-0.4,2.9-0.8c0.6-0.6,1.2-2,1-3.4
				l-0.7,0.2h0c-0.3,2.1-0.9,2.8-2.6,3.3v-0.9c1.2-0.1,1.8-1.2,1.6-3.5c-0.1-2.2-0.8-4-1.7-5.8v-1.7c0.9,1.8,1.7,5.2,2.3,5.7
				c0.5-0.2-0.7-3.2-1.1-4.3c0.4-0.5,1.2,1.2,1.7,2.1c0.8,2.1,2.9,9-0.4,10.1c-3,0.8-5.3,0.4-6.2-0.9c-1.4-2.3,1.5-5.2,0.6-6.3
				l-0.8-7.2c-0.6-5-7.6-6.8-10.4-3.5c-0.5,0.7,0.2,0.5,0.5,0.2c2.2-1.4,7.1-1.7,8.5,2.5c0.3,0.8,0.3,2.6-0.7,0.3
				c-1.7-2.6-4.2-3.9-7.1-1.8c-0.5,0.3-2.3,1.9-2.9,1c-1.1-1.4,1.4-3.4,1.3-4.3l-0.4,0.2c-1.8,1.5-2.9,5-1.8,7.8
				c0.2,0.7,1,1.4-0.6,1.7c-3.3,1.2-3.8,4.5-3.8,5.9c0,5.4,4.6,11.5,10.4,8.6c1.2-0.7,1.9-1.6,2.3-2.2l-0.3-0.3
				c-9.1,9.4-14.7-9-7.2-10.1c0.9,1,2.1,2.2,3.5,2.5c2.6,0.6,5.1-0.5,7.9-4.4c0.4-0.4,0.5,0,0.5,0.2c-0.3,1.5-1.9,3.6-2.2,4.2
				c-0.2,0.3,0,0.8,0.5,0.4c0.6-0.9,0.8-1.4,1.4-1.6l-1.2,2.6c-0.5,0.7-0.8,1.1,0.4,1c1.2,0,0.6,0.6,0.8,1.4
				c1.1,1.6-1.5,2.7-1.7,0.5c0-0.8,0.7-1.3,0.2-1.5c-0.5,0.1-1.1,1.3-1.1,2.5l-1.2,1.7l0.3,0.3l1.3-1.8c0.6,1.3,2.7,0.6,2.8,0.5
				c0.5,0,0.7,0.1,1,0.5c0,0.5,0.3,0.6,0.4,1.3c0.7,0.7-0.3,1-0.9,1.2c-2.4,0.9-2.5,2.3-3.5,3.5c-0.6,0.8-0.9,0.5-1.5,1.1
				c-0.4,0.7,0.6,1.1,0.8,1.4c0.3,0.6,0.9,1.4,1.7,1.7c0.5,0.2,0.9,0.3,0,0.8c-0.6,0.4-0.9,1.4-0.9,1.8c0,0.9,0.2,2,1.4,2.8
				c-0.7-0.2-1.1-0.3-1.8-0.6c0.6-0.7,0.1-1-0.1-1.2c-0.3,0.1-0.3,1-1.5,0.6c0.4-0.7,2.9-3.6,1.7-4.1c-1,1.7-1.4,3.6-3.6,3.2
				c1-0.7,2.4-1.5,3.1-3.7l-0.3-0.1c-0.8,1.7-2.5,3.7-4.5,2.8c0.9-0.4,1.4-0.8,1.9-1.2c0.4-0.3,2.3-2,1.6-2.3
				c-1.1,1.1-3.6,3.7-5.1,2.2c0.9-0.2,1.8-0.6,2.5-1.1c0.7-0.5,1.7-1.4,2.2-1.7l-0.2-0.5c-0.5,0.1-3.1,2.2-3.6,2.3
				c-0.8,0.2-1.4,0.7-2.5-0.5c1.4-0.1,2.7-0.5,3.4-0.9c0.5-0.3,2.4-1.2,2.6-1.2l-0.3-0.5c-1.3,0.4-2.3,2-5.2,2
				c-0.2,0-1.3-0.1-2.2-1.2l0-0.1c1.7,0.3,3.2,0.2,4.8-0.3c0.8-0.3,1.6-0.8,2.4-1l-0.3-0.6c-1.5,0.7-2.7,1.4-4.5,1.4
				c-2.1,0-2.5,0.3-3.7-1.4c0.2-0.3,1.8,0.5,2.8,0.5c2.3,0,3.4-0.1,5.3-0.9l-0.2-0.5c-0.7,0.3-2.2,0.7-3.6,0.8
				c-3.2,0-5.6-1.4-5.8-2.7c0.9,0.7,2.3,1.7,3.8,1.8c1.2,0.1,4.4,0,5.5-0.4l-0.2-0.4c-0.6,0.2-3.2,0.5-3.9,0.5
				c-1.6,0-3.4-1.2-3.9-1.5c-3.2-2.6-4.1-10.3-2.3-12.8c0.4-1.2,2.7-3.1,2.6-3.5c-0.4-3.7-0.6-5,2.2-8.8c-2.4,1.5-4.2,4.7-3.1,7.8
				c0.5,1.4-1.6,2.6-2.2,3.6c-2.7,4.5-1.5,9.2,0.4,13.7c6.7,14.1,20.5,13.7,20.5,13.7L-388.2,2.7z M-387.6-42.1v-0.7
				c0.8,0.1,1.5,0.3,2.2,0.5c0.9-0.9-1.9-0.9-2.2-1.2V-44c1.9-0.1,3.9,0.2,5.8,0.7l-0.1,0.2c-1.6,0.1-3,1.2-4.3,2.5
				c-0.1,0.1-0.3,0.5-0.7,0.5c-0.4,0-0.6-0.2-0.8-0.5v-0.9c0.4,0,1.3,0.5,1.4-0.1C-386.8-42-387-41.9-387.6-42.1z M-367.6-29.8
				c0.2,0.1,0.8,0.3,1.1,0.5c0.1,0.1,0.1,0.1,0.1,0.1l0.2,0.6c-0.1-0.1-0.3-0.1-0.4-0.2c-0.3-0.2-0.6-0.3-0.8,0.1
				c0.3,0.1,0.5,0.2,0.7,0.3c0.4,0.2,0.6,0.5,0.8,0.6c0,0.2,0.2,0.4,0.2,0.7c-0.4,0-0.8-0.4-1.2-0.5c-0.1,0-0.3,0-0.4,0v0l0,0.2
				c0.1,0,0.2,0.1,0.3,0.1c0.5,0.3,1.1,0.7,1.4,1.2c0.1,0.2,0.2,0.3,0.1,0.5c-0.1,0-0.1,0-0.2,0c-0.5-0.1-1-0.7-1.4-0.5
				c0,0.3,0.1,0.4,0.2,0.5c0.3,0.4,0.8,0.5,1.1,0.7c0.3,0.2,0.6,0.4,0.5,1.2c-0.3-0.1-0.4-0.1-0.6-0.2c-0.3-0.1-0.5-0.2-1.1-0.5
				c-0.5,0.3,0.3,0.8,0.7,0.9c0.1,0,0.2,0.1,0.3,0.1c0.3,0.2,0.7,0.5,0.7,0.7l0,0.8c-0.2-0.1-0.5-0.2-0.8-0.4
				c-0.5-0.2-0.9-0.4-1.4-0.1c0,0.6,0.8,0.6,1.4,0.9c0.4,0.2,0.8,0.6,0.7,1.6c-0.2,0-0.4,0-0.6-0.1c-0.4-0.2-0.8-0.6-1.2-0.6
				l-0.1,0.5c0.5,0.3,0.9,0.7,1.4,1.1c0.1,0.1,0.3,0.2,0.4,0.2l-0.1,0.8c0,0-0.1,0-0.1,0c-0.5-0.2-1.2-0.9-1.5-0.9
				c-0.1,0.1-0.1,0.2-0.2,0.3c-0.1,0.1-0.1,0.3,0.1,0.4c0,0,0,0,0,0c0,0,1,0.8,1.6,1.1c-0.2,1.4-0.8,1.1-1.3,0.7
				c-0.5-0.4-1-0.8-1-0.1c0.3,0.3,0.8,0.6,1.2,1c0.2,0.2,0.4,0.3,0.5,0.6c-0.1,0.3-0.1,0.4-0.2,0.6c0,0.1-0.1,0.2-0.1,0.3
				c-0.6-0.5-1.2-1-1.9-1.5c-1.9-1.4-3.8-2.6-6.1-3.6c0.4-1.3,4.6,1.1,4.6,1.4c0.1-0.3,0.3-0.3,0.3-0.5c-0.4-0.3-2.8-1.9-3.5-2
				c0-0.1,0.5-0.6,0.5-0.7c0.2,0,1.5,0.5,1.6,0.5c0.5-0.7-0.8-0.7-1.2-1.2c0.2-0.2,0.3-0.4,0.4-0.7c0.3,0.1,0.7,0.6,1,0.4
				c0.1-0.2,0.1-0.3,0.1-0.5c-1.1-0.7-0.9-0.2-0.6-1.5c1.4,0.1,0.9-0.3,0.2-0.7l0.1-0.9c0.3,0.1,0.9,0.2,0.8-0.3
				c-0.2-0.1-0.3-0.1-0.6-0.3c0.1-0.3,0.1-0.5,0.2-0.9c0.2-0.1,0.4,0,0.6-0.1c0.1-0.4-0.3-0.4-0.5-0.6c0.1-0.3,0-0.5,0-0.7l0.5,0.1
				c0.1,0,0.3-0.5,0.1-0.5c-0.3-0.1-1-0.4-1.2-0.8c2.1,0.3,2.3-0.7,3.4-1.3c0,0,0.1,0,0.2,0c0.2,0,0.5,0.1,0.6,0.2l0.3,0.6
				c-0.3,0.1-0.8-0.2-1-0.2C-367.8-29.8-367.6-29.8-367.6-29.8z M-382.2-5.1c0.2-0.3,0.4-0.5,0.5-0.9c1.5,1.4,1.9,3.5,1.9,5.1
				c-0.4,0.1-0.8,0.3-1.3,0.4C-380.6-2.3-381.2-3.7-382.2-5.1z M-387.6-4.5c2.6,0.1,4.3,0.6,4.3,2.1c0.1,1.6-1.9,2.2-4.3,2.3v-0.6
				c-2.8-0.1-4-0.5-4-1.8c0-1.4,1.6-1.6,4-1.5V-4.5z M-382.9-18.6c1.7-1.3,3.3,1.5,1.5,2.8c-1.7,1.5-3.6,1.5-5.7,1.5
				c-0.1,2.2,3.6,4.4,5.6,3.8c3.2-0.3,5.1-4.2,7.3-2.8c0.8,0.5,0.4,1.1,1,1.6c0.4,0,0.4-0.3,0.5-0.6c-1.4-0.9,0.8-2.6-2.3-2.9
				c-1.3-0.1-1.8-2.2-4.9-1.4c1.4-2,4.9-1.8,6.2-0.9c3.4,2.2,1.1,8.4,0.2,7.7c-0.1-4-7.5,1.1-8.7,0.7c-2.7-0.3-4.3-2.4-5.4-2.6h-0.6
				v1.4c-1.4-0.1-0.8-0.5-2.3-0.5c-1.6,0-1.5,0.6-3,1.2c1-2.2,1.3-2.7,2.7-2.9c0.5,0,3.1,0.8,3.2,0.1v-3.1c2.2,0.1,2.9-0.5,4-1.6
				c0.2,0.3,1.2,1,1.6,0.5C-382.2-17.2-383.6-16.8-382.9-18.6z M-373.6-30.3l1,0.2c0.3,1.3,0.6,4.1-2.5,5.5
				c-2.5,1.1-5.1-0.6-6.2-2.4l1-0.3c0.6,1.1,2.9,2.6,4.8,1.7C-373.4-26.5-373.5-28.4-373.6-30.3z M-375.9-30
				c0.4-0.3,0.7-0.3,1.2-0.3c0.9,2.6-0.2,3.7-1.1,4.1c-1.5,0.6-2.9-0.3-3.7-1.4c0.2-0.2,0.8-0.7,1-0.7c0.3,1.2,1.2,1.4,2.1,1.1
				C-375.3-27.5-374.8-28.8-375.9-30z M-380-27.9c-1.6,0.7-2.8,0.1-3.7-0.3c3.8-0.5,3.7-1.8,6.1-3.4c0.9-0.3,2.7,0,3.3,0.7
				C-378.8-30.5-377.5-29-380-27.9z M-377-23.6c3.2,0.1,4.7-1.5,5.6-4.4h0.1c-0.1,2.2-1.4,4.6-4.5,4.9c-5.2,0.5-8.8-5-8.8-5l0.1-0.2
				C-381.6-25.7-380-23.7-377-23.6z M-379.1-22.6c2.4,0.9,6-0.7,7.5-2.4c-0.9,1.7-3.2,3.3-6.2,3.2c-1.1,0-4-1-5.9-3.5
				C-383.5-25.4-380.1-22.6-379.1-22.6z M-377.5-13.9c-0.8,0.2-2.3-0.8-2.5-1.5c0.3-0.1,0.5-0.1,0.9,0.1
				C-378.4-15-379-14.7-377.5-13.9z M-378.7-16.2c1.4,0.1,0.9,0.6,2.3,1.3C-377.1-14.9-378.6-15.3-378.7-16.2z M-384.5-13.8
				c0.4,0,1,0.1,1.2,0.3c0.4,0.5,0.8,1.2,2.5,1.9C-382.4-11.3-384.8-13.2-384.5-13.8z M-382.9-11.3c0.1,0.1-2.4-0.6-3.4-2.3
				c0.3,0,0.8,0,1.2,0.3C-384.8-13-384.7-12.5-382.9-11.3z M-383.1-14.2c0.3,0,1.1,0,1.3,0.3c0.3,0.3,1.1,1.3,2.3,1.6
				C-380.5-11.9-382.8-13.6-383.1-14.2z M-381.6-14.9c0.4,0,0.7-0.1,1.1,0.1c0.3,0.2,0,0.6,2,1.8C-379.3-12.9-381.4-14.1-381.6-14.9
				z M-382.4-21.5c0.3,0,2.4,1.7,4.6,1.8c1.7,0.1,3.8-0.3,4.6-1.4h0.1c-0.5,1.3-3.1,2-4.7,2C-378.8-19.2-381.6-20.2-382.4-21.5z
				 M-377.7-20.5c-1.7-0.1-3.9-1.1-5-2.8h0c1.8,1.4,3.6,2.2,5.2,2.2c2.1,0,3.1-0.6,5.3-1.9C-373.2-21.6-375.7-20.7-377.7-20.5z
				 M-377.4-10c0.7-0.6,1-0.6,1.6-0.6c0.5,1.7-0.1,3.6-1,3.9C-376.3-8.8-377.2-9-377.4-10z M-378.8-7.2c-0.5-0.7-0.6-1-1.2-1.6
				c0.5-0.1,1-0.3,1.5-0.4C-378.4-8.8-378.3-7.9-378.8-7.2z M-386-9.5c-0.3,2-1.1,0.1-1-0.5C-386.7-9.8-386.4-9.7-386-9.5z
				 M-392.9-7.8c0.4-1.1,1.7-1.3,5.3-0.3c1.4,0.1,4-0.6,5.2,0.5c0.4,0.4,0.1,1.2-0.4,2.3h-7.1C-391.8-5.3-393.7-6-392.9-7.8z
				 M-381.8-2.3c0.3,1,0.3,1.4,0.2,2c-1.6,0.4-3.1,0.6-4.7,0.7C-383.6-0.1-382.4-0.4-381.8-2.3z M-380.8-6.2l1.5,0.2
				c0.7,0.8,1.1,1.6,1.5,4.2c-0.4,0.2-0.8,0.3-1.2,0.5C-379-2.9-379.6-4.7-380.8-6.2z M-378.2-5.9c-0.1-0.1,0.8-0.1,1.4-0.2
				c0.5,1.1,0.9,1.8,0.9,3.3c-0.4,0.3-0.7,0.5-1.2,0.7C-377.1-4.3-377.6-4.6-378.2-5.9z M-376.2-6.3c0.4-0.1,0.6-0.2,0.9-0.4
				c0.4,0.7,0.9,2.1,0.8,3.1c-0.3,0.1-0.6,0.5-0.9,0.6C-375.4-3.9-375.6-5.2-376.2-6.3z M-374.8-7.1c0.1-0.1,0.8-0.7,0.8-0.7
				c0.8,0.9,0.8,1.6,1,2.8c-0.1,0.2-0.7,0.6-0.9,0.7C-373.8-5.4-374-6-374.8-7.1z M-373.4-8.5c0.2-0.2,0.4-0.3,0.6-0.8
				c0.8,1,1.1,1.7,1.4,2.9c-0.3,0.3-0.5,0.6-0.9,0.9C-372.5-6.9-372.6-7.5-373.4-8.5z M-372.3-9.7c0.3-0.3,0.4-0.4,0.5-0.8
				c0.8,0.7,1.4,1.4,1.7,2.4l-0.8,0.8C-370.9-7.2-371.5-9-372.3-9.7z M-371.4-11.1c0.2-0.4,0.2-0.6,0.3-1.2c1.2,0.8,2,2.1,2.3,2.6
				c-0.1,0.3-0.4,0.5-0.7,0.9C-370.2-9.9-370.5-10.2-371.4-11.1z M-371-13.2v-1c0.9,0.2,2.5,1.8,3.2,2.8c-0.2,0.5-0.4,0.8-0.6,1.2
				l-0.1,0C-369-11.2-370-12.5-371-13.2z M-371.3-15.3c0-0.5-0.2-1.1-0.4-1.5c1.1,0.2,2.4,1.5,3.4,2.4c0.1,0.1,0.2,0.1,0.3,0.2v0.1
				c1.2,1.1,0.9,1.3,0.5,2c0,0-0.1,0.1-0.1,0.1C-368-13-370.3-14.7-371.3-15.3z M-370.6-30.3c-0.7-0.1-1.1-0.3-1.6-0.6
				c0-0.1,0-0.1,0-0.2c1.4,0,3.3-0.8,3.7-2.3c0.2,0.2,0.5,0.7,0.7,1.2C-368.3-30.9-369.2-30.3-370.6-30.3z M-372.4-31.7
				c-0.5-0.1-2.1-0.3-2.2-1c0.9-1.2,3.6,0,4.3-3.3c0.4,0.6,1.2,1.6,1.4,2C-369.6-32.2-371.5-31.7-372.4-31.7z M-375.3-33.2
				c-3,0.2-3.5,2.3-6.3,3.9c-2.3,0.9-5.6,0-5.9-2.7c-0.6-4.8,4.3-6.1,8-5c3.3,1.1,5.1,1.6,8.4,0.8
				C-372.1-33.2-374.4-33.5-375.3-33.2z M-373-36.7c-0.3-0.4,0.6-1,0.9-1.2l0.9,0.8C-371.3-36.6-372.6-36.7-373-36.7z M-373.8-36.8
				l-0.3,0.1c-0.6-0.3,0.2-2,0.5-2.4l0.8,0.6C-372.4-38.2-373.3-37.6-373.8-36.8z M-374.6-37.8c0,0.2-0.3,0.1-0.6-0.2
				c-0.4-0.9-0.1-1.5,0.5-2l0.7,0.5C-374.6-38.9-374.7-38.5-374.6-37.8z M-375.6-39.5c0,0.7-0.3,0.3-0.5,0.3c-0.3-0.3-0.4-1,0.1-1.6
				c0.3,0.2,0.5,0.3,0.8,0.6C-375.5-40.1-375.7-39.8-375.6-39.5z M-375.9-37.2c-5.7-1.7-7-1.5-10.8,0.7c0.9-1.1,3.5-2.4,4.4-2.6
				c2.3-0.6,3.6-0.6,5.8,0.8C-376-37.8-375.9-37.5-375.9-37.2z M-377.7-40.2c-2.6-0.1-3.6-0.1-4.9,0.3c-1.1,0.3-2.7,0.7-4.5,2.9
				h-0.1c-0.5,0.5-0.6,0-0.3-0.5c1.1-3.6,5.1-6.2,8.9-4.6C-377.7-41.7-376.6-40.8-377.7-40.2z M-400-24.6c1.7,0.8,2.7,0.4,3.9,0
				c0.3-0.3,0.7-0.3,0.9-0.3c0.5,0.5-2.2,1.5-3.2,1.3c-2.6-0.2-4.8-2.4-4.3-4.6c0.4-0.6,1.3,2,2.7,2.3c2.4,1,4.8-1.1,5.3-1.9
				c0.3-0.6,1-0.7,1.3-0.4c-0.3,1.6-1.9,2.5-2.6,3c-1.4,0.8-3.1,0.7-3.9,0.3C-400.2-25-400.4-24.8-400-24.6z M-398.2-31.3
				c3.7,0.1,4.5,4.7-0.2,4.9c-1.5-0.2-2-1-2.1-1.8c0.1-0.9,0.5-0.9,1.1-1c-1.2,2.2,3.6,2.8,3.2,0c0.1-0.1,0.1-0.1,0.1-0.3
				c0,0-0.1-0.1-0.2-0.1c-1.3-0.9-2.1-0.7-3.8-0.3c-0.1,0.1-1.4,0.5-1.7,0.5v0c-1.2-0.2-1.6-0.8-1.9-1.8c2.3,1.1,3.4-1.7,5.4-2.1
				c2.6-0.5,3.8,1.7,4.5,3.7c0.1,0.9-0.5,0.7-0.7,0.1c-0.5-2-1.6-2.7-3.7-2.5V-31.3z M-388.1,0.2c-2.7,0.1-5.6-0.8-5.6-2.6
				c0.2-1.9,2.4-2.5,5.6-2.4v0.5c-1.9,0-4.5,0.1-4.5,1.8c-0.1,2,3,2.1,4.5,2.1V0.2z M-363.4-10.6c-0.3,0.6-0.6,1.2-0.9,1.8
				c-0.3,0.5-0.6,1.1-1,1.6c-4.8,7.2-13,11.9-22.2,11.9V3.6l0,0V2.7c9,0,16.9-4.8,21.2-12c0.3-0.6,0.7-1.2,1-1.8
				c0.3-0.7,0.6-1.4,0.9-2.1c1-2.7,1.6-5.6,1.6-8.6s-0.5-5.9-1.6-8.6c-0.3-0.7-0.6-1.4-0.9-2.1c-0.3-0.6-0.6-1.2-1-1.8
				c-4.3-7.2-12.2-12-21.2-12v-0.8l0,0v-1.2c9.3,0,17.5,4.8,22.2,11.9c0.3,0.5,0.7,1,1,1.6c0.3,0.6,0.6,1.2,0.9,1.8
				c1.6,3.4,2.5,7.2,2.5,11.2C-360.9-17.8-361.8-14-363.4-10.6z M-339.3-49.9c-9.5,0-17.8,4.7-22.9,11.8c3.1,4.7,4.9,10.3,4.9,16.3
				s-1.8,11.6-4.9,16.3c5.1,7.1,13.5,11.8,22.9,11.8c15.6,0,28.2-12.6,28.2-28.1S-323.7-49.9-339.3-49.9z M-399.3-39.1
				c2.9-0.7,4-1.8,8.2,0c0.3,0.1,0.6,0.4,0.5-0.2c-0.6-1.7-1.2-1.9-1.2-1.9c-2.9-0.5-5,0.3-7.5,1.7
				C-399.4-39.5-399.6-39.2-399.3-39.1z M-390.3-2.4c0,1.1,1,1.3,2.8,1.4v-0.5c1,0,1.9-0.2,1.9-0.9c0-0.6-0.8-0.9-1.9-0.9v-0.4
				C-389.4-3.6-390.3-3.1-390.3-2.4z M-388.1-1.8c-0.6,0.1-1.4,0-1.4-0.6c0-0.6,0.8-0.6,1.4-0.6V-1.8z"/>
			<polygon id="Path" class="st1" points="-345.8,-31.2 -338.8,-13.5 -331.9,-31.2 -328.2,-31.2 -328.2,-9.4 -331,-9.4 -331,-17.9 
				-330.8,-27 -337.8,-9.4 -339.9,-9.4 -346.9,-27 -346.6,-17.9 -346.6,-9.4 -349.4,-9.4 -349.4,-31.2 			"/>
		</g>
		<path id="Shape_1_" class="st0" d="M-8.5-15h-9.4L-20-9.3h-3l8.5-21.9h2.6l8.5,21.9h-3L-8.5-15z M-17.3-17.2h7.3l-3.7-10.3
			L-17.3-17.2z M12-28.8H5.1v19.5H2.2v-19.5h-6.9v-2.4H12V-28.8z M18.5-11.6h10.4v2.4H15.6v-21.9h2.9V-11.6L18.5-11.6z M44.8-15
			h-9.4l-2.1,5.7h-3l8.5-21.9h2.6l8.5,21.9h-3L44.8-15z M36.3-17.2h7.3l-3.7-10.3L36.3-17.2z M69.2-9.3h-2.9L55.4-26.1v16.9h-2.9
			v-21.9h2.9l10.9,16.9v-16.9h2.8V-9.3L69.2-9.3z M89.2-28.8h-6.9v19.5h-2.8v-19.5h-6.9v-2.4h16.6V-28.8z"/>
	</g>
</g>
</svg>
