<?xml version="1.0" encoding="utf-8"?>
<!-- Generator: Adobe Illustrator 26.0.2, SVG Export Plug-In . SVG Version: 6.00 Build 0)  -->
<svg version="1.1" id="Layer_1" xmlns="http://www.w3.org/2000/svg" xmlns:xlink="http://www.w3.org/1999/xlink" x="0px" y="0px"
	 viewBox="0 0 228.9 56.2" style="enable-background:new 0 0 228.9 56.2;" xml:space="preserve">
<style type="text/css">
	.st0{fill:#FFFFFF;}
	.st1{fill:#003DA5;}
	.st2{fill:none;}
</style>
<g id="SYMBOL_2_">
	<circle class="st0" cx="157.5" cy="28.3" r="25.7"/>
	<g id="M_3_">
		<path class="st1" d="M202.1,2c-9.7,0-18.1,5.2-22.7,12.9c2.4,3.9,3.8,8.5,3.8,13.3s-1.4,9.5-3.8,13.3c4.6,7.8,13,12.9,22.7,12.9
			c14.5,0,26.3-11.7,26.3-26.3S216.6,2,202.1,2z"/>
		<path class="st0" d="M191.4,36.7V19.9h3.3l7.5,12.8l7.5-12.8h3.3v16.8h-2.8V23.8l-7.3,12.6h-1.4l-7.2-12.5v12.8H191.4z"/>
	</g>
	<g>
		<path class="st2" d="M170.8,25.3c3.4-1.5,3.1-4.6,2.7-6l-1.1-0.2c0.1,2,0.2,4.1-2.1,5.2c-2.1,1-4.6-0.7-5.2-1.9l-1.1,0.3
			C165.3,24.6,168.1,26.5,170.8,25.3z"/>
		<path class="st2" d="M173.2,12.1c0.3,0,1.5,0.1,1.8-0.2c-0.3-0.3-0.6-0.7-1-1C173.7,11.2,172.8,11.8,173.2,12.1z"/>
		<path class="st2" d="M168.1,17.6c-2.6,1.8-2.5,3.1-6.6,3.7c1,0.5,2.3,1.1,4.1,0.4c2.8-1.2,1.3-2.8,6.1-3.3
			C171,17.6,169,17.2,168.1,17.6z"/>
		<path class="st2" d="M169.5,22.5c-1,0.3-2,0-2.3-1.2c-0.3,0-0.9,0.6-1.1,0.8c0.9,1.2,2.3,2.2,4,1.6c1-0.4,2.2-1.6,1.2-4.5
			c-0.5,0-0.8,0-1.3,0.3C171.2,20.6,170.6,22.1,169.5,22.5z"/>
		<path class="st2" d="M166.5,35.2c-0.4-0.2-0.6-0.2-1-0.1c0.2,0.7,1.9,1.9,2.8,1.7C166.7,36,167.3,35.6,166.5,35.2z"/>
		<path class="st2" d="M174.1,18.2c0,0.1,0,0.1,0,0.2c0.5,0.4,1,0.6,1.7,0.7c1.5,0,2.4-0.7,3-2c-0.2-0.4-0.5-0.9-0.7-1.3
			C177.5,17.3,175.6,18.2,174.1,18.2z"/>
		<path class="st2" d="M171.5,16.4c0.1,0.7,1.8,1,2.3,1.1c1,0,2.9-0.6,3.8-2.4c-0.5-0.7-1-1.4-1.5-2.1
			C175.3,16.4,172.5,15.2,171.5,16.4z"/>
		<path class="st2" d="M169.2,10.4c-2.1-1.8-3.6-1.6-6-1c-1,0.2-3.8,1.6-4.8,2.8c4.1-2.4,5.5-2.7,11.6-0.8
			C170,11.3,169.8,10.9,169.2,10.4z"/>
		<path class="st2" d="M163.8,20.1c3-1.7,3.5-4,6.8-4.2c1-0.4,3.5,0,4.6-3.3c-3.6,0.8-5.6,0.4-9.1-0.9c-4-1.2-9.3,0.2-8.7,5.5
			C157.9,20.1,161.3,21.1,163.8,20.1z M163.7,17.1c-0.8,1-3.2,1.8-4.1,0.2c-0.9-1.5,0.6-3.2,2.1-3.7c2.1-0.6,4.9,0,6.5,1.1
			C168,15,166,14.2,163.7,17.1z M161.7,12.2c3.2-0.5,5.2,1.1,8,1.6c0,0.1,0,0.1-0.1,0.2c-2,0-6.1-2.3-8.5-1.1
			c-0.8,0.4-1.1,0.5-2.6,2.6C159.1,13.1,160.9,12.3,161.7,12.2z"/>
		<path class="st2" d="M170.1,26.9c3.3-0.3,4.8-3,4.9-5.4h-0.1c-0.9,3.2-2.6,5-6.1,4.8c-3.2-0.1-4.9-2.3-8.2-5l-0.1,0.2
			C160.5,21.5,164.5,27.5,170.1,26.9z"/>
		<path class="st2" d="M168,28.3c3.1,0.1,5.7-1.7,6.7-3.5c-1.6,1.8-5.5,3.6-8.1,2.6c-1.1,0-4.8-3-5-2.9
			C163.7,27.2,166.8,28.3,168,28.3z"/>
		<path class="st2" d="M157.7,11.3c-0.3,0.6-0.2,1.2,0.3,0.6c0,0,2.6-2.4,4.9-3.2c1.4-0.5,2.4-0.5,5.3-0.4c0.9-0.4,0.5-1.1-0.1-1.6
			c-0.7-0.3-1.3-0.6-2-0.9C162.3,5.2,158.8,7.8,157.7,11.3z"/>
		<path class="st2" d="M169.8,9.4c0.2,0.1,0.5,0.5,0.5-0.3c0-0.3,0.1-0.6,0.4-0.8c-0.3-0.2-0.6-0.4-0.9-0.6
			C169.4,8.4,169.5,9,169.8,9.4z"/>
		<path class="st2" d="M170.8,10.8c0.3,0.3,0.6,0.4,0.6,0.2c-0.1-0.8,0.1-1.2,0.6-1.8c-0.2-0.2-0.5-0.4-0.7-0.5
			C170.7,9.2,170.3,9.8,170.8,10.8z"/>
		<path class="st2" d="M172,12.1c0.1,0,0.2,0,0.3-0.1c0.6-0.4,1.2-1.1,1.3-1.5c-0.3-0.3-0.7-0.6-1.1-0.9
			C172.1,10.2,171.4,12.1,172,12.1z"/>
		<path class="st2" d="M178.6,36.6c-1-1-2.7-2.6-4-2.9c0.2,0.5,0.4,1.1,0.4,1.6c1,0.6,3.4,2.4,4,3.6c0.2-0.4,0.4-0.8,0.6-1.2
			l-0.1-0.1C179.5,37.6,178.8,36.8,178.6,36.6z"/>
		<path class="st2" d="M172.7,42.7c0.8,1,1,1.6,1.2,3.1c0.3-0.3,0.6-0.6,0.9-0.9c-0.2-1.2-0.6-2-1.4-3
			C173.2,42.4,172.9,42.5,172.7,42.7z"/>
		<path class="st2" d="M174.5,40.6c-0.2,0.4-0.3,0.5-0.6,0.9c0.8,0.8,1.5,2.7,1.6,2.7l0.7-0.7c0-0.1,0.1-0.1,0.1-0.2
			C176,42.1,175.4,41.3,174.5,40.6z"/>
		<path class="st2" d="M175.2,38.7c-0.1,0.6-0.1,0.8-0.3,1.2c1,0.9,1.3,1.3,2,2.6c0.3-0.3,0.5-0.7,0.7-1.1
			C177.2,40.8,176.4,39.5,175.2,38.7z"/>
		<path class="st2" d="M181.5,28.3L181.5,28.3c0-0.4,0-0.7,0-1.1c-0.2-0.3-0.6-0.5-1-0.6c-0.4-0.1-1.3-0.7-0.8-1
			c0.9,0.4,1.1,0.5,1.7,0.7c0-0.3-0.1-0.6-0.1-1c-0.3-0.4-1-0.4-1.5-1c-0.1-0.1-0.3-0.3-0.3-0.6c0.4-0.3,1.1,0.5,1.6,0.6
			c0-0.2-0.1-0.4-0.1-0.6c-0.5-0.6-1.5-1.3-1.8-1.4v-0.2l0,0c0.5-0.2,1,0.4,1.6,0.5c-0.1-0.3-0.1-0.6-0.2-0.8
			c-0.3-0.2-0.6-0.6-1.5-0.9c0.3-0.6,0.7-0.3,1.2,0c-0.1-0.3-0.2-0.6-0.3-0.8c-0.3-0.2-0.9-0.4-1.1-0.4c0-0.1-0.2-0.1-0.2-0.6
			c0.2,0,0.6,0.2,0.9,0.2c-0.1-0.3-0.2-0.5-0.3-0.8c-0.3-0.1-0.6-0.2-0.7-0.1c-1.1,0.7-1.4,1.8-3.6,1.5c0.3,0.4,1,0.8,1.3,0.9
			c0.2,0.1,0.1,0.6-0.1,0.6l-0.6-0.1c0,0.3,0,0.5,0,0.8c0.3,0.2,0.6,0.2,0.6,0.7c-0.2,0.1-0.4,0-0.6,0.1c0,0.4-0.1,0.6-0.2,0.9
			c0.3,0.3,0.4,0.2,0.7,0.3c0.2,0.6-0.5,0.5-0.8,0.4l-0.2,0.9c0.8,0.4,1.4,0.9-0.2,0.7c-0.3,1.4-0.5,0.9,0.7,1.6
			c0.1,0.2,0.1,0.3-0.1,0.5c-0.3,0.2-0.7-0.3-1.1-0.4c-0.1,0.4-0.2,0.6-0.4,0.8c0.4,0.6,1.8,0.6,1.3,1.4c-0.2-0.1-1.6-0.6-1.8-0.6
			c-0.1,0.2-0.6,0.7-0.6,0.8c0.8,0.1,3.3,1.8,3.8,2.1c-0.1,0.2-0.2,0.2-0.4,0.5c0-0.3-4.6-2.9-5-1.5c3.3,1.4,5.9,3.2,8.6,5.4
			c0.1-0.3,0.2-0.7,0.4-1c-0.5-0.7-1.3-1-1.8-1.6c0-1.4,1.4,0.9,2.1,0.3c0.1-0.3,0.2-0.7,0.3-1c-0.6-0.3-1.6-1.1-1.6-1.1
			c-0.2-0.3-0.2-0.5,0.1-0.7c0.3,0,1.2,0.8,1.7,1c0.1-0.3,0.1-0.6,0.1-1c-0.6-0.3-1.2-1-1.8-1.3l0.2-0.6c0.6,0,1.1,0.8,1.8,0.8
			c0-0.3,0.1-0.7,0.1-1c-0.4-1.1-2.1-0.8-2.1-1.7C180,27.4,180.8,28.1,181.5,28.3z"/>
		<path class="st2" d="M158.3,8.4c0.5,0,0.6-0.5,0.7-0.6c1.3-1.4,2.9-2.6,4.6-2.7V5c-2-0.5-4.1-0.8-6.2-0.8v0.5
			c0.5,0.3,3.4,0.3,2.5,1.3c-0.8-0.2-1.6-0.4-2.4-0.5v0.8c0.5,0.3,0.8,0.1,1.5,0.5c-0.1,0.7-1,0.1-1.5,0.1v1
			C157.6,8.3,157.8,8.4,158.3,8.4z"/>
		<path class="st2" d="M164.7,45.2c1.2,1.6,2,3.5,2,5.3c0.4-0.2,0.8-0.4,1.2-0.6c-0.4-2.7-0.9-3.6-1.6-4.4L164.7,45.2z"/>
		<path class="st2" d="M161.8,33.3c-1.2,1.2-2,1.8-4.4,1.7v3.4c-0.1,0.8-2.9-0.1-3.4-0.1c-1.5,0.1-1.8,0.8-2.9,3.1
			c1.6-0.7,1.5-1.3,3.2-1.3c1.7,0,0.9,0.4,2.5,0.6V39h0.6c1.2,0.2,2.9,2.5,5.9,2.9c1.3,0.4,9.3-5.1,9.4-0.8c1,0.7,3.4-6-0.2-8.4
			c-1.4-0.9-5.2-1.1-6.8,1c3.3-0.9,3.8,1.4,5.3,1.5c3.4,0.3,1,2.2,2.6,3.2c-0.1,0.3-0.1,0.6-0.6,0.7c-0.6-0.6-0.2-1.3-1-1.8
			c-2.4-1.5-4.5,2.8-7.9,3.1c-2.2,0.7-6.2-1.7-6.1-4.2c2.3,0,4.4,0,6.2-1.7c2-1.4,0.2-4.5-1.6-3c-0.7,2,0.8,1.5,1.1,2.1
			C163,34.4,162,33.7,161.8,33.3z"/>
		<path class="st2" d="M158.3,24.4c0-0.2-0.7-1.8-0.8-1.7v7.2C158.5,29.9,159.1,28.8,158.3,24.4z"/>
		<path class="st2" d="M171.3,44.2c0.8,1.1,1,1.8,1,3c0.3-0.3,0.6-0.5,0.9-0.8c-0.2-1.2-0.3-2-1.1-2.9
			C172.1,43.5,171.4,44.1,171.3,44.2z"/>
		<path class="st2" d="M169.6,45.1c0.6,1.2,0.9,2.4,0.9,3.4c0.3-0.2,0.7-0.4,1-0.7c0-1.1-0.5-2.5-0.9-3.2
			C170.3,44.9,170.1,45,169.6,45.1z"/>
		<path class="st2" d="M169,45.3c-0.6,0.2-1.5,0.1-1.5,0.3c0.6,1.4,1.1,1.7,1.2,4c0.4-0.2,0.8-0.5,1.2-0.7
			C170,47.2,169.5,46.5,169,45.3z"/>
		<path class="st2" d="M175.3,36.5v1.1c1.1,0.7,2.1,2.1,2.6,3.2c0.3-0.4,0.5-0.8,0.7-1.3C178,38.4,176.3,36.8,175.3,36.5z"/>
		<path class="st2" d="M150.7,49.3c0.1,1.9,3.1,2.9,6.1,2.9v-0.6c-1.6,0-5-0.1-4.9-2.3c0.1-1.9,2.9-2,4.9-2v-0.6
			C153.3,46.6,150.9,47.2,150.7,49.3z"/>
		<path class="st2" d="M133.7,24.3c0.1-0.3,0.3-0.6,0.5-0.9c0.6-1.1,2.9-2.4,2.4-3.9c-0.3-0.9-0.4-1.7-0.3-2.6
			C135,19.2,134.2,21.7,133.7,24.3z"/>
		<path class="st2" d="M153.1,49.3c0,1.4,1.4,1.8,4.4,1.9v0.6c2.6-0.1,4.7-0.8,4.7-2.6c-0.1-1.6-1.9-2.2-4.7-2.3v0.7
			C154.8,47.6,153.1,47.8,153.1,49.3z M159.5,49.4c0,0.8-0.9,1-2,1v0.4c-1.9-0.1-3-0.3-3-1.5c0-0.8,1-1.3,3-1.3v0.4
			C158.7,48.3,159.5,48.7,159.5,49.4z"/>
		<path class="st2" d="M154.9,46.2h7.7c0.5-1.3,0.9-2.1,0.5-2.5c-1.3-1.2-4.1-0.5-5.6-0.6c-3.8-1.1-5.3-0.9-5.7,0.4
			C150.8,45.4,152.9,46.2,154.9,46.2z M160.4,44c0.1-0.3,0.3,0.1,0.5,0.1c0.1,0-0.1,0.1,0,0.2c-0.1,0.1-0.2,0-0.4,0
			C160.2,44.4,160.3,44.1,160.4,44z M159.4,43.8c0.1,0,0.3,0.1,0.4,0c0,0.2,0.1,0.3,0,0.5c-0.3,0-0.3,0-0.5,0
			C159.4,44,159.4,43.9,159.4,43.8z M158.2,43.7h0.6c0,0.2,0,0.3,0,0.5c-0.1,0.1-0.3,0.1-0.6,0.1V43.7z M160.1,44.7
			c0.3,0,0.2,0.2,0.1,0.4c-0.4,0.5-2.7,0.8-3.5,0.5v-0.9C157.9,44.8,158.4,45.2,160.1,44.7z M156.8,43.4c0.7-0.1,0.7,0.1,0.7,0.8
			l-0.7-0.1V43.4z"/>
		<path class="st2" d="M155.3,49.3c0,0.6,0.8,0.7,1.5,0.6v-1.2C156.2,48.6,155.4,48.7,155.3,49.3z"/>
		<path class="st2" d="M163.7,49.5c-0.7,1.8-1.7,2.3-4.1,2.8c1.5-0.1,2.9-0.4,4.3-0.8C163.9,51,163.9,50.5,163.7,49.5z"/>
		<path class="st2" d="M169.4,35.7c-1.5-0.7-1-1.3-2.5-1.4C167,35.2,168.7,35.8,169.4,35.7z"/>
		<path class="st2" d="M144,24.9c0.9,0.5,2.7,0.6,4.2-0.3c0.8-0.5,2.5-1.5,2.9-3.2c-0.4-0.3-1.1-0.2-1.4,0.5c-0.5,1-3.1,3.3-5.7,2.1
			c-1.5-0.4-2.5-3.1-2.9-2.5c-0.6,2.5,1.8,4.8,4.6,5c1.1,0.2,4-0.9,3.4-1.4c-0.2,0-0.6,0.1-1,0.3c-1.3,0.4-2.4,0.9-4.2,0
			C143.6,25.1,143.7,24.8,144,24.9z"/>
		<path class="st2" d="M149.9,19.8c0.2,0.7,0.9,0.9,0.8-0.1c-0.7-2.1-2-4.5-4.9-4c-2.2,0.4-3.3,3.5-5.8,2.3c0.3,1,0.7,1.9,1.9,2h0.1
			c0.3-0.1,4.4-1.9,6-0.3c0.1,0.1,0.4,0.3,0.4,0.3c0,0.1-0.1,0.1-0.3,0.1c0.4,3.1-4.8,2.5-3.5,0c-0.7,0.1-1,0.2-1.2,1.1
			c-0.1,0.9,0.6,1.9,2.3,2c5.1,0.2,4.3-5.2,0.2-5.3v-0.8C148.2,16.9,149.4,17.6,149.9,19.8z"/>
		<path class="st2" d="M137.5,20.6c0,0.4-2.2,2.6-2.8,3.8c-1.5,3-1,11,2.5,13.8c0.5,0.4,2.4,1.6,4.2,1.6c0.8,0,3.6-0.2,4.2-0.5
			l0.2,0.5c-1.2,0.5-4.7,0.6-6,0.5c-1.7-0.2-3.1-1.2-4.1-2c0.2,1.5,2.8,3,6.3,3c1.5-0.1,3.2-0.6,3.9-0.9l0.3,0.5c-2.1,1-3.2,1-5.8,1
			c-1.1,0-2.8-0.8-3.1-0.6c0.1,0.1,0.1,0.2,0.2,0.3c1.2,1.5,1.7,1.2,3.9,1.2c2,0,3.3-0.8,4.9-1.5l0.3,0.7c-0.9,0.2-1.7,0.8-2.6,1.1
			c-1.8,0.5-3.3,0.6-5.2,0.3c0.2,0.2,0.4,0.5,0.6,0.7c0.8,0.6,1.5,0.6,1.7,0.6c3.1,0,4.2-1.7,5.6-2.1l0.3,0.5c-0.2,0-2.3,1-2.8,1.3
			c-0.7,0.4-2,0.8-3.6,1c0.2,0.2,0.5,0.5,0.7,0.7c0.7,0.3,1.3,0,1.9-0.2c0.6-0.1,3.3-2.4,3.9-2.5l0.2,0.5c-0.6,0.3-1.7,1.4-2.4,1.9
			c-0.7,0.5-1.7,0.9-2.6,1.1c0.2,0.2,0.4,0.3,0.6,0.5c1.6,0.5,3.8-1.8,4.9-2.8c0.7,0.4-1.3,2.1-1.8,2.5c-0.5,0.4-1.1,0.8-1.9,1.2
			c0.1,0.1,0.3,0.2,0.4,0.3c1.9,0.4,3.5-1.6,4.3-3.2l0.4,0.1c-0.7,2.3-2.2,3.2-3.2,3.9c0.1,0.1,0.2,0.1,0.3,0.2
			c2,0.1,2.4-1.9,3.4-3.6c1.3,0.4-1.2,3.4-1.8,4.3c0.2,0.1,0.3,0.1,0.5,0.2c0.9,0.1,0.9-0.7,1.2-0.8c0.1,0.2,0.7,0.4,0.1,1.2
			c0.5,0.2,1.1,0.4,1.7,0.5c-1-0.8-1.2-2-1.2-2.9c0-0.4,0.3-1.5,0.9-1.9c0.9-0.5,0.5-0.7,0-0.9c-0.9-0.4-1.5-1.3-1.9-1.9
			c-0.2-0.4-1.3-0.8-0.8-1.6c0.6-0.6,0.9-0.4,1.6-1.2c1-1.2,1.2-2.8,3.8-3.8c0.6-0.2,1.4-0.4,1-1.3c-0.3-0.7-0.5-0.9-0.5-1.4
			c-0.3-0.4-0.6-0.5-1.1-0.5c-0.1,0-2.4,0.8-3.1-0.6l-1.4,2l-0.3-0.3l1.3-1.9c0-1.4,0.7-2.6,1.2-2.8c0.5,0.1-0.2,0.7-0.2,1.6
			c0.2,2.4,3,1.1,1.8-0.5c-0.2-1,0.4-1.6-0.9-1.6c-1.3,0.2-0.9-0.3-0.4-1.1l1.4-2.9c-0.6,0.1-0.8,0.7-1.5,1.7
			c-0.5,0.4-0.7,0-0.5-0.4c0.3-0.6,2.1-2.9,2.4-4.6c0.1-0.2,0-0.7-0.5-0.2c-3.1,4.3-5.7,5.5-8.6,4.8c-1.5-0.3-2.8-1.6-3.8-2.7
			c-8.2,1.3-2,21.1,7.8,11l0.4,0.3c-0.4,0.6-1.1,1.5-2.5,2.4c-6.3,3.2-11.2-3.5-11.2-9.4c0-1.5,0.6-5.1,4.2-6.4
			c1.7-0.4,0.8-1.1,0.6-1.9c-1.2-3.1,0.1-6.9,2-8.5l0.4-0.2c0.1,1-2.6,3.1-1.4,4.6c0.7,0.9,2.6-0.8,3.2-1.1c3.2-2.3,5.9-0.9,7.7,1.9
			c1,2.5,1.1,0.6,0.7-0.4c-1.5-4.6-6.8-4.3-9.3-2.7c-0.4,0.3-1.1,0.6-0.6-0.2c3-3.5,10.6-1.6,11.1,3.9l0.9,7.8
			c1,1.3-2.2,4.4-0.6,6.9c1,1.4,3.4,1.8,6.7,1c3.6-1.2,1.4-8.8,0.5-11c-0.5-1-1.3-2.8-1.8-2.3c0.4,1.3,1.7,4.6,1.2,4.7
			c-0.6-0.7-1.5-4.3-2.5-6.3v1.8c1,2,1.7,3.9,1.8,6.3c0.1,2.5-0.5,3.7-1.8,3.8v1.4c1.9-0.6,2.5-1.3,2.8-3.6l0,0l0.7-0.3
			c0.2,1.5-0.5,3-1.1,3.7c-0.4,0.4-1.2,1-3.1,0.9v-16c-0.4-3.6-7.3-6.2-9.8-6.1c-0.2-0.1-0.6-0.4,0.3-0.6c2.9-0.6,7.6,1.2,9.5,3.5
			v-2.5c0-1.3-1.1-3.7-2.7-4.6c-3.8-0.8-7.7,0.7-9.9,1.8c-2.5,1.6-4.6,3.6-6.3,6C137,16.3,137.2,17.8,137.5,20.6z M144.8,9.1
			c2.7-1.4,4.9-2.3,8.1-1.8c0,0,0.7,0.3,1.3,2.1c0.1,0.6-0.3,0.3-0.6,0.2c-4.6-1.9-5.7-0.8-8.9,0C144.4,9.4,144.6,9.1,144.8,9.1z"/>
		<path class="st2" d="M163.8,45.4c-0.2,0.4-0.3,0.6-0.6,1c1,1.5,1.7,3,1.4,4.9c0.4-0.1,0.9-0.3,1.3-0.5
			C165.9,49.1,165.4,46.9,163.8,45.4z"/>
		<path class="st2" d="M174,27c-2.4,1.4-3.5,2.1-5.7,2.1c-1.8,0-3.7-0.8-5.6-2.4l0,0c1.2,1.8,3.6,2.9,5.5,3
			C170.2,29.5,172.9,28.5,174,27z"/>
		<path class="st2" d="M170.2,40.4c-0.7,0-1.1,0-1.8,0.6c0.2,1.1,1.2,1.3,0.7,3.6C170.1,44.3,170.8,42.2,170.2,40.4z"/>
		<path class="st2" d="M166.1,38.6c-1.3-0.4-2.2-1.4-2.5-1.8c-0.2-0.3-1.1-0.3-1.4-0.3C162.5,37.2,165.1,39,166.1,38.6z"/>
		<path class="st2" d="M166.8,44.2c0.5-0.9,0.5-1.8,0.3-2.2c-0.5,0.1-1,0.3-1.6,0.4C166.2,43,166.3,43.4,166.8,44.2z"/>
		<path class="st2" d="M172.9,29L172.9,29c-0.9,1.1-3.1,1.6-5,1.5c-2.4-0.1-4.7-1.9-5-1.9c1,1.5,3.9,2.5,4.8,2.6
			C169.6,31.2,172.3,30.4,172.9,29z"/>
		<path class="st2" d="M167.2,37.8c-2.1-1.3-1.8-1.7-2.1-2c-0.4-0.3-0.8-0.1-1.2-0.1C164.1,36.6,166.3,37.9,167.2,37.8z"/>
		<path class="st2" d="M164.7,39.4c-1.9-0.8-2.4-1.6-2.8-2.1c-0.2-0.3-0.9-0.4-1.3-0.4C160.4,37.6,162.9,39.6,164.7,39.4z"/>
		<path class="st2" d="M159.1,41.6c-0.4-0.2-0.7-0.3-1.1-0.6C157.9,41.6,158.7,43.8,159.1,41.6z"/>
		<path class="st2" d="M159.9,37.5c-0.4-0.4-0.9-0.3-1.3-0.3c1.1,1.9,3.9,2.6,3.7,2.5C160.5,38.3,160.3,37.9,159.9,37.5z"/>
		<path class="st1" d="M154.5,49.3c0,1.2,1.1,1.4,3,1.5v-0.5c1.1,0,2.1-0.2,2-1c0-0.6-0.8-1-2-0.9V48
			C155.5,48,154.4,48.6,154.5,49.3z M156.8,49.9c-0.7,0.1-1.5,0-1.5-0.6c0-0.6,0.9-0.7,1.5-0.6V49.9z"/>
		<path class="st1" d="M144.8,9.5c3.1-0.8,4.3-1.9,8.9,0c0.3,0.2,0.6,0.4,0.6-0.2c-0.6-1.8-1.3-2.1-1.3-2.1
			c-3.2-0.5-5.5,0.4-8.1,1.8C144.6,9.1,144.4,9.4,144.8,9.5z"/>
		<path class="st1" d="M158.7,43.7h-0.6v0.6c0.3,0,0.5,0,0.6-0.1C158.7,44,158.7,43.9,158.7,43.7z"/>
		<path class="st1" d="M161.2,13c2.3-1.2,6.5,1.1,8.5,1.1c0-0.1,0.1-0.1,0.1-0.2c-2.8-0.6-4.8-2.1-8-1.6c-0.8,0.1-2.7,1-3.1,3.3
			C160.1,13.4,160.4,13.3,161.2,13z"/>
		<path class="st1" d="M156.8,43.4v0.8l0.7,0.1C157.5,43.5,157.5,43.4,156.8,43.4z"/>
		<path class="st1" d="M161.7,13.5c-1.6,0.5-3,2.2-2.1,3.7c1,1.6,3.4,0.8,4.1-0.2c2.3-2.9,4.4-2.1,4.5-2.4
			C166.6,13.5,163.7,13,161.7,13.5z"/>
		<path class="st1" d="M160.5,44.4c0.1,0,0.3,0.1,0.4,0c0-0.1,0.1-0.1,0-0.2c-0.2-0.1-0.4-0.5-0.5-0.1
			C160.3,44.1,160.2,44.4,160.5,44.4z"/>
		<path class="st1" d="M156.8,45.6c0.8,0.3,3.1,0.1,3.5-0.5c0.1-0.1,0.2-0.3-0.1-0.4c-1.8,0.5-2.4,0.1-3.4-0.1V45.6z"/>
		<path class="st1" d="M159.8,44.3c0.1-0.2,0-0.3,0-0.5c-0.2,0-0.3,0-0.4,0c-0.1,0.1-0.1,0.3-0.1,0.5
			C159.5,44.3,159.6,44.3,159.8,44.3z"/>
		<path class="st1" d="M183.7,28.3C183.7,13.7,172,2,157.5,2s-26.3,11.7-26.3,26.3s11.7,26.3,26.3,26.3
			C171.9,54.6,183.7,42.8,183.7,28.3z M181.5,29.5c0,0.3,0,0.7-0.1,1c-0.7,0-1.2-0.8-1.8-0.8l-0.2,0.6c0.6,0.3,1.2,1,1.8,1.3
			c0,0.3-0.1,0.6-0.1,1c-0.5-0.2-1.4-1-1.7-1c-0.3,0.3-0.3,0.5-0.1,0.7c0,0,1,0.8,1.6,1.1c-0.1,0.4-0.2,0.7-0.3,1
			c-0.7,0.6-2.1-1.7-2.1-0.3c0.5,0.5,1.3,0.9,1.8,1.6c-0.1,0.4-0.2,0.7-0.4,1c-2.7-2.3-5.3-4.1-8.6-5.4c0.4-1.4,5,1.2,5,1.5
			c0.1-0.3,0.3-0.3,0.4-0.5c-0.5-0.3-3.1-2-3.8-2.1c0-0.1,0.5-0.6,0.6-0.8c0.2,0,1.6,0.5,1.8,0.6c0.6-0.7-0.8-0.8-1.3-1.4
			c0.2-0.2,0.3-0.5,0.4-0.8c0.3,0.1,0.8,0.7,1.1,0.4c0.2-0.2,0.2-0.3,0.1-0.5c-1.1-0.8-1-0.2-0.7-1.6c1.6,0.2,1-0.3,0.2-0.7l0.2-0.9
			c0.4,0.1,1,0.2,0.8-0.4c-0.3-0.1-0.3-0.1-0.7-0.3c0.1-0.3,0.1-0.5,0.2-0.9c0.3-0.1,0.4,0,0.6-0.1c0.1-0.4-0.3-0.4-0.6-0.7
			c0.1-0.3,0-0.5,0-0.8l0.6,0.1c0.1,0,0.3-0.5,0.1-0.6c-0.4-0.1-1.1-0.5-1.3-0.9c2.3,0.3,2.5-0.7,3.6-1.5c0.1-0.1,0.5,0,0.7,0.1
			c0.1,0.3,0.2,0.5,0.3,0.8c-0.3,0-0.7-0.2-0.9-0.2c-0.1,0.5,0.2,0.5,0.2,0.6c0.2,0.1,0.7,0.2,1.1,0.4c0.1,0.3,0.2,0.5,0.3,0.8
			c-0.6-0.3-0.9-0.6-1.2,0c0.9,0.3,1.2,0.7,1.5,0.9c0.1,0.3,0.2,0.6,0.2,0.8c-0.5-0.1-1.1-0.7-1.6-0.5l0,0v0.2
			c0.3,0.1,1.4,0.8,1.8,1.4c0,0.2,0.1,0.4,0.1,0.6c-0.6-0.1-1.2-0.9-1.6-0.6c0,0.3,0.2,0.5,0.3,0.6c0.5,0.5,1.2,0.6,1.5,1
			c0,0.3,0.1,0.6,0.1,1c-0.6-0.2-0.8-0.3-1.7-0.7c-0.5,0.3,0.4,0.9,0.8,1c0.4,0.1,0.8,0.4,1,0.6c0,0.4,0,0.7,0,1.1l0,0
			c-0.7-0.3-1.5-1-2.1-0.5C179.4,28.7,181,28.4,181.5,29.5z M179,38.9c-0.6-1.2-3-3-4-3.6c0-0.5-0.2-1.2-0.4-1.6
			c1.3,0.3,3,1.8,4,2.9c0.2,0.2,0.8,1,0.8,1c0.1,0.1,0.1,0.1,0.1,0.1C179.4,38.1,179.2,38.5,179,38.9z M178,40.8
			c-0.5-1.1-1.6-2.4-2.6-3.2v-1.1c0.9,0.2,2.6,1.9,3.4,3C178.5,39.9,178.2,40.4,178,40.8z M176.8,42.5c-0.6-1.3-1-1.7-2-2.6
			c0.2-0.4,0.2-0.7,0.3-1.2c1.2,0.8,2,2.1,2.4,2.8C177.3,41.8,177.1,42.1,176.8,42.5z M176.2,43.3l-0.7,0.7c-0.1,0-0.8-1.9-1.6-2.7
			c0.3-0.3,0.4-0.4,0.6-0.9c0.9,0.7,1.5,1.6,1.8,2.6C176.3,43.2,176.2,43.3,176.2,43.3z M173.9,45.8c-0.2-1.5-0.4-2-1.2-3.1
			c0.2-0.2,0.5-0.4,0.7-0.9c0.9,1,1.2,1.8,1.4,3C174.5,45.2,174.2,45.5,173.9,45.8z M172.3,47.2c-0.1-1.1-0.2-1.8-1-3
			c0.1-0.1,0.8-0.7,0.9-0.7c0.8,0.9,0.9,1.7,1.1,2.9C172.9,46.7,172.6,46.9,172.3,47.2z M170.6,48.4c0-1-0.3-2.2-0.9-3.4
			c0.5-0.1,0.7-0.2,1-0.5c0.4,0.7,0.9,2.1,0.9,3.2C171.2,48,170.9,48.2,170.6,48.4z M168.7,49.5c-0.1-2.3-0.5-2.6-1.2-4
			c-0.1-0.2,0.9-0.1,1.5-0.3c0.6,1.2,1,2,1,3.5C169.5,49.1,169.1,49.3,168.7,49.5z M166.7,50.5c0-1.8-0.8-3.7-2-5.3l1.6,0.3
			c0.8,0.9,1.2,1.7,1.6,4.4C167.5,50.1,167.1,50.3,166.7,50.5z M162.4,31.8c1.9-1.4,3.6,1.6,1.6,3c-1.8,1.7-3.9,1.7-6.2,1.7
			c-0.1,2.4,3.9,4.8,6.1,4.2c3.4-0.3,5.5-4.6,7.9-3.1c0.8,0.5,0.4,1.2,1,1.8c0.5,0,0.5-0.3,0.6-0.7c-1.5-1,0.8-2.9-2.6-3.2
			c-1.4-0.1-1.9-2.4-5.3-1.5c1.6-2.2,5.4-1.9,6.8-1c3.6,2.4,1.2,9.1,0.2,8.4c-0.1-4.3-8.1,1.2-9.4,0.8c-3-0.4-4.6-2.7-5.9-2.9h-0.5
			v1.6c-1.6-0.1-0.8-0.6-2.5-0.6c-1.7,0-1.7,0.6-3.2,1.3c1.1-2.4,1.5-3,2.9-3.1c0.5,0,3.3,0.9,3.4,0.1v-3.4c2.4,0.1,3.2-0.6,4.4-1.7
			c0.2,0.4,1.3,1.1,1.7,0.6C163.1,33.3,161.6,33.7,162.4,31.8z M157.5,22.7c0.1-0.1,0.8,1.5,0.8,1.7c0.8,4.3,0.2,5.5-0.8,5.5V22.7z
			 M157.5,6.9c0.5,0,1.4,0.6,1.5-0.1c-0.7-0.4-0.9-0.2-1.5-0.5V5.5c0.9,0.1,1.6,0.3,2.4,0.5c1-1-2-1-2.4-1.3V4.3
			c2.1,0,4.2,0.3,6.2,0.8v0.1c-1.7,0.1-3.3,1.3-4.6,2.7c-0.1,0.1-0.3,0.6-0.7,0.6c-0.5,0-0.7-0.2-0.8-0.6L157.5,6.9L157.5,6.9z
			 M168,6.7c0.6,0.5,1,1.1,0.1,1.6c-2.9-0.1-3.9-0.1-5.3,0.4c-2.3,0.8-4.9,3.2-4.9,3.2c-0.6,0.6-0.6,0-0.3-0.6
			c1.1-3.5,4.7-6.1,8.3-5.5C166.6,6.1,167.3,6.4,168,6.7z M178.8,17.1c-0.6,1.3-1.5,2-3,2c-0.7-0.1-1.2-0.3-1.7-0.7
			c0-0.1,0-0.2,0-0.2c1.5,0,3.4-0.8,3.9-2.4C178.3,16.3,178.5,16.7,178.8,17.1z M177.6,15.2c-0.9,1.8-2.8,2.4-3.8,2.4
			c-0.6-0.1-2.3-0.4-2.3-1.1c1-1.2,3.8-0.1,4.6-3.4C176.6,13.7,177.1,14.4,177.6,15.2z M170,19.4c0.5-0.3,0.8-0.3,1.3-0.3
			c0.9,2.9-0.2,4.1-1.2,4.5c-1.7,0.7-3.1-0.4-4-1.6c0.2-0.2,0.9-0.7,1.1-0.8c0.3,1.2,1.3,1.5,2.3,1.2
			C170.6,22.1,171.2,20.6,170,19.4z M165.5,21.6c-1.7,0.7-3.1,0.2-4.1-0.4c4.1-0.6,4-1.9,6.6-3.7c0.9-0.4,3,0,3.6,0.8
			C166.8,18.8,168.3,20.4,165.5,21.6z M165.2,22.4c0.6,1.2,3.1,2.9,5.2,1.9c2.3-1.1,2.2-3.1,2.1-5.2l1.1,0.2c0.4,1.4,0.7,4.5-2.7,6
			c-2.7,1.2-5.5-0.7-6.7-2.6L165.2,22.4z M175,11.9c-0.4,0.3-1.5,0.2-1.8,0.2c-0.3-0.4,0.5-1,0.9-1.2
			C174.4,11.3,174.7,11.6,175,11.9z M173.5,10.5c0,0.4-0.7,1.1-1.3,1.5c-0.1,0-0.2,0.1-0.3,0.1c-0.7,0,0.1-1.9,0.5-2.5
			C172.8,9.9,173.2,10.2,173.5,10.5z M172,9.2c-0.5,0.7-0.6,1-0.6,1.8c0,0.2-0.3,0.1-0.6-0.2c-0.4-1-0.1-1.6,0.4-2.2
			C171.5,8.8,171.7,9,172,9.2z M170.7,8.3c-0.3,0.2-0.4,0.4-0.4,0.8c0,0.8-0.4,0.4-0.5,0.3c-0.3-0.4-0.5-1,0-1.6
			C170.1,7.9,170.4,8.1,170.7,8.3z M170,11.6c-6.2-1.9-7.6-1.7-11.6,0.8c1-1.2,3.8-2.6,4.8-2.8c2.5-0.6,3.9-0.8,6,1
			C169.8,10.9,170,11.3,170,11.6z M166.1,11.9c3.5,1.2,5.6,1.7,9.1,0.9c-1.2,3.2-3.7,2.9-4.6,3.3c-3.2,0.2-3.8,2.6-6.8,4.2
			c-2.6,1-6.1,0-6.4-2.9C156.9,12.1,162.1,10.6,166.1,11.9z M160.6,21.3c3.3,2.8,5,4.9,8.2,5c3.5,0.2,5.1-1.7,6.1-4.8h0.1
			c-0.1,2.3-1.6,5-4.9,5.4c-5.6,0.6-9.6-5.4-9.6-5.4L160.6,21.3z M166.5,27.4c2.6,1,6.5-0.8,8.1-2.6c-1,1.9-3.5,3.6-6.7,3.5
			c-1.2,0-4.3-1.1-6.4-3.8C161.7,24.4,165.4,27.4,166.5,27.4z M168.3,36.8c-0.9,0.2-2.5-0.9-2.8-1.7c0.3-0.1,0.5-0.1,1,0.1
			C167.3,35.6,166.7,36,168.3,36.8z M167,34.4c1.5,0.1,1,0.7,2.5,1.4C168.7,35.8,167,35.2,167,34.4z M160.7,37c0.4,0,1,0.1,1.3,0.4
			c0.4,0.5,0.9,1.3,2.8,2.1C162.9,39.6,160.4,37.6,160.7,37z M158.7,37.1c0.3,0,0.9,0,1.3,0.3c0.4,0.4,0.5,0.9,2.5,2.2
			C162.5,39.8,159.8,39,158.7,37.1z M162.2,36.5c0.3,0,1.2,0,1.4,0.3c0.3,0.4,1.2,1.4,2.5,1.8C165.1,39,162.5,37.2,162.2,36.5z
			 M163.9,35.8c0.4,0,0.7-0.2,1.2,0.1c0.4,0.2,0,0.7,2.1,2C166.3,37.9,164.1,36.6,163.9,35.8z M162.9,28.6c0.3,0,2.6,1.8,5,1.9
			c1.9,0.1,4.1-0.3,4.9-1.5h0.1c-0.6,1.4-3.3,2.2-5.2,2.1C166.8,31.1,163.9,30.1,162.9,28.6z M168.1,29.7c-1.9-0.2-4.2-1.2-5.5-3
			l0,0c1.9,1.6,3.9,2.3,5.6,2.4c2.2,0,3.3-0.7,5.7-2.1C172.9,28.5,170.2,29.5,168.1,29.7z M168.4,41.1c0.7-0.6,1-0.7,1.8-0.6
			c0.6,1.8-0.1,3.9-1.1,4.2C169.6,42.3,168.6,42.1,168.4,41.1z M166.8,44.2c-0.5-0.7-0.6-1.1-1.3-1.8c0.6-0.1,1.1-0.3,1.6-0.4
			C167.3,42.4,167.4,43.3,166.8,44.2z M159.1,41.6c-0.4,2.2-1.2,0.1-1.1-0.6C158.4,41.2,158.7,41.4,159.1,41.6z M151.7,43.5
			c0.5-1.2,1.9-1.5,5.7-0.4c1.6,0.1,4.3-0.7,5.6,0.6c0.5,0.4,0.1,1.3-0.5,2.5h-7.7C152.9,46.2,150.8,45.4,151.7,43.5z M157.5,47
			c2.8,0.1,4.6,0.7,4.7,2.3c0.1,1.7-2.1,2.5-4.7,2.6v-0.6c-3-0.1-4.4-0.5-4.4-1.9c0-1.5,1.8-1.7,4.4-1.6V47z M156.8,46.7v0.6
			c-2,0-4.8,0.1-4.9,2c-0.1,2.2,3.3,2.3,4.9,2.3v0.6c-3,0.1-6-0.9-6.1-2.9C150.9,47.2,153.3,46.6,156.8,46.7z M159.6,52.3
			c2.3-0.5,3.4-1,4.1-2.8c0.3,1,0.3,1.5,0.2,2C162.5,51.9,161.1,52.1,159.6,52.3z M164.6,51.3c0.3-1.9-0.4-3.4-1.4-4.9
			c0.2-0.3,0.4-0.6,0.6-1c1.6,1.5,2.1,3.7,2.1,5.4C165.5,51,165,51.1,164.6,51.3z M144.2,8.2c2.2-1.1,6-2.7,9.9-1.8
			c1.6,0.8,2.7,3.3,2.7,4.6v2.5c-1.9-2.4-6.6-4.1-9.5-3.5c-0.9,0.2-0.4,0.5-0.3,0.6c2.5,0,9.4,2.6,9.8,6.1v16
			c1.9,0.1,2.7-0.5,3.1-0.9c0.6-0.6,1.3-2.2,1.1-3.7l-0.7,0.3l0,0c-0.3,2.3-0.9,3-2.8,3.6v-0.9c1.3-0.1,1.9-1.3,1.8-3.8
			c-0.1-2.4-0.8-4.3-1.8-6.3v-1.8c1,1.9,1.8,5.6,2.5,6.3c0.5-0.2-0.7-3.5-1.2-4.7c0.5-0.6,1.3,1.3,1.8,2.3c0.9,2.2,3.1,9.9-0.5,11
			c-3.3,0.8-5.7,0.5-6.7-1c-1.5-2.6,1.6-5.7,0.6-6.9l-0.9-7.8c-0.6-5.5-8.2-7.4-11.1-3.9c-0.5,0.8,0.2,0.5,0.6,0.2
			c2.4-1.6,7.7-1.9,9.3,2.7c0.4,0.9,0.3,2.8-0.7,0.4c-1.8-2.9-4.6-4.2-7.7-1.9c-0.5,0.3-2.5,2.1-3.2,1.1c-1.2-1.5,1.5-3.7,1.4-4.6
			l-0.4,0.2c-1.9,1.6-3.2,5.5-2,8.5c0.2,0.8,1.1,1.5-0.6,1.9c-3.6,1.3-4.2,4.9-4.2,6.4c0,5.9,5,12.5,11.2,9.4c1.3-0.8,2-1.7,2.5-2.4
			l-0.4-0.3c-9.8,10.2-15.9-9.7-7.8-11c1,1.1,2.3,2.4,3.8,2.7c2.9,0.6,5.5-0.5,8.6-4.8c0.5-0.5,0.6,0,0.5,0.2
			c-0.3,1.6-2.1,3.9-2.4,4.6c-0.2,0.4,0,0.9,0.5,0.4c0.7-0.9,0.9-1.6,1.5-1.7l-1.4,2.9c-0.5,0.8-0.9,1.2,0.4,1.1
			c1.3,0,0.7,0.6,0.9,1.6c1.2,1.7-1.6,2.9-1.8,0.5c0-0.9,0.7-1.5,0.2-1.6c-0.5,0.2-1.1,1.4-1.2,2.8l-1.3,1.9l0.3,0.3l1.4-2
			c0.6,1.4,2.9,0.6,3.1,0.6c0.5,0,0.8,0.1,1.1,0.5c0,0.5,0.2,0.7,0.5,1.4c0.5,1-0.3,1.1-1,1.3c-2.6,1-2.7,2.5-3.8,3.8
			c-0.7,0.8-1,0.6-1.6,1.2c-0.5,0.8,0.6,1.2,0.8,1.6c0.3,0.6,1,1.5,1.9,1.9c0.6,0.2,0.9,0.3,0,0.9c-0.7,0.4-0.9,1.6-0.9,1.9
			c0,0.9,0.2,2,1.2,2.9c-0.6-0.1-1.1-0.3-1.7-0.5c0.6-0.8,0-1-0.1-1.2c-0.3,0.1-0.3,0.8-1.2,0.8c-0.2-0.1-0.3-0.1-0.5-0.2
			c0.6-0.9,3.1-3.9,1.8-4.3c-1,1.7-1.5,3.7-3.4,3.6c-0.1-0.1-0.2-0.1-0.3-0.2c1-0.8,2.5-1.6,3.2-3.9l-0.4-0.1
			c-0.8,1.7-2.4,3.7-4.3,3.2c-0.1-0.1-0.3-0.2-0.4-0.3c0.9-0.4,1.5-0.8,1.9-1.2c0.5-0.4,2.5-2.1,1.8-2.5c-1.1,1.1-3.3,3.4-4.9,2.8
			c-0.2-0.2-0.4-0.3-0.6-0.5c0.9-0.3,1.9-0.6,2.6-1.1c0.7-0.5,1.8-1.5,2.4-1.9L147,44c-0.6,0.1-3.3,2.3-3.9,2.5
			c-0.6,0.2-1.2,0.5-1.9,0.2c-0.3-0.2-0.5-0.5-0.7-0.7c1.5-0.2,2.9-0.6,3.6-1c0.6-0.4,2.6-1.3,2.8-1.3l-0.3-0.5
			c-1.4,0.5-2.5,2.1-5.6,2.1c-0.2,0-0.9,0-1.7-0.6c-0.2-0.2-0.4-0.5-0.6-0.7c1.8,0.3,3.4,0.2,5.2-0.3c0.9-0.3,1.7-0.9,2.6-1.1
			l-0.3-0.7c-1.7,0.7-2.9,1.5-4.9,1.5c-2.2,0-2.6,0.3-3.9-1.2c-0.1-0.1-0.1-0.2-0.2-0.3c0.3-0.2,1.9,0.6,3.1,0.6
			c2.5,0,3.7-0.1,5.8-1l-0.3-0.5c-0.7,0.3-2.4,0.8-3.9,0.9c-3.4,0-6.1-1.5-6.3-3c1,0.8,2.4,1.8,4.1,2c1.3,0.1,4.7,0,6-0.5l-0.2-0.5
			c-0.6,0.3-3.4,0.5-4.2,0.5c-1.8,0-3.7-1.2-4.2-1.6c-3.5-2.8-4-10.9-2.5-13.8c0.6-1.3,2.9-3.4,2.8-3.8c-0.3-2.8-0.5-4.4,0.5-6.5
			C139.7,11.9,141.8,9.8,144.2,8.2z M143.9,25.3c1.8,0.9,2.9,0.5,4.2,0c0.3-0.3,0.8-0.4,1-0.3c0.5,0.6-2.3,1.7-3.4,1.4
			c-2.8-0.2-5.2-2.6-4.6-5c0.5-0.6,1.4,2.1,2.9,2.5c2.6,1.1,5.2-1.1,5.7-2.1c0.3-0.7,1.1-0.8,1.4-0.5c-0.3,1.8-2.1,2.7-2.9,3.2
			c-1.6,0.9-3.3,0.8-4.2,0.3C143.7,24.8,143.6,25.1,143.9,25.3z M145.9,17.9c4,0.1,4.8,5.5-0.2,5.3c-1.7-0.1-2.4-1.1-2.3-2
			c0.1-0.9,0.5-1,1.2-1.1c-1.3,2.4,3.9,3.1,3.5,0c0.2-0.1,0.3,0,0.3-0.1c0,0-0.3-0.2-0.4-0.3c-1.6-1.6-5.7,0.2-6,0.3h-0.1
			c-1.3-0.1-1.6-0.9-1.9-2c2.6,1.2,3.6-1.9,5.8-2.3c2.9-0.5,4.1,1.9,4.9,4c0.1,1-0.5,0.8-0.8,0.1c-0.5-2.2-1.7-2.9-4-2.7V17.9z
			 M136.6,19.5c0.5,1.5-1.7,2.8-2.4,3.9c-0.2,0.3-0.3,0.6-0.5,0.9c0.4-2.6,1.3-5.1,2.5-7.4C136.2,17.8,136.3,18.7,136.6,19.5z"/>
	</g>
</g>
<g id="ATLANT_1_">
	<path class="st1" d="M0.1,36.5l8.6-16.8h3.3l8.6,16.8h-2.9l-2-3.8H5.1l-2,3.8H0.1z M14.9,31l-4.5-8.7L5.8,31
		C5.8,31,14.9,31,14.9,31z"/>
	<path class="st1" d="M20.7,19.8h18v2.1h-7.6v14.6h-2.9V21.9h-7.6C20.7,21.9,20.7,19.8,20.7,19.8z"/>
	<path class="st1" d="M41,36.8l-0.3-2c0.5-0.1,0.9-0.3,1.4-0.6c0.4-0.3,0.9-0.7,1.3-1.3c0.4-0.6,0.8-1.3,1-2.3
		c0.3-1,0.4-2.1,0.4-3.4v-7.6h14.9v16.8h-2.8V21.8h-9.4v5.7c0,1.7-0.2,3.1-0.6,4.3c-0.4,1.2-0.9,2.2-1.6,2.9
		c-0.7,0.7-1.4,1.2-2.1,1.5C42.6,36.5,41.8,36.7,41,36.8z"/>
	<path class="st1" d="M63.5,36.5L72,19.7h3.3l8.6,16.8h-2.8l-2-3.8H68.4l-2,3.8H63.5z M78.2,31l-4.6-8.7L69.2,31H78.2z"/>
	<path class="st1" d="M90.6,19.8v7.4h12.3v-7.4h2.8v16.8h-2.8v-7.3H90.6v7.3h-2.8V19.8H90.6z"/>
	<path class="st1" d="M109.4,19.8h18v2.1h-7.6v14.6h-2.9V21.9h-7.6V19.8z"/>
</g>
</svg>
