<svg id="Logo-sm" xmlns="http://www.w3.org/2000/svg" viewBox="0 0 566.69 566.69"><defs><style>.cls-1{fill:#1a459d;}.cls-2{fill:#fff;}.cls-3{fill:none;}</style></defs><g id="M"><path class="cls-1" d="M413.25,130.19a153.12,153.12,0,0,0-132,75.39,149.62,149.62,0,0,1-.07,155.49A153.21,153.21,0,1,0,413.25,130.19Z"/><path class="cls-2" d="M351.68,332.26V234.51H371l43.29,74.71,43.43-74.71h18.85v97.75H460v-75l-42,73.59h-8l-42-73.31v74.7Z"/></g><path class="cls-3" d="M231.33,265.73c20-8.75,18.13-26.64,15.93-34.73l-6.12-1.37c.77,11.78,1.25,23.79-12.08,30-12.12,5.77-26.51-4-30.2-10.88l-6.3,2C199.58,261.86,215.69,272.56,231.33,265.73Z"/><path class="cls-3" d="M245.12,188.9c1.81,0,8.52.41,10.67-1.11-1.85-2-3.74-3.91-5.7-5.78C248.11,183.27,243.23,186.8,245.12,188.9Z"/><path class="cls-3" d="M215.52,221.07c-15.11,10.22-14.28,18.08-38.3,21.29,5.7,3,13.55,6.48,23.49,2.14,16.29-7.14,7.61-16.48,35.61-19C232.81,221.25,220.92,218.87,215.52,221.07Z"/><path class="cls-3" d="M223.9,249.43c-5.71,1.85-11.48.18-13.44-7-1.61.18-5.12,3.45-6.54,4.46,5.05,7,13.61,12.9,23.31,9,6-2.45,12.49-9.16,7.07-25.93a11.6,11.6,0,0,0-7.25,1.66C233.53,238.67,230.44,247.29,223.9,249.43Z"/><path class="cls-3" d="M206.3,323.81a7,7,0,0,0-5.59-.52c1.42,4.33,10.94,10.75,16,9.56C207.48,328.34,210.87,326,206.3,323.81Z"/><path class="cls-3" d="M250.47,224.52a3.35,3.35,0,0,0-.23,1.31,17.23,17.23,0,0,0,9.75,3.92c8.69,0,14.07-3.9,17.55-11.34q-2-3.82-4.24-7.52C270.35,219.61,259.13,224.75,250.47,224.52Z"/><path class="cls-3" d="M235.43,214.41c.47,4,10.29,5.89,13.61,6.3,5.51,0,16.78-3.22,21.86-13.63a140,140,0,0,0-9-12.26C257.55,213.94,241,207.27,235.43,214.41Z"/><path class="cls-3" d="M222,179c-12.33-10.23-20.67-9.16-35.06-5.54C181.32,174.69,165,183,159.32,190c23.79-14.15,31.69-15.4,67.73-4.46C227.05,184.09,225.37,181.86,222,179Z"/><path class="cls-3" d="M191.13,235.82c17.25-9.76,20.57-23.25,39.37-24.56,5.53-2.21,20-.24,26.75-19-20.69,4.87-32.4,2.07-52.92-5.06-23.19-7.08-54,1.24-50.42,31.68C155.87,235.88,176.32,241.35,191.13,235.82ZM190,218.15c-4.4,5.53-18.44,10.29-24,1.08-5.23-8.63,3.4-18.78,12.43-21.59,11.89-3.69,28.66-.24,37.45,6.54C215.34,206.14,203.34,201.4,190,218.15Zm-11.18-28.83c18.43-2.86,30.14,6.24,46.49,9.51a4.77,4.77,0,0,1-.36,1.37c-11.47.24-35.49-13.14-49.05-6.36-4.64,2.32-6.37,2.73-15.22,14.8C163,195.32,174.25,190,178.83,189.32Z"/><path class="cls-3" d="M227.17,275c19.08-2,27.82-17.54,28.24-31.16h-.65c-5.48,18.38-15,28.9-35.09,28C201,271,191,258.71,172.16,242.65l-.41,1S194.7,278.28,227.17,275Z"/><path class="cls-3" d="M215,283c18.26.29,32.89-9.58,38.65-20.45-9,10.7-31.75,21-46.91,15.33-6.36.18-27.94-17.12-28.78-17C190.19,276.78,208.26,282.91,215,283Z"/><path class="cls-3" d="M154.86,184c-1.55,3.21-1.43,6.95,2,3.45,0,0,14.79-14,28.25-18.61,8-2.76,14-2.92,30.56-2.2,5-2.6,2.72-6.25-.78-9.14-3.85-1.88-7.8-3.6-11.83-5.13C182,148.42,161.23,163.93,154.86,184Z"/><path class="cls-3" d="M225.68,172.91c.89.47,3,3,3-1.79a4.35,4.35,0,0,1,2.31-4.41c-1.66-1.11-3.34-2.19-5.05-3.22A7.48,7.48,0,0,0,225.68,172.91Z"/><path class="cls-3" d="M231.27,181.17c1.84,1.84,3.62,2.26,3.56,1.13-.45-4.56.41-6.72,3.26-10.51q-2.1-1.59-4.26-3.12C230.56,171.93,228.72,175.51,231.27,181.17Z"/><path class="cls-3" d="M238.4,188.67a3.43,3.43,0,0,0,1.61-.54c3.47-2.59,7-6.3,7.26-8.73-2-1.81-4.06-3.56-6.17-5.25C238.9,177.45,234.63,188.5,238.4,188.67Z"/><path class="cls-3" d="M276.76,331.73c-6-6-15.53-15-23.25-16.71,1,2.61,2.44,6.54,2.44,9.51,5.61,3.36,19.62,13.71,23.05,20.73,1.14-2.31,2.22-4.64,3.24-7a3.74,3.74,0,0,0-.65-.84S278.07,333.05,276.76,331.73Z"/><path class="cls-3" d="M242.32,367.47c4.76,6.07,5.87,9.27,6.91,17.85,1.86-1.75,3.69-3.55,5.45-5.4-1.35-6.92-3.37-11.43-8.31-17.39C245.07,365.32,243.58,366.09,242.32,367.47Z"/><path class="cls-3" d="M252.8,354.74a11.29,11.29,0,0,1-3.34,4.93c4.82,4.64,9,15.47,9.27,15.41l3.93-4.27c.27-.33.54-.66.8-1A34.55,34.55,0,0,0,252.8,354.74Z"/><path class="cls-3" d="M256.78,343.92c-.48,3.33-.48,4.69-1.79,7.19,5.72,5.31,7.66,7.36,11.37,14.89,1.48-2,2.9-4.05,4.26-6.14C268.61,356,264,348.44,256.78,343.92Z"/><path class="cls-3" d="M293.49,283.37a.34.34,0,0,0,0-.1c0-2.09-.06-4.15-.15-6.21a14,14,0,0,0-5.77-3.6c-2.26-.54-7.55-3.93-4.46-5.53,5.46,2.11,6.48,3,9.91,4q-.22-2.83-.57-5.63c-2-2.27-5.7-2.47-8.69-5.65a4.6,4.6,0,0,1-1.49-3.33c2.31-1.74,6.12,2.86,9.35,3.19-.19-1.15-.39-2.3-.61-3.44-2.64-3.41-8.64-7.36-10.58-7.83l.18-1.43-.06-.18c2.78-1.36,5.92,2.08,9,2.65-.4-1.65-.82-3.29-1.28-4.91a22.73,22.73,0,0,0-8.66-5.17c1.71-3.53,3.78-1.49,7.11.06-.52-1.61-1.06-3.2-1.64-4.78a33.7,33.7,0,0,0-6.12-2.6c0-.47-1.43-.47-1-3.33,1.14-.26,3.4,1.15,5.22,1.13-.65-1.6-1.32-3.18-2-4.75-1.48-.72-3.58-1.16-4.14-.77-6.54,4.1-8,10.28-21.1,8.44,1.48,2.44,5.58,4.51,7.78,5.17,1.2.29.42,3.33-.35,3.27l-3.39-.48a24.68,24.68,0,0,1-.18,4.76c1.48,1.25,3.75,1.31,3.33,3.81-1.25.41-2.08.06-3.63.65a17.84,17.84,0,0,1-1,5.47c1.91,1.66,2.44,1.25,3.92,2,1.14,3.5-2.61,2.79-4.69,2.14l-1,5.47c4.75,2.5,8.15,5.17-1,4.27-1.67,8.09-2.62,5.12,4,9.52a2.66,2.66,0,0,1-.59,2.92c-1.85,1.3-4.35-1.79-6.36-2.5-.72,2.08-1.14,3.62-2.33,4.82,2.45,3.26,10.7,3.62,7.32,7.84-1-.59-9.15-3.68-10.29-3.51-.36,1-3.63,4.1-3.51,4.58,4.35.53,19.33,10.29,22.07,12.31-.36,1.25-1.31,1.43-2,3.15,0-1.66-26.76-16.83-29.07-8.5,19.12,7.95,34.1,18.27,49.62,31.57.75-2,1.45-4,2.11-6.05-2.75-3.78-7.72-6-10.35-9.11.19-8.05,8.19,5.41,12.45,2,.53-2,1-4,1.46-6.06a55.49,55.49,0,0,1-9.33-6.48c-1.37-1.49-.89-2.62.65-4.34,1.81,0,6.7,4.69,9.68,5.8.33-1.83.61-3.68.87-5.53-3.66-1.87-7-5.77-10.55-7.71l.9-3.5c3.3,0,6.41,4.86,10.37,4.89.18-2,.33-4,.42-5.95-2.6-6.57-12.28-4.61-12.28-9.71C284.86,277.69,289.47,281.75,293.49,283.37Z"/><path class="cls-3" d="M158.25,167.44c2.68.12,3.69-2.68,4.34-3.39,7.73-8.15,16.83-15,26.81-15.64l.14-.43a139.67,139.67,0,0,0-36-4.72V146c2.38,1.6,19.57,1.72,14,7.25-4.82-1.19-9-2.49-14-3v4.46c3.15,1.67,4.46.77,8.51,3-.54,3.87-5.83.48-8.51.48v5.77C154.39,166.43,155.57,167.32,158.25,167.44Z"/><path class="cls-3" d="M196.18,381.79c7,9,11.32,20.24,11.53,30.55,2.43-1,4.83-2.12,7.19-3.28-2.29-15.85-5-20.59-9.32-25.79Z"/><path class="cls-3" d="M179.06,312.23c-6.9,6.78-11.47,10.64-25.51,10V342c-.65,4.58-16.89-.41-20-.41-8.56.83-10.46,4.51-17,18.14,9.1-4.11,8.8-7.8,18.79-7.8,9.81,0,5.4,2.44,14.44,3.21v-9.1h3.63c7.14,1.13,16.89,14.58,34,16.66,7.66,2.49,53.92-29.62,54.52-4.58,5.57,4.18,19.73-34.74-1.37-48.7-8-5.29-30.14-6.66-39.12,5.95,19.32-5.12,22.29,8.2,30.5,9,19.62,1.78,5.89,12.66,14.81,18.43-.59,2-.59,3.63-3.27,3.87-3.46-3.46-1.31-7.38-6-10.24-13.85-8.56-26,16-46,17.9-12.54,4-35.8-10-35.38-24.08,13.44,0,25.38.06,35.85-9.57,11.36-8.09,1.37-25.81-9.51-17.43-4.22,11.42,4.46,8.86,6.3,12.2C186.49,318.71,180.49,314.48,179.06,312.23Z"/><path class="cls-3" d="M158.43,260.73c-.24-1.19-4-10.23-4.88-9.81V292.6C159.44,292.42,163.24,286,158.43,260.73Z"/><path class="cls-3" d="M234.06,376c4.59,6.66,5.74,10.72,6,17.23,1.85-1.45,3.65-3,5.42-4.5-1.16-6.78-2-11.34-6.46-16.83C238.88,371.86,234.89,375.43,234.06,376Z"/><path class="cls-3" d="M224.73,380.9a48,48,0,0,1,5.38,19.48c1.95-1.27,3.86-2.6,5.73-4a44.21,44.21,0,0,0-5.28-18.3A11,11,0,0,1,224.73,380.9Z"/><path class="cls-3" d="M220.92,382.15c-3.56,1-8.92.66-8.5,1.55,3.76,7.93,6.54,10,6.88,23.11q3.67-2,7.22-4.14C226.75,393.53,224.15,389,220.92,382.15Z"/><path class="cls-3" d="M257.73,331.49v6.25C264,341.93,270.09,350,273,356.1q2.22-3.63,4.22-7.4C272.9,342.22,263.13,332.71,257.73,331.49Z"/><path class="cls-3" d="M114.48,405.7c.48,11.3,18,16.83,35.32,16.52V418.6c-9.45,0-28.71-.65-28.35-13.44.35-11.29,16.58-11.71,28.35-11.66v-3.32C129.65,389.82,115.5,393.5,114.48,405.7Z"/><path class="cls-3" d="M15.42,260.1c.84-1.7,1.78-3.39,2.8-5.08C22,248.84,35,241.16,32,232.42A37.36,37.36,0,0,1,30,217.34,139,139,0,0,0,15.42,260.1Z"/><path class="cls-3" d="M128.16,405.46c0,8.21,7.91,10.71,25.39,11.24l.06,3.68c15-.59,27.36-4.7,27-14.8-.3-9.45-11-12.67-27.06-13.44l.13,3.81C138.39,395.47,128.16,396.54,128.16,405.46Zm37.16.3c.12,4.39-5.22,5.76-11.77,5.65v3c-11.12-.6-17.12-2-17.36-8.74-.12-4.52,5.95-7.67,17.36-7.73v2.44C160.57,399.93,165.27,402.13,165.32,405.76Z"/><path class="cls-3" d="M138.8,387.39l44.42.05c3.09-7.25,5.47-12.07,2.68-14.63-7.61-7-23.55-2.67-32.65-3.2-22.29-6.36-30.44-4.94-33.12,2.07C114.84,382.68,127,387.39,138.8,387.39Zm32.12-12.79c.75-1.8,1.83.35,2.79.83.48.24-.29.62-.18,1.1-.41.6-1.37.27-2.08.27C170.15,376.8,170.62,375.3,170.92,374.6ZM165,373.46a6.62,6.62,0,0,0,2.5.19c0,1,.41,1.66-.06,2.74a5.67,5.67,0,0,1-3.16-.25A6.17,6.17,0,0,1,165,373.46Zm-7.5-.53,3.45.24a20.37,20.37,0,0,1-.18,2.73,14.65,14.65,0,0,1-3.45.49Zm12.13,6.12c1.49.18,1,1.38.54,2.09-2.55,3.15-15.76,4.46-20.4,2.68V378.7C155.93,379.59,159.2,381.73,169.66,379.05Zm-19.91-7.66c4-.42,4.16.53,4,4.75l-4-.29Z"/><path class="cls-3" d="M141.24,405.58c-.05,3.45,4.58,3.92,8.56,3.63V402C146.3,401.65,141.3,402,141.24,405.58Z"/><path class="cls-3" d="M190,406.59c-4,10.39-10,13.24-23.57,16.07a138.1,138.1,0,0,0,24.8-4.57C191.67,415,191.6,412.23,190,406.59Z"/><path class="cls-3" d="M223.48,326.74c-8.62-4.17-5.59-7.44-14.22-8.09C209.68,323.88,219,327.09,223.48,326.74Z"/><path class="cls-3" d="M75.72,263.23c5.35,3,15.57,3.56,24.61-1.67,4.58-2.85,14.69-8.5,16.59-18.67-2.13-2-6.29-1.25-8.26,2.62-2.8,5.59-18,18.85-33,12.24-8.86-2.07-14.33-18.13-17.07-14.5C55,257.52,68.93,271.2,85.35,272.38c6.42,1.19,23.07-4.93,20-8.38a8.63,8.63,0,0,0-5.77,2c-7.49,2.5-13.67,5.18-24.38-.17C73,264.48,73.81,263.05,75.72,263.23Z"/><path class="cls-3" d="M109.73,234c1.42,4.17,5.17,5.05,4.58-.53-4.35-12.19-11.6-26.1-28.13-23.07-12.6,2.32-18.91,20.21-33.71,13.14,1.72,6,3.83,11,11.14,11.43l.45,0c1.73-.36,25.64-11.16,34.67-1.66.38.41,2.14,1.61,2.14,1.68-.17.59-.71.34-1.67.7,2.57,18.08-27.83,14.27-20.28.18-3.8.41-6,1-6.83,6.18s3.62,11.29,13.2,11.72C114.66,255,110,223.45,86.6,222.91l-.06-4.51C100,217.09,106.58,221.37,109.73,234Z"/><path class="cls-3" d="M37.36,238.73c.25,2.43-12.75,14.84-16.47,22.24-8.72,17.33-5.64,64.39,14.51,80.63,2.79,2.2,14.1,9.39,24.32,9.39,4.82,0,20.87-1.37,24.62-2.85l1.19,2.79c-7.13,2.67-27.12,3.51-34.55,2.74-9.69-1.07-18.13-7-23.84-11.72,1,8.45,16.35,17.31,36.33,17.13a73.06,73.06,0,0,0,22.54-5l1.48,2.85C75.3,362.58,68.7,363,54.07,363c-6.57,0-16-4.6-17.78-3.25.33.51.66,1,1,1.52,7.19,9,9.69,7.2,22.37,7.2,11.83,0,18.85-4.51,28.48-8.73l1.67,3.8c-5.12,1.31-9.87,4.46-14.93,6.3-10.34,3.05-19.24,3.32-29.95,1.72q1.73,2.12,3.52,4.16a17.86,17.86,0,0,0,9.9,3.51c17.78,0,24.39-9.62,32.54-12.42l1.59,2.85c-1.42.06-13.07,5.71-16.29,7.74-3.88,2.43-11.85,4.92-20.57,5.87C57,384.65,58.48,386,60,387.34c4.16,2,7.28-.11,11-1,3.33-.83,19.15-13.68,22.65-14.39L95,374.78c-3.4,2-9.64,8.08-13.92,10.94a56.2,56.2,0,0,1-15.28,6.58q1.68,1.36,3.4,2.67c9.33,3.12,22-10.23,28.23-16.45,4.28,2.2-7.55,12.37-10.17,14.51a59.15,59.15,0,0,1-11.18,6.82c.86.57,1.71,1.13,2.58,1.68,11,2.53,20.21-9,24.95-18.67l2.15.72C101.6,397,92.93,402,86.93,406.41c.55.3,1.11.59,1.67.88,11.46.54,14-10.77,19.88-20.68,7.55,2.59-7.19,20-10.49,25.18.89.38,1.78.76,2.68,1.12,5,.41,5.21-4.06,6.69-4.42.69,1.17,4,2.57.48,7.13q4.74,1.63,9.63,2.94c-6-4.68-7.09-11.3-7.09-16.55,0-2.14,1.67-8.68,5.47-11.24,5.24-3,3.16-3.86-.24-5-5.23-2.19-9-7.25-10.75-10.93-1.13-2.44-7.5-4.46-4.83-9.16,3.63-3.75,5.3-2.08,9.28-7,6-7.19,7-16.23,21.89-21.82,3.74-1.43,8.39-2.15,5.64-7.73-1.85-3.78-2.61-5.05-2.73-8.08-1.61-2.15-3.22-2.86-6.13-3-.71.18-14.09,4.88-17.78-3.39l-8.26,11.53-1.72-1.78,7.31-10.82c.17-7.91,3.92-15,6.84-16,2.79.77-1.25,4.28-1.31,9.21,1.37,13.92,17.42,6.66,10.71-3.09-1.14-5.53,2.19-9.09-5.06-9.09-7.73,1-5.35-1.61-2.44-6.13l7.85-16.65c-3.51.65-4.7,4.34-8.62,9.75-3.15,2.56-4-.18-3-2.38,1.72-3.68,11.94-17,13.73-26.46.47-1.42-.18-4.11-3-1.31-17.71,24.92-33.11,31.75-49.64,28-8.45-1.91-16.3-9.51-21.83-15.93C4.42,270.84,40.22,386.73,97,327.32L99.09,329a49.29,49.29,0,0,1-14.27,13.68c-36.51,18.49-65.29-20.4-65.29-54.47.11-8.68,3.45-29.55,24.26-37.17,9.93-2.25,4.75-6.36,3.68-10.93-7-17.73.48-40.26,11.48-49.47l2.43-1.44c.54,5.54-15.1,18.08-8.2,26.95,3.87,5.41,15.17-4.59,18.31-6.6,18.5-13.2,34.26-5.48,44.9,11.17,6.07,14.21,6.24,3.28,4.16-2.08-8.8-26.64-39.66-24.79-53.69-15.69-2.26,1.78-6.13,3.2-3.27-1.31C81,181.17,125,192.17,128.58,224l5,45.42c5.83,7.26-12.6,25.28-3.63,40.08,5.59,8.38,19.81,10.64,38.72,5.71,21.05-7,8-51.08,2.79-64.1-2.91-5.65-7.73-16.47-10.52-13.14,2.55,7.25,9.74,26.4,6.9,27.41-3.69-3.81-8.69-25.15-14.28-36.27v10.7c5.71,11.6,9.82,22.72,10.53,36.69.71,14.69-2.8,21.34-10.4,22.06V304c10.93-3.22,14.68-7.61,16.34-20.76h.24l4.22-1.48c1.19,8.56-2.85,17.66-6.6,21.34-2.44,2.39-6.84,5.71-18.08,5.18l.07-93.12c-2.5-20.81-42.58-35.73-56.91-35.61-.89-.36-3.27-2.38,1.67-3.39,16.94-3.39,43.94,6.72,55.24,20.39V181.94c0-7.31-6.49-21.53-15.64-26.4-22.24-4.83-44.62,4.08-57.3,10.57A141.11,141.11,0,0,0,40.32,201C34.56,213.47,35.67,222.4,37.36,238.73ZM80.23,171c15.41-8.38,28.67-13.61,47.1-10.46,0,.18,3.81,1.54,7.37,12.06.36,3.4-1.54,1.91-3.27,1-26.52-11.29-33.24-4.51-51.43-.12C77.74,173.14,79.1,171.36,80.23,171Z"/><path class="cls-3" d="M191,383a23.38,23.38,0,0,1-3.38,5.54c5.66,8.83,9.74,17.44,7.85,28.33,2.61-.82,5.18-1.72,7.71-2.68C203,404.4,200.25,391.48,191,383Z"/><path class="cls-3" d="M249.76,275.36c-13.86,8.09-20.16,11.95-33.12,11.89-10.29-.06-21.35-4.64-32.64-13.68l-.18.07c7.13,10.64,20.81,16.65,31.7,17.54C228.23,290.29,243.69,284.46,249.76,275.36Z"/><path class="cls-3" d="M228,354c-4.34-.24-6.3-.06-10.41,3.62,1.2,6.12,6.84,7.32,4,21C227.64,376.5,231.33,364.55,228,354Z"/><path class="cls-3" d="M204.16,343.44c-7.44-2.43-12.85-8.26-14.51-10.41-1.43-1.78-6.43-1.72-8.27-1.72C183.34,335.3,198.15,345.52,204.16,343.44Z"/><path class="cls-3" d="M208.43,375.61c3.16-5,2.92-10.29,1.73-12.67-3.09.48-6,1.79-9.22,2.32C204.87,369.19,205.52,371.45,208.43,375.61Z"/><path class="cls-3" d="M243.52,287.43h-.42c-4.76,6.65-17.84,9.09-28.66,8.62-13.79-.59-27.18-11.23-28.78-11.23,5.53,8.49,22.66,14.74,28,14.91C224.25,300.09,240,295.39,243.52,287.43Z"/><path class="cls-3" d="M210.33,339c-12.06-7.49-10.22-10.05-12.3-11.36-2.5-1.54-4.46-.71-6.78-.59C192.32,331.9,205.58,339.57,210.33,339Z"/><path class="cls-3" d="M196.25,348.32c-11.06-4.65-13.68-9.28-16-12.13-1.37-1.79-5.11-2.2-7.44-2.2C171.09,337.67,185.84,349.21,196.25,348.32Z"/><path class="cls-3" d="M163.06,360.69a70,70,0,0,1-6.36-3.46C156.05,361.1,161,373.41,163.06,360.69Z"/><path class="cls-3" d="M168.3,336.84c-2.14-2.14-5.41-1.72-7.37-1.9,6.6,11,22.41,15.22,21.64,14.62C171.45,342,170.67,339.1,168.3,336.84Z"/><path class="cls-1" d="M136.19,405.64c.24,6.72,6.24,8.14,17.36,8.74v-3c6.55.11,11.89-1.26,11.77-5.65,0-3.63-4.75-5.83-11.77-5.41v-2.44C142.14,398,136.07,401.12,136.19,405.64Zm13.61,3.57c-4,.29-8.61-.18-8.56-3.63.06-3.63,5.06-3.93,8.56-3.57Z"/><path class="cls-1" d="M80,173.5c18.19-4.39,24.91-11.17,51.43.12,1.73.89,3.63,2.38,3.27-1-3.56-10.52-7.37-11.88-7.37-12.06-18.43-3.15-31.69,2.08-47.1,10.46C79.1,171.36,77.74,173.14,80,173.5Z"/><path class="cls-1" d="M161,373.17l-3.45-.24-.18,3.46a14.65,14.65,0,0,0,3.45-.49A20.37,20.37,0,0,0,161,373.17Z"/><path class="cls-1" d="M175.91,193.84c13.56-6.78,37.58,6.6,49.05,6.36a4.77,4.77,0,0,0,.36-1.37c-16.35-3.27-28.06-12.37-46.49-9.51-4.58.71-15.88,6-18.14,19.32C169.54,196.57,171.27,196.16,175.91,193.84Z"/><path class="cls-1" d="M149.75,371.39v4.46l4,.29C153.91,371.92,153.79,371,149.75,371.39Z"/><path class="cls-1" d="M178.41,197.64c-9,2.81-17.66,13-12.43,21.59,5.59,9.21,19.63,4.45,24-1.08,13.33-16.75,25.33-12,25.85-14C207.07,197.4,190.3,194,178.41,197.64Z"/><path class="cls-1" d="M171.45,376.8c.71,0,1.67.33,2.08-.27-.11-.48.66-.86.18-1.1-1-.48-2-2.63-2.79-.83C170.62,375.3,170.15,376.8,171.45,376.8Z"/><path class="cls-1" d="M149.8,383.82c4.64,1.78,17.85.47,20.4-2.68.47-.71,1-1.91-.54-2.09-10.46,2.68-13.73.54-19.86-.35Z"/><path class="cls-1" d="M167.47,376.39c.47-1.08.06-1.73.06-2.74a6.62,6.62,0,0,1-2.5-.19,6.17,6.17,0,0,0-.72,2.68A5.67,5.67,0,0,0,167.47,376.39Z"/><path class="cls-1" d="M306.54,283.27c0-84.39-68.66-153-153-153s-153,68.66-153,153,68.65,153,153,153S306.54,367.65,306.54,283.27Zm-13.22,6.91c-.09,2-.24,4-.42,5.95-4,0-7.07-4.89-10.37-4.89l-.9,3.5c3.54,1.94,6.89,5.84,10.55,7.71-.26,1.85-.54,3.7-.87,5.53-3-1.11-7.87-5.8-9.68-5.8-1.54,1.72-2,2.85-.65,4.34a55.49,55.49,0,0,0,9.33,6.48c-.44,2-.93,4.06-1.46,6.06-4.26,3.45-12.26-10-12.45-2,2.63,3.14,7.6,5.33,10.35,9.11-.66,2-1.36,4.05-2.11,6.05-15.52-13.3-30.5-23.62-49.62-31.57,2.31-8.33,29.07,6.84,29.07,8.5.72-1.72,1.67-1.9,2-3.15-2.74-2-17.72-11.78-22.07-12.31-.12-.48,3.15-3.57,3.51-4.58,1.14-.17,9.27,2.92,10.29,3.51,3.38-4.22-4.87-4.58-7.32-7.84,1.19-1.2,1.61-2.74,2.33-4.82,2,.71,4.51,3.8,6.36,2.5a2.66,2.66,0,0,0,.59-2.92c-6.66-4.4-5.71-1.43-4-9.52,9.16.9,5.76-1.77,1-4.27l1-5.47c2.08.65,5.83,1.36,4.69-2.14-1.48-.72-2-.31-3.92-2a17.84,17.84,0,0,0,1-5.47c1.55-.59,2.38-.24,3.63-.65.42-2.5-1.85-2.56-3.33-3.81a24.68,24.68,0,0,0,.18-4.76l3.39.48c.77.06,1.55-3,.35-3.27-2.2-.66-6.3-2.73-7.78-5.17,13.14,1.84,14.56-4.34,21.1-8.44.56-.39,2.66,0,4.14.77.71,1.57,1.38,3.15,2,4.75-1.82,0-4.08-1.39-5.22-1.13-.47,2.86,1,2.86,1,3.33a33.7,33.7,0,0,1,6.12,2.6c.58,1.58,1.12,3.17,1.64,4.78-3.33-1.55-5.4-3.59-7.11-.06a22.73,22.73,0,0,1,8.66,5.17c.46,1.62.88,3.26,1.28,4.91-3.07-.57-6.21-4-9-2.65l.06.18-.18,1.43c1.94.47,7.94,4.42,10.58,7.83.22,1.14.42,2.29.61,3.44-3.23-.33-7-4.93-9.35-3.19a4.6,4.6,0,0,0,1.49,3.33c3,3.18,6.72,3.38,8.69,5.65q.35,2.79.57,5.63c-3.43-1-4.45-1.85-9.91-4-3.09,1.6,2.2,5,4.46,5.53a14,14,0,0,1,5.77,3.6c.09,2.06.15,4.12.15,6.21a.34.34,0,0,1,0,.1c-4-1.62-8.63-5.68-12.45-2.9C281,285.57,290.72,283.61,293.32,290.18ZM279,345.26c-3.43-7-17.44-17.37-23.05-20.73,0-3-1.43-6.9-2.44-9.51,7.72,1.67,17.22,10.68,23.25,16.71,1.31,1.32,4.83,5.67,4.83,5.67a3.74,3.74,0,0,1,.65.84C281.22,340.62,280.14,343,279,345.26Zm-6,10.84c-2.92-6.14-9-14.17-15.28-18.36v-6.25c5.4,1.22,15.17,10.73,19.5,17.21Q275.23,352.47,273,356.1Zm-6.65,9.9c-3.71-7.53-5.65-9.58-11.37-14.89,1.31-2.5,1.31-3.86,1.79-7.19,7.17,4.52,11.83,12.11,13.84,15.94C269.26,362,267.84,364,266.36,366Zm-3.7,4.81-3.93,4.27c-.31.06-4.45-10.77-9.27-15.41a11.29,11.29,0,0,0,3.34-4.93,34.55,34.55,0,0,1,10.66,15.07C263.2,370.15,262.93,370.48,262.66,370.81Zm-13.43,14.51c-1-8.58-2.15-11.78-6.91-17.85,1.26-1.38,2.75-2.15,4.05-4.94,4.94,6,7,10.47,8.31,17.39C252.92,381.77,251.09,383.57,249.23,385.32Zm-9.14,7.87c-.29-6.51-1.44-10.57-6-17.23.83-.53,4.82-4.1,5-4.1,4.46,5.49,5.3,10.05,6.46,16.83C243.74,390.23,241.94,391.74,240.09,393.19Zm-10,7.19a48,48,0,0,0-5.38-19.48,11,11,0,0,0,5.83-2.79,44.21,44.21,0,0,1,5.28,18.3C234,397.78,232.06,399.11,230.11,400.38Zm-10.81,6.43c-.34-13.1-3.12-15.18-6.88-23.11-.42-.89,4.94-.53,8.5-1.55,3.23,6.88,5.83,11.38,5.6,20.52Q223,404.85,219.3,406.81Zm-11.59,5.53c-.21-10.31-4.51-21.56-11.53-30.55l9.4,1.48c4.37,5.2,7,9.94,9.32,25.79C212.54,410.22,210.14,411.32,207.71,412.34Zm-25.2-109.1c10.88-8.38,20.87,9.34,9.51,17.43-10.47,9.63-22.41,9.57-35.85,9.57-.42,14.1,22.84,28.07,35.38,24.08,20-1.9,32.17-26.46,46-17.9,4.64,2.86,2.49,6.78,6,10.24,2.68-.24,2.68-1.91,3.27-3.87-8.92-5.77,4.81-16.65-14.81-18.43-8.21-.78-11.18-14.1-30.5-9,9-12.61,31.15-11.24,39.12-5.95,21.1,14,6.94,52.88,1.37,48.7-.6-25-46.86,7.07-54.52,4.58-17.13-2.08-26.88-15.53-34-16.66H149.8v9.1c-9-.77-4.63-3.21-14.44-3.21-10,0-9.69,3.69-18.79,7.8,6.54-13.63,8.44-17.31,17-18.14,3.09,0,19.33,5,20,.41v-19.8c14,.66,18.61-3.2,25.51-10,1.43,2.25,7.43,6.48,9.75,3.21C187,312.1,178.29,314.66,182.51,303.24Zm-29-52.32c.84-.42,4.64,8.62,4.88,9.81,4.81,25.22,1,31.69-4.88,31.87Zm0-92.64c2.68,0,8,3.39,8.51-.48-4.05-2.26-5.36-1.36-8.51-3v-4.46c5,.48,9.22,1.78,14,3,5.53-5.53-11.66-5.65-14-7.25v-2.77a139.67,139.67,0,0,1,36,4.72l-.14.43c-10,.65-19.08,7.49-26.81,15.64-.65.71-1.66,3.51-4.34,3.39s-3.86-1-4.7-3.39Zm61.36-.81c3.5,2.89,5.75,6.54.78,9.14-16.53-.72-22.56-.56-30.56,2.2-13.46,4.65-28.25,18.61-28.25,18.61-3.45,3.5-3.57-.24-2-3.45,6.37-20,27.1-35.55,48.22-31.63C207.11,153.87,211.06,155.59,214.91,157.47Zm62.63,60.94c-3.48,7.44-8.86,11.34-17.55,11.34a17.23,17.23,0,0,1-9.75-3.92,3.35,3.35,0,0,1,.23-1.31c8.66.23,19.88-4.91,22.83-13.63Q275.54,214.58,277.54,218.41Zm-6.64-11.33c-5.08,10.41-16.35,13.63-21.86,13.63-3.32-.41-13.14-2.26-13.61-6.3,5.61-7.14,22.12-.47,26.5-19.59A140,140,0,0,1,270.9,207.08Zm-43.85,24.57A11.6,11.6,0,0,1,234.3,230c5.42,16.77-1.07,23.48-7.07,25.93-9.7,3.86-18.26-2.09-23.31-9,1.42-1,4.93-4.28,6.54-4.46,2,7.19,7.73,8.86,13.44,7C230.44,247.29,233.53,238.67,227.05,231.65ZM200.71,244.5c-9.94,4.34-17.79.89-23.49-2.14,24-3.21,23.19-11.07,38.3-21.29,5.4-2.2,17.29.18,20.8,4.4C208.32,228,217,237.36,200.71,244.5Zm-1.85,4.28c3.69,6.9,18.08,16.65,30.2,10.88,13.33-6.24,12.85-18.25,12.08-30l6.12,1.37c2.2,8.09,4.05,26-15.93,34.73-15.64,6.83-31.75-3.87-38.77-15Zm56.93-61c-2.15,1.52-8.86,1.11-10.67,1.11-1.89-2.1,3-5.63,5-6.89C252.05,183.88,253.94,185.81,255.79,187.79Zm-8.52-8.39c-.28,2.43-3.79,6.14-7.26,8.73a3.43,3.43,0,0,1-1.61.54c-3.77-.17.5-11.22,2.7-14.52C243.21,175.84,245.26,177.59,247.27,179.4Zm-9.18-7.61c-2.85,3.79-3.71,6-3.26,10.51.06,1.13-1.72.71-3.56-1.13-2.55-5.66-.71-9.24,2.56-12.5Q236,170.2,238.09,171.79ZM231,166.71a4.35,4.35,0,0,0-2.31,4.41c0,4.82-2.08,2.26-3,1.79a7.48,7.48,0,0,1,.23-9.42C227.62,164.52,229.3,165.6,231,166.71Zm-3.91,18.8c-36-10.94-43.94-9.69-67.73,4.46,5.65-7,22-15.28,27.59-16.47,14.39-3.62,22.73-4.69,35.06,5.54C225.37,181.86,227.05,184.09,227.05,185.51Zm-22.72,1.73c20.52,7.13,32.23,9.93,52.92,5.06-6.72,18.72-21.22,16.75-26.75,19-18.8,1.31-22.12,14.8-39.37,24.56-14.81,5.53-35.26.06-37.22-16.9C150.34,188.48,181.14,180.16,204.33,187.24Zm-32.17,55.41C191,258.71,201,271,219.67,271.85c20.1.89,29.61-9.63,35.09-28h.65C255,257.46,246.25,273,227.17,275c-32.47,3.28-55.42-31.33-55.42-31.33Zm34.61,35.2c15.16,5.71,37.87-4.63,46.91-15.33C247.92,273.39,233.29,283.26,215,283c-6.77-.06-24.84-6.19-37-22.11C178.83,260.73,200.41,278,206.77,277.85Zm10,55c-5.11,1.19-14.63-5.23-16-9.56a7,7,0,0,1,5.59.52C210.87,326,207.48,328.34,216.76,332.85Zm-7.5-14.2c8.63.65,5.6,3.92,14.22,8.09C219,327.09,209.68,323.88,209.26,318.65ZM172.81,334c2.33,0,6.07.41,7.44,2.2,2.32,2.85,4.94,7.48,16,12.13C185.84,349.21,171.09,337.67,172.81,334Zm-11.88.95c2,.18,5.23-.24,7.37,1.9,2.37,2.26,3.15,5.11,14.27,12.72C183.34,350.16,167.53,345.94,160.93,334.94Zm20.45-3.63c1.84,0,6.84-.06,8.27,1.72,1.66,2.15,7.07,8,14.51,10.41C198.15,345.52,183.34,335.3,181.38,331.31Zm9.87-4.28c2.32-.12,4.28-.95,6.78.59,2.08,1.31.24,3.87,12.3,11.36C205.58,339.57,192.32,331.9,191.25,327Zm-5.59-42.21c1.6,0,15,10.64,28.78,11.23,10.82.47,23.9-2,28.66-8.62h.42c-3.51,8-19.27,12.66-29.85,12.3C208.32,299.56,191.19,293.31,185.66,284.82Zm29.86,6.36c-10.89-.89-24.57-6.9-31.7-17.54l.18-.07c11.29,9,22.35,13.62,32.64,13.68,13,.06,19.26-3.8,33.12-11.89C243.69,284.46,228.23,290.29,215.52,291.18Zm2.07,66.47c4.11-3.68,6.07-3.86,10.41-3.62,3.33,10.52-.36,22.47-6.37,24.61C224.43,365,218.79,363.77,217.59,357.65Zm-9.16,18c-2.91-4.16-3.56-6.42-7.49-10.35,3.22-.53,6.13-1.84,9.22-2.32C211.35,365.32,211.59,370.62,208.43,375.61Zm-45.37-14.92c-2.08,12.72-7,.41-6.36-3.46A70,70,0,0,0,163.06,360.69Zm-42.93,11c2.68-7,10.83-8.43,33.12-2.07,9.1.53,25-3.81,32.65,3.2,2.79,2.56.41,7.38-2.68,14.63l-44.42-.05C127,387.39,114.84,382.68,120.13,371.68Zm33.42,20.46c16.11.77,26.76,4,27.06,13.44.36,10.1-12,14.21-27,14.8l-.06-3.68c-17.48-.53-25.39-3-25.39-11.24,0-8.92,10.23-10,25.52-9.51Zm-3.75-2v3.32c-11.77-.05-28,.37-28.35,11.66-.36,12.79,18.9,13.44,28.35,13.44v3.62c-17.3.31-34.84-5.22-35.32-16.52C115.5,393.5,129.65,389.82,149.8,390.18Zm16.64,32.48C180,419.83,186.05,417,190,406.59c1.59,5.64,1.66,8.42,1.23,11.5A138.1,138.1,0,0,1,166.44,422.66Zm29-5.81c1.89-10.89-2.19-19.5-7.85-28.33A23.38,23.38,0,0,0,191,383c9.3,8.5,12,21.42,12.18,31.19C200.6,415.13,198,416,195.42,416.85ZM76.93,166.11c12.68-6.49,35.06-15.4,57.3-10.57,9.15,4.87,15.64,19.09,15.64,26.4v14.63c-11.3-13.67-38.3-23.78-55.24-20.39-4.94,1-2.56,3-1.67,3.39,14.33-.12,54.41,14.8,56.91,35.61l-.07,93.12c11.24.53,15.64-2.79,18.08-5.18,3.75-3.68,7.79-12.78,6.6-21.34l-4.22,1.48H170c-1.66,13.15-5.41,17.54-16.34,20.76v-5.47c7.6-.72,11.11-7.37,10.4-22.06-.71-14-4.82-25.09-10.53-36.69V229.1c5.59,11.12,10.59,32.46,14.28,36.27,2.84-1-4.35-20.16-6.9-27.41,2.79-3.33,7.61,7.49,10.52,13.14,5.24,13,18.26,57.14-2.79,64.1-18.91,4.93-33.13,2.67-38.72-5.71-9-14.8,9.46-32.82,3.63-40.08l-5-45.42c-3.63-31.82-47.63-42.82-65-22.36-2.86,4.51,1,3.09,3.27,1.31,14-9.1,44.89-10.95,53.69,15.69,2.08,5.36,1.91,16.29-4.16,2.08-10.64-16.65-26.4-24.37-44.9-11.17-3.14,2-14.44,12-18.31,6.6-6.9-8.87,8.74-21.41,8.2-26.95L59,190.63c-11,9.21-18.49,31.74-11.48,49.47,1.07,4.57,6.25,8.68-3.68,10.93C23,258.65,19.64,279.52,19.53,288.2c0,34.07,28.78,73,65.29,54.47A49.29,49.29,0,0,0,99.09,329L97,327.32c-56.78,59.41-92.58-56.48-45.19-63.73,5.53,6.42,13.38,14,21.83,15.93,16.53,3.74,31.93-3.09,49.64-28,2.8-2.8,3.45-.11,3,1.31-1.79,9.46-12,22.78-13.73,26.46-1,2.2-.18,4.94,3,2.38,3.92-5.41,5.11-9.1,8.62-9.75l-7.85,16.65c-2.91,4.52-5.29,7.13,2.44,6.13,7.25,0,3.92,3.56,5.06,9.09,6.71,9.75-9.34,17-10.71,3.09.06-4.93,4.1-8.44,1.31-9.21-2.92.95-6.67,8.08-6.84,16l-7.31,10.82,1.72,1.78,8.26-11.53c3.69,8.27,17.07,3.57,17.78,3.39,2.91.12,4.52.83,6.13,3,.12,3,.88,4.3,2.73,8.08,2.75,5.58-1.9,6.3-5.64,7.73-14.93,5.59-15.88,14.63-21.89,21.82-4,4.88-5.65,3.21-9.28,7-2.67,4.7,3.7,6.72,4.83,9.16,1.78,3.68,5.52,8.74,10.75,10.93,3.4,1.14,5.48,2,.24,5-3.8,2.56-5.47,9.1-5.47,11.24,0,5.25,1.08,11.87,7.09,16.55q-4.89-1.31-9.63-2.94c3.49-4.56.21-6-.48-7.13-1.48.36-1.74,4.83-6.69,4.42-.9-.36-1.79-.74-2.68-1.12,3.3-5.18,18-22.59,10.49-25.18-5.9,9.91-8.42,21.22-19.88,20.68-.56-.29-1.12-.58-1.67-.88,6-4.37,14.67-9.42,18.82-22.83l-2.15-.72c-4.74,9.65-13.93,21.2-24.95,18.67-.87-.55-1.72-1.11-2.58-1.68A59.15,59.15,0,0,0,87.25,393c2.62-2.14,14.45-12.31,10.17-14.51-6.22,6.22-18.9,19.57-28.23,16.45q-1.72-1.31-3.4-2.67a56.2,56.2,0,0,0,15.28-6.58c4.28-2.86,10.52-8.92,13.92-10.94l-1.44-2.86c-3.5.71-19.32,13.56-22.65,14.39-3.67.92-6.79,3-11,1-1.47-1.33-2.92-2.69-4.33-4.07,8.72-.95,16.69-3.44,20.57-5.87,3.22-2,14.87-7.68,16.29-7.74l-1.59-2.85c-8.15,2.8-14.76,12.42-32.54,12.42a17.86,17.86,0,0,1-9.9-3.51q-1.8-2-3.52-4.16c10.71,1.6,19.61,1.33,29.95-1.72,5.06-1.84,9.81-5,14.93-6.3l-1.67-3.8c-9.63,4.22-16.65,8.73-28.48,8.73-12.68,0-15.18,1.78-22.37-7.2-.34-.5-.67-1-1-1.52C38,358.4,47.5,363,54.07,363c14.63,0,21.23-.42,33.42-6.06L86,354.09a73.06,73.06,0,0,1-22.54,5c-20,.18-35.32-8.68-36.33-17.13,5.71,4.76,14.15,10.65,23.84,11.72,7.43.77,27.42-.07,34.55-2.74l-1.19-2.79c-3.75,1.48-19.8,2.85-24.62,2.85-10.22,0-21.53-7.19-24.32-9.39C15.25,325.36,12.17,278.3,20.89,261c3.72-7.4,16.72-19.81,16.47-22.24-1.69-16.33-2.8-25.26,3-37.78A141.11,141.11,0,0,1,76.93,166.11Zm-1.75,99.68c10.71,5.35,16.89,2.67,24.38.17a8.63,8.63,0,0,1,5.77-2c3.09,3.45-13.56,9.57-20,8.38C68.93,271.2,55,257.52,58.59,243.25c2.74-3.63,8.21,12.43,17.07,14.5,15,6.61,30.2-6.65,33-12.24,2-3.87,6.13-4.58,8.26-2.62-1.9,10.17-12,15.82-16.59,18.67-9,5.23-19.26,4.7-24.61,1.67C73.81,263.05,73,264.48,75.18,265.79ZM86.6,222.91c23.36.54,28.06,32.12-1.31,30.81-9.58-.43-14.07-6.39-13.2-11.72s3-5.77,6.83-6.18c-7.55,14.09,22.85,17.9,20.28-.18,1-.36,1.5-.11,1.67-.7,0-.07-1.76-1.27-2.14-1.68-9-9.5-32.94,1.3-34.67,1.66l-.45,0c-7.31-.42-9.42-5.43-11.14-11.43,14.8,7.07,21.11-10.82,33.71-13.14,16.53-3,23.78,10.88,28.13,23.07.59,5.58-3.16,4.7-4.58.53-3.15-12.6-9.75-16.88-23.19-15.57ZM32,232.42c3,8.74-10,16.42-13.73,22.6-1,1.69-2,3.38-2.8,5.08A139,139,0,0,1,30,217.34,37.36,37.36,0,0,0,32,232.42Z"/></svg>