<?xml version="1.0" encoding="utf-8"?>
<!-- Generator: Adobe Illustrator 26.0.2, SVG Export Plug-In . SVG Version: 6.00 Build 0)  -->
<svg version="1.1" id="Layer_2" xmlns="http://www.w3.org/2000/svg" xmlns:xlink="http://www.w3.org/1999/xlink" x="0px" y="0px"
	 viewBox="0 0 229 56.2" style="enable-background:new 0 0 229 56.2;" xml:space="preserve">
<style type="text/css">
	.st0{fill-rule:evenodd;clip-rule:evenodd;fill:#FFFFFF;}
	.st1{fill:#FFFFFF;}
</style>
<g>
	<path class="st0" d="M101.9,19.7l-1.5-3.6c-0.1-0.3,0.1-0.6,0.4-0.6h21.7c0.4,0,0.6,0.3,0.4,0.6l-1.5,3.6c-0.1,0.3-0.5,0.6-0.9,0.6
		h-5.9h0l0,0c-0.3,0-0.6,0.2-0.6,0.6v0l0,0V35c0,0.3-0.3,0.6-0.6,0.6h-3.6c-0.3,0-0.6-0.3-0.6-0.6V20.8l0,0v0c0-0.3-0.2-0.6-0.6-0.6
		l0,0h0h-5.9C102.4,20.3,102,20,101.9,19.7L101.9,19.7z"/>
	<path class="st0" d="M80.7,35.5l-4.1,0c-0.3,0-0.5-0.3-0.3-0.6c3.3-6.4,6.5-12.5,9.8-18.9c0.2-0.3,0.5-0.4,0.7-0.4h2.8h2.8
		c0.3,0,0.6,0.1,0.7,0.4c3.3,6.4,6.5,12.5,9.8,18.9c0.2,0.3,0,0.6-0.3,0.6l-4.1,0c-0.3,0-0.7-0.2-0.9-0.5c-0.5-1-1-2-1.5-3l0,0l0,0
		l0,0c-0.2-0.4-0.6-0.6-1-0.6l0,0h-5.6h-5.6l0,0c-0.4,0-0.8,0.2-1,0.6l0,0l0,0l0,0c-0.5,1-1,2-1.5,3C81.4,35.3,81,35.5,80.7,35.5
		L80.7,35.5z M89.5,20.3c-0.2,0-0.4,0.1-0.5,0.3l0,0c-1.1,2-2.1,4.1-3.2,6.1l0,0c0,0,0,0.1,0,0.2c0,0.2,0.2,0.4,0.4,0.4l0,0h0h3.5
		h3.5h0l0,0c0.2,0,0.4-0.2,0.4-0.4c0-0.1,0-0.1,0-0.2l0,0c-1.1-2-2.1-4.1-3.2-6.1l0,0c-0.1-0.2-0.3-0.3-0.5-0.3H89.5L89.5,20.3z"/>
	<path class="st0" d="M153.5,35.5l-4.1,0c-0.3,0-0.5-0.3-0.3-0.6c3.3-6.4,6.5-12.5,9.8-18.9c0.2-0.3,0.5-0.4,0.7-0.4h2.8h2.8
		c0.3,0,0.6,0.1,0.7,0.4c3.3,6.4,6.5,12.5,9.8,18.9c0.2,0.3,0,0.6-0.3,0.6l-4.1,0c-0.3,0-0.7-0.2-0.9-0.5c-0.5-1-1-2-1.5-3l0,0l0,0
		l0,0c-0.2-0.4-0.6-0.6-1-0.6l0,0h-5.6H157l0,0c-0.4,0-0.8,0.2-1,0.6l0,0l0,0l0,0c-0.5,1-1,2-1.5,3
		C154.3,35.3,153.9,35.5,153.5,35.5L153.5,35.5z M162.4,20.3c-0.2,0-0.4,0.1-0.5,0.3l0,0c-1.1,2-2.1,4.1-3.2,6.1l0,0
		c0,0,0,0.1,0,0.2c0,0.2,0.2,0.4,0.4,0.4l0,0h0h3.5h3.5h0l0,0c0.2,0,0.4-0.2,0.4-0.4c0-0.1,0-0.1,0-0.2l0,0c-1.1-2-2.1-4.1-3.2-6.1
		l0,0c-0.1-0.2-0.3-0.3-0.5-0.3H162.4L162.4,20.3z"/>
	<path class="st0" d="M124.2,35.5l-4.1,0c-0.3,0-0.5-0.3-0.3-0.6c3.3-6.4,6.5-12.5,9.8-18.9c0.2-0.3,0.5-0.4,0.7-0.4h2.8h2.8
		c0.3,0,0.6,0.1,0.7,0.4c3.3,6.4,6.5,12.5,9.8,18.9c0.2,0.3,0,0.6-0.3,0.6l-4.1,0c-0.3,0-0.7-0.2-0.9-0.5l-7.5-14.4l0,0
		c-0.1-0.2-0.3-0.3-0.5-0.3H133c-0.2,0-0.4,0.1-0.5,0.3l0,0L125.1,35C124.9,35.3,124.5,35.5,124.2,35.5L124.2,35.5z"/>
	<path class="st0" d="M207,19.7l-1.5-3.6c-0.1-0.3,0.1-0.6,0.4-0.6h21.7c0.4,0,0.6,0.3,0.4,0.6l-1.5,3.6c-0.1,0.3-0.5,0.6-0.9,0.6
		h-5.9h0l0,0c-0.3,0-0.6,0.2-0.6,0.6v0l0,0V35c0,0.3-0.3,0.6-0.6,0.6H215c-0.3,0-0.6-0.3-0.6-0.6V20.8l0,0v0c0-0.3-0.2-0.6-0.6-0.6
		l0,0h0h-5.9C207.5,20.3,207.1,20,207,19.7L207,19.7z"/>
	<path class="st0" d="M180.1,25.5v-9.4c0-0.3,0.3-0.6,0.6-0.6h3.6c0.3,0,0.6,0.3,0.6,0.6l0,6.5l0,0v0c0,0.3,0.2,0.6,0.6,0.6h10.9
		c0.3,0,0.6-0.2,0.6-0.6v0l0,0l0-6.5c0-0.3,0.3-0.6,0.6-0.6h3.6c0.3,0,0.6,0.3,0.6,0.6v9.4V35c0,0.3-0.3,0.6-0.6,0.6h-3.6
		c-0.3,0-0.6-0.3-0.6-0.6l0-6.5l0,0v0c0-0.3-0.3-0.6-0.6-0.6h-10.9c-0.3,0-0.6,0.2-0.6,0.6v0l0,0l0,6.5c0,0.3-0.3,0.6-0.6,0.6h-3.6
		c-0.3,0-0.6-0.3-0.6-0.6V25.5L180.1,25.5z"/>
	<path class="st1" d="M106.6,50.7h1.7l0.7-1.7h3.2l0.7,1.7h1.7l-3.2-7.6h-1.5L106.6,50.7L106.6,50.7z M109.5,47.6l1-2.4l1,2.4H109.5
		L109.5,47.6z"/>
	<path class="st1" d="M122.2,50.7h3.6c1.7,0,2.8-0.7,2.8-2.1c0-1-0.5-1.5-1.4-1.9c0.5-0.3,1-0.8,1-1.6c0-0.5-0.2-1-0.5-1.3
		c-0.4-0.4-1.1-0.7-2-0.7h-3.5V50.7L122.2,50.7z M123.8,46.2v-1.6h1.6c0.7,0,1.1,0.3,1.1,0.8c0,0.6-0.5,0.8-1.2,0.8H123.8
		L123.8,46.2z M123.8,49.3v-1.7h1.9c0.8,0,1.2,0.3,1.2,0.8c0,0.6-0.4,0.8-1.2,0.8H123.8L123.8,49.3z"/>
	<polygon class="st1" points="138.1,50.7 139.8,50.7 139.8,44.7 142.1,44.7 142.1,43.2 135.8,43.2 135.8,44.7 138.1,44.7 
		138.1,50.7 	"/>
	<path class="st1" d="M153.4,50.8c2.3,0,4-1.8,4-3.9c0-2.2-1.7-3.9-4-3.9c-2.3,0-4,1.8-4,3.9C149.5,49.1,151.1,50.8,153.4,50.8
		L153.4,50.8z M153.5,49.3c-1.3,0-2.3-1.1-2.3-2.4c0-1.3,0.9-2.4,2.3-2.4c1.3,0,2.3,1.1,2.3,2.4C155.7,48.3,154.8,49.3,153.5,49.3
		L153.5,49.3z"/>
	<polygon class="st1" points="180.2,50.7 181.8,50.7 181.8,43.2 180.2,43.2 180.2,50.7 	"/>
	<polygon class="st1" points="190.2,50.7 191.8,50.7 191.8,45.8 193.9,49 193.9,49 196,45.8 196,50.7 197.7,50.7 197.7,43.2 
		195.9,43.2 193.9,46.4 191.9,43.2 190.2,43.2 190.2,50.7 	"/>
	<path class="st1" d="M167.8,43.1h1.5l2.4,6.1h1v3.1h-1.5l-0.1-1.6h-2.5H166l-0.1,1.6h-1.5v-3.1h1L167.8,43.1L167.8,43.1z M170,49.2
		l-1.4-3.8l-1.4,3.8H170L170,49.2z"/>
	<path class="st1" d="M53.2,21.9l7.2,12.5c0,0,0.1,0.1,0.1,0.1L67.7,47c0.7,1.2,0.3,2.7-0.9,3.4c-0.4,0.2-0.8,0.3-1.2,0.3v0h-29
		c-1.4,0-2.5-1.1-2.5-2.5c0-0.5,0.2-1,0.5-1.5l7.1-12.4l0,0l7.3-12.6c0.7-1.2,2.2-1.6,3.4-0.9C52.7,21.2,53,21.5,53.2,21.9
		L53.2,21.9z"/>
	<path class="st0" d="M22.4,47c-1.3,2.2-3.7,3.7-6.4,3.7h0h0H2.8v0c-0.4,0-0.9-0.1-1.3-0.3c-1.2-0.7-1.6-2.2-0.9-3.4l22-38.1
		c1.3-2.2,3.7-3.7,6.4-3.7h13.2v0c0.4,0,0.9,0.1,1.3,0.3c1.2,0.7,1.6,2.2,0.9,3.4L22.4,47L22.4,47z"/>
</g>
</svg>
