<?xml version="1.0" encoding="UTF-8"?>
<svg width="32" height="33" viewBox="0 0 32 33" version="1.1" xmlns="http://www.w3.org/2000/svg" xmlns:xlink="http://www.w3.org/1999/xlink">
    <g id="NewsFeeds" stroke="none" stroke-width="1" fill="none" fill-rule="evenodd">
        <g id="paperwork" fill="#263238" fill-rule="nonzero">
            <path d="M26.7,2 L24.3,2 C24.1344,2 24,1.776 24,1.5 C24,1.224 24.1344,1 24.3,1 L26.7,1 C26.8656,1 27,1.224 27,1.5 C27,1.776 26.8656,2 26.7,2 Z" id="Path"></path>
            <path d="M25.5,3 C25.224,3 25,2.8656 25,2.7 L25,0.3 C25,0.1344 25.224,0 25.5,0 C25.776,0 26,0.1344 26,0.3 L26,2.7 C26,2.8656 25.776,3 25.5,3 Z" id="Path"></path>
            <path d="M29.7,5 L27.3,5 C27.1344,5 27,4.776 27,4.5 C27,4.224 27.1344,4 27.3,4 L29.7,4 C29.8656,4 30,4.224 30,4.5 C30,4.776 29.8656,5 29.7,5 Z" id="Path"></path>
            <path d="M28.5,6 C28.224,6 28,5.8656 28,5.7 L28,3.3 C28,3.1344 28.224,3 28.5,3 C28.776,3 29,3.1344 29,3.3 L29,5.7 C29,5.8656 28.776,6 28.5,6 Z" id="Path"></path>
            <path d="M31.7140435,14 L26.2857022,14 C26.1279946,14 26,13.8720027 26,13.7142918 L26,8.28583681 C26,8.17041071 26.0697113,8.06584153 26.1765639,8.02184247 C26.2834166,7.977272 26.4056971,8.00241432 26.4879793,8.08355543 L31.9163206,13.5120105 C31.9980314,13.593723 32.0226018,13.7165775 31.9780323,13.8234324 C31.9334627,13.9302872 31.8294671,14 31.7140435,14 Z M26.5714043,13.4285837 L31.0243584,13.4285837 L26.5714043,8.97553631 L26.5714043,13.4285837 Z" id="Shape"></path>
            <path d="M30.3783784,33 L13.6216216,33 C12.7275676,33 12,32.2522222 12,31.3333333 L12,9.66666667 C12,8.74777778 12.7275676,8 13.6216216,8 L26.5945946,8 C26.6664865,8 26.7351351,8.02944444 26.7859459,8.08111111 L31.9210811,13.3588889 C31.9718919,13.4111111 32,13.4816667 32,13.5555556 L32,31.3333333 C32,32.2522222 31.2724324,33 30.3783784,33 Z M13.6216216,8.55555556 C13.0254054,8.55555556 12.5405405,9.05388889 12.5405405,9.66666667 L12.5405405,31.3333333 C12.5405405,31.9461111 13.0254054,32.4444444 13.6216216,32.4444444 L30.3783784,32.4444444 C30.9745946,32.4444444 31.4594595,31.9461111 31.4594595,31.3333333 L31.4594595,13.6705556 L26.4827027,8.55555556 L13.6216216,8.55555556 Z" id="Shape"></path>
            <path d="M28.72,21 L15.28,21 C15.12544,21 15,20.776 15,20.5 C15,20.224 15.12544,20 15.28,20 L28.72,20 C28.87456,20 29,20.224 29,20.5 C29,20.776 28.87456,21 28.72,21 Z" id="Path"></path>
            <path d="M28.72,24 L15.28,24 C15.12544,24 15,23.776 15,23.5 C15,23.224 15.12544,23 15.28,23 L28.72,23 C28.87456,23 29,23.224 29,23.5 C29,23.776 28.87456,24 28.72,24 Z" id="Path"></path>
            <path d="M28.72,27 L15.28,27 C15.12544,27 15,26.776 15,26.5 C15,26.224 15.12544,26 15.28,26 L28.72,26 C28.87456,26 29,26.224 29,26.5 C29,26.776 28.87456,27 28.72,27 Z" id="Path"></path>
            <path d="M28.72,27 L15.28,27 C15.12544,27 15,26.776 15,26.5 C15,26.224 15.12544,26 15.28,26 L28.72,26 C28.87456,26 29,26.224 29,26.5 C29,26.776 28.87456,27 28.72,27 Z" id="Path"></path>
            <path d="M20.7140435,6 L15.2857022,6 C15.1279946,6 15,5.87200543 15,5.71429783 L15,0.285956548 C15,0.17053287 15.0697113,0.0659658748 15.1765639,0.0219677403 C15.283988,-0.0226017987 15.4062685,0.00196858818 15.4879793,0.0836794095 L20.9163206,5.51202069 C20.9980314,5.59373151 21.0226018,5.71658344 20.9780323,5.82343606 C20.9334627,5.93028867 20.8294671,6 20.7140435,6 Z M15.5714043,5.42859565 L20.0243584,5.42859565 L15.5714043,0.975641592 L15.5714043,5.42859565 Z" id="Shape"></path>
            <path d="M10,25 L1.62162162,25 C0.727567568,25 0,24.2522222 0,23.3333333 L0,1.66666667 C0,0.747777778 0.727567568,0 1.62162162,0 L14.5945946,0 C14.6664865,0 14.7351351,0.0294444444 14.7859459,0.0811111111 L19.9210811,5.35888889 C19.9718919,5.41111111 20,5.48166667 20,5.55555556 L20,7.22222222 C20,7.37555556 19.8789189,7.5 19.7297297,7.5 C19.5805405,7.5 19.4594595,7.37555556 19.4594595,7.22222222 L19.4594595,5.67055556 L14.4827027,0.555555556 L1.62162162,0.555555556 C1.02540541,0.555555556 0.540540541,1.05388889 0.540540541,1.66666667 L0.540540541,23.3333333 C0.540540541,23.9461111 1.02540541,24.4444444 1.62162162,24.4444444 L10,24.4444444 C10.1491892,24.4444444 10.2702703,24.5688889 10.2702703,24.7222222 C10.2702703,24.8755556 10.1491892,25 10,25 Z" id="Path"></path>
            <path d="M10.7307692,8 L4.26923077,8 C4.12061538,8 4,7.776 4,7.5 C4,7.224 4.12061538,7 4.26923077,7 L10.7307692,7 C10.8793846,7 11,7.224 11,7.5 C11,7.776 10.8793846,8 10.7307692,8 Z" id="Path"></path>
            <path d="M10.7307692,11 L4.26923077,11 C4.12061538,11 4,10.776 4,10.5 C4,10.224 4.12061538,10 4.26923077,10 L10.7307692,10 C10.8793846,10 11,10.224 11,10.5 C11,10.776 10.8793846,11 10.7307692,11 Z" id="Path"></path>
            <path d="M10.7307692,13 L4.26923077,13 C4.12061538,13 4,12.776 4,12.5 C4,12.224 4.12061538,12 4.26923077,12 L10.7307692,12 C10.8793846,12 11,12.224 11,12.5 C11,12.776 10.8793846,13 10.7307692,13 Z" id="Path"></path>
            <path d="M10.7307692,16 L4.26923077,16 C4.12061538,16 4,15.776 4,15.5 C4,15.224 4.12061538,15 4.26923077,15 L10.7307692,15 C10.8793846,15 11,15.224 11,15.5 C11,15.776 10.8793846,16 10.7307692,16 Z" id="Path"></path>
            <path d="M10.7307692,19 L4.26923077,19 C4.12061538,19 4,18.776 4,18.5 C4,18.224 4.12061538,18 4.26923077,18 L10.7307692,18 C10.8793846,18 11,18.224 11,18.5 C11,18.776 10.8793846,19 10.7307692,19 Z" id="Path"></path>
            <path d="M9.72727273,29 L4.27272727,29 C4.12218182,29 4,28.776 4,28.5 C4,28.224 4.12218182,28 4.27272727,28 L9.72727273,28 C9.87781818,28 10,28.224 10,28.5 C10,28.776 9.87781818,29 9.72727273,29 Z" id="Path"></path>
            <path d="M2.75,29 L2.25,29 C2.112,29 2,28.776 2,28.5 C2,28.224 2.112,28 2.25,28 L2.75,28 C2.888,28 3,28.224 3,28.5 C3,28.776 2.888,29 2.75,29 Z" id="Path"></path>
            <path d="M28.72,16 L15.28,16 C15.12544,16 15,15.776 15,15.5 C15,15.224 15.12544,15 15.28,15 L28.72,15 C28.87456,15 29,15.224 29,15.5 C29,15.776 28.87456,16 28.72,16 Z" id="Path"></path>
            <path d="M28.72,19 L15.28,19 C15.12544,19 15,18.776 15,18.5 C15,18.224 15.12544,18 15.28,18 L28.72,18 C28.87456,18 29,18.224 29,18.5 C29,18.776 28.87456,19 28.72,19 Z" id="Path"></path>
        </g>
    </g>
</svg>