<?xml version="1.0" encoding="UTF-8"?>
<svg width="30" height="32" viewBox="0 0 30 32" version="1.1" xmlns="http://www.w3.org/2000/svg" xmlns:xlink="http://www.w3.org/1999/xlink">
    <g id="Service" stroke="none" stroke-width="1" fill="none" fill-rule="evenodd">
        <g id="wrenching" fill="#263238" fill-rule="nonzero">
            <g id="Group" transform="translate(0.000000, 2.000000)">
                <path d="M4.78611111,29.8966667 C4.69833333,29.8966667 4.61111111,29.8944444 4.52277778,29.8894444 C3.16333333,29.8133333 1.94222222,29.1805556 1.08555556,28.1072222 C-0.255555556,26.4277778 -0.27,23.9788889 1.05111111,22.2855556 C2.04111111,21.0161111 3.56777778,20.3405556 5.15833333,20.4688889 L14.9038889,10.7233333 C15.5366667,10.0905556 15.7833333,9.16111111 15.5477778,8.29722222 L15.0055556,6.30888889 C14.8483333,5.73388889 15.0127778,5.11444444 15.435,4.69222222 L19.62,0.507222222 C20.025,0.101111111 20.6244444,-0.0694444444 21.1827778,0.0638888889 L23.6038889,0.638333333 C23.7016667,0.661666667 23.7794444,0.736111111 23.8072222,0.832777778 C23.835,0.929444444 23.8077778,1.03388889 23.7366667,1.105 L19.1038889,5.73777778 L20.1983333,9.75055556 L24.2111111,10.845 L28.8438889,6.21222222 C28.9144444,6.14111111 29.0183333,6.11333333 29.1161111,6.14166667 C29.2127778,6.16888889 29.2877778,6.24666667 29.3105556,6.345 L29.8844444,8.76611111 C30.0188889,9.33277778 29.8533333,9.91722222 29.4416667,10.3288889 L25.2566667,14.5144444 C24.835,14.9361111 24.2138889,15.1005556 23.6394444,14.9438889 L21.6511111,14.4016667 C20.7872222,14.1666667 19.8583333,14.4127778 19.2255556,15.0455556 L9.49055556,24.7788889 C9.60777778,26.1705556 9.115,27.5255556 8.12666667,28.5138889 C7.24,29.4005556 6.035,29.8966667 4.78611111,29.8966667 Z M4.78277778,21.0094444 C3.50111111,21.0094444 2.29444444,21.595 1.48944444,22.6272222 C0.324444444,24.1205556 0.337777778,26.2794444 1.52,27.7605556 C2.27722222,28.7088889 3.35444444,29.2677778 4.55444444,29.3344444 C5.73611111,29.3988889 6.89666667,28.9577778 7.73444444,28.1205556 C8.63444444,27.2205556 9.06833333,25.9761111 8.92555556,24.7061111 C8.91611111,24.6222222 8.94555556,24.5383333 9.00555556,24.4788889 L18.8322222,14.6522222 C19.6055556,13.8794444 20.7427778,13.5772222 21.7966667,13.865 L23.785,14.4072222 C24.17,14.5127778 24.5822222,14.4022222 24.8633333,14.1211111 L29.0483333,9.93555556 C29.3227778,9.66111111 29.4333333,9.27166667 29.3438889,8.89388889 L29.3438889,8.89388889 L28.8844444,6.95722222 L24.4894444,11.3522222 C24.4188889,11.4227778 24.3161111,11.4494444 24.22,11.4238889 L19.8988889,10.2455556 C19.8038889,10.22 19.7294444,10.1455556 19.7038889,10.0505556 L18.5255556,5.72944444 C18.4994444,5.63333333 18.5266667,5.53055556 18.5972222,5.46 L22.9922222,1.065 L21.0555556,0.605555556 C20.6822222,0.516666667 20.2838889,0.63 20.0133333,0.901111111 L15.8283333,5.08611111 C15.5472222,5.36722222 15.4372222,5.78055556 15.5422222,6.16388889 L16.0844444,8.15277778 C16.3722222,9.20777778 16.0705556,10.3438889 15.2972222,11.1172222 L5.45944444,20.9538889 C5.4,21.0127778 5.31833333,21.0422222 5.23333333,21.0338889 C5.08222222,21.0177778 4.93166667,21.0094444 4.78277778,21.0094444 Z M4.78833333,27.6733333 C4.14833333,27.6733333 3.50777778,27.43 3.02055556,26.9427778 C2.04611111,25.9683333 2.04611111,24.3822222 3.02055556,23.4072222 C3.99555556,22.4327778 5.58111111,22.4327778 6.55611111,23.4072222 C7.53055556,24.3816667 7.53055556,25.9677778 6.55611111,26.9427778 L6.55611111,26.9427778 C6.06833333,27.4294444 5.42833333,27.6733333 4.78833333,27.6733333 Z M4.78833333,23.2311111 C4.29055556,23.2311111 3.79277778,23.4205556 3.41333333,23.7994444 C2.655,24.5577778 2.655,25.7911111 3.41333333,26.5494444 C4.17111111,27.3072222 5.405,27.3072222 6.16333333,26.5494444 C6.92166667,25.7911111 6.92166667,24.5577778 6.16333333,23.7994444 C5.78444444,23.4205556 5.28611111,23.2311111 4.78833333,23.2311111 Z" id="Shape"></path>
            </g>
            <path d="M10.1976701,23 C9.98926169,23 9.78085325,22.9207568 9.62183327,22.7622703 L9.23812293,22.3785376 C8.92062569,22.0610219 8.92062569,21.5443126 9.23812293,21.2267969 L14.2269,16.2377297 C14.5443973,15.9207568 15.0610765,15.9207568 15.3780311,16.2377297 L15.7617414,16.6220051 C15.9153341,16.7756067 16,16.980228 16,17.1978755 C16,17.4149802 15.9153341,17.6196015 15.7617414,17.7737458 L10.7729643,22.7628131 C10.614487,22.9207568 10.4066213,23 10.1976701,23 Z M14.8032796,16.5422191 C14.7338102,16.5422191 14.6643407,16.5688145 14.6111531,16.6214624 L9.622376,21.6105296 C9.51654358,21.7163681 9.51654358,21.8884237 9.622376,21.994805 L10.0060863,22.3785376 C10.1119187,22.4843762 10.2839643,22.4843762 10.3897967,22.3785376 L15.3785738,17.3894704 C15.4295904,17.337908 15.4578124,17.2700628 15.4578124,17.1973327 C15.4578124,17.1246026 15.4295904,17.0567574 15.3785738,17.0057378 L14.9948634,16.6214624 C14.9422186,16.5688145 14.8727491,16.5422191 14.8032796,16.5422191 Z" id="Shape"></path>
            <path d="M25.6331886,12 C25.6093548,12 25.585521,11.9967499 25.5622289,11.9902498 L21.349064,10.8408141 C21.2564372,10.8153554 21.1838524,10.7433125 21.1589353,10.650686 L20.0094963,6.43753287 C19.9840375,6.34382298 20.0105797,6.24361299 20.0793727,6.17482018 L23.1755993,3.07914391 C23.2443923,3.0103511 23.3451443,2.98435067 23.4383128,3.00926775 L27.6514777,4.15816178 C27.7441045,4.18307886 27.8166892,4.25566339 27.8416064,4.34828993 L28.9905037,8.56144305 C29.0159625,8.65515293 28.9894203,8.75536292 28.9206273,8.82415573 L25.8244007,11.9203737 C25.7729413,11.9723745 25.7041483,12 25.6331886,12 Z M21.641028,10.3592645 L25.5530204,11.4263655 L28.4271594,8.55223456 L27.3600554,4.63971142 L23.4475213,3.57261041 L20.5733823,6.44619968 L21.641028,10.3592645 Z" id="Shape"></path>
            <path d="M22.3174931,9 C22.2362555,9 22.1550179,8.9766787 22.0928203,8.93051204 C21.9690599,8.83770277 21.9690599,8.68682822 22.0928203,8.59401896 L25.4584689,6.06960695 C25.5822293,5.97679768 25.7834193,5.97679768 25.9071797,6.06960695 C26.0309401,6.16241621 26.0309401,6.31329076 25.9071797,6.40610003 L22.5415311,8.93051204 C22.4799683,8.9766787 22.3987307,9 22.3174931,9 Z" id="Path"></path>
            <path d="M25.6831416,9 C25.601904,9 25.5206664,8.9766787 25.4584689,8.93051204 L22.0928203,6.40610003 C21.9690599,6.31329076 21.9690599,6.16241621 22.0928203,6.06960695 C22.2165807,5.97679768 22.4177707,5.97679768 22.5415311,6.06960695 L25.9071797,8.59401896 C26.0309401,8.68682822 26.0309401,8.83770277 25.9071797,8.93051204 C25.8456168,8.9766787 25.7643792,9 25.6831416,9 Z" id="Path"></path>
            <path d="M11.5865466,16 C11.5156482,16 11.4447498,15.9728964 11.3904682,15.9192422 L5.52473379,10.0615352 C5.48928459,10.0266877 5.4444192,10.0012434 5.39623045,9.98907443 L4.17655649,9.68429666 C3.98490926,9.63672699 3.81652557,9.52222791 3.70186957,9.36181856 L1.15562016,5.8012841 C0.918553653,5.46995582 0.955664532,5.02080964 1.24424316,4.73262595 L2.73477115,3.2441378 C3.02279588,2.9559541 3.47255757,2.91834087 3.8054477,3.15563609 L7.37030765,5.69840086 C7.53093683,5.81234682 7.64559283,5.98050007 7.69322768,6.17188502 L7.99842312,7.39044295 C8.01060878,7.43911889 8.03608789,7.48336974 8.07153709,7.51877043 L13.918993,13.3582239 C14.0270023,13.4660854 14.0270023,13.6414294 13.918993,13.7492909 C13.8109838,13.8571523 13.6353995,13.8571523 13.5273902,13.7492909 L7.67938034,7.9103905 C7.57303275,7.80418845 7.49714931,7.67088274 7.46059232,7.52485492 L7.15539689,6.30629699 C7.13933397,6.24268639 7.1011153,6.18681968 7.04794151,6.14865332 L3.48308155,3.6053354 C3.37285671,3.526237 3.22219761,3.53895912 3.126374,3.6346516 L1.63584601,5.12369288 C1.53946851,5.21993849 1.52728285,5.36928513 1.60593575,5.47991227 L4.15218516,9.04044672 C4.19040383,9.09354774 4.24634709,9.13226724 4.31059877,9.14775504 L5.53027273,9.45253281 C5.67594677,9.48848663 5.80943516,9.56426622 5.91633665,9.67046827 L11.7820711,15.5281753 C11.8900804,15.6360367 11.8900804,15.8113807 11.7820711,15.9192422 C11.7283434,15.9728964 11.657445,16 11.5865466,16 Z" id="Path"></path>
            <g id="Group" transform="translate(15.000000, 17.000000)">
                <path d="M10.9933333,14.5822222 C10.5483333,14.5822222 10.13,14.4088889 9.815,14.0938889 L1.95777778,6.23722222 C1.64333333,6.55222222 1.09388889,6.55166667 0.778888889,6.23722222 L0.386111111,5.84444444 C0.0616666667,5.51944444 0.0616666667,4.99111111 0.386111111,4.66611111 L4.70777778,0.345 C5.02222222,0.03 5.57166667,0.0305555556 5.88666667,0.345 L6.27944444,0.737777778 C6.60388889,1.06277778 6.60388889,1.59166667 6.27944444,1.91666667 L6.27944444,1.91666667 L14.1361111,9.77333333 C14.7855556,10.4227778 14.7855556,11.4805556 14.1361111,12.1305556 L12.1716667,14.0944444 C11.8566667,14.4088889 11.4383333,14.5822222 10.9933333,14.5822222 Z M1.95777778,5.56666667 C2.03166667,5.56666667 2.10222222,5.59611111 2.15444444,5.64777778 L10.2077778,13.7011111 C10.6416667,14.1344444 11.3461111,14.1338889 11.7794444,13.7011111 L13.7438889,11.7372222 C14.1772222,11.3038889 14.1772222,10.5988889 13.7438889,10.1655556 L5.69,2.11222222 C5.63777778,2.06 5.60888889,1.98944444 5.60888889,1.91555556 C5.60888889,1.84166667 5.63833333,1.77111111 5.69,1.71888889 L5.88666667,1.52222222 C5.995,1.41444444 5.995,1.23777778 5.88666667,1.12944444 L5.49388889,0.736666667 C5.38944444,0.632222222 5.20666667,0.632222222 5.10111111,0.736666667 L0.78,5.05777778 C0.672222222,5.16611111 0.672222222,5.34222222 0.78,5.45055556 L1.17277778,5.84333333 C1.27722222,5.94888889 1.46055556,5.94833333 1.56555556,5.84333333 L1.76222222,5.64666667 C1.81388889,5.59555556 1.88444444,5.56666667 1.95777778,5.56666667 Z" id="Shape"></path>
            </g>
            <path d="M25.9054621,29 C25.625015,29 25.3445679,28.8930454 25.1309461,28.6796846 L19.3209805,22.8619017 C19.1139316,22.6545743 19,22.3792347 19,22.0863436 C19,21.792904 19.1139316,21.5175644 19.3209805,21.3107855 C19.7350781,20.8961306 20.4564626,20.8966791 20.8700125,21.3107855 L26.6799781,27.1280199 C27.106674,27.5558384 27.106674,28.2518661 26.6799781,28.6796846 L26.6799781,28.6796846 C26.4663563,28.8930454 26.1859092,29 25.9054621,29 Z M20.0954965,21.5373099 C19.9492477,21.5373099 19.8117629,21.5943523 19.7082385,21.6980161 C19.6047141,21.8016798 19.5477482,21.9393496 19.5477482,22.0857951 C19.5477482,22.2322407 19.6047141,22.3699105 19.7082385,22.4735742 L25.5176563,28.2913571 C25.7312781,28.5052663 26.0790983,28.5047178 26.2927201,28.2913571 C26.5063419,28.0774478 26.5063419,27.7297082 26.2927201,27.5152505 L20.4827545,21.6980161 C20.3792301,21.5943523 20.2417453,21.5373099 20.0954965,21.5373099 Z" id="Shape"></path>
            <path d="M19.2931439,1 C19.2181365,1 19.1431292,0.971298872 19.0857017,0.914482355 C18.9714328,0.800263582 18.9714328,0.614584859 19.0857017,0.500366086 L19.5,0.0856640797 C19.614269,-0.0285546932 19.8000293,-0.0285546932 19.9142983,0.0856640797 C20.0285672,0.199882853 20.0285672,0.385561576 19.9142983,0.499780349 L19.5,0.914482355 C19.4431585,0.971298872 19.3681512,1 19.2931439,1 Z" id="Path"></path>
            <path d="M13.2637198,6 C13.1962412,6 13.1287627,5.9741677 13.0770995,5.92303029 C12.9743002,5.82022827 12.9743002,5.6531091 13.0770995,5.55030709 L17.5501871,1.07710151 C17.6529865,0.974299497 17.8201012,0.974299497 17.9229005,1.07710151 C18.0256998,1.17990352 18.0256998,1.3470227 17.9229005,1.44982471 L13.4498129,5.92303029 C13.3986768,5.97469489 13.3311983,6 13.2637198,6 Z" id="Path"></path>
            <path d="M9.29314386,31 C9.21813654,31 9.14312921,30.9712989 9.08570173,30.9144824 C8.97143276,30.8002636 8.97143276,30.6145849 9.08570173,30.5003661 L9.5,30.0856641 C9.61426897,29.9714453 9.8000293,29.9714453 9.91429827,30.0856641 C10.0285672,30.1998829 10.0285672,30.3855616 9.91429827,30.4997803 L9.5,30.9144824 C9.44257252,30.9712989 9.36756519,31 9.29314386,31 Z" id="Path"></path>
            <path d="M11.2637198,30 C11.1962412,30 11.1287627,29.9741677 11.0770995,29.9230303 C10.9743002,29.8202283 10.9743002,29.6531091 11.0770995,29.5503071 L15.5501871,25.0771015 C15.6529865,24.9742995 15.8201012,24.9742995 15.9229005,25.0771015 C16.0256998,25.1799035 16.0256998,25.3470227 15.9229005,25.4498247 L11.4498129,29.9230303 C11.3981496,29.9741677 11.3311983,30 11.2637198,30 Z" id="Path"></path>
        </g>
    </g>
</svg>