<?xml version="1.0" encoding="UTF-8"?>
<svg width="29px" height="31px" viewBox="0 0 29 31" version="1.1" xmlns="http://www.w3.org/2000/svg" xmlns:xlink="http://www.w3.org/1999/xlink">
    <g id="Icons/Settings" stroke="none" stroke-width="1" fill="none" fill-rule="evenodd">
        <g id="service-history" fill-rule="nonzero">
            <path d="M1.36363636,17 C1.26327273,17 1.18181818,16.8858039 1.18181818,16.745098 L1.18181818,6.0805098 L1.00909091,5.35505882 C1.00327273,5.32905882 1,5.30203922 1,5.2745098 L1,4.25490196 C1,4.11419608 1.08145455,4 1.18181818,4 L2.81818182,4 C2.91854545,4 3,4.11419608 3,4.25490196 L3,5.2745098 C3,5.30203922 2.99672727,5.32905882 2.99090909,5.35505882 L2.81818182,6.0805098 L2.81818182,16.7211373 C2.81818182,16.8618431 2.73672727,16.9760392 2.63636364,16.9760392 C2.536,16.9760392 2.45454545,16.8618431 2.45454545,16.7211373 L2.45454545,6.03921569 C2.45454545,6.01168627 2.45781818,5.98466667 2.46363636,5.95866667 L2.63636364,5.23321569 L2.63636364,4.50980392 L1.36363636,4.50980392 L1.36363636,5.23321569 L1.53636364,5.95866667 C1.54218182,5.98466667 1.54545455,6.01168627 1.54545455,6.03921569 L1.54545455,16.745098 C1.54545455,16.8858039 1.464,17 1.36363636,17 Z" id="Path" fill="#263238"></path>
            <path d="M2.77777778,28 L2.22222222,28 C1.30333333,28 0.555555556,27.2724324 0.555555556,26.3783784 L0.555555556,20.1621622 L0.277777778,20.1621622 C0.124444444,20.1621622 0,20.0410811 0,19.8918919 L0,18.2702703 C0,18.1210811 0.124444444,18 0.277777778,18 L4.72222222,18 C4.87555556,18 5,18.1210811 5,18.2702703 L5,19.8918919 C5,20.0410811 4.87555556,20.1621622 4.72222222,20.1621622 L4.44444444,20.1621622 L4.44444444,26.3783784 C4.44444444,27.2724324 3.69666667,28 2.77777778,28 Z M0.555555556,19.6216216 L0.833333333,19.6216216 C0.986666667,19.6216216 1.11111111,19.7427027 1.11111111,19.8918919 L1.11111111,26.3783784 C1.11111111,26.9745946 1.60944444,27.4594595 2.22222222,27.4594595 L2.77777778,27.4594595 C3.39055556,27.4594595 3.88888889,26.9745946 3.88888889,26.3783784 L3.88888889,19.8918919 C3.88888889,19.7427027 4.01333333,19.6216216 4.16666667,19.6216216 L4.44444444,19.6216216 L4.44444444,18.5405405 L0.555555556,18.5405405 L0.555555556,19.6216216 Z" id="Shape" fill="#263238"></path>
            <g id="Group" transform="translate(18.000000, 20.000000)">
                <path d="M9.122,6.461 L8.9605,6.368 C9.0225,6.0885 9.0575,5.7985 9.0575,5.5005 C9.0575,5.2025 9.0225,4.9125 8.9605,4.633 L9.1215,4.54 L9.5795,4.1375 C9.7585,3.98 9.8015,3.7185 9.6825,3.512 L9.0925,2.49 C8.9735,2.2835 8.725,2.19 8.4995,2.2665 L7.922,2.462 L7.7585,2.5565 C7.332,2.1655 6.8235,1.8625 6.258,1.685 L6.258,1.5 L6.1385,0.902 C6.0915,0.668 5.8865,0.5 5.648,0.5 L4.468,0.5 C4.2295,0.5 4.0245,0.668 3.9775,0.902 L3.858,1.5 L3.858,1.6835 C3.2925,1.861 2.784,2.164 2.3575,2.555 L2.194,2.4605 L1.6165,2.265 C1.3905,2.1885 1.1425,2.282 1.0235,2.4885 L0.4335,3.5105 C0.3145,3.717 0.3575,3.9785 0.5365,4.136 L0.9945,4.5385 L1.1555,4.6315 C1.0935,4.911 1.0585,5.201 1.0585,5.499 C1.0585,5.797 1.0935,6.087 1.1555,6.3665 L0.994,6.4595 L0.536,6.862 C0.357,7.0195 0.314,7.281 0.433,7.4875 L1.023,8.5095 C1.142,8.716 1.3905,8.8095 1.616,8.733 L2.1935,8.5375 L2.3575,8.443 C2.784,8.834 3.2925,9.137 3.858,9.3145 L3.858,9.5 L3.9775,10.098 C4.024,10.332 4.2295,10.5 4.4675,10.5 L5.6475,10.5 C5.886,10.5 6.091,10.332 6.138,10.098 L6.258,9.5 L6.258,9.316 C6.8235,9.1385 7.332,8.8355 7.7585,8.4445 L7.9225,8.539 L8.5,8.7345 C8.726,8.811 8.974,8.7175 9.093,8.511 L9.683,7.489 C9.802,7.2825 9.759,7.021 9.58,6.8635 L9.122,6.461 Z M5.058,7.9 C3.7325,7.9 2.658,6.8255 2.658,5.5 C2.658,4.1745 3.7325,3.1 5.058,3.1 C6.3835,3.1 7.458,4.1745 7.458,5.5 C7.458,6.8255 6.3835,7.9 5.058,7.9 Z" id="Shape"></path>
                <path d="M5.648,10.75 L4.468,10.75 C4.111,10.75 3.802,10.4965 3.7325,10.1465 L3.612,9.497 C3.1445,9.328 2.714,9.0775 2.327,8.751 L2.3185,8.756 L1.696,8.9715 C1.359,9.086 0.9845,8.9445 0.8065,8.636 L0.2165,7.614 C0.0385,7.3055 0.103,6.9105 0.371,6.6755 L0.8755,6.245 C0.8305,5.995 0.808,5.7455 0.808,5.5 C0.808,5.256 0.8305,5.0075 0.875,4.7595 L0.869,4.756 L0.371,4.3245 C0.1035,4.0895 0.0385,3.6945 0.216,3.386 L0.807,2.364 C0.9845,2.056 1.359,1.9145 1.6965,2.0285 L2.3245,2.2515 C2.7105,1.9245 3.1415,1.674 3.608,1.5045 L3.608,1.5 L3.7325,0.853 C3.8025,0.5035 4.112,0.25 4.468,0.25 L5.648,0.25 C6.004,0.25 6.3135,0.5035 6.3835,0.853 L6.504,1.503 C6.9715,1.672 7.402,1.9225 7.7885,2.249 L7.797,2.244 L8.4195,2.0285 C8.7575,1.9135 9.1315,2.0555 9.3095,2.364 L9.8995,3.386 C10.0775,3.6945 10.013,4.0895 9.745,4.3245 L9.24,4.7555 C9.285,5.0055 9.3075,5.2555 9.3075,5.5 C9.3075,5.7435 9.285,5.992 9.241,6.241 L9.247,6.2445 C9.261,6.2525 9.275,6.262 9.287,6.273 L9.745,6.6755 C10.0125,6.9105 10.0775,7.3055 9.9,7.614 L9.309,8.636 C9.132,8.9445 8.758,9.0865 8.4195,8.9715 L7.7915,8.7485 C7.4055,9.0755 6.9745,9.326 6.508,9.4955 L6.508,9.5 L6.3835,10.147 C6.3135,10.4965 6.004,10.75 5.648,10.75 Z M2.3575,8.195 C2.4185,8.195 2.479,8.2175 2.5265,8.2605 C2.939,8.6395 3.4125,8.9145 3.933,9.078 C4.037,9.1105 4.108,9.2075 4.108,9.3165 L4.108,9.5 L4.2225,10.049 C4.2455,10.1655 4.3485,10.25 4.4675,10.25 L5.6475,10.25 C5.766,10.25 5.869,10.1655 5.8925,10.049 L6.012,9.451 L6.007,9.316 C6.007,9.207 6.078,9.11 6.182,9.0775 C6.7025,8.914 7.176,8.639 7.5885,8.26 C7.669,8.186 7.7875,8.1735 7.8825,8.228 L8.046,8.3225 L8.5785,8.4975 C8.693,8.536 8.816,8.4885 8.875,8.3855 L9.466,7.3635 C9.525,7.2605 9.5035,7.129 9.414,7.0505 L8.9745,6.6645 L8.835,6.5835 C8.741,6.529 8.6925,6.4195 8.716,6.3135 C8.776,6.0395 8.807,5.7655 8.807,5.4995 C8.807,5.2335 8.776,4.9595 8.716,4.6855 C8.6925,4.579 8.741,4.4695 8.835,4.415 L8.996,4.322 L9.414,3.948 C9.5035,3.8695 9.525,3.738 9.4655,3.635 L8.8755,2.613 C8.8155,2.51 8.693,2.463 8.5785,2.501 L8.001,2.6965 L7.8825,2.7705 C7.788,2.825 7.669,2.812 7.5885,2.7385 C7.176,2.3595 6.7025,2.0845 6.182,1.921 C6.078,1.8885 6.007,1.7915 6.007,1.6825 L6.007,1.5 L5.8925,0.951 C5.869,0.8345 5.766,0.75 5.6475,0.75 L4.4675,0.75 C4.349,0.75 4.246,0.8345 4.2225,0.951 L4.103,1.549 L4.108,1.6835 C4.108,1.7925 4.037,1.8895 3.933,1.922 C3.4125,2.0855 2.939,2.3605 2.5265,2.7395 C2.4455,2.813 2.327,2.826 2.2325,2.7715 L2.069,2.677 L1.5365,2.502 C1.4225,2.464 1.299,2.5115 1.24,2.614 L0.649,3.636 C0.59,3.739 0.6115,3.8705 0.701,3.949 L1.159,4.3515 L1.28,4.4155 C1.3745,4.47 1.4225,4.5795 1.399,4.6865 C1.3385,4.9595 1.3075,5.233 1.3075,5.5 C1.3075,5.767 1.3385,6.0405 1.399,6.3135 C1.4225,6.42 1.3745,6.5295 1.28,6.584 L1.119,6.6775 L0.701,7.0515 C0.6115,7.13 0.59,7.2615 0.6495,7.3645 L1.2395,8.3865 C1.299,8.489 1.422,8.5365 1.536,8.4985 L2.1135,8.303 L2.2325,8.229 C2.2715,8.206 2.3145,8.195 2.3575,8.195 Z M5.0575,8.15 C3.5965,8.15 2.4075,6.9615 2.4075,5.5 C2.4075,4.0385 3.5965,2.85 5.0575,2.85 C6.519,2.85 7.708,4.0385 7.708,5.5 C7.708,6.9615 6.519,8.15 5.0575,8.15 Z M5.0575,3.35 C3.872,3.35 2.9075,4.3145 2.9075,5.5 C2.9075,6.6855 3.872,7.65 5.0575,7.65 C6.243,7.65 7.208,6.6855 7.208,5.5 C7.208,4.3145 6.243,3.35 5.0575,3.35 Z" id="Shape" fill="#263238"></path>
            </g>
            <path d="M17.7625925,28 L8.61148261,28 C7.17184347,28 6,26.7267097 6,25.1612903 L6,6.83870968 C6,5.27329032 7.17184347,4 8.61148261,4 L10.0359277,4 C10.1669766,4 10.2733352,4.1156129 10.2733352,4.25806452 C10.2733352,4.40051613 10.1669766,4.51612903 10.0359277,4.51612903 L8.61148261,4.51612903 C7.43346655,4.51612903 6.47481502,5.55819355 6.47481502,6.83870968 L6.47481502,25.1612903 C6.47481502,26.4418065 7.43346655,27.483871 8.61148261,27.483871 L17.7625925,27.483871 C17.8936414,27.483871 18,27.5994839 18,27.7419355 C18,27.8843871 17.8941163,28 17.7625925,28 Z" id="Path" fill="#263238"></path>
            <path d="M24.7222222,21 C24.5688889,21 24.4444444,20.8871714 24.4444444,20.7481505 L24.4444444,7.77034472 C24.4444444,6.5206674 23.3227778,5.50369904 21.9444444,5.50369904 L20.2777778,5.50369904 C20.1244444,5.50369904 20,5.39087045 20,5.25184952 C20,5.11282858 20.1244444,5 20.2777778,5 L21.9444444,5 C23.6288889,5 25,6.24262553 25,7.77034472 L25,20.7481505 C25,20.8876751 24.8755556,21 24.7222222,21 Z" id="Path" fill="#263238"></path>
            <path d="M22.8333333,20 C22.7413333,20 22.6666667,19.8899649 22.6666667,19.754386 L22.6666667,7.47368421 C22.6666667,6.93185965 22.3676667,6.49122807 22,6.49122807 L21.1666667,6.49122807 C21.0746667,6.49122807 21,6.38119298 21,6.24561404 C21,6.11003509 21.0746667,6 21.1666667,6 L22,6 C22.5513333,6 23,6.66119298 23,7.47368421 L23,19.754386 C23,19.8899649 22.9253333,20 22.8333333,20 Z" id="Path" fill="#263238"></path>
            <path d="M18.7459242,26 L8.5244548,26 C7.68397205,26 7,25.3353086 7,24.5185185 L7,7.48148148 C7,6.66469136 7.68397205,6 8.5244548,6 L9.79483379,6 C9.93508363,6 10.0489096,6.11061728 10.0489096,6.24691358 C10.0489096,6.38320988 9.93508363,6.49382716 9.79483379,6.49382716 L8.5244548,6.49382716 C7.96396358,6.49382716 7.5081516,6.93679012 7.5081516,7.48148148 L7.5081516,24.5185185 C7.5081516,25.0632099 7.96396358,25.5061728 8.5244548,25.5061728 L18.7459242,25.5061728 C18.886174,25.5061728 19,25.6167901 19,25.7530864 C19,25.8893827 18.8866822,26 18.7459242,26 Z" id="Path" fill="#263238"></path>
            <path d="M16,5 C15.4484,5 15,4.5512 15,4 C15,3.4488 15.4484,3 16,3 C16.5516,3 17,3.4488 17,4 C17,4.5512 16.5516,5 16,5 Z M16,3.4 C15.6692,3.4 15.4,3.6692 15.4,4 C15.4,4.3308 15.6692,4.6 16,4.6 C16.3308,4.6 16.6,4.3308 16.6,4 C16.6,3.6692 16.3308,3.4 16,3.4 Z" id="Shape" fill="#263238"></path>
            <path d="M20.2105263,7 L11.7894737,7 C11.3542105,7 11,6.68938462 11,6.30769231 L11,3.53846154 C11,3.15676923 11.3542105,2.84615385 11.7894737,2.84615385 L13.2147368,2.84615385 C13.5636842,1.76569231 14.7021053,1 16,1 C17.2978947,1 18.4363158,1.76569231 18.7852632,2.84615385 L20.2105263,2.84615385 C20.6457895,2.84615385 21,3.15676923 21,3.53846154 L21,6.30769231 C21,6.68938462 20.6457895,7 20.2105263,7 Z M11.7894737,3.30769231 C11.6447368,3.30769231 11.5263158,3.41107692 11.5263158,3.53846154 L11.5263158,6.30769231 C11.5263158,6.43507692 11.6447368,6.53846154 11.7894737,6.53846154 L20.2105263,6.53846154 C20.3552632,6.53846154 20.4736842,6.43507692 20.4736842,6.30769231 L20.4736842,3.53846154 C20.4736842,3.41107692 20.3552632,3.30769231 20.2105263,3.30769231 L18.5784211,3.30769231 C18.4536842,3.30769231 18.3457895,3.23061538 18.3205263,3.12307692 C18.0973684,2.16030769 17.1215789,1.46153846 16,1.46153846 C14.8784211,1.46153846 13.9026316,2.16030769 13.6794737,3.12307692 C13.6542105,3.23061538 13.5463158,3.30769231 13.4215789,3.30769231 L11.7894737,3.30769231 Z" id="Shape" fill="#263238"></path>
            <path d="M20.7380952,11 L10.2619048,11 C10.1173333,11 10,10.9104 10,10.8 L10,9.2 C10,9.0896 10.1173333,9 10.2619048,9 L20.7380952,9 C20.8826667,9 21,9.0896 21,9.2 L21,10.8 C21,10.9104 20.8826667,11 20.7380952,11 Z M10.5238095,10.6 L20.4761905,10.6 L20.4761905,9.4 L10.5238095,9.4 L10.5238095,10.6 Z" id="Shape" fill="#263238"></path>
            <g id="Group" transform="translate(10.000000, 13.000000)">
                <path d="M4.16666667,4.5 L0.833333333,4.5 C0.526666667,4.5 0.277777778,4.276 0.277777778,4 L0.277777778,1 C0.277777778,0.724 0.526666667,0.5 0.833333333,0.5 L4.16666667,0.5 C4.47333333,0.5 4.72222222,0.724 4.72222222,1 L4.72222222,4 C4.72222222,4.276 4.47333333,4.5 4.16666667,4.5 Z" id="Path"></path>
                <path d="M4.16666667,4.75 L0.833333333,4.75 C0.373888889,4.75 0,4.4135 0,4 L0,1 C0,0.5865 0.373888889,0.25 0.833333333,0.25 L4.16666667,0.25 C4.62611111,0.25 5,0.5865 5,1 L5,4 C5,4.4135 4.62611111,4.75 4.16666667,4.75 Z M0.833333333,0.75 C0.680555556,0.75 0.555555556,0.862 0.555555556,1 L0.555555556,4 C0.555555556,4.138 0.680555556,4.25 0.833333333,4.25 L4.16666667,4.25 C4.31944444,4.25 4.44444444,4.138 4.44444444,4 L4.44444444,1 C4.44444444,0.862 4.31944444,0.75 4.16666667,0.75 L0.833333333,0.75 Z" id="Shape" fill="#263238"></path>
            </g>
            <path d="M12.5203584,17 C12.4461168,17 12.3718752,16.969838 12.3150339,16.9101297 L11.0848269,15.6045474 C10.9717244,15.4845151 10.9717244,15.2893856 11.0848269,15.1693533 C11.1979294,15.049321 11.3817934,15.049321 11.4948959,15.1693533 L12.5203584,16.2576463 L15.5051041,13.0900242 C15.6182066,12.9699919 15.8020706,12.9699919 15.9151731,13.0900242 C16.0282756,13.2100566 16.0282756,13.405186 15.9151731,13.5252183 L12.725103,16.9107452 C12.6688417,16.969838 12.5946001,17 12.5203584,17 Z" id="Path" fill="#263238"></path>
            <g id="Group" transform="translate(10.000000, 18.000000)">
                <path d="M4.16666667,4.72222222 L0.833333333,4.72222222 C0.526666667,4.72222222 0.277777778,4.47333333 0.277777778,4.16666667 L0.277777778,0.833333333 C0.277777778,0.526666667 0.526666667,0.277777778 0.833333333,0.277777778 L4.16666667,0.277777778 C4.47333333,0.277777778 4.72222222,0.526666667 4.72222222,0.833333333 L4.72222222,4.16666667 C4.72222222,4.47333333 4.47333333,4.72222222 4.16666667,4.72222222 Z" id="Path"></path>
                <path d="M4.16666667,5 L0.833333333,5 C0.373888889,5 0,4.62611111 0,4.16666667 L0,0.833333333 C0,0.373888889 0.373888889,0 0.833333333,0 L4.16666667,0 C4.62611111,0 5,0.373888889 5,0.833333333 L5,4.16666667 C5,4.62611111 4.62611111,5 4.16666667,5 Z M0.833333333,0.555555556 C0.680555556,0.555555556 0.555555556,0.68 0.555555556,0.833333333 L0.555555556,4.16666667 C0.555555556,4.32 0.680555556,4.44444444 0.833333333,4.44444444 L4.16666667,4.44444444 C4.31944444,4.44444444 4.44444444,4.32 4.44444444,4.16666667 L4.44444444,0.833333333 C4.44444444,0.68 4.31944444,0.555555556 4.16666667,0.555555556 L0.833333333,0.555555556 Z" id="Shape" fill="#263238"></path>
            </g>
            <path d="M12.5203584,22 C12.4461168,22 12.3718752,21.969838 12.3150339,21.9101297 L11.0848269,20.6045474 C10.9717244,20.4845151 10.9717244,20.2893856 11.0848269,20.1693533 C11.1979294,20.049321 11.3817934,20.049321 11.4948959,20.1693533 L12.5203584,21.2576463 L15.5051041,18.0900242 C15.6182066,17.9699919 15.8020706,17.9699919 15.9151731,18.0900242 C16.0282756,18.2100566 16.0282756,18.405186 15.9151731,18.5252183 L12.725103,21.9107452 C12.6688417,21.969838 12.5946001,22 12.5203584,22 Z" id="Path" fill="#263238"></path>
            <path d="M20.7222222,16 L16.2777778,16 C16.1244444,16 16,15.776 16,15.5 C16,15.224 16.1244444,15 16.2777778,15 L20.7222222,15 C20.8755556,15 21,15.224 21,15.5 C21,15.776 20.8755556,16 20.7222222,16 Z" id="Path" fill="#263238"></path>
            <path d="M20.7222222,21 L16.2777778,21 C16.1244444,21 16,20.776 16,20.5 C16,20.224 16.1244444,20 16.2777778,20 L20.7222222,20 C20.8755556,20 21,20.224 21,20.5 C21,20.776 20.8755556,21 20.7222222,21 Z" id="Path" fill="#263238"></path>
            <path d="M7.75,30.25 L7.25,30.25 C7.112,30.25 7,30.138 7,30 C7,29.862 7.112,29.75 7.25,29.75 L7.75,29.75 C7.888,29.75 8,29.862 8,30 C8,30.138 7.888,30.25 7.75,30.25 Z" id="Path" fill="#263238"></path>
            <path d="M17.7777778,30.25 L10.2222222,30.25 C10.0995556,30.25 10,30.138 10,30 C10,29.862 10.0995556,29.75 10.2222222,29.75 L17.7777778,29.75 C17.9004444,29.75 18,29.862 18,30 C18,30.138 17.9004444,30.25 17.7777778,30.25 Z" id="Path" fill="#263238"></path>
            <path d="M22.5,2 C22.224,2 22,1.9104 22,1.8 L22,0.2 C22,0.0896 22.224,0 22.5,0 C22.776,0 23,0.0896 23,0.2 L23,1.8 C23,1.9104 22.776,2 22.5,2 Z" id="Path" fill="#263238"></path>
            <path d="M23.8,1.25 L22.2,1.25 C22.0896,1.25 22,1.138 22,1 C22,0.862 22.0896,0.75 22.2,0.75 L23.8,0.75 C23.9104,0.75 24,0.862 24,1 C24,1.138 23.9104,1.25 23.8,1.25 Z" id="Path" fill="#263238"></path>
            <path d="M27.5,6 C27.224,6 27,5.9104 27,5.8 L27,4.2 C27,4.0896 27.224,4 27.5,4 C27.776,4 28,4.0896 28,4.2 L28,5.8 C28,5.9104 27.776,6 27.5,6 Z" id="Path" fill="#263238"></path>
            <path d="M28.8,5.25 L27.2,5.25 C27.0896,5.25 27,5.138 27,5 C27,4.862 27.0896,4.75 27.2,4.75 L28.8,4.75 C28.9104,4.75 29,4.862 29,5 C29,5.138 28.9104,5.25 28.8,5.25 Z" id="Path" fill="#263238"></path>
        </g>
    </g>
</svg>