<svg id="Layer_1" data-name="Layer 1" xmlns="http://www.w3.org/2000/svg" viewBox="0 0 91 49"><defs><style>.cls-1{fill:#1a459d;}.cls-2{fill:none;}</style></defs><g id="Main-Screen---Default-Menu"><g id="logo-sm"><path class="cls-1" d="M90.62,20.18A24.07,24.07,0,0,0,46,12.05a24.2,24.2,0,0,1,0,24.87A24,24,0,0,0,75.22,47.47,24.55,24.55,0,0,0,90.62,20.18ZM76.82,32.31H74.21v-12L67.58,32.09H66.32L59.69,20.36v12H57.12V16.68h3.05l6.83,12,6.85-11.95h3Z"/><path id="Path" class="cls-2" d="M36.23,20.72c3.21-1.14,2.91-3.48,2.56-4.54l-1-.18c.12,1.54.2,3.11-1.94,3.92A4.65,4.65,0,0,1,31,18.5l-1,.26A5.85,5.85,0,0,0,36.23,20.72Z"/><path id="Path-2" data-name="Path" class="cls-2" d="M39.08,10A5.83,5.83,0,0,0,41,9.83c-.33-.29-.67-.56-1-.83C39.62,9.18,38.74,9.69,39.08,10Z"/><path id="Path-3" data-name="Path" class="cls-2" d="M34.48,14.13c-2.56,1.55-2.42,2.75-6.48,3.23a4.66,4.66,0,0,0,4,.33c2.76-1.09,1.29-2.51,6-2.89A4.34,4.34,0,0,0,34.48,14.13Z"/><path id="Path-4" data-name="Path" class="cls-2" d="M35.47,18.87c-.71.27-1.42,0-1.66-1-.2,0-.63.51-.81.66.62,1,1.68,1.89,2.88,1.32.74-.36,1.54-1.35.87-3.81a1.29,1.29,0,0,0-.9.24A1.69,1.69,0,0,1,35.47,18.87Z"/><path id="Path-5" data-name="Path" class="cls-2" d="M33.05,31.17a1.29,1.29,0,0,0-1-.1c.27.86,2,2.14,3,1.9C33.27,32.07,33.9,31.61,33.05,31.17Z"/><path id="Path-6" data-name="Path" class="cls-2" d="M40,14.89a1.27,1.27,0,0,0,0,.28,2.2,2.2,0,0,0,1.43.83c1.27,0,2.06-.83,2.57-2.41-.2-.54-.4-1.07-.62-1.59A3.63,3.63,0,0,1,40,14.89Z"/><path id="Path-7" data-name="Path" class="cls-2" d="M39,13c.07.61,1.45.91,1.92,1A3.58,3.58,0,0,0,44,11.89,21.51,21.51,0,0,0,42.73,10C42.12,13,39.79,11.92,39,13Z"/><path id="Path-8" data-name="Path" class="cls-2" d="M36.11,7.7c-2.19-2.15-3.67-1.92-6.22-1.16A12.24,12.24,0,0,0,25,10c4.21-3,5.61-3.22,12-.93C37,8.76,36.7,8.3,36.11,7.7Z"/><path id="Shape" class="cls-2" d="M30.15,17.65C33,16,33.53,13.7,36.61,13.48c.91-.37,3.28,0,4.39-3.22-3.39.83-5.32.35-8.68-.86-3.81-1.2-8.86.21-8.27,5.37C24.37,17.66,27.72,18.59,30.15,17.65Zm-.18-3c-.72.94-3,1.75-3.94.18s.56-3.18,2-3.66a7.42,7.42,0,0,1,6.14,1.11C34.12,12.61,32.16,11.81,30,14.65ZM28.13,9.76c3-.48,4.95,1.06,7.63,1.61a1.05,1.05,0,0,1-.06.24c-1.88,0-5.82-2.23-8.05-1.08-.76.39-1,.46-2.49,2.51a4,4,0,0,1,3-3.28Z"/><path id="Path-9" data-name="Path" class="cls-2" d="M36.61,23c3-.24,4.32-2.15,4.39-3.82h-.1c-.85,2.25-2.33,3.55-5.45,3.43C32.55,22.48,31,21,28.06,19l-.06.12S31.57,23.38,36.61,23Z"/><path id="Path-10" data-name="Path" class="cls-2" d="M33.87,25A6.69,6.69,0,0,0,40,21.3c-1.43,1.94-5,3.8-7.44,2.77-1,0-4.43-3.09-4.56-3.07A8.87,8.87,0,0,0,33.87,25Z"/><path id="Path-11" data-name="Path" class="cls-2" d="M24.16,9.35c-.26.43-.24.93.34.46A17.39,17.39,0,0,1,29.31,7.3,15.84,15.84,0,0,1,34.51,7c.85-.35.46-.85-.14-1.24s-1.32-.48-2-.69C28.78,4.55,25.25,6.64,24.16,9.35Z"/><path id="Path-12" data-name="Path" class="cls-2" d="M37.23,6.79c.13.09.43.57.43-.34A.92.92,0,0,1,38,5.61c-.24-.21-.49-.41-.74-.61a1.76,1.76,0,0,0,0,1.79Z"/><path id="Path-13" data-name="Path" class="cls-2" d="M37.3,8.63c.46.39.9.48.89.24A2.36,2.36,0,0,1,39,6.66c-.35-.23-.7-.45-1.06-.66A1.88,1.88,0,0,0,37.3,8.63Z"/><path id="Path-14" data-name="Path" class="cls-2" d="M37.29,10a.68.68,0,0,0,.31-.11A3.72,3.72,0,0,0,39,8.08c-.39-.37-.78-.73-1.19-1.08C37.39,7.68,36.56,10,37.29,10Z"/><path id="Path-15" data-name="Path" class="cls-2" d="M43.24,33.21A8.76,8.76,0,0,0,40,31a3.93,3.93,0,0,1,.34,1.26A10.57,10.57,0,0,1,43.55,35c.16-.31.31-.61.45-.93a.44.44,0,0,0-.09-.11S43.42,33.38,43.24,33.21Z"/><path id="Path-16" data-name="Path" class="cls-2" d="M38,37.87A4.37,4.37,0,0,1,39.68,41c.45-.31.89-.62,1.32-1a5.61,5.61,0,0,0-2-3A3.2,3.2,0,0,1,38,37.87Z"/><path id="Path-17" data-name="Path" class="cls-2" d="M40.72,35A2.21,2.21,0,0,1,40,36a13.35,13.35,0,0,1,2,3l.84-.84c.06-.06.11-.13.17-.2a6.78,6.78,0,0,0-2.28-3Z"/><path id="Path-18" data-name="Path" class="cls-2" d="M41.34,34A3.15,3.15,0,0,1,41,35.3,7.34,7.34,0,0,1,43.18,38c.29-.36.56-.73.82-1.11A7.82,7.82,0,0,0,41.34,34Z"/><path id="Path-19" data-name="Path" class="cls-2" d="M47,24.24h0q0-.5,0-1a2.53,2.53,0,0,0-1-.57c-.39-.08-1.29-.62-.76-.87.93.33,1.1.47,1.69.63,0-.3-.06-.59-.1-.89-.34-.36-1-.39-1.48-.89a.75.75,0,0,1-.26-.53c.4-.28,1.05.45,1.6.5,0-.18-.07-.36-.1-.54a5.08,5.08,0,0,0-1.81-1.24l0-.23v0c.47-.21,1,.33,1.54.42-.07-.26-.14-.52-.22-.78a3.89,3.89,0,0,0-1.48-.81c.29-.56.64-.24,1.21,0-.09-.26-.18-.51-.28-.76a5.49,5.49,0,0,0-1-.41c0-.08-.25-.08-.17-.53.19,0,.58.18.89.18-.11-.26-.23-.51-.34-.75a1.16,1.16,0,0,0-.71-.13c-1.12.65-1.37,1.63-3.61,1.34a2.8,2.8,0,0,0,1.33.82c.21,0,.07.53-.06.52l-.58-.08a3.23,3.23,0,0,1,0,.76c.26.19.64.2.57.6-.21.06-.35,0-.62.1A2.59,2.59,0,0,1,41,20a1.76,1.76,0,0,0,.67.31c.2.56-.45.45-.8.34l-.17.87c.81.4,1.39.82-.17.68-.29,1.28-.45.81.68,1.5a.42.42,0,0,1-.1.47c-.32.2-.74-.29-1.09-.4a1.82,1.82,0,0,1-.39.76c.41.52,1.82.58,1.25,1.25a9,9,0,0,0-1.76-.56c-.06.16-.62.65-.6.73a17.86,17.86,0,0,1,3.77,2c-.06.19-.22.22-.34.5,0-.27-4.58-2.67-5-1.35a31,31,0,0,1,8.48,5c.13-.32.25-.63.36-1-.47-.6-1.32-.95-1.77-1.44,0-1.28,1.4.86,2.13.32.09-.32.17-.64.25-1a10.65,10.65,0,0,1-1.6-1c-.23-.24-.15-.42.11-.69.31,0,1.15.74,1.66.92l.15-.88c-.63-.29-1.2-.91-1.81-1.22l.16-.55c.56,0,1.09.77,1.77.77,0-.31.06-.63.07-.94-.44-1-2.1-.73-2.1-1.54C45.52,23.34,46.31,24,47,24.24Z"/><path id="Path-20" data-name="Path" class="cls-2" d="M25.65,6c.38,0,.52-.44.61-.56C27.33,4.09,28.59,3,30,2.85l0-.07A16.42,16.42,0,0,0,25,2v.45c.33.27,2.72.29,1.94,1.2A12,12,0,0,0,25,3.16v.73c.44.28.62.13,1.18.5-.07.64-.81.08-1.18.08v1C25.12,5.83,25.28,6,25.65,6Z"/><path id="Path-21" data-name="Path" class="cls-2" d="M31,40a5.72,5.72,0,0,1,2.46,4c.52-.13,1-.28,1.54-.43-.49-2.07-1.07-2.7-2-3.38Z"/><path id="Path-22" data-name="Path" class="cls-2" d="M28.71,29.81a4.24,4.24,0,0,1-4,1.62v3.2c-.1.74-2.63-.07-3.11-.07-1.33.14-1.62.73-2.64,2.94,1.41-.67,1.37-1.27,2.92-1.27s.84.4,2.24.52V35.28h.56c1.11.18,2.63,2.36,5.29,2.7,1.19.4,8.37-4.8,8.46-.74.87.67,3.07-5.63-.21-7.89-1.24-.85-4.68-1.07-6.08,1,3-.83,3.47,1.32,4.74,1.45,3,.29.92,2.05,2.3,3-.09.32-.09.58-.51.62-.53-.56-.2-1.19-.93-1.65-2.15-1.39-4,2.59-7.14,2.89-1.95.65-5.56-1.62-5.5-3.89,2.09,0,3.94,0,5.57-1.55,1.76-1.31.21-4.18-1.48-2.82-.65,1.84.7,1.43,1,2C29.86,30.86,28.93,30.17,28.71,29.81Z"/><path id="Path-23" data-name="Path" class="cls-2" d="M25.69,21.41c0-.17-.57-1.47-.69-1.41v6C25.83,26,26.37,25.05,25.69,21.41Z"/><path id="Path-24" data-name="Path" class="cls-2" d="M37,38.77a5.51,5.51,0,0,1,1,3.23c.32-.27.64-.56,1-.84A6.07,6.07,0,0,0,37.87,38S37.15,38.66,37,38.77Z"/><path id="Path-25" data-name="Path" class="cls-2" d="M36,39.51A8.52,8.52,0,0,1,37,43c.35-.23.69-.47,1-.72a7.87,7.87,0,0,0-1-3.28,2,2,0,0,1-1,.51Z"/><path id="Path-26" data-name="Path" class="cls-2" d="M35.81,40c-.76.16-1.89.11-1.81.25.8,1.29,1.39,1.62,1.46,3.75L37,43.33A5.28,5.28,0,0,0,35.81,40Z"/><path id="Path-27" data-name="Path" class="cls-2" d="M41,32v1a8.91,8.91,0,0,1,3.13,3q.46-.59.87-1.2A9.7,9.7,0,0,0,41,32Z"/><path id="Path-28" data-name="Path" class="cls-2" d="M19,43.94c.07,1.41,2.55,2.1,5,2.06v-.45c-1.34,0-4.06-.08-4-1.68.05-1.41,2.34-1.46,4-1.45V42C21.15,42,19.14,42.42,19,43.94Z"/><path id="Path-29" data-name="Path" class="cls-2" d="M3,20a8.17,8.17,0,0,1,.49-.71c.67-.87,3-1.95,2.43-3.17A4.21,4.21,0,0,1,5.57,14,17.05,17.05,0,0,0,3,20Z"/><path id="Shape-2" data-name="Shape" class="cls-2" d="M21,43.89c0,1.16,1.21,1.51,3.87,1.59V46c2.29-.08,4.17-.67,4.12-2.1s-1.68-1.79-4.13-1.9l0,.54C22.56,42.47,21,42.62,21,43.89Zm5.67,0c0,.62-.8.82-1.8.8v.42c-1.69-.08-2.61-.28-2.65-1.23,0-.64.91-1.09,2.65-1.1v.35C25.94,43.1,26.66,43.42,26.67,43.93Z"/><path id="Shape-3" data-name="Shape" class="cls-2" d="M22.5,41h7.81c.54-1.32,1-2.21.47-2.67-1.33-1.28-4.14-.49-5.74-.59-3.91-1.16-5.35-.9-5.82.38C18.29,40.13,20.43,41,22.5,41Zm5.65-2.34c.13-.32.32.07.49.16s-.05.11,0,.2-.24.05-.37.05-.14-.28-.09-.41Zm-1-.2a1.08,1.08,0,0,0,.44,0c0,.18.07.3,0,.5a1,1,0,0,1-.56,0,1.15,1.15,0,0,1,.13-.49Zm-1.32-.1.61,0a4.07,4.07,0,0,1,0,.5,2.15,2.15,0,0,1-.61.09Zm2.13,1.12c.27,0,.18.25.1.38-.45.57-2.77.81-3.59.49V39.4a6,6,0,0,0,3.5.07Zm-3.5-1.4c.71-.08.74.09.71.87l-.71-.06Z"/><path id="Path-30" data-name="Path" class="cls-2" d="M22,45c0,.93,1.07,1.06,2,1V44C23.18,43.93,22,44,22,45Z"/><path id="Path-31" data-name="Path" class="cls-2" d="M30.77,43c-.64,1.94-1.6,2.47-3.77,3a19.29,19.29,0,0,0,4-.85A5.49,5.49,0,0,0,30.77,43Z"/><path id="Path-32" data-name="Path" class="cls-2" d="M36,31c-1.82-1-1.18-1.83-3-2C33.09,30.29,35.05,31.08,36,31Z"/><path id="Path-33" data-name="Path" class="cls-2" d="M12,20.79a5.75,5.75,0,0,0,4.18-.22c.78-.37,2.5-1.11,2.82-2.43a1.06,1.06,0,0,0-1.4.34A5.62,5.62,0,0,1,12,20.08c-1.5-.27-2.43-2.37-2.89-1.89-.61,1.86,1.75,3.64,4.54,3.79,1.09.16,3.92-.64,3.4-1.09a1.7,1.7,0,0,0-1,.26,5.76,5.76,0,0,1-4.14,0C11.54,21,11.68,20.77,12,20.79Z"/><path id="Path-34" data-name="Path" class="cls-2" d="M18.25,16.84c.23.66.84.8.74-.09-.7-1.94-1.87-4.17-4.54-3.68-2,.37-3.06,3.23-5.45,2.1.28,1,.62,1.75,1.8,1.82h.07c.28-.06,4.14-1.78,5.6-.26.06.06.35.25.35.26s-.12.06-.27.12c.41,2.88-4.5,2.28-3.28,0-.61.06-1,.16-1.1,1s.58,1.81,2.13,1.87c4.75.2,4-4.84.21-4.92v-.72C16.68,14.14,17.74,14.82,18.25,16.84Z"/><path id="Shape-4" data-name="Shape" class="cls-2" d="M6.47,16.75c0,.4-2.1,2.42-2.71,3.62-1.44,2.82-.93,10.47,2.39,13.11a7.82,7.82,0,0,0,4,1.53,21.64,21.64,0,0,0,4.06-.46l.19.45a19.39,19.39,0,0,1-5.69.45,7.91,7.91,0,0,1-3.92-1.91c.16,1.37,2.69,2.82,6,2.79a12.16,12.16,0,0,0,3.71-.82l.24.47a10.81,10.81,0,0,1-5.5,1c-1.08,0-2.63-.74-2.93-.52l.17.24c1.18,1.47,1.59,1.17,3.68,1.17s3.11-.73,4.69-1.42l.28.62a26.14,26.14,0,0,0-2.46,1,11,11,0,0,1-4.93.28c.19.23.38.45.58.67a2.9,2.9,0,0,0,1.63.57c2.92,0,4-1.56,5.35-2l.27.47a17.49,17.49,0,0,0-2.69,1.26,9.12,9.12,0,0,1-3.38.95c.22.23.47.44.72.66.68.33,1.2,0,1.81-.16s3.15-2.22,3.73-2.34l.22.46c-.56.33-1.59,1.31-2.29,1.78a9.2,9.2,0,0,1-2.52,1.07l.56.43c1.54.51,3.62-1.66,4.65-2.67.71.36-1.24,2-1.67,2.36A10.11,10.11,0,0,1,12.85,43l.42.27c1.81.41,3.33-1.46,4.11-3l.35.12A6.69,6.69,0,0,1,14.63,44l.28.15c1.88.08,2.3-1.75,3.27-3.37,1.24.43-1.18,3.26-1.73,4.1l.44.18c.83.07.86-.66,1.11-.72.11.19.65.42.08,1.16.52.18,1,.34,1.58.48a3.2,3.2,0,0,1-1.17-2.69,2.7,2.7,0,0,1,.9-1.83c.87-.49.52-.63,0-.81a3.75,3.75,0,0,1-1.77-1.78c-.18-.4-1.23-.73-.79-1.49.6-.61.87-.34,1.53-1.14,1-1.17,1.15-2.64,3.6-3.55.62-.23,1.38-.35.93-1.25a2.91,2.91,0,0,1-.45-1.32,1.16,1.16,0,0,0-1-.49c-.12,0-2.32.8-2.93-.55L17.1,31l-.28-.29L18,28.93c0-1.29.65-2.44,1.13-2.6.46.12-.21.69-.22,1.49.23,2.27,2.87,1.09,1.77-.5-.19-.9.36-1.48-.83-1.48-1.28.17-.89-.26-.41-1l1.3-2.71c-.58.1-.78.7-1.42,1.58-.52.42-.66,0-.5-.38.29-.6,2-2.77,2.26-4.31.08-.23,0-.66-.49-.21-2.92,4.05-5.45,5.16-8.18,4.55a7.58,7.58,0,0,1-3.59-2.59c-7.8,1.2-1.9,20,7.45,10.38l.34.27a7.94,7.94,0,0,1-2.35,2.23c-6,3-10.75-3.32-10.75-8.86,0-1.41.57-4.81,4-6,1.63-.37.78-1,.6-1.78a7.7,7.7,0,0,1,1.89-8l.4-.23c.09.9-2.48,2.94-1.35,4.38.64.88,2.5-.75,3-1.07,3.05-2.15,5.64-.89,7.39,1.81,1,2.32,1,.54.69-.33-1.45-4.34-6.53-4-8.84-2.56-.38.29-1,.53-.54-.21,2.87-3.33,10.11-1.54,10.7,3.64l.82,7.38c1,1.19-2.07,4.12-.59,6.52.92,1.37,3.26,1.73,6.37.93,3.47-1.14,1.32-8.31.46-10.42-.48-.92-1.27-2.68-1.73-2.14.42,1.18,1.6,4.29,1.14,4.46-.61-.62-1.44-4.09-2.36-5.9v1.74a14.54,14.54,0,0,1,1.74,6c.11,2.39-.46,3.47-1.71,3.58v.89c1.8-.52,2.41-1.24,2.69-3.38h0l.69-.24A4.47,4.47,0,0,1,28,27.22a3.55,3.55,0,0,1-3,.84V12.92c-.41-3.38-7-5.81-9.37-5.79-.15-.06-.54-.39.27-.55C18.69,6,23.14,7.67,25,9.89V7.52a5.86,5.86,0,0,0-2.58-4.3c-3.66-.78-7.35.67-9.43,1.72a23,23,0,0,0-6,5.68C6,12.65,6.19,14.1,6.47,16.75Zm7.06-11c2.54-1.36,4.72-2.21,7.75-1.7,0,0,.63.25,1.22,2,.06.55-.26.31-.54.16-4.37-1.83-5.47-.73-8.47,0C13.12,6.09,13.34,5.8,13.53,5.74Z"/><path id="Path-35" data-name="Path" class="cls-2" d="M29.65,40a3.31,3.31,0,0,1-.65.82c1.09,1.3,1.88,2.57,1.51,4.18.51-.12,1-.25,1.49-.4A5.65,5.65,0,0,0,29.65,40Z"/><path id="Path-36" data-name="Path" class="cls-2" d="M40,22.41c-2.31,1.83-3.36,2.71-5.53,2.7-1.71,0-3.56-1.06-5.44-3.11l0,0a7.16,7.16,0,0,0,5.29,4A7.41,7.41,0,0,0,40,22.41Z"/><path id="Path-37" data-name="Path" class="cls-2" d="M36.78,36A2,2,0,0,0,35,36.6c.21,1,1.17,1.18.69,3.4C36.72,39.66,37.36,37.72,36.78,36Z"/><path id="Path-38" data-name="Path" class="cls-2" d="M33,34.93a6.31,6.31,0,0,1-2.55-2.51C30.2,32,29.32,32,29,32,29.34,33,31.94,35.44,33,34.93Z"/><path id="Path-39" data-name="Path" class="cls-2" d="M33.49,39a3.92,3.92,0,0,0,.35-3c-.62.11-1.2.42-1.84.55A13.6,13.6,0,0,1,33.49,39Z"/><path id="Path-40" data-name="Path" class="cls-2" d="M38,25.52h-.07c-.74,1.34-2.77,1.83-4.45,1.74C31.33,27.14,29.25,25,29,25a7,7,0,0,0,4.36,3C35,28.07,37.45,27.12,38,25.52Z"/><path id="Path-41" data-name="Path" class="cls-2" d="M34,34c-2.53-1.82-2.14-2.45-2.58-2.77s-.93-.17-1.42-.14C30.22,32.26,33,34.13,34,34Z"/><path id="Path-42" data-name="Path" class="cls-2" d="M31,36a5.9,5.9,0,0,1-2.71-2.53A1.59,1.59,0,0,0,27,33C26.73,33.77,29.23,36.18,31,36Z"/><path id="Path-43" data-name="Path" class="cls-2" d="M26,36.76A10,10,0,0,1,25,36C24.91,36.85,25.68,39.56,26,36.76Z"/><path id="Path-44" data-name="Path" class="cls-2" d="M27.36,33.39C27,33,26.36,33,26,33a6.87,6.87,0,0,0,4,3A11,11,0,0,1,27.36,33.39Z"/><path id="Shape-5" data-name="Shape" class="cls-1" d="M23,44.41c0,1.22.86,1.48,2.38,1.59v-.55c.9,0,1.64-.22,1.62-1s-.65-1.06-1.62-1V43C23.82,43,23,43.59,23,44.41Zm1.87.65c-.55,0-1.18,0-1.18-.66s.7-.71,1.18-.65Z"/><path id="Path-45" data-name="Path" class="cls-1" d="M13.2,6.76c2.92-.88,4-2.22,8.27,0,.28.18.58.47.52-.2-.57-2.09-1.18-2.36-1.18-2.4-3-.62-5.1.42-7.58,2.08C13.05,6.33,12.83,6.68,13.2,6.76Z"/><path id="Path-46" data-name="Path" class="cls-1" d="M26,38.07,25.05,38,25,39a3.83,3.83,0,0,0,.95-.14A7,7,0,0,0,26,38.07Z"/><path id="Path-47" data-name="Path" class="cls-1" d="M28.59,11c2.31-1.36,6.4,1.33,8.35,1.28A1.27,1.27,0,0,0,37,12c-2.78-.65-4.78-2.49-7.91-1.91A4.45,4.45,0,0,0,26,14C27.51,11.57,27.8,11.49,28.59,11Z"/><path id="Path-48" data-name="Path" class="cls-1" d="M24,38v.92L25,39C25,38.13,25,37.94,24,38Z"/><path id="Path-49" data-name="Path" class="cls-1" d="M29.18,11.21c-1.4.4-2.75,1.84-1.93,3.06s3.05.62,3.73-.16c2.07-2.37,3.94-1.7,4-2A7.85,7.85,0,0,0,29.18,11.21Z"/><path id="Path-50" data-name="Path" class="cls-1" d="M28.26,39c.22,0,.51.11.64-.09,0-.16.2-.29.05-.37s-.61-.87-.85-.27C28,38.47,27.87,39,28.26,39Z"/><path id="Path-51" data-name="Path" class="cls-1" d="M24,40.86c.89.31,3.42.08,3.91-.45.09-.12.19-.32-.11-.35A7.77,7.77,0,0,1,24,40Z"/><path id="Path-52" data-name="Path" class="cls-1" d="M27.93,39c.14-.35,0-.57,0-.9a1.85,1.85,0,0,1-.74-.06,2.19,2.19,0,0,0-.21.88,1.56,1.56,0,0,0,.93.08Z"/><path id="Shape-6" data-name="Shape" class="cls-1" d="M49,24.5A24.5,24.5,0,1,0,24.5,49,24.53,24.53,0,0,0,49,24.5Zm-2.12,1.11c0,.32,0,.64-.06.95-.64,0-1.14-.78-1.66-.78l-.15.56c.57.31,1.1.93,1.69,1.23,0,.3-.09.59-.14.89-.48-.18-1.26-.93-1.55-.93-.25.27-.32.45-.1.69a8.47,8.47,0,0,0,1.49,1c-.07.32-.15.65-.23,1-.68.55-2-1.6-2-.32.42.5,1.22.85,1.66,1.46-.1.32-.22.65-.34,1a28.92,28.92,0,0,0-7.94-5.06c.37-1.33,4.65,1.1,4.65,1.36.12-.27.27-.3.32-.5a16.26,16.26,0,0,0-3.53-2c0-.08.5-.57.56-.73A7.84,7.84,0,0,1,41.2,26c.54-.68-.78-.74-1.17-1.26A2,2,0,0,0,40.4,24c.32.11.72.61,1,.4a.43.43,0,0,0,.09-.47c-1.06-.7-.91-.23-.64-1.52,1.47.14.92-.29.16-.69l.16-.87c.34.1.94.22.75-.34-.23-.12-.32-.05-.62-.32a3.33,3.33,0,0,0,.16-.88,5.06,5.06,0,0,1,.58-.1c.06-.4-.3-.41-.54-.61a3.31,3.31,0,0,0,0-.77l.55.08c.12,0,.24-.48,0-.52a2.53,2.53,0,0,1-1.24-.83c2.1.29,2.33-.7,3.37-1.35.09-.07.43,0,.67.12s.22.5.32.76c-.29,0-.66-.22-.84-.18-.07.46.16.46.16.53a5.67,5.67,0,0,1,1,.42c.09.25.18.51.26.77-.53-.25-.86-.58-1.13,0a3.6,3.6,0,0,1,1.38.82c.08.26.14.53.21.79-.49-.09-1-.64-1.44-.42v0l0,.23a4.74,4.74,0,0,1,1.69,1.26c0,.18.07.36.1.55-.52-.06-1.12-.79-1.5-.51a.73.73,0,0,0,.24.53c.48.51,1.08.54,1.39.9,0,.3.07.6.09.91-.55-.16-.71-.3-1.58-.64-.5.25.35.8.71.88a2.13,2.13,0,0,1,.92.58q0,.5,0,1v0c-.64-.26-1.38-.91-2-.47C44.91,24.87,46.47,24.55,46.88,25.61Zm-2.29,8.82c-.55-1.12-2.79-2.78-3.69-3.32a4.92,4.92,0,0,0-.39-1.53c1.23.27,2.76,1.71,3.72,2.68.21.21.77.91.77.91a.45.45,0,0,1,.11.13C45,33.68,44.77,34.06,44.59,34.43Zm-1,1.73a8.07,8.07,0,0,0-2.45-2.94v-1A7.83,7.83,0,0,1,44.3,35c-.21.4-.43.79-.67,1.18Zm-1.07,1.59a6.35,6.35,0,0,0-1.82-2.39A2.94,2.94,0,0,0,41,34.21a7,7,0,0,1,2.22,2.55c-.22.35-.45.67-.68,1Zm-.59.77-.63.68a11.36,11.36,0,0,0-1.48-2.47,1.79,1.79,0,0,0,.53-.79,5.54,5.54,0,0,1,1.71,2.42,1.83,1.83,0,0,1-.13.16Zm-2.15,2.32A4.55,4.55,0,0,0,38.71,38a2.26,2.26,0,0,0,.65-.79A5.52,5.52,0,0,1,40.69,40c-.28.29-.57.58-.87.86ZM38.36,42.1a4.6,4.6,0,0,0-1-2.76c.13-.08.77-.65.8-.65a5,5,0,0,1,1,2.69c-.29.25-.57.49-.87.72Zm-1.6,1.15a7.75,7.75,0,0,0-.87-3.12,1.75,1.75,0,0,0,.94-.44,7,7,0,0,1,.84,2.93c-.29.22-.6.43-.91.63Zm-1.73,1a6.55,6.55,0,0,0-1.11-3.7c-.06-.14.79-.08,1.36-.25a6.24,6.24,0,0,1,.9,3.29c-.37.23-.75.45-1.15.66Zm-1.86.89a8.46,8.46,0,0,0-1.85-4.89l1.51.23c.7.84,1.12,1.59,1.49,4.13-.37.19-.76.36-1.15.53Zm-4-17.47c1.75-1.34,3.35,1.49,1.53,2.79C29,32,27.07,32,24.92,32c-.07,2.26,3.65,4.5,5.66,3.86,3.2-.31,5.15-4.24,7.37-2.87.74.46.4,1.09,1,1.64.43,0,.43-.31.52-.62-1.43-.92.77-2.67-2.37-3-1.31-.13-1.79-2.26-4.88-1.44,1.44-2,5-1.8,6.26-.95,3.38,2.24,1.11,8.46.22,7.79-.1-4-7.5,1.14-8.73.74-2.74-.34-4.3-2.49-5.44-2.67H23.9V36c-1.44-.13-.74-.52-2.31-.52s-1.55.59-3,1.25c1.05-2.18,1.35-2.77,2.72-2.9.5,0,3.1.8,3.2.06V30.73a4.44,4.44,0,0,0,4.09-1.6c.23.36,1.19,1,1.56.52-.29-.53-1.69-.12-1-1.95Zm-4.64-8.38c.13-.07.74,1.38.78,1.57.77,4,.16,5.08-.78,5.1Zm0-14.83c.43,0,1.28.54,1.36-.08-.65-.36-.86-.22-1.36-.48V3.21a15.11,15.11,0,0,1,2.24.48c.89-.88-1.86-.9-2.24-1.16V2.09a22.08,22.08,0,0,1,5.77.76l0,.06a7,7,0,0,0-4.29,2.51c-.1.11-.27.56-.7.54a.71.71,0,0,1-.75-.54Zm9.83-.13c.56.46.92,1,.12,1.46-2.65-.12-3.61-.09-4.89.35a16,16,0,0,0-4.53,3c-.55.56-.57,0-.32-.55,1-3.2,4.34-5.69,7.72-5.07a20.38,20.38,0,0,1,1.91.83Zm10,9.75a2.84,2.84,0,0,1-2.82,1.82A2.75,2.75,0,0,1,40,15.3a.52.52,0,0,1,0-.21,3.87,3.87,0,0,0,3.66-2.18c.24.39.47.8.69,1.2ZM43.28,12.3a4.09,4.09,0,0,1-3.5,2.18c-.53-.06-2.1-.36-2.18-1,.9-1.14,3.54-.07,4.25-3.13a21.46,21.46,0,0,1,1.44,2Zm-7,3.93A1.91,1.91,0,0,1,37.43,16c.87,2.69-.17,3.76-1.13,4.15a3.19,3.19,0,0,1-3.73-1.44c.22-.16.79-.68,1-.71a1.55,1.55,0,0,0,2.16,1.12,1.69,1.69,0,0,0,.5-2.86Zm-4.21,2.06A4,4,0,0,1,28.29,18c3.85-.51,3.72-1.77,6.13-3.41a3.86,3.86,0,0,1,3.34.7C33.27,15.65,34.66,17.15,32.05,18.29Zm-.29.69c.59,1.1,2.89,2.66,4.83,1.74,2.14-1,2.06-2.92,1.94-4.8l1,.21A4.42,4.42,0,0,1,37,21.7c-2.51,1.09-5.09-.62-6.21-2.41Zm9.11-9.77a4.26,4.26,0,0,1-1.71.18c-.3-.34.49-.9.81-1.11.3.3.61.61.9.93ZM39.51,7.87a3,3,0,0,1-1.16,1.39.62.62,0,0,1-.26.09c-.6,0,.08-1.8.43-2.33.34.28.67.56,1,.85ZM38,6.65a2,2,0,0,0-.52,1.68c0,.18-.28.11-.57-.18a1.57,1.57,0,0,1,.41-2l.68.5ZM36.9,5.84a.69.69,0,0,0-.37.7c0,.77-.33.36-.48.29a1.2,1.2,0,0,1,0-1.51C36.36,5.48,36.63,5.66,36.9,5.84Zm-.62,3c-5.77-1.76-7-1.56-10.85.71a11.23,11.23,0,0,1,4.42-2.64c2.3-.58,3.64-.75,5.61.89.54.45.81.81.81,1Zm-3.64.27c3.29,1.14,5.16,1.59,8.47.81-1.07,3-3.39,2.69-4.28,3.05-3,.21-3.54,2.37-6.3,3.93-2.38.88-5.65,0-6-2.71C24,9.32,28.92,8,32.63,9.12ZM27.49,18c3,2.57,4.61,4.54,7.6,4.67,3.22.14,4.74-1.54,5.62-4.48h.1a5,5,0,0,1-4.52,5c-5.2.52-8.87-5-8.87-5ZM33,23.63c2.43.92,6.06-.74,7.51-2.45a7,7,0,0,1-6.2,3.28,9,9,0,0,1-5.92-3.54c.13,0,3.59,2.74,4.6,2.71Zm1.6,8.81a3,3,0,0,1-2.56-1.53A1.1,1.1,0,0,1,33,31c.72.35.18.73,1.66,1.45Zm-1.2-2.27c1.38.1.9.62,2.28,1.29-.73.06-2.22-.46-2.29-1.29Zm-5.84,2.45a1.66,1.66,0,0,1,1.19.36,5.29,5.29,0,0,0,2.56,1.94C29.67,35.06,27.31,33.21,27.59,32.62Zm-1.91.16a1.67,1.67,0,0,1,1.18.3,9.22,9.22,0,0,0,2.29,2,6,6,0,0,1-3.47-2.35ZM29,32.19c.29,0,1.09,0,1.32.28a5.34,5.34,0,0,0,2.33,1.67c-1,.33-3.34-1.31-3.65-2Zm1.58-.68c.37,0,.68-.15,1.08.09s0,.62,2,1.82c-.76.1-2.88-1.13-3.05-1.92Zm-.9-6.76c.26,0,2.41,1.7,4.61,1.8,1.73.07,3.83-.32,4.59-1.38h.07c-.56,1.28-3.09,2-4.78,2-.86,0-3.6-1-4.49-2.39Zm4.78,1A7.07,7.07,0,0,1,29.35,23h0a8.69,8.69,0,0,0,5.22,2.19c2.09,0,3.09-.61,5.31-1.91-1,1.46-3.45,2.39-5.49,2.54Zm.34,10.64a1.8,1.8,0,0,1,1.66-.58c.54,1.69-.05,3.6-1,3.94.45-2.18-.45-2.38-.64-3.36Zm-1.47,2.88a9.46,9.46,0,0,0-1.2-1.65c.52-.09,1-.3,1.48-.37a2.23,2.23,0,0,1-.28,2ZM26,36.91c-.33,2-1.12.06-1-.56.33.2.67.38,1,.55Zm-6.87,1.76c.43-1.12,1.73-1.35,5.3-.33,1.46.08,4-.61,5.23.51.45.41.07,1.18-.43,2.34H22.14c-1.89,0-3.84-.76-3-2.52Zm5.35,3.27c2.58.13,4.29.64,4.33,2.16s-1.92,2.27-4.32,2.37v-.59c-2.8-.09-4.06-.48-4.06-1.8s1.63-1.61,4.08-1.53Zm-.6-.32v.53c-1.88,0-4.48.06-4.54,1.87-.06,2,3,2.15,4.54,2.15v.58c-2.77,0-5.58-.83-5.65-2.64.16-2,2.42-2.55,5.65-2.49Zm2.67,5.2c2.17-.45,3.14-.91,3.77-2.57a4.24,4.24,0,0,1,.2,1.84,22.37,22.37,0,0,1-4,.73Zm4.64-.93A6.11,6.11,0,0,0,30,41.36a3.89,3.89,0,0,0,.55-.89,6.93,6.93,0,0,1,2,5l-1.24.43Zm-19-40.15c2-1,5.62-2.47,9.18-1.69a5.77,5.77,0,0,1,2.5,4.22v2.35c-1.81-2.19-6.13-3.81-8.84-3.27-.79.16-.41.48-.27.54,2.29,0,8.71,2.37,9.11,5.71V28.51a3.5,3.5,0,0,0,2.9-.83,4.47,4.47,0,0,0,1.05-3.42l-.67.24h0c-.27,2.1-.87,2.81-2.62,3.32V27c1.22-.12,1.78-1.18,1.66-3.54a14.38,14.38,0,0,0-1.68-5.87V15.83c.89,1.78,1.69,5.19,2.29,5.8.45-.16-.7-3.22-1.11-4.39.45-.53,1.22,1.2,1.68,2.11.84,2.08,2.93,9.15-.44,10.26-3,.79-5.31.43-6.2-.91-1.44-2.37,1.51-5.26.58-6.42L20.5,15c-.58-5.1-7.63-6.86-10.41-3.58-.46.72.16.49.52.21,2.25-1.46,7.19-1.76,8.6,2.51.33.86.31,2.61-.67.33-1.7-2.66-4.22-3.9-7.19-1.79-.5.32-2.31,1.93-2.93,1.06-1.1-1.42,1.4-3.43,1.32-4.32l-.38.24a7.63,7.63,0,0,0-1.84,7.92c.17.73,1,1.39-.59,1.75C3.6,20.56,3.06,23.9,3,25.29,3,30.75,7.65,37,13.5,34a7.93,7.93,0,0,0,2.28-2.19l-.33-.27c-9.1,9.52-14.83-9-7.24-10.2a7.44,7.44,0,0,0,3.5,2.55c2.64.6,5.11-.5,7.94-4.48.45-.45.56,0,.48.21-.28,1.51-1.92,3.64-2.19,4.23-.16.35,0,.79.48.38.62-.86.81-1.45,1.38-1.56l-1.26,2.67c-.47.72-.85,1.14.39,1,1.16,0,.63.57.81,1.46,1.08,1.56-1.49,2.72-1.71.49,0-.79.65-1.35.21-1.47-.47.15-1.07,1.29-1.1,2.56L16,31.1l.28.29,1.32-1.85c.59,1.32,2.73.57,2.85.54a1.13,1.13,0,0,1,1,.48,2.9,2.9,0,0,0,.43,1.3c.44.89-.3,1-.9,1.23-2.39.9-2.54,2.35-3.5,3.5-.65.78-.91.51-1.49,1.12-.43.75.59,1.08.77,1.47a3.72,3.72,0,0,0,1.72,1.75c.55.18.88.32,0,.8a2.61,2.61,0,0,0-.87,1.8,3.17,3.17,0,0,0,1.13,2.65c-.52-.14-1-.3-1.54-.47.56-.73,0-1-.08-1.15-.23.06-.28.78-1.07.71l-.43-.18c.53-.83,2.89-3.61,1.68-4-.94,1.59-1.35,3.4-3.18,3.31l-.27-.14a6.64,6.64,0,0,0,3-3.65l-.35-.12c-.76,1.55-2.23,3.39-4,3l-.42-.27a8.85,8.85,0,0,0,1.78-1.11c.42-.34,2.32-2,1.63-2.32-1,1-3,3.13-4.52,2.63L10.45,42A8.85,8.85,0,0,0,12.9,40.9c.68-.46,1.68-1.43,2.22-1.75l-.23-.46c-.56.11-3.09,2.17-3.62,2.31s-1.09.48-1.76.16l-.7-.66a8.78,8.78,0,0,0,3.3-.94,17.69,17.69,0,0,1,2.6-1.24l-.25-.45c-1.31.45-2.36,2-5.21,2a2.87,2.87,0,0,1-1.59-.57c-.19-.21-.38-.43-.56-.66a10.52,10.52,0,0,0,4.8-.28c.81-.29,1.57-.8,2.39-1l-.27-.6c-1.54.67-2.67,1.39-4.56,1.39S7,38.42,5.88,37l-.16-.24c.28-.21,1.8.53,2.85.53a10.49,10.49,0,0,0,5.35-1l-.24-.46a11.46,11.46,0,0,1-3.6.8c-3.21,0-5.66-1.39-5.82-2.74a7.52,7.52,0,0,0,3.82,1.87,18.67,18.67,0,0,0,5.53-.43l-.19-.45a20.37,20.37,0,0,1-3.95.46,7.62,7.62,0,0,1-3.89-1.51C2.36,31.24,1.86,23.7,3.26,20.93c.59-1.18,2.68-3.17,2.64-3.56-.27-2.61-.45-4,.48-6.05A22.5,22.5,0,0,1,12.23,5.74ZM12,21.7a4.26,4.26,0,0,0,3.91,0,1.33,1.33,0,0,1,.92-.32c.49.55-2.17,1.53-3.2,1.34C11,22.57,8.72,20.38,9.3,18.09c.43-.58,1.31,2,2.73,2.32,2.4,1.06,4.83-1.06,5.28-2A.88.88,0,0,1,18.64,18c-.31,1.63-1.93,2.54-2.66,3a4.22,4.22,0,0,1-3.94.27C11.73,21.26,11.6,21.49,12,21.7Zm1.83-6.87c3.74.09,4.49,5.15-.21,4.94-1.53-.07-2.25-1-2.11-1.88s.48-.92,1.09-1c-1.21,2.26,3.66,2.87,3.25,0,.16-.05.24,0,.27-.11s-.29-.2-.35-.27c-1.44-1.52-5.27.21-5.55.27H10.1c-1.17-.07-1.51-.87-1.78-1.83,2.37,1.13,3.38-1.74,5.39-2.11,2.65-.48,3.81,1.75,4.51,3.7.09.89-.51.75-.74.08-.5-2-1.56-2.7-3.71-2.49ZM5,16.36c.48,1.4-1.6,2.63-2.2,3.62-.16.27-.32.54-.45.81a22.22,22.22,0,0,1,2.33-6.85A6,6,0,0,0,5,16.36Z"/></g></g></svg>