<svg id="Layer_1" data-name="Layer 1" xmlns="http://www.w3.org/2000/svg" viewBox="0 0 345.51 230.34"><defs><style>.cls-1{fill-rule:evenodd;}</style></defs><g id="script"><path d="M234.55,192,209,192v8.8l25.56-.07c3.74,0,4.78.52,4.78,2.41V205l-19.88,0c-9,0-13.6,4-13.6,11.86s4.58,11.82,13.6,11.82H249.5V205C249.5,194.08,247,191.9,234.55,192Zm4.78,27.94-19.88,0c-2.31,0-3.49-1.07-3.49-3.17s1.18-3.17,3.49-3.18l19.88,0Z"/><path d="M182.69,192.13l-31.31.11-42.45,29.59h0V205.29c0-10.75-2.5-12.89-15-12.85l-25.55.09v8.68L94,201.15c3.74,0,4.78.5,4.78,2.37v1.79l-19.88.05c-9,0-13.6,4-13.6,11.69s4.58,11.67,13.6,11.67h37.62L159,199.14h0v29.58h23.68c16.67,0,21-3.75,21-18.33S199.36,192.07,182.69,192.13ZM98.75,220l-19.88,0c-2.31,0-3.49-1.06-3.49-3.13s1.18-3.13,3.49-3.13l19.88,0Zm82.73-.88H169.12V201.76l12.36,0c10.16,0,12,1.3,12,8.68S191.64,219.12,181.48,219.13Z"/><polygon points="114.07 201.9 131.96 201.86 145.73 192.26 114.07 192.37 114.07 201.9"/><polygon points="154.63 219.15 135.85 219.17 122.11 228.72 154.63 228.72 154.63 219.15"/><path d="M46.25,192.61l-44,.15v36H12.34V202.16l15,0v26.6h9.88V202.1l9,0c4.52,0,6.07,1.46,6.07,5.79v20.85H62.51V207.85C62.51,195.56,59.3,192.56,46.25,192.61Z"/></g><g id="symbol"><path class="cls-1" d="M204.36,71.22c.13.74.79,4.06.82,12.35a95.21,95.21,0,0,1-3.1,26.23,61.74,61.74,0,0,1-10.63,21.77,53.35,53.35,0,0,1-18.17,14.72,75.2,75.2,0,0,1-23.39,7.34c-12.24,1.88-33.57,2.16-47.88.16-9.35-1.3-21-3.76-30.91-11.18C60.91,135,52.54,123.67,48.72,107.27a99.77,99.77,0,0,1-2.44-23.68c0-5.08.86-12.15.86-12.15-2.9-4.14-6.9-14.23-8.26-19.17C32.42,67.64,33,84.12,33,84.88c0,14.48,2.25,26,6.25,35.58,2.21,6.31,10.16,9.08,14.15,11.32,7.36,4.12,12.74,9.76,15,11.47,13.7,12.25,30.13,15.47,57.32,15.47,22.17,0,38.84-3.75,52.37-12.68A54.19,54.19,0,0,0,193,133.17c1.39-1.81,4.46-6.34,8.26-9,4.54-3.25,11.31-7.38,13.42-14.06a82.9,82.9,0,0,0,3.22-21.58c.5-12.72-.89-23.86-5.37-35.69C211.34,57.62,205.68,69.05,204.36,71.22Z"/><path class="cls-1" d="M43.52,28.55c.92,1.05,5.95,5.6,6.22,5.8a77.23,77.23,0,0,0,7,5.34c.85.57,1.89,1.18,1.89,1.18s1.42-1.78,1.42-1.78a56.54,56.54,0,0,1,8-8.47A62.6,62.6,0,0,1,82,21.74c10.84-4.94,25.24-7.85,43.76-7.87,15.71,0,28.87,1.82,39.41,6a60.2,60.2,0,0,1,13.6,7.1,56.92,56.92,0,0,1,13.61,12.83s1.32,1.77,1.57,2.13c.26-.19,6-4.77,8.6-7,1.55-1.47,5.44-5.18,5.89-5.67a19.48,19.48,0,0,0,1.43-1.63,64.9,64.9,0,0,0-7-6.54C186.38,8,161.79,1.82,125.48,1.82A208,208,0,0,0,88.77,4.7,99.47,99.47,0,0,0,67.9,10.4,77.16,77.16,0,0,0,48.7,21a62.79,62.79,0,0,0-6.53,5.88A14,14,0,0,0,43.52,28.55Zm6.35-5.84c16.92-13,40.8-19.31,75.75-19.17,16.44.06,30.37,1.47,42,4a96.76,96.76,0,0,1,14,4.07c8,3.23,12.71,5.42,20.22,11.47a59.84,59.84,0,0,1,5.68,5c-1.84,1.07-5.6,3.1-5.6,3.1s-1,.53-2,1.12c-.36-.45-2.52-2.47-2.64-2.58-4.84-4.4-16.84-14.48-38.77-18.9a151.7,151.7,0,0,0-32.65-3.07c-19.14,0-35.21,2.29-47.75,6.81-.8.29-9.9,3.72-15.13,7.58a67.71,67.71,0,0,0-8.19,6.78l-2.67,2.64c-.06-.06-6.45-3.81-7.4-4.33A51.79,51.79,0,0,1,49.87,22.71Z"/><path class="cls-1" d="M47.73,68.23a17.49,17.49,0,0,0,1.85,2.6c8.25,4.62,17.49,7,26.86,9.83,5,1.47,9.69,2.87,13.24,4.27,12.56,5,23.13,15.22,29.78,27.42,1.15,2.12,2.36,5.08,3.08,6.7,1.5,3.37,2,4.43,3.62,4.43s2.54-1.47,3.4-3.68c.77-2,1.59-4.54,2.78-7.46Q139.42,95,160.76,85.07c7.62-3.72,19.21-6.75,19.56-6.83,4.29-1.12,14.07-3.14,22.43-8.24.32-.73,2.75-5.84,4.27-9.14,1.34-2.93,3.19-7.8,3.84-9.64-6.82,3.83-18.25,10.12-30.4,14.23-5.79,2.08-23,7.47-31.23,14.13-8,6.54-9.7,8.93-13.93,14.43a68.92,68.92,0,0,0-7,11.44c-.44,1-1.56,3.46-1.71,3.78a.72.72,0,0,1-.48.46V121c-1.29-1.37-3.21-7.08-5.2-10.7-2.34-4.27-6.29-9.1-10.71-13.79a54.14,54.14,0,0,0-18-12.59c-3.4-1.44-13.54-4.69-21.92-7.12,5.4,1.47,10.46,2.8,14.91,3.77a64.44,64.44,0,0,1,12.08,3.66c7.73,3.7,13.43,7.39,17.83,11.51a48,48,0,0,1,8.44,10.63c.19.26.65.09.4-.37-1.73-3.76-7.24-12-7.24-12a68,68,0,0,0-10.88-11.79c-2.84-2.45-6.14-5.86-18.62-10.49L79.63,69c-6.08-2.2-11.83-4.23-15.93-6C61.48,62,58.42,60.66,57,60.06c-5.82-2.46-6.22-2.64-16.28-8.92,0,0,1.89,5.53,3,8.49A75.88,75.88,0,0,0,47.73,68.23Z"/><path class="cls-1" d="M213.16,31.66h0l-.46-.64A111.09,111.09,0,0,1,196,45.32a63,63,0,0,1-8.52,4.73c-3.18,1.47-8.64,3.64-11.67,4.87-7.23,2.92-19.89,7.7-27.4,12.82a69.62,69.62,0,0,0-12.93,12.05,63.84,63.84,0,0,0-7.93,11.64,12,12,0,0,1-1,1.57c-.26.25-.48.49-.87.38-.2-.06-.73-.44-1.47-1.77a73.12,73.12,0,0,0-20.84-23.5c-4.93-3.49-17-8.81-27.66-13.51-3-1.32-6.22-2.75-9-4A95.17,95.17,0,0,1,56,44.85c-11.14-7.36-15.34-13.36-16.64-15-4.19,4.89-12.56,15.85-16.5,33.93a90.34,90.34,0,0,0-2,21.53c.93,27.84,9.32,48.48,25.71,62.25,16.85,14.16,45,21.95,79.27,21.95,33.21,0,61-7.87,78.33-22.18,17-14.07,25.32-33.69,26.18-61.77C231,65.81,224.46,46,213.16,31.66Zm4.52,77.88c-1.61,7-5.69,14.71-7.92,18.6a62.28,62.28,0,0,1-18.9,20.06c-12.68,8.64-27.61,12.3-39.11,13.75a193,193,0,0,1-25.89,1.8,224.55,224.55,0,0,1-30.14-2.2C78.19,159.22,63.9,153,53.2,143.1A54.84,54.84,0,0,1,47.51,137c-.86-1.09-1.85-2.31-2.66-3.5-1.08-1.59-2.12-2.92-2.92-4a12.27,12.27,0,0,0-4.2-3.73c-1.36-.55-2.55-1-4-1.63-3.91-1.69-4.79-6.21-5.68-8.3a111,111,0,0,1-5-30.18C22.35,66.76,28,48.63,38.08,34.84c.38-.55.9-1.32,1.16-1.68.34.43.65.88,1.12,1.44,2.16,2.56,5,5.51,14.13,11.62A80.89,80.89,0,0,0,65.56,52.3c2.64,1.19,6,2.69,9,4C83.83,60.4,94.33,65,100.05,68.41a61.89,61.89,0,0,1,9.17,7.51,58.59,58.59,0,0,1,6.26,7.27,26.73,26.73,0,0,1,2.26,3.06,79.44,79.44,0,0,1,4.11,8.2,89.19,89.19,0,0,1,3.92,12.45c.09.38.17.32.36-.16s.54-3.75.91-5.57c.48-2.26,1-4.11,1.45-5.72a57.63,57.63,0,0,1,4.33-8.59c5.06-7.31,11.66-14.28,16.93-17.75,6.74-4.45,16.53-8.3,26.19-12.17,4.5-1.8,9-3.66,12.2-5.16a89.11,89.11,0,0,0,9-4.86,101.06,101.06,0,0,0,15.79-13.23c.16,1.09.29,3,.4,5.06a51.18,51.18,0,0,1-.05,6.64,27.05,27.05,0,0,1-.4,3.88,4.25,4.25,0,0,1,.59.8c5,10.76,7.1,21.14,7.09,34.43A108.6,108.6,0,0,1,217.68,109.54Z"/></g></svg>