<?xml version="1.0" encoding="utf-8"?>
<!-- Generator: Adobe Illustrator 26.0.2, SVG Export Plug-In . SVG Version: 6.00 Build 0)  -->
<svg version="1.1" id="Layer_2" xmlns="http://www.w3.org/2000/svg" xmlns:xlink="http://www.w3.org/1999/xlink" x="0px" y="0px"
	 viewBox="0 0 430.3 286.9" style="enable-background:new 0 0 430.3 286.9;" xml:space="preserve">
<style type="text/css">
	.st0{fill:#404041;}
</style>
<g>
	<g>
		<path class="st0" d="M409.5,180.7l2.5-0.2c1-0.1,2-0.2,3-0.3c2.5-0.4,4.6-1,6.3-1.9c0.6-0.3,1-0.6,1.7-1.1
			c2.2-1.6,3.3-3.7,3.4-6.5c0-0.6,0-1,0-1.5c-0.1-1.8-0.5-3.3-1.3-4.5c-0.9-1.4-2.1-2.5-3.7-3.4c-1.7-0.8-3.7-1.4-6.2-1.8
			c0,0-3.6-0.6-8.8-0.6h-40.4V193h12.7v-12h17.3l19.5,12h13.9L409.5,180.7z M403.7,162.8c0.1,0,0.1,0,0.2,0c1.4,0,2.7,0.1,3.7,0.2
			c1.3,0.1,2.5,0.5,3.4,0.9c1,0.5,1.7,1.2,2.1,2.1c0.4,0.8,0.5,1.7,0.6,2.9c0,0.1,0,1.7,0,2.5c-0.1,0.8-0.2,1.7-0.5,2.3
			c-0.3,0.7-0.7,1.2-1.3,1.6c-0.2,0.1-0.3,0.2-0.5,0.3c-0.8,0.4-1.9,0.7-3.2,0.9c-1.2,0.1-2.7,0.2-4.5,0.2h-25.1v-14.2H403.7z"/>
		<path class="st0" d="M42.2,158.9v16c0,4.8-1.8,8.4-5.2,10.6c-3,1.9-7.3,2.9-12.9,2.9H0.4v4.6H20c5.5,0,10.5-0.2,14.8-0.6
			c4.3-0.4,8-1.2,10.9-2.5c2.9-1.2,5.1-2.9,6.7-5.1c1.4-2,2.2-4.6,2.3-7.9c0-0.3,0-0.7,0-1.1v-17H42.2z"/>
		<path class="st0" d="M187.7,177.4v11.1h-19.4c-10.2,0-16.1-3.3-17.7-9.7c-0.7-2.7-0.2-5.2,0-6.2c1.6-6.5,7.4-9.6,17.7-9.6h30.4v-4
			h-26.4c-5.5,0-10.6,0.2-14.9,0.6c-4.3,0.4-8,1.2-10.9,2.4c-2.9,1.2-5.1,2.9-6.6,5.1c-1.5,2.1-2.2,4.9-2.3,8.4c0,0.1,0,0.2,0,0.3
			c0,0.2,0,0.3,0,0.5c0,3.6,0.8,6.5,2.3,8.7c1.5,2.2,3.8,3.9,6.7,5.1c3,1.2,6.6,2,10.9,2.5c4.4,0.4,9.4,0.6,14.8,0.6h28.1v-15.6
			H187.7z"/>
		<path class="st0" d="M103,158.9H89.9L60.6,193h7.6l6.6-7.7h36.9l6.6,7.7h14.1L103,158.9z M93.2,163.9l15.3,17.7H77.9L93.2,163.9z"
			/>
		<path class="st0" d="M312.2,158.9L282.9,193h7.6l6.6-7.7h36.8l6.6,7.7h14.1l-29.4-34.1H312.2z M330.8,181.7h-30.6l15.3-17.8
			L330.8,181.7z"/>
		<path class="st0" d="M264.4,158.9v17.3c0,1.5-0.2,2.8-0.5,4.1c-1.6,6.3-7.5,9.5-17.6,9.5h-1.3c-10.1,0-16-3.3-17.6-9.6
			c-0.3-1.2-0.5-2.5-0.5-3.9v-17.3h-12.7v17.8c0,3.7,0.8,6.7,2.4,8.9c1,1.4,2.2,2.6,3.7,3.6c0.9,0.6,1.9,1.1,3,1.6
			c1.1,0.5,2.3,0.9,3.6,1.2c2.2,0.6,4.6,1,7.3,1.3c3.4,0.3,7.3,0.5,11.4,0.5c4.2,0,8.1-0.2,11.5-0.5c2.7-0.3,5.1-0.7,7.3-1.2
			c1.3-0.3,2.5-0.7,3.6-1.2c1.1-0.4,2.1-1,3-1.6c1.5-1,2.7-2.2,3.7-3.6c1.5-2.2,2.3-5.2,2.3-8.9v-17.8H264.4z"/>
	</g>
	<path class="st0" d="M81.3,10.9c0.4,0,0.8,0,1.3,0c2,0,4.2-0.8,5.7-1.5C89.3,9,90,8.6,89.9,8.6c-1.4,0-3.6,0-4.4,0
		c-3.6,0-5.4,2-5.5,2.2C80,10.9,80.5,10.9,81.3,10.9z M413.3,106.4c-2-4.5-7.6-3-7.6-3c-2.6,0.6-5.7,3.6-10.1,4.9
		c-9.6,2.9-17.3-0.5-17.3-0.5c-14.8-6.4-62.4-33.7-86.7-45.6c0,0-28.1-13-69-29.2c0,0-80.2-34.2-133.8-31.4c0,0-28.5,0.8-37.5,13.3
		c0,0-1.5,1.7-0.7,3.6c0,0,0.2,0.5-0.2,0.9c0,0-4.8,4.3-7.3,8.1c-0.9,1.4-1.7,3.6-0.1,5.4c0,0,0.8,0.6,1.1,1.2
		c0.7,1.1,1.3,2.8,2.2,3.9c1.2,1.5,3.8,4.1,7.3,3.4c1.6-0.3,1.6-0.7,1.6-0.7c1.8,1.8,4.7,1.7,4.7,1.7c-0.4-1.1-1.6-3.4-1.8-4.7
		c-0.2-1.5,0.2-2.9,0.2-2.9c0.5-1.7,1.5-3.8,2.6-4.9c1-1,3.4-2,5.4-0.7c1.6,1.1,3.5,4.8,1.9,10c-0.1,0.4-1.8,4.1-3.7,4.7
		c0,0-0.2,0.1-0.5,0.1c-1.3,0-3.6-1.3-3.6-1.3s-0.1,0.3,0.3,1.7c0.2,0.8,0.5,1.6,0.7,2.3c0,0-0.4,0.8-0.7,1.3
		c-0.4,0.5-0.8,2.3,0.1,3c0,0,4.1,2.8,8.1,3.1c2.8,0.2,3.8-1.7,3.8-1.7c2-2.8,3.6-5.2,5.7-7.1c5.9-5.4,14.1-6.8,14.1-6.8
		c0.5-0.1,9.5-2.6,24.8,9.6c-4.4,0.4-9.5,1.4-13.5,2.1c-11.3,2-18.5,12.7-20.7,17C77.8,78.4,89,82.3,89,82.3
		c0.1-0.1,10.7-0.9,15.8-12.2c0,0,1.9-5,6.8-3.4c3.3,1.1,32,11.1,38.5,12.8c0,0,19.2,5,26.5-3.8c11.6,3.8,22.5,5.6,50.9,2
		c4.9-0.6,8.8-0.5,8.8-0.5c6.7,0.5,12.7,5,14.6,7.9c7.5,12,17,35.8,50,32.9l14.9-1.3c9.1-0.5,16.5-0.9,24,3.1
		c3.3,1.7,5.1,2.4,10.6,7.7c7.6,7.2,14.6,15.1,23.9,10.8c3.3-1.5,7-7.4,7-7.4c-0.4-2.7-1.6-5.3-4.5-7.5c8.4,2,27.5,3.3,34.9-9.6
		C413.8,110.7,414,108,413.3,106.4z M410.2,112.5c-0.7,2.5-4.3,5.8-8.6,7.8c-4.6,2-14.1,2.6-19.6,1.7c0,0-10.6-1.1-20-10.8
		c-2.9-3.1-6.6-6.6-9.9-10c-1.5-1.5-5.1-5.2-11.1-6c-6.3-0.8-21.5-1.3-27.3-3.2c-3.8-1.3-8.5-3.9-14.6-13c-3-4.4-5.1-5.6-9.1-8.1
		c0,0,3.1,2.5,4.8,5.6c2.5,4.5,3.8,7.8,5.2,10.2c1.4,2.4,2.9,4.5,5.3,6.4c2.9,2.3,4.7,2.8,7.9,3.3c3,0.5,13.3,0.4,22,0.3
		c8.6-0.1,12.5,2.7,15.3,5c2.6,2.2,7.1,8.5,9.9,11.3c3.3,3.3,5.7,6.6,12.2,9.9c2.3,1.1,6,4,5.8,6.7c-2.9,2.9-6.6,3.7-15.3,1.4
		c0.6,0.6,5.2,5.4,13,3.1c-2.4,2-4.7,2.8-7.1,2.7c-8.2-0.5-16.2-10.5-20.7-14.3c-3.4-2.8-3.8-3.5-9.6-7.6
		c-8.8-6.1-28.6-4.4-28.6-4.4l-14.5,0.8c-28.2,2.1-40.1-22.9-43.2-28.1c-1.1-1.8-2.1-3.3-3-4.5c-1.4-1.9-9.2-11.9-17-15.2
		c0,0,7.7,6.6,7.2,11c0,0-3.2-1.5-11.8-0.2c-37.2,5.3-49.9-4-49.9-4c1.7-7.5-3.5-15.1-3.5-15.1c2.9,0.9,21.2,7.1,38.5,3.6
		c0,0-28.3,0.2-48.1-15.7c0,0,12.3,15.5,9.4,25.6c0,0-2,10.8-23.5,6.4c-2.3-0.5-5-1.2-37.2-10.2c-7.6-2.3-10.2,1.4-11.5,3.5
		c-0.1,3.2-3.8,6.9-5.7,8.1c-10-1.8-6-11-6-11c-6.3,9,0.3,12.9,2.4,13.2c-1.2,0.6-2.4,1-3.4,1.4c0,0-8.1-4.8-3.6-12.8
		c6.3-11.1,12.8-14.6,24.7-15.7c5.2-0.5,9.5-0.9,12.8-0.4c8.6,1.2,14,6,26.9,7.3c-27.3-8-27.4-23.9-27.5-24.2c0,0,0,0,0,0
		c-1.5,5.2-0.7,9.6,0.7,13.3c-0.4-0.1-6.4-4.1-8.6-5.4c-9.8-6-17.6-7-17.6-7c-3.3-0.4-4.8-4.4-4.8-4.4c-0.1-0.2-0.2-0.4-0.3-0.6
		c-4.5-7.7-9-7.9-9-7.9c2.5,3.4,2.6,8.3,2.6,8.3c1.3,9.6-9.5,12.6-9.5,12.6c-6.7,8.5-6.3,8.6-7.8,8.8c-1.5,0.2-4.7-1.4-4.7-1.4
		c-0.5-0.8,0.2-1.6,0.2-1.6c1.2-1,2.3-2,2.3-2c7-7.2,7.9-10.7,7-15.4c-1.8-9.4-8.5-8.3-8.5-8.3c-3.2,0.2-4.6,3-4.6,3
		c-1.1,1.7-3.5,7-3.5,7c-1.5,3.1-2.9,3.9-3.7,4c-0.3,0.1-1,0.1-1.2,0c-2.3-0.1-4-2.2-4-2.2c-0.1-0.1-0.2-0.2-0.3-0.3
		c-2.1-2.2-0.6-5.1-0.6-5.1c2.8-6.5,8.2-7.4,8.9-7.5c0.8-0.1,3.2-0.5,3.2-0.5c6.9-1.2,10.1-8.3,10.1-8.3c-4.6-0.1-6.9,0.3-6.9,0.3
		c-4.6,0.8-6.1,6.2-6.1,6.2c-3.9,0.9-3.8-2.4-3.1-3.5c0.6-0.9,2.9-4.9,17.7-8.4c0,0,7.3-2.2,23-1.5c0,0,0,0-0.6,1.2
		c-1.4,2.6-6.9,8-15.9,6c0,0,0.1,4,9.9,5.5c0,0,8.9,1.6,24,13.7c0,0-7.2-14.3-19.5-18c0,0-1.5-0.3-0.8-1.3c0,0,7.6-7,17.3-7.3
		c0,0,33-3.2,51.3,22c0,0-5.5-10.7-9.7-15.4c0,0,19.1,5.4,48.6,15.6c0,0,20.1,7.1,32.9,12.2c17.4,6.8,60.7,23.7,88.4,38.8
		c4.9,2.7,55,28.8,55,28.8c13.9,6.2,23.5,2.4,23.5,2.4c3.1-1.2,8.8-5.5,11.3-3.1C410.7,109.1,410.9,110.8,410.2,112.5z M57.7,19.7
		c0,0,0.3-0.9,0.4-1.1c0.1-0.2,0.9-2.5,2.9-2.7c0,0,1.2-0.1,3-0.1c0,0-0.9,2.9-4.4,3.5C59.6,19.4,58.3,19.7,57.7,19.7z"/>
</g>
</svg>
