<svg xmlns="http://www.w3.org/2000/svg" viewBox="0 0 333.91 222.61"><defs><style>.a{fill:#c41230;}</style></defs><path class="a" d="M157.74,167.35a330.78,330.78,0,0,1-34.09-2.72c-46-6.19-84.58-22-106-43.4C8.5,112.15,2.73,102.16.78,92.13A36.29,36.29,0,0,1,0,83.74a36.29,36.29,0,0,1,.78-8.39,51.48,51.48,0,0,1,8.8-19.7C19.72,41.39,37.5,28.7,60.83,19.07c38.89-16,89.82-22.4,139.4-17.4,58.21,5.87,106.1,27.12,125.1,55.49,8.69,13,10.82,27.07,6.17,40.84-2.68,8-7.9,15.9-15.24,23.23-20.34,20.3-56.14,35.61-99.1,42.38a325.83,325.83,0,0,1-59.42,3.74Zm25.39-10.71c23.3-1.44,43-4.87,62.15-10.82,15.21-4.72,29.39-11.26,40.28-18.57a83.31,83.31,0,0,0,13.6-11.11A54.08,54.08,0,0,0,310.25,101a36.19,36.19,0,0,0,4.17-17.29,36.78,36.78,0,0,0-4.28-17.56,55,55,0,0,0-11-14.85c-7.33-7.35-16-13.41-27.56-19.17C250.05,21.37,223.09,14.31,193,11.59a302.94,302.94,0,0,0-52.23,0c-42.23,3.8-78.48,16.34-100.91,34.9a93.12,93.12,0,0,0-10,10.14c-7.6,9.53-11.19,19.81-10.37,29.72.89,10.79,5.75,20.31,15.22,29.8,7.17,7.19,15.7,13.17,26.79,18.77,25.25,12.77,56.29,20.09,92.78,21.88,4.12.2,24.83.09,28.85-.16ZM64.75,126.06a2.53,2.53,0,0,1-.73-.56c-.36-.4-.36-.69-.41-39.37l0-39-.48-.5c-.46-.48-.58-.51-2.32-.55l-1.84-.05V41.15l13.22,0,13.22,0,.56.47.56.47V56c0,15.43,0,14.86,1.07,14.86.69,0,.93-.29,4.76-5.73,10.16-14.43,15.75-22.27,16.26-22.82,1.24-1.34.68-1.29,13.54-1.29h11.52l.44.44a1.68,1.68,0,0,1,.5,1.8c-.16.33-5.14,7.73-22.54,33.48-1.9,2.81-2.43,3.73-2.43,4.19s1.24,2.33,6.52,9.78c23.32,32.91,23.39,33,23.47,33.68a1.33,1.33,0,0,1-.38,1.18l-.46.53-12,0c-11.86,0-12,0-12.92-.33a4.73,4.73,0,0,1-1.34-.87c-.25-.27-5.73-7.9-12.19-17s-11.87-16.58-12-16.71a1.07,1.07,0,0,0-1.53.33c-.18.36-.23,4.06-.23,17v16.51l-.44.51-.44.51-10.25,0c-5.64,0-10.42,0-10.62-.11ZM156.1,126a1.74,1.74,0,0,1-.77-.73c-.17-.38-.22-9-.22-39.26V47.22l-.53-.53c-.51-.51-.59-.53-2.27-.53h-1.74v-5.1h26.93l.59.53.59.53v83l-.5.5-.5.5-10.51,0c-8.42,0-10.62,0-11.06-.2Zm39.13,0a1.43,1.43,0,0,1-.81-1.36c0-.32,2.58-8.31,5.74-17.74l11.17-33.36c3-8.91,6.13-18.28,7-20.82a53,53,0,0,0,1.57-5.12,1.73,1.73,0,0,0-.35-.93c-.31-.39-.53-.44-2.14-.52l-1.79-.09-.05-2.5-.05-2.5h16.16c10.61,0,16.39.07,16.84.19a1.62,1.62,0,0,1,.88.56c.23.43,2,5.78,10.58,31.28,13.89,41.47,17.07,51,17.07,51.44a1.69,1.69,0,0,1-.85,1.5c-.31.14-3.54.2-10.58.2-9.29,0-10.19,0-10.76-.32a3.2,3.2,0,0,1-1-.78c-.18-.25-1.6-4.39-3.14-9.19C236.06,70.16,236.47,71.41,236.14,71s-.64-.4-1,0-.87,2.07-8.85,27.24c-2.32,7.31-4.82,15.17-5.56,17.47s-1.68,5.27-2.1,6.6c-.82,2.61-1.18,3.23-2.11,3.62s-20.69.36-21.27,0Z"/></svg>