<?xml version="1.0" encoding="utf-8"?>
<svg version="1.1" id="Layer_1" xmlns="http://www.w3.org/2000/svg" xmlns:xlink="http://www.w3.org/1999/xlink" x="0px" y="0px"
	 viewBox="0 0 300 200" style="enable-background:new 0 0 300 200;" xml:space="preserve">
<style type="text/css">
	.st0{fill:#D3D2D2;}
	.st1{fill:url(#SVGID_1_);}
	.st2{fill:url(#SVGID_2_);}
	.st3{fill:url(#SVGID_3_);}
	.st4{fill:url(#SVGID_4_);}
	.st5{fill:url(#SVGID_5_);}
	.st6{fill:url(#SVGID_6_);}
	.st7{fill:url(#SVGID_7_);}
	.st8{fill:url(#SVGID_8_);}
	.st9{fill:url(#SVGID_9_);}
	.st10{fill:url(#SVGID_10_);}
	.st11{fill:url(#SVGID_11_);}
	.st12{fill:url(#SVGID_12_);}
	.st13{fill:url(#SVGID_13_);}
	.st14{fill:url(#SVGID_14_);}
	.st15{fill:url(#SVGID_15_);}
	.st16{fill:url(#SVGID_16_);}
	.st17{fill:url(#SVGID_17_);}
	.st18{fill:url(#SVGID_18_);}
	.st19{fill:url(#SVGID_19_);}
	.st20{fill:url(#SVGID_20_);}
	.st21{fill:url(#SVGID_21_);}
	.st22{fill:url(#SVGID_22_);}
	.st23{fill:url(#SVGID_23_);}
	.st24{fill:url(#SVGID_24_);}
	.st25{fill:#4F4C4D;}
	.st26{fill:url(#SVGID_25_);}
	.st27{fill:url(#SVGID_26_);}
	.st28{fill:url(#SVGID_27_);}
	.st29{fill:url(#SVGID_28_);}
</style>
<path class="st0" d="M299.1,51.9c0.1,0.3,0.1,0.5,0.1,0.8C299.2,52.4,299.1,52.2,299.1,51.9 M150,0C66.7,0,0,25,0,56.2
	s67.3,56.2,150,56.2s150-25.2,150-56.2S232.7,0,150,0"/>
<radialGradient id="SVGID_1_" cx="-933.5627" cy="596.2026" r="1" gradientTransform="matrix(647.66 0 0 -631.53 604773.8125 377141.0312)" gradientUnits="userSpaceOnUse">
	<stop  offset="0" style="stop-color:#00050D"/>
	<stop  offset="0.7" style="stop-color:#051125"/>
	<stop  offset="0.9" style="stop-color:#173E7E"/>
	<stop  offset="0.95" style="stop-color:#4CA9E3"/>
	<stop  offset="1" style="stop-color:#4CA9E3"/>
</radialGradient>
<path class="st1" d="M2.3,56.2c0,29.8,66.1,54,147.7,54l0,0c81.6,0,147.7-24.1,147.7-54l0,0c0-29.8-66.1-54-147.7-54l0,0
	C68.4,2.2,2.3,26.4,2.3,56.2"/>
<linearGradient id="SVGID_2_" gradientUnits="userSpaceOnUse" x1="-939.3962" y1="588.8396" x2="-938.3962" y2="588.8396" gradientTransform="matrix(7.000081e-15 -114.32 -114.32 -7.000081e-15 67465.8906 -107278.6094)">
	<stop  offset="0" style="stop-color:#08142E"/>
	<stop  offset="0.81" style="stop-color:#17326E"/>
	<stop  offset="1" style="stop-color:#0D69A9"/>
</linearGradient>
<path class="st2" d="M13.4,56.2c0,2.1,0.4,4.1,1.2,6l0,0c-0.3-1.3-0.5-2.6-0.5-3.9l0,0c0-24.7,61.1-44.7,136.6-44.7l0,0
	c69.4,0,126.7,16.9,135.4,38.9l0,0c-5.8-23.1-64.5-41.2-136.1-41.2l0,0C74.6,11.2,13.4,31.4,13.4,56.2"/>
<linearGradient id="SVGID_3_" gradientUnits="userSpaceOnUse" x1="-939.3962" y1="588.8419" x2="-938.3962" y2="588.8419" gradientTransform="matrix(7.000694e-15 -114.33 -114.33 -7.000694e-15 67473.8906 -107288.2969)">
	<stop  offset="0" style="stop-color:#08142E"/>
	<stop  offset="0.81" style="stop-color:#17326E"/>
	<stop  offset="1" style="stop-color:#0D69A9"/>
</linearGradient>
<path class="st3" d="M291.5,56.2c0,27.2-63.4,49.3-141.5,49.3l0,0C80.4,105.5,22.6,88,10.7,65l0,0c9.1,24,68.4,42.5,140.3,42.5l0,0
	c78.2,0,141.5-21.9,141.5-48.8l0,0c0-2.8-0.7-5.5-1.9-8l0,0C291.2,52.5,291.5,54.3,291.5,56.2"/>
<linearGradient id="SVGID_4_" gradientUnits="userSpaceOnUse" x1="-941.3489" y1="585.2206" x2="-940.3489" y2="585.2206" gradientTransform="matrix(4.850214e-15 -79.21 -79.21 -4.850214e-15 46530.9844 -74470.25)">
	<stop  offset="0" style="stop-color:#08142E"/>
	<stop  offset="0.81" style="stop-color:#17326E"/>
	<stop  offset="1" style="stop-color:#0D69A9"/>
</linearGradient>
<path class="st4" d="M176.4,61c-3.2,3.3-3.4,7.6-1.3,9.5l0,0c0.7,0.6,1.6,1,2.5,1.1l0,0c-1.7-2.3-1.8-5.3-0.3-7.7l0,0
	c-0.3-0.8-0.4-1.7-0.2-2.6l0,0c0-0.2-0.1-0.4-0.3-0.4l0,0C176.6,60.8,176.5,60.9,176.4,61"/>
<linearGradient id="SVGID_5_" gradientUnits="userSpaceOnUse" x1="-941.267" y1="585.3505" x2="-940.267" y2="585.3505" gradientTransform="matrix(4.915120e-15 -80.27 -80.27 -4.915120e-15 47195.5781 -75457.1641)">
	<stop  offset="0" style="stop-color:#08142E"/>
	<stop  offset="0.81" style="stop-color:#17326E"/>
	<stop  offset="1" style="stop-color:#0D69A9"/>
</linearGradient>
<path class="st5" d="M209.1,68c0.1,0.7,0.2,1.4,0.3,2.1l0,0c0.2-0.3,0.4-0.7,0.5-1l0,0c0.1-0.3,0.1-0.3-0.1-0.4l0,0
	C209.5,68.6,209.1,68.3,209.1,68L209.1,68C209,68.1,209,68.1,209.1,68z"/>
<linearGradient id="SVGID_6_" gradientUnits="userSpaceOnUse" x1="-941.8396" y1="584.2972" x2="-940.8396" y2="584.2972" gradientTransform="matrix(4.502414e-15 -73.53 -73.53 -4.502414e-15 43177.7188 -69160.2422)">
	<stop  offset="0" style="stop-color:#08142E"/>
	<stop  offset="0.81" style="stop-color:#17326E"/>
	<stop  offset="1" style="stop-color:#0D69A9"/>
</linearGradient>
<path class="st6" d="M212.9,57.2c1,0.9,1.7,2.1,1.8,3.4l0,0c0,0.5,0.5,0.6,0.8,0.1l0,0c0.1-0.2,0.2-0.3,0.3-0.5l0,0
	c-0.1-0.1-0.2-0.2-0.3-0.4l0,0C214.7,58.9,213.8,58,212.9,57.2z"/>
<linearGradient id="SVGID_7_" gradientUnits="userSpaceOnUse" x1="-941.6147" y1="584.7479" x2="-940.6147" y2="584.7479" gradientTransform="matrix(4.653658e-15 -76 -76 -4.653658e-15 44610.9375 -71473.9531)">
	<stop  offset="0" style="stop-color:#08142E"/>
	<stop  offset="0.81" style="stop-color:#17326E"/>
	<stop  offset="1" style="stop-color:#0D69A9"/>
</linearGradient>
<path class="st7" d="M169,55.2c0.9,1.5,1.3,3.2,1.2,4.9l0,0c0,0.5,0.4,0.5,0.6,0.1l0,0c0.1-0.2,0.3-0.4,0.4-0.6l0,0
	C170.8,58,170.1,56.5,169,55.2z"/>
<linearGradient id="SVGID_8_" gradientUnits="userSpaceOnUse" x1="-941.2773" y1="585.3367" x2="-940.2773" y2="585.3367" gradientTransform="matrix(4.907160e-15 -80.14 -80.14 -4.907160e-15 47110.8789 -75336.4531)">
	<stop  offset="0" style="stop-color:#08142E"/>
	<stop  offset="0.81" style="stop-color:#17326E"/>
	<stop  offset="1" style="stop-color:#0D69A9"/>
</linearGradient>
<path class="st8" d="M198.3,66.2c-3,3.6-4.6,7.3-4.6,10.9l0,0c0,1.3,0.5,2.9,1.6,3.4l0,0c0.3,0.2,0.7,0.3,1.1,0.4l0,0
	c-0.1-0.5-0.2-0.9-0.2-1.4l0,0c0-4.1,1.4-8,4.1-11.1l0,0c3.6-4.4,7.4-6.6,10-5.4l0,0c-0.1-1-0.7-1.9-1.7-2.3l0,0
	c-0.5-0.2-1.1-0.3-1.6-0.3l0,0C204.4,60.4,201.2,62.6,198.3,66.2"/>
<linearGradient id="SVGID_9_" gradientUnits="userSpaceOnUse" x1="-941.2773" y1="585.3519" x2="-940.2773" y2="585.3519" gradientTransform="matrix(4.905936e-15 -80.12 -80.12 -4.905936e-15 47031.0391 -75320.4219)">
	<stop  offset="0" style="stop-color:#08142E"/>
	<stop  offset="0.81" style="stop-color:#17326E"/>
	<stop  offset="1" style="stop-color:#0D69A9"/>
</linearGradient>
<path class="st9" d="M138.9,58.5c-4.2,1.5-8,4.1-10.8,7.6l0,0c-3.2,4.2-4,9.3-1.9,12.3l0,0c0.4,0.7,1.1,1.2,1.8,1.5l0,0
	c-1.1-4.1-0.2-8.4,2.4-11.8l0,0c2.8-3.7,5.9-5.1,9.4-6.7l0,0c0.5-0.2,0.5-0.5,0.4-0.9l0,0c-0.2-0.7-0.6-2.5-0.8-2.9l0,0
	C139.5,58.1,139.4,58.4,138.9,58.5"/>
<linearGradient id="SVGID_10_" gradientUnits="userSpaceOnUse" x1="-941.3182" y1="585.2834" x2="-940.3182" y2="585.2834" gradientTransform="matrix(4.872258e-15 -79.57 -79.57 -4.872258e-15 46738.3516 -74808.0781)">
	<stop  offset="0" style="stop-color:#08142E"/>
	<stop  offset="0.81" style="stop-color:#17326E"/>
	<stop  offset="1" style="stop-color:#0D69A9"/>
</linearGradient>
<path class="st10" d="M168.9,69.8c-3.7,5.7-7.2,11.2-10.9,17l0,0c-0.2,0.3-0.4,0.4-0.7,0.5H150c-0.2,0-0.4-0.1-0.5-0.3l0,0
	c0.2,0.9,0.5,2.5,0.6,2.9l0,0c0.1,0.2,0.3,0.4,0.5,0.4h8.3c0.3,0,0.6-0.2,0.7-0.5l0,0c3.4-5.3,7-11,10.4-16.3l0,0
	c0.8,2.7,1.1,3.9,2.6,5.2l0,0c1.3,1.2,3,1.8,4.7,1.6l0,0c2-0.1,3.9-0.7,5.6-1.6l0,0c0.7-0.3,1.4-0.7,2-1.1l0,0c0-1,0.1-1.9,0.3-2.9
	l0,0c0-0.1-0.1-0.7-0.6-0.4l0,0c-1.2,0.8-2.5,1.5-3.8,2l0,0c-1.4,0.7-3,1-4.6,1l0,0c-2.3,0-4.4-1.2-5.6-3.2l0,0
	c-0.7-1.3-1.1-2.8-1.2-4.3l0,0c0-0.1-0.1-0.2-0.2-0.2l0,0C169.1,69.7,169,69.7,168.9,69.8"/>
<linearGradient id="SVGID_11_" gradientUnits="userSpaceOnUse" x1="-941.2773" y1="585.3865" x2="-940.2773" y2="585.3865" gradientTransform="matrix(4.907772e-15 -80.15 -80.15 -4.907772e-15 47128.4375 -75353.0625)">
	<stop  offset="0" style="stop-color:#08142E"/>
	<stop  offset="0.81" style="stop-color:#17326E"/>
	<stop  offset="1" style="stop-color:#0D69A9"/>
</linearGradient>
<path class="st11" d="M233.3,72.8c-3.3,4.2-7.1,8-11.3,11.4l0,0c-5.9,4.6-11.7,5.7-14.6,2.8l0,0c-1.1-1.1-1.7-2.5-1.7-4l0,0
	c0-0.7-0.4-0.7-0.7-0.4l0,0c-3.5,3.4-9.5,7.2-15,4.5l0,0c-2.5-1.4-4.3-3.8-4.8-6.7l0,0c0.3,2.3,0.8,4.6,1.7,6.7l0,0
	c0.7,1.3,1.7,2.3,2.9,3l0,0c4.9,2.4,11.8-0.3,16.3-4.6l0,0c0-0.1,0-0.1,0.1-0.1l0,0l0,0c0.2,0.8,0.5,1.7,0.5,1.8l0,0
	c0.3,0.9,0.7,1.7,1.2,2.4l0,0c3.1,3.5,9.5,1.9,16.3-3.3l0,0c3.7-2.9,7.1-6.2,10-9.8l0,0c0.1-0.3,0.1-0.5,0.1-0.8l0,0
	c-0.2-0.9-0.5-2.4-0.7-3.2l0,0C233.4,72.5,233.4,72.7,233.3,72.8 M185.1,80.2v0.2l0,0V80.2z"/>
<linearGradient id="SVGID_12_" gradientUnits="userSpaceOnUse" x1="-941.2672" y1="585.343" x2="-940.2672" y2="585.343" gradientTransform="matrix(4.911446e-15 -80.21 -80.21 -4.911446e-15 47132.7812 -75401.1875)">
	<stop  offset="0" style="stop-color:#08142E"/>
	<stop  offset="0.81" style="stop-color:#17326E"/>
	<stop  offset="1" style="stop-color:#0D69A9"/>
</linearGradient>
<path class="st12" d="M186.8,60.7c-0.2,2.2-1.5,4.1-3.5,5.1l0,0c-1.7,0.9-3.7,0.6-5.1-0.6l0,0c-0.4-0.4-0.7-0.9-1-1.4l0,0
	c0.2,1.2,0.6,2.4,1.1,3.5l0,0c1.3,2,3.6,2.5,6.1,1.1l0,0c2.2-1.3,3.5-3.8,3.2-6.4l0,0c-0.1-1.7-0.6-3.3-1.4-4.8l0,0
	C186.8,58.3,187,59.5,186.8,60.7"/>
<linearGradient id="SVGID_13_" gradientUnits="userSpaceOnUse" x1="-941.2773" y1="585.329" x2="-940.2773" y2="585.329" gradientTransform="matrix(4.907160e-15 -80.14 -80.14 -4.907160e-15 47134.4375 -75335.2812)">
	<stop  offset="0" style="stop-color:#08142E"/>
	<stop  offset="0.81" style="stop-color:#17326E"/>
	<stop  offset="1" style="stop-color:#0D69A9"/>
</linearGradient>
<path class="st13" d="M238.1,40.1c-1.1,2-23.1,35.4-24.5,38.9l0,0c-0.4,1.1-0.5,1.9,0,2.5l0,0c0.5,0.6,1.2,0.9,1.9,0.8l0,0
	c0.1-0.5,0.2-0.9,0.4-1.4l0,0c1.4-3.5,22-34.7,23.1-36.7l0,0c0.1-0.2,0.1-0.3,0-0.5l0,0c-0.1-0.3-0.8-3.6-0.8-3.9l0,0
	C238.2,39.9,238.2,40,238.1,40.1"/>
<linearGradient id="SVGID_14_" gradientUnits="userSpaceOnUse" x1="-941.4205" y1="585.0569" x2="-940.4205" y2="585.0569" gradientTransform="matrix(4.793880e-15 -78.29 -78.29 -4.793880e-15 45952.8594 -73606.8906)">
	<stop  offset="0" style="stop-color:#08142E"/>
	<stop  offset="0.81" style="stop-color:#17326E"/>
	<stop  offset="1" style="stop-color:#0D69A9"/>
</linearGradient>
<path class="st14" d="M146.9,55.7l0.2,0.2l0,0c1.4,2.3,2.1,4.9,2.1,7.6l0,0c0.1,0.6,0.3,0.6,0.6,0.3l0,0c0.2-0.3,0.5-0.6,0.8-0.8
	l0,0c-0.4-1.4-0.9-2.8-1.6-4.2l0,0C148.5,57.6,147.8,56.6,146.9,55.7z"/>
<linearGradient id="SVGID_15_" gradientUnits="userSpaceOnUse" x1="-941.3182" y1="585.2574" x2="-940.3182" y2="585.2574" gradientTransform="matrix(4.874094e-15 -79.6 -79.6 -4.874094e-15 46722.707 -74831.4141)">
	<stop  offset="0" style="stop-color:#08142E"/>
	<stop  offset="0.81" style="stop-color:#17326E"/>
	<stop  offset="1" style="stop-color:#0D69A9"/>
</linearGradient>
<path class="st15" d="M158.1,62.3c-4.7,3.6-8.7,9.2-10.7,11.7l0,0c-1.7,2.4-3.5,4.8-5.4,7l0,0c-4.9,5.3-11.4,8.4-17.6,6.2l0,0
	c-3.4-1.1-5.9-3.9-6.8-7.3l0,0c-0.2-0.7-0.6-0.8-0.9-0.4l0,0c-1.4,1.6-3,3.1-4.8,4.3l0,0c-0.2,0.1-0.7,0.4-1.1,0.2l0,0
	c-0.7-0.8-1.4-1.6-1.9-2.5l0,0c0-0.1-0.1-0.1-0.1-0.2l0,0c0.4,2.2,0.5,2.5,1.1,3.5l0,0c0.4,0.7,0.9,1.4,1.5,2l0,0
	c0.3,0.1,0.7,0.1,1-0.1l0,0c1.9-1.1,3.6-2.5,5.1-4.1l0,0c0.2-0.2,0.5-0.2,0.7,0c0.1,0.1,0.1,0.1,0.1,0.2l0,0
	c0.5,1.4,1.1,2.7,1.9,3.9l0,0c1.1,1.7,2.8,2.9,4.7,3.4l0,0c3.3,0.9,6.8,0.7,9.9-0.6l0,0c3.5-1.5,6.7-3.7,9.2-6.6l0,0
	c1.9-2.2,3.7-4.6,5.4-7l0,0c2.8-3.9,6.1-7.5,9.6-10.7l0,0c1.5-1.3,3.2-2.2,4.3-1.8l0,0c0.6-1.6,0.3-2.5-0.3-3l0,0
	c-0.2-0.1-0.5-0.2-0.8-0.2l0,0C160.7,60.6,159.3,61.3,158.1,62.3"/>
<linearGradient id="SVGID_16_" gradientUnits="userSpaceOnUse" x1="-941.2773" y1="585.3665" x2="-940.2773" y2="585.3665" gradientTransform="matrix(4.906548e-15 -80.13 -80.13 -4.906548e-15 46981.1992 -75331.5938)">
	<stop  offset="0" style="stop-color:#08142E"/>
	<stop  offset="0.81" style="stop-color:#17326E"/>
	<stop  offset="1" style="stop-color:#0D69A9"/>
</linearGradient>
<path class="st16" d="M79.3,57.8c-2.7,1.4-5.9,3.7-7.5,6.9l0,0c-1.5,2.8-1.3,6.1,0.4,8.7l0,0c0.2,0.2,0.3,0.5,0.5,0.7l0,0
	c-0.4-2.4-0.1-4.9,1-7.1l0,0c1.3-2.6,3.4-4.7,6-6.1l0,0c0.9-0.6,1.4-1.2,0.8-2.7l0,0c-0.2-0.6-0.3-1.3-0.4-1.9l0,0
	C80.2,56.9,79.9,57.5,79.3,57.8"/>
<linearGradient id="SVGID_17_" gradientUnits="userSpaceOnUse" x1="-941.2773" y1="585.3802" x2="-940.2773" y2="585.3802" gradientTransform="matrix(4.905323e-15 -80.11 -80.11 -4.905323e-15 47006.4648 -75315.3906)">
	<stop  offset="0" style="stop-color:#08142E"/>
	<stop  offset="0.81" style="stop-color:#17326E"/>
	<stop  offset="1" style="stop-color:#0D69A9"/>
</linearGradient>
<path class="st17" d="M99.4,25.9c-7.7,2.9-11.1,9-9.5,13.1l0,0c0.3,0.8,0.8,1.4,1.5,1.8l0,0c-0.5-3.8,2.3-9.9,9.7-12.4l0,0
	c9.7-3.2,20.5-1.2,29.2,0.7l0,0c1.2-0.8,2.3-1.3,3.3-1.9l0,0c0.5-0.3-0.1-0.6-0.2-0.6l0,0c-6.9-1.3-14.1-2.9-21.1-2.9l0,0
	C107.9,23.6,103.5,24.4,99.4,25.9"/>
<linearGradient id="SVGID_18_" gradientUnits="userSpaceOnUse" x1="-941.2773" y1="585.3797" x2="-940.2773" y2="585.3797" gradientTransform="matrix(4.906548e-15 -80.13 -80.13 -4.906548e-15 47007.9297 -75334.0156)">
	<stop  offset="0" style="stop-color:#08142E"/>
	<stop  offset="0.81" style="stop-color:#17326E"/>
	<stop  offset="1" style="stop-color:#0D69A9"/>
</linearGradient>
<path class="st18" d="M131.7,48.8c-3.5,0.2-8.9,0.7-12.6,1.2l0,0c-0.9,0.1-1,0.3-1.2,0.6l0,0c-5.9,9.7-12.1,20.1-19,27.1l0,0
	c-7.4,7.5-13.5,9.5-20,9.5l0,0C71.4,87.3,64.7,83,63,75.5l0,0c0.9,4.2,3.6,9.2,6.7,11.4l0,0c2.9,2,6.4,3.1,9.9,3l0,0
	C87,90,93.8,87,101,79.7l0,0c6.9-7,12.9-16.8,18.7-26.5l0,0c0.2-0.3,0.4-0.5,1.4-0.6l0,0c3.7-0.5,7-0.7,10.3-1l0,0
	c1-0.1,1.7-0.2,2.1,0.2l0,0c1,1.1,2.2,2,3.5,2.8l0,0c0.5,0,1.1,0.1,1.5,0.5l0,0c0.4-0.1,0.7-0.3,1-0.5l0,0c0.3-0.4,0.5-0.8,0.4-1.3
	l0,0c-0.1-1-0.3-1.9-0.6-2.8l0,0c0.2,0.4,0.1,0.9-0.3,1.2l0,0c-0.3,0.4-0.7,0.6-1.2,0.6l0,0c-0.4-0.1-0.8-0.2-1.2-0.4l0,0
	c-1.3-0.7-2.4-1.6-3.4-2.7l0,0c-0.2-0.3-0.5-0.4-0.8-0.4l0,0C132.2,48.7,131.9,48.7,131.7,48.8"/>
<linearGradient id="SVGID_19_" gradientUnits="userSpaceOnUse" x1="-941.2772" y1="585.3897" x2="-940.2772" y2="585.3897" gradientTransform="matrix(4.908997e-15 -80.17 -80.17 -4.908997e-15 47033.7773 -75371.5547)">
	<stop  offset="0" style="stop-color:#08142E"/>
	<stop  offset="0.81" style="stop-color:#17326E"/>
	<stop  offset="1" style="stop-color:#0D69A9"/>
</linearGradient>
<path class="st19" d="M99.9,54.6c-0.7,0.6-1.9,0.5-2.5-0.3c0,0,0,0,0,0l0,0c-0.2-0.2-0.3-0.5-0.3-0.8l0,0c-0.1,1.3,0.2,2.6,0.8,3.7
	l0,0c0.7,0.8,1.9,1,2.7,0.3l0,0c1.9-1.5,4.1-2.6,6.5-3.1l0,0c0.6-0.8,1.2-1.7,1.9-2.7l0,0c0.1-0.1,0.1-0.2,0-0.2l0,0
	c0-0.1-0.1-0.1-0.3-0.1l0,0C105.5,51.5,102.4,52.6,99.9,54.6"/>
<linearGradient id="SVGID_20_" gradientUnits="userSpaceOnUse" x1="-941.4103" y1="585.1079" x2="-940.4103" y2="585.1079" gradientTransform="matrix(4.802453e-15 -78.43 -78.43 -4.802453e-15 46083.5664 -73742.6953)">
	<stop  offset="0" style="stop-color:#08142E"/>
	<stop  offset="0.81" style="stop-color:#17326E"/>
	<stop  offset="1" style="stop-color:#0D69A9"/>
</linearGradient>
<path class="st20" d="M193.5,23.8c0,0.1,0.1,0.1,0.1,0.2l0,0C193.6,23.9,193.6,23.8,193.5,23.8z"/>
<linearGradient id="SVGID_21_" gradientUnits="userSpaceOnUse" x1="-941.2773" y1="585.3301" x2="-940.2773" y2="585.3301" gradientTransform="matrix(4.906548e-15 -80.13 -80.13 -4.906548e-15 47060.168 -75326.2812)">
	<stop  offset="0" style="stop-color:#08142E"/>
	<stop  offset="0.81" style="stop-color:#17326E"/>
	<stop  offset="1" style="stop-color:#0D69A9"/>
</linearGradient>
<path class="st21" d="M193.9,25.2c-0.1,2.1-1.8,4.2-5.9,6.4l0,0c-4.7,2.6-9.5,3.3-14.6,3.4l0,0c-12.3,0.1-23.8-4.7-35.6-7.3l0,0
	c0,0.5,0.1,1.1-0.3,1.5l0,0C130.9,34.1,125,39,121,45.9l0,0c-0.1,0.2-0.1,0.3,0.2,0.3l0,0c1.1-0.1,2.1-0.1,3.1-0.2l0,0
	c3.6-5.7,7.5-8.9,13.4-13.3l0,0c0.6-0.4,0.9-1.1,0.7-1.8l0,0c11.9,2.6,20.9,7,36.3,7.1l0,0c4.6,0,11-1.5,14.5-3.6l0,0
	c4-2.4,5.1-4.2,5.2-6l0,0c0-0.6-0.1-1.3-0.2-1.9l0,0c-0.1-0.7-0.2-1.3-0.4-2l0,0C193.9,24.6,193.9,24.9,193.9,25.2"/>
<linearGradient id="SVGID_22_" gradientUnits="userSpaceOnUse" x1="-941.6453" y1="584.6798" x2="-940.6453" y2="584.6798" gradientTransform="matrix(4.635288e-15 -75.7 -75.7 -4.635288e-15 44397.0547 -71191.3906)">
	<stop  offset="0" style="stop-color:#08142E"/>
	<stop  offset="0.81" style="stop-color:#17326E"/>
	<stop  offset="1" style="stop-color:#0D69A9"/>
</linearGradient>
<path class="st22" d="M136.6,39.7c-0.1,0.2-0.3,0.3-0.5,0.4l0,0c-1,1.1-1.5,2.5-1.4,4l0,0c0.1,0.5,0.3,0.6,0.5,0.5l0,0
	c0.2,0,0.5-0.1,0.7-0.2l0,0c0.1-0.7,0.5-1.4,1-1.9l0,0c0.4-0.4,1-0.6,1.6-0.5l0,0c0.5-0.9,0.6-2,0-2.5l0,0c-0.2-0.2-0.6-0.3-0.9-0.3
	l0,0C137.2,39.3,136.9,39.5,136.6,39.7"/>
<linearGradient id="SVGID_23_" gradientUnits="userSpaceOnUse" x1="-941.2773" y1="585.3814" x2="-940.2773" y2="585.3814" gradientTransform="matrix(4.906548e-15 -80.13 -80.13 -4.906548e-15 47046.0273 -75333.8281)">
	<stop  offset="0" style="stop-color:#08142E"/>
	<stop  offset="0.81" style="stop-color:#17326E"/>
	<stop  offset="1" style="stop-color:#0D69A9"/>
</linearGradient>
<path class="st23" d="M141.3,43.9c-1,1.9-2.7,3.3-4.8,3.9l0,0c0,0-0.4,0.1-0.3,0.4l0,0c0,0.4,1.3,1.2,2.1,1.7l0,0
	c0.1,0,0.2-0.1,0.3-0.1l0,0c1.4-0.6,2.6-1.8,3.3-3.2l0,0c0.7-1.3,0.9-2.9,0.6-4.4l0,0c-0.1-1.2-0.4-2.4-0.9-3.5l0,0
	C142.4,40.4,142.3,42.3,141.3,43.9"/>
<linearGradient id="SVGID_24_" gradientUnits="userSpaceOnUse" x1="-941.2773" y1="585.3414" x2="-940.2773" y2="585.3414" gradientTransform="matrix(4.907160e-15 -80.14 -80.14 -4.907160e-15 47004.7695 -75337.0781)">
	<stop  offset="0" style="stop-color:#08142E"/>
	<stop  offset="0.81" style="stop-color:#17326E"/>
	<stop  offset="1" style="stop-color:#0D69A9"/>
</linearGradient>
<path class="st24" d="M108.5,33.8c0.2,0.8,0.2,1.6-0.2,2.4l0,0c-3.3,7.7-9.5,13.7-17.1,14l0,0c-4,0.3-7.8-1.9-9.6-5.6l0,0
	c1.3,2.6,3.3,4.7,5.7,6.2l0,0c1.8,1.1,3.9,1.6,6,1.5l0,0c7.9-0.3,13.9-6.8,15.9-12.3l0,0c0.3-1.4,0.3-2.8-0.1-4.1l0,0
	C108.9,35.4,108.8,34.5,108.5,33.8z"/>
<path class="st25" d="M299.1,51.9c0.1,0.3,0.1,0.5,0.1,0.8C299.2,52.4,299.1,52.2,299.1,51.9 M1,56.9c0-6.6,2.9-13.1,9-19.3
	C31.5,15.9,87.7,1.3,149.7,1C231.9,0.7,298.8,25.2,299,55.6c0,6.6-3,13-9.1,19.2c-21.5,21.7-77.6,36.4-139.6,36.6
	C68.1,111.8,1.2,87.3,1,56.9 M150,0C66.7,0,0,25,0,56.2s67.3,56.2,150,56.2s150-25.2,150-56.2S232.7,0,150,0"/>
<linearGradient id="SVGID_25_" gradientUnits="userSpaceOnUse" x1="-940.4311" y1="591.2318" x2="-939.4311" y2="591.2318" gradientTransform="matrix(-34.6585 -129.3471 -129.3471 34.6585 43997.8789 -141991.6875)">
	<stop  offset="0" style="stop-color:#B2B1B1"/>
	<stop  offset="0.35" style="stop-color:#DEDDDE"/>
	<stop  offset="0.65" style="stop-color:#DEDDDE"/>
	<stop  offset="1" style="stop-color:#B2B1B1"/>
</linearGradient>
<path class="st26" d="M0.5,56.2c0,1.5,0.2,3,0.5,4.4l0,0c-0.2-1.2-0.4-2.5-0.4-3.7l0,0c0-6.7,3-13.4,9.1-19.6l0,0
	c21.6-21.8,77.9-36.5,140-36.7l0,0c8.6,0,17.1,0.2,25.3,0.7l0,0c-8.1-0.5-16.5-0.8-25-0.8l0,0C67.1,0.5,0.5,25.3,0.5,56.2"/>
<linearGradient id="SVGID_26_" gradientUnits="userSpaceOnUse" x1="-940.4521" y1="591.2567" x2="-939.4521" y2="591.2567" gradientTransform="matrix(-34.5 -128.74 -128.74 34.5 43880.4141 -141405.625)">
	<stop  offset="0" style="stop-color:#B2B1B1"/>
	<stop  offset="0.35" style="stop-color:#DEDDDE"/>
	<stop  offset="0.65" style="stop-color:#DEDDDE"/>
	<stop  offset="1" style="stop-color:#B2B1B1"/>
</linearGradient>
<path class="st27" d="M299.4,55.6c0,6.7-3.1,13.3-9.3,19.5l0,0c-21.5,21.7-77.8,36.5-139.9,36.8l0,0c-8.8,0-17.4-0.2-25.8-0.7l0,0
	c8.3,0.5,16.8,0.8,25.5,0.8l0,0c82.5,0,149.5-25.2,149.5-55.8l0,0c0-1.2-0.1-2.3-0.3-3.5l0,0C299.3,53.6,299.4,54.6,299.4,55.6"/>
<linearGradient id="SVGID_27_" gradientUnits="userSpaceOnUse" x1="-930.6243" y1="605.1165" x2="-929.6243" y2="605.1165" gradientTransform="matrix(7.036209e-15 114.91 114.91 -7.036209e-15 -69384.0391 106936.0156)">
	<stop  offset="0" style="stop-color:#FFFFFF"/>
	<stop  offset="0.55" style="stop-color:#FFFFFF"/>
	<stop  offset="0.69" style="stop-color:#FAFAFA"/>
	<stop  offset="0.8" style="stop-color:#D3D2D2"/>
	<stop  offset="1" style="stop-color:#BDBCBC"/>
</linearGradient>
<path class="st28" d="M8.4,56.2c0,27.2,63.4,49.3,141.5,49.3l0,0c78.2,0,141.5-22.1,141.5-49.3l0,0C291.5,29,228.2,7,150,7l0,0
	C71.8,7,8.4,29,8.4,56.2 M13.4,56.2c0-24.9,61.1-45,136.6-45l0,0c75.4,0,136.6,20.1,136.6,45l0,0c0,24.9-61.1,45-136.6,45l0,0
	C74.6,101.2,13.4,81.1,13.4,56.2"/>
<linearGradient id="SVGID_28_" gradientUnits="userSpaceOnUse" x1="-926.567" y1="612.9528" x2="-925.1633" y2="612.9528" gradientTransform="matrix(3.489631e-15 56.99 56.99 -3.489631e-15 -34781.6172 52816.3711)">
	<stop  offset="0" style="stop-color:#FFFFFF"/>
	<stop  offset="0.55" style="stop-color:#FFFFFF"/>
	<stop  offset="0.69" style="stop-color:#EFEEEE"/>
	<stop  offset="0.8" style="stop-color:#E9E9E9"/>
	<stop  offset="1" style="stop-color:#D3D2D2"/>
</linearGradient>
<path class="st29" d="M230.1,39.5c-0.5-0.1-0.9,0.2-1.1,0.6l0,0c-0.9,1.7-11.5,17.5-13.4,20.6l0,0c-0.3,0.5-0.7,0.4-0.8-0.1l0,0
	c-0.5-2.3-2.1-4.1-4.3-4.9l0,0c-1.8-0.7-3.8-1-5.7-0.7l0,0c-3.4,0.6-6.6,2.1-9.3,4.4l0,0c-4.1,3.1-7.7,7.2-12.2,10.2l0,0
	c-2.5,1.6-5.9,3.1-8.2,0.9l0,0c-2.1-1.9-1.8-6.2,1.3-9.5l0,0c0.1-0.2,0.4-0.2,0.6,0c0.1,0.1,0.1,0.2,0.1,0.3l0,0
	c-0.3,1.5,0.1,3,1.2,4l0,0c1.4,1.2,3.4,1.4,5.1,0.6l0,0c2-1,3.3-2.9,3.5-5.1l0,0c0.4-3.2-1.8-6.1-5-6.6c-0.1,0-0.2,0-0.3,0l0,0
	c-2.8-0.2-5.6,0.9-7.6,2.8l0,0c-1.1,1-2.2,2.1-3,3.3l0,0c-0.3,0.4-0.7,0.4-0.6-0.1l0,0c0.1-4.3-1.7-6.7-5.2-6.8l0,0
	c-2.8-0.1-5.7,1.4-8,3.3l0,0c-2.5,2-4.7,4.7-7.1,7.2l0,0c-0.3,0.3-0.6,0.3-0.6-0.3l0,0c0-2.7-0.7-5.3-2.1-7.6l0,0
	c-0.5-0.7-1.5-1-2.3-0.6l0,0c-1,0.4-1.9,1-2.7,1.6l0,0c-0.5,0.4-0.7,1.1-0.5,1.7l0,0c1.3,4.4,1,9-0.7,13.2l0,0
	c-1.6,3.8-4.7,7.1-8.3,8.3l0,0c-2.4,0.8-4.9,0.4-6.4-1.7l0,0c-2.1-2.9-1.3-8,1.9-12.3l0,0c2.8-3.5,6.6-6.1,10.8-7.6l0,0
	c0.5-0.2,0.6-0.5,0.4-0.9l0,0c-0.2-0.7-0.6-1.6-0.7-2l0,0c-0.4-1-1.4-1.1-2.7-1l0,0c-2.9,0.4-5.7,1.3-8.2,2.7l0,0
	c-6.8,3.6-10.2,10.7-11.7,14.5l0,0c-0.5,1.4-1.2,2.7-2.1,3.9l0,0c-1.5,1.7-3.1,3.3-4.9,4.7l0,0c-0.3,0.3-0.4,0.7-0.2,1l0,0
	c0.5,0.9,1.2,1.7,1.9,2.5l0,0c0.4,0.2,0.9-0.1,1.1-0.2l0,0c1.8-1.2,3.4-2.7,4.8-4.3l0,0c0.3-0.4,0.7-0.2,0.9,0.4l0,0
	c0.9,3.4,3.5,6.2,6.8,7.3l0,0c6.2,2.1,12.7-0.9,17.6-6.2l0,0c1.9-2.2,3.7-4.6,5.4-7l0,0c2-2.5,6-8.1,10.7-11.7l0,0
	c1.7-1.3,3.8-2.3,4.8-1.7l0,0c0.8,0.5,1.1,1.8-0.2,4.2l0,0c-4.8,8.8-11.9,19.2-13.2,21.7l0,0c-0.2,0.4,0,0.8,0.4,0.8h7.3
	c0.3,0,0.6-0.2,0.7-0.5l0,0c3.7-5.8,7.2-11.3,10.9-17l0,0c0.2-0.3,0.4-0.1,0.4,0.1l0,0c0.1,1.5,0.5,3,1.2,4.3l0,0
	c1.2,2,3.3,3.2,5.6,3.2l0,0c1.6,0,3.2-0.3,4.6-1l0,0c1.3-0.5,2.6-1.2,3.8-2l0,0c0.6-0.4,0.7,0.3,0.6,0.4l0,0
	c-0.9,4.6,0.2,10.1,4.8,12.3l0,0c5.5,2.7,11.5-1.1,15-4.5l0,0c0.3-0.3,0.7-0.3,0.7,0.4l0,0c0.1,1.5,0.7,2.9,1.7,4l0,0
	c2.9,2.9,8.8,1.8,14.6-2.8l0,0c4.2-3.4,8-7.2,11.3-11.4l0,0c0.2-0.2,0.2-0.5,0-0.7l0,0c-0.6-0.6-1.2-1.2-1.9-1.7l0,0
	c-0.2-0.2-0.6-0.1-0.8,0l0,0c-3.7,3.5-6.9,7.4-11.7,10.7l0,0c-1.6,1.1-4.2,2-5.3,0.5l0,0c-0.4-0.8-0.4-1.7,0-2.5l0,0
	c1.4-3.5,23.4-36.9,24.5-38.9l0,0c0.2-0.3,0-0.6-0.4-0.6l0,0C235.4,39.5,232.4,39.5,230.1,39.5 M195.3,80.6
	c-1.1-0.8-1.7-2.1-1.6-3.4l0,0c0.1-3.6,1.7-7.3,4.6-10.9l0,0c3.6-4.4,7.6-6.7,10.2-5.5l0,0c2.7,1.3,1.8,4.4,0.6,6.9l0,0
	c-0.1,0.2-0.1,0.3,0,0.5l0,0c0,0.3,0.4,0.5,0.7,0.6l0,0c0.1,0,0.2,0.1,0.1,0.4l0,0c-0.8,1.7-1.8,3.4-3,4.9l0,0
	c-1.1,1.6-2.3,2.9-3.8,4.1l0,0c-1.7,1.4-3.9,2.9-6,2.9l0,0C196.5,81.1,195.8,80.9,195.3,80.6 M113.5,19.7c-2.1,0-4.2,0.1-6.3,0.3
	l0,0c-13.5,1.1-26.3,8.7-26.4,20.3l0,0c0,5.9,4.2,10.6,10.6,10.4l0,0c7.6-0.3,13.8-6.3,17.1-14l0,0c1.2-2.9-1.1-4.1-2.1-2.4l0,0
	c-1.9,2.9-4.5,5.2-7.6,6.8l0,0c-3.6,1.7-7.4,1.3-8.5-1.6l0,0c-1.6-4.1,1.8-10.2,9.5-13.1l0,0c11.1-4.1,22.8-1.4,34,0.7l0,0
	c0.2,0,0.8,0.3,0.2,0.6l0,0c-2.5,1.2-4.9,2.8-7.1,4.6l0,0c-2.6,2.2-5.1,4.5-7.3,7.1l0,0c-2.2,2.7-3.8,5.1-5.9,7.8l0,0
	c-0.1,0.2-0.4,0.4-0.6,0.4l0,0c-5.1,0.9-10,1.4-14.6,4.6l0,0c-0.9,0.6-1.3,1.7-0.8,2.7l0,0c0.6,0.8,1.7,0.9,2.5,0.3c0,0,0,0,0,0l0,0
	c2.6-2,5.8-3.1,9.1-3.2l0,0c0.1,0,0.2,0,0.3,0.1l0,0v0.2l0,0c-3.1,4.5-6.4,8.7-10,12.8l0,0c-1.8,2.1-3.8,4.1-5.9,6l0,0
	c-8.5,7.9-17.7,7.8-21,2.8l0,0c-1.8-2.6-1.9-6-0.4-8.7l0,0c1.6-3.2,4.8-5.5,7.5-6.9l0,0c0.9-0.5,1.2-1.5,0.7-2.4
	c-0.1-0.2-0.2-0.4-0.4-0.5l0,0c-0.6-0.8-2.2-0.9-3.3-0.7l0,0c-3.5,0.6-7.6,3.3-10.1,6.5l0,0c-2.8,3.6-4.1,8.2-3.7,12.7l0,0
	c0.8,8.8,8,13.8,16.2,13.8l0,0c6.5-0.1,12.7-2,20-9.5l0,0c6.9-7,13.2-17.4,19-27.1l0,0c0.2-0.3,0.3-0.5,1.2-0.6l0,0
	c3.7-0.5,9.1-1,12.6-1.2l0,0c0.8,0,0.9,0,1.2,0.4l0,0c1,1.1,2.1,2,3.4,2.7l0,0c0.4,0.3,0.8,0.4,1.2,0.4l0,0c0.5,0,0.9-0.2,1.2-0.6
	l0,0c0.4-0.3,0.5-0.8,0.3-1.3l0,0c-0.2-0.4-2.6-1.7-2.7-2.2l0,0c-0.1-0.3,0.3-0.4,0.3-0.4l0,0c2.1-0.6,3.8-2,4.8-3.9l0,0
	c1.1-2.1,1.3-5-0.7-6.5l0,0c-1.8-1.4-4.5-1.2-6.6,0.8l0,0c-1.9,1.8-2.9,4.4-2.5,7l0,0c0,0.4,0,0.6-0.5,0.6l0,0
	c-3.2,0.3-6.3,0.3-9.8,0.5l0,0c-0.2,0-0.3-0.1-0.2-0.3l0,0c4-6.9,9.9-11.8,16.5-16.7l0,0c0.4-0.3,0.3-0.9,0.3-1.5l0,0
	c11.9,2.6,23.3,7.4,35.6,7.3l0,0c5.1,0.2,10.1-1,14.6-3.4l0,0c4.1-2.2,5.8-4.3,5.9-6.4l0,0c0.2-1-0.5-2-1.5-2.2
	c-0.3-0.1-0.6,0-0.9,0.1l0,0c-12.4,2.9-24.3,2.8-36.7,1.3l0,0C141,23.2,127.5,19.7,113.5,19.7L113.5,19.7"/>
</svg>
