<svg xmlns="http://www.w3.org/2000/svg" xmlns:xlink="http://www.w3.org/1999/xlink" viewBox="0 0 476.2 317.47"><defs><style>.a,.fw,.fx{fill:none;}.b{fill:#58595b;}.c{fill:#595a5c;}.d{fill:#5a5b5d;}.e{fill:#5b5c5e;}.f{fill:#5c5c5f;}.g{fill:#5c5d60;}.h{fill:#5d5e60;}.i{fill:#5e5f61;}.j{fill:#5f6062;}.k{fill:#606163;}.l{fill:#616264;}.m{fill:#616365;}.n{fill:#626366;}.o{fill:#636467;}.p{fill:#646567;}.q{fill:#656668;}.r{fill:#666769;}.s{fill:#66686a;}.t{fill:#67686b;}.u{fill:#68696c;}.v{fill:#696a6c;}.w{fill:#6a6b6d;}.x{fill:#6a6c6e;}.y{fill:#6b6c6f;}.z{fill:#6c6d70;}.aa{fill:#6d6e70;}.ab{fill:#6d6f71;}.ac{fill:#6e7072;}.ad{fill:#6f7073;}.ae{fill:#707174;}.af{fill:#717275;}.ag{fill:#717375;}.ah{fill:#727476;}.ai{fill:#737477;}.aj{fill:#747578;}.ak{fill:#747678;}.al{fill:#757779;}.am{fill:#76777a;}.an{fill:#77787b;}.ao{fill:#77797c;}.ap{fill:#787a7c;}.aq{fill:#797b7d;}.ar{fill:#7a7b7e;}.as{fill:#7a7c7f;}.at{fill:#7b7d7f;}.au{fill:#7c7e80;}.av{fill:#7d7e81;}.aw{fill:#7d7f82;}.ax{fill:#7e8082;}.ay{fill:#7f8183;}.az{fill:#808184;}.ba{fill:#808285;}.bb{fill:#818385;}.bc{fill:#828486;}.bd{fill:#828487;}.be{fill:#838588;}.bf{fill:#848688;}.bg{fill:#858789;}.bh{fill:#85878a;}.bi{fill:#86888b;}.bj{fill:#87898b;}.bk{fill:#888a8c;}.bl{fill:#888a8d;}.bm{fill:#898b8e;}.bn{fill:#8a8c8e;}.bo{fill:#8b8d8f;}.bp{fill:#8b8d90;}.bq{fill:#8c8e91;}.br{fill:#8d8f92;}.bs{fill:#8e9092;}.bt{fill:#8e9093;}.bu{fill:#8f9194;}.bv{fill:#909295;}.bw{fill:#919395;}.bx{fill:#919396;}.by{fill:#929497;}.bz{fill:#939598;}.ca{fill:#949698;}.cb{fill:#949699;}.cc{fill:#95979a;}.cd{fill:#96989b;}.ce{fill:#97999b;}.cf{fill:#979a9c;}.cg{fill:#989a9d;}.ch{fill:#999b9e;}.ci{fill:#9a9c9e;}.cj{fill:#9b9d9f;}.ck{fill:#9b9da0;}.cl{fill:#9c9ea1;}.cm{fill:#9d9fa2;}.cn{fill:#9ea0a2;}.co{fill:#9ea1a3;}.cp{fill:#9fa1a4;}.cq{fill:#a0a2a5;}.cr{fill:#a1a3a5;}.cs{fill:#a2a4a6;}.ct{fill:#a2a4a7;}.cu{fill:#a3a5a8;}.cv{fill:#a4a6a9;}.cw{fill:#a5a7a9;}.cx{fill:#a5a8aa;}.cy{fill:#a6a8ab;}.cz{fill:#a7a9ac;}.da{fill:#a8aaad;}.db{fill:#a9abad;}.dc{fill:#a9acae;}.dd{fill:#aaacaf;}.de{fill:#abadb0;}.df{fill:#acaeb0;}.dg{fill:#adafb1;}.dh{fill:#aeb0b2;}.di{fill:#aeb0b3;}.dj{fill:#afb1b4;}.dk{fill:#b0b2b4;}.dl{fill:#b1b3b5;}.dm{fill:#b2b4b6;}.dn{fill:#b2b4b7;}.do{fill:#b3b5b8;}.dp{fill:#b4b6b8;}.dq{fill:#b5b7b9;}.dr{fill:#b6b8ba;}.ds{fill:#b7b9bb;}.dt{fill:#b7b9bc;}.du{fill:#b8babc;}.dv{fill:#b9bbbd;}.dw{fill:#babcbe;}.dx{fill:#bbbdbf;}.dy{fill:#bcbdc0;}.dz{fill:#bcbec0;}.ea{fill:#bdbfc1;}.eb{fill:#bec0c2;}.ec{fill:#bfc1c3;}.ed{fill:#c0c2c4;}.ee{fill:#c1c2c4;}.ef{fill:#c1c3c5;}.eg{fill:#c2c4c6;}.eh{fill:#c3c5c7;}.ei{fill:#c4c6c8;}.ej{fill:#c5c6c8;}.ek{fill:#c5c7c9;}.el{fill:#c7c9cb;}.em{fill:#c8cacc;}.en{fill:#c9cbcc;}.eo{fill:#cacbcd;}.ep{fill:#cbccce;}.eq{fill:#cbcdcf;}.er{fill:#ccced0;}.es{fill:#cdcfd0;}.et{fill:#cecfd1;}.eu{fill:#cfd0d2;}.ev{fill:#d0d1d3;}.ew{fill:#d0d2d3;}.ex{fill:#d2d3d5;}.ey{fill:#d3d4d6;}.ez{fill:#d4d5d7;}.fa{fill:#d5d6d7;}.fb{fill:#d5d7d8;}.fc{fill:#d6d7d9;}.fd{fill:#d7d8da;}.fe{fill:#d8d9db;}.ff{fill:#d9dadb;}.fg{fill:#d9dbdc;}.fh{fill:#dadcdd;}.fi{fill:#dbdcde;}.fj{fill:#dddedf;}.fk{fill:#dedfe0;}.fl{fill:#dee0e1;}.fm{fill:#dfe0e2;}.fn{fill:#e0e1e2;}.fo{fill:#e1e2e3;}.fp{fill:#e2e3e4;}.fq{fill:#e3e4e5;}.fr{fill:#e4e5e6;}.fs{fill:#e5e6e7;}.ft{fill:#e7e8e9;}.fu{clip-path:url(#a);}.fv{fill:url(#b);}.fw{stroke:#004e25;stroke-width:2.95px;}.fx{stroke:#f5f0cc;stroke-width:5.59px;}.fy{clip-path:url(#c);}.fz{fill:url(#d);}.ga{clip-path:url(#e);}.gb{fill:url(#f);}.gc{clip-path:url(#g);}.gd{fill:url(#h);}.ge{clip-path:url(#i);}.gf{fill:url(#j);}.gg{clip-path:url(#k);}.gh{fill:url(#l);}.gi{clip-path:url(#m);}.gj{fill:url(#n);}.gk{clip-path:url(#o);}.gl{fill:url(#p);}.gm{clip-path:url(#q);}.gn{fill:url(#r);}.go{clip-path:url(#s);}.gp{fill:url(#t);}.gq{clip-path:url(#u);}.gr{fill:url(#v);}.gs{clip-path:url(#w);}.gt{fill:url(#x);}.gu{fill:#f5f0cc;}</style><clipPath id="a"><path class="a" d="M9.3,125c0,63.6,102.4,115.2,228.7,115.2S466.8,188.6,466.8,125,364.4,9.8,238,9.8,9.3,61.4,9.3,125"/></clipPath><linearGradient id="b" x1="-715.44" y1="-364.83" x2="-711.51" y2="-364.83" gradientTransform="matrix(30.53, 65.46, 65.46, -30.53, 45900.33, 35694.48)" gradientUnits="userSpaceOnUse"><stop offset="0" stop-color="#008948"/><stop offset="0.38" stop-color="#008948"/><stop offset="0.6" stop-color="#004e25"/><stop offset="1"/></linearGradient><clipPath id="c"><polygon class="a" points="337.5 79.9 333.2 93 356.4 93 329.9 102.6 328.1 107.9 369 93.9 373.5 79.9 337.5 79.9"/></clipPath><linearGradient id="d" x1="-711.62" y1="-360.88" x2="-707.68" y2="-360.88" gradientTransform="matrix(23.66, 50.74, 50.74, -23.66, 35465.64, 27593.07)" gradientUnits="userSpaceOnUse"><stop offset="0" stop-color="#004e25"/><stop offset="1"/></linearGradient><clipPath id="e"><path class="a" d="M147.9,102ZM127,57.5c2.5,1.3.3,6.2.3,6.2s-16.2,47.2-17.3,49.6-2,2.7-2,2.7h35l4.9-13.9c-.5,1.3-3.8.9-3.8.9H129.5s13.6-37.9,14.7-40.7c1.6-4.2,2.7-4.7,3-4.7H127Zm20.1,0h0"/></clipPath><linearGradient id="f" x1="-717.05" y1="-368.16" x2="-713.11" y2="-368.16" gradientTransform="matrix(45.62, 97.83, 97.83, -45.62, 68919.72, 53576.81)" xlink:href="#d"/><clipPath id="g"><path class="a" d="M255.7,61c-.6,1.5-9.6,26.7-9.6,26.7l-3.5-30.1H225.5a3.9,3.9,0,0,1,.3,3.1c-.5,1.3-18.1,51.9-18.1,51.9s-1.1,3.2-2.1,3.2h16.5a4.54,4.54,0,0,1-.4-3.7c1-2.7,9.7-27.6,9.7-27.6l3.8,31.3h14.9l19.6-55.6s.8-2.6,1.9-2.6H255.7a5.06,5.06,0,0,1,0,3.4"/></clipPath><linearGradient id="h" x1="-716.84" y1="-366.78" x2="-712.9" y2="-366.78" gradientTransform="matrix(40.72, 87.31, 87.31, -40.72, 61455.23, 47753.73)" xlink:href="#d"/><clipPath id="i"><path class="a" d="M294.5,70.1h4.2s11-.7,3.1,19.3c-4.8,12.2-11.9,13.1-15.7,13.1h-2.6Zm5.4-12.5H281.1s1.4,2.4-.4,7.8-16.2,46-16.2,46-1.1,3.8-2.7,4.5h22.6s27.4,1.1,35.8-29c0,0,10.6-29.4-19.9-29.4a.6.6,0,0,1-.4.1"/></clipPath><linearGradient id="j" x1="-716.3" y1="-365.61" x2="-712.36" y2="-365.61" gradientTransform="matrix(36.65, 78.59, 78.59, -36.65, 55256.93, 42934.81)" xlink:href="#d"/><clipPath id="k"><polygon class="a" points="87.4 148.9 82.9 162.9 118.9 162.9 123.2 149.8 100 149.8 126.5 140.2 128.3 134.9 87.4 148.9"/></clipPath><linearGradient id="l" x1="-710.27" y1="-364.15" x2="-706.33" y2="-364.15" gradientTransform="matrix(23.66, 50.74, 50.74, -23.66, 35421.38, 27643.69)" xlink:href="#d"/><clipPath id="m"><path class="a" d="M159.9,142.1h3.9c8.4,0,5.4,6.6,5.4,6.6-2.6,5.8-9.5,5.1-9.5,5.1h-3.6Zm9.4-13.4H146c1.7,2,.4,6.1.4,6.1s-14.5,43.3-15.6,46.6a18.54,18.54,0,0,1-3.2,5.7H146c-.6,0-.6-1.9-.6-1.9l6.6-18.3s8.2,16.9,8.8,18.1a3.22,3.22,0,0,1,.3,2.2h19.7c-1.9,0-3.8-3.7-3.8-3.7l-9.8-18.4c13.7,0,18.1-14.2,18.1-14.2,6.4-21.5-13.9-22-15.9-22l-.1-.2"/></clipPath><linearGradient id="n" x1="-715.36" y1="-366.95" x2="-711.42" y2="-366.95" gradientTransform="matrix(36.71, 78.72, 78.72, -36.71, 55323.87, 43046.2)" xlink:href="#d"/><clipPath id="o"><path class="a" d="M350,187.3h0m13.6-44.9h5.1s6.2-.2,3.7,6.5c-2.1,5.6-9,5.1-9,5.1h-3.6Zm9.5-13.5H350c1.7,2,.4,6.1.4,6.1s-15.1,43.5-16.2,46.8a14.4,14.4,0,0,1-3.3,5.5h19.2c-1.3,0-.4-3.6-.4-3.6l5.9-16.7s8,16.9,8.5,18.1a3.22,3.22,0,0,1,.3,2.2h20.4c-1.9,0-3.9-3.7-3.9-3.7l-9.8-18.4c13.7,0,17.9-13.7,17.9-13.7,6.6-21.6-11.9-22.6-15.3-22.6h-.6"/></clipPath><linearGradient id="p" x1="-716.46" y1="-365.37" x2="-712.52" y2="-365.37" gradientTransform="matrix(36.73, 78.76, 78.76, -36.73, 55385.67, 43022.82)" xlink:href="#d"/><clipPath id="q"><path class="a" d="M211,174.7c-6.9-1.3-5.7-12.5-4.6-17.7,2.4-11.3,8.5-16.7,13-16.2,1.5.2,9.6.3,5.2,18.8-2.6,11-7.4,15.2-12.1,15.2a3.81,3.81,0,0,1-1.5-.1m-21.9-15.5c-2.8,16.3,6,29.4,20.6,29.4,20.3,0,32.5-20.9,32.5-35.9,0-15.7-6.2-25.5-20.3-25.5-18,0-29.8,14.2-32.8,32"/></clipPath><linearGradient id="r" x1="-715.16" y1="-366.19" x2="-711.22" y2="-366.19" gradientTransform="matrix(34.86, 74.76, 74.76, -34.86, 52518.32, 40852.94)" xlink:href="#d"/><clipPath id="s"><path class="a" d="M247,128.9s1.4.8,1.4,4.5V184s-.2,2.8-1.2,3.4h15.1a6.13,6.13,0,0,1,1.5-3.2c1.5-2,32.9-46,32.9-46s7.2-9.2,9.1-9.2H284.1a2.34,2.34,0,0,1,.4,3.3c-1.3,2.2-20.6,32.3-20.6,32.3l.2-30.3s0-4.9,1.8-5.3Z"/></clipPath><linearGradient id="t" x1="-715.62" y1="-365.83" x2="-711.68" y2="-365.83" gradientTransform="matrix(35.58, 76.31, 76.31, -35.58, 53629.51, 41693.36)" xlink:href="#d"/><clipPath id="u"><path class="a" d="M332.6,150.4Zm-26-21.5s1.3,1.2-.4,6.1-16.6,46.8-16.6,46.8-2.7,5.5-3.4,5.5H324l4.5-14s-.6.8-4.1.8h-16l3.4-9.4h12.4s2.6-.2,3.2.6l5.1-14.9c-.1.2-.6,1.3-3.8,1.3h-12l3.6-10.4h15.2s2.1-.3,2.8,1.4l4.9-13.8Z"/></clipPath><linearGradient id="v" x1="-717.86" y1="-367.07" x2="-713.92" y2="-367.07" gradientTransform="matrix(44.68, 95.81, 95.81, -44.68, 67497.74, 52415.48)" xlink:href="#d"/><clipPath id="w"><path class="a" d="M186.5,77.4l.1,17.1H176.4Zm-3.2-19.9s1.3,1.6-1.1,5.3-33,51.1-33,51.1a4.59,4.59,0,0,1-2.2,1.9h18.1a5.43,5.43,0,0,1,.4-2.4c.9-1.7,3.1-5.8,3.1-5.8h18.2v5.1a4.43,4.43,0,0,1-1.2,3.1h18.1a4.24,4.24,0,0,1-1.6-3.1l-2.3-51.3s-.1-3.3,1.4-4C201.3,57.5,183.3,57.5,183.3,57.5Z"/></clipPath><linearGradient id="x" x1="-716.06" y1="-366.84" x2="-712.12" y2="-366.84" gradientTransform="matrix(38.23, 81.99, 81.99, -38.23, 57657.5, 44834.09)" xlink:href="#d"/></defs><path class="b" d="M238.1,0C106.6,0,0,56,0,125S106.6,250,238.1,250s238.1-56,238.1-125S369.6,0,238.1,0"/><path class="c" d="M238.1,0C106.6,0,0,56,0,125S106.6,250,238.1,250s238.1-56,238.1-125S369.6,0,238.1,0"/><path class="d" d="M238.1.1C106.6.1.1,56,.1,125s106.6,124.9,238,124.9,238-55.9,238-124.9S369.6.1,238.1.1"/><path class="e" d="M238.1.1C106.6.1.1,56,.1,125s106.6,124.9,238,124.9,238-55.9,238-124.9S369.5.1,238.1.1"/><path class="f" d="M238.1.1C106.7.1.1,56,.1,125s106.6,124.9,238,124.9,238-55.9,238-124.9S369.5.1,238.1.1"/><path class="g" d="M238.1.1C106.7.1.1,56,.1,125s106.5,124.9,238,124.9,238-55.9,238-124.9S369.5.1,238.1.1"/><path class="h" d="M238.1.2C106.7.2.2,56.1.2,125S106.7,249.8,238.1,249.8s238-55.9,238-124.8S369.5.2,238.1.2"/><path class="i" d="M238.1.2C106.7.2.2,56.1.2,125S106.7,249.8,238.1,249.8,476,193.9,476,125,369.5.2,238.1.2"/><path class="j" d="M238.1.2C106.7.2.2,56.1.2,125S106.7,249.8,238.1,249.8,476,193.9,476,125,369.5.2,238.1.2"/><path class="k" d="M238.1.2C106.7.2.3,56.1.3,125S106.8,249.8,238.2,249.8,476,193.9,476,125,369.5.2,238.1.2"/><path class="l" d="M238.1.3C106.8.3.3,56.1.3,125S106.8,249.7,238.1,249.7,476,193.9,476,125,369.5.3,238.1.3"/><path class="m" d="M238.1.3C106.8.3.3,56.1.3,125S106.8,249.7,238.1,249.7,475.9,193.9,475.9,125,369.4.3,238.1.3"/><path class="n" d="M238.1.3C106.8.3.3,56.1.3,125S106.8,249.7,238.1,249.7,475.9,193.9,475.9,125,369.4.3,238.1.3"/><path class="o" d="M238.1.3C106.8.3.4,56.2.4,125S106.8,249.7,238.1,249.7,475.9,193.9,475.9,125,369.4.3,238.1.3"/><path class="p" d="M238.1.4C106.8.4.4,56.2.4,125S106.8,249.7,238.1,249.7,475.8,193.9,475.8,125,369.4.4,238.1.4"/><path class="q" d="M238.1.4C106.9.4.4,56.2.4,125S106.8,249.6,238.1,249.6,475.8,193.8,475.8,125,369.4.4,238.1.4"/><path class="r" d="M238.1.4C106.9.4.5,56.2.5,125S106.9,249.6,238.2,249.6,475.9,193.8,475.9,125,369.4.4,238.1.4"/><path class="s" d="M238.1.4C106.9.4.5,56.2.5,125S106.9,249.6,238.1,249.6,475.8,193.8,475.8,125,369.4.4,238.1.4"/><path class="t" d="M238.1.5C106.9.5.5,56.2.5,125S106.9,249.5,238.1,249.5,475.7,193.7,475.7,125,369.4.5,238.1.5"/><path class="u" d="M238.1.5C106.9.5.5,56.2.5,125S106.9,249.5,238.1,249.5,475.7,193.8,475.7,125,369.3.5,238.1.5"/><path class="v" d="M238.1.5C106.9.5.6,56.3.6,125S107,249.5,238.2,249.5,475.8,193.8,475.8,125,369.3.5,238.1.5"/><path class="w" d="M238.1.5C107,.5.6,56.3.6,125S107,249.5,238.1,249.5,475.7,193.8,475.7,125,369.3.5,238.1.5"/><path class="x" d="M238.1.6C107,.6.6,56.3.6,125S106.9,249.5,238.1,249.5,475.6,193.8,475.6,125,369.3.6,238.1.6"/><path class="y" d="M238.1.6C107,.6.7,56.3.7,125S107,249.4,238.2,249.4,475.7,193.7,475.7,125,369.3.6,238.1.6"/><path class="z" d="M238.1.6C107,.6.7,56.3.7,125S107,249.4,238.2,249.4,475.7,193.7,475.7,125,369.3.6,238.1.6"/><path class="aa" d="M238.1.6C107,.6.7,56.3.7,125S107,249.4,238.1,249.4,475.6,193.7,475.6,125,369.3.6,238.1.6"/><path class="ab" d="M238.2.7C107,.7.7,56.3.7,125S107,249.4,238.1,249.4,475.6,193.7,475.6,125,369.3.7,238.2.7"/><path class="ac" d="M238.2.7C107.1.7.8,56.4.8,125S107.1,249.3,238.2,249.3,475.6,193.6,475.6,125,369.3.7,238.2.7"/><path class="ad" d="M238.2.7C107.1.7.8,56.4.8,125S107.1,249.3,238.2,249.3,475.5,193.7,475.5,125,369.2.7,238.2.7"/><path class="ae" d="M238.2.7C107.1.7.8,56.4.8,125S107.1,249.3,238.1,249.3,475.5,193.7,475.5,125,369.2.7,238.2.7"/><path class="af" d="M238.2.8C107.1.8.9,56.4.9,125S107.2,249.3,238.2,249.3,475.5,193.7,475.5,125,369.2.8,238.2.8"/><path class="ag" d="M238.2.8C107.1.8.9,56.4.9,125S107.1,249.2,238.2,249.2,475.5,193.6,475.5,125,369.2.8,238.2.8"/><path class="ah" d="M238.2.8C107.1.8.9,56.4.9,125S107.1,249.2,238.2,249.2,475.5,193.6,475.5,125,369.2.8,238.2.8"/><path class="ai" d="M238.2.8C107.2.8.9,56.4.9,125S107.1,249.2,238.1,249.2,475.4,193.6,475.4,125,369.2.8,238.2.8"/><path class="aj" d="M238.2.9C107.2.9,1,56.5,1,125S107.2,249.2,238.2,249.2,475.4,193.6,475.4,125,369.2.9,238.2.9"/><path class="ak" d="M238.2.9C107.2.9,1,56.5,1,125S107.2,249.1,238.2,249.1,475.4,193.5,475.4,125,369.2.9,238.2.9"/><path class="al" d="M238.2.9C107.2.9,1,56.5,1,125S107.2,249.1,238.2,249.1,475.4,193.5,475.4,125,369.2.9,238.2.9"/><path class="am" d="M238.2.9C107.2.9,1.1,56.5,1.1,125S107.3,249.1,238.2,249.1,475.4,193.5,475.4,125,369.1.9,238.2.9"/><path class="an" d="M238.2,1C107.2,1,1.1,56.5,1.1,125S107.3,249.1,238.2,249.1,475.3,193.5,475.3,125,369.1,1,238.2,1"/><path class="ao" d="M238.2,1C107.3,1,1.1,56.5,1.1,125S107.2,249,238.2,249s237.1-55.5,237.1-124S369.1,1,238.2,1"/><path class="ap" d="M238.2,1C107.3,1,1.1,56.5,1.1,125s106.1,124,237,124,237.1-55.5,237.1-124S369.1,1,238.2,1"/><path class="aq" d="M238.2,1C107.3,1,1.2,56.6,1.2,125s106.1,124,237,124,237-55.5,237-124S369.1,1,238.2,1"/><path class="ar" d="M238.2,1.1c-130.9,0-237,55.5-237,124s106.1,124,237,124,237-55.5,237-124-106.1-124-237-124"/><path class="as" d="M238.2,1.1c-130.9,0-237,55.5-237,124S107.3,249,238.2,249s237-55.5,237-123.9-106.1-124-237-124"/><path class="at" d="M238.2,1.1c-130.9,0-237,55.5-237,124S107.3,249,238.2,249s237-55.5,237-123.9-106.1-124-237-124"/><path class="au" d="M238.2,1.1C107.4,1.1,1.3,56.6,1.3,125.1S107.4,249,238.2,249s236.9-55.5,236.9-123.9S369,1.1,238.2,1.1"/><path class="av" d="M238.2,1.2C107.4,1.2,1.3,56.6,1.3,125.1S107.4,249,238.2,249s236.9-55.5,236.9-123.9S369,1.2,238.2,1.2"/><path class="aw" d="M238.2,1.2C107.4,1.2,1.3,56.6,1.3,125.1S107.4,248.9,238.2,248.9s236.9-55.5,236.9-123.8C475.1,56.6,369,1.2,238.2,1.2"/><path class="ax" d="M238.2,1.2C107.4,1.2,1.4,56.7,1.4,125.1s106,123.8,236.8,123.8,236.9-55.4,236.9-123.8S369,1.2,238.2,1.2"/><path class="ay" d="M238.2,1.2C107.4,1.2,1.4,56.7,1.4,125.1s106,123.8,236.8,123.8S475,193.4,475,125.1,369,1.2,238.2,1.2"/><path class="az" d="M238.2,1.3C107.4,1.3,1.4,56.7,1.4,125.1s106,123.8,236.8,123.8S475,193.4,475,125.1,369,1.3,238.2,1.3"/><path class="ba" d="M238.2,1.3C107.5,1.3,1.4,56.7,1.4,125.1s106,123.7,236.8,123.7S475,193.4,475,125.1,369,1.3,238.2,1.3"/><path class="bb" d="M238.2,1.3C107.5,1.3,1.5,56.7,1.5,125.1s106,123.7,236.7,123.7S475,193.4,475,125.1,369,1.3,238.2,1.3"/><path class="bc" d="M238.2,1.3C107.5,1.3,1.5,56.7,1.5,125.1s106,123.7,236.7,123.7S475,193.4,475,125.1,369,1.3,238.2,1.3"/><path class="bd" d="M238.2,1.4C107.5,1.4,1.5,56.7,1.5,125.1s106,123.7,236.7,123.7,236.7-55.4,236.7-123.7S368.9,1.4,238.2,1.4"/><path class="be" d="M238.2,1.4C107.5,1.4,1.6,56.8,1.6,125.1s106,123.7,236.7,123.7S475,193.4,475,125.1,368.9,1.4,238.2,1.4"/><path class="bf" d="M238.2,1.4C107.5,1.4,1.6,56.8,1.6,125.1s106,123.6,236.6,123.6,236.7-55.4,236.7-123.6S368.9,1.4,238.2,1.4"/><path class="bg" d="M238.2,1.4C107.6,1.4,1.6,56.8,1.6,125.1S107.5,248.7,238.2,248.7s236.6-55.3,236.6-123.6S368.9,1.4,238.2,1.4"/><path class="bh" d="M238.2,1.5C107.6,1.5,1.6,56.8,1.6,125.1S107.5,248.7,238.2,248.7s236.6-55.3,236.6-123.6S368.9,1.5,238.2,1.5"/><path class="bi" d="M238.2,1.5C107.6,1.5,1.7,56.8,1.7,125.1S107.6,248.7,238.3,248.7s236.6-55.3,236.6-123.6S368.9,1.5,238.2,1.5"/><path class="bj" d="M238.2,1.5C107.6,1.5,1.7,56.8,1.7,125.1S107.6,248.6,238.2,248.6s236.6-55.3,236.6-123.5S368.9,1.5,238.2,1.5"/><path class="bk" d="M238.2,1.5C107.6,1.5,1.7,56.8,1.7,125.1S107.6,248.6,238.2,248.6s236.5-55.3,236.5-123.5S368.9,1.5,238.2,1.5"/><path class="bl" d="M238.2,1.6C107.6,1.6,1.8,56.9,1.8,125.1S107.7,248.6,238.3,248.6s236.5-55.3,236.5-123.5S368.8,1.6,238.2,1.6"/><path class="bm" d="M238.2,1.6C107.7,1.6,1.8,56.9,1.8,125.1S107.7,248.6,238.3,248.6s236.5-55.3,236.5-123.5S368.8,1.6,238.2,1.6"/><path class="bn" d="M238.2,1.6C107.7,1.6,1.8,56.9,1.8,125.1S107.7,248.5,238.2,248.5s236.4-55.3,236.4-123.4S368.8,1.6,238.2,1.6"/><path class="bo" d="M238.2,1.7C107.7,1.7,1.8,56.9,1.8,125.1S107.6,248.5,238.2,248.5s236.4-55.3,236.4-123.4S368.8,1.7,238.2,1.7"/><path class="bp" d="M238.3,1.7C107.7,1.7,1.9,56.9,1.9,125.1S107.7,248.5,238.3,248.5s236.4-55.2,236.4-123.4S368.8,1.7,238.3,1.7"/><path class="bq" d="M238.3,1.7C107.7,1.7,1.9,56.9,1.9,125.1S107.7,248.5,238.3,248.5s236.4-55.2,236.4-123.4S368.8,1.7,238.3,1.7"/><path class="br" d="M238.3,1.7C107.7,1.7,1.9,56.9,1.9,125.1S107.7,248.4,238.2,248.4s236.4-55.2,236.4-123.3S368.8,1.7,238.3,1.7"/><path class="bs" d="M238.3,1.7C107.8,1.7,2,57,2,125.1S107.8,248.4,238.3,248.4s236.3-55.2,236.3-123.3S368.8,1.7,238.3,1.7"/><path class="bt" d="M238.3,1.8C107.8,1.8,2,57,2,125.1S107.8,248.4,238.3,248.4s236.3-55.2,236.3-123.3S368.8,1.8,238.3,1.8"/><path class="bu" d="M238.3,1.8C107.8,1.8,2,57,2,125.1S107.8,248.4,238.3,248.4s236.3-55.2,236.3-123.3S368.7,1.8,238.3,1.8"/><path class="bv" d="M238.3,1.8C107.8,1.8,2,57,2,125.1S107.8,248.3,238.2,248.3s236.2-55.2,236.2-123.2S368.7,1.8,238.3,1.8"/><path class="bw" d="M238.3,1.9C107.8,1.9,2.1,57,2.1,125.1S107.9,248.3,238.3,248.3s236.2-55.2,236.2-123.2S368.7,1.9,238.3,1.9"/><path class="bx" d="M238.3,1.9C107.8,1.9,2.1,57,2.1,125.1S107.8,248.3,238.3,248.3s236.2-55.2,236.2-123.2S368.7,1.9,238.3,1.9"/><path class="by" d="M238.3,1.9C107.9,1.9,2.1,57,2.1,125.1S107.8,248.3,238.2,248.3s236.2-55.2,236.2-123.2S368.7,1.9,238.3,1.9"/><path class="bz" d="M238.3,1.9C107.9,1.9,2.2,57.1,2.2,125.1S107.9,248.2,238.3,248.2s236.1-55.1,236.1-123.1S368.7,1.9,238.3,1.9"/><path class="ca" d="M238.3,2C107.9,2,2.2,57.1,2.2,125.1S107.9,248.2,238.3,248.2s236.1-55.1,236.1-123.1S368.7,2,238.3,2"/><path class="cb" d="M238.3,2C107.9,2,2.2,57.1,2.2,125.1S107.9,248.2,238.3,248.2s236.1-55.1,236.1-123.1S368.7,2,238.3,2"/><path class="cc" d="M238.3,2C107.9,2,2.2,57.1,2.2,125.1s105.7,123.1,236,123.1,236.1-55.1,236.1-123.1S368.7,2,238.3,2"/><path class="cd" d="M238.3,2C107.9,2,2.3,57.1,2.3,125.1s105.7,123,236,123,236-55.1,236-123S368.6,2,238.3,2"/><path class="ce" d="M238.3,2.1c-130.3,0-236,55.1-236,123s105.7,123,236,123,236-55.1,236-123-105.7-123-236-123"/><path class="cf" d="M238.3,2.1c-130.3,0-236,55.1-236,123s105.6,123,236,123,236-55.1,236-123-105.7-123-236-123"/><path class="cg" d="M238.3,2.1C108,2.1,2.4,57.2,2.4,125.1s105.6,123,235.9,123,236-55.1,236-123-105.7-123-236-123"/><path class="ch" d="M238.3,2.1C108,2.1,2.4,57.2,2.4,125.1S108,248,238.3,248s235.9-55.1,235.9-122.9S368.6,2.1,238.3,2.1"/><path class="ci" d="M238.3,2.2C108,2.2,2.4,57.2,2.4,125.1S108,248,238.3,248s235.9-55,235.9-122.9S368.6,2.2,238.3,2.2"/><path class="cj" d="M238.3,2.2C108,2.2,2.4,57.2,2.4,125.1S108,248,238.3,248s235.9-55,235.9-122.9S368.6,2.2,238.3,2.2"/><path class="ck" d="M238.3,2.2C108.1,2.2,2.5,57.2,2.5,125.1S108.1,248,238.3,248s235.9-55,235.9-122.9S368.6,2.2,238.3,2.2"/><path class="cl" d="M238.3,2.2C108.1,2.2,2.5,57.2,2.5,125.1S108.1,248,238.3,248s235.8-55,235.8-122.9S368.5,2.2,238.3,2.2"/><path class="cm" d="M238.3,2.3C108.1,2.3,2.5,57.2,2.5,125.1S108.1,247.9,238.3,247.9s235.8-55,235.8-122.8S368.5,2.3,238.3,2.3"/><path class="cn" d="M238.3,2.3C108.1,2.3,2.6,57.3,2.6,125.1S108.2,247.9,238.4,247.9s235.8-55,235.8-122.8S368.5,2.3,238.3,2.3"/><path class="co" d="M238.3,2.3C108.1,2.3,2.6,57.3,2.6,125.1S108.1,247.9,238.3,247.9s235.8-55,235.8-122.8S368.5,2.3,238.3,2.3"/><path class="cp" d="M238.3,2.3C108.2,2.3,2.6,57.3,2.6,125.1S108.1,247.9,238.3,247.9,474,192.9,474,125.1,368.5,2.3,238.3,2.3"/><path class="cq" d="M238.3,2.4C108.2,2.4,2.6,57.3,2.6,125.1S108.1,247.8,238.3,247.8,474,192.8,474,125.1,368.5,2.4,238.3,2.4"/><path class="cr" d="M238.3,2.4C108.2,2.4,2.7,57.3,2.7,125.1S108.2,247.8,238.4,247.8s235.7-54.9,235.7-122.7S368.5,2.4,238.3,2.4"/><path class="cs" d="M238.3,2.4C108.2,2.4,2.7,57.3,2.7,125.1S108.2,247.8,238.3,247.8s235.6-54.9,235.6-122.7S368.5,2.4,238.3,2.4"/><path class="ct" d="M238.3,2.4C108.2,2.4,2.7,57.4,2.7,125.1S108.2,247.8,238.3,247.8s235.6-54.9,235.6-122.7S368.4,2.4,238.3,2.4"/><path class="cu" d="M238.3,2.5C108.2,2.5,2.8,57.4,2.8,125.1S108.3,247.7,238.4,247.7,474,192.8,474,125.1,368.4,2.5,238.3,2.5"/><path class="cv" d="M238.3,2.5C108.3,2.5,2.8,57.4,2.8,125.1S108.3,247.7,238.4,247.7,474,192.8,474,125.1,368.4,2.5,238.3,2.5"/><path class="cw" d="M238.3,2.5C108.3,2.5,2.8,57.4,2.8,125.1S108.3,247.7,238.3,247.7s235.5-54.9,235.5-122.6S368.4,2.5,238.3,2.5"/><path class="cx" d="M238.3,2.5C108.3,2.5,2.8,57.4,2.8,125.1S108.2,247.7,238.3,247.7s235.5-54.9,235.5-122.6S368.4,2.5,238.3,2.5"/><path class="cy" d="M238.3,2.6C108.3,2.6,2.9,57.4,2.9,125.1S108.3,247.6,238.4,247.6s235.5-54.9,235.5-122.5S368.4,2.6,238.3,2.6"/><path class="cz" d="M238.3,2.6C108.3,2.6,2.9,57.4,2.9,125.1S108.3,247.6,238.3,247.6s235.5-54.9,235.5-122.5S368.4,2.6,238.3,2.6"/><path class="da" d="M238.3,2.6C108.3,2.6,2.9,57.4,2.9,125.1S108.3,247.6,238.3,247.6s235.4-54.8,235.4-122.5S368.4,2.6,238.3,2.6"/><path class="db" d="M238.3,2.6C108.4,2.6,3,57.5,3,125.1S108.4,247.6,238.4,247.6s235.4-54.8,235.4-122.5S368.4,2.6,238.3,2.6"/><path class="dc" d="M238.4,2.7C108.4,2.7,3,57.5,3,125.1S108.4,247.5,238.4,247.5s235.4-54.8,235.4-122.4S368.3,2.7,238.4,2.7"/><path class="dd" d="M238.4,2.7C108.4,2.7,3,57.5,3,125.1S108.4,247.5,238.3,247.5s235.4-54.8,235.4-122.4S368.3,2.7,238.4,2.7"/><path class="de" d="M238.4,2.7C108.4,2.7,3,57.5,3,125.1S108.4,247.5,238.3,247.5s235.3-54.8,235.3-122.4S368.3,2.7,238.4,2.7"/><path class="df" d="M238.4,2.7C108.4,2.7,3.1,57.5,3.1,125.1S108.4,247.5,238.4,247.5s235.3-54.8,235.3-122.4S368.3,2.7,238.4,2.7"/><path class="dg" d="M238.4,2.8C108.4,2.8,3.1,57.5,3.1,125.1S108.4,247.4,238.4,247.4s235.3-54.8,235.3-122.3S368.3,2.8,238.4,2.8"/><path class="dh" d="M238.4,2.8C108.5,2.8,3.1,57.5,3.1,125.1S108.4,247.4,238.3,247.4s235.3-54.8,235.3-122.3S368.3,2.8,238.4,2.8"/><path class="di" d="M238.4,2.8C108.5,2.8,3.2,57.6,3.2,125.1S108.5,247.4,238.4,247.4s235.2-54.8,235.2-122.3S368.3,2.8,238.4,2.8"/><path class="dj" d="M238.4,2.8C108.5,2.8,3.2,57.6,3.2,125.1S108.5,247.4,238.4,247.4s235.2-54.7,235.2-122.3S368.3,2.8,238.4,2.8"/><path class="dk" d="M238.4,2.9C108.5,2.9,3.2,57.6,3.2,125.1S108.5,247.3,238.4,247.3s235.2-54.7,235.2-122.2S368.2,2.9,238.4,2.9"/><path class="dl" d="M238.4,2.9C108.5,2.9,3.2,57.6,3.2,125.1S108.5,247.3,238.3,247.3s235.2-54.7,235.2-122.2S368.2,2.9,238.4,2.9"/><path class="dm" d="M238.4,2.9C108.5,2.9,3.3,57.6,3.3,125.1S108.6,247.3,238.4,247.3s235.1-54.7,235.1-122.2S368.2,2.9,238.4,2.9"/><path class="dn" d="M238.4,2.9C108.6,2.9,3.3,57.6,3.3,125.1S108.6,247.3,238.4,247.3s235.1-54.7,235.1-122.2S368.2,2.9,238.4,2.9"/><path class="do" d="M238.4,3C108.6,3,3.3,57.7,3.3,125.1S108.5,247.2,238.4,247.2s235.1-54.7,235.1-122.1S368.2,3,238.4,3"/><path class="dp" d="M238.4,3C108.6,3,3.3,57.7,3.3,125.1s105.2,122.1,235,122.1,235.1-54.7,235.1-122.1S368.2,3,238.4,3"/><path class="dq" d="M238.4,3C108.6,3,3.4,57.7,3.4,125.1s105.2,122.1,235,122.1,235-54.7,235-122.1S368.2,3,238.4,3"/><path class="dr" d="M238.4,3C108.6,3,3.4,57.7,3.4,125.1s105.2,122.1,235,122.1,235-54.7,235-122.1S368.2,3,238.4,3"/><path class="ds" d="M238.4,3.1c-129.8,0-235,54.6-235,122.1s105.2,122,235,122,235-54.7,235-122c0-67.5-105.2-122.1-235-122.1"/><path class="dt" d="M238.4,3.1C108.7,3.1,3.5,57.7,3.5,125.1s105.2,122,234.9,122,235-54.6,235-122-105.3-122-235-122"/><path class="du" d="M238.4,3.1C108.7,3.1,3.5,57.7,3.5,125.1s105.2,122,234.9,122,234.9-54.6,234.9-122S368.1,3.1,238.4,3.1"/><path class="dv" d="M238.4,3.1C108.7,3.1,3.5,57.8,3.5,125.1s105.2,122,234.9,122,234.9-54.6,234.9-122S368.1,3.1,238.4,3.1"/><path class="dw" d="M238.4,3.2C108.7,3.2,3.5,57.8,3.5,125.1S108.7,247,238.4,247s234.9-54.6,234.9-121.9S368.1,3.2,238.4,3.2"/><path class="dx" d="M238.4,3.2C108.7,3.2,3.6,57.8,3.6,125.1S108.7,247,238.4,247s234.8-54.6,234.8-121.9S368.1,3.2,238.4,3.2"/><path class="dy" d="M238.4,3.2C108.7,3.2,3.6,57.8,3.6,125.1S108.7,247,238.4,247s234.8-54.6,234.8-121.9S368.1,3.2,238.4,3.2"/><path class="dz" d="M238.4,3.2C108.8,3.2,3.6,57.8,3.6,125.1S108.8,247,238.4,247s234.8-54.6,234.8-121.9S368.1,3.2,238.4,3.2"/><path class="ea" d="M238.4,3.3C108.8,3.3,3.7,57.8,3.7,125.1S108.8,247,238.4,247s234.8-54.6,234.8-121.9S368.1,3.3,238.4,3.3"/><path class="eb" d="M238.4,3.3C108.8,3.3,3.7,57.8,3.7,125.1S108.8,247,238.4,247s234.7-54.6,234.7-121.8C473.2,57.8,368,3.3,238.4,3.3"/><path class="ec" d="M238.4,3.3C108.8,3.3,3.7,57.9,3.7,125.1S108.8,246.9,238.4,246.9s234.7-54.5,234.7-121.8S368,3.3,238.4,3.3"/><path class="ed" d="M238.4,3.4C108.8,3.4,3.7,57.9,3.7,125.1S108.8,246.9,238.4,246.9s234.7-54.5,234.7-121.8S368,3.4,238.4,3.4"/><path class="ee" d="M238.4,3.4C108.8,3.4,3.8,57.9,3.8,125.1S108.9,246.9,238.4,246.9s234.7-54.5,234.7-121.8S368,3.4,238.4,3.4"/><path class="ef" d="M238.4,3.4C108.9,3.4,3.8,57.9,3.8,125.1S108.9,246.8,238.4,246.8,473,192.3,473,125.1,368,3.4,238.4,3.4"/><path class="eg" d="M238.4,3.4C108.9,3.4,3.8,57.9,3.8,125.1s105,121.7,234.6,121.7S473,192.3,473,125.1,368,3.4,238.4,3.4"/><path class="eh" d="M238.4,3.5C108.9,3.5,3.9,57.9,3.9,125.1s105,121.7,234.6,121.7S473,192.3,473,125.1,368,3.5,238.4,3.5"/><path class="ei" d="M238.4,3.5C108.9,3.5,3.9,57.9,3.9,125.1s105,121.7,234.5,121.7S473,192.3,473,125.1,368,3.5,238.4,3.5"/><path class="ej" d="M238.4,3.5C108.9,3.5,3.9,58,3.9,125.1s105,121.6,234.5,121.6S473,192.3,473,125.1,368,3.5,238.4,3.5"/><path class="ek" d="M238.4,3.5C108.9,3.5,4,58,4,125.1S109,246.7,238.5,246.7,473,192.2,473,125.1,367.9,3.5,238.4,3.5"/><path class="ek" d="M238.4,3.6C109,3.6,4,58,4,125.1S109,246.7,238.5,246.7,473,192.3,473,125.1,367.9,3.6,238.4,3.6"/><path class="el" d="M238.4,3.6C109,3.6,4,58,4,125.1S109,246.7,238.4,246.7s234.5-54.4,234.5-121.6S367.9,3.6,238.4,3.6"/><path class="em" d="M238.5,3.6C109,3.6,4,58,4,125.1S109,246.6,238.4,246.6s234.4-54.4,234.4-121.5S367.9,3.6,238.5,3.6"/><path class="en" d="M238.5,3.6C109,3.6,4.1,58,4.1,125.1S109,246.6,238.5,246.6s234.4-54.4,234.4-121.5S367.9,3.6,238.5,3.6"/><path class="eo" d="M238.5,3.7C109,3.7,4.1,58,4.1,125.1S109,246.6,238.5,246.6s234.4-54.4,234.4-121.5S367.9,3.7,238.5,3.7"/><path class="ep" d="M238.5,3.7C109,3.7,4.1,58.1,4.1,125.1S109,246.6,238.4,246.6s234.4-54.4,234.4-121.5S367.9,3.7,238.5,3.7"/><path class="eq" d="M238.5,3.7C109.1,3.7,4.1,58.1,4.1,125.1S109,246.5,238.4,246.5s234.3-54.4,234.3-121.4S367.9,3.7,238.5,3.7"/><path class="er" d="M238.5,3.7C109.1,3.7,4.2,58.1,4.2,125.1S109.1,246.5,238.5,246.5s234.3-54.4,234.3-121.4S367.9,3.7,238.5,3.7"/><path class="es" d="M238.5,3.8C109.1,3.8,4.2,58.1,4.2,125.1S109.1,246.5,238.5,246.5s234.3-54.4,234.3-121.4S367.8,3.8,238.5,3.8"/><path class="et" d="M238.5,3.8C109.1,3.8,4.2,58.1,4.2,125.2S109.1,246.6,238.4,246.6s234.3-54.4,234.3-121.4S367.8,3.8,238.5,3.8"/><path class="eu" d="M238.5,3.8C109.1,3.8,4.3,58.1,4.3,125.1S109.2,246.4,238.5,246.4s234.2-54.3,234.2-121.3S367.8,3.8,238.5,3.8"/><path class="eu" d="M238.5,3.8C109.1,3.8,4.3,58.1,4.3,125.2S109.2,246.5,238.5,246.5s234.2-54.3,234.2-121.3S367.8,3.8,238.5,3.8"/><path class="ev" d="M238.5,3.9C109.2,3.9,4.3,58.2,4.3,125.2S109.1,246.5,238.5,246.5s234.2-54.3,234.2-121.3S367.8,3.9,238.5,3.9"/><path class="ew" d="M238.5,3.9C109.2,3.9,4.3,58.2,4.3,125.2S109.1,246.5,238.4,246.5s234.2-54.3,234.2-121.3S367.8,3.9,238.5,3.9"/><path class="ex" d="M238.5,3.9C109.2,3.9,4.4,58.2,4.4,125.2S109.2,246.4,238.5,246.4s234.1-54.3,234.1-121.2S367.8,3.9,238.5,3.9"/><path class="ey" d="M238.5,3.9C109.2,3.9,4.4,58.2,4.4,125.2S109.2,246.4,238.5,246.4s234.1-54.3,234.1-121.2S367.8,3.9,238.5,3.9"/><path class="ez" d="M238.5,4C109.2,4,4.4,58.2,4.4,125.2S109.2,246.4,238.5,246.4s234.1-54.3,234.1-121.2S367.7,4,238.5,4"/><path class="fa" d="M238.5,4C109.2,4,4.5,58.2,4.5,125.2s104.8,121.2,234,121.2,234-54.3,234-121.2S367.7,4,238.5,4"/><path class="fb" d="M238.5,4C109.3,4,4.5,58.2,4.5,125.2s104.8,121.1,234,121.1,234-54.2,234-121.1S367.7,4,238.5,4"/><path class="fc" d="M238.5,4C109.3,4,4.5,58.3,4.5,125.2s104.8,121.1,234,121.1,234-54.2,234-121.1S367.7,4,238.5,4"/><path class="fd" d="M238.5,4.1c-129.2,0-234,54.2-234,121.1s104.8,121.1,234,121.1,234-54.2,234-121.1S367.7,4.1,238.5,4.1"/><path class="fe" d="M238.5,4.1C109.3,4.1,4.6,58.3,4.6,125.2S109.3,246.3,238.5,246.3s233.9-54.2,233.9-121.1S367.7,4.1,238.5,4.1"/><path class="fe" d="M238.5,4.1C109.3,4.1,4.6,58.3,4.6,125.2s104.7,121,233.9,121,233.9-54.2,233.9-121S367.7,4.1,238.5,4.1"/><path class="ff" d="M238.5,4.1C109.3,4.1,4.6,58.3,4.6,125.2s104.7,121,233.9,121,233.9-54.2,233.9-121S367.7,4.1,238.5,4.1"/><path class="fg" d="M238.5,4.2C109.4,4.2,4.7,58.3,4.7,125.2s104.7,121,233.8,121,233.9-54.2,233.9-121S367.7,4.2,238.5,4.2"/><path class="fh" d="M238.5,4.2C109.4,4.2,4.7,58.3,4.7,125.2s104.7,121,233.8,121,233.8-54.2,233.8-121S367.6,4.2,238.5,4.2"/><path class="fi" d="M238.5,4.2C109.4,4.2,4.7,58.4,4.7,125.2s104.7,121,233.8,121,233.8-54.2,233.8-121S367.6,4.2,238.5,4.2"/><path class="fj" d="M238.5,4.2C109.4,4.2,4.7,58.4,4.7,125.2S109.4,246.1,238.5,246.1s233.8-54.2,233.8-120.9S367.6,4.2,238.5,4.2"/><path class="fk" d="M238.5,4.3C109.4,4.3,4.8,58.4,4.8,125.2S109.5,246.1,238.5,246.1,472.3,192,472.3,125.2,367.6,4.3,238.5,4.3"/><path class="fl" d="M238.5,4.3C109.4,4.3,4.8,58.4,4.8,125.2S109.4,246,238.5,246s233.7-54.1,233.7-120.9S367.6,4.3,238.5,4.3"/><path class="fm" d="M238.5,4.3C109.5,4.3,4.8,58.4,4.8,125.2S109.5,246,238.5,246s233.7-54.1,233.7-120.9S367.6,4.3,238.5,4.3"/><path class="fn" d="M238.5,4.3C109.5,4.3,4.9,58.4,4.9,125.2S109.5,246,238.5,246s233.7-54.1,233.7-120.8S367.6,4.3,238.5,4.3"/><path class="fo" d="M238.5,4.4c-129,0-233.6,54-233.6,120.8S109.5,246,238.5,246s233.7-54.1,233.7-120.8S367.6,4.4,238.5,4.4"/><path class="fo" d="M238.5,4.4C109.5,4.4,4.9,58.5,4.9,125.2S109.5,246,238.5,246s233.6-54.1,233.6-120.8S367.5,4.4,238.5,4.4"/><path class="fp" d="M238.5,4.4C109.5,4.4,4.9,58.5,4.9,125.2S109.5,246,238.5,246s233.6-54.1,233.6-120.8S367.5,4.4,238.5,4.4"/><path class="fq" d="M238.5,4.4C109.5,4.4,5,58.5,5,125.2S109.6,245.9,238.6,245.9s233.6-54.1,233.6-120.7S367.5,4.4,238.5,4.4"/><path class="fq" d="M238.5,4.5C109.6,4.5,5,58.5,5,125.2S109.6,245.9,238.5,245.9s233.6-54.1,233.6-120.7S367.5,4.5,238.5,4.5"/><path class="fr" d="M238.5,4.5C109.6,4.5,5,58.5,5,125.2S109.6,245.9,238.5,245.9,472,191.9,472,125.2,367.5,4.5,238.5,4.5"/><path class="fs" d="M238.5,4.5C109.6,4.5,5.1,58.5,5.1,125.2S109.6,245.9,238.6,245.9s233.5-54,233.5-120.7S367.5,4.5,238.5,4.5"/><path class="ft" d="M238.5,4.5C109.6,4.5,5.1,58.5,5.1,125.2S109.6,245.8,238.6,245.8s233.5-54,233.5-120.6S367.5,4.5,238.5,4.5"/><g class="fu"><polygon class="fv" points="385.1 -165.4 555.1 199 91.1 415.4 -78.9 51 385.1 -165.4"/></g><path class="fw" d="M238.1,23.6C119.7,23.6,23.7,69.5,23.7,126s96,102.4,214.4,102.4S452.5,182.5,452.5,126,356.5,23.6,238.1,23.6"/><path class="fx" d="M238.1,17.6C116.5,17.6,18,65.8,18,125.2s98.6,107.5,220.1,107.5,220.2-48.2,220.2-107.5S359.7,17.6,238.1,17.6"/><g class="fy"><polygon class="fz" points="365.4 62.5 384.3 102.9 336.2 125.3 317.4 84.9 365.4 62.5"/></g><g class="ga"><polygon class="gb" points="140.8 42.2 170.3 105.4 115.1 131.2 85.6 67.9 140.8 42.2"/></g><g class="gc"><polygon class="gd" points="259.9 32.3 294 105.4 217.4 141.1 183.3 68 259.9 32.3"/></g><g class="ge"><polygon class="gf" points="318.5 31.1 353.6 106.4 274.1 143.5 239 68.2 318.5 31.1"/></g><g class="gg"><polygon class="gh" points="120.2 117.5 139 157.9 91 180.3 72.2 139.9 120.2 117.5"/></g><g class="gi"><polygon class="gj" points="180.3 104.1 214.1 176.6 139 211.7 105.1 139.1 180.3 104.1"/></g><g class="gk"><polygon class="gl" points="383.9 104.1 417.8 176.9 342.3 212.1 308.4 139.3 383.9 104.1"/></g><g class="gm"><polygon class="gn" points="232.2 105.8 265.7 177.6 196.3 209.9 162.8 138.1 232.2 105.8"/></g><g class="go"><polygon class="gp" points="295.3 106.3 328.2 176.9 257.5 209.8 224.6 139.3 295.3 106.3"/></g><g class="gq"><polygon class="gr" points="333.2 107 365.7 176.9 296.5 209.2 263.9 139.3 333.2 107"/></g><g class="gs"><polygon class="gt" points="193.6 35.8 226.1 105.5 157.2 137.6 124.7 67.9 193.6 35.8"/></g><polygon class="gu" points="370.2 76.2 334.2 76.2 329.8 89.3 353.1 89.3 326.5 99 324.8 104.3 365.6 90.2 370.2 76.2"/><path class="gu" d="M144.6,98.2l-4.9,14h-35s.8-.3,2-2.7S124,59.9,124,59.9s2.2-4.9-.3-6.2H144s-1.2-.3-3.1,4.7c-1.1,2.9-14.7,40.7-14.7,40.7h14.6c0,.1,3.3.5,3.8-.9"/><path class="gu" d="M202.3,112.1h16.5a4.66,4.66,0,0,1-.4-3.7c1-2.7,9.7-27.6,9.7-27.6l3.8,31.3h15l19.6-55.6s.8-2.6,1.9-2.6H252.5a6.29,6.29,0,0,1-.1,3.4c-.6,1.5-9.6,26.7-9.6,26.7l-3.5-30.1H222.2a3.9,3.9,0,0,1,.3,3.1c-.5,1.3-18.1,51.9-18.1,51.9s-1.2,3.2-2.1,3.2"/><path class="gu" d="M296.5,53.9H277.7s1.4,2.4-.4,7.8-16.2,46-16.2,46-1.1,3.8-2.7,4.5H281s27.4,1.1,35.8-29c0,.1,10.8-29.6-20.3-29.3m2,31.9c-4.8,12.2-11.9,13.1-15.7,13.1h-2.6l11-32.4h4.2s10.9-.7,3.1,19.3"/><polygon class="gu" points="79.5 159.3 115.5 159.3 119.9 146.2 96.6 146.2 123.2 136.5 124.9 131.2 84 145.3 79.5 159.3"/><path class="gu" d="M181.9,147c6.8-22.6-16-22-16-22H142.6c1.7,2,.4,6.1.4,6.1s-14.5,43.3-15.6,46.7a18.54,18.54,0,0,1-3.2,5.7h18.4c-.6,0-.6-1.9-.6-1.9l6.6-18.3s8.2,16.9,8.8,18.1a3.22,3.22,0,0,1,.3,2.2h19.7c-1.9,0-3.8-3.7-3.8-3.7l-9.8-18.4c13.7-.3,18.1-14.5,18.1-14.5m-16-2c-2.6,5.8-9.5,5.1-9.5,5.1h-3.6l3.8-11.7h3.9c8.4,0,5.4,6.6,5.4,6.6"/><path class="gu" d="M385.5,147.8c7.2-23.7-15.8-22.6-15.8-22.6H346.6c1.7,2,.4,6.1.4,6.1s-15.1,43.5-16.2,46.8a15.5,15.5,0,0,1-3.3,5.5h19.2c-1.4,0-.4-3.6-.4-3.6l5.9-16.7s7.9,16.9,8.5,18.1a3.22,3.22,0,0,1,.3,2.2h20.4c-1.9,0-4-3.7-4-3.7l-9.8-18.4c13.7,0,17.9-13.7,17.9-13.7m-16.4-2.5c-2.1,5.6-9,5.1-9,5.1h-3.6l3.8-11.6h5.1s6.2-.2,3.7,6.5"/><path class="gu" d="M218.5,123.5c-18,0-29.8,14.3-32.8,32-2.8,16.3,6,29.4,20.6,29.4,20.3,0,32.5-20.9,32.5-35.9,0-15.7-6.2-25.5-20.3-25.5m2.7,32.5c-2.9,12.2-8.5,16-13.6,15-6.9-1.3-5.7-12.5-4.6-17.7,2.4-11.3,8.5-16.7,13-16.2,1.5.3,9.6.4,5.2,18.9"/><path class="gu" d="M243.6,125.2s1.4.8,1.4,4.5v50.6s-.2,2.8-1.2,3.4H259a6.13,6.13,0,0,1,1.5-3.2c1.5-2,32.9-46,32.9-46s7.1-9.2,9-9.2H280.7a2.34,2.34,0,0,1,.4,3.3c-1.3,2.2-20.6,32.3-20.6,32.3l.2-30.4s0-4.9,1.8-5.3H243.6"/><path class="gu" d="M335.1,139l4.9-13.8H303.3s1.3,1.2-.4,6.1-16.6,46.8-16.6,46.8-2.7,5.5-3.4,5.5h37.8l4.5-14s-.6.8-4.1.8h-16l3.4-9.4H321s2.6-.2,3.2.6l5.1-14.9s-.4,1.4-3.8,1.4h-12l3.6-10.4h15.2a2.44,2.44,0,0,1,2.8,1.3"/><path class="gu" d="M200.4,112.2a4.24,4.24,0,0,1-1.6-3.1l-2.3-51.3s-.1-3.3,1.4-4H180s1.3,1.6-1.1,5.3-33,51.1-33,51.1a4.65,4.65,0,0,1-2.1,1.9h18.1a5.28,5.28,0,0,1,.4-2.4c.9-1.7,3.1-5.8,3.1-5.8h18.2V109a4.43,4.43,0,0,1-1.2,3.1C182.3,112.2,200.4,112.2,200.4,112.2ZM173.1,90.8l10-17.1.1,17.1Z"/></svg>