<?xml version="1.0" encoding="utf-8"?>
<!-- Generator: Adobe Illustrator 26.0.2, SVG Export Plug-In . SVG Version: 6.00 Build 0)  -->
<svg version="1.1" id="Layer_2" xmlns="http://www.w3.org/2000/svg" xmlns:xlink="http://www.w3.org/1999/xlink" x="0px" y="0px"
	 viewBox="0 0 476.2 317.5" style="enable-background:new 0 0 476.2 317.5;" xml:space="preserve">
<style type="text/css">
	.st0{fill:#404041;}
</style>
<path class="st0" d="M142.6,114.9H159l7.1-12.5h17l0.2,12.5h14.9L195,58.4h-22.3l-0.5,1.5l0.7,0.7c1.2,1.1,0.7,2.8-3.6,9.7
	L142.6,114.9z M182.1,74h0.5l0.3,17.1h-10.4L182.1,74z M369.8,78.7h-37.6l-4.9,13.5h26.1l-29.6,10l-1.8,4.8l42.7-14L369.8,78.7z
	 M275.8,65.7L259,114.9h24.9c10.7,0,16.8-2.4,21.7-7.7c6.2-6.6,11.9-23.6,11.7-33c-0.2-9.6-6.4-15.8-19.4-15.8h-22.6l-0.5,1.5l1,1
	C276.8,61.9,276.8,63.1,275.8,65.7 M289.4,71.8h6.2c4.2,0,6.5,1.4,6.6,4.7c0,2.1-0.5,5-2.7,11.2c-1.9,5.5-3.5,8.8-5.7,11.1
	c-1.8,1.9-4.1,2.7-9.5,2.7h-5.2L289.4,71.8z M201.7,114.9h14.2l12.4-36.6l7.2,36.6h14.2L269,58.4l-14.8,0l-10.3,30.7l-5.9-30.7h-20
	l-0.5,1.5l1,1c1,1,1,2.2,0.1,4.9L201.7,114.9z M100,114.9l38.6,0l4.7-13.5h-22.4l14.8-43h-19.3l-0.5,1.5l1,1c1.1,1,1,2.2,0.1,4.9
	L100,114.9z M212.4,126.5h-1.8c-10.7,0-16.7,2.9-21.7,8.2c-6.2,6.6-12,24.3-11.9,33.7c0.1,9.6,6.3,16.2,19.3,16.2h1.9
	c10.7,0,16.8-2.9,21.8-8.2c6.2-6.6,11.9-24.3,11.8-33.7C231.6,133.1,225.4,126.5,212.4,126.5 M213.3,156.4
	c-1.9,5.6-3.5,9.1-5.7,11.5c-1.8,1.9-4.1,3.2-9.5,3.2c-4.2,0-6.6-1.7-6.6-5c0-2.1,0.5-5.3,2.8-11.5c1.9-5.6,3.5-9.1,5.7-11.5
	c1.7-1.8,4.1-3.2,9.5-3.2c4.2,0,6.5,1.7,6.5,5C216.1,147,215.5,150.2,213.3,156.4 M394.9,53.9c-46.8-24.2-105-33.4-157.2-33.4
	c-52.2,0-110.5,9.3-157.2,33.4C54.1,67.5,20.8,92,20.8,125c0,33,33.4,57.5,59.6,71.1c46.8,24.2,105,33.4,157.2,33.4
	c52.2,0,110.5-9.3,157.2-33.4c26.3-13.6,59.6-38.1,59.6-71.1C454.5,92,421.2,67.5,394.9,53.9 M392.5,191.4
	c-46.1,23.8-103.4,32.8-154.9,32.8c-51.5,0-108.8-9-154.9-32.8C58.4,178.8,26,155.6,26,125c0-30.6,32.4-53.8,56.8-66.4
	c46.1-23.8,103.4-32.8,154.9-32.8c51.5,0,108.8,9,154.9,32.8c24.4,12.6,56.8,35.8,56.8,66.4C449.3,155.6,416.9,178.8,392.5,191.4
	 M404.3,35.7C359.7,12.7,300.5,0,237.6,0C174.8,0,115.6,12.7,71,35.7C44.6,49.4,0.3,79.1,0.3,125c0,45.9,44.3,75.6,70.7,89.3
	c44.6,23,103.8,35.7,166.6,35.7s122.1-12.7,166.6-35.7c26.4-13.6,70.7-43.4,70.7-89.3C475,79.1,430.7,49.4,404.3,35.7 M398.5,203
	c-42.8,22.1-99.9,34.3-160.9,34.3c-60.9,0-118-12.2-160.8-34.3c-41.2-21.3-63.9-49-63.9-78c0-29.1,22.7-56.8,63.9-78.1
	c42.8-22.1,99.9-34.3,160.8-34.3c60.9,0,118,12.2,160.9,34.3c41.2,21.3,63.9,49,63.9,78.1C462.4,154,439.7,181.8,398.5,203
	 M366.5,127.2h-24.4l-0.5,1.5l1,1c1,1,1,2.2,0.1,4.9l-17.1,49.2h15.6l6.7-19.5h5.3l5.9,19.5h15.6l-7.3-20c4.3-0.7,6.4-1.9,8.5-3.8
	c2.9-2.7,5-6.5,6.7-12c2.5-8.1,1-12.7-0.6-15C379.8,129.6,375.2,127.2,366.5,127.2 M367.9,147.7c-1,2.4-2.1,3-3.4,3.6
	c-1,0.4-2.9,0.5-4.9,0.5h-7.4l4-11.7h9c2.7,0,3.8,1.4,3.8,3C369,144.1,368.5,146,367.9,147.7 M158.7,127.2h-24.4l-0.5,1.5l1,1
	c1,1,1,2.2,0.1,4.9l-17.1,49.2h15.6l6.7-19.5l5.3,0l5.9,19.5h15.7l-7.4-20c4.3-0.7,6.4-1.9,8.6-3.8c2.9-2.7,5-6.5,6.7-12
	c2.5-8.1,1-12.7-0.6-15C172,129.6,167.4,127.2,158.7,127.2 M160.1,147.7c-1,2.4-2,3-3.4,3.6c-0.9,0.4-2.9,0.5-4.9,0.5h-7.4l4.1-11.7
	h9c2.7,0,3.8,1.4,3.8,3C161.2,144.1,160.7,146,160.1,147.7 M119.7,134.5l-42.7,14l-5.2,14.3h37.6l4.9-13.5H88.2l29.6-10L119.7,134.5
	z M274.9,127.2l-20.7,40.6h-0.4l-1-40.6h-17.3l-0.7,1.5l1.5,0.9c1.4,1,1.8,2,2,4.9l2.3,49.3h19.3l31.1-56.5H274.9z M322.3,161
	l4.3-11.8h-19.9l3.1-9h21.5l4.7-13h-40.6l-0.6,1.7l1,1c1,1,1,2.2,0.1,4.9L279,183.7h38l4.6-13.1h-22.2l3.3-9.5H322.3z"/>
</svg>
