<svg xmlns="http://www.w3.org/2000/svg" viewBox="0 0 430.3 286.87"><path d="M3.1,216.6c6.6-7.3,6.9-8.9,7.3-38.3l.4-25.7,4.9.3,4.9.3.3,21.1c.2,13.2-.1,23.1-.7,26.3-2,10.6-8.3,17.4-18.4,19.8C-.8,220.9-.8,220.9,3.1,216.6Zm157.8-8.3c-12.5-2.1-18.1-4.6-22.8-10-6.3-7.4-7.4-19-2.6-28.6,5.4-11.1,17.1-17.2,32.6-17.1,7.3,0,10.6.6,15.5,2.5,2.9,1.1,3.2,1.6,3.2,4.2,0,1.6-.2,2.9-.5,2.9a45.22,45.22,0,0,1-5-2.3c-6.1-3.1-16.9-3.8-22.8-1.6-5.4,2.1-11,7.4-12.9,12.4-2.3,6-2.1,15.8.5,21.1,2.4,4.9,7.5,9.5,12.1,10.9,4.1,1.2,14.7,1.3,17.8.2,2.2-.8,2.2-.9,2.2-10.8v-10l5,.3,5,.3v22.4l-5.4,1.5c-5.5,1.2-18,2.3-21.9,1.7Zm79-.4c-10-1.8-14.9-5.2-17.3-12-1-3-1.3-8-1.3-23.6V152.5l5,.3,5,.3.4,20.7c.5,23.6.9,25,7.1,28.1,4.9,2.5,17.5,2.2,21.1-.6,6.4-4.8,7.1-7.9,7.2-31.7V152.5l2.8.3,2.8.3v20.3c0,19.1-.1,20.5-1.9,23.7a19,19,0,0,1-10.5,9.4c-4.6,1.7-14.9,2.4-20.4,1.4ZM64.8,180l13.6-27h3c3.3,0,2.6-1.3,21.3,37.3l8,16.6H98.6l-3.4-7.3-3.4-7.4H65l-3.6,7.3c-3.6,7.3-3.7,7.3-6.9,7.3H51.2Zm20-3.4c-2.8-6.3-5.4-11.7-5.8-12s-3.2,4.8-6.3,11.4l-5.8,12h23Zm212.5,30c0-.2,6-12.5,13.4-27.2l13.4-26.8,3.1.3,3.1.3,12.8,26.3c7,14.5,12.8,26.6,12.9,27s-2.6.6-5.9.6h-5.9l-3.1-7.1-3.1-7.1-13.8-.2-13.7-.3-3.4,7.4c-3.4,7.3-3.4,7.4-6.6,7.4-1.7-.2-3.2-.4-3.2-.6Zm38-19c0-.2-2.4-5.7-5.4-12.2l-5.4-11.7-3,5.9c-1.6,3.2-4.3,8.7-5.9,12.2l-2.9,6.3h11.2c6.4-.1,11.4-.3,11.4-.5Zm47.7-7.5.2-27,8.6-.3c16.7-.5,27.6,2.1,31.7,7.7,4.6,6.2,3.2,15.7-3,21-2,1.7-4.1,3.1-4.7,3.1s-1.1.3-1.1.6,3.5,5.4,7.8,11.3l7.8,10.6-6.2-.2-6.2-.2L411,196.6l-7-10.1H393.1V207H382.7Zm26.7.5c7.6-4.4,8-17.1.6-21.5-1.9-1.1-5-1.8-9.9-2l-7.1-.4V183l6.8-.4c4.4-.2,7.6-.9,9.6-2Zm-61.8-42.1a30.47,30.47,0,0,1-5.6-2.4c-2-1.1-1.7-1.3,5.1-1.7,6.5-.4,7.4-.7,9.3-2.9,3.7-4.3,2-8.3-4.9-11.2-5.2-2.2-1.2-1.6,7.4,1.2,10.2,3.3,17.6,3.2,26.3-.3,6.5-2.6,4.6-.7-2.6,2.6-3.5,1.6-6.6,2.3-11.7,2.6l-6.9.4.3,2.8c.3,2.3-.2,3.5-2.6,6s-3.7,3.2-6.8,3.5a16.28,16.28,0,0,1-7.3-.6Zm-25-14c-10.8-6-13.5-6.6-32-7.3s-23-1.8-32.6-7.9c-6.7-4.3-15.7-13.5-19.7-20.1-7.1-11.7-10.2-12.9-31.1-12-16,.7-30.8-.6-40.5-3.4l-7-2L155.5,74c-3.9,1.9-5.6,2.2-12.3,2.2-6.5,0-9-.5-15.1-2.7-19-7-20-7.2-24-7-3.8.2-4.1.4-4.3,2.8-.3,3.1-1.9,5.1-1.9,2.4a4.56,4.56,0,0,0-1.3-2.9c-1.9-1.6-1.2-4.5,1.3-5.8,3.2-1.7,12-.8,21.6,2.3,11.4,3.6,15.9,4.6,22.6,4.6s10.4-1.7,12.8-5.7c2.1-3.4,2.2-10.2.4-17-.7-2.6-1.3-4.8-1.3-4.9s3.2,1.5,7.1,3.6a135.16,135.16,0,0,0,14,6.2l6.9,2.4-5.8.2a41.9,41.9,0,0,1-10.6-1c-4.5-1.2-4.8-1.2-4.2.2a28.4,28.4,0,0,1,1,6.4c.4,5,.4,5,4.4,7,12.7,6.3,19.4,7.4,44.6,7.2l19.1-.2,3.4,2.3c2.7,1.8,4.2,3.9,7.1,9.8,6,12.3,16.2,21,28,23.7,2,.5,9.3.9,16.2.9,20.1.1,30.2,3.2,40.1,12.4,2.9,2.6,5,4.8,4.8,4.8a70,70,0,0,1-7.2-3.7Zm13.6-11.2c-5.8-3.5-10.1-7.3-12.5-11.3-2.2-3.6-4.7-4.4-15.1-5.4-8.9-.8-16.5-3.2-18.7-6-1-1.2-.9-1.3.5-.8,4,1.5,9.5,2.4,19.3,3.1,12.5.9,14.8,2,19.7,9.4a72.4,72.4,0,0,0,7.9,9.5,36.43,36.43,0,0,1,4.3,4.5A49.9,49.9,0,0,1,336.5,113.3Zm27.3,1.3c-5.9-1.8-23.9-10.9-39.3-19.9-26.4-15.5-70.1-38.2-69.4-36.2.2.5,5.3,6.2,11.4,12.6S277.3,82.8,277,82.8c-1.2,0-10.8-7.6-16.9-13.4-7.9-7.5-12.8-10.9-21.4-14.9-5.9-2.8-7.4-3.1-14.1-3.2-8.5-.1-8.1-.9,1.1-2.2a38.19,38.19,0,0,0,6.6-1.2c.7-.7-48.1-18.3-64.5-23.4-11-3.4-21.5-6-22.1-5.4-.2.2.4,2.1,1.3,4.2a16.37,16.37,0,0,1,1.4,4.1c-.1.2-2.1-1.2-4.3-3.1-8.3-7.3-24.3-13.8-39.8-16C95.7,7,92.2,7.6,87.8,10.9L85,12.8,91.3,19c8.2,8.1,10.3,11.8,3.9,6.7a46.55,46.55,0,0,0-18.3-9.2c-5.3-1.4-9.3-3.3-9.3-4.5,0-.4,2-.5,4.5-.4,3.6.2,5.5-.2,9.2-2.2,8.3-4.3,7.3-4.9-8.7-4.4-11.2.5-15.2,1-19.8,2.5-6.1,2-10.6,4.9-9.7,6.3.3.5,1.5-.1,2.9-1.4,2.5-2.4,7.1-3,9.6-1.3,2,1.3-3.9,6.3-9.6,8.2-9.5,3-12.9,7.7-7.5,10.7,3.1,1.7,4.5.9,8.7-5.4,4.8-7.2,7.8-8.1,12.5-3.8s2.6,12.5-4.6,18.5c-4.2,3.6-4.5,4.2-2.1,5s4.8-.8,7.7-5.1c2-2.9,3.3-3.9,5.8-4.4,4.7-.9,8.1-4.7,8.1-9.1a16,16,0,0,0-.9-5.3c-.9-1.7-.8-1.7,1.8-.3a17.67,17.67,0,0,1,5.3,5.6c2.4,3.8,3.1,4.3,8.4,6a42.07,42.07,0,0,1,9.6,4.5c4.4,3.1,11.2,9.4,11.2,10.4,0,.4-2.1-.7-4.7-2.3C87.1,32.7,74,32.8,60.1,44.8c-6.5,5.7-11.6,3.7-11.2-4.4.2-4.2.2-4.4,2.5-3.9,1.8.4,2.7,0,4.1-1.8,2.1-2.6,2.3-4.8.8-7.5-2.1-4-5.3-4.3-7.3-.5a8.73,8.73,0,0,0-.8,5.7c.6,3,.5,3-1.9,2.5-1.3-.3-4-.9-5.9-1.3-3.9-.8-9.1-6-9.1-9.1,0-1.2,1.6-3.4,4.2-5.8,2.3-2.2,4.5-4.9,4.8-6.2C42.2,5,64.2-1,85.8.1c16.7.9,29.1,3,51.4,8.7,35.9,9.3,77.2,26,133.4,54.1,23.3,11.7,35.7,18.3,64.1,34.8,5.6,3.2,14.1,7.6,19,9.8,7.7,3.4,9.8,4,16.2,4.3l7.3.4,7.5-4c5.7-3,8.1-3.8,9.8-3.4,3.1.8,4.4,3.9,3,7-1.1,2.3-1.1,2.4-1.8.5-1.2-3.2-4.3-3.2-11.1-.3s-15.6,4.1-20.8,2.6ZM42.6,16.5c0-.2-.3-.3-.7-.3-1.1,0-7.9,6.1-7.9,7,0,.5,1.9-.8,4.3-2.8A39.82,39.82,0,0,0,42.6,16.5ZM50.9,14c1.6-1.2,1.6-1.3-.8-1.1-1.4.1-2.7.7-2.9,1.3C46.6,15.8,48.8,15.6,50.9,14Zm33,62c-4.7-4.9-3.8-11.8,2.2-17.9,4.3-4.3,10.5-6.4,21.6-7.2l7.2-.5-1.2-3.5c-1.3-3.8-.4-10.2,2-13.3,1.1-1.4,1.2-1.2,1.2,2.5,0,4.4,1.8,9.5,4.2,12.1,2,2.2,8.9,5.7,16.2,8s6.3,2.5-5.7.8c-16.5-2.3-26.5-2.6-32.7-1C89.9,58.5,85,63.4,85,70a6.83,6.83,0,0,0,6.8,6.6c1.8,0,2,.2,1,.8A7.07,7.07,0,0,1,83.9,76ZM68.4,9.3c-1.8-1.1-.8-1.4,6.6-1.9,6.1-.4,6.6-.3,4.3.6C75.8,9.5,69.9,10.1,68.4,9.3Z"/></svg>