<svg id="Слой_1" data-name="Слой 1" xmlns="http://www.w3.org/2000/svg" xmlns:xlink="http://www.w3.org/1999/xlink" viewBox="0 0 595.28 136.77"><defs><style>.cls-1{fill:#010101;}.cls-2,.cls-3{fill:#808285;}.cls-3,.cls-4,.cls-5,.cls-6,.cls-7,.cls-8{fill-rule:evenodd;}.cls-4{fill:url(#Безымянный_градиент_33);}.cls-5{fill:url(#Безымянный_градиент_33-3);}.cls-6{fill:url(#Безымянный_градиент_33-4);}.cls-7{fill:url(#Безымянный_градиент_33-5);}.cls-8{fill:url(#Безымянный_градиент_33-6);}.cls-9{fill:url(#Безымянный_градиент_33-7);}</style><linearGradient id="Безымянный_градиент_33" x1="176.91" y1="12.3" x2="176.91" y2="74.76" gradientUnits="userSpaceOnUse"><stop offset="0" stop-color="#e2b69e"/><stop offset="1" stop-color="#c28a6d"/></linearGradient><linearGradient id="Безымянный_градиент_33-3" x1="55.98" y1="11.71" x2="55.98" y2="75.46" xlink:href="#Безымянный_градиент_33"/><linearGradient id="Безымянный_градиент_33-4" x1="297.84" y1="11.77" x2="297.84" y2="75.52" xlink:href="#Безымянный_градиент_33"/><linearGradient id="Безымянный_градиент_33-5" x1="418.76" y1="11.82" x2="418.76" y2="75.57" xlink:href="#Безымянный_градиент_33"/><linearGradient id="Безымянный_градиент_33-6" x1="539.69" y1="11.62" x2="539.69" y2="75.89" xlink:href="#Безымянный_градиент_33"/><linearGradient id="Безымянный_градиент_33-7" x1="238.03" y1="107.29" x2="238.03" y2="130.39" xlink:href="#Безымянный_градиент_33"/></defs><path class="cls-1" d="M44.43,123v2.17c0,3.6-1.65,5.22-5.21,5.22h-28v-23.1H38.56c3.56,0,5.21,1.62,5.21,5.22v1.68c0,2.28-.76,3.73-2.27,4.29C43.44,119,44.43,120.48,44.43,123ZM18.9,112.63v3.82H34.67c1.09,0,1.45-.36,1.45-1.45v-.92c0-1.09-.36-1.45-1.45-1.45Zm17.88,9.59c0-1.08-.36-1.45-1.45-1.45H18.9v4.33H35.33c1.09,0,1.45-.37,1.45-1.46Z"/><path class="cls-1" d="M56.91,130.41c-4.52,0-6.66-2.08-6.66-6.67V114c0-4.59,2.14-6.67,6.66-6.67H78.09c4.52,0,6.66,2.08,6.66,6.67v9.76c0,4.59-2.14,6.67-6.66,6.67Zm18.08-6c1.55,0,2.11-.53,2.11-2.11v-6.8c0-1.58-.56-2.11-2.11-2.11H60c-1.58,0-2.11.53-2.11,2.11v6.8c0,1.58.53,2.11,2.11,2.11Z"/><path class="cls-1" d="M124.78,130.41h-9.34L109.11,123H98.58v7.43H90.93v-23.1h26.85c4.23,0,6,1.79,6,6v3.13c0,4.22-1.75,6-5.94,6Zm-26.2-17.85v5.34h15.77c1.36,0,1.78-.42,1.78-1.78v-1.78c0-1.35-.42-1.78-1.78-1.78Z"/><path class="cls-1" d="M156.72,107.31h7.39v23.1h-6.27l-20.52-15v15h-7.39v-23.1h6.57l20.22,14.75Z"/><path class="cls-1" d="M213.8,113.22H191.43v3.89h21v5.35h-21v8h-7.65v-23.1h30Z"/><path class="cls-1" d="M225.49,130.41c-4.52,0-6.67-2.08-6.67-6.67V114c0-4.59,2.15-6.67,6.67-6.67h21.18c4.51,0,6.66,2.08,6.66,6.67v9.76c0,4.59-2.15,6.67-6.66,6.67Zm18.07-6c1.55,0,2.12-.53,2.12-2.11v-6.8c0-1.58-.57-2.11-2.12-2.11h-15c-1.59,0-2.11.53-2.11,2.11v6.8c0,1.58.52,2.11,2.11,2.11Z"/><path class="cls-1" d="M293.35,130.41H284L277.68,123H267.16v7.43h-7.65v-23.1h26.85c4.22,0,6,1.79,6,6v3.13c0,4.22-1.74,6-5.93,6Zm-26.19-17.85v5.34h15.77c1.35,0,1.78-.42,1.78-1.78v-1.78c0-1.35-.43-1.78-1.78-1.78Z"/><path class="cls-1" d="M343.34,107.31h6.5v23.1h-7.39V116.85l-9.6,10h-4.16l-9.6-10v13.56h-7.38v-23.1h6.79l12.41,12.87Z"/><path class="cls-1" d="M362.72,130.41c-4.52,0-6.67-2.08-6.67-6.67V114c0-4.59,2.15-6.67,6.67-6.67H383.9c4.52,0,6.66,2.08,6.66,6.67v9.76c0,4.59-2.14,6.67-6.66,6.67Zm18.07-6c1.55,0,2.12-.53,2.12-2.11v-6.8c0-1.58-.57-2.11-2.12-2.11h-15c-1.59,0-2.11.53-2.11,2.11v6.8c0,1.58.52,2.11,2.11,2.11Z"/><path class="cls-1" d="M430.58,130.41h-9.33L414.91,123H404.39v7.43h-7.65v-23.1h26.85c4.22,0,6,1.79,6,6v3.13c0,4.22-1.74,6-5.93,6Zm-26.19-17.85v5.34h15.77c1.35,0,1.78-.42,1.78-1.78v-1.78c0-1.35-.43-1.78-1.78-1.78Z"/><path class="cls-1" d="M443.39,124.8h23v5.61H435.74v-23.1h30.35v5.61h-22.7v3.33h21.38V121H443.39Z"/><path class="cls-2" d="M44.43,123v2.17c0,3.6-1.65,5.22-5.21,5.22h-28v-23.1H38.56c3.56,0,5.21,1.62,5.21,5.22v1.68c0,2.28-.76,3.73-2.27,4.29C43.44,119,44.43,120.48,44.43,123ZM18.9,112.63v3.82H34.67c1.09,0,1.45-.36,1.45-1.45v-.92c0-1.09-.36-1.45-1.45-1.45Zm17.88,9.59c0-1.08-.36-1.45-1.45-1.45H18.9v4.33H35.33c1.09,0,1.45-.37,1.45-1.46Z"/><path class="cls-2" d="M56.91,130.41c-4.52,0-6.66-2.08-6.66-6.67V114c0-4.59,2.14-6.67,6.66-6.67H78.09c4.52,0,6.66,2.08,6.66,6.67v9.76c0,4.59-2.14,6.67-6.66,6.67Zm18.08-6c1.55,0,2.11-.53,2.11-2.11v-6.8c0-1.58-.56-2.11-2.11-2.11H60c-1.58,0-2.11.53-2.11,2.11v6.8c0,1.58.53,2.11,2.11,2.11Z"/><path class="cls-2" d="M124.78,130.41h-9.34L109.11,123H98.58v7.43H90.93v-23.1h26.85c4.23,0,6,1.79,6,6v3.13c0,4.22-1.75,6-5.94,6Zm-26.2-17.85v5.34h15.77c1.36,0,1.78-.42,1.78-1.78v-1.78c0-1.35-.42-1.78-1.78-1.78Z"/><path class="cls-2" d="M156.72,107.31h7.39v23.1h-6.27l-20.52-15v15h-7.39v-23.1h6.57l20.22,14.75Z"/><path class="cls-2" d="M213.8,113.22H191.43v3.89h21v5.35h-21v8h-7.65v-23.1h30Z"/><path class="cls-2" d="M225.49,130.41c-4.52,0-6.67-2.08-6.67-6.67V114c0-4.59,2.15-6.67,6.67-6.67h21.18c4.51,0,6.66,2.08,6.66,6.67v9.76c0,4.59-2.15,6.67-6.66,6.67Zm18.07-6c1.55,0,2.12-.53,2.12-2.11v-6.8c0-1.58-.57-2.11-2.12-2.11h-15c-1.59,0-2.11.53-2.11,2.11v6.8c0,1.58.52,2.11,2.11,2.11Z"/><path class="cls-2" d="M293.35,130.41H284L277.68,123H267.16v7.43h-7.65v-23.1h26.85c4.22,0,6,1.79,6,6v3.13c0,4.22-1.74,6-5.93,6Zm-26.19-17.85v5.34h15.77c1.35,0,1.78-.42,1.78-1.78v-1.78c0-1.35-.43-1.78-1.78-1.78Z"/><path class="cls-2" d="M343.34,107.31h6.5v23.1h-7.39V116.85l-9.6,10h-4.16l-9.6-10v13.56h-7.38v-23.1h6.79l12.41,12.87Z"/><path class="cls-2" d="M362.72,130.41c-4.52,0-6.67-2.08-6.67-6.67V114c0-4.59,2.15-6.67,6.67-6.67H383.9c4.52,0,6.66,2.08,6.66,6.67v9.76c0,4.59-2.14,6.67-6.66,6.67Zm18.07-6c1.55,0,2.12-.53,2.12-2.11v-6.8c0-1.58-.57-2.11-2.12-2.11h-15c-1.59,0-2.11.53-2.11,2.11v6.8c0,1.58.52,2.11,2.11,2.11Z"/><path class="cls-2" d="M430.58,130.41h-9.33L414.91,123H404.39v7.43h-7.65v-23.1h26.85c4.22,0,6,1.79,6,6v3.13c0,4.22-1.74,6-5.93,6Zm-26.19-17.85v5.34h15.77c1.35,0,1.78-.42,1.78-1.78v-1.78c0-1.35-.43-1.78-1.78-1.78Z"/><path class="cls-2" d="M443.39,124.8h23v5.61H435.74v-23.1h30.35v5.61h-22.7v3.33h21.38V121H443.39Z"/><polygon class="cls-3" points="147.53 12.3 228.16 74.76 207.74 74.76 127.11 12.3 147.53 12.3"/><polygon class="cls-3" points="207.74 12.3 127.11 74.76 147.53 74.76 228.16 12.3 207.74 12.3"/><path class="cls-3" d="M32.18,23.31h71.45V11.71H23.39A13.61,13.61,0,0,0,9.78,25.33V61.85A13.61,13.61,0,0,0,23.39,75.46h80.24V63.87H32.18a6.8,6.8,0,0,1-6.8-6.8V48.9h72.5V37.3H25.38V30.11A6.79,6.79,0,0,1,32.18,23.31Z"/><path class="cls-3" d="M274,23.36h71.45V11.77H265.25a13.61,13.61,0,0,0-13.61,13.61V61.91a13.61,13.61,0,0,0,13.61,13.61h80.24V63.92H274a6.81,6.81,0,0,1-6.81-6.8V49h72.51V37.36H267.23v-7.2A6.81,6.81,0,0,1,274,23.36Z"/><path class="cls-3" d="M395,23.42h71.45V11.82H386.18a13.61,13.61,0,0,0-13.61,13.61V62a13.61,13.61,0,0,0,13.61,13.61h80.24V64H395a6.81,6.81,0,0,1-6.81-6.81V49h72.51V37.41H388.16V30.22A6.8,6.8,0,0,1,395,23.42Z"/><path class="cls-3" d="M572,57.34a6.86,6.86,0,0,1-6.86,6.86h-56.3V23.31h56.3A6.86,6.86,0,0,1,572,30.17Zm2-45.72H493.11V75.89H574a13.73,13.73,0,0,0,13.73-13.72V25.34A13.73,13.73,0,0,0,574,11.62Z"/><polygon class="cls-4" points="146.8 12.3 227.43 74.76 207.01 74.76 126.38 12.3 146.8 12.3"/><polygon class="cls-4" points="207.01 12.3 126.38 74.76 146.8 74.76 227.43 12.3 207.01 12.3"/><path class="cls-5" d="M31.45,23.31H102.9V11.71H22.66A13.61,13.61,0,0,0,9.05,25.33V61.85A13.61,13.61,0,0,0,22.66,75.46H102.9V63.87H31.45a6.8,6.8,0,0,1-6.8-6.8V48.9h72.5V37.3H24.65V30.11A6.79,6.79,0,0,1,31.45,23.31Z"/><path class="cls-6" d="M273.31,23.36h71.45V11.77H264.52a13.61,13.61,0,0,0-13.61,13.61V61.91a13.61,13.61,0,0,0,13.61,13.61h80.24V63.92H273.31a6.8,6.8,0,0,1-6.8-6.8V49H339V37.36h-72.5v-7.2A6.8,6.8,0,0,1,273.31,23.36Z"/><path class="cls-7" d="M394.24,23.42h71.45V11.82H385.45a13.61,13.61,0,0,0-13.61,13.61V62a13.61,13.61,0,0,0,13.61,13.61h80.24V64H394.24a6.81,6.81,0,0,1-6.81-6.81V49h72.51V37.41H387.43V30.22A6.8,6.8,0,0,1,394.24,23.42Z"/><path class="cls-8" d="M571.27,57.34a6.86,6.86,0,0,1-6.85,6.86H508.11V23.31h56.31a6.86,6.86,0,0,1,6.85,6.86Zm2-45.72h-80.9V75.89h80.9A13.73,13.73,0,0,0,587,62.17V25.34A13.73,13.73,0,0,0,573.28,11.62Z"/><path class="cls-1" d="M43.57,123v2.18c0,3.6-1.65,5.21-5.21,5.21h-28v-23.1H37.7c3.56,0,5.21,1.62,5.21,5.22v1.68c0,2.28-.75,3.73-2.27,4.29C42.58,119,43.57,120.46,43.57,123ZM18,112.61v3.82H33.81c1.09,0,1.45-.36,1.45-1.45v-.92c0-1.09-.36-1.45-1.45-1.45Zm17.89,9.6c0-1.09-.36-1.45-1.45-1.45H18v4.32H34.47c1.09,0,1.45-.36,1.45-1.45Z"/><path class="cls-1" d="M56.06,130.39c-4.52,0-6.67-2.08-6.67-6.66V114c0-4.59,2.15-6.67,6.67-6.67H77.24c4.52,0,6.67,2.08,6.67,6.67v9.77c0,4.58-2.15,6.66-6.67,6.66Zm18.08-6c1.55,0,2.11-.52,2.11-2.11v-6.8c0-1.58-.56-2.11-2.11-2.11h-15c-1.58,0-2.11.53-2.11,2.11v6.8c0,1.59.53,2.11,2.11,2.11Z"/><path class="cls-1" d="M124,130.39h-9.34L108.27,123H97.74v7.42H90.09v-23.1H117c4.22,0,6,1.78,6,6v3.13c0,4.23-1.75,6-5.94,6ZM97.74,112.54v5.35h15.78c1.35,0,1.78-.43,1.78-1.79v-1.78c0-1.35-.43-1.78-1.78-1.78Z"/><path class="cls-1" d="M155.9,107.29h7.39v23.1H157l-20.53-15v15H129.1v-23.1h6.57L155.9,122Z"/><path class="cls-1" d="M213,113.2H190.62v3.89h21.06v5.35H190.62v7.95H183v-23.1h30Z"/><path class="cls-1" d="M224.68,130.39c-4.52,0-6.66-2.08-6.66-6.66V114c0-4.59,2.14-6.67,6.66-6.67h21.19c4.52,0,6.67,2.08,6.67,6.67v9.77c0,4.58-2.15,6.66-6.67,6.66Zm18.09-6c1.55,0,2.11-.52,2.11-2.11v-6.8c0-1.58-.56-2.11-2.11-2.11h-15c-1.59,0-2.12.53-2.12,2.11v6.8c0,1.59.53,2.11,2.12,2.11Z"/><path class="cls-1" d="M292.57,130.39h-9.34L276.9,123H266.37v7.42h-7.65v-23.1h26.86c4.22,0,6,1.78,6,6v3.13c0,4.23-1.75,6-5.94,6Zm-26.2-17.85v5.35h15.78c1.35,0,1.78-.43,1.78-1.79v-1.78c0-1.35-.43-1.78-1.78-1.78Z"/><path class="cls-1" d="M342.58,107.29h6.5v23.1h-7.39V116.83l-9.61,10h-4.15l-9.61-10v13.56h-7.39v-23.1h6.8l12.41,12.87Z"/><path class="cls-1" d="M362,130.39c-4.52,0-6.67-2.08-6.67-6.66V114c0-4.59,2.15-6.67,6.67-6.67h21.18c4.52,0,6.67,2.08,6.67,6.67v9.77c0,4.58-2.15,6.66-6.67,6.66Zm18.08-6c1.55,0,2.11-.52,2.11-2.11v-6.8c0-1.58-.56-2.11-2.11-2.11h-15c-1.59,0-2.11.53-2.11,2.11v6.8c0,1.59.52,2.11,2.11,2.11Z"/><path class="cls-1" d="M429.85,130.39h-9.34L414.17,123H403.64v7.42H396v-23.1h26.86c4.22,0,6,1.78,6,6v3.13c0,4.23-1.75,6-5.94,6Zm-26.21-17.85v5.35h15.78c1.35,0,1.78-.43,1.78-1.79v-1.78c0-1.35-.43-1.78-1.78-1.78Z"/><path class="cls-1" d="M442.66,124.78h23v5.61H435v-23.1h30.36v5.61h-22.7v3.34H464V121H442.66Z"/><path class="cls-9" d="M43.57,123v2.18c0,3.6-1.65,5.21-5.21,5.21h-28v-23.1H37.7c3.56,0,5.21,1.62,5.21,5.22v1.68c0,2.28-.75,3.73-2.27,4.29C42.58,119,43.57,120.46,43.57,123ZM18,112.61v3.82H33.81c1.09,0,1.45-.36,1.45-1.45v-.92c0-1.09-.36-1.45-1.45-1.45Zm17.89,9.6c0-1.09-.36-1.45-1.45-1.45H18v4.32H34.47c1.09,0,1.45-.36,1.45-1.45Z"/><path class="cls-9" d="M56.06,130.39c-4.52,0-6.67-2.08-6.67-6.66V114c0-4.59,2.15-6.67,6.67-6.67H77.24c4.52,0,6.67,2.08,6.67,6.67v9.77c0,4.58-2.15,6.66-6.67,6.66Zm18.08-6c1.55,0,2.11-.52,2.11-2.11v-6.8c0-1.58-.56-2.11-2.11-2.11h-15c-1.58,0-2.11.53-2.11,2.11v6.8c0,1.59.53,2.11,2.11,2.11Z"/><path class="cls-9" d="M124,130.39h-9.34L108.27,123H97.74v7.42H90.09v-23.1H117c4.22,0,6,1.78,6,6v3.13c0,4.23-1.75,6-5.94,6ZM97.74,112.54v5.35h15.78c1.35,0,1.78-.43,1.78-1.79v-1.78c0-1.35-.43-1.78-1.78-1.78Z"/><path class="cls-9" d="M155.9,107.29h7.39v23.1H157l-20.53-15v15H129.1v-23.1h6.57L155.9,122Z"/><path class="cls-9" d="M213,113.2H190.62v3.89h21.06v5.35H190.62v7.95H183v-23.1h30Z"/><path class="cls-9" d="M224.68,130.39c-4.52,0-6.66-2.08-6.66-6.66V114c0-4.59,2.14-6.67,6.66-6.67h21.19c4.52,0,6.67,2.08,6.67,6.67v9.77c0,4.58-2.15,6.66-6.67,6.66Zm18.09-6c1.55,0,2.11-.52,2.11-2.11v-6.8c0-1.58-.56-2.11-2.11-2.11h-15c-1.59,0-2.12.53-2.12,2.11v6.8c0,1.59.53,2.11,2.12,2.11Z"/><path class="cls-9" d="M292.57,130.39h-9.34L276.9,123H266.37v7.42h-7.65v-23.1h26.86c4.22,0,6,1.78,6,6v3.13c0,4.23-1.75,6-5.94,6Zm-26.2-17.85v5.35h15.78c1.35,0,1.78-.43,1.78-1.79v-1.78c0-1.35-.43-1.78-1.78-1.78Z"/><path class="cls-9" d="M342.58,107.29h6.5v23.1h-7.39V116.83l-9.61,10h-4.15l-9.61-10v13.56h-7.39v-23.1h6.8l12.41,12.87Z"/><path class="cls-9" d="M362,130.39c-4.52,0-6.67-2.08-6.67-6.66V114c0-4.59,2.15-6.67,6.67-6.67h21.18c4.52,0,6.67,2.08,6.67,6.67v9.77c0,4.58-2.15,6.66-6.67,6.66Zm18.08-6c1.55,0,2.11-.52,2.11-2.11v-6.8c0-1.58-.56-2.11-2.11-2.11h-15c-1.59,0-2.11.53-2.11,2.11v6.8c0,1.59.52,2.11,2.11,2.11Z"/><path class="cls-9" d="M429.85,130.39h-9.34L414.17,123H403.64v7.42H396v-23.1h26.86c4.22,0,6,1.78,6,6v3.13c0,4.23-1.75,6-5.94,6Zm-26.21-17.85v5.35h15.78c1.35,0,1.78-.43,1.78-1.79v-1.78c0-1.35-.43-1.78-1.78-1.78Z"/><path class="cls-9" d="M442.66,124.78h23v5.61H435v-23.1h30.36v5.61h-22.7v3.34H464V121H442.66Z"/></svg>