<?xml version="1.0" encoding="utf-8"?>
<!-- Generator: Adobe Illustrator 26.0.2, SVG Export Plug-In . SVG Version: 6.00 Build 0)  -->
<svg version="1.1" id="FIAT" xmlns="http://www.w3.org/2000/svg" xmlns:xlink="http://www.w3.org/1999/xlink" x="0px" y="0px"
	 viewBox="0 0 555.6 420.7" style="enable-background:new 0 0 555.6 420.7;" xml:space="preserve">
<style type="text/css">
	.st0{fill:#FFFFFF;}
</style>
<path class="st0" d="M145.6,0H206v420.7h-60.4V0z M404.3,0v50.8h46.8v369.9h58.5V50.8h46V0H404.3z M0,420.7h58.5V229.8h49.8v-50.1
	H58.5v-129h65V0H0V420.7z M412.1,393.1c0,9.2,0,18.4,0,27.6h-54.7c-0.1-15.9-0.1-31.9-0.1-48c0-16-0.1-32.1-0.3-48.1
	c-0.4-32-1.1-63.9-2.8-94.7h-64.3v190.9h-52.5V0h123.4c7.5,14.5,13.8,29.5,19,45c5.3,16,9.7,32.2,13.2,48.7
	c3.6,16.8,6.4,34,8.7,51.6s4,35.5,5.4,53.7s2.3,36.6,3,55s1.1,37.1,1.4,55.7s0.4,37.3,0.5,55.8C412.1,374.7,412.1,383.9,412.1,393.1
	z M350.5,179.8c-4.7-48.1-12.8-92.6-26.7-129h-33.9v129H350.5z"/>
</svg>
