<?xml version="1.0" encoding="utf-8"?>
<!-- Generator: Adobe Illustrator 27.4.0, SVG Export Plug-In . SVG Version: 6.00 Build 0)  -->
<svg version="1.1" id="Zeekr" xmlns="http://www.w3.org/2000/svg" xmlns:xlink="http://www.w3.org/1999/xlink" x="0px" y="0px"
	 viewBox="0 0 841.9 510.2" style="enable-background:new 0 0 841.9 510.2;" xml:space="preserve">
<style type="text/css">
	.st0{fill:#FFFFFF;}
</style>
<g>
	<path class="st0" d="M208.4,152.9l0,204.5c0,0-203.8,0-204.7,0c0-68.2,0-136.2,0-204.5c0.8,0,1.7,0,2.6,0
		C72.7,152.8,208.4,152.9,208.4,152.9z M90.3,227.4c1.3,1.3,2.6,2.7,3.9,4c5,5,10.1,10.1,15.1,15.1c9.8,9.7,19.5,19.5,29.3,29.2
		l1.5,1.7c0,19.6,0,41.2,0,60.8c0,0.7,0.1,1.3,0.1,2c17.1,0,34,0,51,0c0-56.8,0-113.6,0-170.3c-34.2,0-68,0-102.2,0c0,0,0,2.7,0,4.1
		c0,15.9,0,31.8,0,47.7c0,0.8,0.1,3.6,0.1,4.4L90.3,227.4z M123.1,340.3c0-1.3,0-2.4,0-3.5c0-16.7,0-35.8,0-52.5l-1.7-1.9
		c-16.1-16-32.1-32-48.1-48l-1.3-1.8c-0.1-18.8,0-38.7,0-57.5c0-1.7,0-3.4,0-5.1c-17.3,0-34.2,0-51.1,0c0,56.8,0,113.5,0,170.3
		C54.9,340.3,88.9,340.3,123.1,340.3z"/>
	<path class="st0" d="M409.9,288.5c0-22.2,0-44.3,0-66.6c23,0,46.1,0,69.4,0c0,3.8,0,7.6,0,11.6c-0.7,0-55.3,0-56,0.1
		c0,0,0,9.4,0,14.2c17.6,0,35.2,0,53,0c0,4.1,0,8,0,12c-17.7,0-35.3,0-53,0c0,5.6,0,11.3,0,16.7c0,0,54.4,0.1,56.1,0.1
		c0,3.9,0,8,0,11.8C479.3,288.4,410.8,288.5,409.9,288.5z"/>
	<path class="st0" d="M523.6,288.5c0-22.2,0-44.3,0-66.6c23,0,46.1,0,69.4,0c0,3.8,0,7.6,0,11.6c-0.7,0-55.3,0-56,0.1
		c0,0,0,9.4,0,14.2c17.6,0,35.2,0,53,0c0,4.1,0,8,0,12c-17.7,0-35.3,0-53,0c0,5.6,0,11.3,0,16.7c0,0,54.4,0.1,56.1,0.1
		c0,3.9,0,8,0,11.8C593,288.4,524.5,288.5,523.6,288.5z"/>
	<path class="st0" d="M838.2,288.4c-6,0-14,0.1-20.1,0c0,0-16.8-11.3-24.4-16.4c-7.6-5.2-15.3-10.3-22.9-15.5
		c-1.3-0.9-2.6-1.7-4.4-2.9c0,11.9,0,34.7,0,34.7c-4.3,0-9,0-13.6,0c0-22.3,0-44.4,0-66.7c0,0,36.6-0.1,54,0
		c6.6,0,12.9,1.9,18.3,5.7c4.1,3,6.3,7.4,7,12.6c0.5,3.4,0,6.5-0.9,9.6c-0.9,3-4.6,7.8-8.5,10c-6.4,3.7-13.1,4.3-20.5,4.3l0,0.6
		C809,269.2,838.2,288.4,838.2,288.4z M766.6,253.5c0.7,0,1.2,0,1.8,0c12.6,0,25.3,0,37.9,0c1.3,0,2.6-0.1,3.9-0.3
		c6.3-1,8.6-3.6,8.6-9.9c0-1.7,0.1-3.6-0.6-5c-1.8-3.8-5.6-5-9.4-5c-13.8-0.2-27.6-0.1-41.4-0.1c-0.2,0-0.5,0-0.8,0.1
		C766.6,239.9,766.6,246.5,766.6,253.5z"/>
	<path class="st0" d="M365.4,288.4c-7.1,0-78.4,0.1-78.4,0.1c3.9-4,51.9-54.1,53.2-55.5c-16.9,0-33.5,0-50.2,0c0-3.8,0-7.4,0-11.2
		c26,0,52,0,78.3,0c-2.2,2.2-53.1,55.2-53.1,55.2s33.5,0,50.3,0C365.4,280.9,365.4,288.4,365.4,288.4z"/>
	<path class="st0" d="M672.4,253.9l49.3,34.5l-21.3,0c0,0-45.5-31.7-49.2-34.3c0,11.6,0,22.9,0,34.3c-4.7,0-9.2,0-13.8,0
		c0-22.2,0-44.3,0-66.6c4.7,0,9.1,0,13.7,0c0,10.3,0,31.7,0,31.7l48-31.8l21.1,0L672.4,253.9z"/>
</g>
</svg>
