<?xml version="1.0" encoding="utf-8"?>
<!-- Generator: Adobe Illustrator 27.4.0, SVG Export Plug-In . SVG Version: 6.00 Build 0)  -->
<svg version="1.1" id="Lixiang" xmlns="http://www.w3.org/2000/svg" xmlns:xlink="http://www.w3.org/1999/xlink" x="0px" y="0px"
	 viewBox="0 0 841.9 510.2" style="enable-background:new 0 0 841.9 510.2;" xml:space="preserve">
<style type="text/css">
	.st0{fill:#FFFFFF;}
</style>
<path class="st0" d="M658.3,92l82.8,150.6H485.2L402.8,92H658.3z M415.7,267.3c-29.3,0-59.8-2.7-78.5-18.8
	c-15.6-12.2-24.2-26.3-33.2-42.3c-2-3.2-24.5-44.4-41.9-76.1l0,0c-10.4-19.1-19-34.7-20.2-36.8H4.6c8.5,15.6,17,31.3,25.6,47l0,0
	l0,0c20.8,38.3,41.7,76.7,62.7,114.5c25.8,47.1,50.4,91,95.3,123.1c21.5,16.1,44.2,26.7,70.7,33.3c26.2,6.3,52.7,7.1,79.7,7.1h211
	l-82.8-151H415.7z M498.9,266.9l82.8,151.4h255.5L754,266.9H498.9z"/>
</svg>
