<?xml version="1.0" encoding="UTF-8"?><svg id="a" xmlns="http://www.w3.org/2000/svg" viewBox="0 0 430.3 286.9"><defs><style>.b{fill:#fff;stroke-width:0px;}</style></defs><path class="b" d="M409.5,180.7l2.5-.2c1-.1,2-.2,3-.3,2.5-.4,4.6-1,6.3-1.9.6-.3,1-.6,1.7-1.1,2.2-1.6,3.3-3.7,3.4-6.5v-1.5c-.1-1.8-.5-3.3-1.3-4.5-.9-1.4-2.1-2.5-3.7-3.4-1.7-.8-3.7-1.4-6.2-1.8,0,0-3.6-.6-8.8-.6h-40.4v34.1h12.7v-12h17.3l19.5,12h13.9l-19.9-12.3ZM403.7,162.8h.2c1.4,0,2.7.1,3.7.2,1.3.1,2.5.5,3.4.9,1,.5,1.7,1.2,2.1,2.1.4.8.5,1.7.6,2.9v2.5c-.1.8-.2,1.7-.5,2.3-.3.7-.7,1.2-1.3,1.6-.2.1-.3.2-.5.3-.8.4-1.9.7-3.2.9-1.2.1-2.7.2-4.5.2h-25.1v-14.2h25.1v.3h0Z"/><path class="b" d="M42.2,158.9v16c0,4.8-1.8,8.4-5.2,10.6-3,1.9-7.3,2.9-12.9,2.9H.4v4.6h19.6c5.5,0,10.5-.2,14.8-.6,4.3-.4,8-1.2,10.9-2.5,2.9-1.2,5.1-2.9,6.7-5.1,1.4-2,2.2-4.6,2.3-7.9v-18.1h-12.5v.1Z"/><path class="b" d="M187.7,177.4v11.1h-19.4c-10.2,0-16.1-3.3-17.7-9.7-.7-2.7-.2-5.2,0-6.2,1.6-6.5,7.4-9.6,17.7-9.6h30.4v-4h-26.4c-5.5,0-10.6.2-14.9.6-4.3.4-8,1.2-10.9,2.4s-5.1,2.9-6.6,5.1c-1.5,2.1-2.2,4.9-2.3,8.4v.8c0,3.6.8,6.5,2.3,8.7s3.8,3.9,6.7,5.1c3,1.2,6.6,2,10.9,2.5,4.4.4,9.4.6,14.8.6h28.1v-15.6h-12.7v-.2h0Z"/><path class="b" d="M103,158.9h-13.1l-29.3,34.1h7.6l6.6-7.7h36.9l6.6,7.7h14.1l-29.4-34.1ZM93.2,163.9l15.3,17.7h-30.6l15.3-17.7Z"/><path class="b" d="M312.2,158.9l-29.3,34.1h7.6l6.6-7.7h36.8l6.6,7.7h14.1l-29.4-34.1h-13ZM330.8,181.7h-30.6l15.3-17.8,15.3,17.8Z"/><path class="b" d="M264.4,158.9v17.3c0,1.5-.2,2.8-.5,4.1-1.6,6.3-7.5,9.5-17.6,9.5h-1.3c-10.1,0-16-3.3-17.6-9.6-.3-1.2-.5-2.5-.5-3.9v-17.3h-12.7v17.8c0,3.7.8,6.7,2.4,8.9,1,1.4,2.2,2.6,3.7,3.6.9.6,1.9,1.1,3,1.6s2.3.9,3.6,1.2c2.2.6,4.6,1,7.3,1.3,3.4.3,7.3.5,11.4.5s8.1-.2,11.5-.5c2.7-.3,5.1-.7,7.3-1.2,1.3-.3,2.5-.7,3.6-1.2,1.1-.4,2.1-1,3-1.6,1.5-1,2.7-2.2,3.7-3.6,1.5-2.2,2.3-5.2,2.3-8.9v-17.8h-12.6v-.2h0Z"/><path class="b" d="M81.3,10.9h1.3c2,0,4.2-.8,5.7-1.5,1-.4,1.7-.8,1.6-.8h-4.4c-3.6,0-5.4,2-5.5,2.2,0,.1.5.1,1.3.1ZM413.3,106.4c-2-4.5-7.6-3-7.6-3-2.6.6-5.7,3.6-10.1,4.9-9.6,2.9-17.3-.5-17.3-.5-14.8-6.4-62.4-33.7-86.7-45.6,0,0-28.1-13-69-29.2,0,0-80.2-34.2-133.8-31.4,0,0-28.5.8-37.5,13.3,0,0-1.5,1.7-.7,3.6,0,0,.2.5-.2.9,0,0-4.8,4.3-7.3,8.1-.9,1.4-1.7,3.6-.1,5.4,0,0,.8.6,1.1,1.2.7,1.1,1.3,2.8,2.2,3.9,1.2,1.5,3.8,4.1,7.3,3.4,1.6-.3,1.6-.7,1.6-.7,1.8,1.8,4.7,1.7,4.7,1.7-.4-1.1-1.6-3.4-1.8-4.7-.2-1.5.2-2.9.2-2.9.5-1.7,1.5-3.8,2.6-4.9,1-1,3.4-2,5.4-.7,1.6,1.1,3.5,4.8,1.9,10-.1.4-1.8,4.1-3.7,4.7,0,0-.2.1-.5.1-1.3,0-3.6-1.3-3.6-1.3,0,0-.1.3.3,1.7.2.8.5,1.6.7,2.3,0,0-.4.8-.7,1.3-.4.5-.8,2.3.1,3,0,0,4.1,2.8,8.1,3.1,2.8.2,3.8-1.7,3.8-1.7,2-2.8,3.6-5.2,5.7-7.1,5.9-5.4,14.1-6.8,14.1-6.8.5-.1,9.5-2.6,24.8,9.6-4.4.4-9.5,1.4-13.5,2.1-11.3,2-18.5,12.7-20.7,17-5.3,11.2,5.9,15.1,5.9,15.1.1-.1,10.7-.9,15.8-12.2,0,0,1.9-5,6.8-3.4,3.3,1.1,32,11.1,38.5,12.8,0,0,19.2,5,26.5-3.8,11.6,3.8,22.5,5.6,50.9,2,4.9-.6,8.8-.5,8.8-.5,6.7.5,12.7,5,14.6,7.9,7.5,12,17,35.8,50,32.9l14.9-1.3c9.1-.5,16.5-.9,24,3.1,3.3,1.7,5.1,2.4,10.6,7.7,7.6,7.2,14.6,15.1,23.9,10.8,3.3-1.5,7-7.4,7-7.4-.4-2.7-1.6-5.3-4.5-7.5,8.4,2,27.5,3.3,34.9-9.6,2.1-3.1,2.3-5.8,1.6-7.4ZM410.2,112.5c-.7,2.5-4.3,5.8-8.6,7.8-4.6,2-14.1,2.6-19.6,1.7,0,0-10.6-1.1-20-10.8-2.9-3.1-6.6-6.6-9.9-10-1.5-1.5-5.1-5.2-11.1-6-6.3-.8-21.5-1.3-27.3-3.2-3.8-1.3-8.5-3.9-14.6-13-3-4.4-5.1-5.6-9.1-8.1,0,0,3.1,2.5,4.8,5.6,2.5,4.5,3.8,7.8,5.2,10.2,1.4,2.4,2.9,4.5,5.3,6.4,2.9,2.3,4.7,2.8,7.9,3.3,3,.5,13.3.4,22,.3,8.6-.1,12.5,2.7,15.3,5,2.6,2.2,7.1,8.5,9.9,11.3,3.3,3.3,5.7,6.6,12.2,9.9,2.3,1.1,6,4,5.8,6.7-2.9,2.9-6.6,3.7-15.3,1.4.6.6,5.2,5.4,13,3.1-2.4,2-4.7,2.8-7.1,2.7-8.2-.5-16.2-10.5-20.7-14.3-3.4-2.8-3.8-3.5-9.6-7.6-8.8-6.1-28.6-4.4-28.6-4.4l-14.5.8c-28.2,2.1-40.1-22.9-43.2-28.1-1.1-1.8-2.1-3.3-3-4.5-1.4-1.9-9.2-11.9-17-15.2,0,0,7.7,6.6,7.2,11,0,0-3.2-1.5-11.8-.2-37.2,5.3-49.9-4-49.9-4,1.7-7.5-3.5-15.1-3.5-15.1,2.9.9,21.2,7.1,38.5,3.6,0,0-28.3.2-48.1-15.7,0,0,12.3,15.5,9.4,25.6,0,0-2,10.8-23.5,6.4-2.3-.5-5-1.2-37.2-10.2-7.6-2.3-10.2,1.4-11.5,3.5-.1,3.2-3.8,6.9-5.7,8.1-10-1.8-6-11-6-11-6.3,9,.3,12.9,2.4,13.2-1.2.6-2.4,1-3.4,1.4,0,0-8.1-4.8-3.6-12.8,6.3-11.1,12.8-14.6,24.7-15.7,5.2-.5,9.5-.9,12.8-.4,8.6,1.2,14,6,26.9,7.3-27.3-8-27.4-23.9-27.5-24.2h0c-1.5,5.2-.7,9.6.7,13.3-.4-.1-6.4-4.1-8.6-5.4-9.8-6-17.6-7-17.6-7-3.3-.4-4.8-4.4-4.8-4.4-.1-.2-.2-.4-.3-.6-4.5-7.7-9-7.9-9-7.9,2.5,3.4,2.6,8.3,2.6,8.3,1.3,9.6-9.5,12.6-9.5,12.6-6.7,8.5-6.3,8.6-7.8,8.8s-4.7-1.4-4.7-1.4c-.5-.8.2-1.6.2-1.6,1.2-1,2.3-2,2.3-2,7-7.2,7.9-10.7,7-15.4-1.8-9.4-8.5-8.3-8.5-8.3-3.2.2-4.6,3-4.6,3-1.1,1.7-3.5,7-3.5,7-1.5,3.1-2.9,3.9-3.7,4-.3.1-1,.1-1.2,0-2.3-.1-4-2.2-4-2.2l-.3-.3c-2.1-2.2-.6-5.1-.6-5.1,2.8-6.5,8.2-7.4,8.9-7.5.8-.1,3.2-.5,3.2-.5,6.9-1.2,10.1-8.3,10.1-8.3-4.6-.1-6.9.3-6.9.3-4.6.8-6.1,6.2-6.1,6.2-3.9.9-3.8-2.4-3.1-3.5.6-.9,2.9-4.9,17.7-8.4,0,0,7.3-2.2,23-1.5l-.6,1.2c-1.4,2.6-6.9,8-15.9,6,0,0,.1,4,9.9,5.5,0,0,8.9,1.6,24,13.7,0,0-7.2-14.3-19.5-18,0,0-1.5-.3-.8-1.3,0,0,7.6-7,17.3-7.3,0,0,33-3.2,51.3,22,0,0-5.5-10.7-9.7-15.4,0,0,19.1,5.4,48.6,15.6,0,0,20.1,7.1,32.9,12.2,17.4,6.8,60.7,23.7,88.4,38.8,4.9,2.7,55,28.8,55,28.8,13.9,6.2,23.5,2.4,23.5,2.4,3.1-1.2,8.8-5.5,11.3-3.1,1.5,1.5,1.7,3.2,1,4.9ZM57.7,19.7s.3-.9.4-1.1c.1-.2.9-2.5,2.9-2.7,0,0,1.2-.1,3-.1,0,0-.9,2.9-4.4,3.5,0,.1-1.3.4-1.9.4Z"/></svg>