<?xml version="1.0" encoding="UTF-8"?><svg id="a" xmlns="http://www.w3.org/2000/svg" viewBox="0 0 899 898"><defs><style>.b{fill:#fff;stroke-width:0px;}</style></defs><path class="b" d="M152,329.5v304.5h609V25H152v304.5ZM359.1,167.2v95.3l75.4,73,75.4,73,.1,89.2v89.3H199V72h160l.1,95.2ZM714,329.5v257.5h-158v-189.8l-75.4-73.9-75.5-73.8v-88.8l-.1-88.7h309v257.5Z"/><path class="b" d="M30,749.5v8.5l45,.2,45.1.3-39.2,44.5c-21.5,24.5-41.9,47.5-45.1,51.3l-6,6.7h134.2v-17l-45.1-.2-45.2-.3,42.3-48c23.2-26.4,43.6-49.5,45.3-51.3l3.1-3.2H30v8.5Z"/><path class="b" d="M215,801v60h125v-17h-108v-37h99v-17h-99v-32l53.8-.2,53.7-.3.3-8.3.3-8.2h-125.1v60h0Z"/><path class="b" d="M386,801v60h125v-17l-53.7-.2-53.8-.3-.3-18.3-.2-18.2h100v-17l-49.7-.2-49.8-.3-.3-15.8-.3-15.7h108.1v-17h-125v60h0Z"/><path class="b" d="M561,801v60h18v-120h-18v60Z"/><path class="b" d="M743,801v60h18v-105h40.6c28.3,0,41.9.4,44.6,1.2,5.5,1.6,12.3,7.9,14.4,13.3,3.8,10.2-.1,20.9-9.9,26.5l-5.2,3h-39.7c-35.5,0-43.3.5-38.5,2.3.7.2,20.8,13.1,44.6,28.6l43.3,28.1,15.4-.2,15.4-.3-33-20.9c-18.2-11.5-33-21.2-33-21.7,0-.4,6.9-.9,15.3-1.1,14.1-.3,15.5-.5,20.2-3,8.4-4.4,13.1-9.2,17.2-17.6,3.5-7,3.8-8.3,3.8-16.1s-.4-9.4-3.2-15.3c-3.9-8.2-10-14.5-17.9-18.4l-5.9-2.9-53.2-.3-53.3-.3v60.1h0Z"/><path class="b" d="M631.4,769.3c-23,15-43.4,28.1-45.2,29.3l-3.2,2,44.9,29.2,45,29.2h31.5l-44.9-28.6c-24.8-15.7-45.3-28.8-45.8-29.3-.4-.4,19.4-13.5,44-29.1,24.7-15.5,45.2-28.7,45.8-29.2.5-.4-6-.8-14.6-.8h-15.5l-42,27.3h0Z"/></svg>