<?xml version="1.0" encoding="UTF-8"?><svg id="a" xmlns="http://www.w3.org/2000/svg" viewBox="0 0 88.42 50.35"><defs><style>.b{fill:#fff;stroke-width:0px;}</style></defs><path class="b" d="M40.44,4.21c-3.47.07-8.99.2-14.21.36-5.17.16-10.01.36-12.15.59l-1.9.19c-3.71.36-4.95.48-5.76,1.93h0c-.47.85-.69,2.28-.74,3.91-.06,2.11.18,4.5.55,6.5.33,1.78.63,2.91,1.05,3.79.4.83.96,1.48,1.82,2.32,1.45,1.4,5.15,2.82,9.67,4.09,6.1,1.71,13.56,3.09,19.06,3.83,3.01.41,4.9.6,6.77.58,1.86-.02,3.78-.25,6.87-.68,5.51-.77,12.74-2.14,18.63-3.81,4.39-1.25,7.98-2.63,9.39-4.01.86-.84,1.42-1.49,1.82-2.32.42-.88.72-2.01,1.05-3.79.37-2,.61-4.39.55-6.5-.05-1.63-.27-3.06-.74-3.91h0c-.81-1.45-2.06-1.57-5.76-1.94l-1.9-.19c-1.93-.2-6.07-.39-10.66-.54-4.65-.16-9.71-.28-13.48-.36-1.73-.04-3.36-.07-4.97-.08-1.62-.01-3.24,0-4.94.03ZM26.15,2.19c5.18-.16,10.73-.29,14.24-.36,1.71-.04,3.35-.04,5-.03,1.65.01,3.29.04,5.01.08,3.8.08,8.9.21,13.51.36,4.66.16,8.86.34,10.83.55l1.88.19c4.64.45,6.2.61,7.62,3.14.68,1.2.99,3.02,1.04,5.01.07,2.28-.19,4.85-.59,6.99-.37,2-.72,3.31-1.25,4.4-.55,1.13-1.25,1.96-2.3,2.99-1.73,1.68-5.67,3.25-10.41,4.6-5.99,1.7-13.35,3.09-18.95,3.88-3.16.44-5.15.68-7.17.7-2.02.02-3.99-.18-7.1-.6-5.6-.76-13.19-2.16-19.39-3.9-4.85-1.36-8.92-2.96-10.68-4.67-1.06-1.03-1.76-1.86-2.3-2.99-.53-1.09-.88-2.4-1.25-4.4-.4-2.14-.65-4.71-.59-6.99.06-1.99.37-3.81,1.04-5.01,1.42-2.53,2.99-2.69,7.62-3.14l1.88-.19c2.18-.23,7.08-.43,12.31-.6Z"/><path class="b" d="M26.04,25.94h14.91c1.49,0,2.99-1.17,3.35-2.62l.77-3.16c.26-1.06-.27-1.92-1.2-1.96.58-.16,1.04-.61,1.29-1.48l.89-3.56c.36-1.45-.55-2.62-2.04-2.62h-19.9l-.98,3.8h17.72c.74,0,.94.5.78,1.11-.15.62-.59,1.12-1.34,1.12h-11.85l-2.42,9.37ZM31.46,19.91h8.76c.74,0,.94.5.79,1.12-.15.62-.59,1.12-1.33,1.12h-8.79l.57-2.24Z"/><path class="b" d="M46.53,25.94h12.68c1.49,0,3-1.17,3.37-2.62l1.74-6.75h-7.12l-.86,3.34h3.25s-.12.5-.28,1.12c-.16.62-.89,1.12-1.64,1.12h-7.68c-.74,0-1.2-.59-1.01-1.31l1.33-5.2c.19-.72.95-1.3,1.69-1.3h12.88s.22-.85.49-1.9c.27-1.05-.72-1.9-2.21-1.9h-12.69c-1.49,0-3,1.17-3.37,2.62l-.03.09c-.01.05-.02.1-.03.16l-.89,3.56c-.13.45-.3.81-.5,1.1,0,0,0,0,0,.01.46.61.61,1.46.39,2.32l-.78,3.16c-.12.49-.33.94-.61,1.35.33.62,1,1.03,1.87,1.03Z"/><path class="b" d="M14.53,42.16c1.15.42,1.46.85,1.46,2v.73c-.06,1.03-.49,1.58-1.46,1.94-.67.24-1.4.3-2.13.3H3.65c-.3,0-.36-.06-.36-.36v-9.15c0-.24.06-.3.3-.3h9.48c.61,0,1.15.12,1.7.3.67.24,1.09.67,1.15,1.45.06.48.06.97,0,1.45-.06.73-.43,1.21-1.09,1.52-.12.06-.18.06-.3.12ZM9.42,41.13h2.01c.24,0,.55-.06.67-.3.36-.67-.06-1.33-.79-1.33h-3.95c-.24,0-.24.06-.24.3v1.03c0,.3.06.42.36.42.67-.12,1.28-.12,1.95-.12ZM9.3,44.95h2.07c.24,0,.55-.06.67-.3.37-.61,0-1.27-.73-1.27-1.34-.06-2.61,0-3.95,0-.18,0-.24.06-.24.24v1.15c0,.24.06.24.3.24.61-.06,1.28-.06,1.89-.06Z"/><path class="b" d="M25.41,37.31h4.07c.24,0,.36.06.36.36v1.45c0,.3-.12.36-.36.36h-6.38c-.79,0-1.03.24-1.03,1.03q0,.67.61.67h6.75c.3,0,.42.12.36.42v1.33c0,.36-.06.42-.43.42h-6.87c-.36,0-.49.12-.43.42,0,1.03.18,1.21,1.22,1.21h6.08c.43,0,.49.12.49.48-.06.48,0,.97,0,1.45,0,.18-.06.3-.24.3-2.8-.06-5.59.06-8.33-.06-.67-.06-1.34-.18-1.95-.48-.67-.3-.97-.79-.97-1.58v-5.33c0-.85.55-1.76,1.46-2.06.73-.24,1.46-.3,2.19-.3,1.09-.12,2.25-.12,3.4-.12Z"/><path class="b" d="M31.98,41.25v-3.64c0-.24.06-.36.3-.36h3.16c.3,0,.36.12.3.36v6.61c0,.55.12.67.67.67h6.75c.3,0,.36.06.36.36v1.52c0,.24-.06.3-.3.3-2.67-.06-5.29.06-7.96-.06-.73-.06-1.46-.18-2.13-.42-.79-.36-1.09-.91-1.15-1.76-.06-1.21,0-2.36,0-3.58Z"/><path class="b" d="M52.28,37.31h3.95c.3,0,.36.06.36.36v1.45c0,.3-.12.36-.36.36h-6.81c-.36.06-.55.24-.55.61v4.06c0,.55.12.73.67.73.49.06.97,0,1.46,0h2.13c.61,0,.73-.18.73-.79v-2.3c0-.24.06-.36.3-.36h3.28c.24,0,.3.06.3.3v3.03c0,.91-.49,1.52-1.34,1.88-.79.36-1.64.42-2.43.42-1.88,0-3.83.06-5.71-.06-.73-.06-1.46-.18-2.13-.48-.67-.3-1.03-.79-1.09-1.58-.06-1.82-.06-3.64,0-5.45,0-1.21.67-1.82,2.01-2.06,1.21-.18,2.43-.18,3.59-.18.61.06,1.09.06,1.64.06Z"/><path class="b" d="M67.11,37.31h4.07c.24,0,.36.06.36.36v1.45c0,.3-.06.36-.36.36h-6.5c-.73.06-.91.24-.91.97s0,.73.73.73h6.63c.3,0,.42.06.42.36-.06.48,0,.97,0,1.45,0,.3-.06.36-.36.36h-6.93c-.36,0-.49.12-.42.48,0,1.03.18,1.15,1.21,1.15h6.14c.3,0,.42.06.42.42v1.52c0,.24-.06.24-.3.24-2.8-.06-5.59.06-8.33-.06-.67-.06-1.28-.18-1.88-.42-.73-.3-1.09-.85-1.09-1.64v-5.39c0-.85.43-1.52,1.28-1.88.61-.24,1.28-.36,1.95-.36,1.28-.12,2.55-.12,3.89-.12Z"/><path class="b" d="M80.85,37.31h4.07c.3,0,.36.06.36.36v1.45c0,.3-.06.36-.36.36h-6.44c-.73.06-.97.24-.97.97q0,.67.67.67h6.69c.3,0,.42.06.36.36v1.45c0,.3-.06.42-.36.42h-6.87c-.36,0-.49.06-.49.48,0,1.03.18,1.15,1.15,1.15h6.14c.36,0,.42.12.42.42v1.45c0,.24-.06.3-.3.3-2.8-.06-5.53.06-8.33-.06-.67-.06-1.28-.18-1.89-.42-.73-.3-1.09-.85-1.09-1.7v-5.27c0-.97.49-1.7,1.46-2.06.73-.24,1.46-.3,2.25-.3,1.15-.06,2.31-.06,3.53-.06Z"/></svg>