<?xml version="1.0" encoding="utf-8"?>
<!-- Generator: Adobe Illustrator 26.0.2, SVG Export Plug-In . SVG Version: 6.00 Build 0)  -->
<svg version="1.1" id="Layer_2" xmlns="http://www.w3.org/2000/svg" xmlns:xlink="http://www.w3.org/1999/xlink" x="0px" y="0px"
	 viewBox="0 0 476.2 317.5" style="enable-background:new 0 0 476.2 317.5;" xml:space="preserve">
<style type="text/css">
	.st0{fill:#FFFFFF;}
</style>
<path class="st0" d="M143.4,115.6h16.4l7.1-12.5h17l0.2,12.5h14.9l-3.2-56.4h-22.2l-0.5,1.5l0.7,0.7c1.2,1.1,0.7,2.8-3.6,9.7
	L143.4,115.6z M182.8,74.8h0.5l0.3,17h-10.4L182.8,74.8z M370,79.4h-37.5l-4.9,13.4h26l-29.5,10l-1.8,4.8l42.6-14L370,79.4z
	 M276.3,66.4l-16.8,49.1h24.8c10.7,0,16.7-2.4,21.7-7.6c6.2-6.5,11.8-23.6,11.7-33c-0.2-9.6-6.4-15.8-19.4-15.8h-22.6l-0.5,1.5l1,1
	C277.2,62.6,277.2,63.8,276.3,66.4 M289.8,72.6h6.2c4.2,0,6.5,1.4,6.6,4.7c0,2.1-0.5,5-2.7,11.2c-1.9,5.5-3.5,8.7-5.6,11.1
	c-1.8,1.8-4.1,2.7-9.4,2.7h-5.2L289.8,72.6z M202.3,115.6h14.1l12.3-36.5l7.2,36.5h14.2l19.3-56.4l-14.8,0l-10.3,30.7l-5.9-30.7
	h-19.9l-0.5,1.5l1,1c1,1,1,2.2,0.1,4.9L202.3,115.6z M100.9,115.6l38.5,0l4.7-13.4h-22.4l14.8-42.9h-19.3l-0.5,1.5l1,1
	c1,1,1,2.2,0.1,4.9L100.9,115.6z M213,127.1h-1.8c-10.6,0-16.7,2.9-21.7,8.2c-6.2,6.6-12,24.3-11.9,33.7c0.1,9.6,6.3,16.2,19.3,16.2
	h1.9c10.7,0,16.7-2.9,21.7-8.2c6.2-6.6,11.9-24.3,11.8-33.6C232.1,133.7,226,127.1,213,127.1 M213.9,157c-1.9,5.5-3.5,9.1-5.7,11.5
	c-1.8,1.8-4.1,3.2-9.4,3.2c-4.2,0-6.5-1.7-6.5-5c0-2.1,0.5-5.3,2.8-11.5c1.9-5.5,3.5-9.1,5.7-11.5c1.7-1.8,4.1-3.2,9.4-3.2
	c4.2,0,6.5,1.7,6.5,5C216.7,147.6,216.1,150.8,213.9,157 M395.1,54.7c-46.7-24.1-104.8-33.4-156.9-33.4
	c-52.1,0-110.2,9.2-156.9,33.4c-26.2,13.5-59.5,38-59.5,70.9c0,32.9,33.3,57.4,59.5,70.9c46.7,24.1,104.8,33.4,156.9,33.4
	c52.1,0,110.2-9.2,156.9-33.4c26.2-13.6,59.5-38,59.5-70.9C454.6,92.7,421.3,68.2,395.1,54.7 M392.7,191.9
	c-46,23.7-103.1,32.8-154.5,32.8c-51.4,0-108.5-9-154.5-32.8C59.4,179.3,27,156.1,27,125.6C27,95,59.3,71.9,83.7,59.3
	c46-23.7,103.1-32.8,154.5-32.8c51.4,0,108.5,9,154.5,32.8c24.4,12.6,56.7,35.7,56.7,66.3C449.4,156.1,417,179.3,392.7,191.9
	 M404.5,36.5C360,13.5,300.9,0.9,238.2,0.9c-62.7,0-121.8,12.7-166.3,35.6C45.6,50.2,1.4,79.8,1.4,125.6c0,45.7,44.2,75.4,70.6,89.1
	c44.5,23,103.5,35.6,166.3,35.6c62.7,0,121.8-12.7,166.3-35.6c26.3-13.6,70.5-43.3,70.5-89.1C475,79.8,430.8,50.2,404.5,36.5
	 M398.7,203.5c-42.7,22.1-99.7,34.2-160.5,34.2c-60.8,0-117.7-12.2-160.5-34.2C36.6,182.2,14,154.6,14,125.6
	c0-29,22.6-56.7,63.7-77.9c42.7-22.1,99.7-34.2,160.5-34.2c60.8,0,117.8,12.2,160.5,34.2c41.1,21.2,63.7,48.9,63.7,77.9
	C462.4,154.6,439.8,182.2,398.7,203.5 M366.7,127.8h-24.4l-0.5,1.5l1,1c1,1,1,2.2,0.1,4.8l-17,49.1h15.6l6.6-19.5h5.3l5.9,19.5h15.6
	l-7.3-20c4.3-0.7,6.4-1.9,8.5-3.8c2.9-2.7,5-6.4,6.7-12c2.5-8,1-12.6-0.6-15C380,130.2,375.4,127.8,366.7,127.8 M368.1,148.2
	c-1,2.4-2.1,3-3.4,3.6c-1,0.4-2.9,0.5-4.8,0.5h-7.4l4-11.7h9c2.7,0,3.8,1.4,3.8,3C369.2,144.7,368.8,146.5,368.1,148.2 M159.4,127.8
	h-24.4l-0.5,1.5l1,1c1,1,1,2.2,0.1,4.8l-17,49.1h15.6l6.7-19.5l5.3,0l5.9,19.5h15.6l-7.4-20c4.3-0.7,6.4-1.9,8.6-3.8
	c2.9-2.7,5-6.4,6.6-12c2.5-8,1-12.6-0.6-15C172.7,130.2,168.1,127.8,159.4,127.8 M160.8,148.2c-1,2.4-2,3-3.4,3.6
	c-0.9,0.4-2.9,0.5-4.9,0.5h-7.4l4-11.7h9c2.7,0,3.8,1.4,3.8,3C161.9,144.7,161.5,146.5,160.8,148.2 M120.5,135l-42.6,14l-5.2,14.3
	h37.5l4.9-13.4h-26l29.5-10L120.5,135z M275.3,127.8l-20.6,40.5h-0.4l-1-40.5h-17.3l-0.7,1.5l1.5,0.9c1.4,1,1.8,2,2,4.8l2.3,49.2
	h19.2l31-56.4H275.3z M322.6,161.6l4.3-11.8h-19.8l3.1-9h21.5l4.7-13h-40.5l-0.6,1.7l1,1c1,1,1,2.2,0.1,4.8l-16.9,49h37.9l4.6-13.1
	h-22.1l3.3-9.5H322.6z"/>
</svg>
