<?xml version="1.0" encoding="UTF-8"?><svg id="a" xmlns="http://www.w3.org/2000/svg" viewBox="0 0 1174.69 1019.99"><defs><style>.b{fill:#fff;stroke-width:0px;}</style></defs><path class="b" d="M546.05,10.89c0,.5-4.8,1.2-10.7,1.5-14.6.9-44,4.2-60.3,6.8-3.6.5-9.2,1.3-12.5,1.8-10.4,1.3-37.9,6.8-59,11.6-3.3.8-7.8,1.8-10,2.3s-7.6,1.9-12,3.1-9.3,2.6-11,3.1c-20.7,5.7-54.5,16.9-63,20.8-1.1.6-4.8,2-8.3,3.2-3.4,1.2-6.5,2.6-6.8,3-.3.5-1.1.9-1.9.9-1.2,0-4.3,1.3-20.5,8.7-10.6,4.9-34.7,17.1-38.8,19.7-2.3,1.4-4.4,2.6-4.6,2.6-1.7,0-36.7,22.4-45.6,29.2-40.6,30.8-64.4,53.8-88.2,85.3-7.2,9.5-21.8,30.9-21.8,31.9,0,.3-2.4,4.4-5.3,9.3-6.8,11.2-22.7,43.7-22.7,46.3,0,.4-.7,2.1-1.5,3.6-.8,1.6-1.5,3.6-1.5,4.5,0,.8-.4,1.9-.9,2.5-.7.8-7.9,22.9-11.6,35.9-3.5,12.7-6.4,26.8-11.2,56-2.7,16.5-2.4,59.4.5,75.6,4,22.3,7.8,37.7,10.8,44.7.8,1.8,1.4,3.9,1.4,4.7s.7,3.1,1.6,5.2,2,4.7,2.5,5.8c11.3,28.6,26.3,55,45.8,81,32.3,43,77.3,83.8,128.5,116.4,18.9,12,20.6,13,39.1,23.3,19.9,11.1,54.8,27.2,79,36.5,2.2.8,4.9,1.9,6,2.4,5.7,2.4,49.7,16.8,61,19.9,4.4,1.2,9.4,2.6,11,3,33,9.3,78.2,17.2,126,22,29.3,3,97.6,3,127,0,34.7-3.5,64.2-8,89.5-13.7,16.2-3.6,19.8-4.5,24.5-5.8,22.3-6.3,24.4-6.9,39-11.7,13.6-4.4,32.5-11.2,37-13.3,1.7-.7,8.2-3.4,14.5-6.1,22.8-9.4,48.6-22.1,68.8-34.1,4.1-2.4,7.5-4.3,7.7-4.3.7,0,26.1-16.2,34.5-22,13.4-9.3,25.3-17.9,32-23.2,10-7.9,20-16.1,21.4-17.3.6-.6,4.5-3.9,8.6-7.4,4.1-3.6,7.7-6.8,7.8-7.3.4-1,2.4-.9-27.7-.8l-25.5.1-4.5,3.8c-5.9,4.8-23.9,18.1-24.5,18.1-.3,0-3.3,1.9-6.8,4.3-7.9,5.4-17.8,11.6-24.3,15.2-15.9,8.9-32.8,17.5-42,21.5-2.7,1.2-7.3,3.3-10.1,4.6s-5.7,2.4-6.5,2.4-1.9.4-2.5,1c-2,2-41.2,15.8-56.9,20-4.4,1.2-8.7,2.4-9.5,2.7-.8.4-3.7,1.2-6.5,1.9-36,8.8-46.4,10.9-79,15.8-12.6,1.9-31.1,4.2-41,5.1-9.9.8-22.9,2-29,2.6-6,.6-27.4,1.4-47.4,1.6-38.4.6-39.7.5-77.6-4.8-14.8-2-40.9-6.3-48.5-7.9-2.5-.5-7.6-1.6-11.5-2.4-25.1-5.3-41.2-9.2-48.5-11.6-1.4-.5-3.8-1.1-5.5-1.5-3.7-.7-16.6-4.6-30-9.1-13.9-4.6-16.7-5.6-19-6.5-1.1-.5-7.4-2.9-14-5.4-6.6-2.6-14.2-5.7-17-7-2.7-1.2-8.6-3.9-13-5.8-7.9-3.5-27.2-13.4-33-16.8-1.6-1-6.2-3.6-10-5.7-15.5-8.8-39.1-25.7-55.5-39.8-11.7-10-33.3-32.1-42.2-42.9-6.2-7.7-19.8-26.1-19.8-26.9,0-.2-1.8-3-3.9-6.2-2.2-3.3-5.6-9.1-7.6-12.9-2-3.9-4-7.7-4.5-8.5-.6-.8-2.4-4.7-4.1-8.5-1.7-3.9-4.1-9.4-5.5-12.3-1.3-2.9-2.4-5.5-2.4-5.8s-.6-2-1.4-3.7c-.8-1.8-1.6-4.1-1.9-5.2s-1.4-4.5-2.6-7.5c-2.4-6.5-7.4-25.5-9.5-36-4.2-20.9-4.9-29.2-4.9-56,0-22.9.3-28.1,2.2-38.5,3.8-21,7.6-38.3,10.7-49,.8-2.8,2.2-7.5,3.1-10.5,3.5-12,9.9-29.3,16.4-44.5,2.3-5.6,12.2-25.7,15-30.5,4.2-7.5,18-30.2,19.1-31.5.5-.5,3.9-5.1,7.6-10.1s9.4-12.4,12.7-16.5c6.4-8,33.2-35.3,43-43.8,10.7-9.4,43.8-33.6,49.6-36.5.8-.3,2.6-1.4,4.1-2.4,3.9-2.5,17.7-10.4,22.3-12.7,2.2-1.1,4.2-2.3,4.5-2.6.5-.6,7.7-4.1,23-11.2,4.1-1.9,11.6-5.1,16.5-7.2,5-2,9.9-4,11-4.5,1.1-.4,2.9-1.1,4-1.5s6.3-2.3,11.5-4.2,10.9-3.8,12.5-4.2c1.7-.5,5.7-1.7,9-2.8,11.8-4,33.9-10,47-12.7,4.4-.9,9.6-2.1,11.5-2.6s6.4-1.4,10-2c3.6-.7,10.3-1.8,15-2.7,10-1.8,17.1-2.8,30-4.2,5.2-.6,15.6-1.9,23-2.7,9-1.1,22.9-1.7,42-1.8,27.6-.1,28.7,0,34.6,2.2,8.7,3.3,13.5,8.5,14.2,15.2.7,7.9-1.8,12.8-17.7,33.9-8,10.6-19,25.1-24.3,32.2-5.4,7.1-10.2,13.5-10.8,14.2-2.2,2.5-56.5,74.9-77.5,103.2-6.5,8.8-13,17.4-14.4,19.1s-3.3,4.1-4.1,5.3-7.1,9.8-14,19.1c-6.9,9.2-14.5,19.6-17,23.1s-13.8,19-25.2,34.6c-11.5,15.6-20.8,28.5-20.8,28.8s-3.3,5-7.2,10.5c-4,5.5-9.1,12.5-11.3,15.6s-4.8,6.6-5.7,7.8c-3.2,3.9-2.5,2.8-14.6,22.6-18.5,30.4-29,56.9-33.1,83.8-4.7,31.2,6.5,65.3,29.4,89.1,15.4,16,31.4,24.8,55,30.5,19.6,4.6,14.3,4.5,331,4.6,292.7,0,298.1,0,305-1.9,14.1-3.9,21.9-7.6,33-15.2,7.8-5.4,22.7-20,27.5-26.9,11.5-16.6,17.5-27.3,23.9-42.5,1.8-4.4,3.9-9.5,4.7-11.3s1.4-3.9,1.4-4.7c0-.9.4-2.3.9-3.3.6-.9,1.7-4.4,2.6-7.7,1-3.3,2.3-8,3-10.5,8-27,15.5-79.8,15.5-109.3,0-20.3-3.6-46.9-9.5-69.9-2.2-8.6-9-29.1-11.6-34.8-.6-1.4-1.7-3.9-2.3-5.5-5-12-25.7-50.2-28.5-52.5-.3-.3-2.3-3-4.3-6.1-12.3-18.9-41.8-52.6-63.4-72.5-14-12.9-37.9-32.9-46.1-38.4-1.1-.8-7.4-5.3-13.9-10-30.8-22.1-71.9-45.6-98.4-56-8.4-3.3-8-3.5-17.5,7.5-7.3,8.4-7.8,9.4-6.6,10.8.5.7,3.6,2.4,6.7,3.7,11.3,4.6,32.6,16,55.2,29.5,8,4.7,28.2,19.4,40.8,29.6,29.5,23.9,63.1,62.3,77.4,88.4,1.2,2.2,3,5.3,4,7,1.1,1.6,4.7,8.6,8,15.5,6.9,14.1,7.8,16.1,11.8,26.2,5.6,13.9,12.4,38.5,15.1,54.3.6,3.3,1.5,8.9,2.1,12.5,1.8,10.6,3.9,41.4,3.9,57.5.1,16-1.9,41.3-4.3,56-8.2,50.8-30,82.5-62.2,90.9-5.6,1.4-28.4,1.6-227.9,1.6-154.7,0-224.5-.3-230.9-1.1-31.4-3.8-49.7-11.9-55.9-24.8-1.9-4-2.2-6.2-2.1-16.6,0-11.7,1.6-19.6,5.3-26.1.6-1.1,2.4-4.8,4.1-8.4,3.8-7.9,13.8-22.8,30.8-45.7,30.6-41.3,111.8-151.6,112.7-153.1.6-.9,1.3-1.9,1.6-2.2.7-.6,9-12,19.4-26.5,7.2-10.1,16-22,30.3-41.3,3-4.1,13.7-18.7,23.8-32.5,10-13.9,19.5-26.8,20.9-28.7s3.9-5.3,5.5-7.5,11.8-16.2,22.7-31.2c34.9-47.9,33.3-45.4,33.3-52.4,0-5.6-3-11.4-7.7-14.7-10.5-7.5-41.7-17.3-74.8-23.6-16.4-3-41.3-6.2-56.2-7.2-5.7-.3-10.3-1-10.3-1.5s-25.5-.9-60-.9-60,.4-60,.9h0Z"/><path class="b" d="M249.25,931.19c.4,26.9.7,31,2.5,36.4,2.7,8.3,7.4,14.8,13.6,18.9,10.3,6.8,3.3,6.5,145.7,6.5h128.5l23.9-16c14-9.3,24.4-15.6,25.1-15.2.6.4,10.4,7.6,21.7,16l20.6,15.2,24.7-.2,24.6-.3-20.3-15c-38.7-28.6-45.3-33.6-45.3-34,0-.3,12.2-8.6,27-18.5l27-18,.5,29.3c.5,29.1.5,29.2,3.2,34.9,3.6,7.8,10.4,14,19.7,18l7.6,3.3,122,.3c127.4.3,133.3.1,144.3-4,6.2-2.3,13.3-8.3,15.2-12.8.7-1.8,1.1-6.4.8-12.4-.3-8.8-.5-9.7-3.4-13.3-3.9-4.8-8.4-7.9-14.8-10-4.5-1.5-11-1.8-51.9-2.1-45.9-.3-46.8-.3-46.3-2.2.4-1.1.9-3,1.2-4.3,1.1-3.7,5.3-8.6,9.4-10.7,3.7-1.9,6-2,50.5-2h46.5v-18h-50.8c-55,0-56.6.1-67.4,5.6-14.2,7.2-24.8,25.2-26,43.9l-.3,5,55.3.5,55.4.5,2.4,2.8c3,3.5,3.1,7.8.1,11.3-2,2.3-3.4,2.7-11.3,3.5-4.9.5-32.6.8-61.4.7l-52.5-.3-.3-36.8-.2-36.7h-31l-.2,36.7-.3,36.8h-32c-17.6,0-33.7-.4-35.7-.8-2.1-.4-5.1-1.9-6.8-3.4-5.7-4.8-6-6.6-6-39.4v-29.9h-59l-22.7,15.2c-12.5,8.3-23.2,15.1-23.8,15.1-.5,0-10.3-6.8-21.7-15.2l-20.6-15.2-69.9.3-69.8.3-8.4,3.2c-11,4.3-16.6,8-24.3,16.1-6.7,7.1-12.3,17.3-13.4,24.2l-.7,4h24.5l-5.7,5.2c-5.2,4.7-12.3,14-13.8,17.9-.5,1.5-3.6,1.8-23.2,2.4-12.4.4-30.4.6-39.8.3-15.9-.4-17.6-.6-21.5-2.8-3-1.7-4.9-3.8-6.7-7.4-2.5-5-2.5-5.1-2.5-34.3v-29.3h-32.2l.4,30.2h0ZM526.55,915.79c5,3.7,16.9,12.5,26.5,19.6s17.9,13.2,18.3,13.6c.7.6-29,21.1-36,24.8-2.8,1.5-118.9,1.7-119.8.2-1.1-1.7,2.2-7.5,6.5-11.3,7.4-6.8,6.8-6.7,49-6.7h38v-18h-96v-2.4c0-3.8,5.9-10.7,11.9-13.8l5.3-2.8h85.8v-5c0-2.8.3-5,.8-5,.4,0,4.8,3.1,9.7,6.8h0Z"/></svg>