<svg id="Layer_1" data-name="Layer 1" xmlns="http://www.w3.org/2000/svg" viewBox="0 0 383.61 255.74"><defs><style>.cls-1{fill:#fff;}</style></defs><g id="script"><path class="cls-1" d="M50.63,214.14l-47.87.16v38.06h9.39V222.94l18.42-.05v29.47h9.17v-29.5l10.89,0c5.48,0,7.62,2,7.62,7.33v22.2h9.49V230.14C67.74,217.08,64.54,214.09,50.63,214.14Z"/><path class="cls-1" d="M259.3,213.41l-27.42.1v7.93l27.42-.08c3.51,0,6.2.25,6.2,3.59v2.93l-22.93.05c-9.54,0-14.17,4-14.17,12.23s4.63,12.2,14.17,12.2H275V226.94C275,215.38,272.63,213.36,259.3,213.41Zm6.2,31-22.93,0c-3.07,0-4.76-1.57-4.76-4.43s1.69-4.43,4.76-4.44l22.93,0Z"/><polygon class="cls-1" points="157.95 213.76 126.66 213.87 126.66 222.63 145.31 222.58 157.95 213.76"/><polygon class="cls-1" points="169.82 243.57 150.19 243.59 137.56 252.36 169.82 252.36 169.82 243.57"/><path class="cls-1" d="M201.83,213.61l-34.43.12-48.24,33.62V225.58c-.25-9.88-3-11.67-15.75-11.63l-27.6.1v7.82l27.6-.08c3.53,0,6.24.25,6.24,3.54v2.89l-23.08.05c-9.6,0-14.26,4-14.26,12.06s4.66,12,14.26,12h41.6l48.31-33.62h0v33.62h25.34c17.95,0,22.34-3.81,22.34-19.41S219.78,213.55,201.83,213.61Zm-92.18,30.91H86.57c-3.09,0-4.79-1.55-4.79-4.37s1.7-4.37,4.79-4.37l23.08,0Zm90.84-1H185.9V222.47l14.59,0c11.72,0,14.2,1.8,14.2,10.53S212.21,243.54,200.49,243.55Z"/></g><g id="symbol"><path class="cls-1" d="M224.22,23.16C205.94,8.58,178.77,1.81,138.45,1.81A229.27,229.27,0,0,0,97.76,5a110.22,110.22,0,0,0-23.13,6.31A85.27,85.27,0,0,0,53.35,23a70.23,70.23,0,0,0-7.24,6.51s1.6,2.4,8.25,8.16a85.44,85.44,0,0,0,10,7.36A86.92,86.92,0,0,1,76.23,32.57,65.13,65.13,0,0,1,93.74,22.38c5.67-2.18,21-7.38,44.15-7.22,29.66-.13,43.33,5.86,50,9,4.41,2,17.43,9.14,26.05,21.68a88.24,88.24,0,0,0,9.84-7.52c6.68-6,7.53-6.86,8.22-7.81A80,80,0,0,0,224.22,23.16Zm-35.39-.91c-6.52-3-20.09-9.16-49.92-9.16h-.69c-23.76,0-39.72,5.2-45.48,7.43A70.77,70.77,0,0,0,63.91,42.2C60,39.61,52.06,33.13,49.12,29.78c-.2-.23,9.18,3.84,9.18,3.84a92.65,92.65,0,0,1,10.9-9.31c6.09-4.47,16.84-8.43,16.94-8.47,14-5,31.49-7.48,52.76-7.48,13.71.13,22.52.69,36.19,3.39,23.1,4.82,35.76,14.16,44.38,22.29,1.08-.36,5.42-2,9.59-3.46-1.06,1.59-8,7.86-14.62,12.48C211.7,39.15,203.62,29.34,188.83,22.25Z"/><path class="cls-1" d="M251.2,66.1A91,91,0,0,0,236.52,36l-1.38-1.87A140.81,140.81,0,0,1,216,50.4c-4.89,3.28-10.61,5.79-23.75,11-10.77,4.27-19.73,8.38-21.29,9.29-4.21,2-12,6.56-20.54,16.43a42.75,42.75,0,0,0-9.17,16c-.52,1.86-1.69,9.51-2,10.89,0,.07-.18.06-.22,0-.35-1.36-1.69-8.67-2.27-10.88-1.28-4.87-5.24-10.54-9.66-15.88A64.24,64.24,0,0,0,106,70.67c-.12-.07-13-6.22-20.58-9.5C74.18,56.29,66.8,53,61.81,49.69,51,42.46,45.75,36.57,43,32.87,28.77,49.15,24.88,69.28,24.44,71.52a107.84,107.84,0,0,0-1.18,33.65,109.89,109.89,0,0,0,6.36,27.63,71.48,71.48,0,0,0,22.11,31c9.5,7.74,21.84,13.6,34.9,17.21,6.81,1.87,24.36,6.59,53.2,6.59,37.36-.43,60.51-8.79,73.86-16.41,21.07-12,33.39-29.34,37.86-50.76C252.91,113.91,258.16,90.81,251.2,66.1Zm-16.31-7.8c5.15,14.14,6.41,24.43,6,39.53-.4,12.93-2.86,22-3.56,23.76-.95,3.89-4.19,8.11-10.6,12.71l-4.11,2.92a41.2,41.2,0,0,0-7.35,7.44c-.06.06-.13.06,0-.06,1.37-2,2.55-4.12,3.84-6.32,9.89-16.87,10.42-38.73,10.42-38.73a114.91,114.91,0,0,0-1.54-24.66S233.07,65.08,234.89,58.3Zm-9.5,18.28c.74,1.51,1.86,12.42,1.25,23.17,0,0-.06,1.94-.37,5.27a87,87,0,0,1-9.06,32C205,160.51,180,167.51,168.05,169.6a167.91,167.91,0,0,1-30.19,2.16c-5,0-22.6.06-38.78-4.18a58.82,58.82,0,0,1-24.81-12.89c-9.71-8.74-15.52-18-19.66-31.52,0,0-3.22-11-3.65-20.78a140.78,140.78,0,0,1,.89-25.59C58.71,81,65.64,84.05,84.42,89.27,95.82,92.56,103.67,94.91,113,102a72.94,72.94,0,0,1,14.53,15.34,68.4,68.4,0,0,1,7.56,14s.77,1.71,1.13,2.49c.78,2,1.75,2.79,3,2.78,1.47,0,2.69-1.3,3.37-3.09.48-1,1.64-4.53,1.64-4.53a64.26,64.26,0,0,1,6.07-12.76,55,55,0,0,1,15-15.23c10.32-7.21,21.23-10.69,26.63-12.42,0,0,6.37-2,8.92-2.57C217.89,82.13,225.39,76.58,225.39,76.58Zm-60.48,11.3c8.23-6.54,24.56-12.07,32.35-14.81.93-.32,1.74-.63,2.43-.85,14.77-4.88,33.4-15.67,33.4-15.67A154.48,154.48,0,0,1,226,73.11c-7.61,5.83-16.12,8.2-25,10.51-2.4.63-5.75,1.55-9.33,2.6C186.36,88,174.5,91.61,164.1,99.11a60.64,60.64,0,0,0-15.76,16.29,63.86,63.86,0,0,0-6.1,13c-.63,1.7-.83,2.59-1.52,4.11s-1.58,1.37-1.58,1.37c0-.3,0-12.52,0-12.52s.33,0,.61-.62c.1-.22,1.54-3.56,1.86-4.25a82.45,82.45,0,0,1,7.83-12.64A77.89,77.89,0,0,1,164.91,87.88ZM44.49,56.39C56.55,64.53,62.86,66.48,70,69.57,81.1,74,92.59,78,95.84,79.21c14.27,5.18,18.82,9.87,20.81,11.62a91,91,0,0,1,12.18,13.25c.06.09,6,9,7.9,13.09.14.25.14.36.09.43s-.15.09-.25.18-.5-.41-.57-.59A48.08,48.08,0,0,0,127.07,106c-5-4.67-11.42-8.82-19.71-12.81a71.06,71.06,0,0,0-13.55-4.09c-5.17-1.13-10.34-2.52-15-3.74-9.45-2.78-20.64-6.67-27.57-11.81,0,0-2-3.94-3.44-7.71C47,63.46,44.49,56.39,44.49,56.39Zm-2,1.33a103.76,103.76,0,0,0,7.23,18,128.69,128.69,0,0,0-1.29,26.87,93.47,93.47,0,0,0,6.24,28.16C58,139,61.33,145.85,71.09,154.8c.06.08,0,.12-.08.07a82.56,82.56,0,0,0-12.42-9.08c-.85-.47-1.87-1-3-1.5-4.58-2.2-11.15-5.72-12.83-11.08-4.47-10.81-6.94-23.15-6.92-39.62C35.58,87.77,36.83,70.74,42.47,57.72ZM249,120c-4.8,21.52-17.31,37.94-36.26,48.87-13.11,7.57-38.6,16.15-69,16.39-9.4.08-33.31.25-55.44-6.3-14.62-4.33-25.93-9.61-34.92-17.14C44.06,154,37.06,145,32.73,134.1c0,0-.23-.59-.39-1-.05-.19.08,0,.08,0l.51.85A8.37,8.37,0,0,0,36,137c1.45.69,3.38,1.44,4.87,2l.38.15c1.51.6,3.37,2.58,4.57,4.11s6.76,10,12.63,15.12c12.86,10.79,28.66,17.05,46.8,19.73a226.22,226.22,0,0,0,33.32,2.58,178.1,178.1,0,0,0,29.51-2.28c14-2.48,29-5.76,42.92-15.1,8.46-5.68,15.84-12.9,20.84-21.59,2.53-4.4,6.86-13,8.67-21.06a119.51,119.51,0,0,0,3-27.61c-.06-14.83-2.22-25.5-7.45-37.65-.11-.23-.47-1-.78-1.59A24.39,24.39,0,0,0,235.7,50a64.2,64.2,0,0,0-.25-11.93l.42.68A90.06,90.06,0,0,1,249,66.63C255.51,89.7,250.68,113.16,249,120Z"/></g></svg>