<?xml version="1.0" encoding="utf-8"?>
<!-- Generator: Adobe Illustrator 26.0.2, SVG Export Plug-In . SVG Version: 6.00 Build 0)  -->
<svg version="1.1" id="Layer_1" xmlns="http://www.w3.org/2000/svg" xmlns:xlink="http://www.w3.org/1999/xlink" x="0px" y="0px"
	 viewBox="0 0 585.7 174.4" style="enable-background:new 0 0 585.7 174.4;" xml:space="preserve">
<style type="text/css">
	.st0{fill:#FFFFFF;}
</style>
<path class="st0" d="M136,71.6c-0.4,12.8-6.3,25.9-15.3,37.7c-2.8,3.7-5.9,7.2-9.3,10.4c-1.1,0.8-1.6,2.2-1.3,3.6
	c1.5,7.9,2,15.9,1.5,23.9c-0.3,5.8-1.8,11.4-4.4,16.5c-3.8,7.3-10.6,10.3-18.7,8.8c-9-1.8-16.1-6.9-22.8-12.6
	c-3.7-3.2-7.1-6.6-10.3-10.3c-1.3-1.5-3.2-2.2-5.1-2c-14.4,0.5-28-2.1-38.6-12.9c-8.3-8.4-11.3-18.8-10.5-30.4
	C1.9,93.1,5.8,83,11.9,73.7c0.9-1.2,1.1-2.8,0.6-4.2c-3.3-11.5-5.7-23-5.9-35c-0.1-6.8,0.2-13.6,2.6-20.1C13.5,2.6,23-1.7,34.6,3
	C44.8,7,53,13.9,60.4,21.8c0.9,0.9,1.7,1.9,2.6,2.9c2.1,2.4,3.8,5.9,6.4,6.8s6.1-1,9.2-1.5c10.6-1.7,21.1-1.4,31.3,2.3
	c7.2,2.6,13.3,6.5,18,12.5C133.5,52,136.1,60.2,136,71.6z M95.1,89.7c-0.1-0.4-0.2-0.9-0.4-1.4c-6.1-16.1-14-31.4-23.7-45.7
	c-1.1-1.6-2.2-1.6-3.8-1.1c-12,4-23.1,10.3-32.6,18.6c-1.4,1.2-1.6,2.3-1,4.1c6,17.6,14.8,33.8,24.6,49.4c0.7,1.1,1.6,2.1,3.1,0.7
	c0.7-0.5,1.5-0.9,2.4-1.1c11-5,21-12,29.5-20.7C94.1,91.8,95.2,91.1,95.1,89.7z M99.4,85.5c5.2-7,9.2-13.9,10.4-22
	c1.4-8.8-0.7-16.4-8.9-21.2c-7.6-4.4-15.9-4.5-24.3-3c-2.6,0.5-0.8,2-0.3,2.7c3.8,5.4,7.2,11,10.4,16.7
	C91.5,67.4,95.7,76.3,99.4,85.5z M26.9,30.9c0.2,6.7,1.2,13.3,2.8,19.7c0.4,1.7,0.8,1.9,2.2,0.8c9-7.4,19.2-13.3,30.2-17.2
	c1.4-0.5,1.6-1,0.6-2.3c-5-6.1-10.5-11.6-17.3-15.6c-2.2-1.4-4.6-2.3-7.2-2.6c-2.9-0.3-5.5,0.1-7.5,2.8
	C27.4,20.8,27.1,25.9,26.9,30.9z M16.6,83.3c-4.1,8.5-6.9,17.1-1.9,26c4,7.1,10.9,9.5,19.4,10.4C27.4,108,21.6,95.8,16.6,83.3z
	 M82.6,139.6c4.7,2.4,8.8,5.7,14,2.9c5.9-3.2,5.8-9.2,6.5-15.3c-3.7,2.4-6.8,4.6-10.1,6.6S86.4,137.5,82.6,139.6z"/>
<path class="st0" d="M431.1,109c-8.5,0-17.1,0.1-25.6,0c-2.3,0-2.6,0.6-2.2,2.7c1.6,7.8,8.5,12.6,17.4,12.1
	c6.2-0.3,11.4-2.4,14.6-8.1c0.6-1.2,1.6-1,2.5-1c6.1,0,12.3,0.1,18.5,0c2.2,0,2.3,0.6,1.4,2.3c-3.1,6.4-7.6,11.7-14,14.8
	c-15.3,7.5-31,7.7-46.5,0.7c-12.9-5.8-18.5-17.4-17.1-33.2c1-12.2,9.8-22.6,22.1-26.3c10.6-3.2,21.9-3.5,32.6-0.7
	c15.2,3.9,24.1,14.9,24.7,30.5c0.2,6.2,0.2,6.2-5.8,6.2L431.1,109z M420.2,96.1L420.2,96.1c3.6,0,7.1,0,10.7,0c1.9,0,4.9,1,5.5-0.5
	c0.9-1.9-0.8-4.3-2.1-6.2c-0.9-1.2-2-2.2-3.2-3c-4.3-2.6-9.4-3.5-14.3-2.6c-5.7,0.9-10.3,3.5-12.4,9.3c-0.8,2.1-0.6,3.2,2.1,3.1
	C411.1,95.9,415.6,96.1,420.2,96.1z"/>
<path class="st0" d="M175.4,114.5c3,0,6,0,8.9,0c0.9,0,1.8,0,2,1.2c1,4.2,4.3,6,8.1,6.8c5.7,1.2,11.7,1.3,17.4,0.2
	c0.4-0.1,0.8-0.2,1.1-0.4c3.7-1.2,5.9-3.1,5.6-5.3c-0.5-3.7-3.7-3.8-6.4-4.1c-7.2-0.8-14.4-1.3-21.6-1.9c-5.8-0.5-11.4-1.3-16.3-4.7
	c-8.1-5.4-10.3-16.4-5-24.5c1.3-2,3.1-3.7,5.1-5c6.1-4,13-5.3,20-5.9c9.8-0.8,19.6-0.6,29.1,2.7c6.5,2.3,11.9,5.9,13.9,13
	c0.1,0.5,0.3,1,0.4,1.4c0.3,2.2,0.4,3.6-2.8,3.4c-5.1-0.3-10.3-0.1-15.5-0.1c-1,0-1.9,0.1-2.3-1.2c-1.4-3.7-4.5-5.3-8.1-6.1
	c-5.3-1.2-10.8-1.1-16.1,0.4c-2.1,0.6-4.5,1.5-4.6,4.4s2.4,3.6,4.6,4.3c7.1,2.1,14.5,1.8,21.8,2.4c4.2,0.2,8.3,0.8,12.3,1.9
	c7.2,2.3,12.1,6.7,13,14.6s-1.8,14.4-8.5,19c-5.7,3.8-12.2,5.2-18.8,5.8c-11.5,1-23,1-34-3.2c-7.3-2.8-12.3-7.8-14-15.6
	c-0.5-2.2-0.5-3.8,2.7-3.4C170.1,114.6,172.8,114.6,175.4,114.5z"/>
<path class="st0" d="M282.5,137.2c-8.1,0-16-1.1-23.4-4.6c-13.1-6.1-18.8-16.7-18.2-30.8c0.6-13.3,7.4-22.7,19.8-27.3
	c15.1-5.8,30.5-5.8,45.5,0.5c12.8,5.4,19.2,16.7,18.5,30.6s-8.5,24-22,28.6C296.2,136.3,289.4,137.3,282.5,137.2z M302.2,103.8
	c0-10.8-8-18.3-19.4-18.3s-19.5,7.4-19.6,18.2c-0.1,11,7.8,18.6,19.4,18.6S302.2,114.7,302.2,103.8L302.2,103.8z"/>
<path class="st0" d="M519.8,114.5c1.6,0,3.2,0,4.8,0c3.2,0,6.4-0.9,7.8,3.8c0.9,3,4.7,3.8,7.7,4.3c5.2,1,10.5,1,15.7,0.1
	c2.4-0.3,4.6-1.4,6.3-3c1.5-1.2,1.6-3.4,0.4-4.9c-0.4-0.4-0.8-0.8-1.4-1c-1.7-0.7-3.6-1.2-5.5-1.3c-9.5-1.2-19.2-0.9-28.6-3
	c-11.9-2.6-18.4-12.9-15.1-23.6c1.9-6.1,6.2-10,12-11.9c14.8-5.2,30.9-5.2,45.7,0c6.9,2.4,11.9,7,12.9,14.8c0.2,1.8-0.1,2.4-2.1,2.4
	c-5.5-0.1-10.9-0.1-16.4,0c-1.1,0-1.9-0.1-2.4-1.4c-1.1-3-3.5-4.7-6.6-5.5c-5.5-1.5-11.2-1.6-16.7-0.2c-0.8,0.2-1.5,0.4-2.2,0.8
	c-1.8,0.8-3.4,1.9-3.3,4.1c0.1,2,1.8,3,3.5,3.6c4.4,1.6,9.1,1.8,13.7,2.2c6.3,0.5,12.7,0.4,18.9,1.8c9.1,2,14.5,7.2,15.5,14.6
	c1.3,9.8-3,17.4-12,21.6c-4.9,2.2-10.2,3.5-15.5,3.8c-10.8,0.9-21.6,0.9-32-2.6c-8.5-2.8-14.3-8.2-15.9-17.4
	c-0.3-1.6-0.1-2.3,1.8-2.2C513.9,114.6,516.8,114.5,519.8,114.5z"/>
<path class="st0" d="M355.9,93.1c0-13.1,0-26.1,0-39.2c0-1.8,0.3-2.6,2.4-2.5c5.4,0.2,10.7,0.1,16.1,0c1.7,0,2.4,0.2,2.4,2.2
	c-0.1,26.4-0.1,52.8,0,79.2c0,2-0.7,2.3-2.4,2.2c-5.4-0.1-10.7-0.1-16.1,0c-2.1,0-2.4-0.7-2.4-2.6
	C355.9,119.4,355.9,106.2,355.9,93.1z"/>
<path class="st0" d="M348.8,93.2c0,13.1,0,26.1,0,39.2c0,2-0.4,2.8-2.6,2.7c-5.3-0.2-10.5-0.1-15.8,0c-1.7,0-2.5-0.2-2.4-2.2
	c0.1-26.4,0.1-52.8,0-79.3c0-1.7,0.4-2.2,2.1-2.2c5.5,0.1,10.9,0.1,16.4,0c1.9,0,2.3,0.5,2.3,2.3C348.8,66.9,348.8,80.1,348.8,93.2z
	"/>
<path class="st0" d="M485,80.4c3.8-3.6,7.3-6.7,11.7-8.4c3.9-1.4,8.2-1.8,12.3-1.3c1.2,0.1,1.8,0.5,1.7,1.8c-0.1,4.5-0.1,8.9,0,13.4
	c0,1.3-0.3,1.6-1.7,1.5c-3.6-0.4-7.2-0.2-10.6,0.6c-7.9,2-13,8.7-13.2,17.6s-0.1,18,0,27c0,2.1-0.5,2.7-2.6,2.6
	c-5.3-0.1-10.5-0.1-15.8,0c-2,0-2.4-0.6-2.4-2.5c0.1-19.1,0.1-38.2,0-57.3c0-1.8,0.2-2.6,2.4-2.5c5.4,0.2,10.7,0.2,16.1,0
	c2,0,2.6,0.6,2.4,2.5C484.9,76.7,485,78.2,485,80.4z"/>
</svg>
