<svg version="1.1" id="Layer_2" xmlns="http://www.w3.org/2000/svg" x="0" y="0" viewBox="0 0 300 200" style="enable-background:new 0 0 300 200" xml:space="preserve"><style>.st23{opacity:.5}</style><radialGradient id="SVGID_1_" cx=".68" cy="-1.679" r="161.605" gradientTransform="matrix(1.1991 .00749 -.00294 .4708 148.302 56.549)" gradientUnits="userSpaceOnUse"><stop offset="0" style="stop-color:#fff"/><stop offset=".227" style="stop-color:#fff"/><stop offset=".648" style="stop-color:#fff"/><stop offset=".669" style="stop-color:#f9f9f9"/><stop offset=".698" style="stop-color:#e8e8e8"/><stop offset=".731" style="stop-color:#ccc"/><stop offset=".767" style="stop-color:#a5a5a5"/><stop offset=".806" style="stop-color:#727272"/><stop offset=".846" style="stop-color:#363636"/><stop offset=".859" style="stop-color:#212121"/><stop offset=".881" style="stop-color:#2a2a2a"/><stop offset=".917" style="stop-color:#414242"/><stop offset=".963" style="stop-color:#67696a"/><stop offset="1" style="stop-color:#8b8f90"/></radialGradient><path d="M150 114.8c82.8 0 150-25.6 150-57.1S232.8.6 150 .6 0 26.2 0 57.7c0 31.6 67.2 57.1 150 57.1z" style="fill:url(#SVGID_1_)"/><radialGradient id="SVGID_00000142868013125826007470000002932822033651270566_" cx="2.134" cy="-33.707" r="145.446" gradientTransform="matrix(1.1991 0 0 .6245 148.307 38.408)" gradientUnits="userSpaceOnUse"><stop offset=".017" style="stop-color:#3e3a39"/><stop offset=".851" style="stop-color:#000"/><stop offset="1" style="stop-color:#3e3a39"/></radialGradient><path style="fill:url(#SVGID_00000142868013125826007470000002932822033651270566_)" d="M150 8.1c41.2-.2 82.1 7.6 104 17.9 6.9 4.1 10.5 7.7 17.5 21.1 5.5 10.9 11 21.4 3.2 26.9-11.9 9.4-38 18.8-61.9 22.6-13 2.3-21.2-6.4-37-6.2-9.6 0-17.1-.2-25.9-.2-8.8 0-16.4.2-25.9.2-15.8-.2-24 8.4-37 6.2C63.2 92.7 37 83.4 25.1 74c-7.7-5.5-2.3-16 3.2-26.9 7-13.4 10.7-17 17.6-21.1C67.9 15.7 108.8 8 150 8.1z"/><linearGradient id="SVGID_00000007428447718218420840000010669844258026384031_" gradientUnits="userSpaceOnUse" x1="149.999" y1="5.054" x2="149.999" y2="48.698"><stop offset="0" style="stop-color:#fff"/><stop offset=".113" style="stop-color:#fff;stop-opacity:.8699"/><stop offset=".869" style="stop-color:#fff;stop-opacity:0"/></linearGradient><path style="fill:url(#SVGID_00000007428447718218420840000010669844258026384031_)" d="M25.2 74.1c2.2 1.8 5 3.5 8.1 5.3 4.2-6.7 7.6-9.5 12.7-12.5C67.9 56.5 108.8 48.8 150 49c41.2-.2 82.1 7.6 104 17.9 5.1 3 8.4 5.8 12.7 12.5 3.2-1.7 5.9-3.5 8.1-5.3 7.7-5.5 2.3-16-3.2-26.9-7-13.4-10.7-17-17.5-21.1-22-10.4-62.9-18.1-104.1-18-41.2-.1-82.1 7.6-104 18-6.9 4.1-10.5 7.7-17.6 21.1-5.5 10.9-10.9 21.3-3.2 26.9z"/><linearGradient id="SVGID_00000160879864607661784960000008742940308140949431_" gradientUnits="userSpaceOnUse" x1="149.999" y1="4.246" x2="149.999" y2="87.71"><stop offset=".097" style="stop-color:#231815"/><stop offset=".201" style="stop-color:#2a201e"/><stop offset=".369" style="stop-color:#3d3636"/><stop offset=".579" style="stop-color:#5c595c"/><stop offset=".746" style="stop-color:#797980"/><stop offset=".857" style="stop-color:#6f6f73"/><stop offset="1" style="stop-color:#666"/></linearGradient><path style="fill:url(#SVGID_00000160879864607661784960000008742940308140949431_)" d="M277 48c-6.7-12.7-10.8-19.3-23.1-24.8C228.1 12.5 190.7 5.6 150 5.7c-40.7-.2-78.1 6.8-103.8 17.4C33.8 28.6 29.8 35.3 23 48c-5.4 10.6-8.5 19.9-1.2 25.6 12.9 10.7 36.4 19.8 65.9 24.7 14.3 2.2 21.3-5.6 36.8-5.6 9.4 0 16.8-.2 25.6-.2 8.7 0 16.1.2 25.6.2 15.4 0 22.4 7.8 36.8 5.6 29.5-4.9 52.9-14 65.9-24.7 7-5.7 4-15-1.4-25.6zm-3.9 25.5c-11.7 9.2-37.5 18.3-61 22-12.8 2.2-20.9-6.2-36.5-6h-51.2c-15.6-.2-23.7 8.2-36.5 6-23.5-3.8-49.4-12.9-61.1-22-7.6-5.4-2.3-15.6 3.2-26.2 6.9-13 10.6-16.6 17.3-20.5C68.9 16.7 109.3 9.2 150 9.3c40.7-.2 81.1 7.4 102.6 17.5 6.8 4 10.4 7.5 17.3 20.5 5.5 10.7 10.9 20.8 3.2 26.2z"/><linearGradient id="SVGID_00000023280744765906485370000012963578664861051049_" gradientUnits="userSpaceOnUse" x1="150" y1="19.443" x2="150" y2="112.699"><stop offset=".2" style="stop-color:#1a0b08;stop-opacity:0"/><stop offset=".787" style="stop-color:#1a0b08;stop-opacity:.6512"/></linearGradient><path style="fill:url(#SVGID_00000023280744765906485370000012963578664861051049_)" d="M150 92.7c-41.8-1.9-44.7 7.1-59.4 7.1C40.8 91.6 5.1 73.6 1 52.2c-.2 1.3-.4 2.7-.4 4 0 31.1 66.9 56.3 149.4 56.3s149.4-25.2 149.4-56.3c0-1.4-.1-2.7-.4-4-4.1 21.5-40.3 39.7-90.7 47.8-13.3-1.8-13.2-7.7-58.3-7.3z"/><linearGradient id="SVGID_00000135673046996542621330000012080698332371607175_" gradientUnits="userSpaceOnUse" x1="150" y1="106.126" x2="150" y2="89.723"><stop offset=".22" style="stop-color:#1a0b08;stop-opacity:0"/><stop offset=".904" style="stop-color:#1a0b08;stop-opacity:.6512"/></linearGradient><path style="opacity:.95;fill:url(#SVGID_00000135673046996542621330000012080698332371607175_)" d="M204.2 100.3c-4.7-2.6-12.2-4.7-21.6-6.3-5.7-.7-11.7-1.4-17.4-1.9-4.8-.3-9.9-.5-15.1-.5h-.1c-5.2 0-10.3.2-15.1.5-5.8.5-11.7 1.2-17.4 1.9-9.3 1.5-16.9 3.7-21.6 6.3-1.7.9-1.5 3.3-.3 3.5 16.7 2.9 35.1 4.5 54.5 4.5 19.3 0 37.7-1.6 54.5-4.5 1.1-.1 1.3-2.5-.4-3.5z"/><linearGradient id="SVGID_00000146478760453722456840000013314523508524375969_" gradientUnits="userSpaceOnUse" x1="150.004" y1="96.436" x2="150.004" y2="-4.876"><stop offset="0" style="stop-color:#eeedee"/><stop offset=".05" style="stop-color:#dfdedf"/><stop offset=".371" style="stop-color:gray"/><stop offset=".395" style="stop-color:#777"/><stop offset=".521" style="stop-color:#515151"/><stop offset=".646" style="stop-color:#333"/><stop offset=".769" style="stop-color:#1e1e1e"/><stop offset=".888" style="stop-color:#111"/><stop offset="1" style="stop-color:#0d0d0d"/></linearGradient><path style="fill:url(#SVGID_00000146478760453722456840000013314523508524375969_)" d="M278.7 47.9c-6.8-13-10.9-19.9-23.5-25.5-26.1-10.9-64-18.1-105.2-17.9-41.2-.2-79.1 7-105.2 17.9C32.3 28 28.2 34.8 21.3 47.9c-5.5 10.9-8.6 20.5-1.2 26.3 13.1 11 36.8 20.4 66.7 25.4 14.5 2.2 21.6-5.8 37.2-5.8h51.8c15.7 0 22.7 8 37.2 5.8 29.9-5 53.6-14.4 66.7-25.4 7.6-5.9 4.5-15.4-1-26.3zm-3.9 26.2c-11.9 9.4-38 18.8-61.9 22.6-13 2.3-21.2-6.4-37-6.2h-51.8c-15.8-.2-24 8.4-37 6.2-23.8-3.9-50-13.2-61.9-22.6-7.7-5.5-2.3-16 3.2-26.9 7-13.4 10.7-17 17.6-21.1C67.9 15.7 108.8 8 150 8.2c41.2-.1 82.1 7.6 104 17.9 6.9 4.1 10.5 7.7 17.5 21.1 5.5 10.9 11 21.4 3.3 26.9z"/><linearGradient id="SVGID_00000144317132440653799860000012732706845732659129_" gradientUnits="userSpaceOnUse" x1="78.001" y1="66.584" x2="78.001" y2="-.947"><stop offset="0" style="stop-color:#fff"/><stop offset="1" style="stop-color:#fff;stop-opacity:0"/></linearGradient><path style="opacity:.9;fill:url(#SVGID_00000144317132440653799860000012732706845732659129_)" d="M151.5 1h-.4C116 1 83.8 5.7 58.4 13.3 33.7 20.7 5.8 34.1 4.5 53.9 10.1 33 47.4 13.4 109.7 6.4c13.2-1.5 27.1-2.4 41.4-2.3H151.4V1z"/><linearGradient id="SVGID_00000059309045096190877240000000523876769513042597_" gradientUnits="userSpaceOnUse" x1="3900.376" y1="66.584" x2="3900.376" y2="-.947" gradientTransform="matrix(-1 0 0 1 4122.342 0)"><stop offset="0" style="stop-color:#fff"/><stop offset="1" style="stop-color:#fff;stop-opacity:0"/></linearGradient><path style="opacity:.9;fill:url(#SVGID_00000059309045096190877240000000523876769513042597_)" d="M148.5 1h.4c35.1 0 67.3 4.8 92.7 12.3 24.7 7.4 52.6 20.8 53.9 40.6-5.6-20.9-42.9-40.5-105.3-47.5C177 4.9 163.1 4 148.8 4.1H148.5V1z"/><linearGradient id="SVGID_00000039114763845565868050000011341921389452420506_" gradientUnits="userSpaceOnUse" x1="147.626" y1="78.577" x2="147.626" y2="31.218"><stop offset="0" style="stop-color:#5a5857"/><stop offset=".011" style="stop-color:#4d4b4b"/><stop offset=".035" style="stop-color:#373636"/><stop offset=".064" style="stop-color:#262626"/><stop offset=".1" style="stop-color:#1b1a1a"/><stop offset=".149" style="stop-color:#141414"/><stop offset=".287" style="stop-color:#121212"/><stop offset=".397" style="stop-color:#181818"/><stop offset=".541" style="stop-color:#272828"/><stop offset=".705" style="stop-color:#414344"/><stop offset=".881" style="stop-color:#666869"/><stop offset="1" style="stop-color:#828587"/></linearGradient><path style="fill:url(#SVGID_00000039114763845565868050000011341921389452420506_)" d="M206.1 76.5c-2.2 0-9.5-.4-13.6-5-4.7-5.4-4.6-11-4.6-11.6V46.3c0-.6-.1-6.2 4.6-11.6 4.1-4.7 11.5-5 13.7-5H244.4c1.5 0 2.3.6 2.8 1.1 1.1 1.2 1.1 2.8 1 3.1v9h-33.7c-2.9 0-7 2.4-7 6.6v7.2c0 4.3 4.1 6.6 7 6.6h33.7v8.9c0 .3 0 2-1 3.1-.5.5-1.3 1.1-2.8 1.1h-37.9c-.1.1-.2.1-.4.1zm-117 0H50.9c-1.4 0-2.3-.6-2.8-1.1-1.1-1.2-1.1-2.8-1-3.1v-9h33.7c2.9 0 7-2.4 7-6.6v-10c0-.9-.1-1.5-.1-1.6-.4-1.5-1.8-2.6-3.4-2.6H59.2V33c0-1.7 1.1-3.3 3.5-3.3h41.7c1.4 0 2.9.9 2.9 3v27.1c0 .6.1 6.2-4.6 11.6-4.1 4.7-11.4 5.1-13.6 5.1zm78.3 0c-6.4 0-8.4-4.1-8.4-4.3l-8.5-18.3c-.4-.9-1.4-1-1.5-1h-2.4c-.2 0-1.1.1-1.5 1l-8.5 18.3c-.1.2-2 4.3-8.4 4.3h-15L132.4 35c.2-.4 1.9-4.2 6.7-5.1h17.3c4.8.9 6.5 4.6 6.7 5.1l19.3 41.5h-15z"/><linearGradient id="SVGID_00000011030400383376598390000009601757548335753883_" gradientUnits="userSpaceOnUse" x1="218.923" y1="40.634" x2="208.088" y2="54.842"><stop offset=".194" style="stop-color:#fff;stop-opacity:0"/><stop offset=".509" style="stop-color:#fff"/><stop offset=".849" style="stop-color:#fff;stop-opacity:0"/></linearGradient><path style="fill:url(#SVGID_00000011030400383376598390000009601757548335753883_)" d="M207.5 49.5c0-4.3 4.1-6.6 7-6.6h33.7l-12.7-13.1h-29.3c-2.2 0-9.5.4-13.7 5-4.6 5.4-4.6 11-4.6 11.6v6.8h19.6v-3.7z"/><linearGradient id="SVGID_00000051345875566163725730000002752630400433470858_" gradientUnits="userSpaceOnUse" x1="240.309" y1="28.791" x2="247.766" y2="39.535"><stop offset="0" style="stop-color:#fff;stop-opacity:0"/><stop offset=".487" style="stop-color:#fff"/><stop offset=".71" style="stop-color:#fff;stop-opacity:0"/></linearGradient><path style="fill:url(#SVGID_00000051345875566163725730000002752630400433470858_)" d="M248.2 42.9v-9c0-.3 0-1.9-1-3.1-.5-.5-1.3-1.1-2.8-1.1h-8.9l12.7 13.2z"/><linearGradient id="SVGID_00000178175203217857115420000012756984772572251548_" gradientUnits="userSpaceOnUse" x1="218.923" y1="-3006.785" x2="208.088" y2="-2992.575" gradientTransform="matrix(1 0 0 -1 0 -2941.224)"><stop offset=".145" style="stop-color:#fff;stop-opacity:0"/><stop offset=".509" style="stop-color:#fff"/><stop offset=".861" style="stop-color:#fff;stop-opacity:0"/></linearGradient><path style="fill:url(#SVGID_00000178175203217857115420000012756984772572251548_)" d="M207.5 56.7c0 4.3 4.1 6.6 7 6.6h33.7l-12.7 13.1h-29.3c-2.2 0-9.5-.4-13.7-5.1-4.6-5.4-4.6-11-4.6-11.6v-6.8h19.6v3.8z"/><linearGradient id="SVGID_00000022544549598298717800000009805045877341010321_" gradientUnits="userSpaceOnUse" x1="240.307" y1="-3018.629" x2="248.298" y2="-3007.117" gradientTransform="matrix(1 0 0 -1 0 -2941.224)"><stop offset=".067" style="stop-color:#fff;stop-opacity:0"/><stop offset=".487" style="stop-color:#fff"/><stop offset=".56" style="stop-color:#fff;stop-opacity:.8574"/><stop offset="1" style="stop-color:#fff;stop-opacity:0"/></linearGradient><path style="fill:url(#SVGID_00000022544549598298717800000009805045877341010321_)" d="M248.2 63.3v9c0 .3 0 1.9-1 3.1-.5.5-1.3 1.1-2.8 1.1h-8.9l12.7-13.2z"/><g><linearGradient id="SVGID_00000066474607858909177170000008505732527944456870_" gradientUnits="userSpaceOnUse" x1="87.662" y1="48.525" x2="73.707" y2="69.317"><stop offset=".145" style="stop-color:#fff;stop-opacity:0"/><stop offset=".425" style="stop-color:#fff;stop-opacity:.5826"/><stop offset=".479" style="stop-color:#fff"/><stop offset=".726" style="stop-color:#fff;stop-opacity:0"/></linearGradient><path style="fill:url(#SVGID_00000066474607858909177170000008505732527944456870_)" d="M87.8 53.1v3.6c0 4.3-4.1 6.6-7 6.6H47l12.7 13.1H89c2.2 0 9.5-.4 13.7-5.1 4.6-5.4 4.6-10.9 4.6-11.6v-6.8H87.8z"/><linearGradient id="SVGID_00000033347751789561279060000006232970804795173020_" gradientUnits="userSpaceOnUse" x1="59.479" y1="36.788" x2="67.381" y2="29.139"><stop offset=".262" style="stop-color:#fff;stop-opacity:0"/><stop offset=".456" style="stop-color:#fff"/><stop offset=".652" style="stop-color:#fff;stop-opacity:0"/></linearGradient><path style="fill:url(#SVGID_00000033347751789561279060000006232970804795173020_)" d="M62.7 29.7c-2.4 0-3.5 1.7-3.5 3.3v9.5l12.4-12.8h-8.9z"/><linearGradient id="SVGID_00000016757731993514690750000004637639144239139510_" gradientUnits="userSpaceOnUse" x1="48.684" y1="67.23" x2="54.961" y2="77.737"><stop offset=".285" style="stop-color:#fff;stop-opacity:.1"/><stop offset=".509" style="stop-color:#fff"/><stop offset=".726" style="stop-color:#fff;stop-opacity:0"/></linearGradient><path style="fill:url(#SVGID_00000016757731993514690750000004637639144239139510_)" d="M47 72.3c0 .3 0 1.9 1 3.1.5.5 1.3 1.1 2.8 1.1h8.9L47 63.4v8.9z"/><linearGradient id="SVGID_00000163775187995782515300000014514123248635233430_" gradientUnits="userSpaceOnUse" x1="83.956" y1="38.123" x2="91.131" y2="49.018"><stop offset=".255" style="stop-color:#fff;stop-opacity:0"/><stop offset=".509" style="stop-color:#fff"/><stop offset=".727" style="stop-color:#fff;stop-opacity:0"/></linearGradient><path style="fill:url(#SVGID_00000163775187995782515300000014514123248635233430_)" d="M107.4 32.7c0-2.1-1.5-3-2.9-3H71.6L59.2 42.5h25c1.6.1 3 1.1 3.4 2.6 0 .1.1.7.1 1.6V53h19.6V32.7z"/></g><g><linearGradient id="SVGID_00000079478079564691668290000002011086456437195921_" gradientUnits="userSpaceOnUse" x1="160.439" y1="63.331" x2="172.695" y2="76.765"><stop offset=".145" style="stop-color:#fff;stop-opacity:0"/><stop offset=".487" style="stop-color:#fff"/><stop offset=".715" style="stop-color:#fff;stop-opacity:0"/></linearGradient><path style="fill:url(#SVGID_00000079478079564691668290000002011086456437195921_)" d="M158.9 72.2c.1.2 2 4.3 8.4 4.3h15l-30.5-19.6 7.1 15.3z"/><linearGradient id="SVGID_00000181789289818641595250000007382038083652146842_" gradientUnits="userSpaceOnUse" x1="139.023" y1="65.293" x2="120.023" y2="78.065"><stop offset=".145" style="stop-color:#fff;stop-opacity:0"/><stop offset=".5" style="stop-color:#fff"/><stop offset=".726" style="stop-color:#fff;stop-opacity:0"/></linearGradient><path style="fill:url(#SVGID_00000181789289818641595250000007382038083652146842_)" d="M113.1 76.5h15c6.4 0 8.3-4.1 8.4-4.3l7.2-15.4-30.6 19.7z"/><radialGradient id="SVGID_00000084528395788735983500000006734131996893239945_" cx="-.148" cy="-19.479" r="20.473" gradientTransform="translate(148.307 57.776) scale(1.1991)" gradientUnits="userSpaceOnUse"><stop offset=".121" style="stop-color:#fff;stop-opacity:0"/><stop offset=".473" style="stop-color:#fff;stop-opacity:.8543"/><stop offset=".533" style="stop-color:#fff"/><stop offset=".569" style="stop-color:#fff;stop-opacity:.8925"/><stop offset=".861" style="stop-color:#fff;stop-opacity:0"/></radialGradient><path style="fill:url(#SVGID_00000084528395788735983500000006734131996893239945_)" d="M156.4 29.9h-17.3c-4.8.9-6.5 4.6-6.7 5.1l-19.3 41.5 30.5-19.7 1.3-2.9c.4-.9 1.4-1 1.5-1h2.4c.2 0 1.1.1 1.5 1l1.4 3 30.5 19.6L163 34.9c-.1-.4-1.8-4.1-6.6-5z"/></g><linearGradient id="SVGID_00000064332404653073290130000008751775605589439363_" gradientUnits="userSpaceOnUse" x1="147.63" y1="29.901" x2="147.63" y2="82.434"><stop offset=".185" style="stop-color:#fff"/><stop offset=".485" style="stop-color:#cfd2d9"/><stop offset=".554" style="stop-color:#a8aab0"/><stop offset=".708" style="stop-color:#464748"/><stop offset=".764" style="stop-color:#212121"/><stop offset=".795" style="stop-color:#2a2b2b"/><stop offset=".849" style="stop-color:#444646"/><stop offset=".918" style="stop-color:#6e7172"/><stop offset=".999" style="stop-color:#a6acae"/><stop offset="1" style="stop-color:#a7adaf"/></linearGradient><path style="fill:url(#SVGID_00000064332404653073290130000008751775605589439363_);stroke:#fff;stroke-width:7.503100e-02;stroke-linejoin:round;stroke-miterlimit:10" d="M106.3 41.5v-8.8c0-2.1-1.9-2-1.9-2H62.8c-2 0-2.5 1.3-2.5 2.3v8.5h24.1c2.1.1 3.8 1.5 4.4 3.4 0 .2.2.8.2 1.9v10c0 4.9-4.7 7.7-8 7.7H48.3v8s-.2 3.1 2.8 3.1H89s8.8.3 13.2-4.7c4.6-5.3 4.3-10.9 4.3-10.9V41.5zm140.9 22.9h-32.7c-3.3 0-8-2.7-8-7.7v-7.2c0-4.9 4.7-7.6 8-7.6h32.7v-8s.2-3.1-2.8-3.1h-37.9s-8.8-.3-13.2 4.7c-4.6 5.3-4.3 10.9-4.3 10.9V60s-.3 5.6 4.3 10.9c4.4 5 13.2 4.7 13.2 4.7h37.9c3 0 2.8-3.1 2.8-3.1v-8.1zm-92.6-33.7h-13.8c-5.8.2-7.5 4.6-7.5 4.6l-18.6 40.1h13.4c5.8 0 7.5-3.7 7.5-3.7l8.4-18.1.1-.2c.8-1.6 2.5-1.6 2.5-1.6h2.4s1.7 0 2.5 1.6l.1.2 8.4 18.1s1.6 3.7 7.5 3.7h13.4l-18.6-40.1c-.2.1-1.9-4.4-7.7-4.6z"/><g><g class="st23"><linearGradient id="SVGID_00000045588979739508984500000000887670871662783137_" gradientUnits="userSpaceOnUse" x1="90.534" y1="92.243" x2="116.766" y2="85.16"><stop offset="0" style="stop-color:#fff;stop-opacity:0"/><stop offset=".007" style="stop-color:#f9f8f8;stop-opacity:1.295602e-02"/><stop offset=".067" style="stop-color:#c7c4c3;stop-opacity:.1205"/><stop offset=".13" style="stop-color:#9b9695;stop-opacity:.2323"/><stop offset=".193" style="stop-color:#766f6d;stop-opacity:.3464"/><stop offset=".258" style="stop-color:#58504d;stop-opacity:.4632"/><stop offset=".325" style="stop-color:#413735;stop-opacity:.5837"/><stop offset=".395" style="stop-color:#302623;stop-opacity:.7092"/><stop offset=".47" style="stop-color:#261b18;stop-opacity:.8431"/><stop offset=".558" style="stop-color:#231815"/><stop offset=".628" style="stop-color:#261b18;stop-opacity:.8411"/><stop offset=".687" style="stop-color:#302623;stop-opacity:.7069"/><stop offset=".743" style="stop-color:#403734;stop-opacity:.5817"/><stop offset=".796" style="stop-color:#584f4d;stop-opacity:.462"/><stop offset=".847" style="stop-color:#756f6d;stop-opacity:.346"/><stop offset=".897" style="stop-color:#9a9594;stop-opacity:.2331"/><stop offset=".946" style="stop-color:#c6c3c2;stop-opacity:.1224"/><stop offset=".993" style="stop-color:#f7f6f6;stop-opacity:1.614439e-02"/><stop offset="1" style="stop-color:#fff;stop-opacity:0"/></linearGradient><path style="fill:url(#SVGID_00000045588979739508984500000000887670871662783137_)" d="M124.1 90.5c-15.8-.2-24 8.4-37 6.2-13.2-2.1-27.1-5.9-38.9-10.5v3.3c11.1 4.2 24.1 7.6 38.6 10 14.5 2.2 21.6-5.8 37.2-5.8 9.6 0 17.1-.2 25.9-.2v-3.3c-8.7.2-16.3.3-25.8.3z"/></g><g class="st23"><linearGradient id="SVGID_00000105429110554214383550000016253621146097504128_" gradientUnits="userSpaceOnUse" x1="-2768.431" y1="92.243" x2="-2742.203" y2="85.161" gradientTransform="matrix(-1 0 0 1 -2558.965 0)"><stop offset="0" style="stop-color:#fff;stop-opacity:0"/><stop offset=".007" style="stop-color:#f9f8f8;stop-opacity:1.295602e-02"/><stop offset=".067" style="stop-color:#c7c4c3;stop-opacity:.1205"/><stop offset=".13" style="stop-color:#9b9695;stop-opacity:.2323"/><stop offset=".193" style="stop-color:#766f6d;stop-opacity:.3464"/><stop offset=".258" style="stop-color:#58504d;stop-opacity:.4632"/><stop offset=".325" style="stop-color:#413735;stop-opacity:.5837"/><stop offset=".395" style="stop-color:#302623;stop-opacity:.7092"/><stop offset=".47" style="stop-color:#261b18;stop-opacity:.8431"/><stop offset=".558" style="stop-color:#231815"/><stop offset=".628" style="stop-color:#261b18;stop-opacity:.8411"/><stop offset=".687" style="stop-color:#302623;stop-opacity:.7069"/><stop offset=".743" style="stop-color:#403734;stop-opacity:.5817"/><stop offset=".796" style="stop-color:#584f4d;stop-opacity:.462"/><stop offset=".847" style="stop-color:#756f6d;stop-opacity:.346"/><stop offset=".897" style="stop-color:#9a9594;stop-opacity:.2331"/><stop offset=".946" style="stop-color:#c6c3c2;stop-opacity:.1224"/><stop offset=".993" style="stop-color:#f7f6f6;stop-opacity:1.614439e-02"/><stop offset="1" style="stop-color:#fff;stop-opacity:0"/></linearGradient><path style="fill:url(#SVGID_00000105429110554214383550000016253621146097504128_)" d="M175.9 90.5c15.8-.2 24 8.4 37 6.2 13.2-2.1 27.1-5.9 38.9-10.5v3.3c-11.1 4.2-24.1 7.6-38.6 10-14.5 2.2-21.6-5.8-37.2-5.8-9.6 0-17.1-.2-25.9-.2v-3.3c8.8.2 16.3.3 25.8.3z"/></g></g><path d="M278.5 47.9c-6.8-13-10.9-19.8-23.4-25.4C229 11.6 191.2 4.4 150 4.6c-41.2-.2-79 7-105.1 17.9-12.5 5.6-16.6 12.4-23.4 25.4-5.5 10.9-8.6 20.4-1.2 26.3 13.1 11 36.8 20.4 66.7 25.4 14.5 2.2 21.6-5.8 37.2-5.8H176c15.6 0 22.7 8 37.2 5.8 29.8-5 53.5-14.3 66.6-25.4 7.3-5.8 4.2-15.4-1.3-26.3z" style="fill:none;stroke:#fff;stroke-width:.2001;stroke-miterlimit:10"/><g><linearGradient id="SVGID_00000146461165092889123460000015815868052613818793_" gradientUnits="userSpaceOnUse" x1="226.922" y1="54.233" x2="226.922" y2="73.149"><stop offset="0" style="stop-color:#fff"/><stop offset=".09" style="stop-color:#fff;stop-opacity:.9104"/><stop offset="1" style="stop-color:#fff;stop-opacity:0"/></linearGradient><path style="fill:url(#SVGID_00000146461165092889123460000015815868052613818793_)" d="M215.7 66.6h31.5v-2.2h-32.6c-1.5 0-7.1-1.7-8-5.8.8 6.5 6.3 8 9.1 8z"/><linearGradient id="SVGID_00000076606011718751583770000006465594596669073817_" gradientUnits="userSpaceOnUse" x1="68.479" y1="55.483" x2="68.479" y2="73.269"><stop offset="0" style="stop-color:#fff"/><stop offset="0" style="stop-color:#fff;stop-opacity:.9999"/><stop offset="1" style="stop-color:#fff;stop-opacity:0"/></linearGradient><path style="fill:url(#SVGID_00000076606011718751583770000006465594596669073817_)" d="M80.5 64.5H48.2v8s-.2 2.7 2.2 3.1c-.1-.5-.1-.9-.1-.9v-8h30.6c7 0 7.8-7.6 7.8-8.6-.6 4.1-4.6 6.4-8.2 6.4z"/><linearGradient id="SVGID_00000032628579795424696010000017373579622712187278_" gradientUnits="userSpaceOnUse" x1="73.293" y1="22.7" x2="80.915" y2="33.37"><stop offset="0" style="stop-color:#fff"/><stop offset=".09" style="stop-color:#fff;stop-opacity:.9104"/><stop offset="1" style="stop-color:#fff;stop-opacity:0"/></linearGradient><path style="fill:url(#SVGID_00000032628579795424696010000017373579622712187278_)" d="M65 33h41.4v-.2c0-2.1-1.9-2-1.9-2H62.9c-2 0-2.5 1.3-2.5 2.3v8.5h2.1v-6.3c0-1 .5-2.3 2.5-2.3z"/><linearGradient id="SVGID_00000105410721359548041830000005553373569590349981_" gradientUnits="userSpaceOnUse" x1="218.107" y1="30.969" x2="218.107" y2="89.062"><stop offset="0" style="stop-color:#fff"/><stop offset=".09" style="stop-color:#fff;stop-opacity:.9104"/><stop offset="1" style="stop-color:#fff;stop-opacity:0"/></linearGradient><path style="fill:url(#SVGID_00000105410721359548041830000005553373569590349981_)" d="M191.1 62.2V48.6s-.2-5.6 4.3-10.9c4.4-5 13.2-4.7 13.2-4.7h37.9c.2 0 .4 0 .6.1-.2-.9-.8-2.2-2.7-2.2h-37.9s-8.8-.3-13.2 4.7c-4.6 5.3-4.3 10.9-4.3 10.9V60s-.2 5.6 4.3 10.9c.5.5 1 1 1.5 1.4-3.9-5.1-3.7-10.1-3.7-10.1z"/><g><linearGradient id="SVGID_00000049907385222993209600000003619268068425963406_" gradientUnits="userSpaceOnUse" x1="149.474" y1="62.994" x2="162.174" y2="62.994"><stop offset="0" style="stop-color:#fff"/><stop offset=".09" style="stop-color:#fff;stop-opacity:.9104"/><stop offset="1" style="stop-color:#fff;stop-opacity:0"/></linearGradient><path style="fill:url(#SVGID_00000049907385222993209600000003619268068425963406_)" d="M152.9 54.1s-1.1-2.3-3.4-2.3c1.5.4 1.8 1.3 1.8 1.3l8.7 18.8s.6 1.3 2.2 2.3c0-.1-.1-.1-.1-.1l-9.2-20z"/><linearGradient id="SVGID_00000111909060435580670720000004597540605155474063_" gradientUnits="userSpaceOnUse" x1="138.244" y1="20.303" x2="138.244" y2="96.149"><stop offset="0" style="stop-color:#fff"/><stop offset="1" style="stop-color:#fff;stop-opacity:0"/></linearGradient><path style="fill:url(#SVGID_00000111909060435580670720000004597540605155474063_)" d="M143 33h13.8c2.1.1 3.7.7 4.8 1.5-.9-1.3-2.9-3.5-6.9-3.6h-13.8c-5.8.2-7.5 4.6-7.5 4.6l-18.6 40.1h3.2l17.6-37.9c0-.1 1.7-4.5 7.4-4.7z"/></g></g></svg>