<?xml version="1.0" encoding="utf-8"?>
<!-- Generator: Adobe Illustrator 26.0.2, SVG Export Plug-In . SVG Version: 6.00 Build 0)  -->
<svg version="1.1" id="Layer_3" xmlns="http://www.w3.org/2000/svg" xmlns:xlink="http://www.w3.org/1999/xlink" x="0px" y="0px"
	 viewBox="0 0 430.3 286.9" style="enable-background:new 0 0 430.3 286.9;" xml:space="preserve">
<style type="text/css">
	.st0{fill:#FFFFFF;}
</style>
<g>
	<g>
		<path class="st0" d="M408.9,191.8l2.5-0.2c1-0.1,2-0.2,3-0.3c2.4-0.4,4.6-1,6.2-1.9c0.6-0.3,1-0.6,1.7-1.1
			c2.2-1.5,3.3-3.7,3.4-6.5c0-0.6,0-1,0-1.5c-0.1-1.8-0.5-3.3-1.3-4.5c-0.9-1.4-2.1-2.5-3.7-3.3c-1.7-0.8-3.7-1.4-6.1-1.8
			c0,0-3.5-0.6-8.8-0.6h-40.3v34h12.6v-12h17.2l19.4,12h13.9L408.9,191.8z M403.1,174c0.1,0,0.1,0,0.2,0c1.4,0,2.7,0.1,3.7,0.2
			c1.3,0.1,2.5,0.5,3.4,0.9c1,0.5,1.7,1.2,2.1,2.1c0.4,0.8,0.5,1.7,0.6,2.9c0,0.1,0,1.7,0,2.5c-0.1,0.8-0.2,1.7-0.5,2.3
			c-0.3,0.7-0.7,1.2-1.3,1.6c-0.2,0.1-0.3,0.2-0.5,0.3c-0.8,0.4-1.8,0.7-3.2,0.9c-1.2,0.1-2.7,0.2-4.5,0.2h-25V174H403.1z"/>
		<path class="st0" d="M43,170.1v16c0,4.8-1.8,8.3-5.2,10.6c-3,1.9-7.3,2.9-12.8,2.9H1.4v4.5H21c5.4,0,10.4-0.2,14.8-0.6
			c4.3-0.4,7.9-1.2,10.9-2.4c2.9-1.2,5.1-2.9,6.7-5.1c1.4-2,2.2-4.6,2.3-7.8c0-0.3,0-0.7,0-1.1v-16.9H43z"/>
		<path class="st0" d="M188,188.4v11.1h-19.3c-10.1,0-16-3.3-17.6-9.7c-0.7-2.6-0.2-5.2,0-6.1c1.6-6.4,7.3-9.6,17.6-9.6h30.2v-4
			h-26.3c-5.5,0-10.5,0.2-14.9,0.6c-4.3,0.4-7.9,1.2-10.9,2.4c-2.9,1.2-5.1,2.9-6.6,5c-1.5,2.1-2.2,4.9-2.3,8.4c0,0.1,0,0.2,0,0.3
			c0,0.2,0,0.3,0,0.5c0,3.6,0.8,6.5,2.3,8.6c1.5,2.2,3.8,3.9,6.7,5.1c3,1.2,6.6,2,10.9,2.4c4.4,0.4,9.3,0.6,14.8,0.6h28v-15.6H188z"
			/>
		<path class="st0" d="M103.6,170.1h-13l-29.2,34h7.6l6.6-7.6h36.7l6.6,7.6h14.1L103.6,170.1z M93.8,175l15.2,17.7H78.6L93.8,175z"
			/>
		<path class="st0" d="M311.9,170.1l-29.2,34h7.6l6.6-7.7h36.7l6.6,7.7h14.1l-29.3-34H311.9z M330.4,192.7h-30.5l15.2-17.7
			L330.4,192.7z"/>
		<path class="st0" d="M264.4,170.1v17.2c0,1.5-0.2,2.8-0.5,4c-1.6,6.3-7.5,9.4-17.5,9.5h-1.3c-10.1,0-16-3.3-17.6-9.6
			c-0.3-1.2-0.5-2.5-0.5-3.9v-17.2h-12.6v17.7c0,3.7,0.8,6.7,2.3,8.9c1,1.4,2.2,2.6,3.7,3.5c0.9,0.6,1.9,1.1,3,1.5
			c1.1,0.5,2.3,0.9,3.6,1.2c2.2,0.6,4.6,1,7.3,1.2c3.4,0.3,7.2,0.5,11.4,0.5c4.2,0,8-0.2,11.4-0.5c2.7-0.3,5.1-0.7,7.3-1.2
			c1.3-0.3,2.5-0.7,3.6-1.2c1.1-0.4,2.1-1,3-1.5c1.5-1,2.7-2.2,3.7-3.5c1.5-2.2,2.3-5.2,2.3-8.9v-17.7H264.4z"/>
	</g>
	<path class="st0" d="M82,22.7c0.4,0,0.8,0,1.3,0c2,0,4.2-0.8,5.7-1.5c1.1-0.5,1.7-0.9,1.6-0.9c-1.4,0-3.6,0-4.4,0
		c-3.6,0-5.4,2-5.4,2.2C80.7,22.6,81.2,22.7,82,22.7z M412.6,117.7c-2-4.5-7.6-3-7.6-3c-2.6,0.6-5.6,3.6-10.1,4.9
		c-9.6,2.8-17.2-0.5-17.2-0.5c-14.8-6.4-62.2-33.5-86.3-45.4c0,0-28-13-68.7-29.1c0,0-79.9-34.1-133.2-31.3c0,0-28.4,0.8-37.4,13.3
		c0,0-1.5,1.7-0.7,3.6c0,0,0.2,0.5-0.2,0.9c0,0-4.8,4.3-7.2,8.1c-0.9,1.4-1.7,3.6-0.1,5.3c0,0,0.8,0.6,1.1,1.2
		c0.7,1.1,1.3,2.8,2.2,3.8c1.2,1.5,3.8,4,7.3,3.4c1.6-0.3,1.6-0.7,1.6-0.7c1.8,1.8,4.6,1.7,4.6,1.7c-0.4-1.1-1.6-3.3-1.8-4.7
		c-0.2-1.5,0.2-2.9,0.2-2.9c0.5-1.7,1.5-3.8,2.6-4.8c1-1,3.4-2,5.4-0.7c1.6,1.1,3.5,4.8,1.9,10c-0.1,0.4-1.8,4.1-3.7,4.6
		c0,0-0.2,0.1-0.5,0.1c-1.2,0-3.6-1.3-3.6-1.3s-0.1,0.3,0.3,1.7c0.2,0.8,0.5,1.6,0.7,2.3c0,0-0.4,0.8-0.7,1.3
		c-0.4,0.5-0.8,2.3,0.1,3c0,0,4.1,2.8,8.1,3c2.7,0.2,3.8-1.7,3.8-1.7c2-2.8,3.5-5.2,5.7-7.1c5.8-5.3,14-6.8,14-6.8
		c0.5-0.1,9.5-2.6,24.7,9.6c-4.3,0.4-9.5,1.4-13.4,2.1c-11.3,2-18.5,12.6-20.6,16.9c-5.5,11.3,5.7,15.2,5.7,15.2
		c0.1-0.1,10.7-0.9,15.8-12.2c0,0,1.9-5,6.8-3.4c3.2,1,31.9,11.1,38.3,12.8c0,0,19.2,5,26.4-3.8c11.5,3.8,22.4,5.6,50.7,2
		c4.9-0.6,8.8-0.5,8.8-0.5c6.6,0.5,12.7,5,14.5,7.9c7.5,11.9,16.9,35.7,49.8,32.8l14.9-1.3c9.1-0.5,16.4-0.9,23.9,3
		c3.3,1.7,5.1,2.3,10.6,7.6c7.6,7.2,14.5,15,23.8,10.7c3.3-1.5,7-7.4,7-7.4c-0.4-2.7-1.6-5.3-4.5-7.5c8.4,2,27.4,3.3,34.7-9.6
		C413.1,122,413.3,119.3,412.6,117.7z M409.6,123.8c-0.7,2.5-4.3,5.8-8.6,7.7c-4.5,2-14,2.6-19.5,1.7c0,0-10.6-1.1-19.9-10.8
		c-2.9-3.1-6.5-6.5-9.8-10c-1.5-1.5-5.1-5.1-11-5.9c-6.2-0.8-21.4-1.3-27.2-3.2c-3.8-1.3-8.4-3.9-14.6-13c-3-4.4-5.1-5.5-9.1-8.1
		c0,0,3.1,2.4,4.8,5.5c2.5,4.5,3.8,7.8,5.2,10.2c1.4,2.4,2.9,4.5,5.3,6.4c2.9,2.3,4.7,2.8,7.9,3.3c3,0.5,13.2,0.4,21.9,0.3
		c8.6-0.1,12.4,2.6,15.3,5c2.6,2.2,7.1,8.5,9.9,11.3c3.3,3.3,5.7,6.6,12.2,9.9c2.3,1.1,5.9,3.9,5.8,6.7c-2.9,2.9-6.5,3.7-15.2,1.4
		c0.6,0.6,5.2,5.4,12.9,3.1c-2.3,2-4.6,2.8-7.1,2.7c-8.1-0.5-16.1-10.5-20.6-14.2c-3.4-2.8-3.8-3.5-9.6-7.5
		c-8.8-6.1-28.5-4.4-28.5-4.4l-14.4,0.8c-28.1,2.1-39.9-22.8-43.1-28c-1.1-1.8-2.1-3.3-3-4.4c-1.4-1.9-9.1-11.9-16.9-15.2
		c0,0,7.6,6.6,7.2,10.9c0,0-3.2-1.5-11.8-0.2c-37.1,5.3-49.7-4-49.7-4c1.7-7.4-3.5-15-3.5-15c2.9,0.9,21.1,7.1,38.4,3.5
		c0,0-28.2,0.2-47.9-15.6c0,0,12.3,15.4,9.4,25.5c0,0-2,10.7-23.4,6.4c-2.3-0.5-5-1.2-37-10.1c-7.5-2.3-10.1,1.3-11.5,3.5
		c-0.1,3.2-3.8,6.9-5.7,8c-9.9-1.8-6-11-6-11c-6.2,8.9,0.3,12.9,2.4,13.2c-1.2,0.6-2.4,1-3.4,1.4c0,0-8.1-4.8-3.6-12.7
		c6.3-11,12.8-14.6,24.6-15.6c5.2-0.5,9.5-0.9,12.7-0.4c8.6,1.2,13.9,6,26.7,7.3c-27.2-8-27.3-23.8-27.4-24.1c0,0,0,0,0,0
		c-1.5,5.2-0.7,9.6,0.7,13.3c-0.4-0.1-6.3-4-8.6-5.4c-9.8-6-17.5-7-17.5-7c-3.2-0.4-4.7-4.3-4.7-4.3c-0.1-0.2-0.2-0.4-0.3-0.6
		c-4.5-7.7-9-7.8-9-7.8c2.5,3.4,2.6,8.3,2.6,8.3c1.3,9.6-9.5,12.5-9.5,12.5c-6.6,8.4-6.3,8.6-7.8,8.8c-1.5,0.2-4.7-1.4-4.7-1.4
		c-0.5-0.8,0.2-1.6,0.2-1.6c1.2-1,2.3-2,2.3-2c7-7.2,7.9-10.7,7-15.3c-1.8-9.3-8.4-8.2-8.4-8.2c-3.1,0.2-4.6,3-4.6,3
		c-1.1,1.7-3.5,7-3.5,7c-1.4,3.1-2.9,3.8-3.7,4c-0.3,0.1-1,0.1-1.2,0c-2.3-0.1-4-2.2-4-2.2c-0.1-0.1-0.2-0.2-0.3-0.3
		c-2.1-2.2-0.6-5.1-0.6-5.1c2.8-6.5,8.2-7.4,8.9-7.5c0.8-0.1,3.2-0.5,3.2-0.5c6.9-1.2,10.1-8.3,10.1-8.3c-4.6-0.1-6.9,0.3-6.9,0.3
		c-4.5,0.8-6.1,6.2-6.1,6.1c-3.9,0.9-3.7-2.4-3.1-3.4c0.6-0.9,2.9-4.9,17.6-8.3c0,0,7.3-2.2,22.9-1.5c0,0,0,0-0.6,1.2
		c-1.4,2.6-6.8,8-15.9,6c0,0,0.1,4,9.9,5.4c0,0,8.9,1.6,23.9,13.7c0,0-7.2-14.3-19.4-18c0,0-1.5-0.3-0.8-1.3c0,0,7.5-7,17.2-7.3
		c0,0,32.8-3.2,51.1,21.9c0,0-5.5-10.7-9.7-15.3c0,0,19.1,5.4,48.4,15.6c0,0,20,7.1,32.8,12.1c17.3,6.8,60.5,23.6,88.1,38.7
		c4.9,2.7,54.8,28.7,54.8,28.7c13.8,6.2,23.4,2.4,23.4,2.4c3.1-1.2,8.7-5.5,11.2-3.1C410,120.4,410.2,122.1,409.6,123.8z M58.5,31.4
		c0,0,0.3-0.9,0.4-1.1c0.1-0.2,0.9-2.4,2.9-2.7c0,0,1.2-0.1,3-0.1c0,0-0.9,2.9-4.4,3.5C60.4,31.1,59,31.4,58.5,31.4z"/>
</g>
</svg>
