<?xml version="1.0" encoding="utf-8"?>
<!-- Generator: Adobe Illustrator 26.0.2, SVG Export Plug-In . SVG Version: 6.00 Build 0)  -->
<svg version="1.1" id="Слой_1" xmlns="http://www.w3.org/2000/svg" xmlns:xlink="http://www.w3.org/1999/xlink" x="0px" y="0px"
	 viewBox="0 0 300 200" style="enable-background:new 0 0 300 200;" xml:space="preserve">
<style type="text/css">
	.st0{fill:#010101;}
	.st1{fill:#FFFFFF;}
	.st2{fill-rule:evenodd;clip-rule:evenodd;fill:#FFFFFF;}
</style>
<path class="st0" d="M21.7,59.7v1.1c0,1.8-0.8,2.6-2.6,2.6H4.9V51.8h13.8c1.8,0,2.6,0.8,2.6,2.6v0.9c0,1.2-0.4,1.9-1.1,2.2
	C21.2,57.7,21.7,58.5,21.7,59.7z M8.8,54.5v1.9h8c0.6,0,0.7-0.2,0.7-0.7v-0.5c0-0.6-0.2-0.7-0.7-0.7L8.8,54.5z M17.8,59.3
	c0-0.5-0.2-0.7-0.7-0.7H8.8v2.2h8.3c0.6,0,0.7-0.2,0.7-0.7L17.8,59.3z"/>
<path class="st0" d="M28,63.5c-2.3,0-3.4-1.1-3.4-3.4v-4.9c0-2.3,1.1-3.4,3.4-3.4h10.7c2.3,0,3.4,1.1,3.4,3.4v4.9
	c0,2.3-1.1,3.4-3.4,3.4L28,63.5z M37.2,60.5c0.8,0,1.1-0.3,1.1-1.1v-3.4c0-0.8-0.3-1.1-1.1-1.1h-7.6c-0.8,0-1.1,0.3-1.1,1.1v3.4
	c0,0.8,0.3,1.1,1.1,1.1H37.2z"/>
<path class="st0" d="M62.4,63.5h-4.7l-3.2-3.8h-5.3v3.8h-3.9V51.8h13.6c2.1,0,3,0.9,3,3v1.6c0,2.1-0.9,3-3,3L62.4,63.5z M49.1,54.5
	v2.7h8c0.7,0,0.9-0.2,0.9-0.9v-0.9c0-0.7-0.2-0.9-0.9-0.9L49.1,54.5z"/>
<path class="st0" d="M78.5,51.8h3.7v11.7h-3.2l-10.4-7.6v7.6H65V51.8h3.3l10.2,7.5V51.8z"/>
<path class="st0" d="M107.4,54.8H96.1v2h10.6v2.7H96.1v4h-3.9V51.8h15.2L107.4,54.8z"/>
<path class="st0" d="M113.3,63.5c-2.3,0-3.4-1.1-3.4-3.4v-4.9c0-2.3,1.1-3.4,3.4-3.4h10.7c2.3,0,3.4,1.1,3.4,3.4v4.9
	c0,2.3-1.1,3.4-3.4,3.4L113.3,63.5z M122.5,60.5c0.8,0,1.1-0.3,1.1-1.1v-3.4c0-0.8-0.3-1.1-1.1-1.1h-7.6c-0.8,0-1.1,0.3-1.1,1.1v3.4
	c0,0.8,0.3,1.1,1.1,1.1H122.5z"/>
<path class="st0" d="M147.7,63.5H143l-3.2-3.8h-5.3v3.8h-3.9V51.8h13.6c2.1,0,3,0.9,3,3v1.6c0,2.1-0.9,3-3,3L147.7,63.5z
	 M134.4,54.5v2.7h8c0.7,0,0.9-0.2,0.9-0.9v-0.9c0-0.7-0.2-0.9-0.9-0.9L134.4,54.5z"/>
<path class="st0" d="M173,51.8h3.3v11.7h-3.7v-6.9l-4.9,5.1h-2.1l-4.9-5.1v6.9H157V51.8h3.4l6.3,6.5L173,51.8z"/>
<path class="st0" d="M182.8,63.5c-2.3,0-3.4-1.1-3.4-3.4v-4.9c0-2.3,1.1-3.4,3.4-3.4h10.7c2.3,0,3.4,1.1,3.4,3.4v4.9
	c0,2.3-1.1,3.4-3.4,3.4L182.8,63.5z M191.9,60.5c0.8,0,1.1-0.3,1.1-1.1v-3.4c0-0.8-0.3-1.1-1.1-1.1h-7.6c-0.8,0-1.1,0.3-1.1,1.1v3.4
	c0,0.8,0.3,1.1,1.1,1.1H191.9z"/>
<path class="st0" d="M217.1,63.5h-4.7l-3.2-3.8h-5.3v3.8H200V51.8h13.6c2.1,0,3,0.9,3,3v1.6c0,2.1-0.9,3-3,3L217.1,63.5z
	 M203.9,54.5v2.7h8c0.7,0,0.9-0.2,0.9-0.9v-0.9c0-0.7-0.2-0.9-0.9-0.9L203.9,54.5z"/>
<path class="st0" d="M223.6,60.7h11.6v2.8h-15.5V51.8h15.4v2.8h-11.5v1.7h10.8v2.4h-10.8V60.7z"/>
<path class="st1" d="M21.7,59.7v1.1c0,1.8-0.8,2.6-2.6,2.6H4.9V51.8h13.8c1.8,0,2.6,0.8,2.6,2.6v0.9c0,1.2-0.4,1.9-1.1,2.2
	C21.2,57.7,21.7,58.5,21.7,59.7z M8.8,54.5v1.9h8c0.6,0,0.7-0.2,0.7-0.7v-0.5c0-0.6-0.2-0.7-0.7-0.7L8.8,54.5z M17.8,59.3
	c0-0.5-0.2-0.7-0.7-0.7H8.8v2.2h8.3c0.6,0,0.7-0.2,0.7-0.7L17.8,59.3z"/>
<path class="st1" d="M28,63.5c-2.3,0-3.4-1.1-3.4-3.4v-4.9c0-2.3,1.1-3.4,3.4-3.4h10.7c2.3,0,3.4,1.1,3.4,3.4v4.9
	c0,2.3-1.1,3.4-3.4,3.4L28,63.5z M37.2,60.5c0.8,0,1.1-0.3,1.1-1.1v-3.4c0-0.8-0.3-1.1-1.1-1.1h-7.6c-0.8,0-1.1,0.3-1.1,1.1v3.4
	c0,0.8,0.3,1.1,1.1,1.1H37.2z"/>
<path class="st1" d="M62.4,63.5h-4.7l-3.2-3.8h-5.3v3.8h-3.9V51.8h13.6c2.1,0,3,0.9,3,3v1.6c0,2.1-0.9,3-3,3L62.4,63.5z M49.1,54.5
	v2.7h8c0.7,0,0.9-0.2,0.9-0.9v-0.9c0-0.7-0.2-0.9-0.9-0.9L49.1,54.5z"/>
<path class="st1" d="M78.5,51.8h3.7v11.7h-3.2l-10.4-7.6v7.6H65V51.8h3.3l10.2,7.5V51.8z"/>
<path class="st1" d="M107.4,54.8H96.1v2h10.6v2.7H96.1v4h-3.9V51.8h15.2L107.4,54.8z"/>
<path class="st1" d="M113.3,63.5c-2.3,0-3.4-1.1-3.4-3.4v-4.9c0-2.3,1.1-3.4,3.4-3.4h10.7c2.3,0,3.4,1.1,3.4,3.4v4.9
	c0,2.3-1.1,3.4-3.4,3.4L113.3,63.5z M122.5,60.5c0.8,0,1.1-0.3,1.1-1.1v-3.4c0-0.8-0.3-1.1-1.1-1.1h-7.6c-0.8,0-1.1,0.3-1.1,1.1v3.4
	c0,0.8,0.3,1.1,1.1,1.1H122.5z"/>
<path class="st1" d="M147.7,63.5H143l-3.2-3.8h-5.3v3.8h-3.9V51.8h13.6c2.1,0,3,0.9,3,3v1.6c0,2.1-0.9,3-3,3L147.7,63.5z
	 M134.4,54.5v2.7h8c0.7,0,0.9-0.2,0.9-0.9v-0.9c0-0.7-0.2-0.9-0.9-0.9L134.4,54.5z"/>
<path class="st1" d="M173,51.8h3.3v11.7h-3.7v-6.9l-4.9,5.1h-2.1l-4.9-5.1v6.9H157V51.8h3.4l6.3,6.5L173,51.8z"/>
<path class="st1" d="M182.8,63.5c-2.3,0-3.4-1.1-3.4-3.4v-4.9c0-2.3,1.1-3.4,3.4-3.4h10.7c2.3,0,3.4,1.1,3.4,3.4v4.9
	c0,2.3-1.1,3.4-3.4,3.4L182.8,63.5z M191.9,60.5c0.8,0,1.1-0.3,1.1-1.1v-3.4c0-0.8-0.3-1.1-1.1-1.1h-7.6c-0.8,0-1.1,0.3-1.1,1.1v3.4
	c0,0.8,0.3,1.1,1.1,1.1H191.9z"/>
<path class="st1" d="M217.1,63.5h-4.7l-3.2-3.8h-5.3v3.8H200V51.8h13.6c2.1,0,3,0.9,3,3v1.6c0,2.1-0.9,3-3,3L217.1,63.5z
	 M203.9,54.5v2.7h8c0.7,0,0.9-0.2,0.9-0.9v-0.9c0-0.7-0.2-0.9-0.9-0.9L203.9,54.5z"/>
<path class="st1" d="M223.6,60.7h11.6v2.8h-15.5V51.8h15.4v2.8h-11.5v1.7h10.8v2.4h-10.8V60.7z"/>
<polygon class="st2" points="73.9,3.7 114.7,35.3 104.4,35.3 63.5,3.7 "/>
<polygon class="st2" points="104.4,3.7 63.5,35.3 73.9,35.3 114.7,3.7 "/>
<path class="st2" d="M15.5,9.3h36.2V3.4H11c-3.8,0-6.9,3.1-6.9,6.9c0,0,0,0,0,0v18.5c0,3.8,3.1,6.9,6.9,6.9l0,0h40.6v-5.9H15.5
	c-1.9,0-3.4-1.5-3.4-3.4v-4.1h36.7v-5.9H12v-3.6C12,10.8,13.6,9.3,15.5,9.3C15.5,9.3,15.5,9.3,15.5,9.3z"/>
<path class="st2" d="M137.9,9.3h36.2V3.4h-40.6c-3.8,0-6.9,3.1-6.9,6.9c0,0,0,0,0,0v18.5c0,3.8,3.1,6.9,6.9,6.9h40.6v-5.9h-36.2
	c-1.9,0-3.4-1.5-3.4-3.4v-4.1h36.7v-5.9h-36.7v-3.6C134.5,10.9,136,9.3,137.9,9.3z"/>
<path class="st2" d="M199.1,9.3h36.2V3.5h-40.6c-3.8,0-6.9,3.1-6.9,6.9v18.5c0,3.8,3.1,6.9,6.9,6.9h40.6v-5.9h-36.2
	c-1.9,0-3.4-1.5-3.4-3.4v-4.1h36.7v-5.9h-36.7v-3.6C195.7,10.9,197.2,9.3,199.1,9.3C199.1,9.3,199.1,9.3,199.1,9.3z"/>
<path class="st2" d="M288.7,26.5c0,1.9-1.6,3.5-3.5,3.5h-28.5V9.3h28.5c1.9,0,3.5,1.6,3.5,3.5V26.5z M289.7,3.4h-40.9v32.5h40.9
	c3.8,0,6.9-3.1,6.9-6.9V10.3C296.7,6.5,293.6,3.4,289.7,3.4z"/>
<polygon class="st2" points="73.5,3.7 114.3,35.3 104,35.3 63.2,3.7 "/>
<polygon class="st2" points="104,3.7 63.2,35.3 73.5,35.3 114.3,3.7 "/>
<path class="st2" d="M15.1,9.3h36.2V3.4H10.7c-3.8,0-6.9,3.1-6.9,6.9c0,0,0,0,0,0v18.5c0,3.8,3.1,6.9,6.9,6.9l0,0h40.6v-5.9H15.1
	c-1.9,0-3.4-1.5-3.4-3.4v-4.1h36.7v-5.9H11.7v-3.6C11.7,10.8,13.2,9.3,15.1,9.3C15.1,9.3,15.1,9.3,15.1,9.3z"/>
<path class="st2" d="M137.5,9.3h36.2V3.4h-40.6c-3.8,0-6.9,3.1-6.9,6.9c0,0,0,0,0,0v18.5c0,3.8,3.1,6.9,6.9,6.9h40.6v-5.9h-36.2
	c-1.9,0-3.4-1.5-3.4-3.4v-4.1h36.7v-5.9h-36.7v-3.6C134.1,10.8,135.6,9.3,137.5,9.3C137.5,9.3,137.5,9.3,137.5,9.3z"/>
<path class="st2" d="M198.8,9.3h36.2V3.5h-40.6c-3.8,0-6.9,3.1-6.9,6.9v18.5c0,3.8,3.1,6.9,6.9,6.9h40.6v-5.9h-36.2
	c-1.9,0-3.4-1.5-3.4-3.4v-4.1H232v-5.9h-36.7v-3.6C195.3,10.9,196.8,9.3,198.8,9.3C198.7,9.3,198.7,9.3,198.8,9.3z"/>
<path class="st2" d="M288.4,26.5c0,1.9-1.6,3.5-3.5,3.5h-28.5V9.3h28.5c1.9,0,3.5,1.6,3.5,3.5L288.4,26.5z M289.4,3.4h-40.9v32.5
	h40.9c3.8,0,6.9-3.1,6.9-6.9V10.3C296.3,6.5,293.2,3.4,289.4,3.4L289.4,3.4z"/>
<path class="st0" d="M21.3,59.7v1.1c0,1.8-0.8,2.6-2.6,2.6H4.4V51.8h13.8c1.8,0,2.6,0.8,2.6,2.6v0.9c0,1.2-0.4,1.9-1.1,2.2
	C20.8,57.7,21.3,58.5,21.3,59.7z M8.3,54.5v1.9h8c0.6,0,0.7-0.2,0.7-0.7v-0.5c0-0.6-0.2-0.7-0.7-0.7L8.3,54.5z M17.4,59.3
	c0-0.6-0.2-0.7-0.7-0.7H8.3v2.2h8.3c0.6,0,0.7-0.2,0.7-0.7L17.4,59.3z"/>
<path class="st0" d="M27.6,63.5c-2.3,0-3.4-1.1-3.4-3.4v-4.9c0-2.3,1.1-3.4,3.4-3.4h10.7c2.3,0,3.4,1.1,3.4,3.4v4.9
	c0,2.3-1.1,3.4-3.4,3.4L27.6,63.5z M36.7,60.4c0.8,0,1.1-0.3,1.1-1.1v-3.4c0-0.8-0.3-1.1-1.1-1.1h-7.6c-0.8,0-1.1,0.3-1.1,1.1v3.4
	c0,0.8,0.3,1.1,1.1,1.1H36.7z"/>
<path class="st0" d="M62,63.5h-4.7L54,59.7h-5.3v3.8h-3.9V51.8h13.6c2.1,0,3,0.9,3,3v1.6c0,2.1-0.9,3-3,3L62,63.5z M48.7,54.4v2.7h8
	c0.7,0,0.9-0.2,0.9-0.9v-0.9c0-0.7-0.2-0.9-0.9-0.9H48.7z"/>
<path class="st0" d="M78.1,51.8h3.7v11.7h-3.2l-10.4-7.6v7.6h-3.7V51.8h3.3l10.2,7.4V51.8z"/>
<path class="st0" d="M107,54.8H95.7v2h10.7v2.7H95.7v4h-3.9V51.8H107V54.8z"/>
<path class="st0" d="M112.9,63.5c-2.3,0-3.4-1.1-3.4-3.4v-4.9c0-2.3,1.1-3.4,3.4-3.4h10.7c2.3,0,3.4,1.1,3.4,3.4v4.9
	c0,2.3-1.1,3.4-3.4,3.4L112.9,63.5z M122.1,60.4c0.8,0,1.1-0.3,1.1-1.1v-3.4c0-0.8-0.3-1.1-1.1-1.1h-7.6c-0.8,0-1.1,0.3-1.1,1.1v3.4
	c0,0.8,0.3,1.1,1.1,1.1H122.1z"/>
<path class="st0" d="M147.3,63.5h-4.7l-3.2-3.7H134v3.8h-3.9V51.8h13.6c2.1,0,3,0.9,3,3v1.6c0,2.1-0.9,3-3,3L147.3,63.5z M134,54.4
	v2.7h8c0.7,0,0.9-0.2,0.9-0.9v-0.9c0-0.7-0.2-0.9-0.9-0.9H134z"/>
<path class="st0" d="M172.6,51.8h3.3v11.7h-3.7v-6.9l-4.9,5.1h-2.1l-4.9-5.1v6.9h-3.7V51.8h3.4l6.3,6.5L172.6,51.8z"/>
<path class="st0" d="M182.4,63.5c-2.3,0-3.4-1.1-3.4-3.4v-4.9c0-2.3,1.1-3.4,3.4-3.4h10.7c2.3,0,3.4,1.1,3.4,3.4v4.9
	c0,2.3-1.1,3.4-3.4,3.4L182.4,63.5z M191.6,60.4c0.8,0,1.1-0.3,1.1-1.1v-3.4c0-0.8-0.3-1.1-1.1-1.1H184c-0.8,0-1.1,0.3-1.1,1.1v3.4
	c0,0.8,0.3,1.1,1.1,1.1H191.6z"/>
<path class="st0" d="M216.8,63.5H212l-3.2-3.7h-5.3v3.8h-3.9V51.8h13.6c2.1,0,3,0.9,3,3v1.6c0,2.1-0.9,3-3,3L216.8,63.5z
	 M203.5,54.4v2.7h8c0.7,0,0.9-0.2,0.9-0.9v-0.9c0-0.7-0.2-0.9-0.9-0.9H203.5z"/>
<path class="st0" d="M223.3,60.6h11.6v2.8h-15.5V51.8h15.4v2.8h-11.5v1.7h10.8v2.4h-10.8V60.6z"/>
<path class="st1" d="M21.3,59.7v1.1c0,1.8-0.8,2.6-2.6,2.6H4.4V51.8h13.8c1.8,0,2.6,0.8,2.6,2.6v0.9c0,1.2-0.4,1.9-1.1,2.2
	C20.8,57.7,21.3,58.5,21.3,59.7z M8.3,54.5v1.9h8c0.6,0,0.7-0.2,0.7-0.7v-0.5c0-0.6-0.2-0.7-0.7-0.7L8.3,54.5z M17.4,59.3
	c0-0.6-0.2-0.7-0.7-0.7H8.3v2.2h8.3c0.6,0,0.7-0.2,0.7-0.7L17.4,59.3z"/>
<path class="st1" d="M27.6,63.5c-2.3,0-3.4-1.1-3.4-3.4v-4.9c0-2.3,1.1-3.4,3.4-3.4h10.7c2.3,0,3.4,1.1,3.4,3.4v4.9
	c0,2.3-1.1,3.4-3.4,3.4L27.6,63.5z M36.7,60.4c0.8,0,1.1-0.3,1.1-1.1v-3.4c0-0.8-0.3-1.1-1.1-1.1h-7.6c-0.8,0-1.1,0.3-1.1,1.1v3.4
	c0,0.8,0.3,1.1,1.1,1.1H36.7z"/>
<path class="st1" d="M62,63.5h-4.7L54,59.7h-5.3v3.8h-3.9V51.8h13.6c2.1,0,3,0.9,3,3v1.6c0,2.1-0.9,3-3,3L62,63.5z M48.7,54.4v2.7h8
	c0.7,0,0.9-0.2,0.9-0.9v-0.9c0-0.7-0.2-0.9-0.9-0.9H48.7z"/>
<path class="st1" d="M78.1,51.8h3.7v11.7h-3.2l-10.4-7.6v7.6h-3.7V51.8h3.3l10.2,7.4V51.8z"/>
<path class="st1" d="M107,54.8H95.7v2h10.7v2.7H95.7v4h-3.9V51.8H107V54.8z"/>
<path class="st1" d="M112.9,63.5c-2.3,0-3.4-1.1-3.4-3.4v-4.9c0-2.3,1.1-3.4,3.4-3.4h10.7c2.3,0,3.4,1.1,3.4,3.4v4.9
	c0,2.3-1.1,3.4-3.4,3.4L112.9,63.5z M122.1,60.4c0.8,0,1.1-0.3,1.1-1.1v-3.4c0-0.8-0.3-1.1-1.1-1.1h-7.6c-0.8,0-1.1,0.3-1.1,1.1v3.4
	c0,0.8,0.3,1.1,1.1,1.1H122.1z"/>
<path class="st1" d="M147.3,63.5h-4.7l-3.2-3.7H134v3.8h-3.9V51.8h13.6c2.1,0,3,0.9,3,3v1.6c0,2.1-0.9,3-3,3L147.3,63.5z M134,54.4
	v2.7h8c0.7,0,0.9-0.2,0.9-0.9v-0.9c0-0.7-0.2-0.9-0.9-0.9H134z"/>
<path class="st1" d="M172.6,51.8h3.3v11.7h-3.7v-6.9l-4.9,5.1h-2.1l-4.9-5.1v6.9h-3.7V51.8h3.4l6.3,6.5L172.6,51.8z"/>
<path class="st1" d="M182.4,63.5c-2.3,0-3.4-1.1-3.4-3.4v-4.9c0-2.3,1.1-3.4,3.4-3.4h10.7c2.3,0,3.4,1.1,3.4,3.4v4.9
	c0,2.3-1.1,3.4-3.4,3.4L182.4,63.5z M191.6,60.4c0.8,0,1.1-0.3,1.1-1.1v-3.4c0-0.8-0.3-1.1-1.1-1.1H184c-0.8,0-1.1,0.3-1.1,1.1v3.4
	c0,0.8,0.3,1.1,1.1,1.1H191.6z"/>
<path class="st1" d="M216.8,63.5H212l-3.2-3.7h-5.3v3.8h-3.9V51.8h13.6c2.1,0,3,0.9,3,3v1.6c0,2.1-0.9,3-3,3L216.8,63.5z
	 M203.5,54.4v2.7h8c0.7,0,0.9-0.2,0.9-0.9v-0.9c0-0.7-0.2-0.9-0.9-0.9H203.5z"/>
<path class="st1" d="M223.3,60.6h11.6v2.8h-15.5V51.8h15.4v2.8h-11.5v1.7h10.8v2.4h-10.8V60.6z"/>
</svg>
