<?xml version="1.0" encoding="utf-8"?>
<svg version="1.1" id="Layer_1" xmlns="http://www.w3.org/2000/svg" xmlns:xlink="http://www.w3.org/1999/xlink" x="0px" y="0px"
	 viewBox="0 0 2279.4 1519.6" style="enable-background:new 0 0 2279.4 1519.6;" xml:space="preserve">
<style type="text/css">
	.st0{fill:#FFFFFF;}
</style>
<path class="st0" d="M1161.3,52.4c-46.4,57.3-178.9,242.2-194,266.1c-29.1,45.9-31.6,68.1-32.5,82.9c-0.8,14.5-0.8,40.8,22.8,62.1
	c39.6,35.3,95.2,29.6,144.5,29.6h406c17.4,0,22.5-5.1,31.9-17.7c32.5-49.6,47-103.4,47-151.6c0-103.1-66.9-233.1-236.5-291.8
	l-19.1,27.3c134.5,63.8,190.1,147.3,190.1,264.1c0.9,31.4-7.4,65.2-27.9,96.6h-394.9c-23.6,0-27.1-26.8-18.5-41.9
	c33.9-60.3,71.6-118.2,113.1-173.5c39.9-53.3,79.2-103.2,120.5-155.3c11.1-14.5,3.7-28.5-18.5-33C1249.1,6.8,1201,0,1142.6,0
	c-324,0-442.5,186.1-442.5,324c0,149.6,119.4,323.1,443.4,323.1c179.8,0,297.5-57.9,365.6-132.2h-68.7c-59.6,55-161.8,94-296.9,94
	C869,608.9,767.9,454.8,767.9,322c2-118.5,110.5-282.1,382.4-287.5C1160.5,34.2,1168.5,43.6,1161.3,52.4L1161.3,52.4z M2135.8,906.3
	c16.2,2.3,28.8,15.1,28.8,30.2c0,17.1-15.4,30.8-34.2,30.8h-348.2V739.7h-102.6v228.2H1491c-51,0-61.5-31.1-61.5-59.6V738.2h-170.1
	c-16.8,11.4-33.1,23.9-50.4,34.5l-100.9,62.1L977,739.1H773v57.3h73.8V765l173.5,124.5l-118.5,74.4H773v57.3h149
	c16-10.8,31.1-22.2,47.6-32.2l103.7-63l131.6,94h149.9l-198-149l101.7-66.4c21.7-14.3,44.5-26.2,66.7-39.3v149.9
	c0,63.2,16.2,107.1,143.6,107.1l719.4-1.7c55.6,0.8,91.2-37.6,91.2-84c0-46.2-41-84.1-91.2-84.1h-259.9
	c3.4-31.6,30.8-58.1,58.4-58.1h263l-0.8-55H1970c-88.3,0-159,73.2-161,158.4c-0.3,6,3.7,9.7,10.3,9.7L2135.8,906.3L2135.8,906.3z
	 M773,905.5v-58.4h50.7v58.4H773z M773,739.1H580.4c-52.1,0-92.3,13.7-121.9,37c-53.3,42.2-70.4,86.6-69.8,106.6h69.5
	c-30.5,22.8-51,50.1-61.8,81.8h-228c-41,0-67.5-29-67.5-57.3V737.1H0v176.7c0,63.5,60.4,107.4,157.3,107.4H773v-57.3H528.5
	c1.1-29,32.2-58.4,60.4-58.4H773v-58.4H525.7c-3.4-17.1,28.5-50.7,53-50.7H773V739.1z"/>
</svg>
