<svg xmlns="http://www.w3.org/2000/svg" viewBox="0 0 659.14 358.29"><defs><style>.cls-1{fill:#fff;}</style></defs><g id="Text"><path class="cls-1" d="M126.07,259.14v15.42h-6c-31.49,0-63,.09-94.46-.1-4.42,0-5.67,1.16-5.61,5.58.25,17.33.21,34.66,0,52,0,4.08,1.11,5.44,5.33,5.41q39.48-.26,79,0c3.87,0,5.42-1,5.13-5a105.19,105.19,0,0,1,0-14c.23-3.82-1.27-4.86-4.9-4.83-17.66.14-35.33.06-53,.06H45.41c0-4.56-.2-8.67.15-12.73.08-1,2-2.51,3.13-2.52q37.25-.21,74.48,0c1,0,3,2.05,3,3.16.19,16.16.09,32.32.16,48.49,0,2.77-1.41,3.32-3.76,3.29-5.66-.07-11.33,0-17,0h-83c-13.82,0-19.81-6-19.82-19.79q0-28,0-56c0-12.53,5.89-18.44,18.3-18.44h105Z"/><path class="cls-1" d="M273.43,274.63H171.13c0,7.27-.15,14.05.17,20.8,0,1,2.27,2.62,3.58,2.71,4.64.33,9.32.13,14,.13H270.5v15.37h-6.12c-29.15,0-58.3.08-87.45-.09-4.49,0-6.37,1.08-5.91,5.85a78.13,78.13,0,0,1,0,13c-.29,4,1.28,5.08,5.15,5.05,23.32-.15,46.64-.08,70-.08h27.27V353c-1.34.11-2.75.33-4.17.33q-48.23,0-96.45,0c-12.87,0-18.88-6.1-18.88-19q0-34.23,0-68.47v-6.3H273.43Z"/><path class="cls-1" d="M415.71,298.28v15c-1.83.1-3.73.31-5.64.31-29.33,0-58.66.1-88-.08-4.5,0-6.39,1.08-5.94,5.86a79.23,79.23,0,0,1,0,13c-.29,4.06,1.32,5.06,5.17,5,24.16-.15,48.32-.08,72.49-.08h25.09c0,4.73.16,9-.13,13.26-.06,1-1.55,2.18-2.65,2.61s-2.63.14-4,.14h-94c-13,0-18.93-5.9-18.94-18.86V259.59H418.55v14.72c-1.92.08-3.87.24-5.82.24-30.33,0-60.66.09-91-.1-4.37,0-6,1.07-5.59,5.55a81.64,81.64,0,0,1,0,13c-.31,4.21,1.27,5.39,5.39,5.37,29.33-.15,58.66-.08,88-.08Z"/><path class="cls-1" d="M577.45,353.36c0-10.95-.15-20.94.07-30.93a11.39,11.39,0,0,0-3.76-9.18c-16.74-16.49-33.31-33.16-49.92-49.78-1.15-1.14-2.21-2.37-4.12-4.43,7.56,0,14.12-.2,20.65.15,1.47.07,3,1.9,4.25,3.15q18.6,18.53,37.13,37.12c1.26,1.26,2.59,2.45,4.66,4.4,6.61-6.9,12.88-13.55,19.27-20.08,7.23-7.38,14.46-14.77,22-21.86a12.07,12.07,0,0,1,6.91-2.85c5.45-.41,11-.13,17.53-.13-1.67,1.84-2.66,3-3.75,4.11-16.85,16.86-33.78,33.63-50.47,50.64a12.75,12.75,0,0,0-3.24,7.71c-.4,8.82-.4,17.67,0,26.49.18,4.57-1.48,5.88-5.74,5.53C585.24,353.12,581.6,353.36,577.45,353.36Z"/><path class="cls-1" d="M462,258.94v6.74c0,22,.14,44-.11,66-.05,4.73,1.47,5.83,6,5.8,25.65-.2,51.3-.1,77-.1H551c0,4.81.23,9.25-.19,13.63-.09.9-2.54,2.22-3.94,2.27-7.16.23-14.32.11-21.49.11H464c-12.95,0-19.11-6.1-19.12-18.87,0-23.33.1-46.65-.09-70,0-4.3,1.06-6.1,5.57-5.65C453.92,259.23,457.59,258.94,462,258.94Z"/></g><g id="Logo"><g id="Logo-2" data-name="Logo"><path class="cls-1" d="M187.55,95.63a1581.86,1581.86,0,0,0,281.57-.13c-.65,8-1.19,15.09-1.79,22.13-1.69,19.74-3.45,39.47-5.05,59.21-.21,2.56-.88,3.82-3.61,4.26-43.54,7-87,16.12-131.25,15.33-29.66-.52-59.26-5.37-88.83-8.78-13.71-1.58-27.27-4.39-40.93-6.46-2.82-.43-4-1.61-4.25-4.39q-3.18-39.31-6.44-78.63A13,13,0,0,1,187.55,95.63Z"/><path class="cls-1" d="M469.81,86.3c-16.14,1-31.72,2-47.3,2.83-20.44,1-40.88,2.25-61.34,2.7-21.79.48-43.63.79-65.4,0-34.25-1.18-68.47-3.32-102.7-5-7.29-.37-7.06-.37-7.33-7.8C185,57.76,184,36.48,183.09,15.19c-.12-3,0-5.93,0-9.81H473.16C472,32.63,470.93,59.28,469.81,86.3Z"/><path class="cls-1" d="M482.81,6.18c11.35,0,22.15-.2,32.94,0,25.46.57,50.92,1.19,76.37,2.13,11.63.42,23.27,1.31,34.84,2.6,16.18,1.81,24.65,10.49,25.54,26.77.58,10.44-.28,21-.44,31.43,0,2.8-1.52,3.64-4.08,3.84-26.05,2-52.09,4.13-78.14,6.11q-41.55,3.15-83.12,6.08c-2.14.15-4.3,0-7.21,0C480.61,58.87,481.71,32.58,482.81,6.18Z"/><path class="cls-1" d="M172.93,6c1.15,26.73,2.26,52.77,3.4,79.56-9.49-.57-18.55-1-27.6-1.69q-34.09-2.44-68.17-5Q44.25,76,8,72.88c-1.37-.11-3.72-1.73-3.74-2.7-.34-12.43-1.25-25-.15-37.3,1.08-12.16,9.41-19.36,21.27-21.29A235.27,235.27,0,0,1,54.14,9c30.76-1.18,61.53-2.09,92.3-3C155.05,5.75,163.69,6,172.93,6Z"/><path class="cls-1" d="M650.34,82.63c-2.05,25-10.26,46-33.26,58.7-18.75,10.36-39.13,16-59.85,20.39-26.88,5.7-53.87,10.85-80.82,16.22a43.15,43.15,0,0,1-4.49.36c2.36-27.72,4.68-55,7-82.65Z"/><path class="cls-1" d="M176.92,95.64c2.36,27.73,4.68,55,7.06,83.09-9.28-1.69-17.94-3-26.48-4.88-28.78-6.28-57.64-12.26-86.2-19.39-10.85-2.72-21.36-7.57-31.38-12.69-16.2-8.28-27-21.43-31-39.53-1.4-6.3-2.59-12.66-4-19.64Z"/></g></g></svg>