<svg xmlns="http://www.w3.org/2000/svg" xmlns:xlink="http://www.w3.org/1999/xlink" viewBox="0 0 345.51 230.34"><defs><style>.a,.d,.h{stroke:#141414;}.a{stroke-linecap:square;stroke-width:0.97px;fill:url(#a);}.b{fill:#141414;}.c,.h{fill:#fff;}.d,.h{stroke-width:1.14px;}.d{fill:url(#b);}.e{fill:#42bd3b;}.f{fill:url(#c);}.g{fill:url(#d);}</style><linearGradient id="a" x1="-177.76" y1="-241.94" x2="96.33" y2="-241.94" gradientTransform="matrix(0, -0.83, -0.83, 0, -86.6, 80.5)" gradientUnits="userSpaceOnUse"><stop offset="0" stop-color="#99a2a7"/><stop offset="0.48" stop-color="#98a3a8"/><stop offset="0.54" stop-color="#e6e6e6"/><stop offset="1" stop-color="#e6e6e6"/></linearGradient><linearGradient id="b" x1="15.91" y1="15.49" x2="132.17" y2="-90.88" gradientTransform="translate(21.11 160.94) scale(1.3 1.3)" gradientUnits="userSpaceOnUse"><stop offset="0" stop-color="#151313"/><stop offset="0.09" stop-color="#151313"/><stop offset="0.13" stop-color="#f8f1f1"/><stop offset="0.23" stop-color="#151313"/><stop offset="0.3" stop-color="#141414"/><stop offset="0.38" stop-color="#f8f1f1"/><stop offset="0.45" stop-color="#151313"/><stop offset="0.57" stop-color="#f8f1f4"/><stop offset="0.63" stop-color="#141414"/><stop offset="0.79" stop-color="#f8f1f1"/><stop offset="1" stop-color="#f8f1f2"/></linearGradient><linearGradient id="c" x1="153.42" y1="-15.42" x2="164.98" y2="-36.19" gradientTransform="matrix(1, -0.15, -0.15, -1, -29.68, 139.93)" gradientUnits="userSpaceOnUse"><stop offset="0" stop-color="#151313"/><stop offset="0.16" stop-color="#ccc4c4"/><stop offset="0.5" stop-color="#b7acad"/><stop offset="1" stop-color="#151313"/></linearGradient><linearGradient id="d" x1="26.6" y1="21.44" x2="42.71" y2="4.67" gradientTransform="matrix(-0.92, -0.41, 0.41, -0.92, 147.55, 164.38)" gradientUnits="userSpaceOnUse"><stop offset="0" stop-color="#151313"/><stop offset="0.25" stop-color="#ccc4c4"/><stop offset="0.5" stop-color="#b7acad"/><stop offset="1" stop-color="#151313"/></linearGradient></defs><path class="a" d="M113.33,0A113.72,113.72,0,1,1,0,114.11,113.72,113.72,0,0,1,113.33,0Z"/><path class="b" d="M113.72,215.83A102.11,102.11,0,0,1,41.51,41.52a102.11,102.11,0,1,1,144.41,144.4,101.44,101.44,0,0,1-72.21,29.91"/><path class="c" d="M113.72,207.54A93.82,93.82,0,0,1,47.38,47.37,93.82,93.82,0,1,1,180.06,180.06a93.21,93.21,0,0,1-66.34,27.48"/><path class="d" d="M184.95,158.79a47.84,47.84,0,0,0-25.21-12.38,2.24,2.24,0,0,0-2.59,2.21v3.46a2.14,2.14,0,0,1-1.82,2.19c-.75,0-1.5,0-2.25,0-2.66,0-3.14-3.3-2.61-5.23,5.66-20.31,7-32.63,7-41.6-.07-9.53-.31-19-4.61-31.61-4.14-12.1-7.92-23.94-27.91-42a7.12,7.12,0,0,0-4.56-2c-2-.14-3.57-.21-5.57-.21a82.92,82.92,0,0,0-23.88,3.49c-2.83.86-2.41,2.83-.85,4.17,7.55,6.46,17.78,16.16,24.84,28.28-4.47.43-7.89-2.05-10.76-4.8A135.52,135.52,0,0,0,77.1,43a3.87,3.87,0,0,0-4-.31A75.76,75.76,0,0,0,51.83,60.34c-1.16,1.35-.41,2.4.73,3A155.81,155.81,0,0,1,82.43,84.56c-2.18,1.84-5.65,1.24-10.67-1.4a120.07,120.07,0,0,0-26-9.81,3.41,3.41,0,0,0-3.92,1.39,78.75,78.75,0,0,0-9.14,26.84,3.32,3.32,0,0,0,2.8,3.78C52,108.25,81.4,116,86.29,149.88c.42,3-2.28,5.57-5.83,3.9l-14.86-7a4.17,4.17,0,0,0-1.68-.45H40.55c-3.32,0-4.69,3.18-2.53,5.65A145.49,145.49,0,0,1,53.2,172.88a1.63,1.63,0,0,0,1.6.91H65a3.54,3.54,0,0,0,1.89-.52l9.63-5.63a3.4,3.4,0,0,1,1.88-.35h76.89a1.73,1.73,0,0,1,1.87,1.7v3.78a2.24,2.24,0,0,0,2.59,2.21,47.86,47.86,0,0,0,25.21-12.38,2.6,2.6,0,0,0,0-3.81"/><path class="e" d="M127.67,147.72A13.7,13.7,0,1,1,141.36,134,13.7,13.7,0,0,1,127.67,147.72Zm50.35,13a39.09,39.09,0,0,0-17.34-8.37c-.6-.12-.9.11-.9.73v.33a3.78,3.78,0,0,1-3.28,3.54h-4.33c-3.65,0-6.91-3-5.56-7.84,15.63-55.77-1.83-90.26-23.89-109.56-6-5.23-6.53-5.52-12.5-5.3a79,79,0,0,0-14.88,1.89c-.92.22-1.68,1-.47,2a104.15,104.15,0,0,1,33.69,51.57c.25.89-.28.83-1,.86-6.48.39-8.67-3.58-10.69-6.1C102.22,66.12,85.75,55,73.42,47.69,72.19,47,72,47,71.06,47.52A69.26,69.26,0,0,0,56.61,59.1c-.82.88-.61,1.29.29,1.78,11.15,6,28.12,17.76,43.88,37.72,1,1.24,1,1.81.49,2.13-3,1.81-8.09,1.78-13.64-1.67-15-9.37-30.29-16-42.24-19.45-1.27-.37-1.5-.3-2,.79-2.91,6.12-6.09,14.08-7.23,21-.14.9-.22,1,.61,1.14,32.87,6.68,50.9,24.7,53,48.8.36,4.18-4.37,8.21-9.08,6.72-5.11-1.62-10.07-3.45-15.19-5.06a5.28,5.28,0,0,0-1.69-.26H42.57c-.94,0-1.5.59-.56,1.78,5.34,6.75,8.44,10.58,12.2,16.89a1.63,1.63,0,0,0,1.6.91h7.8a5.3,5.3,0,0,0,2.81-.77c2.83-1.66,5.64-3.2,8.47-4.86a5,5,0,0,1,2.71-.85h78.83a3.85,3.85,0,0,1,3.33,3.56v.57c0,.62.29.85.9.73,6.66-1.38,12.14-4.58,17.34-8.82.47-.39.47-.76,0-1.15"/><path class="f" d="M141.95,132.46a15.46,15.46,0,1,1-17.53-13.06,15.45,15.45,0,0,1,17.53,13.06"/><path class="g" d="M129.13,119.43,124.49,150a15.47,15.47,0,0,0,4.65-30.58Z"/><path class="h" d="M139.7,134.3a10.36,10.36,0,1,1-10.36-10.36A10.36,10.36,0,0,1,139.7,134.3"/></svg>