<svg xmlns="http://www.w3.org/2000/svg" viewBox="0 0 331.7 221.1"><path fill="#FFFFFF" d="M192.4,136.2c0,.6.2,1,.6,1a1.91,1.91,0,0,0,.8-.3L297.1,69.7a10.36,10.36,0,0,1,6-1.8h22.7a5.46,5.46,0,0,1,5.8,5.8v43.4c0,5.2-1.2,8.3-5.8,11.1l-27.6,16.6a1.61,1.61,0,0,1-.9.3c-.3,0-.7-.3-.7-1.2V93.3c0-.6-.2-1-.6-1a1.14,1.14,0,0,0-.8.3l-75.5,49.1a10,10,0,0,1-5.8,1.8H163.8a5.46,5.46,0,0,1-5.8-5.8V75.1c0-.5-.2-.9-.6-.9a1.91,1.91,0,0,0-.8.3l-49.8,29.9c-.5.3-.6.6-.6.8s.1.4.4.8l35.6,35.6c.5.5.8.8.8,1.2s-.5.6-1.2.6H109.6c-2.5,0-4.5-.4-5.8-1.7L82.3,120.1a.91.91,0,0,0-.7-.3,1.85,1.85,0,0,0-.7.2l-36,21.7a10.18,10.18,0,0,1-5.8,1.7H5.9A5.54,5.54,0,0,1,0,137.6V95c0-5.3,1.2-8.3,5.8-11.1L33.6,67.3a1.85,1.85,0,0,1,.7-.2c.4,0,.7.4.7,1.4v57c0,.6.1.9.6.9a1.91,1.91,0,0,0,.8-.3L130,69.6a10.39,10.39,0,0,1,6.2-1.7h50.4a5.46,5.46,0,0,1,5.8,5.8v62.5Z"/></svg>