<?xml version="1.0" encoding="utf-8"?>
<svg version="1.1" id="Layer_1" xmlns="http://www.w3.org/2000/svg" xmlns:xlink="http://www.w3.org/1999/xlink" x="0px" y="0px"
	 viewBox="0 0 430.3 286.87" style="enable-background:new 0 0 430.3 286.87;" xml:space="preserve">
<style type="text/css">
	.st0{fill:#FFFFFF;}
</style>
<path class="st0" d="M13,226.3c6.6-7.3,6.9-8.9,7.3-38.3l0.4-25.7l4.9,0.3l4.9,0.3l0.3,21.1c0.2,13.2-0.1,23.1-0.7,26.3
	c-2,10.6-8.3,17.4-18.4,19.8C9.1,230.6,9.1,230.6,13,226.3z M170.8,218c-12.5-2.1-18.1-4.6-22.8-10c-6.3-7.4-7.4-19-2.6-28.6
	c5.4-11.1,17.1-17.2,32.6-17.1c7.3,0,10.6,0.6,15.5,2.5c2.9,1.1,3.2,1.6,3.2,4.2c0,1.6-0.2,2.9-0.5,2.9c-1.7-0.7-3.4-1.4-5-2.3
	c-6.1-3.1-16.9-3.8-22.8-1.6c-5.4,2.1-11,7.4-12.9,12.4c-2.3,6-2.1,15.8,0.5,21.1c2.4,4.9,7.5,9.5,12.1,10.9
	c4.1,1.2,14.7,1.3,17.8,0.2c2.2-0.8,2.2-0.9,2.2-10.8v-10l5,0.3l5,0.3v22.4l-5.4,1.5C187.1,217.5,174.6,218.6,170.8,218L170.8,218z
	 M249.8,217.6c-10-1.8-14.9-5.2-17.3-12c-1-3-1.3-8-1.3-23.6v-19.8l5,0.3l5,0.3l0.4,20.7c0.5,23.6,0.9,25,7.1,28.1
	c4.9,2.5,17.5,2.2,21.1-0.6c6.4-4.8,7.1-7.9,7.2-31.7l0-17.1l2.8,0.3l2.8,0.3V183c0,19.1-0.1,20.5-1.9,23.7
	c-2.2,4.4-5.9,7.7-10.5,9.4C265.5,217.9,255.3,218.6,249.8,217.6L249.8,217.6z M74.7,189.7l13.6-27h3c3.3,0,2.6-1.3,21.3,37.3
	l8,16.6h-12.1l-3.4-7.3l-3.4-7.4H74.9l-3.6,7.3c-3.6,7.3-3.7,7.3-6.9,7.3h-3.3L74.7,189.7z M94.7,186.3c-2.8-6.3-5.4-11.7-5.8-12
	s-3.2,4.8-6.3,11.4l-5.8,12h23L94.7,186.3z M307.2,216.3c0-0.2,6-12.5,13.4-27.2l13.4-26.8l3.1,0.3l3.1,0.3l12.8,26.3
	c7,14.5,12.8,26.6,12.9,27s-2.6,0.6-5.9,0.6H354l-3.1-7.1l-3.1-7.1l-13.8-0.2l-13.7-0.3l-3.4,7.4c-3.4,7.3-3.4,7.4-6.6,7.4
	C308.6,216.7,307.2,216.5,307.2,216.3L307.2,216.3z M345.2,197.3c0-0.2-2.4-5.7-5.4-12.2l-5.4-11.7l-3,5.9
	c-1.6,3.2-4.3,8.7-5.9,12.2l-2.9,6.3H334C340.1,197.7,345.2,197.5,345.2,197.3L345.2,197.3z M392.9,189.8l0.2-27l8.6-0.3
	c16.7-0.5,27.6,2.1,31.7,7.7c4.6,6.2,3.2,15.7-3,21c-2,1.7-4.1,3.1-4.7,3.1s-1.1,0.3-1.1,0.6s3.5,5.4,7.8,11.3l7.8,10.6l-6.2-0.2
	l-6.2-0.2l-6.9-10.1l-7-10.1H403v20.7h-10.4L392.9,189.8z M419.6,190.3c7.6-4.4,8-17.1,0.6-21.5c-1.9-1.1-5-1.8-9.9-2l-7.1-0.4v26.3
	l6.8-0.4C414.4,192.1,417.5,191.4,419.6,190.3L419.6,190.3z M357.7,148.2c-1.9-0.6-3.8-1.4-5.6-2.4c-2-1.1-1.7-1.3,5.1-1.7
	c6.5-0.4,7.4-0.7,9.3-2.9c3.7-4.3,2-8.3-4.9-11.2c-5.2-2.2-1.2-1.6,7.4,1.2c10.2,3.3,17.6,3.2,26.3-0.3c6.5-2.6,4.6-0.7-2.6,2.6
	c-3.5,1.6-6.6,2.3-11.7,2.6l-6.9,0.4l0.3,2.8c0.3,2.3-0.2,3.5-2.6,6s-3.7,3.2-6.8,3.5C362.5,149.2,360.1,148.9,357.7,148.2
	L357.7,148.2z M332.7,134.2c-10.8-6-13.5-6.6-32-7.3c-18.6-0.7-23-1.8-32.6-7.9c-6.7-4.3-15.6-13.5-19.7-20.1
	c-7.1-11.7-10.2-12.9-31.1-12c-16,0.7-30.8-0.6-40.5-3.4l-7-2l-4.5,2.2c-3.9,1.9-5.6,2.2-12.3,2.2c-6.5,0-9-0.5-15.1-2.7
	c-19-7-20-7.2-24-7c-3.8,0.2-4.1,0.4-4.3,2.8c-0.3,3.1-1.9,5.1-1.9,2.4c-0.1-1.1-0.5-2.1-1.3-2.9c-1.9-1.6-1.2-4.5,1.3-5.8
	c3.2-1.7,12-0.8,21.6,2.3c11.4,3.6,15.9,4.6,22.6,4.6s10.4-1.7,12.8-5.7c2.1-3.4,2.2-10.2,0.4-17c-0.7-2.6-1.3-4.8-1.3-4.9
	s3.2,1.5,7.1,3.6c4.5,2.3,9.2,4.4,14,6.2l6.9,2.4l-5.8,0.2c-3.6,0.1-7.1-0.2-10.6-1c-4.5-1.2-4.8-1.2-4.2,0.2c0.6,2.1,0.9,4.3,1,6.4
	c0.4,5,0.4,5,4.4,7c12.7,6.3,19.4,7.4,44.6,7.2l19.1-0.2l3.4,2.3c2.7,1.8,4.2,3.9,7.1,9.8c6,12.3,16.2,21,28,23.7
	c2,0.5,9.3,0.9,16.2,0.9c20.1,0.1,30.2,3.2,40.1,12.4c2.9,2.6,5,4.8,4.8,4.8S336.4,136.3,332.7,134.2L332.7,134.2z M346.4,123
	c-5.8-3.5-10.1-7.3-12.5-11.3c-2.2-3.6-4.7-4.4-15.1-5.4c-8.9-0.8-16.5-3.2-18.7-6c-1-1.2-0.9-1.3,0.5-0.8c4,1.5,9.5,2.4,19.3,3.1
	c12.5,0.9,14.8,2,19.7,9.4c2.4,3.4,5,6.6,7.9,9.5c1.6,1.4,3,2.9,4.3,4.5C351.7,126.1,349.2,124.7,346.4,123z M373.6,124.3
	c-5.9-1.8-23.9-10.9-39.3-19.9C308,88.9,264.3,66.1,265,68.2c0.2,0.5,5.3,6.2,11.4,12.6s10.8,11.7,10.5,11.7
	c-1.2,0-10.8-7.6-16.9-13.4c-7.9-7.5-12.8-10.9-21.4-14.9c-5.9-2.8-7.4-3.1-14.1-3.1c-8.5-0.1-8.1-0.9,1.1-2.2
	c2.2-0.2,4.4-0.6,6.6-1.2c0.7-0.7-48.1-18.3-64.5-23.4c-11-3.4-21.5-6-22.1-5.4c-0.2,0.2,0.4,2.1,1.3,4.2s1.5,3.9,1.4,4.1
	s-2.1-1.2-4.3-3.1c-8.3-7.3-24.3-13.8-39.8-16c-8.6-1.3-12.1-0.7-16.5,2.6l-2.8,2.1l6.3,6.2c8.2,8.1,10.3,11.8,3.9,6.7
	c-5.3-4.4-11.6-7.5-18.3-9.2c-5.3-1.4-9.3-3.3-9.3-4.5c0-0.4,2-0.5,4.5-0.4c3.6,0.2,5.5-0.2,9.2-2.2c8.3-4.3,7.3-4.8-8.7-4.4
	c-11.3,0.3-15.3,0.8-19.8,2.3c-6.1,2-10.6,4.9-9.7,6.3c0.3,0.5,1.5-0.1,2.9-1.4c2.5-2.4,7.1-3,9.6-1.3c2,1.3-3.9,6.3-9.6,8.2
	C46.3,32,43,36.7,48.3,39.7c3.1,1.7,4.5,0.9,8.7-5.4c4.8-7.2,7.8-8.1,12.5-3.8S72.1,43,64.9,49c-4.2,3.6-4.5,4.2-2.1,5
	c2.4,0.8,4.8-0.8,7.7-5.1c2-2.9,3.3-3.9,5.8-4.4c4.7-0.9,8.1-4.7,8.1-9.1c0-1.8-0.3-3.6-0.9-5.3c-0.9-1.7-0.8-1.7,1.8-0.3
	c2.2,1.5,4,3.4,5.3,5.6c2.4,3.8,3.1,4.3,8.4,6c3.4,1.1,6.6,2.6,9.6,4.5c4.4,3.1,11.2,9.4,11.2,10.4c0,0.4-2.1-0.7-4.7-2.3
	C96.9,42.4,83.9,42.5,70,54.5c-6.5,5.7-11.6,3.7-11.2-4.4c0.2-4.2,0.2-4.4,2.5-3.9c1.8,0.4,2.7,0,4.1-1.8c2.1-2.6,2.3-4.8,0.8-7.5
	c-2.1-4-5.3-4.3-7.3-0.5c-0.9,1.8-1.2,3.8-0.8,5.7c0.6,3,0.5,3-1.9,2.5c-1.3-0.3-4-0.9-5.9-1.3c-3.9-0.8-9.1-6-9.1-9.1
	c0-1.2,1.6-3.4,4.2-5.8c2.3-2.2,4.5-4.9,4.8-6.2c1.9-7.4,23.9-13.4,45.4-12.3c16.7,0.9,29.1,3,51.4,8.7c35.9,9.3,77.2,26,133.4,54.1
	c23.3,11.7,35.7,18.3,64.1,34.8c5.6,3.2,14.1,7.6,19,9.8c7.7,3.4,9.8,4,16.2,4.3l7.3,0.4l7.5-4c5.7-3,8.1-3.8,9.8-3.4
	c3.1,0.8,4.4,3.9,3,7c-1.1,2.3-1.1,2.4-1.8,0.5c-1.2-3.2-4.3-3.2-11.1-0.3S378.8,125.8,373.6,124.3L373.6,124.3z M52.5,26.2
	c0-0.2-0.3-0.3-0.7-0.3c-1.1,0-7.9,6.1-7.9,7c0,0.5,1.9-0.8,4.3-2.8C49.7,28.9,51.1,27.6,52.5,26.2z M60.7,23.7
	c1.6-1.2,1.6-1.3-0.8-1.1c-1.4,0.1-2.7,0.7-2.9,1.3C56.5,25.5,58.7,25.3,60.7,23.7z M93.7,85.7c-4.7-4.9-3.8-11.8,2.2-17.9
	c4.3-4.3,10.5-6.4,21.6-7.2l7.2-0.5l-1.2-3.5c-1.3-3.8-0.4-10.2,2-13.3c1.1-1.4,1.2-1.2,1.2,2.5c0,4.4,1.8,9.5,4.2,12.1
	c2,2.2,8.9,5.7,16.2,8c7.3,2.3,6.3,2.5-5.7,0.8c-16.5-2.3-26.5-2.6-32.7-1c-8.9,2.3-13.9,7.2-13.9,13.8c0.2,3.7,3.1,6.6,6.8,6.6
	c1.8,0,2,0.2,1,0.8C100,88.8,96,88.2,93.7,85.7L93.7,85.7z M78.3,19c-1.8-1.1-0.8-1.4,6.6-1.9c6.1-0.4,6.6-0.3,4.3,0.6
	C85.7,19.2,79.7,19.8,78.3,19z"/>
</svg>
